<?xml version="1.0" encoding="UTF-8" standalone="no"?>
<!DOCTYPE svg PUBLIC "-//W3C//DTD SVG 1.1//EN"
 "http://www.w3.org/Graphics/SVG/1.1/DTD/svg11.dtd">
<!-- Generated by graphviz version 8.0.1 (0)
 -->
<!-- Title: test Pages: 1 -->
<svg width="909pt" height="1604pt"
 viewBox="0.00 0.00 909.00 1604.00" xmlns="http://www.w3.org/2000/svg" xmlns:xlink="http://www.w3.org/1999/xlink">
<g id="graph0" class="graph" transform="scale(1 1) rotate(0) translate(4 1600)">
<title>test</title>
<polygon fill="white" stroke="none" points="-4,4 -4,-1600 905,-1600 905,4 -4,4"/>
<text text-anchor="middle" x="450.5" y="-10" font-family="Times,serif" font-size="20.00">Compara schema diagram: Taxonomy and species&#45;tree tables</text>
<g id="clust4" class="cluster">
<title>cluster_genomes</title>
<polygon fill="white" stroke="white" points="530.5,-1214 530.5,-1588 679.5,-1588 679.5,-1214 530.5,-1214"/>
<text text-anchor="middle" x="605" y="-1568" font-family="Times,serif" font-size="20.00">Genomes</text>
</g>
<g id="clust1" class="cluster">
<title>cluster_dataset_description</title>
<polygon fill="white" stroke="white" points="494,-1084 494,-1206 716,-1206 716,-1084 494,-1084"/>
<text text-anchor="middle" x="605" y="-1186" font-family="Times,serif" font-size="20.00">Dataset description</text>
</g>
<g id="clust2" class="cluster">
<title>cluster_gene_gain_loss_trees</title>
<polygon fill="white" stroke="white" points="28,-676 28,-956 205,-956 205,-676 28,-676"/>
<text text-anchor="middle" x="116.5" y="-936" font-family="Times,serif" font-size="20.00">Gene gain/loss trees</text>
</g>
<g id="clust3" class="cluster">
<title>cluster_gene_trees_and_homologies</title>
<polygon fill="white" stroke="white" points="0,-38 0,-527 233,-527 233,-38 0,-38"/>
<text text-anchor="middle" x="116.5" y="-507" font-family="Times,serif" font-size="20.00">Gene trees and homologies</text>
</g>
<g id="clust5" class="cluster">
<title>cluster_taxonomy_and_species_tree</title>
<path fill="#d3f7cd" stroke="#d3f7cd" d="M265,-218C265,-218 881,-218 881,-218 887,-218 893,-224 893,-230 893,-230 893,-1064 893,-1064 893,-1070 887,-1076 881,-1076 881,-1076 265,-1076 265,-1076 259,-1076 253,-1070 253,-1064 253,-1064 253,-230 253,-230 253,-224 259,-218 265,-218"/>
<text text-anchor="middle" x="573" y="-1056" font-family="Times,serif" font-size="20.00">Taxonomy and species&#45;tree</text>
</g>
<!-- ncbi_taxa_name -->
<g id="node1" class="node">
<title>ncbi_taxa_name</title>
<path fill="#24da06" stroke="black" d="M658,-1037.5C658,-1037.5 552,-1037.5 552,-1037.5 546,-1037.5 540,-1031.5 540,-1025.5 540,-1025.5 540,-952.5 540,-952.5 540,-946.5 546,-940.5 552,-940.5 552,-940.5 658,-940.5 658,-940.5 664,-940.5 670,-946.5 670,-952.5 670,-952.5 670,-1025.5 670,-1025.5 670,-1031.5 664,-1037.5 658,-1037.5"/>
<text text-anchor="start" x="552" y="-1016.7" font-family="Times,serif" font-size="16.00">ncbi_taxa_name</text>
<polygon fill="white" stroke="none" points="550,-988.5 550,-1007.5 660,-1007.5 660,-988.5 550,-988.5"/>
<text text-anchor="start" x="581" y="-994.3" font-family="Times,serif" font-size="14.00">taxon_id</text>
<polygon fill="white" stroke="none" points="550,-967.5 550,-986.5 660,-986.5 660,-967.5 550,-967.5"/>
<text text-anchor="start" x="589.5" y="-973.3" font-family="Times,serif" font-size="14.00">name</text>
<polygon fill="white" stroke="none" points="550,-946.5 550,-965.5 660,-965.5 660,-946.5 550,-946.5"/>
<text text-anchor="start" x="573" y="-952.3" font-family="Times,serif" font-size="14.00">name_class</text>
<polygon fill="black" stroke="black" points="548,-1008.5 548,-1008.5 662,-1008.5 662,-1008.5 548,-1008.5"/>
</g>
<!-- ncbi_taxa_node -->
<g id="node2" class="node">
<title>ncbi_taxa_node</title>
<path fill="#24da06" stroke="black" d="M873,-1037.5C873,-1037.5 756,-1037.5 756,-1037.5 750,-1037.5 744,-1031.5 744,-1025.5 744,-1025.5 744,-868.5 744,-868.5 744,-862.5 750,-856.5 756,-856.5 756,-856.5 873,-856.5 873,-856.5 879,-856.5 885,-862.5 885,-868.5 885,-868.5 885,-1025.5 885,-1025.5 885,-1031.5 879,-1037.5 873,-1037.5"/>
<text text-anchor="start" x="763" y="-1016.7" font-family="Times,serif" font-size="16.00">ncbi_taxa_node</text>
<polygon fill="white" stroke="none" points="754,-988.5 754,-1007.5 875,-1007.5 875,-988.5 754,-988.5"/>
<text text-anchor="start" x="777" y="-995.3" font-family="Times,serif" font-weight="bold" font-size="14.00">PK</text>
<text text-anchor="start" x="797" y="-995.3" font-family="Times,serif" font-size="14.00">  taxon_id</text>
<polygon fill="white" stroke="none" points="754,-967.5 754,-986.5 875,-986.5 875,-967.5 754,-967.5"/>
<text text-anchor="start" x="788.5" y="-973.3" font-family="Times,serif" font-size="14.00">parent_id</text>
<polygon fill="white" stroke="none" points="754,-946.5 754,-965.5 875,-965.5 875,-946.5 754,-946.5"/>
<text text-anchor="start" x="802" y="-952.3" font-family="Times,serif" font-size="14.00">rank</text>
<polygon fill="white" stroke="none" points="754,-925.5 754,-944.5 875,-944.5 875,-925.5 754,-925.5"/>
<text text-anchor="start" x="756" y="-931.3" font-family="Times,serif" font-size="14.00">genbank_hidden_flag</text>
<polygon fill="white" stroke="none" points="754,-904.5 754,-923.5 875,-923.5 875,-904.5 754,-904.5"/>
<text text-anchor="start" x="787" y="-910.3" font-family="Times,serif" font-size="14.00">left_index</text>
<polygon fill="white" stroke="none" points="754,-883.5 754,-902.5 875,-902.5 875,-883.5 754,-883.5"/>
<text text-anchor="start" x="782.5" y="-889.3" font-family="Times,serif" font-size="14.00">right_index</text>
<polygon fill="white" stroke="none" points="754,-862.5 754,-881.5 875,-881.5 875,-862.5 754,-862.5"/>
<text text-anchor="start" x="794.5" y="-868.3" font-family="Times,serif" font-size="14.00">root_id</text>
<polygon fill="black" stroke="black" points="752,-1008.5 752,-1008.5 877,-1008.5 877,-1008.5 752,-1008.5"/>
</g>
<!-- ncbi_taxa_name&#45;&gt;ncbi_taxa_node -->
<g id="edge10" class="edge">
<title>ncbi_taxa_name:e&#45;&gt;ncbi_taxa_node:w</title>
<path fill="none" stroke="black" stroke-dasharray="5,2" d="M661,-998C697.85,-998 709.66,-998 741.82,-998"/>
<polygon fill="black" stroke="black" points="741.5,-1001.5 751.5,-998 741.5,-994.5 741.5,-1001.5"/>
</g>
<!-- species_tree_node -->
<g id="node3" class="node">
<title>species_tree_node</title>
<path fill="#24da06" stroke="black" d="M663.5,-904.5C663.5,-904.5 546.5,-904.5 546.5,-904.5 540.5,-904.5 534.5,-898.5 534.5,-892.5 534.5,-892.5 534.5,-693.5 534.5,-693.5 534.5,-687.5 540.5,-681.5 546.5,-681.5 546.5,-681.5 663.5,-681.5 663.5,-681.5 669.5,-681.5 675.5,-687.5 675.5,-693.5 675.5,-693.5 675.5,-892.5 675.5,-892.5 675.5,-898.5 669.5,-904.5 663.5,-904.5"/>
<text text-anchor="start" x="546.5" y="-883.7" font-family="Times,serif" font-size="16.00">species_tree_node</text>
<polygon fill="white" stroke="none" points="544.5,-855.5 544.5,-874.5 665.5,-874.5 665.5,-855.5 544.5,-855.5"/>
<text text-anchor="start" x="569" y="-862.3" font-family="Times,serif" font-weight="bold" font-size="14.00">PK</text>
<text text-anchor="start" x="589" y="-862.3" font-family="Times,serif" font-size="14.00">  node_id</text>
<polygon fill="white" stroke="none" points="544.5,-834.5 544.5,-853.5 665.5,-853.5 665.5,-834.5 544.5,-834.5"/>
<text text-anchor="start" x="579" y="-840.3" font-family="Times,serif" font-size="14.00">parent_id</text>
<polygon fill="white" stroke="none" points="544.5,-813.5 544.5,-832.5 665.5,-832.5 665.5,-813.5 544.5,-813.5"/>
<text text-anchor="start" x="585" y="-819.3" font-family="Times,serif" font-size="14.00">root_id</text>
<polygon fill="white" stroke="none" points="544.5,-792.5 544.5,-811.5 665.5,-811.5 665.5,-792.5 544.5,-792.5"/>
<text text-anchor="start" x="577.5" y="-798.3" font-family="Times,serif" font-size="14.00">left_index</text>
<polygon fill="white" stroke="none" points="544.5,-771.5 544.5,-790.5 665.5,-790.5 665.5,-771.5 544.5,-771.5"/>
<text text-anchor="start" x="573" y="-777.3" font-family="Times,serif" font-size="14.00">right_index</text>
<polygon fill="white" stroke="none" points="544.5,-750.5 544.5,-769.5 665.5,-769.5 665.5,-750.5 544.5,-750.5"/>
<text text-anchor="start" x="553.5" y="-756.3" font-family="Times,serif" font-size="14.00">distance_to_parent</text>
<polygon fill="white" stroke="none" points="544.5,-729.5 544.5,-748.5 665.5,-748.5 665.5,-729.5 544.5,-729.5"/>
<text text-anchor="start" x="581" y="-735.3" font-family="Times,serif" font-size="14.00">taxon_id</text>
<polygon fill="white" stroke="none" points="544.5,-708.5 544.5,-727.5 665.5,-727.5 665.5,-708.5 544.5,-708.5"/>
<text text-anchor="start" x="564" y="-714.3" font-family="Times,serif" font-size="14.00">genome_db_id</text>
<polygon fill="white" stroke="none" points="544.5,-687.5 544.5,-706.5 665.5,-706.5 665.5,-687.5 544.5,-687.5"/>
<text text-anchor="start" x="573" y="-693.3" font-family="Times,serif" font-size="14.00">node_name</text>
<polygon fill="black" stroke="black" points="542.5,-875.5 542.5,-875.5 667.5,-875.5 667.5,-875.5 542.5,-875.5"/>
</g>
<!-- species_tree_node&#45;&gt;ncbi_taxa_node -->
<g id="edge13" class="edge">
<title>species_tree_node:e&#45;&gt;ncbi_taxa_node:w</title>
<path fill="none" stroke="black" stroke-dasharray="5,2" d="M667,-739C723.82,-739 695.98,-966.64 742.22,-995.09"/>
<polygon fill="black" stroke="black" points="740.92,-998.65 751.5,-998 742.83,-991.91 740.92,-998.65"/>
</g>
<!-- species_tree_node&#45;&gt;species_tree_node -->
<g id="edge14" class="edge">
<title>species_tree_node:e&#45;&gt;species_tree_node:w</title>
<path fill="none" stroke="black" stroke-dasharray="5,2" d="M666,-844C718.38,-887.17 718.38,-922.5 605,-922.5 498.05,-922.5 491.99,-909.74 535.62,-872.06"/>
<polygon fill="black" stroke="black" points="537.61,-874.12 543,-865 533.1,-868.76 537.61,-874.12"/>
</g>
<!-- genome_db -->
<g id="node13" class="node">
<title>genome_db</title>
<path fill="#808000" stroke="black" d="M659.5,-1434.5C659.5,-1434.5 550.5,-1434.5 550.5,-1434.5 544.5,-1434.5 538.5,-1428.5 538.5,-1422.5 538.5,-1422.5 538.5,-1349.5 538.5,-1349.5 538.5,-1343.5 544.5,-1337.5 550.5,-1337.5 550.5,-1337.5 659.5,-1337.5 659.5,-1337.5 665.5,-1337.5 671.5,-1343.5 671.5,-1349.5 671.5,-1349.5 671.5,-1422.5 671.5,-1422.5 671.5,-1428.5 665.5,-1434.5 659.5,-1434.5"/>
<text text-anchor="start" x="567" y="-1413.7" font-family="Times,serif" font-size="16.00">genome_db</text>
<polygon fill="white" stroke="none" points="548.5,-1385.5 548.5,-1404.5 661.5,-1404.5 661.5,-1385.5 548.5,-1385.5"/>
<text text-anchor="start" x="550.5" y="-1392.3" font-family="Times,serif" font-weight="bold" font-size="14.00">PK</text>
<text text-anchor="start" x="570.5" y="-1392.3" font-family="Times,serif" font-size="14.00">  genome_db_id</text>
<polygon fill="white" stroke="none" points="548.5,-1364.5 548.5,-1383.5 661.5,-1383.5 661.5,-1364.5 548.5,-1364.5"/>
<text text-anchor="start" x="581" y="-1370.3" font-family="Times,serif" font-size="14.00">taxon_id</text>
<polygon fill="white" stroke="none" points="548.5,-1343.5 548.5,-1362.5 661.5,-1362.5 661.5,-1343.5 548.5,-1343.5"/>
<text text-anchor="start" x="599" y="-1350.3" font-family="Times,serif" font-style="italic" font-size="14.00">...</text>
<polygon fill="black" stroke="black" points="546.5,-1405.5 546.5,-1405.5 663.5,-1405.5 663.5,-1405.5 546.5,-1405.5"/>
</g>
<!-- species_tree_node&#45;&gt;genome_db -->
<g id="edge12" class="edge">
<title>species_tree_node:e&#45;&gt;genome_db:w</title>
<path fill="none" stroke="black" stroke-dasharray="5,2" d="M675.5,-718C696.22,-718 689.01,-888.79 675.5,-904.5 617.87,-971.52 522.36,-863.42 480,-941 459.82,-977.96 464.99,-1280.66 480,-1320 494.57,-1358.17 501.14,-1389.22 536.3,-1394.28"/>
<polygon fill="black" stroke="black" points="535.79,-1397.82 546,-1395 536.26,-1390.84 535.79,-1397.82"/>
</g>
<!-- species_tree_node_attr -->
<g id="node4" class="node">
<title>species_tree_node_attr</title>
<path fill="#24da06" stroke="black" d="M454,-922C454,-922 273,-922 273,-922 267,-922 261,-916 261,-910 261,-910 261,-354 261,-354 261,-348 267,-342 273,-342 273,-342 454,-342 454,-342 460,-342 466,-348 466,-354 466,-354 466,-910 466,-910 466,-916 460,-922 454,-922"/>
<text text-anchor="start" x="290.5" y="-901.2" font-family="Times,serif" font-size="16.00">species_tree_node_attr</text>
<polygon fill="white" stroke="none" points="271,-873 271,-892 456,-892 456,-873 271,-873"/>
<text text-anchor="start" x="327.5" y="-879.8" font-family="Times,serif" font-weight="bold" font-size="14.00">PK</text>
<text text-anchor="start" x="347.5" y="-879.8" font-family="Times,serif" font-size="14.00">  node_id</text>
<polygon fill="white" stroke="none" points="271,-852 271,-871 456,-871 456,-852 271,-852"/>
<text text-anchor="start" x="322.5" y="-857.8" font-family="Times,serif" font-size="14.00">nb_long_genes</text>
<polygon fill="white" stroke="none" points="271,-831 271,-850 456,-850 456,-831 271,-831"/>
<text text-anchor="start" x="320.5" y="-836.8" font-family="Times,serif" font-size="14.00">nb_short_genes</text>
<polygon fill="white" stroke="none" points="271,-810 271,-829 456,-829 456,-810 271,-810"/>
<text text-anchor="start" x="325.5" y="-815.8" font-family="Times,serif" font-size="14.00">avg_dupscore</text>
<polygon fill="white" stroke="none" points="271,-789 271,-808 456,-808 456,-789 271,-789"/>
<text text-anchor="start" x="302" y="-794.8" font-family="Times,serif" font-size="14.00">avg_dupscore_nondub</text>
<polygon fill="white" stroke="none" points="271,-768 271,-787 456,-787 456,-768 271,-768"/>
<text text-anchor="start" x="312.5" y="-773.8" font-family="Times,serif" font-size="14.00">nb_dubious_nodes</text>
<polygon fill="white" stroke="none" points="271,-747 271,-766 456,-766 456,-747 271,-747"/>
<text text-anchor="start" x="324" y="-752.8" font-family="Times,serif" font-size="14.00">nb_dup_nodes</text>
<polygon fill="white" stroke="none" points="271,-726 271,-745 456,-745 456,-726 271,-726"/>
<text text-anchor="start" x="337.5" y="-731.8" font-family="Times,serif" font-size="14.00">nb_genes</text>
<polygon fill="white" stroke="none" points="271,-705 271,-724 456,-724 456,-705 271,-705"/>
<text text-anchor="start" x="315.5" y="-710.8" font-family="Times,serif" font-size="14.00">nb_genes_in_tree</text>
<polygon fill="white" stroke="none" points="271,-684 271,-703 456,-703 456,-684 271,-684"/>
<text text-anchor="start" x="274.5" y="-689.8" font-family="Times,serif" font-size="14.00">nb_genes_in_tree_multi_species</text>
<polygon fill="white" stroke="none" points="271,-663 271,-682 456,-682 456,-663 271,-663"/>
<text text-anchor="start" x="273" y="-668.8" font-family="Times,serif" font-size="14.00">nb_genes_in_tree_single_species</text>
<polygon fill="white" stroke="none" points="271,-642 271,-661 456,-661 456,-642 271,-642"/>
<text text-anchor="start" x="337.5" y="-647.8" font-family="Times,serif" font-size="14.00">nb_nodes</text>
<polygon fill="white" stroke="none" points="271,-621 271,-640 456,-640 456,-621 271,-621"/>
<text text-anchor="start" x="315" y="-626.8" font-family="Times,serif" font-size="14.00">nb_orphan_genes</text>
<polygon fill="white" stroke="none" points="271,-600 271,-619 456,-619 456,-600 271,-600"/>
<text text-anchor="start" x="344" y="-605.8" font-family="Times,serif" font-size="14.00">nb_seq</text>
<polygon fill="white" stroke="none" points="271,-579 271,-598 456,-598 456,-579 271,-579"/>
<text text-anchor="start" x="322" y="-584.8" font-family="Times,serif" font-size="14.00">nb_spec_nodes</text>
<polygon fill="white" stroke="none" points="271,-558 271,-577 456,-577 456,-558 271,-558"/>
<text text-anchor="start" x="322.5" y="-563.8" font-family="Times,serif" font-size="14.00">nb_gene_splits</text>
<polygon fill="white" stroke="none" points="271,-537 271,-556 456,-556 456,-537 271,-537"/>
<text text-anchor="start" x="322.5" y="-542.8" font-family="Times,serif" font-size="14.00">nb_split_genes</text>
<polygon fill="white" stroke="none" points="271,-516 271,-535 456,-535 456,-516 271,-516"/>
<text text-anchor="start" x="323" y="-521.8" font-family="Times,serif" font-size="14.00">root_avg_gene</text>
<polygon fill="white" stroke="none" points="271,-495 271,-514 456,-514 456,-495 271,-495"/>
<text text-anchor="start" x="295.5" y="-500.8" font-family="Times,serif" font-size="14.00">root_avg_gene_per_spec</text>
<polygon fill="white" stroke="none" points="271,-474 271,-493 456,-493 456,-474 271,-474"/>
<text text-anchor="start" x="324" y="-479.8" font-family="Times,serif" font-size="14.00">root_avg_spec</text>
<polygon fill="white" stroke="none" points="271,-453 271,-472 456,-472 456,-453 271,-453"/>
<text text-anchor="start" x="320.5" y="-458.8" font-family="Times,serif" font-size="14.00">root_max_gene</text>
<polygon fill="white" stroke="none" points="271,-432 271,-451 456,-451 456,-432 271,-432"/>
<text text-anchor="start" x="321" y="-437.8" font-family="Times,serif" font-size="14.00">root_max_spec</text>
<polygon fill="white" stroke="none" points="271,-411 271,-430 456,-430 456,-411 271,-411"/>
<text text-anchor="start" x="322" y="-416.8" font-family="Times,serif" font-size="14.00">root_min_gene</text>
<polygon fill="white" stroke="none" points="271,-390 271,-409 456,-409 456,-390 271,-390"/>
<text text-anchor="start" x="322.5" y="-395.8" font-family="Times,serif" font-size="14.00">root_min_spec</text>
<polygon fill="white" stroke="none" points="271,-369 271,-388 456,-388 456,-369 271,-369"/>
<text text-anchor="start" x="323.5" y="-374.8" font-family="Times,serif" font-size="14.00">root_nb_genes</text>
<polygon fill="white" stroke="none" points="271,-348 271,-367 456,-367 456,-348 271,-348"/>
<text text-anchor="start" x="326" y="-353.8" font-family="Times,serif" font-size="14.00">root_nb_trees</text>
<polygon fill="black" stroke="black" points="269,-893 269,-893 458,-893 458,-893 269,-893"/>
</g>
<!-- species_tree_node_attr&#45;&gt;species_tree_node -->
<g id="edge15" class="edge">
<title>species_tree_node_attr:e&#45;&gt;species_tree_node:w</title>
<path fill="none" stroke="black" stroke-dasharray="5,2" d="M457.5,-883C492.39,-883 502.26,-868.47 532.06,-865.52"/>
<polygon fill="black" stroke="black" points="532.18,-868.97 542,-865 531.85,-861.98 532.18,-868.97"/>
</g>
<!-- species_tree_node_tag -->
<g id="node5" class="node">
<title>species_tree_node_tag</title>
<path fill="#24da06" stroke="black" d="M436,-323.5C436,-323.5 291,-323.5 291,-323.5 285,-323.5 279,-317.5 279,-311.5 279,-311.5 279,-238.5 279,-238.5 279,-232.5 285,-226.5 291,-226.5 291,-226.5 436,-226.5 436,-226.5 442,-226.5 448,-232.5 448,-238.5 448,-238.5 448,-311.5 448,-311.5 448,-317.5 442,-323.5 436,-323.5"/>
<text text-anchor="start" x="291" y="-302.7" font-family="Times,serif" font-size="16.00">species_tree_node_tag</text>
<polygon fill="white" stroke="none" points="289,-274.5 289,-293.5 438,-293.5 438,-274.5 289,-274.5"/>
<text text-anchor="start" x="341.5" y="-280.3" font-family="Times,serif" font-size="14.00">node_id</text>
<polygon fill="white" stroke="none" points="289,-253.5 289,-272.5 438,-272.5 438,-253.5 289,-253.5"/>
<text text-anchor="start" x="355" y="-259.3" font-family="Times,serif" font-size="14.00">tag</text>
<polygon fill="white" stroke="none" points="289,-232.5 289,-251.5 438,-251.5 438,-232.5 289,-232.5"/>
<text text-anchor="start" x="348.5" y="-238.3" font-family="Times,serif" font-size="14.00">value</text>
<polygon fill="black" stroke="black" points="287,-294.5 287,-294.5 440,-294.5 440,-294.5 287,-294.5"/>
</g>
<!-- species_tree_node_tag&#45;&gt;species_tree_node -->
<g id="edge16" class="edge">
<title>species_tree_node_tag:e&#45;&gt;species_tree_node:w</title>
<path fill="none" stroke="black" stroke-dasharray="5,2" d="M439.5,-284C566.8,-284 420.91,-831.46 532.21,-863.53"/>
<polygon fill="black" stroke="black" points="531.62,-867.12 542,-865 532.56,-860.19 531.62,-867.12"/>
</g>
<!-- species_tree_root -->
<g id="node6" class="node">
<title>species_tree_root</title>
<path fill="#24da06" stroke="black" d="M440.5,-1037.5C440.5,-1037.5 286.5,-1037.5 286.5,-1037.5 280.5,-1037.5 274.5,-1031.5 274.5,-1025.5 274.5,-1025.5 274.5,-952.5 274.5,-952.5 274.5,-946.5 280.5,-940.5 286.5,-940.5 286.5,-940.5 440.5,-940.5 440.5,-940.5 446.5,-940.5 452.5,-946.5 452.5,-952.5 452.5,-952.5 452.5,-1025.5 452.5,-1025.5 452.5,-1031.5 446.5,-1037.5 440.5,-1037.5"/>
<text text-anchor="start" x="308" y="-1016.7" font-family="Times,serif" font-size="16.00">species_tree_root</text>
<polygon fill="white" stroke="none" points="284.5,-988.5 284.5,-1007.5 442.5,-1007.5 442.5,-988.5 284.5,-988.5"/>
<text text-anchor="start" x="330" y="-995.3" font-family="Times,serif" font-weight="bold" font-size="14.00">PK</text>
<text text-anchor="start" x="350" y="-995.3" font-family="Times,serif" font-size="14.00">  root_id</text>
<polygon fill="white" stroke="none" points="284.5,-967.5 284.5,-986.5 442.5,-986.5 442.5,-967.5 284.5,-967.5"/>
<text text-anchor="start" x="286.5" y="-973.3" font-family="Times,serif" font-size="14.00">method_link_species_set_id</text>
<polygon fill="white" stroke="none" points="284.5,-946.5 284.5,-965.5 442.5,-965.5 442.5,-946.5 284.5,-946.5"/>
<text text-anchor="start" x="350" y="-952.3" font-family="Times,serif" font-size="14.00">label</text>
<polygon fill="black" stroke="black" points="282.5,-1008.5 282.5,-1008.5 444.5,-1008.5 444.5,-1008.5 282.5,-1008.5"/>
</g>
<!-- species_tree_root&#45;&gt;species_tree_node -->
<g id="edge18" class="edge">
<title>species_tree_root:e&#45;&gt;species_tree_node:w</title>
<path fill="none" stroke="black" stroke-dasharray="5,2" d="M443.5,-998C513.43,-998 473.92,-878.66 532.3,-866.07"/>
<polygon fill="black" stroke="black" points="532.4,-869.48 542,-865 531.7,-862.51 532.4,-869.48"/>
</g>
<!-- method_link_species_set -->
<g id="node15" class="node">
<title>method_link_species_set</title>
<path fill="#3cb371" stroke="black" d="M696,-1168C696,-1168 514,-1168 514,-1168 508,-1168 502,-1162 502,-1156 502,-1156 502,-1104 502,-1104 502,-1098 508,-1092 514,-1092 514,-1092 696,-1092 696,-1092 702,-1092 708,-1098 708,-1104 708,-1104 708,-1156 708,-1156 708,-1162 702,-1168 696,-1168"/>
<text text-anchor="start" x="524" y="-1147.2" font-family="Times,serif" font-size="16.00">method_link_species_set</text>
<polygon fill="white" stroke="none" points="512,-1119 512,-1138 698,-1138 698,-1119 512,-1119"/>
<text text-anchor="start" x="514" y="-1125.8" font-family="Times,serif" font-weight="bold" font-size="14.00">PK</text>
<text text-anchor="start" x="534" y="-1125.8" font-family="Times,serif" font-size="14.00">  method_link_species_set_id</text>
<polygon fill="white" stroke="none" points="512,-1098 512,-1117 698,-1117 698,-1098 512,-1098"/>
<text text-anchor="start" x="599" y="-1104.8" font-family="Times,serif" font-style="italic" font-size="14.00">...</text>
<polygon fill="black" stroke="black" points="510,-1139 510,-1139 700,-1139 700,-1139 510,-1139"/>
</g>
<!-- species_tree_root&#45;&gt;method_link_species_set -->
<g id="edge17" class="edge">
<title>species_tree_root:e&#45;&gt;method_link_species_set:w</title>
<path fill="none" stroke="black" stroke-dasharray="5,2" d="M443.5,-977C512.99,-977 445.73,-1111.94 500.26,-1126.69"/>
<polygon fill="black" stroke="black" points="499.65,-1130.27 510,-1128 500.5,-1123.32 499.65,-1130.27"/>
</g>
<!-- CAFE_gene_family -->
<g id="node7" class="node">
<title>CAFE_gene_family</title>
<path fill="#01d4f7" stroke="black" d="M180,-918C180,-918 52,-918 52,-918 46,-918 40,-912 40,-906 40,-906 40,-812 40,-812 40,-806 46,-800 52,-800 52,-800 180,-800 180,-800 186,-800 192,-806 192,-812 192,-812 192,-906 192,-906 192,-912 186,-918 180,-918"/>
<text text-anchor="start" x="52" y="-897.2" font-family="Times,serif" font-size="16.00">CAFE_gene_family</text>
<polygon fill="white" stroke="none" points="50,-869 50,-888 182,-888 182,-869 50,-869"/>
<text text-anchor="start" x="110" y="-875.8" font-family="Times,serif" font-style="italic" font-size="14.00">...</text>
<polygon fill="white" stroke="none" points="50,-848 50,-867 182,-867 182,-848 50,-848"/>
<text text-anchor="start" x="96" y="-853.8" font-family="Times,serif" font-size="14.00">root_id</text>
<polygon fill="white" stroke="none" points="50,-827 50,-846 182,-846 182,-827 50,-827"/>
<text text-anchor="start" x="99" y="-832.8" font-family="Times,serif" font-size="14.00">lca_id</text>
<polygon fill="white" stroke="none" points="50,-806 50,-825 182,-825 182,-806 50,-806"/>
<text text-anchor="start" x="110" y="-812.8" font-family="Times,serif" font-style="italic" font-size="14.00">...</text>
<polygon fill="black" stroke="black" points="48,-889 48,-889 184,-889 184,-889 48,-889"/>
</g>
<!-- CAFE_gene_family&#45;&gt;species_tree_node -->
<g id="edge1" class="edge">
<title>CAFE_gene_family:e&#45;&gt;species_tree_node:w</title>
<path fill="none" stroke="black" stroke-dasharray="5,2" d="M183,-836C281.8,-836 172.89,-989.17 253,-1047 329.76,-1102.41 391.56,-1105.49 466,-1047 507.36,-1014.5 471.83,-979.7 494,-932 507.85,-902.21 506.63,-872.34 532.26,-866.16"/>
<polygon fill="black" stroke="black" points="532.43,-869.55 542,-865 531.68,-862.59 532.43,-869.55"/>
</g>
<!-- CAFE_gene_family&#45;&gt;species_tree_root -->
<g id="edge2" class="edge">
<title>CAFE_gene_family:e&#45;&gt;species_tree_root:w</title>
<path fill="none" stroke="black" stroke-dasharray="5,2" d="M183,-857C256.05,-857 211.63,-984.04 272.75,-996.95"/>
<polygon fill="black" stroke="black" points="272.21,-1000.51 282.5,-998 272.89,-993.54 272.21,-1000.51"/>
</g>
<!-- CAFE_species_gene -->
<g id="node8" class="node">
<title>CAFE_species_gene</title>
<path fill="#01d4f7" stroke="black" d="M182,-781.5C182,-781.5 50,-781.5 50,-781.5 44,-781.5 38,-775.5 38,-769.5 38,-769.5 38,-696.5 38,-696.5 38,-690.5 44,-684.5 50,-684.5 50,-684.5 182,-684.5 182,-684.5 188,-684.5 194,-690.5 194,-696.5 194,-696.5 194,-769.5 194,-769.5 194,-775.5 188,-781.5 182,-781.5"/>
<text text-anchor="start" x="50" y="-760.7" font-family="Times,serif" font-size="16.00">CAFE_species_gene</text>
<polygon fill="white" stroke="none" points="48,-732.5 48,-751.5 184,-751.5 184,-732.5 48,-732.5"/>
<text text-anchor="start" x="110" y="-739.3" font-family="Times,serif" font-style="italic" font-size="14.00">...</text>
<polygon fill="white" stroke="none" points="48,-711.5 48,-730.5 184,-730.5 184,-711.5 48,-711.5"/>
<text text-anchor="start" x="80" y="-718.3" font-family="Times,serif" font-weight="bold" font-size="14.00">PK</text>
<text text-anchor="start" x="100" y="-718.3" font-family="Times,serif" font-size="14.00">  node_id</text>
<polygon fill="white" stroke="none" points="48,-690.5 48,-709.5 184,-709.5 184,-690.5 48,-690.5"/>
<text text-anchor="start" x="110" y="-697.3" font-family="Times,serif" font-style="italic" font-size="14.00">...</text>
<polygon fill="black" stroke="black" points="46,-752.5 46,-752.5 186,-752.5 186,-752.5 46,-752.5"/>
</g>
<!-- CAFE_species_gene&#45;&gt;species_tree_node -->
<g id="edge3" class="edge">
<title>CAFE_species_gene:e&#45;&gt;species_tree_node:w</title>
<path fill="none" stroke="black" stroke-dasharray="5,2" d="M185,-721C272.1,-721 219.5,-617.04 233,-531 238.4,-496.57 229.84,-244.04 253,-218 285.88,-181.04 315.71,-181.92 362.5,-198"/>
</g>
<!-- gene_member -->
<g id="node9" class="node">
<title>gene_member</title>
<path fill="#808000" stroke="black" d="M650.5,-1549.5C650.5,-1549.5 559.5,-1549.5 559.5,-1549.5 553.5,-1549.5 547.5,-1543.5 547.5,-1537.5 547.5,-1537.5 547.5,-1464.5 547.5,-1464.5 547.5,-1458.5 553.5,-1452.5 559.5,-1452.5 559.5,-1452.5 650.5,-1452.5 650.5,-1452.5 656.5,-1452.5 662.5,-1458.5 662.5,-1464.5 662.5,-1464.5 662.5,-1537.5 662.5,-1537.5 662.5,-1543.5 656.5,-1549.5 650.5,-1549.5"/>
<text text-anchor="start" x="559.5" y="-1528.7" font-family="Times,serif" font-size="16.00">gene_member</text>
<polygon fill="white" stroke="none" points="557.5,-1500.5 557.5,-1519.5 652.5,-1519.5 652.5,-1500.5 557.5,-1500.5"/>
<text text-anchor="start" x="599" y="-1507.3" font-family="Times,serif" font-style="italic" font-size="14.00">...</text>
<polygon fill="white" stroke="none" points="557.5,-1479.5 557.5,-1498.5 652.5,-1498.5 652.5,-1479.5 557.5,-1479.5"/>
<text text-anchor="start" x="581" y="-1485.3" font-family="Times,serif" font-size="14.00">taxon_id</text>
<polygon fill="white" stroke="none" points="557.5,-1458.5 557.5,-1477.5 652.5,-1477.5 652.5,-1458.5 557.5,-1458.5"/>
<text text-anchor="start" x="599" y="-1465.3" font-family="Times,serif" font-style="italic" font-size="14.00">...</text>
<polygon fill="black" stroke="black" points="555.5,-1520.5 555.5,-1520.5 654.5,-1520.5 654.5,-1520.5 555.5,-1520.5"/>
</g>
<!-- gene_member&#45;&gt;ncbi_taxa_node -->
<g id="edge4" class="edge">
<title>gene_member:e&#45;&gt;ncbi_taxa_node:w</title>
<path fill="none" stroke="black" stroke-dasharray="5,2" d="M654,-1489C688.05,-1489 699.31,-1473.68 716,-1444 738.66,-1403.71 707.76,-1052.85 743.26,-1003.71"/>
<polygon fill="black" stroke="black" points="744.83,-1006.23 751.5,-998 741.15,-1000.27 744.83,-1006.23"/>
</g>
<!-- gene_tree_node_attr -->
<g id="node10" class="node">
<title>gene_tree_node_attr</title>
<path fill="#1e90ff" stroke="black" d="M181,-373.5C181,-373.5 51,-373.5 51,-373.5 45,-373.5 39,-367.5 39,-361.5 39,-361.5 39,-288.5 39,-288.5 39,-282.5 45,-276.5 51,-276.5 51,-276.5 181,-276.5 181,-276.5 187,-276.5 193,-282.5 193,-288.5 193,-288.5 193,-361.5 193,-361.5 193,-367.5 187,-373.5 181,-373.5"/>
<text text-anchor="start" x="51" y="-352.7" font-family="Times,serif" font-size="16.00">gene_tree_node_attr</text>
<polygon fill="white" stroke="none" points="49,-324.5 49,-343.5 183,-343.5 183,-324.5 49,-324.5"/>
<text text-anchor="start" x="110" y="-331.3" font-family="Times,serif" font-style="italic" font-size="14.00">...</text>
<polygon fill="white" stroke="none" points="49,-303.5 49,-322.5 183,-322.5 183,-303.5 49,-303.5"/>
<text text-anchor="start" x="57.5" y="-309.3" font-family="Times,serif" font-size="14.00">species_tree_node_id</text>
<polygon fill="white" stroke="none" points="49,-282.5 49,-301.5 183,-301.5 183,-282.5 49,-282.5"/>
<text text-anchor="start" x="110" y="-289.3" font-family="Times,serif" font-style="italic" font-size="14.00">...</text>
<polygon fill="black" stroke="black" points="47,-344.5 47,-344.5 185,-344.5 185,-344.5 47,-344.5"/>
</g>
<!-- gene_tree_node_attr&#45;&gt;species_tree_node -->
<g id="edge5" class="edge">
<title>gene_tree_node_attr:e&#45;&gt;species_tree_node:w</title>
<path fill="none" stroke="black" stroke-dasharray="5,2" d="M184,-313C213.57,-313 216.2,-292.33 233,-268 246.6,-248.3 234.47,-233.15 253,-218 291.3,-186.68 315.71,-181.92 362.5,-198"/>
</g>
<!-- gene_tree_root -->
<g id="node11" class="node">
<title>gene_tree_root</title>
<path fill="#1e90ff" stroke="black" d="M172,-488.5C172,-488.5 60,-488.5 60,-488.5 54,-488.5 48,-482.5 48,-476.5 48,-476.5 48,-403.5 48,-403.5 48,-397.5 54,-391.5 60,-391.5 60,-391.5 172,-391.5 172,-391.5 178,-391.5 184,-397.5 184,-403.5 184,-403.5 184,-476.5 184,-476.5 184,-482.5 178,-488.5 172,-488.5"/>
<text text-anchor="start" x="68.5" y="-467.7" font-family="Times,serif" font-size="16.00">gene_tree_root</text>
<polygon fill="white" stroke="none" points="58,-439.5 58,-458.5 174,-458.5 174,-439.5 58,-439.5"/>
<text text-anchor="start" x="110" y="-446.3" font-family="Times,serif" font-style="italic" font-size="14.00">...</text>
<polygon fill="white" stroke="none" points="58,-418.5 58,-437.5 174,-437.5 174,-418.5 58,-418.5"/>
<text text-anchor="start" x="60" y="-424.3" font-family="Times,serif" font-size="14.00">species_tree_root_id</text>
<polygon fill="white" stroke="none" points="58,-397.5 58,-416.5 174,-416.5 174,-397.5 58,-397.5"/>
<text text-anchor="start" x="110" y="-404.3" font-family="Times,serif" font-style="italic" font-size="14.00">...</text>
<polygon fill="black" stroke="black" points="56,-459.5 56,-459.5 176,-459.5 176,-459.5 56,-459.5"/>
</g>
<!-- gene_tree_root&#45;&gt;species_tree_root -->
<g id="edge6" class="edge">
<title>gene_tree_root:e&#45;&gt;species_tree_root:w</title>
<path fill="none" stroke="black" stroke-dasharray="5,2" d="M175,-428C288.11,-428 224.78,-821.46 253,-931 260.11,-958.6 253.15,-988.96 272.86,-996.32"/>
<polygon fill="black" stroke="black" points="272.08,-999.9 282.5,-998 273.17,-992.99 272.08,-999.9"/>
</g>
<!-- gene_tree_root_attr -->
<g id="node12" class="node">
<title>gene_tree_root_attr</title>
<path fill="#1e90ff" stroke="black" d="M178,-258.5C178,-258.5 54,-258.5 54,-258.5 48,-258.5 42,-252.5 42,-246.5 42,-246.5 42,-173.5 42,-173.5 42,-167.5 48,-161.5 54,-161.5 54,-161.5 178,-161.5 178,-161.5 184,-161.5 190,-167.5 190,-173.5 190,-173.5 190,-246.5 190,-246.5 190,-252.5 184,-258.5 178,-258.5"/>
<text text-anchor="start" x="54" y="-237.7" font-family="Times,serif" font-size="16.00">gene_tree_root_attr</text>
<polygon fill="white" stroke="none" points="52,-209.5 52,-228.5 180,-228.5 180,-209.5 52,-209.5"/>
<text text-anchor="start" x="110" y="-216.3" font-family="Times,serif" font-style="italic" font-size="14.00">...</text>
<polygon fill="white" stroke="none" points="52,-188.5 52,-207.5 180,-207.5 180,-188.5 52,-188.5"/>
<text text-anchor="start" x="82.5" y="-194.3" font-family="Times,serif" font-size="14.00">lca_node_id</text>
<polygon fill="white" stroke="none" points="52,-167.5 52,-186.5 180,-186.5 180,-167.5 52,-167.5"/>
<text text-anchor="start" x="110" y="-174.3" font-family="Times,serif" font-style="italic" font-size="14.00">...</text>
<polygon fill="black" stroke="black" points="50,-229.5 50,-229.5 182,-229.5 182,-229.5 50,-229.5"/>
</g>
<!-- gene_tree_root_attr&#45;&gt;species_tree_node -->
<g id="edge7" class="edge">
<title>gene_tree_root_attr:e&#45;&gt;species_tree_node:w</title>
<path fill="none" stroke="black" stroke-dasharray="5,2" d="M181,-198C261.67,-198 286.21,-171.78 362.5,-198"/>
</g>
<!-- genome_db&#45;&gt;ncbi_taxa_node -->
<g id="edge8" class="edge">
<title>genome_db:e&#45;&gt;ncbi_taxa_node:w</title>
<path fill="none" stroke="black" stroke-dasharray="5,2" d="M663,-1374C693.9,-1374 701.5,-1356.29 716,-1329 748.89,-1267.09 685.82,-1025.46 741.98,-1000.15"/>
<polygon fill="black" stroke="black" points="742.4,-1003.43 751.5,-998 741,-996.57 742.4,-1003.43"/>
</g>
<!-- homology -->
<g id="node14" class="node">
<title>homology</title>
<path fill="#1e90ff" stroke="black" d="M174.5,-143.5C174.5,-143.5 57.5,-143.5 57.5,-143.5 51.5,-143.5 45.5,-137.5 45.5,-131.5 45.5,-131.5 45.5,-58.5 45.5,-58.5 45.5,-52.5 51.5,-46.5 57.5,-46.5 57.5,-46.5 174.5,-46.5 174.5,-46.5 180.5,-46.5 186.5,-52.5 186.5,-58.5 186.5,-58.5 186.5,-131.5 186.5,-131.5 186.5,-137.5 180.5,-143.5 174.5,-143.5"/>
<text text-anchor="start" x="82.5" y="-122.7" font-family="Times,serif" font-size="16.00">homology</text>
<polygon fill="white" stroke="none" points="55.5,-94.5 55.5,-113.5 176.5,-113.5 176.5,-94.5 55.5,-94.5"/>
<text text-anchor="start" x="110" y="-101.3" font-family="Times,serif" font-style="italic" font-size="14.00">...</text>
<polygon fill="white" stroke="none" points="55.5,-73.5 55.5,-92.5 176.5,-92.5 176.5,-73.5 55.5,-73.5"/>
<text text-anchor="start" x="57.5" y="-79.3" font-family="Times,serif" font-size="14.00">species_tree_node_id</text>
<polygon fill="white" stroke="none" points="55.5,-52.5 55.5,-71.5 176.5,-71.5 176.5,-52.5 55.5,-52.5"/>
<text text-anchor="start" x="110" y="-59.3" font-family="Times,serif" font-style="italic" font-size="14.00">...</text>
<polygon fill="black" stroke="black" points="53.5,-114.5 53.5,-114.5 178.5,-114.5 178.5,-114.5 53.5,-114.5"/>
</g>
<!-- homology&#45;&gt;species_tree_node -->
<g id="edge9" class="edge">
<title>homology:e&#45;&gt;species_tree_node:w</title>
<path fill="none" stroke="black" stroke-dasharray="5,2" d="M364.5,-198C407.98,-212.94 434.75,-184.28 466,-218 561.82,-321.4 406.79,-836.78 532.18,-863.89"/>
<polygon fill="black" stroke="black" points="531.69,-867.46 542,-865 532.41,-860.5 531.69,-867.46"/>
<path fill="none" stroke="black" stroke-dasharray="5,2" d="M178,-83C274.62,-83 271.12,-166.59 362.5,-198"/>
</g>
<!-- seq_member -->
<g id="node16" class="node">
<title>seq_member</title>
<path fill="#808000" stroke="black" d="M646,-1319.5C646,-1319.5 564,-1319.5 564,-1319.5 558,-1319.5 552,-1313.5 552,-1307.5 552,-1307.5 552,-1234.5 552,-1234.5 552,-1228.5 558,-1222.5 564,-1222.5 564,-1222.5 646,-1222.5 646,-1222.5 652,-1222.5 658,-1228.5 658,-1234.5 658,-1234.5 658,-1307.5 658,-1307.5 658,-1313.5 652,-1319.5 646,-1319.5"/>
<text text-anchor="start" x="564" y="-1298.7" font-family="Times,serif" font-size="16.00">seq_member</text>
<polygon fill="white" stroke="none" points="562,-1270.5 562,-1289.5 648,-1289.5 648,-1270.5 562,-1270.5"/>
<text text-anchor="start" x="599" y="-1277.3" font-family="Times,serif" font-style="italic" font-size="14.00">...</text>
<polygon fill="white" stroke="none" points="562,-1249.5 562,-1268.5 648,-1268.5 648,-1249.5 562,-1249.5"/>
<text text-anchor="start" x="581" y="-1255.3" font-family="Times,serif" font-size="14.00">taxon_id</text>
<polygon fill="white" stroke="none" points="562,-1228.5 562,-1247.5 648,-1247.5 648,-1228.5 562,-1228.5"/>
<text text-anchor="start" x="599" y="-1235.3" font-family="Times,serif" font-style="italic" font-size="14.00">...</text>
<polygon fill="black" stroke="black" points="560,-1290.5 560,-1290.5 650,-1290.5 650,-1290.5 560,-1290.5"/>
</g>
<!-- seq_member&#45;&gt;ncbi_taxa_node -->
<g id="edge11" class="edge">
<title>seq_member:e&#45;&gt;ncbi_taxa_node:w</title>
<path fill="none" stroke="black" stroke-dasharray="5,2" d="M649,-1259C685.89,-1259 696.56,-1241.36 716,-1210 739.12,-1172.7 710.27,-1025.24 742.36,-1001.29"/>
<polygon fill="black" stroke="black" points="743.07,-1004.42 751.5,-998 740.91,-997.76 743.07,-1004.42"/>
</g>
</g>
</svg>
