<?xml version="1.0" encoding="UTF-8" standalone="no"?>
<!DOCTYPE svg PUBLIC "-//W3C//DTD SVG 1.1//EN"
 "http://www.w3.org/Graphics/SVG/1.1/DTD/svg11.dtd">
<!-- Generated by graphviz version 8.0.1 (0)
 -->
<!-- Title: test Pages: 1 -->
<svg width="447pt" height="260pt"
 viewBox="0.00 0.00 447.00 260.00" xmlns="http://www.w3.org/2000/svg" xmlns:xlink="http://www.w3.org/1999/xlink">
<g id="graph0" class="graph" transform="scale(1 1) rotate(0) translate(4 256)">
<title>test</title>
<polygon fill="white" stroke="none" points="-4,4 -4,-256 443,-256 443,4 -4,4"/>
<text text-anchor="middle" x="219.5" y="-10" font-family="Times,serif" font-size="20.00">Compara schema diagram: Stable&#45;ID mapping tables</text>
<g id="clust1" class="cluster">
<title>cluster_stable_id_mapping</title>
<path fill="#eeeeee" stroke="#eeeeee" d="M42.5,-38C42.5,-38 396.5,-38 396.5,-38 402.5,-38 408.5,-44 408.5,-50 408.5,-50 408.5,-232 408.5,-232 408.5,-238 402.5,-244 396.5,-244 396.5,-244 42.5,-244 42.5,-244 36.5,-244 30.5,-238 30.5,-232 30.5,-232 30.5,-50 30.5,-50 30.5,-44 36.5,-38 42.5,-38"/>
<text text-anchor="middle" x="219.5" y="-224" font-family="Times,serif" font-size="20.00">Stable&#45;ID mapping</text>
</g>
<!-- mapping_session -->
<g id="node1" class="node">
<title>mapping_session</title>
<path fill="#aaaaaa" stroke="black" d="M388.5,-206C388.5,-206 249.5,-206 249.5,-206 243.5,-206 237.5,-200 237.5,-194 237.5,-194 237.5,-58 237.5,-58 237.5,-52 243.5,-46 249.5,-46 249.5,-46 388.5,-46 388.5,-46 394.5,-46 400.5,-52 400.5,-58 400.5,-58 400.5,-194 400.5,-194 400.5,-200 394.5,-206 388.5,-206"/>
<text text-anchor="start" x="263.5" y="-185.2" font-family="Times,serif" font-size="16.00">mapping_session</text>
<polygon fill="white" stroke="none" points="247.5,-157 247.5,-176 390.5,-176 390.5,-157 247.5,-157"/>
<text text-anchor="start" x="249.5" y="-163.8" font-family="Times,serif" font-weight="bold" font-size="14.00">PK</text>
<text text-anchor="start" x="269.5" y="-163.8" font-family="Times,serif" font-size="14.00">  mapping_session_id</text>
<polygon fill="white" stroke="none" points="247.5,-136 247.5,-155 390.5,-155 390.5,-136 247.5,-136"/>
<text text-anchor="start" x="307" y="-141.8" font-family="Times,serif" font-size="14.00">type</text>
<polygon fill="white" stroke="none" points="247.5,-115 247.5,-134 390.5,-134 390.5,-115 247.5,-115"/>
<text text-anchor="start" x="279" y="-120.8" font-family="Times,serif" font-size="14.00">when_mapped</text>
<polygon fill="white" stroke="none" points="247.5,-94 247.5,-113 390.5,-113 390.5,-94 247.5,-94"/>
<text text-anchor="start" x="294.5" y="-99.8" font-family="Times,serif" font-size="14.00">rel_from</text>
<polygon fill="white" stroke="none" points="247.5,-73 247.5,-92 390.5,-92 390.5,-73 247.5,-73"/>
<text text-anchor="start" x="303" y="-78.8" font-family="Times,serif" font-size="14.00">rel_to</text>
<polygon fill="white" stroke="none" points="247.5,-52 247.5,-71 390.5,-71 390.5,-52 247.5,-52"/>
<text text-anchor="start" x="303" y="-57.8" font-family="Times,serif" font-size="14.00">prefix</text>
<polygon fill="black" stroke="black" points="245.5,-177 245.5,-177 392.5,-177 392.5,-177 245.5,-177"/>
</g>
<!-- stable_id_history -->
<g id="node2" class="node">
<title>stable_id_history</title>
<path fill="#aaaaaa" stroke="black" d="M189.5,-206C189.5,-206 50.5,-206 50.5,-206 44.5,-206 38.5,-200 38.5,-194 38.5,-194 38.5,-58 38.5,-58 38.5,-52 44.5,-46 50.5,-46 50.5,-46 189.5,-46 189.5,-46 195.5,-46 201.5,-52 201.5,-58 201.5,-58 201.5,-194 201.5,-194 201.5,-200 195.5,-206 189.5,-206"/>
<text text-anchor="start" x="64" y="-185.2" font-family="Times,serif" font-size="16.00">stable_id_history</text>
<polygon fill="white" stroke="none" points="48.5,-157 48.5,-176 191.5,-176 191.5,-157 48.5,-157"/>
<text text-anchor="start" x="50.5" y="-163.8" font-family="Times,serif" font-weight="bold" font-size="14.00">PK</text>
<text text-anchor="start" x="70.5" y="-163.8" font-family="Times,serif" font-size="14.00">  mapping_session_id</text>
<polygon fill="white" stroke="none" points="48.5,-136 48.5,-155 191.5,-155 191.5,-136 48.5,-136"/>
<text text-anchor="start" x="64.5" y="-142.8" font-family="Times,serif" font-weight="bold" font-size="14.00">PK</text>
<text text-anchor="start" x="84.5" y="-142.8" font-family="Times,serif" font-size="14.00">  stable_id_from</text>
<polygon fill="white" stroke="none" points="48.5,-115 48.5,-134 191.5,-134 191.5,-115 48.5,-115"/>
<text text-anchor="start" x="83" y="-120.8" font-family="Times,serif" font-size="14.00">version_from</text>
<polygon fill="white" stroke="none" points="48.5,-94 48.5,-113 191.5,-113 191.5,-94 48.5,-94"/>
<text text-anchor="start" x="73" y="-100.8" font-family="Times,serif" font-weight="bold" font-size="14.00">PK</text>
<text text-anchor="start" x="93" y="-100.8" font-family="Times,serif" font-size="14.00">  stable_id_to</text>
<polygon fill="white" stroke="none" points="48.5,-73 48.5,-92 191.5,-92 191.5,-73 48.5,-73"/>
<text text-anchor="start" x="91" y="-78.8" font-family="Times,serif" font-size="14.00">version_to</text>
<polygon fill="white" stroke="none" points="48.5,-52 48.5,-71 191.5,-71 191.5,-52 48.5,-52"/>
<text text-anchor="start" x="86.5" y="-57.8" font-family="Times,serif" font-size="14.00">contribution</text>
<polygon fill="black" stroke="black" points="46.5,-177 46.5,-177 193.5,-177 193.5,-177 46.5,-177"/>
</g>
<!-- stable_id_history&#45;&gt;mapping_session -->
<g id="edge1" class="edge">
<title>stable_id_history:e&#45;&gt;mapping_session:w</title>
<path fill="none" stroke="black" stroke-dasharray="5,2" d="M193,-167C212.51,-167 219.9,-167 235.24,-167"/>
<polygon fill="black" stroke="black" points="235,-170.5 245,-167 235,-163.5 235,-170.5"/>
</g>
</g>
</svg>
