<?xml version="1.0" encoding="UTF-8" standalone="no"?>
<!DOCTYPE svg PUBLIC "-//W3C//DTD SVG 1.1//EN"
 "http://www.w3.org/Graphics/SVG/1.1/DTD/svg11.dtd">
<!-- Generated by graphviz version 8.0.1 (0)
 -->
<!-- Title: test Pages: 1 -->
<svg width="460pt" height="460pt"
 viewBox="0.00 0.00 460.00 460.00" xmlns="http://www.w3.org/2000/svg" xmlns:xlink="http://www.w3.org/1999/xlink">
<g id="graph0" class="graph" transform="scale(1 1) rotate(0) translate(4 456)">
<title>test</title>
<polygon fill="white" stroke="none" points="-4,4 -4,-456 456,-456 456,4 -4,4"/>
<text text-anchor="middle" x="226" y="-10" font-family="Times,serif" font-size="20.00">Compara schema diagram: Conservation tables</text>
<g id="clust1" class="cluster">
<title>cluster_conservation</title>
<path fill="#f3cecd" stroke="#f3cecd" d="M20,-38C20,-38 190,-38 190,-38 196,-38 202,-44 202,-50 202,-50 202,-432 202,-432 202,-438 196,-444 190,-444 190,-444 20,-444 20,-444 14,-444 8,-438 8,-432 8,-432 8,-50 8,-50 8,-44 14,-38 20,-38"/>
<text text-anchor="middle" x="105" y="-424" font-family="Times,serif" font-size="20.00">Conservation</text>
</g>
<g id="clust2" class="cluster">
<title>cluster_dataset_description</title>
<polygon fill="white" stroke="white" points="222,-49 222,-171 444,-171 444,-49 222,-49"/>
<text text-anchor="middle" x="333" y="-151" font-family="Times,serif" font-size="20.00">Dataset description</text>
</g>
<g id="clust3" class="cluster">
<title>cluster_genomes</title>
<polygon fill="white" stroke="white" points="269.5,-179 269.5,-301 396.5,-301 396.5,-179 269.5,-179"/>
<text text-anchor="middle" x="333" y="-281" font-family="Times,serif" font-size="20.00">Genomes</text>
</g>
<g id="clust4" class="cluster">
<title>cluster_genomic_alignments</title>
<polygon fill="white" stroke="white" points="231.5,-322 231.5,-444 434.5,-444 434.5,-322 231.5,-322"/>
<text text-anchor="middle" x="333" y="-424" font-family="Times,serif" font-size="20.00">Genomic alignments</text>
</g>
<!-- conservation_score -->
<g id="node1" class="node">
<title>conservation_score</title>
<path fill="#c70c09" stroke="black" d="M173,-405.5C173,-405.5 37,-405.5 37,-405.5 31,-405.5 25,-399.5 25,-393.5 25,-393.5 25,-278.5 25,-278.5 25,-272.5 31,-266.5 37,-266.5 37,-266.5 173,-266.5 173,-266.5 179,-266.5 185,-272.5 185,-278.5 185,-278.5 185,-393.5 185,-393.5 185,-399.5 179,-405.5 173,-405.5"/>
<text text-anchor="start" x="43" y="-384.7" font-family="Times,serif" font-size="16.00">conservation_score</text>
<polygon fill="white" stroke="none" points="35,-356.5 35,-375.5 175,-375.5 175,-356.5 35,-356.5"/>
<text text-anchor="start" x="37" y="-362.3" font-family="Times,serif" font-size="14.00">genomic_align_block_id</text>
<polygon fill="white" stroke="none" points="35,-335.5 35,-354.5 175,-354.5 175,-335.5 35,-335.5"/>
<text text-anchor="start" x="69" y="-341.3" font-family="Times,serif" font-size="14.00">window_size</text>
<polygon fill="white" stroke="none" points="35,-314.5 35,-333.5 175,-333.5 175,-314.5 35,-314.5"/>
<text text-anchor="start" x="83" y="-320.3" font-family="Times,serif" font-size="14.00">position</text>
<polygon fill="white" stroke="none" points="35,-293.5 35,-312.5 175,-312.5 175,-293.5 35,-293.5"/>
<text text-anchor="start" x="63" y="-299.3" font-family="Times,serif" font-size="14.00">expected_score</text>
<polygon fill="white" stroke="none" points="35,-272.5 35,-291.5 175,-291.5 175,-272.5 35,-272.5"/>
<text text-anchor="start" x="77.5" y="-278.3" font-family="Times,serif" font-size="14.00">diff_score</text>
<polygon fill="black" stroke="black" points="33,-376.5 33,-376.5 177,-376.5 177,-376.5 33,-376.5"/>
</g>
<!-- genomic_align_block -->
<g id="node4" class="node">
<title>genomic_align_block</title>
<path fill="#ff8500" stroke="black" d="M414.5,-406C414.5,-406 251.5,-406 251.5,-406 245.5,-406 239.5,-400 239.5,-394 239.5,-394 239.5,-342 239.5,-342 239.5,-336 245.5,-330 251.5,-330 251.5,-330 414.5,-330 414.5,-330 420.5,-330 426.5,-336 426.5,-342 426.5,-342 426.5,-394 426.5,-394 426.5,-400 420.5,-406 414.5,-406"/>
<text text-anchor="start" x="263.5" y="-385.2" font-family="Times,serif" font-size="16.00">genomic_align_block</text>
<polygon fill="white" stroke="none" points="249.5,-357 249.5,-376 416.5,-376 416.5,-357 249.5,-357"/>
<text text-anchor="start" x="251.5" y="-363.8" font-family="Times,serif" font-weight="bold" font-size="14.00">PK</text>
<text text-anchor="start" x="271.5" y="-363.8" font-family="Times,serif" font-size="14.00">  genomic_align_block_id</text>
<polygon fill="white" stroke="none" points="249.5,-336 249.5,-355 416.5,-355 416.5,-336 249.5,-336"/>
<text text-anchor="start" x="327" y="-342.8" font-family="Times,serif" font-style="italic" font-size="14.00">...</text>
<polygon fill="black" stroke="black" points="247.5,-377 247.5,-377 418.5,-377 418.5,-377 247.5,-377"/>
</g>
<!-- conservation_score&#45;&gt;genomic_align_block -->
<g id="edge1" class="edge">
<title>conservation_score:e&#45;&gt;genomic_align_block:w</title>
<path fill="none" stroke="black" stroke-dasharray="5,2" d="M176,-366C204,-366 213.62,-366 237.03,-366"/>
<polygon fill="black" stroke="black" points="237,-369.5 247,-366 237,-362.5 237,-369.5"/>
</g>
<!-- constrained_element -->
<g id="node2" class="node">
<title>constrained_element</title>
<path fill="#c70c09" stroke="black" d="M182,-248C182,-248 28,-248 28,-248 22,-248 16,-242 16,-236 16,-236 16,-58 16,-58 16,-52 22,-46 28,-46 28,-46 182,-46 182,-46 188,-46 194,-52 194,-58 194,-58 194,-236 194,-236 194,-242 188,-248 182,-248"/>
<text text-anchor="start" x="38.5" y="-227.2" font-family="Times,serif" font-size="16.00">constrained_element</text>
<polygon fill="white" stroke="none" points="26,-199 26,-218 184,-218 184,-199 26,-199"/>
<text text-anchor="start" x="40" y="-204.8" font-family="Times,serif" font-size="14.00">constrained_element_id</text>
<polygon fill="white" stroke="none" points="26,-178 26,-197 184,-197 184,-178 26,-178"/>
<text text-anchor="start" x="75.5" y="-183.8" font-family="Times,serif" font-size="14.00">dnafrag_id</text>
<polygon fill="white" stroke="none" points="26,-157 26,-176 184,-176 184,-157 26,-157"/>
<text text-anchor="start" x="68.5" y="-162.8" font-family="Times,serif" font-size="14.00">dnafrag_start</text>
<polygon fill="white" stroke="none" points="26,-136 26,-155 184,-155 184,-136 26,-136"/>
<text text-anchor="start" x="71" y="-141.8" font-family="Times,serif" font-size="14.00">dnafrag_end</text>
<polygon fill="white" stroke="none" points="26,-115 26,-134 184,-134 184,-115 26,-115"/>
<text text-anchor="start" x="64" y="-120.8" font-family="Times,serif" font-size="14.00">dnafrag_strand</text>
<polygon fill="white" stroke="none" points="26,-94 26,-113 184,-113 184,-94 26,-94"/>
<text text-anchor="start" x="28" y="-99.8" font-family="Times,serif" font-size="14.00">method_link_species_set_id</text>
<polygon fill="white" stroke="none" points="26,-73 26,-92 184,-92 184,-73 26,-73"/>
<text text-anchor="start" x="83.5" y="-78.8" font-family="Times,serif" font-size="14.00">p_value</text>
<polygon fill="white" stroke="none" points="26,-52 26,-71 184,-71 184,-52 26,-52"/>
<text text-anchor="start" x="90.5" y="-57.8" font-family="Times,serif" font-size="14.00">score</text>
<polygon fill="black" stroke="black" points="24,-219 24,-219 186,-219 186,-219 24,-219"/>
</g>
<!-- dnafrag -->
<g id="node3" class="node">
<title>dnafrag</title>
<path fill="#808000" stroke="black" d="M376.5,-263C376.5,-263 289.5,-263 289.5,-263 283.5,-263 277.5,-257 277.5,-251 277.5,-251 277.5,-199 277.5,-199 277.5,-193 283.5,-187 289.5,-187 289.5,-187 376.5,-187 376.5,-187 382.5,-187 388.5,-193 388.5,-199 388.5,-199 388.5,-251 388.5,-251 388.5,-257 382.5,-263 376.5,-263"/>
<text text-anchor="start" x="308.5" y="-242.2" font-family="Times,serif" font-size="16.00">dnafrag</text>
<polygon fill="white" stroke="none" points="287.5,-214 287.5,-233 378.5,-233 378.5,-214 287.5,-214"/>
<text text-anchor="start" x="289.5" y="-220.8" font-family="Times,serif" font-weight="bold" font-size="14.00">PK</text>
<text text-anchor="start" x="309.5" y="-220.8" font-family="Times,serif" font-size="14.00">  dnafrag_id</text>
<polygon fill="white" stroke="none" points="287.5,-193 287.5,-212 378.5,-212 378.5,-193 287.5,-193"/>
<text text-anchor="start" x="327" y="-199.8" font-family="Times,serif" font-style="italic" font-size="14.00">...</text>
<polygon fill="black" stroke="black" points="285.5,-234 285.5,-234 380.5,-234 380.5,-234 285.5,-234"/>
</g>
<!-- constrained_element&#45;&gt;dnafrag -->
<g id="edge2" class="edge">
<title>constrained_element:e&#45;&gt;dnafrag:w</title>
<path fill="none" stroke="black" stroke-dasharray="5,2" d="M185,-188C228.61,-188 237.23,-217.49 275.1,-222.33"/>
<polygon fill="black" stroke="black" points="274.8,-225.88 285,-223 275.23,-218.89 274.8,-225.88"/>
</g>
<!-- method_link_species_set -->
<g id="node5" class="node">
<title>method_link_species_set</title>
<path fill="#3cb371" stroke="black" d="M424,-133C424,-133 242,-133 242,-133 236,-133 230,-127 230,-121 230,-121 230,-69 230,-69 230,-63 236,-57 242,-57 242,-57 424,-57 424,-57 430,-57 436,-63 436,-69 436,-69 436,-121 436,-121 436,-127 430,-133 424,-133"/>
<text text-anchor="start" x="252" y="-112.2" font-family="Times,serif" font-size="16.00">method_link_species_set</text>
<polygon fill="white" stroke="none" points="240,-84 240,-103 426,-103 426,-84 240,-84"/>
<text text-anchor="start" x="242" y="-90.8" font-family="Times,serif" font-weight="bold" font-size="14.00">PK</text>
<text text-anchor="start" x="262" y="-90.8" font-family="Times,serif" font-size="14.00">  method_link_species_set_id</text>
<polygon fill="white" stroke="none" points="240,-63 240,-82 426,-82 426,-63 240,-63"/>
<text text-anchor="start" x="327" y="-69.8" font-family="Times,serif" font-style="italic" font-size="14.00">...</text>
<polygon fill="black" stroke="black" points="238,-104 238,-104 428,-104 428,-104 238,-104"/>
</g>
<!-- constrained_element&#45;&gt;method_link_species_set -->
<g id="edge3" class="edge">
<title>constrained_element:e&#45;&gt;method_link_species_set:w</title>
<path fill="none" stroke="black" stroke-dasharray="5,2" d="M185,-103C205.4,-103 212.37,-96.01 228.37,-93.72"/>
<polygon fill="black" stroke="black" points="228.26,-97.17 238,-93 227.79,-90.18 228.26,-97.17"/>
</g>
</g>
</svg>
