<?xml version="1.0" encoding="UTF-8" standalone="no"?>
<!DOCTYPE svg PUBLIC "-//W3C//DTD SVG 1.1//EN"
 "http://www.w3.org/Graphics/SVG/1.1/DTD/svg11.dtd">
<!-- Generated by graphviz version 8.0.1 (0)
 -->
<!-- Title: test Pages: 1 -->
<svg width="621pt" height="370pt"
 viewBox="0.00 0.00 621.00 370.00" xmlns="http://www.w3.org/2000/svg" xmlns:xlink="http://www.w3.org/1999/xlink">
<g id="graph0" class="graph" transform="scale(1 1) rotate(0) translate(4 366)">
<title>test</title>
<polygon fill="white" stroke="none" points="-4,4 -4,-366 617,-366 617,4 -4,4"/>
<text text-anchor="middle" x="306.5" y="-10" font-family="Times,serif" font-size="20.00">Compara schema diagram: Synteny tables</text>
<g id="clust1" class="cluster">
<title>cluster_dataset_description</title>
<polygon fill="white" stroke="white" points="383,-211 383,-333 605,-333 605,-211 383,-211"/>
<text text-anchor="middle" x="494" y="-313" font-family="Times,serif" font-size="20.00">Dataset description</text>
</g>
<g id="clust2" class="cluster">
<title>cluster_genomes</title>
<polygon fill="white" stroke="white" points="202.5,-38 202.5,-160 329.5,-160 329.5,-38 202.5,-38"/>
<text text-anchor="middle" x="266" y="-140" font-family="Times,serif" font-size="20.00">Genomes</text>
</g>
<g id="clust3" class="cluster">
<title>cluster_synteny</title>
<path fill="#ffe0e0" stroke="#ffe0e0" d="M20,-168C20,-168 351,-168 351,-168 357,-168 363,-174 363,-180 363,-180 363,-342 363,-342 363,-348 357,-354 351,-354 351,-354 20,-354 20,-354 14,-354 8,-348 8,-342 8,-342 8,-180 8,-180 8,-174 14,-168 20,-168"/>
<text text-anchor="middle" x="185.5" y="-334" font-family="Times,serif" font-size="20.00">Synteny</text>
</g>
<!-- dnafrag_region -->
<g id="node1" class="node">
<title>dnafrag_region</title>
<path fill="#ff6666" stroke="black" d="M129,-315.5C129,-315.5 28,-315.5 28,-315.5 22,-315.5 16,-309.5 16,-303.5 16,-303.5 16,-188.5 16,-188.5 16,-182.5 22,-176.5 28,-176.5 28,-176.5 129,-176.5 129,-176.5 135,-176.5 141,-182.5 141,-188.5 141,-188.5 141,-303.5 141,-303.5 141,-309.5 135,-315.5 129,-315.5"/>
<text text-anchor="start" x="29" y="-294.7" font-family="Times,serif" font-size="16.00">dnafrag_region</text>
<polygon fill="white" stroke="none" points="26,-266.5 26,-285.5 131,-285.5 131,-266.5 26,-266.5"/>
<text text-anchor="start" x="28" y="-272.3" font-family="Times,serif" font-size="14.00">synteny_region_id</text>
<polygon fill="white" stroke="none" points="26,-245.5 26,-264.5 131,-264.5 131,-245.5 26,-245.5"/>
<text text-anchor="start" x="49" y="-251.3" font-family="Times,serif" font-size="14.00">dnafrag_id</text>
<polygon fill="white" stroke="none" points="26,-224.5 26,-243.5 131,-243.5 131,-224.5 26,-224.5"/>
<text text-anchor="start" x="42" y="-230.3" font-family="Times,serif" font-size="14.00">dnafrag_start</text>
<polygon fill="white" stroke="none" points="26,-203.5 26,-222.5 131,-222.5 131,-203.5 26,-203.5"/>
<text text-anchor="start" x="44.5" y="-209.3" font-family="Times,serif" font-size="14.00">dnafrag_end</text>
<polygon fill="white" stroke="none" points="26,-182.5 26,-201.5 131,-201.5 131,-182.5 26,-182.5"/>
<text text-anchor="start" x="37.5" y="-188.3" font-family="Times,serif" font-size="14.00">dnafrag_strand</text>
<polygon fill="black" stroke="black" points="24,-286.5 24,-286.5 133,-286.5 133,-286.5 24,-286.5"/>
</g>
<!-- synteny_region -->
<g id="node2" class="node">
<title>synteny_region</title>
<path fill="#ff6666" stroke="black" d="M343,-316C343,-316 189,-316 189,-316 183,-316 177,-310 177,-304 177,-304 177,-252 177,-252 177,-246 183,-240 189,-240 189,-240 343,-240 343,-240 349,-240 355,-246 355,-252 355,-252 355,-304 355,-304 355,-310 349,-316 343,-316"/>
<text text-anchor="start" x="216" y="-295.2" font-family="Times,serif" font-size="16.00">synteny_region</text>
<polygon fill="white" stroke="none" points="187,-267 187,-286 345,-286 345,-267 187,-267"/>
<text text-anchor="start" x="201.5" y="-273.8" font-family="Times,serif" font-weight="bold" font-size="14.00">PK</text>
<text text-anchor="start" x="221.5" y="-273.8" font-family="Times,serif" font-size="14.00">  synteny_region_id</text>
<polygon fill="white" stroke="none" points="187,-246 187,-265 345,-265 345,-246 187,-246"/>
<text text-anchor="start" x="189" y="-251.8" font-family="Times,serif" font-size="14.00">method_link_species_set_id</text>
<polygon fill="black" stroke="black" points="185,-287 185,-287 347,-287 347,-287 185,-287"/>
</g>
<!-- dnafrag_region&#45;&gt;synteny_region -->
<g id="edge2" class="edge">
<title>dnafrag_region:e&#45;&gt;synteny_region:w</title>
<path fill="none" stroke="black" stroke-dasharray="5,2" d="M132.5,-276C152.19,-276 159.65,-276 175.14,-276"/>
<polygon fill="black" stroke="black" points="175,-279.5 185,-276 175,-272.5 175,-279.5"/>
</g>
<!-- dnafrag -->
<g id="node3" class="node">
<title>dnafrag</title>
<path fill="#808000" stroke="black" d="M309.5,-122C309.5,-122 222.5,-122 222.5,-122 216.5,-122 210.5,-116 210.5,-110 210.5,-110 210.5,-58 210.5,-58 210.5,-52 216.5,-46 222.5,-46 222.5,-46 309.5,-46 309.5,-46 315.5,-46 321.5,-52 321.5,-58 321.5,-58 321.5,-110 321.5,-110 321.5,-116 315.5,-122 309.5,-122"/>
<text text-anchor="start" x="241.5" y="-101.2" font-family="Times,serif" font-size="16.00">dnafrag</text>
<polygon fill="white" stroke="none" points="220.5,-73 220.5,-92 311.5,-92 311.5,-73 220.5,-73"/>
<text text-anchor="start" x="222.5" y="-79.8" font-family="Times,serif" font-weight="bold" font-size="14.00">PK</text>
<text text-anchor="start" x="242.5" y="-79.8" font-family="Times,serif" font-size="14.00">  dnafrag_id</text>
<polygon fill="white" stroke="none" points="220.5,-52 220.5,-71 311.5,-71 311.5,-52 220.5,-52"/>
<text text-anchor="start" x="260" y="-58.8" font-family="Times,serif" font-style="italic" font-size="14.00">...</text>
<polygon fill="black" stroke="black" points="218.5,-93 218.5,-93 313.5,-93 313.5,-93 218.5,-93"/>
</g>
<!-- dnafrag_region&#45;&gt;dnafrag -->
<g id="edge1" class="edge">
<title>dnafrag_region:e&#45;&gt;dnafrag:w</title>
<path fill="none" stroke="black" stroke-dasharray="5,2" d="M132.5,-255C214.6,-255 140.36,-97.19 208.42,-83.02"/>
<polygon fill="black" stroke="black" points="208.38,-86.44 218,-82 207.71,-79.47 208.38,-86.44"/>
</g>
<!-- method_link_species_set -->
<g id="node4" class="node">
<title>method_link_species_set</title>
<path fill="#3cb371" stroke="black" d="M585,-295C585,-295 403,-295 403,-295 397,-295 391,-289 391,-283 391,-283 391,-231 391,-231 391,-225 397,-219 403,-219 403,-219 585,-219 585,-219 591,-219 597,-225 597,-231 597,-231 597,-283 597,-283 597,-289 591,-295 585,-295"/>
<text text-anchor="start" x="413" y="-274.2" font-family="Times,serif" font-size="16.00">method_link_species_set</text>
<polygon fill="white" stroke="none" points="401,-246 401,-265 587,-265 587,-246 401,-246"/>
<text text-anchor="start" x="403" y="-252.8" font-family="Times,serif" font-weight="bold" font-size="14.00">PK</text>
<text text-anchor="start" x="423" y="-252.8" font-family="Times,serif" font-size="14.00">  method_link_species_set_id</text>
<polygon fill="white" stroke="none" points="401,-225 401,-244 587,-244 587,-225 401,-225"/>
<text text-anchor="start" x="488" y="-231.8" font-family="Times,serif" font-style="italic" font-size="14.00">...</text>
<polygon fill="black" stroke="black" points="399,-266 399,-266 589,-266 589,-266 399,-266"/>
</g>
<!-- synteny_region&#45;&gt;method_link_species_set -->
<g id="edge3" class="edge">
<title>synteny_region:e&#45;&gt;method_link_species_set:w</title>
<path fill="none" stroke="black" stroke-dasharray="5,2" d="M346,-255C365.88,-255 373.41,-255 389.04,-255"/>
<polygon fill="black" stroke="black" points="389,-258.5 399,-255 389,-251.5 389,-258.5"/>
</g>
</g>
</svg>
