<?xml version="1.0" encoding="UTF-8" standalone="no"?>
<!DOCTYPE svg PUBLIC "-//W3C//DTD SVG 1.1//EN"
 "http://www.w3.org/Graphics/SVG/1.1/DTD/svg11.dtd">
<!-- Generated by graphviz version 8.0.1 (0)
 -->
<!-- Title: test Pages: 1 -->
<svg width="412pt" height="512pt"
 viewBox="0.00 0.00 412.00 512.00" xmlns="http://www.w3.org/2000/svg" xmlns:xlink="http://www.w3.org/1999/xlink">
<g id="graph0" class="graph" transform="scale(1 1) rotate(0) translate(4 508)">
<title>test</title>
<polygon fill="white" stroke="none" points="-4,4 -4,-508 408,-508 408,4 -4,4"/>
<text text-anchor="middle" x="202" y="-10" font-family="Times,serif" font-size="20.00">Compara schema diagram: Profile HMMs tables</text>
<g id="clust1" class="cluster">
<title>cluster_genomes</title>
<polygon fill="white" stroke="white" points="231,-374 231,-496 387,-496 387,-374 231,-374"/>
<text text-anchor="middle" x="309" y="-476" font-family="Times,serif" font-size="20.00">Genomes</text>
</g>
<g id="clust2" class="cluster">
<title>cluster_profile_hmms</title>
<path fill="#e0f4ff" stroke="#e0f4ff" d="M29,-38C29,-38 199,-38 199,-38 205,-38 211,-44 211,-50 211,-50 211,-484 211,-484 211,-490 205,-496 199,-496 199,-496 29,-496 29,-496 23,-496 17,-490 17,-484 17,-484 17,-50 17,-50 17,-44 23,-38 29,-38"/>
<text text-anchor="middle" x="114" y="-476" font-family="Times,serif" font-size="20.00">Profile HMMs</text>
</g>
<!-- hmm_annot -->
<g id="node1" class="node">
<title>hmm_annot</title>
<path fill="#66ccff" stroke="black" d="M172,-457.5C172,-457.5 56,-457.5 56,-457.5 50,-457.5 44,-451.5 44,-445.5 44,-445.5 44,-372.5 44,-372.5 44,-366.5 50,-360.5 56,-360.5 56,-360.5 172,-360.5 172,-360.5 178,-360.5 184,-366.5 184,-372.5 184,-372.5 184,-445.5 184,-445.5 184,-451.5 178,-457.5 172,-457.5"/>
<text text-anchor="start" x="75" y="-436.7" font-family="Times,serif" font-size="16.00">hmm_annot</text>
<polygon fill="white" stroke="none" points="54,-408.5 54,-427.5 174,-427.5 174,-408.5 54,-408.5"/>
<text text-anchor="start" x="56" y="-415.3" font-family="Times,serif" font-weight="bold" font-size="14.00">PK</text>
<text text-anchor="start" x="76" y="-415.3" font-family="Times,serif" font-size="14.00">  seq_member_id</text>
<polygon fill="white" stroke="none" points="54,-387.5 54,-406.5 174,-406.5 174,-387.5 54,-387.5"/>
<text text-anchor="start" x="88" y="-393.3" font-family="Times,serif" font-size="14.00">model_id</text>
<polygon fill="white" stroke="none" points="54,-366.5 54,-385.5 174,-385.5 174,-366.5 54,-366.5"/>
<text text-anchor="start" x="96" y="-372.3" font-family="Times,serif" font-size="14.00">evalue</text>
<polygon fill="black" stroke="black" points="52,-428.5 52,-428.5 176,-428.5 176,-428.5 52,-428.5"/>
</g>
<!-- seq_member -->
<g id="node4" class="node">
<title>seq_member</title>
<path fill="#808000" stroke="black" d="M367,-458C367,-458 251,-458 251,-458 245,-458 239,-452 239,-446 239,-446 239,-394 239,-394 239,-388 245,-382 251,-382 251,-382 367,-382 367,-382 373,-382 379,-388 379,-394 379,-394 379,-446 379,-446 379,-452 373,-458 367,-458"/>
<text text-anchor="start" x="268" y="-437.2" font-family="Times,serif" font-size="16.00">seq_member</text>
<polygon fill="white" stroke="none" points="249,-409 249,-428 369,-428 369,-409 249,-409"/>
<text text-anchor="start" x="251" y="-415.8" font-family="Times,serif" font-weight="bold" font-size="14.00">PK</text>
<text text-anchor="start" x="271" y="-415.8" font-family="Times,serif" font-size="14.00">  seq_member_id</text>
<polygon fill="white" stroke="none" points="249,-388 249,-407 369,-407 369,-388 249,-388"/>
<text text-anchor="start" x="303" y="-394.8" font-family="Times,serif" font-style="italic" font-size="14.00">...</text>
<polygon fill="black" stroke="black" points="247,-429 247,-429 371,-429 371,-429 247,-429"/>
</g>
<!-- hmm_annot&#45;&gt;seq_member -->
<g id="edge1" class="edge">
<title>hmm_annot:e&#45;&gt;seq_member:w</title>
<path fill="none" stroke="black" stroke-dasharray="5,2" d="M175,-418C203.52,-418 213.23,-418 237.2,-418"/>
<polygon fill="black" stroke="black" points="237,-421.5 247,-418 237,-414.5 237,-421.5"/>
</g>
<!-- hmm_curated_annot -->
<g id="node2" class="node">
<title>hmm_curated_annot</title>
<path fill="#66ccff" stroke="black" d="M191,-342.5C191,-342.5 37,-342.5 37,-342.5 31,-342.5 25,-336.5 25,-330.5 25,-330.5 25,-215.5 25,-215.5 25,-209.5 31,-203.5 37,-203.5 37,-203.5 191,-203.5 191,-203.5 197,-203.5 203,-209.5 203,-215.5 203,-215.5 203,-330.5 203,-330.5 203,-336.5 197,-342.5 191,-342.5"/>
<text text-anchor="start" x="47.5" y="-321.7" font-family="Times,serif" font-size="16.00">hmm_curated_annot</text>
<polygon fill="white" stroke="none" points="35,-293.5 35,-312.5 193,-312.5 193,-293.5 35,-293.5"/>
<text text-anchor="start" x="37" y="-300.3" font-family="Times,serif" font-weight="bold" font-size="14.00">PK</text>
<text text-anchor="start" x="57" y="-300.3" font-family="Times,serif" font-size="14.00">  seq_member_stable_id</text>
<polygon fill="white" stroke="none" points="35,-272.5 35,-291.5 193,-291.5 193,-272.5 35,-272.5"/>
<text text-anchor="start" x="88" y="-278.3" font-family="Times,serif" font-size="14.00">model_id</text>
<polygon fill="white" stroke="none" points="35,-251.5 35,-270.5 193,-270.5 193,-251.5 35,-251.5"/>
<text text-anchor="start" x="72" y="-257.3" font-family="Times,serif" font-size="14.00">library_version</text>
<polygon fill="white" stroke="none" points="35,-230.5 35,-249.5 193,-249.5 193,-230.5 35,-230.5"/>
<text text-anchor="start" x="84" y="-236.3" font-family="Times,serif" font-size="14.00">annot_date</text>
<polygon fill="white" stroke="none" points="35,-209.5 35,-228.5 193,-228.5 193,-209.5 35,-209.5"/>
<text text-anchor="start" x="96" y="-215.3" font-family="Times,serif" font-size="14.00">reason</text>
<polygon fill="black" stroke="black" points="33,-313.5 33,-313.5 195,-313.5 195,-313.5 33,-313.5"/>
</g>
<!-- hmm_profile -->
<g id="node3" class="node">
<title>hmm_profile</title>
<path fill="#66ccff" stroke="black" d="M167,-185.5C167,-185.5 61,-185.5 61,-185.5 55,-185.5 49,-179.5 49,-173.5 49,-173.5 49,-58.5 49,-58.5 49,-52.5 55,-46.5 61,-46.5 61,-46.5 167,-46.5 167,-46.5 173,-46.5 179,-52.5 179,-58.5 179,-58.5 179,-173.5 179,-173.5 179,-179.5 173,-185.5 167,-185.5"/>
<text text-anchor="start" x="71.5" y="-164.7" font-family="Times,serif" font-size="16.00">hmm_profile</text>
<polygon fill="white" stroke="none" points="59,-136.5 59,-155.5 169,-155.5 169,-136.5 59,-136.5"/>
<text text-anchor="start" x="74" y="-143.3" font-family="Times,serif" font-weight="bold" font-size="14.00">PK</text>
<text text-anchor="start" x="94" y="-143.3" font-family="Times,serif" font-size="14.00">  model_id</text>
<polygon fill="white" stroke="none" points="59,-115.5 59,-134.5 169,-134.5 169,-115.5 59,-115.5"/>
<text text-anchor="start" x="98.5" y="-121.3" font-family="Times,serif" font-size="14.00">name</text>
<polygon fill="white" stroke="none" points="59,-94.5 59,-113.5 169,-113.5 169,-94.5 59,-94.5"/>
<text text-anchor="start" x="88.5" y="-101.3" font-family="Times,serif" font-weight="bold" font-size="14.00">PK</text>
<text text-anchor="start" x="108.5" y="-101.3" font-family="Times,serif" font-size="14.00">  type</text>
<polygon fill="white" stroke="none" points="59,-73.5 59,-92.5 169,-92.5 169,-73.5 59,-73.5"/>
<text text-anchor="start" x="61" y="-79.3" font-family="Times,serif" font-size="14.00">compressed_profile</text>
<polygon fill="white" stroke="none" points="59,-52.5 59,-71.5 169,-71.5 169,-52.5 59,-52.5"/>
<text text-anchor="start" x="86.5" y="-58.3" font-family="Times,serif" font-size="14.00">consensus</text>
<polygon fill="black" stroke="black" points="57,-156.5 57,-156.5 171,-156.5 171,-156.5 57,-156.5"/>
</g>
</g>
</svg>
