<?xml version="1.0" encoding="UTF-8" standalone="no"?>
<!DOCTYPE svg PUBLIC "-//W3C//DTD SVG 1.1//EN"
 "http://www.w3.org/Graphics/SVG/1.1/DTD/svg11.dtd">
<!-- Generated by graphviz version 8.0.1 (0)
 -->
<!-- Title: test Pages: 1 -->
<svg width="636pt" height="390pt"
 viewBox="0.00 0.00 636.00 390.00" xmlns="http://www.w3.org/2000/svg" xmlns:xlink="http://www.w3.org/1999/xlink">
<g id="graph0" class="graph" transform="scale(1 1) rotate(0) translate(4 386)">
<title>test</title>
<polygon fill="white" stroke="none" points="-4,4 -4,-386 632,-386 632,4 -4,4"/>
<text text-anchor="middle" x="314" y="-10" font-family="Times,serif" font-size="20.00">Compara schema diagram: Protein families tables</text>
<g id="clust1" class="cluster">
<title>cluster_dataset_description</title>
<polygon fill="white" stroke="white" points="398,-189 398,-311 620,-311 620,-189 398,-189"/>
<text text-anchor="middle" x="509" y="-291" font-family="Times,serif" font-size="20.00">Dataset description</text>
</g>
<g id="clust2" class="cluster">
<title>cluster_genomes</title>
<polygon fill="white" stroke="white" points="203,-38 203,-160 359,-160 359,-38 203,-38"/>
<text text-anchor="middle" x="281" y="-140" font-family="Times,serif" font-size="20.00">Genomes</text>
</g>
<g id="clust3" class="cluster">
<title>cluster_protein_families</title>
<path fill="#f1defb" stroke="#f1defb" d="M20,-168C20,-168 366,-168 366,-168 372,-168 378,-174 378,-180 378,-180 378,-362 378,-362 378,-368 372,-374 366,-374 366,-374 20,-374 20,-374 14,-374 8,-368 8,-362 8,-362 8,-180 8,-180 8,-174 14,-168 20,-168"/>
<text text-anchor="middle" x="193" y="-354" font-family="Times,serif" font-size="20.00">Protein families</text>
</g>
<!-- family -->
<g id="node1" class="node">
<title>family</title>
<path fill="#bc5cec" stroke="black" d="M358,-336C358,-336 204,-336 204,-336 198,-336 192,-330 192,-324 192,-324 192,-188 192,-188 192,-182 198,-176 204,-176 204,-176 358,-176 358,-176 364,-176 370,-182 370,-188 370,-188 370,-324 370,-324 370,-330 364,-336 358,-336"/>
<text text-anchor="start" x="260" y="-315.2" font-family="Times,serif" font-size="16.00">family</text>
<polygon fill="white" stroke="none" points="202,-287 202,-306 360,-306 360,-287 202,-287"/>
<text text-anchor="start" x="240.5" y="-293.8" font-family="Times,serif" font-weight="bold" font-size="14.00">PK</text>
<text text-anchor="start" x="260.5" y="-293.8" font-family="Times,serif" font-size="14.00">  family_id</text>
<polygon fill="white" stroke="none" points="202,-266 202,-285 360,-285 360,-266 202,-266"/>
<text text-anchor="start" x="256.5" y="-271.8" font-family="Times,serif" font-size="14.00">stable_id</text>
<polygon fill="white" stroke="none" points="202,-245 202,-264 360,-264 360,-245 202,-245"/>
<text text-anchor="start" x="261" y="-250.8" font-family="Times,serif" font-size="14.00">version</text>
<polygon fill="white" stroke="none" points="202,-224 202,-243 360,-243 360,-224 202,-224"/>
<text text-anchor="start" x="204" y="-229.8" font-family="Times,serif" font-size="14.00">method_link_species_set_id</text>
<polygon fill="white" stroke="none" points="202,-203 202,-222 360,-222 360,-203 202,-203"/>
<text text-anchor="start" x="250.5" y="-208.8" font-family="Times,serif" font-size="14.00">description</text>
<polygon fill="white" stroke="none" points="202,-182 202,-201 360,-201 360,-182 202,-182"/>
<text text-anchor="start" x="232.5" y="-187.8" font-family="Times,serif" font-size="14.00">description_score</text>
<polygon fill="black" stroke="black" points="200,-307 200,-307 362,-307 362,-307 200,-307"/>
</g>
<!-- method_link_species_set -->
<g id="node3" class="node">
<title>method_link_species_set</title>
<path fill="#3cb371" stroke="black" d="M600,-273C600,-273 418,-273 418,-273 412,-273 406,-267 406,-261 406,-261 406,-209 406,-209 406,-203 412,-197 418,-197 418,-197 600,-197 600,-197 606,-197 612,-203 612,-209 612,-209 612,-261 612,-261 612,-267 606,-273 600,-273"/>
<text text-anchor="start" x="428" y="-252.2" font-family="Times,serif" font-size="16.00">method_link_species_set</text>
<polygon fill="white" stroke="none" points="416,-224 416,-243 602,-243 602,-224 416,-224"/>
<text text-anchor="start" x="418" y="-230.8" font-family="Times,serif" font-weight="bold" font-size="14.00">PK</text>
<text text-anchor="start" x="438" y="-230.8" font-family="Times,serif" font-size="14.00">  method_link_species_set_id</text>
<polygon fill="white" stroke="none" points="416,-203 416,-222 602,-222 602,-203 416,-203"/>
<text text-anchor="start" x="503" y="-209.8" font-family="Times,serif" font-style="italic" font-size="14.00">...</text>
<polygon fill="black" stroke="black" points="414,-244 414,-244 604,-244 604,-244 414,-244"/>
</g>
<!-- family&#45;&gt;method_link_species_set -->
<g id="edge1" class="edge">
<title>family:e&#45;&gt;method_link_species_set:w</title>
<path fill="none" stroke="black" stroke-dasharray="5,2" d="M361,-233C380.88,-233 388.41,-233 404.04,-233"/>
<polygon fill="black" stroke="black" points="404,-236.5 414,-233 404,-229.5 404,-236.5"/>
</g>
<!-- family_member -->
<g id="node2" class="node">
<title>family_member</title>
<path fill="#bc5cec" stroke="black" d="M144,-304.5C144,-304.5 28,-304.5 28,-304.5 22,-304.5 16,-298.5 16,-292.5 16,-292.5 16,-219.5 16,-219.5 16,-213.5 22,-207.5 28,-207.5 28,-207.5 144,-207.5 144,-207.5 150,-207.5 156,-213.5 156,-219.5 156,-219.5 156,-292.5 156,-292.5 156,-298.5 150,-304.5 144,-304.5"/>
<text text-anchor="start" x="34.5" y="-283.7" font-family="Times,serif" font-size="16.00">family_member</text>
<polygon fill="white" stroke="none" points="26,-255.5 26,-274.5 146,-274.5 146,-255.5 26,-255.5"/>
<text text-anchor="start" x="45.5" y="-262.3" font-family="Times,serif" font-weight="bold" font-size="14.00">PK</text>
<text text-anchor="start" x="65.5" y="-262.3" font-family="Times,serif" font-size="14.00">  family_id</text>
<polygon fill="white" stroke="none" points="26,-234.5 26,-253.5 146,-253.5 146,-234.5 26,-234.5"/>
<text text-anchor="start" x="28" y="-241.3" font-family="Times,serif" font-weight="bold" font-size="14.00">PK</text>
<text text-anchor="start" x="48" y="-241.3" font-family="Times,serif" font-size="14.00">  seq_member_id</text>
<polygon fill="white" stroke="none" points="26,-213.5 26,-232.5 146,-232.5 146,-213.5 26,-213.5"/>
<text text-anchor="start" x="58.5" y="-219.3" font-family="Times,serif" font-size="14.00">cigar_line</text>
<polygon fill="black" stroke="black" points="24,-275.5 24,-275.5 148,-275.5 148,-275.5 24,-275.5"/>
</g>
<!-- family_member&#45;&gt;family -->
<g id="edge2" class="edge">
<title>family_member:e&#45;&gt;family:w</title>
<path fill="none" stroke="black" stroke-dasharray="5,2" d="M147,-265C170.76,-265 172.98,-288.21 190.35,-295.09"/>
<polygon fill="black" stroke="black" points="189.54,-298.68 200,-297 190.77,-291.79 189.54,-298.68"/>
</g>
<!-- seq_member -->
<g id="node4" class="node">
<title>seq_member</title>
<path fill="#808000" stroke="black" d="M339,-122C339,-122 223,-122 223,-122 217,-122 211,-116 211,-110 211,-110 211,-58 211,-58 211,-52 217,-46 223,-46 223,-46 339,-46 339,-46 345,-46 351,-52 351,-58 351,-58 351,-110 351,-110 351,-116 345,-122 339,-122"/>
<text text-anchor="start" x="240" y="-101.2" font-family="Times,serif" font-size="16.00">seq_member</text>
<polygon fill="white" stroke="none" points="221,-73 221,-92 341,-92 341,-73 221,-73"/>
<text text-anchor="start" x="223" y="-79.8" font-family="Times,serif" font-weight="bold" font-size="14.00">PK</text>
<text text-anchor="start" x="243" y="-79.8" font-family="Times,serif" font-size="14.00">  seq_member_id</text>
<polygon fill="white" stroke="none" points="221,-52 221,-71 341,-71 341,-52 221,-52"/>
<text text-anchor="start" x="275" y="-58.8" font-family="Times,serif" font-style="italic" font-size="14.00">...</text>
<polygon fill="black" stroke="black" points="219,-93 219,-93 343,-93 343,-93 219,-93"/>
</g>
<!-- family_member&#45;&gt;seq_member -->
<g id="edge3" class="edge">
<title>family_member:e&#45;&gt;seq_member:w</title>
<path fill="none" stroke="black" stroke-dasharray="5,2" d="M147,-244C221.96,-244 149.23,-98.04 209.19,-83.21"/>
<polygon fill="black" stroke="black" points="209.45,-86.59 219,-82 208.67,-79.64 209.45,-86.59"/>
</g>
</g>
</svg>
