<?xml version="1.0" encoding="UTF-8" standalone="no"?>
<!DOCTYPE svg PUBLIC "-//W3C//DTD SVG 1.1//EN"
 "http://www.w3.org/Graphics/SVG/1.1/DTD/svg11.dtd">
<!-- Generated by graphviz version 8.0.1 (0)
 -->
<!-- Title: test Pages: 1 -->
<svg width="655pt" height="400pt"
 viewBox="0.00 0.00 655.00 400.00" xmlns="http://www.w3.org/2000/svg" xmlns:xlink="http://www.w3.org/1999/xlink">
<g id="graph0" class="graph" transform="scale(1 1) rotate(0) translate(4 396)">
<title>test</title>
<polygon fill="white" stroke="none" points="-4,4 -4,-396 651,-396 651,4 -4,4"/>
<text text-anchor="middle" x="323.5" y="-10" font-family="Times,serif" font-size="20.00">Compara schema diagram: Gene gain/loss trees tables</text>
<g id="clust1" class="cluster">
<title>cluster_gene_gain_loss_trees</title>
<path fill="#ccf6fd" stroke="#ccf6fd" d="M20,-85C20,-85 382,-85 382,-85 388,-85 394,-91 394,-97 394,-97 394,-279 394,-279 394,-285 388,-291 382,-291 382,-291 20,-291 20,-291 14,-291 8,-285 8,-279 8,-279 8,-97 8,-97 8,-91 14,-85 20,-85"/>
<text text-anchor="middle" x="201" y="-271" font-family="Times,serif" font-size="20.00">Gene gain/loss trees</text>
</g>
<g id="clust2" class="cluster">
<title>cluster_gene_trees_and_homologies</title>
<polygon fill="white" stroke="white" points="414,-262 414,-384 647,-384 647,-262 414,-262"/>
<text text-anchor="middle" x="530.5" y="-364" font-family="Times,serif" font-size="20.00">Gene trees and homologies</text>
</g>
<g id="clust3" class="cluster">
<title>cluster_taxonomy_and_species_tree</title>
<polygon fill="white" stroke="white" points="414,-38 414,-254 647,-254 647,-38 414,-38"/>
<text text-anchor="middle" x="530.5" y="-234" font-family="Times,serif" font-size="20.00">Taxonomy and species&#45;tree</text>
</g>
<!-- CAFE_gene_family -->
<g id="node1" class="node">
<title>CAFE_gene_family</title>
<path fill="#01d4f7" stroke="black" d="M374,-253C374,-253 231,-253 231,-253 225,-253 219,-247 219,-241 219,-241 219,-105 219,-105 219,-99 225,-93 231,-93 231,-93 374,-93 374,-93 380,-93 386,-99 386,-105 386,-105 386,-241 386,-241 386,-247 380,-253 374,-253"/>
<text text-anchor="start" x="238.5" y="-232.2" font-family="Times,serif" font-size="16.00">CAFE_gene_family</text>
<polygon fill="white" stroke="none" points="229,-204 229,-223 376,-223 376,-204 229,-204"/>
<text text-anchor="start" x="231" y="-210.8" font-family="Times,serif" font-weight="bold" font-size="14.00">PK</text>
<text text-anchor="start" x="251" y="-210.8" font-family="Times,serif" font-size="14.00">  cafe_gene_family_id</text>
<polygon fill="white" stroke="none" points="229,-183 229,-202 376,-202 376,-183 229,-183"/>
<text text-anchor="start" x="282.5" y="-188.8" font-family="Times,serif" font-size="14.00">root_id</text>
<polygon fill="white" stroke="none" points="229,-162 229,-181 376,-181 376,-162 229,-162"/>
<text text-anchor="start" x="285.5" y="-167.8" font-family="Times,serif" font-size="14.00">lca_id</text>
<polygon fill="white" stroke="none" points="229,-141 229,-160 376,-160 376,-141 229,-141"/>
<text text-anchor="start" x="253" y="-146.8" font-family="Times,serif" font-size="14.00">gene_tree_root_id</text>
<polygon fill="white" stroke="none" points="229,-120 229,-139 376,-139 376,-120 229,-120"/>
<text text-anchor="start" x="271" y="-125.8" font-family="Times,serif" font-size="14.00">pvalue_avg</text>
<polygon fill="white" stroke="none" points="229,-99 229,-118 376,-118 376,-99 229,-99"/>
<text text-anchor="start" x="279.5" y="-104.8" font-family="Times,serif" font-size="14.00">lambdas</text>
<polygon fill="black" stroke="black" points="227,-224 227,-224 378,-224 378,-224 227,-224"/>
</g>
<!-- gene_tree_root -->
<g id="node3" class="node">
<title>gene_tree_root</title>
<path fill="#1e90ff" stroke="black" d="M578,-346C578,-346 483,-346 483,-346 477,-346 471,-340 471,-334 471,-334 471,-282 471,-282 471,-276 477,-270 483,-270 483,-270 578,-270 578,-270 584,-270 590,-276 590,-282 590,-282 590,-334 590,-334 590,-340 584,-346 578,-346"/>
<text text-anchor="start" x="483" y="-325.2" font-family="Times,serif" font-size="16.00">gene_tree_root</text>
<polygon fill="white" stroke="none" points="481,-297 481,-316 580,-316 580,-297 481,-297"/>
<text text-anchor="start" x="497" y="-303.8" font-family="Times,serif" font-weight="bold" font-size="14.00">PK</text>
<text text-anchor="start" x="517" y="-303.8" font-family="Times,serif" font-size="14.00">  root_id</text>
<polygon fill="white" stroke="none" points="481,-276 481,-295 580,-295 580,-276 481,-276"/>
<text text-anchor="start" x="524.5" y="-282.8" font-family="Times,serif" font-style="italic" font-size="14.00">...</text>
<polygon fill="black" stroke="black" points="479,-317 479,-317 582,-317 582,-317 479,-317"/>
</g>
<!-- CAFE_gene_family&#45;&gt;gene_tree_root -->
<g id="edge1" class="edge">
<title>CAFE_gene_family:e&#45;&gt;gene_tree_root:w</title>
<path fill="none" stroke="black" stroke-dasharray="5,2" d="M377.5,-150C428.17,-150 384.06,-217.12 414,-258 432.99,-283.93 441.48,-301.75 468.61,-305.33"/>
<polygon fill="black" stroke="black" points="468.3,-308.88 478.5,-306 468.73,-301.9 468.3,-308.88"/>
</g>
<!-- species_tree_node -->
<g id="node4" class="node">
<title>species_tree_node</title>
<path fill="#24da06" stroke="black" d="M589,-122C589,-122 472,-122 472,-122 466,-122 460,-116 460,-110 460,-110 460,-58 460,-58 460,-52 466,-46 472,-46 472,-46 589,-46 589,-46 595,-46 601,-52 601,-58 601,-58 601,-110 601,-110 601,-116 595,-122 589,-122"/>
<text text-anchor="start" x="472" y="-101.2" font-family="Times,serif" font-size="16.00">species_tree_node</text>
<polygon fill="white" stroke="none" points="470,-73 470,-92 591,-92 591,-73 470,-73"/>
<text text-anchor="start" x="494.5" y="-79.8" font-family="Times,serif" font-weight="bold" font-size="14.00">PK</text>
<text text-anchor="start" x="514.5" y="-79.8" font-family="Times,serif" font-size="14.00">  node_id</text>
<polygon fill="white" stroke="none" points="470,-52 470,-71 591,-71 591,-52 470,-52"/>
<text text-anchor="start" x="524.5" y="-58.8" font-family="Times,serif" font-style="italic" font-size="14.00">...</text>
<polygon fill="black" stroke="black" points="468,-93 468,-93 593,-93 593,-93 468,-93"/>
</g>
<!-- CAFE_gene_family&#45;&gt;species_tree_node -->
<g id="edge2" class="edge">
<title>CAFE_gene_family:e&#45;&gt;species_tree_node:w</title>
<path fill="none" stroke="black" stroke-dasharray="5,2" d="M377.5,-171C401.57,-171 396.92,-147.95 414,-131 434.23,-110.92 435.84,-88.46 457.75,-83.16"/>
<polygon fill="black" stroke="black" points="457.94,-86.56 467.5,-82 457.18,-79.6 457.94,-86.56"/>
</g>
<!-- species_tree_root -->
<g id="node5" class="node">
<title>species_tree_root</title>
<path fill="#24da06" stroke="black" d="M586,-216C586,-216 475,-216 475,-216 469,-216 463,-210 463,-204 463,-204 463,-152 463,-152 463,-146 469,-140 475,-140 475,-140 586,-140 586,-140 592,-140 598,-146 598,-152 598,-152 598,-204 598,-204 598,-210 592,-216 586,-216"/>
<text text-anchor="start" x="475" y="-195.2" font-family="Times,serif" font-size="16.00">species_tree_root</text>
<polygon fill="white" stroke="none" points="473,-167 473,-186 588,-186 588,-167 473,-167"/>
<text text-anchor="start" x="497" y="-173.8" font-family="Times,serif" font-weight="bold" font-size="14.00">PK</text>
<text text-anchor="start" x="517" y="-173.8" font-family="Times,serif" font-size="14.00">  root_id</text>
<polygon fill="white" stroke="none" points="473,-146 473,-165 588,-165 588,-146 473,-146"/>
<text text-anchor="start" x="524.5" y="-152.8" font-family="Times,serif" font-style="italic" font-size="14.00">...</text>
<polygon fill="black" stroke="black" points="471,-187 471,-187 590,-187 590,-187 471,-187"/>
</g>
<!-- CAFE_gene_family&#45;&gt;species_tree_root -->
<g id="edge3" class="edge">
<title>CAFE_gene_family:e&#45;&gt;species_tree_root:w</title>
<path fill="none" stroke="black" stroke-dasharray="5,2" d="M377.5,-193C416.14,-193 427.14,-178.92 460.82,-176.39"/>
<polygon fill="black" stroke="black" points="460.63,-179.86 470.5,-176 460.38,-172.86 460.63,-179.86"/>
</g>
<!-- CAFE_species_gene -->
<g id="node2" class="node">
<title>CAFE_species_gene</title>
<path fill="#01d4f7" stroke="black" d="M171,-232C171,-232 28,-232 28,-232 22,-232 16,-226 16,-220 16,-220 16,-126 16,-126 16,-120 22,-114 28,-114 28,-114 171,-114 171,-114 177,-114 183,-120 183,-126 183,-126 183,-220 183,-220 183,-226 177,-232 171,-232"/>
<text text-anchor="start" x="33.5" y="-211.2" font-family="Times,serif" font-size="16.00">CAFE_species_gene</text>
<polygon fill="white" stroke="none" points="26,-183 26,-202 173,-202 173,-183 26,-183"/>
<text text-anchor="start" x="28" y="-189.8" font-family="Times,serif" font-weight="bold" font-size="14.00">PK</text>
<text text-anchor="start" x="48" y="-189.8" font-family="Times,serif" font-size="14.00">  cafe_gene_family_id</text>
<polygon fill="white" stroke="none" points="26,-162 26,-181 173,-181 173,-162 26,-162"/>
<text text-anchor="start" x="63.5" y="-168.8" font-family="Times,serif" font-weight="bold" font-size="14.00">PK</text>
<text text-anchor="start" x="83.5" y="-168.8" font-family="Times,serif" font-size="14.00">  node_id</text>
<polygon fill="white" stroke="none" points="26,-141 26,-160 173,-160 173,-141 26,-141"/>
<text text-anchor="start" x="67" y="-146.8" font-family="Times,serif" font-size="14.00">n_members</text>
<polygon fill="white" stroke="none" points="26,-120 26,-139 173,-139 173,-120 26,-120"/>
<text text-anchor="start" x="81" y="-125.8" font-family="Times,serif" font-size="14.00">pvalue</text>
<polygon fill="black" stroke="black" points="24,-203 24,-203 175,-203 175,-203 24,-203"/>
</g>
<!-- CAFE_species_gene&#45;&gt;CAFE_gene_family -->
<g id="edge4" class="edge">
<title>CAFE_species_gene:e&#45;&gt;CAFE_gene_family:w</title>
<path fill="none" stroke="black" stroke-dasharray="5,2" d="M174.5,-193C195.68,-193 200.78,-207.67 216.68,-212.49"/>
<polygon fill="black" stroke="black" points="216.11,-216.08 226.5,-214 217.08,-209.15 216.11,-216.08"/>
</g>
<!-- CAFE_species_gene&#45;&gt;species_tree_node -->
<g id="edge5" class="edge">
<title>CAFE_species_gene:e&#45;&gt;species_tree_node:w</title>
<path fill="none" stroke="black" stroke-dasharray="5,2" d="M174.5,-171C217.93,-171 182.04,-106.81 219,-84 310.23,-27.69 354.61,-78.39 457.67,-81.82"/>
<polygon fill="black" stroke="black" points="457.44,-85.33 467.5,-82 457.56,-78.33 457.44,-85.33"/>
</g>
</g>
</svg>
