<?xml version="1.0" encoding="UTF-8" standalone="no"?>
<!DOCTYPE svg PUBLIC "-//W3C//DTD SVG 1.1//EN"
 "http://www.w3.org/Graphics/SVG/1.1/DTD/svg11.dtd">
<!-- Generated by graphviz version 8.0.1 (0)
 -->
<!-- Title: test Pages: 1 -->
<svg width="683pt" height="812pt"
 viewBox="0.00 0.00 683.00 812.00" xmlns="http://www.w3.org/2000/svg" xmlns:xlink="http://www.w3.org/1999/xlink">
<g id="graph0" class="graph" transform="scale(1 1) rotate(0) translate(4 808)">
<title>test</title>
<polygon fill="white" stroke="none" points="-4,4 -4,-808 679,-808 679,4 -4,4"/>
<text text-anchor="middle" x="337.5" y="-10" font-family="Times,serif" font-size="20.00">Compara schema diagram: Genomic alignments tables</text>
<g id="clust1" class="cluster">
<title>cluster_conservation</title>
<polygon fill="white" stroke="white" points="17,-674 17,-796 193,-796 193,-674 17,-674"/>
<text text-anchor="middle" x="105" y="-776" font-family="Times,serif" font-size="20.00">Conservation</text>
</g>
<g id="clust3" class="cluster">
<title>cluster_genomes</title>
<polygon fill="white" stroke="white" points="260,-70 260,-192 387,-192 387,-70 260,-70"/>
<text text-anchor="middle" x="323.5" y="-172" font-family="Times,serif" font-size="20.00">Genomes</text>
</g>
<g id="clust2" class="cluster">
<title>cluster_dataset_description</title>
<polygon fill="white" stroke="white" points="445,-38 445,-160 667,-160 667,-38 445,-38"/>
<text text-anchor="middle" x="556" y="-140" font-family="Times,serif" font-size="20.00">Dataset description</text>
</g>
<g id="clust4" class="cluster">
<title>cluster_genomic_alignments</title>
<path fill="#ffe6cc" stroke="#ffe6cc" d="M20,-200C20,-200 413,-200 413,-200 419,-200 425,-206 425,-212 425,-212 425,-654 425,-654 425,-660 419,-666 413,-666 413,-666 20,-666 20,-666 14,-666 8,-660 8,-654 8,-654 8,-212 8,-212 8,-206 14,-200 20,-200"/>
<text text-anchor="middle" x="216.5" y="-646" font-family="Times,serif" font-size="20.00">Genomic alignments</text>
</g>
<!-- genomic_align -->
<g id="node1" class="node">
<title>genomic_align</title>
<path fill="#ff8500" stroke="black" d="M182,-526C182,-526 28,-526 28,-526 22,-526 16,-520 16,-514 16,-514 16,-294 16,-294 16,-288 22,-282 28,-282 28,-282 182,-282 182,-282 188,-282 194,-288 194,-294 194,-294 194,-514 194,-514 194,-520 188,-526 182,-526"/>
<text text-anchor="start" x="57.5" y="-505.2" font-family="Times,serif" font-size="16.00">genomic_align</text>
<polygon fill="white" stroke="none" points="26,-477 26,-496 184,-496 184,-477 26,-477"/>
<text text-anchor="start" x="42" y="-483.8" font-family="Times,serif" font-weight="bold" font-size="14.00">PK</text>
<text text-anchor="start" x="62" y="-483.8" font-family="Times,serif" font-size="14.00">  genomic_align_id</text>
<polygon fill="white" stroke="none" points="26,-456 26,-475 184,-475 184,-456 26,-456"/>
<text text-anchor="start" x="37" y="-461.8" font-family="Times,serif" font-size="14.00">genomic_align_block_id</text>
<polygon fill="white" stroke="none" points="26,-435 26,-454 184,-454 184,-435 26,-435"/>
<text text-anchor="start" x="28" y="-440.8" font-family="Times,serif" font-size="14.00">method_link_species_set_id</text>
<polygon fill="white" stroke="none" points="26,-414 26,-433 184,-433 184,-414 26,-414"/>
<text text-anchor="start" x="75.5" y="-419.8" font-family="Times,serif" font-size="14.00">dnafrag_id</text>
<polygon fill="white" stroke="none" points="26,-393 26,-412 184,-412 184,-393 26,-393"/>
<text text-anchor="start" x="68.5" y="-398.8" font-family="Times,serif" font-size="14.00">dnafrag_start</text>
<polygon fill="white" stroke="none" points="26,-372 26,-391 184,-391 184,-372 26,-372"/>
<text text-anchor="start" x="71" y="-377.8" font-family="Times,serif" font-size="14.00">dnafrag_end</text>
<polygon fill="white" stroke="none" points="26,-351 26,-370 184,-370 184,-351 26,-351"/>
<text text-anchor="start" x="64" y="-356.8" font-family="Times,serif" font-size="14.00">dnafrag_strand</text>
<polygon fill="white" stroke="none" points="26,-330 26,-349 184,-349 184,-330 26,-330"/>
<text text-anchor="start" x="77.5" y="-335.8" font-family="Times,serif" font-size="14.00">cigar_line</text>
<polygon fill="white" stroke="none" points="26,-309 26,-328 184,-328 184,-309 26,-309"/>
<text text-anchor="start" x="86.5" y="-314.8" font-family="Times,serif" font-size="14.00">visible</text>
<polygon fill="white" stroke="none" points="26,-288 26,-307 184,-307 184,-288 26,-288"/>
<text text-anchor="start" x="83" y="-293.8" font-family="Times,serif" font-size="14.00">node_id</text>
<polygon fill="black" stroke="black" points="24,-497 24,-497 186,-497 186,-497 24,-497"/>
</g>
<!-- genomic_align_block -->
<g id="node2" class="node">
<title>genomic_align_block</title>
<path fill="#ff8500" stroke="black" d="M405,-627.5C405,-627.5 242,-627.5 242,-627.5 236,-627.5 230,-621.5 230,-615.5 230,-615.5 230,-458.5 230,-458.5 230,-452.5 236,-446.5 242,-446.5 242,-446.5 405,-446.5 405,-446.5 411,-446.5 417,-452.5 417,-458.5 417,-458.5 417,-615.5 417,-615.5 417,-621.5 411,-627.5 405,-627.5"/>
<text text-anchor="start" x="254" y="-606.7" font-family="Times,serif" font-size="16.00">genomic_align_block</text>
<polygon fill="white" stroke="none" points="240,-578.5 240,-597.5 407,-597.5 407,-578.5 240,-578.5"/>
<text text-anchor="start" x="242" y="-585.3" font-family="Times,serif" font-weight="bold" font-size="14.00">PK</text>
<text text-anchor="start" x="262" y="-585.3" font-family="Times,serif" font-size="14.00">  genomic_align_block_id</text>
<polygon fill="white" stroke="none" points="240,-557.5 240,-576.5 407,-576.5 407,-557.5 240,-557.5"/>
<text text-anchor="start" x="246.5" y="-563.3" font-family="Times,serif" font-size="14.00">method_link_species_set_id</text>
<polygon fill="white" stroke="none" points="240,-536.5 240,-555.5 407,-555.5 407,-536.5 240,-536.5"/>
<text text-anchor="start" x="309" y="-542.3" font-family="Times,serif" font-size="14.00">score</text>
<polygon fill="white" stroke="none" points="240,-515.5 240,-534.5 407,-534.5 407,-515.5 240,-515.5"/>
<text text-anchor="start" x="303" y="-521.3" font-family="Times,serif" font-size="14.00">perc_id</text>
<polygon fill="white" stroke="none" points="240,-494.5 240,-513.5 407,-513.5 407,-494.5 240,-494.5"/>
<text text-anchor="start" x="306.5" y="-500.3" font-family="Times,serif" font-size="14.00">length</text>
<polygon fill="white" stroke="none" points="240,-473.5 240,-492.5 407,-492.5 407,-473.5 240,-473.5"/>
<text text-anchor="start" x="298.5" y="-479.3" font-family="Times,serif" font-size="14.00">group_id</text>
<polygon fill="white" stroke="none" points="240,-452.5 240,-471.5 407,-471.5 407,-452.5 240,-452.5"/>
<text text-anchor="start" x="301.5" y="-458.3" font-family="Times,serif" font-size="14.00">level_id</text>
<polygon fill="black" stroke="black" points="238,-598.5 238,-598.5 409,-598.5 409,-598.5 238,-598.5"/>
</g>
<!-- genomic_align&#45;&gt;genomic_align_block -->
<g id="edge3" class="edge">
<title>genomic_align:e&#45;&gt;genomic_align_block:w</title>
<path fill="none" stroke="black" stroke-dasharray="5,2" d="M185,-466C240.04,-466 187.81,-571.45 227.77,-586.28"/>
<polygon fill="black" stroke="black" points="227.07,-589.87 237.5,-588 228.18,-582.96 227.07,-589.87"/>
</g>
<!-- genomic_align_tree -->
<g id="node3" class="node">
<title>genomic_align_tree</title>
<path fill="#ff8500" stroke="black" d="M387,-410C387,-410 260,-410 260,-410 254,-410 248,-404 248,-398 248,-398 248,-220 248,-220 248,-214 254,-208 260,-208 260,-208 387,-208 387,-208 393,-208 399,-214 399,-220 399,-220 399,-398 399,-398 399,-404 393,-410 387,-410"/>
<text text-anchor="start" x="260" y="-389.2" font-family="Times,serif" font-size="16.00">genomic_align_tree</text>
<polygon fill="white" stroke="none" points="258,-361 258,-380 389,-380 389,-361 258,-361"/>
<text text-anchor="start" x="287.5" y="-367.8" font-family="Times,serif" font-weight="bold" font-size="14.00">PK</text>
<text text-anchor="start" x="307.5" y="-367.8" font-family="Times,serif" font-size="14.00">  node_id</text>
<polygon fill="white" stroke="none" points="258,-340 258,-359 389,-359 389,-340 258,-340"/>
<text text-anchor="start" x="297.5" y="-345.8" font-family="Times,serif" font-size="14.00">parent_id</text>
<polygon fill="white" stroke="none" points="258,-319 258,-338 389,-338 389,-319 258,-319"/>
<text text-anchor="start" x="303.5" y="-324.8" font-family="Times,serif" font-size="14.00">root_id</text>
<polygon fill="white" stroke="none" points="258,-298 258,-317 389,-317 389,-298 258,-298"/>
<text text-anchor="start" x="296" y="-303.8" font-family="Times,serif" font-size="14.00">left_index</text>
<polygon fill="white" stroke="none" points="258,-277 258,-296 389,-296 389,-277 258,-277"/>
<text text-anchor="start" x="291.5" y="-282.8" font-family="Times,serif" font-size="14.00">right_index</text>
<polygon fill="white" stroke="none" points="258,-256 258,-275 389,-275 389,-256 258,-256"/>
<text text-anchor="start" x="289" y="-261.8" font-family="Times,serif" font-size="14.00">left_node_id</text>
<polygon fill="white" stroke="none" points="258,-235 258,-254 389,-254 389,-235 258,-235"/>
<text text-anchor="start" x="285" y="-240.8" font-family="Times,serif" font-size="14.00">right_node_id</text>
<polygon fill="white" stroke="none" points="258,-214 258,-233 389,-233 389,-214 258,-214"/>
<text text-anchor="start" x="272" y="-219.8" font-family="Times,serif" font-size="14.00">distance_to_parent</text>
<polygon fill="black" stroke="black" points="256,-381 256,-381 391,-381 391,-381 256,-381"/>
</g>
<!-- genomic_align&#45;&gt;genomic_align_tree -->
<g id="edge4" class="edge">
<title>genomic_align:e&#45;&gt;genomic_align_tree:w</title>
<path fill="none" stroke="black" stroke-dasharray="5,2" d="M185,-297C226.62,-297 213.82,-358.3 245.67,-369.32"/>
<polygon fill="black" stroke="black" points="245.08,-372.92 255.5,-371 246.16,-366 245.08,-372.92"/>
</g>
<!-- dnafrag -->
<g id="node5" class="node">
<title>dnafrag</title>
<path fill="#808000" stroke="black" d="M367,-154C367,-154 280,-154 280,-154 274,-154 268,-148 268,-142 268,-142 268,-90 268,-90 268,-84 274,-78 280,-78 280,-78 367,-78 367,-78 373,-78 379,-84 379,-90 379,-90 379,-142 379,-142 379,-148 373,-154 367,-154"/>
<text text-anchor="start" x="299" y="-133.2" font-family="Times,serif" font-size="16.00">dnafrag</text>
<polygon fill="white" stroke="none" points="278,-105 278,-124 369,-124 369,-105 278,-105"/>
<text text-anchor="start" x="280" y="-111.8" font-family="Times,serif" font-weight="bold" font-size="14.00">PK</text>
<text text-anchor="start" x="300" y="-111.8" font-family="Times,serif" font-size="14.00">  dnafrag_id</text>
<polygon fill="white" stroke="none" points="278,-84 278,-103 369,-103 369,-84 278,-84"/>
<text text-anchor="start" x="317.5" y="-90.8" font-family="Times,serif" font-style="italic" font-size="14.00">...</text>
<polygon fill="black" stroke="black" points="276,-125 276,-125 371,-125 371,-125 276,-125"/>
</g>
<!-- genomic_align&#45;&gt;dnafrag -->
<g id="edge2" class="edge">
<title>genomic_align:e&#45;&gt;dnafrag:w</title>
<path fill="none" stroke="black" stroke-dasharray="5,2" d="M185,-424C236.64,-424 212.03,-244.42 230,-196 243.15,-160.56 236.32,-122.31 265.64,-115.18"/>
<polygon fill="black" stroke="black" points="265.94,-118.56 275.5,-114 265.18,-111.6 265.94,-118.56"/>
</g>
<!-- method_link_species_set -->
<g id="node6" class="node">
<title>method_link_species_set</title>
<path fill="#3cb371" stroke="black" d="M647,-122C647,-122 465,-122 465,-122 459,-122 453,-116 453,-110 453,-110 453,-58 453,-58 453,-52 459,-46 465,-46 465,-46 647,-46 647,-46 653,-46 659,-52 659,-58 659,-58 659,-110 659,-110 659,-116 653,-122 647,-122"/>
<text text-anchor="start" x="475" y="-101.2" font-family="Times,serif" font-size="16.00">method_link_species_set</text>
<polygon fill="white" stroke="none" points="463,-73 463,-92 649,-92 649,-73 463,-73"/>
<text text-anchor="start" x="465" y="-79.8" font-family="Times,serif" font-weight="bold" font-size="14.00">PK</text>
<text text-anchor="start" x="485" y="-79.8" font-family="Times,serif" font-size="14.00">  method_link_species_set_id</text>
<polygon fill="white" stroke="none" points="463,-52 463,-71 649,-71 649,-52 463,-52"/>
<text text-anchor="start" x="550" y="-58.8" font-family="Times,serif" font-style="italic" font-size="14.00">...</text>
<polygon fill="black" stroke="black" points="461,-93 461,-93 651,-93 651,-93 461,-93"/>
</g>
<!-- genomic_align&#45;&gt;method_link_species_set -->
<g id="edge5" class="edge">
<title>genomic_align:e&#45;&gt;method_link_species_set:w</title>
<path fill="none" stroke="black" stroke-dasharray="5,2" d="M185,-445C269.81,-445 166.59,-122.33 230,-66 294.79,-8.44 340.13,-48.44 425,-66 438.3,-68.75 442.4,-76.52 451.4,-80.12"/>
<polygon fill="black" stroke="black" points="450.54,-83.7 461,-82 451.76,-76.81 450.54,-83.7"/>
</g>
<!-- genomic_align_block&#45;&gt;method_link_species_set -->
<g id="edge6" class="edge">
<title>genomic_align_block:e&#45;&gt;method_link_species_set:w</title>
<path fill="none" stroke="black" stroke-dasharray="5,2" d="M408.5,-567C459.22,-567 414.41,-142.5 452.82,-87.78"/>
<polygon fill="black" stroke="black" points="454.4,-90.29 461,-82 450.67,-84.37 454.4,-90.29"/>
</g>
<!-- genomic_align_tree&#45;&gt;genomic_align_tree -->
<g id="edge7" class="edge">
<title>genomic_align_tree:e&#45;&gt;genomic_align_tree:w</title>
<path fill="none" stroke="black" stroke-dasharray="5,2" d="M389.5,-350C444.12,-389.67 444.12,-428 323.5,-428 209.71,-428 203.26,-412.57 248.76,-377.53"/>
<polygon fill="black" stroke="black" points="250.58,-379.79 256.5,-371 246.39,-374.18 250.58,-379.79"/>
</g>
<!-- conservation_score -->
<g id="node4" class="node">
<title>conservation_score</title>
<path fill="#c70c09" stroke="black" d="M173,-758C173,-758 37,-758 37,-758 31,-758 25,-752 25,-746 25,-746 25,-694 25,-694 25,-688 31,-682 37,-682 37,-682 173,-682 173,-682 179,-682 185,-688 185,-694 185,-694 185,-746 185,-746 185,-752 179,-758 173,-758"/>
<text text-anchor="start" x="43" y="-737.2" font-family="Times,serif" font-size="16.00">conservation_score</text>
<polygon fill="white" stroke="none" points="35,-709 35,-728 175,-728 175,-709 35,-709"/>
<text text-anchor="start" x="37" y="-714.8" font-family="Times,serif" font-size="14.00">genomic_align_block_id</text>
<polygon fill="white" stroke="none" points="35,-688 35,-707 175,-707 175,-688 35,-688"/>
<text text-anchor="start" x="99" y="-694.8" font-family="Times,serif" font-style="italic" font-size="14.00">...</text>
<polygon fill="black" stroke="black" points="33,-729 33,-729 177,-729 177,-729 33,-729"/>
</g>
<!-- conservation_score&#45;&gt;genomic_align_block -->
<g id="edge1" class="edge">
<title>conservation_score:e&#45;&gt;genomic_align_block:w</title>
<path fill="none" stroke="black" stroke-dasharray="5,2" d="M176,-718C235.98,-718 182.32,-604.22 227.65,-589.55"/>
<polygon fill="black" stroke="black" points="228.1,-592.88 237.5,-588 227.11,-585.95 228.1,-592.88"/>
</g>
</g>
</svg>
