<?xml version="1.0" encoding="UTF-8" standalone="no"?>
<!DOCTYPE svg PUBLIC "-//W3C//DTD SVG 1.1//EN"
 "http://www.w3.org/Graphics/SVG/1.1/DTD/svg11.dtd">
<!-- Generated by graphviz version 8.0.1 (0)
 -->
<!-- Title: test Pages: 1 -->
<svg width="539pt" height="1145pt"
 viewBox="0.00 0.00 539.00 1145.00" xmlns="http://www.w3.org/2000/svg" xmlns:xlink="http://www.w3.org/1999/xlink">
<g id="graph0" class="graph" transform="scale(1 1) rotate(0) translate(4 1141)">
<title>test</title>
<polygon fill="white" stroke="none" points="-4,4 -4,-1141 535,-1141 535,4 -4,4"/>
<text text-anchor="middle" x="265.5" y="-10" font-family="Times,serif" font-size="20.00">Compara schema diagram: Extra annotations on members tables</text>
<g id="clust2" class="cluster">
<title>cluster_genomes</title>
<polygon fill="white" stroke="white" points="324.5,-38 324.5,-348 487.5,-348 487.5,-38 324.5,-38"/>
<text text-anchor="middle" x="406" y="-328" font-family="Times,serif" font-size="20.00">Genomes</text>
</g>
<g id="clust1" class="cluster">
<title>cluster_extra_annotations_on_members</title>
<path fill="#fff4e0" stroke="#fff4e0" d="M55.5,-356C55.5,-356 470.5,-356 470.5,-356 476.5,-356 482.5,-362 482.5,-368 482.5,-368 482.5,-1117 482.5,-1117 482.5,-1123 476.5,-1129 470.5,-1129 470.5,-1129 55.5,-1129 55.5,-1129 49.5,-1129 43.5,-1123 43.5,-1117 43.5,-1117 43.5,-368 43.5,-368 43.5,-362 49.5,-356 55.5,-356"/>
<text text-anchor="middle" x="263" y="-1109" font-family="Times,serif" font-size="20.00">Extra annotations on members</text>
</g>
<!-- external_db -->
<g id="node1" class="node">
<title>external_db</title>
<path fill="#ffcc66" stroke="black" d="M462.5,-1048C462.5,-1048 349.5,-1048 349.5,-1048 343.5,-1048 337.5,-1042 337.5,-1036 337.5,-1036 337.5,-816 337.5,-816 337.5,-810 343.5,-804 349.5,-804 349.5,-804 462.5,-804 462.5,-804 468.5,-804 474.5,-810 474.5,-816 474.5,-816 474.5,-1036 474.5,-1036 474.5,-1042 468.5,-1048 462.5,-1048"/>
<text text-anchor="start" x="367.5" y="-1027.2" font-family="Times,serif" font-size="16.00">external_db</text>
<polygon fill="white" stroke="none" points="347.5,-999 347.5,-1018 464.5,-1018 464.5,-999 347.5,-999"/>
<text text-anchor="start" x="351" y="-1005.8" font-family="Times,serif" font-weight="bold" font-size="14.00">PK</text>
<text text-anchor="start" x="371" y="-1005.8" font-family="Times,serif" font-size="14.00">  external_db_id</text>
<polygon fill="white" stroke="none" points="347.5,-978 347.5,-997 464.5,-997 464.5,-978 347.5,-978"/>
<text text-anchor="start" x="380.5" y="-983.8" font-family="Times,serif" font-size="14.00">db_name</text>
<polygon fill="white" stroke="none" points="347.5,-957 347.5,-976 464.5,-976 464.5,-957 347.5,-957"/>
<text text-anchor="start" x="377" y="-962.8" font-family="Times,serif" font-size="14.00">db_release</text>
<polygon fill="white" stroke="none" points="347.5,-936 347.5,-955 464.5,-955 464.5,-936 347.5,-936"/>
<text text-anchor="start" x="390.5" y="-941.8" font-family="Times,serif" font-size="14.00">status</text>
<polygon fill="white" stroke="none" points="347.5,-915 347.5,-934 464.5,-934 464.5,-915 347.5,-915"/>
<text text-anchor="start" x="384.5" y="-920.8" font-family="Times,serif" font-size="14.00">priority</text>
<polygon fill="white" stroke="none" points="347.5,-894 347.5,-913 464.5,-913 464.5,-894 347.5,-894"/>
<text text-anchor="start" x="357.5" y="-899.8" font-family="Times,serif" font-size="14.00">db_display_name</text>
<polygon fill="white" stroke="none" points="347.5,-873 347.5,-892 464.5,-892 464.5,-873 347.5,-873"/>
<text text-anchor="start" x="394" y="-878.8" font-family="Times,serif" font-size="14.00">type</text>
<polygon fill="white" stroke="none" points="347.5,-852 347.5,-871 464.5,-871 464.5,-852 347.5,-852"/>
<text text-anchor="start" x="349.5" y="-857.8" font-family="Times,serif" font-size="14.00">secondary_db_name</text>
<polygon fill="white" stroke="none" points="347.5,-831 347.5,-850 464.5,-850 464.5,-831 347.5,-831"/>
<text text-anchor="start" x="351.5" y="-836.8" font-family="Times,serif" font-size="14.00">secondary_db_table</text>
<polygon fill="white" stroke="none" points="347.5,-810 347.5,-829 464.5,-829 464.5,-810 347.5,-810"/>
<text text-anchor="start" x="375.5" y="-815.8" font-family="Times,serif" font-size="14.00">description</text>
<polygon fill="black" stroke="black" points="345.5,-1019 345.5,-1019 466.5,-1019 466.5,-1019 345.5,-1019"/>
</g>
<!-- gene_member_hom_stats -->
<g id="node2" class="node">
<title>gene_member_hom_stats</title>
<path fill="#ffcc66" stroke="black" d="M256,-975C256,-975 92,-975 92,-975 86,-975 80,-969 80,-963 80,-963 80,-785 80,-785 80,-779 86,-773 92,-773 92,-773 256,-773 256,-773 262,-773 268,-779 268,-785 268,-785 268,-963 268,-963 268,-969 262,-975 256,-975"/>
<text text-anchor="start" x="92" y="-954.2" font-family="Times,serif" font-size="16.00">gene_member_hom_stats</text>
<polygon fill="white" stroke="none" points="90,-926 90,-945 258,-945 258,-926 90,-926"/>
<text text-anchor="start" x="112.5" y="-932.8" font-family="Times,serif" font-weight="bold" font-size="14.00">PK</text>
<text text-anchor="start" x="132.5" y="-932.8" font-family="Times,serif" font-size="14.00">  gene_member_id</text>
<polygon fill="white" stroke="none" points="90,-905 90,-924 258,-924 258,-905 90,-905"/>
<text text-anchor="start" x="133.5" y="-911.8" font-family="Times,serif" font-weight="bold" font-size="14.00">PK</text>
<text text-anchor="start" x="153.5" y="-911.8" font-family="Times,serif" font-size="14.00">  collection</text>
<polygon fill="white" stroke="none" points="90,-884 90,-903 258,-903 258,-884 90,-884"/>
<text text-anchor="start" x="151.5" y="-889.8" font-family="Times,serif" font-size="14.00">families</text>
<polygon fill="white" stroke="none" points="90,-863 90,-882 258,-882 258,-863 90,-863"/>
<text text-anchor="start" x="145" y="-868.8" font-family="Times,serif" font-size="14.00">gene_trees</text>
<polygon fill="white" stroke="none" points="90,-842 90,-861 258,-861 258,-842 90,-842"/>
<text text-anchor="start" x="116" y="-847.8" font-family="Times,serif" font-size="14.00">gene_gain_loss_trees</text>
<polygon fill="white" stroke="none" points="90,-821 90,-840 258,-840 258,-821 90,-821"/>
<text text-anchor="start" x="141.5" y="-826.8" font-family="Times,serif" font-size="14.00">orthologues</text>
<polygon fill="white" stroke="none" points="90,-800 90,-819 258,-819 258,-800 90,-800"/>
<text text-anchor="start" x="144.5" y="-805.8" font-family="Times,serif" font-size="14.00">paralogues</text>
<polygon fill="white" stroke="none" points="90,-779 90,-798 258,-798 258,-779 90,-779"/>
<text text-anchor="start" x="134" y="-784.8" font-family="Times,serif" font-size="14.00">homoeologues</text>
<polygon fill="black" stroke="black" points="88,-946 88,-946 260,-946 260,-946 88,-946"/>
</g>
<!-- gene_member -->
<g id="node7" class="node">
<title>gene_member</title>
<path fill="#808000" stroke="black" d="M467.5,-310C467.5,-310 344.5,-310 344.5,-310 338.5,-310 332.5,-304 332.5,-298 332.5,-298 332.5,-246 332.5,-246 332.5,-240 338.5,-234 344.5,-234 344.5,-234 467.5,-234 467.5,-234 473.5,-234 479.5,-240 479.5,-246 479.5,-246 479.5,-298 479.5,-298 479.5,-304 473.5,-310 467.5,-310"/>
<text text-anchor="start" x="360.5" y="-289.2" font-family="Times,serif" font-size="16.00">gene_member</text>
<polygon fill="white" stroke="none" points="342.5,-261 342.5,-280 469.5,-280 469.5,-261 342.5,-261"/>
<text text-anchor="start" x="344.5" y="-267.8" font-family="Times,serif" font-weight="bold" font-size="14.00">PK</text>
<text text-anchor="start" x="364.5" y="-267.8" font-family="Times,serif" font-size="14.00">  gene_member_id</text>
<polygon fill="white" stroke="none" points="342.5,-240 342.5,-259 469.5,-259 469.5,-240 342.5,-240"/>
<text text-anchor="start" x="400" y="-246.8" font-family="Times,serif" font-style="italic" font-size="14.00">...</text>
<polygon fill="black" stroke="black" points="340.5,-281 340.5,-281 471.5,-281 471.5,-281 340.5,-281"/>
</g>
<!-- gene_member_hom_stats&#45;&gt;gene_member -->
<g id="edge1" class="edge">
<title>gene_member_hom_stats:e&#45;&gt;gene_member:w</title>
<path fill="none" stroke="black" stroke-dasharray="5,2" d="M259,-936C329.92,-936 272.66,-333.45 331.06,-274.61"/>
<polygon fill="black" stroke="black" points="332.4,-277.38 340,-270 329.46,-271.03 332.4,-277.38"/>
</g>
<!-- gene_member_qc -->
<g id="node3" class="node">
<title>gene_member_qc</title>
<path fill="#ffcc66" stroke="black" d="M230.5,-754.5C230.5,-754.5 117.5,-754.5 117.5,-754.5 111.5,-754.5 105.5,-748.5 105.5,-742.5 105.5,-742.5 105.5,-585.5 105.5,-585.5 105.5,-579.5 111.5,-573.5 117.5,-573.5 117.5,-573.5 230.5,-573.5 230.5,-573.5 236.5,-573.5 242.5,-579.5 242.5,-585.5 242.5,-585.5 242.5,-742.5 242.5,-742.5 242.5,-748.5 236.5,-754.5 230.5,-754.5"/>
<text text-anchor="start" x="117.5" y="-733.7" font-family="Times,serif" font-size="16.00">gene_member_qc</text>
<polygon fill="white" stroke="none" points="115.5,-705.5 115.5,-724.5 232.5,-724.5 232.5,-705.5 115.5,-705.5"/>
<text text-anchor="start" x="126" y="-711.3" font-family="Times,serif" font-size="14.00">gene_member_id</text>
<polygon fill="white" stroke="none" points="115.5,-684.5 115.5,-703.5 232.5,-703.5 232.5,-684.5 115.5,-684.5"/>
<text text-anchor="start" x="133" y="-690.3" font-family="Times,serif" font-size="14.00">genome_db_id</text>
<polygon fill="white" stroke="none" points="115.5,-663.5 115.5,-682.5 232.5,-682.5 232.5,-663.5 115.5,-663.5"/>
<text text-anchor="start" x="130" y="-669.3" font-family="Times,serif" font-size="14.00">seq_member_id</text>
<polygon fill="white" stroke="none" points="115.5,-642.5 115.5,-661.5 232.5,-661.5 232.5,-642.5 115.5,-642.5"/>
<text text-anchor="start" x="147.5" y="-648.3" font-family="Times,serif" font-size="14.00">n_species</text>
<polygon fill="white" stroke="none" points="115.5,-621.5 115.5,-640.5 232.5,-640.5 232.5,-621.5 115.5,-621.5"/>
<text text-anchor="start" x="155.5" y="-627.3" font-family="Times,serif" font-size="14.00">n_orth</text>
<polygon fill="white" stroke="none" points="115.5,-600.5 115.5,-619.5 232.5,-619.5 232.5,-600.5 115.5,-600.5"/>
<text text-anchor="start" x="151" y="-606.3" font-family="Times,serif" font-size="14.00">avg_cov</text>
<polygon fill="white" stroke="none" points="115.5,-579.5 115.5,-598.5 232.5,-598.5 232.5,-579.5 115.5,-579.5"/>
<text text-anchor="start" x="158.5" y="-585.3" font-family="Times,serif" font-size="14.00">status</text>
<polygon fill="black" stroke="black" points="113.5,-725.5 113.5,-725.5 234.5,-725.5 234.5,-725.5 113.5,-725.5"/>
</g>
<!-- gene_member_qc&#45;&gt;gene_member -->
<g id="edge2" class="edge">
<title>gene_member_qc:e&#45;&gt;gene_member:w</title>
<path fill="none" stroke="black" stroke-dasharray="5,2" d="M234,-715C315.52,-715 320.29,-377.32 324.5,-352 329.88,-319.63 309.65,-280.5 330.41,-271.78"/>
<polygon fill="black" stroke="black" points="330.72,-275.11 340,-270 329.56,-268.21 330.72,-275.11"/>
</g>
<!-- genome_db -->
<g id="node8" class="node">
<title>genome_db</title>
<path fill="#808000" stroke="black" d="M460.5,-216C460.5,-216 351.5,-216 351.5,-216 345.5,-216 339.5,-210 339.5,-204 339.5,-204 339.5,-152 339.5,-152 339.5,-146 345.5,-140 351.5,-140 351.5,-140 460.5,-140 460.5,-140 466.5,-140 472.5,-146 472.5,-152 472.5,-152 472.5,-204 472.5,-204 472.5,-210 466.5,-216 460.5,-216"/>
<text text-anchor="start" x="368" y="-195.2" font-family="Times,serif" font-size="16.00">genome_db</text>
<polygon fill="white" stroke="none" points="349.5,-167 349.5,-186 462.5,-186 462.5,-167 349.5,-167"/>
<text text-anchor="start" x="351.5" y="-173.8" font-family="Times,serif" font-weight="bold" font-size="14.00">PK</text>
<text text-anchor="start" x="371.5" y="-173.8" font-family="Times,serif" font-size="14.00">  genome_db_id</text>
<polygon fill="white" stroke="none" points="349.5,-146 349.5,-165 462.5,-165 462.5,-146 349.5,-146"/>
<text text-anchor="start" x="400" y="-152.8" font-family="Times,serif" font-style="italic" font-size="14.00">...</text>
<polygon fill="black" stroke="black" points="347.5,-187 347.5,-187 464.5,-187 464.5,-187 347.5,-187"/>
</g>
<!-- gene_member_qc&#45;&gt;genome_db -->
<g id="edge3" class="edge">
<title>gene_member_qc:e&#45;&gt;genome_db:w</title>
<path fill="none" stroke="black" stroke-dasharray="5,2" d="M234,-694C297.71,-694 279.71,-626.46 296.5,-565 318.49,-484.5 265.69,-201.79 337.55,-177.65"/>
<polygon fill="black" stroke="black" points="337.67,-181.01 347,-176 336.58,-174.1 337.67,-181.01"/>
</g>
<!-- seq_member -->
<g id="node9" class="node">
<title>seq_member</title>
<path fill="#808000" stroke="black" d="M464,-122C464,-122 348,-122 348,-122 342,-122 336,-116 336,-110 336,-110 336,-58 336,-58 336,-52 342,-46 348,-46 348,-46 464,-46 464,-46 470,-46 476,-52 476,-58 476,-58 476,-110 476,-110 476,-116 470,-122 464,-122"/>
<text text-anchor="start" x="365" y="-101.2" font-family="Times,serif" font-size="16.00">seq_member</text>
<polygon fill="white" stroke="none" points="346,-73 346,-92 466,-92 466,-73 346,-73"/>
<text text-anchor="start" x="348" y="-79.8" font-family="Times,serif" font-weight="bold" font-size="14.00">PK</text>
<text text-anchor="start" x="368" y="-79.8" font-family="Times,serif" font-size="14.00">  seq_member_id</text>
<polygon fill="white" stroke="none" points="346,-52 346,-71 466,-71 466,-52 346,-52"/>
<text text-anchor="start" x="400" y="-58.8" font-family="Times,serif" font-style="italic" font-size="14.00">...</text>
<polygon fill="black" stroke="black" points="344,-93 344,-93 468,-93 468,-93 344,-93"/>
</g>
<!-- gene_member_qc&#45;&gt;seq_member -->
<g id="edge4" class="edge">
<title>gene_member_qc:e&#45;&gt;seq_member:w</title>
<path fill="none" stroke="black" stroke-dasharray="5,2" d="M234,-673C289.46,-673 280.4,-618.07 296.5,-565 311.15,-516.71 293.63,-136.03 335.48,-87.16"/>
<polygon fill="black" stroke="black" points="336.87,-89.84 344,-82 333.54,-83.69 336.87,-89.84"/>
</g>
<!-- member_xref -->
<g id="node4" class="node">
<title>member_xref</title>
<path fill="#ffcc66" stroke="black" d="M235.5,-1090.5C235.5,-1090.5 112.5,-1090.5 112.5,-1090.5 106.5,-1090.5 100.5,-1084.5 100.5,-1078.5 100.5,-1078.5 100.5,-1005.5 100.5,-1005.5 100.5,-999.5 106.5,-993.5 112.5,-993.5 112.5,-993.5 235.5,-993.5 235.5,-993.5 241.5,-993.5 247.5,-999.5 247.5,-1005.5 247.5,-1005.5 247.5,-1078.5 247.5,-1078.5 247.5,-1084.5 241.5,-1090.5 235.5,-1090.5"/>
<text text-anchor="start" x="130.5" y="-1069.7" font-family="Times,serif" font-size="16.00">member_xref</text>
<polygon fill="white" stroke="none" points="110.5,-1041.5 110.5,-1060.5 237.5,-1060.5 237.5,-1041.5 110.5,-1041.5"/>
<text text-anchor="start" x="112.5" y="-1048.3" font-family="Times,serif" font-weight="bold" font-size="14.00">PK</text>
<text text-anchor="start" x="132.5" y="-1048.3" font-family="Times,serif" font-size="14.00">  gene_member_id</text>
<polygon fill="white" stroke="none" points="110.5,-1020.5 110.5,-1039.5 237.5,-1039.5 237.5,-1020.5 110.5,-1020.5"/>
<text text-anchor="start" x="118.5" y="-1027.3" font-family="Times,serif" font-weight="bold" font-size="14.00">PK</text>
<text text-anchor="start" x="138.5" y="-1027.3" font-family="Times,serif" font-size="14.00">  dbprimary_acc</text>
<polygon fill="white" stroke="none" points="110.5,-999.5 110.5,-1018.5 237.5,-1018.5 237.5,-999.5 110.5,-999.5"/>
<text text-anchor="start" x="119" y="-1006.3" font-family="Times,serif" font-weight="bold" font-size="14.00">PK</text>
<text text-anchor="start" x="139" y="-1006.3" font-family="Times,serif" font-size="14.00">  external_db_id</text>
<polygon fill="black" stroke="black" points="108.5,-1061.5 108.5,-1061.5 239.5,-1061.5 239.5,-1061.5 108.5,-1061.5"/>
</g>
<!-- member_xref&#45;&gt;external_db -->
<g id="edge5" class="edge">
<title>member_xref:e&#45;&gt;external_db:w</title>
<path fill="none" stroke="black" stroke-dasharray="5,2" d="M239,-1009C282.84,-1009 296.37,-1009 335.47,-1009"/>
<polygon fill="black" stroke="black" points="335,-1012.5 345,-1009 335,-1005.5 335,-1012.5"/>
</g>
<!-- member_xref&#45;&gt;gene_member -->
<g id="edge6" class="edge">
<title>member_xref:e&#45;&gt;gene_member:w</title>
<path fill="none" stroke="black" stroke-dasharray="5,2" d="M239,-1051C278.24,-1051 282.06,-1020.49 296.5,-984 348.22,-853.28 307.47,-491.55 324.5,-352 328.48,-319.42 309.32,-280.46 330.35,-271.77"/>
<polygon fill="black" stroke="black" points="330.71,-275.09 340,-270 329.56,-268.19 330.71,-275.09"/>
</g>
<!-- seq_member_projection -->
<g id="node5" class="node">
<title>seq_member_projection</title>
<path fill="#ffcc66" stroke="black" d="M251.5,-555.5C251.5,-555.5 96.5,-555.5 96.5,-555.5 90.5,-555.5 84.5,-549.5 84.5,-543.5 84.5,-543.5 84.5,-470.5 84.5,-470.5 84.5,-464.5 90.5,-458.5 96.5,-458.5 96.5,-458.5 251.5,-458.5 251.5,-458.5 257.5,-458.5 263.5,-464.5 263.5,-470.5 263.5,-470.5 263.5,-543.5 263.5,-543.5 263.5,-549.5 257.5,-555.5 251.5,-555.5"/>
<text text-anchor="start" x="96.5" y="-534.7" font-family="Times,serif" font-size="16.00">seq_member_projection</text>
<polygon fill="white" stroke="none" points="94.5,-506.5 94.5,-525.5 253.5,-525.5 253.5,-506.5 94.5,-506.5"/>
<text text-anchor="start" x="109" y="-512.3" font-family="Times,serif" font-size="14.00">source_seq_member_id</text>
<polygon fill="white" stroke="none" points="94.5,-485.5 94.5,-504.5 253.5,-504.5 253.5,-485.5 94.5,-485.5"/>
<text text-anchor="start" x="97.5" y="-492.3" font-family="Times,serif" font-weight="bold" font-size="14.00">PK</text>
<text text-anchor="start" x="117.5" y="-492.3" font-family="Times,serif" font-size="14.00">  target_seq_member_id</text>
<polygon fill="white" stroke="none" points="94.5,-464.5 94.5,-483.5 253.5,-483.5 253.5,-464.5 94.5,-464.5"/>
<text text-anchor="start" x="153" y="-470.3" font-family="Times,serif" font-size="14.00">identity</text>
<polygon fill="black" stroke="black" points="92.5,-526.5 92.5,-526.5 255.5,-526.5 255.5,-526.5 92.5,-526.5"/>
</g>
<!-- seq_member_projection&#45;&gt;seq_member -->
<g id="edge7" class="edge">
<title>seq_member_projection:e&#45;&gt;seq_member:w</title>
<path fill="none" stroke="black" stroke-dasharray="5,2" d="M255,-516C349.65,-516 254.55,-115.24 334.37,-83.93"/>
<polygon fill="black" stroke="black" points="334.79,-87.23 344,-82 333.53,-80.35 334.79,-87.23"/>
</g>
<!-- seq_member_projection_stable_id -->
<g id="node6" class="node">
<title>seq_member_projection_stable_id</title>
<path fill="#ffcc66" stroke="black" d="M284.5,-440C284.5,-440 63.5,-440 63.5,-440 57.5,-440 51.5,-434 51.5,-428 51.5,-428 51.5,-376 51.5,-376 51.5,-370 57.5,-364 63.5,-364 63.5,-364 284.5,-364 284.5,-364 290.5,-364 296.5,-370 296.5,-376 296.5,-376 296.5,-428 296.5,-428 296.5,-434 290.5,-440 284.5,-440"/>
<text text-anchor="start" x="63.5" y="-419.2" font-family="Times,serif" font-size="16.00">seq_member_projection_stable_id</text>
<polygon fill="white" stroke="none" points="61.5,-391 61.5,-410 286.5,-410 286.5,-391 61.5,-391"/>
<text text-anchor="start" x="97.5" y="-397.8" font-family="Times,serif" font-weight="bold" font-size="14.00">PK</text>
<text text-anchor="start" x="117.5" y="-397.8" font-family="Times,serif" font-size="14.00">  target_seq_member_id</text>
<polygon fill="white" stroke="none" points="61.5,-370 61.5,-389 286.5,-389 286.5,-370 61.5,-370"/>
<text text-anchor="start" x="128.5" y="-375.8" font-family="Times,serif" font-size="14.00">source_stable_id</text>
<polygon fill="black" stroke="black" points="59.5,-411 59.5,-411 288.5,-411 288.5,-411 59.5,-411"/>
</g>
<!-- seq_member_projection_stable_id&#45;&gt;seq_member -->
<g id="edge8" class="edge">
<title>seq_member_projection_stable_id:e&#45;&gt;seq_member:w</title>
<path fill="none" stroke="black" stroke-dasharray="5,2" d="M288,-400C355.87,-400 282.2,-115.83 334.59,-84.75"/>
<polygon fill="black" stroke="black" points="335.23,-87.94 344,-82 333.44,-81.17 335.23,-87.94"/>
</g>
</g>
</svg>
