<?xml version="1.0" encoding="UTF-8" standalone="no"?>
<!DOCTYPE svg PUBLIC "-//W3C//DTD SVG 1.1//EN"
 "http://www.w3.org/Graphics/SVG/1.1/DTD/svg11.dtd">
<!-- Generated by graphviz version 8.0.1 (0)
 -->
<!-- Title: test Pages: 1 -->
<svg width="687pt" height="1737pt"
 viewBox="0.00 0.00 687.00 1737.00" xmlns="http://www.w3.org/2000/svg" xmlns:xlink="http://www.w3.org/1999/xlink">
<g id="graph0" class="graph" transform="scale(1 1) rotate(0) translate(4 1733)">
<title>test</title>
<polygon fill="white" stroke="none" points="-4,4 -4,-1733 683,-1733 683,4 -4,4"/>
<text text-anchor="middle" x="339.5" y="-10" font-family="Times,serif" font-size="20.00">Compara schema diagram: Dataset description tables</text>
<g id="clust1" class="cluster">
<title>cluster_conservation</title>
<polygon fill="white" stroke="white" points="26.5,-1006 26.5,-1150 220.5,-1150 220.5,-1006 26.5,-1006"/>
<text text-anchor="middle" x="123.5" y="-1130" font-family="Times,serif" font-size="20.00">Conservation</text>
</g>
<g id="clust2" class="cluster">
<title>cluster_dataset_description</title>
<path fill="#d8efe2" stroke="#d8efe2" d="M20,-1158C20,-1158 659,-1158 659,-1158 665,-1158 671,-1164 671,-1170 671,-1170 671,-1709 671,-1709 671,-1715 665,-1721 659,-1721 659,-1721 20,-1721 20,-1721 14,-1721 8,-1715 8,-1709 8,-1709 8,-1170 8,-1170 8,-1164 14,-1158 20,-1158"/>
<text text-anchor="middle" x="339.5" y="-1701" font-family="Times,serif" font-size="20.00">Dataset description</text>
</g>
<g id="clust3" class="cluster">
<title>cluster_gene_trees_and_homologies</title>
<polygon fill="white" stroke="white" points="7.5,-587 7.5,-846 240.5,-846 240.5,-587 7.5,-587"/>
<text text-anchor="middle" x="124" y="-826" font-family="Times,serif" font-size="20.00">Gene trees and homologies</text>
</g>
<g id="clust4" class="cluster">
<title>cluster_genomes</title>
<polygon fill="white" stroke="white" points="516,-1028 516,-1150 665,-1150 665,-1028 516,-1028"/>
<text text-anchor="middle" x="590.5" y="-1130" font-family="Times,serif" font-size="20.00">Genomes</text>
</g>
<g id="clust5" class="cluster">
<title>cluster_genomic_alignments</title>
<polygon fill="white" stroke="white" points="26.5,-320 26.5,-579 220.5,-579 220.5,-320 26.5,-320"/>
<text text-anchor="middle" x="123.5" y="-559" font-family="Times,serif" font-size="20.00">Genomic alignments</text>
</g>
<g id="clust6" class="cluster">
<title>cluster_protein_families</title>
<polygon fill="white" stroke="white" points="26.5,-854 26.5,-998 220.5,-998 220.5,-854 26.5,-854"/>
<text text-anchor="middle" x="123.5" y="-978" font-family="Times,serif" font-size="20.00">Protein families</text>
</g>
<g id="clust7" class="cluster">
<title>cluster_synteny</title>
<polygon fill="white" stroke="white" points="26.5,-38 26.5,-160 220.5,-160 220.5,-38 26.5,-38"/>
<text text-anchor="middle" x="123.5" y="-140" font-family="Times,serif" font-size="20.00">Synteny</text>
</g>
<g id="clust8" class="cluster">
<title>cluster_taxonomy_and_species_tree</title>
<polygon fill="white" stroke="white" points="7.5,-168 7.5,-312 240.5,-312 240.5,-168 7.5,-168"/>
<text text-anchor="middle" x="124" y="-292" font-family="Times,serif" font-size="20.00">Taxonomy and species&#45;tree</text>
</g>
<!-- meta -->
<g id="node1" class="node">
<title>meta</title>
<path fill="#3cb371" stroke="black" d="M159.5,-1683C159.5,-1683 87.5,-1683 87.5,-1683 81.5,-1683 75.5,-1677 75.5,-1671 75.5,-1671 75.5,-1577 75.5,-1577 75.5,-1571 81.5,-1565 87.5,-1565 87.5,-1565 159.5,-1565 159.5,-1565 165.5,-1565 171.5,-1571 171.5,-1577 171.5,-1577 171.5,-1671 171.5,-1671 171.5,-1677 165.5,-1683 159.5,-1683"/>
<text text-anchor="start" x="108" y="-1662.2" font-family="Times,serif" font-size="16.00">meta</text>
<polygon fill="white" stroke="none" points="85.5,-1634 85.5,-1653 161.5,-1653 161.5,-1634 85.5,-1634"/>
<text text-anchor="start" x="87.5" y="-1640.8" font-family="Times,serif" font-weight="bold" font-size="14.00">PK</text>
<text text-anchor="start" x="107.5" y="-1640.8" font-family="Times,serif" font-size="14.00">  meta_id</text>
<polygon fill="white" stroke="none" points="85.5,-1613 85.5,-1632 161.5,-1632 161.5,-1613 85.5,-1613"/>
<text text-anchor="start" x="95" y="-1618.8" font-family="Times,serif" font-size="14.00">species_id</text>
<polygon fill="white" stroke="none" points="85.5,-1592 85.5,-1611 161.5,-1611 161.5,-1592 85.5,-1592"/>
<text text-anchor="start" x="96.5" y="-1597.8" font-family="Times,serif" font-size="14.00">meta_key</text>
<polygon fill="white" stroke="none" points="85.5,-1571 85.5,-1590 161.5,-1590 161.5,-1571 85.5,-1571"/>
<text text-anchor="start" x="91.5" y="-1576.8" font-family="Times,serif" font-size="14.00">meta_value</text>
<polygon fill="black" stroke="black" points="83.5,-1654 83.5,-1654 163.5,-1654 163.5,-1654 83.5,-1654"/>
</g>
<!-- method_link -->
<g id="node2" class="node">
<title>method_link</title>
<path fill="#3cb371" stroke="black" d="M647.5,-1557C647.5,-1557 533.5,-1557 533.5,-1557 527.5,-1557 521.5,-1551 521.5,-1545 521.5,-1545 521.5,-1451 521.5,-1451 521.5,-1445 527.5,-1439 533.5,-1439 533.5,-1439 647.5,-1439 647.5,-1439 653.5,-1439 659.5,-1445 659.5,-1451 659.5,-1451 659.5,-1545 659.5,-1545 659.5,-1551 653.5,-1557 647.5,-1557"/>
<text text-anchor="start" x="549" y="-1536.2" font-family="Times,serif" font-size="16.00">method_link</text>
<polygon fill="white" stroke="none" points="531.5,-1508 531.5,-1527 649.5,-1527 649.5,-1508 531.5,-1508"/>
<text text-anchor="start" x="533.5" y="-1514.8" font-family="Times,serif" font-weight="bold" font-size="14.00">PK</text>
<text text-anchor="start" x="553.5" y="-1514.8" font-family="Times,serif" font-size="14.00">  method_link_id</text>
<polygon fill="white" stroke="none" points="531.5,-1487 531.5,-1506 649.5,-1506 649.5,-1487 531.5,-1487"/>
<text text-anchor="start" x="578.5" y="-1492.8" font-family="Times,serif" font-size="14.00">type</text>
<polygon fill="white" stroke="none" points="531.5,-1466 531.5,-1485 649.5,-1485 649.5,-1466 531.5,-1466"/>
<text text-anchor="start" x="577" y="-1471.8" font-family="Times,serif" font-size="14.00">class</text>
<polygon fill="white" stroke="none" points="531.5,-1445 531.5,-1464 649.5,-1464 649.5,-1445 531.5,-1445"/>
<text text-anchor="start" x="552.5" y="-1450.8" font-family="Times,serif" font-size="14.00">display_name</text>
<polygon fill="black" stroke="black" points="529.5,-1528 529.5,-1528 651.5,-1528 651.5,-1528 529.5,-1528"/>
</g>
<!-- method_link_species_set -->
<g id="node3" class="node">
<title>method_link_species_set</title>
<path fill="#3cb371" stroke="black" d="M470,-1578C470,-1578 288,-1578 288,-1578 282,-1578 276,-1572 276,-1566 276,-1566 276,-1388 276,-1388 276,-1382 282,-1376 288,-1376 288,-1376 470,-1376 470,-1376 476,-1376 482,-1382 482,-1388 482,-1388 482,-1566 482,-1566 482,-1572 476,-1578 470,-1578"/>
<text text-anchor="start" x="298" y="-1557.2" font-family="Times,serif" font-size="16.00">method_link_species_set</text>
<polygon fill="white" stroke="none" points="286,-1529 286,-1548 472,-1548 472,-1529 286,-1529"/>
<text text-anchor="start" x="288" y="-1535.8" font-family="Times,serif" font-weight="bold" font-size="14.00">PK</text>
<text text-anchor="start" x="308" y="-1535.8" font-family="Times,serif" font-size="14.00">  method_link_species_set_id</text>
<polygon fill="white" stroke="none" points="286,-1508 286,-1527 472,-1527 472,-1508 286,-1508"/>
<text text-anchor="start" x="335.5" y="-1513.8" font-family="Times,serif" font-size="14.00">method_link_id</text>
<polygon fill="white" stroke="none" points="286,-1487 286,-1506 472,-1506 472,-1487 286,-1487"/>
<text text-anchor="start" x="339.5" y="-1492.8" font-family="Times,serif" font-size="14.00">species_set_id</text>
<polygon fill="white" stroke="none" points="286,-1466 286,-1485 472,-1485 472,-1466 286,-1466"/>
<text text-anchor="start" x="363.5" y="-1471.8" font-family="Times,serif" font-size="14.00">name</text>
<polygon fill="white" stroke="none" points="286,-1445 286,-1464 472,-1464 472,-1445 286,-1445"/>
<text text-anchor="start" x="361" y="-1450.8" font-family="Times,serif" font-size="14.00">source</text>
<polygon fill="white" stroke="none" points="286,-1424 286,-1443 472,-1443 472,-1424 286,-1424"/>
<text text-anchor="start" x="371" y="-1429.8" font-family="Times,serif" font-size="14.00">url</text>
<polygon fill="white" stroke="none" points="286,-1403 286,-1422 472,-1422 472,-1403 286,-1403"/>
<text text-anchor="start" x="346" y="-1408.8" font-family="Times,serif" font-size="14.00">first_release</text>
<polygon fill="white" stroke="none" points="286,-1382 286,-1401 472,-1401 472,-1382 286,-1382"/>
<text text-anchor="start" x="347" y="-1387.8" font-family="Times,serif" font-size="14.00">last_release</text>
<polygon fill="black" stroke="black" points="284,-1549 284,-1549 474,-1549 474,-1549 284,-1549"/>
</g>
<!-- method_link_species_set&#45;&gt;method_link -->
<g id="edge7" class="edge">
<title>method_link_species_set:e&#45;&gt;method_link:w</title>
<path fill="none" stroke="black" stroke-dasharray="5,2" d="M473,-1518C494.56,-1518 502.48,-1518 519.78,-1518"/>
<polygon fill="black" stroke="black" points="519.5,-1521.5 529.5,-1518 519.5,-1514.5 519.5,-1521.5"/>
</g>
<!-- species_set_header -->
<g id="node7" class="node">
<title>species_set_header</title>
<path fill="#3cb371" stroke="black" d="M651,-1357.5C651,-1357.5 530,-1357.5 530,-1357.5 524,-1357.5 518,-1351.5 518,-1345.5 518,-1345.5 518,-1230.5 518,-1230.5 518,-1224.5 524,-1218.5 530,-1218.5 530,-1218.5 651,-1218.5 651,-1218.5 657,-1218.5 663,-1224.5 663,-1230.5 663,-1230.5 663,-1345.5 663,-1345.5 663,-1351.5 657,-1357.5 651,-1357.5"/>
<text text-anchor="start" x="530" y="-1336.7" font-family="Times,serif" font-size="16.00">species_set_header</text>
<polygon fill="white" stroke="none" points="528,-1308.5 528,-1327.5 653,-1327.5 653,-1308.5 528,-1308.5"/>
<text text-anchor="start" x="537.5" y="-1315.3" font-family="Times,serif" font-weight="bold" font-size="14.00">PK</text>
<text text-anchor="start" x="557.5" y="-1315.3" font-family="Times,serif" font-size="14.00">  species_set_id</text>
<polygon fill="white" stroke="none" points="528,-1287.5 528,-1306.5 653,-1306.5 653,-1287.5 528,-1287.5"/>
<text text-anchor="start" x="575" y="-1293.3" font-family="Times,serif" font-size="14.00">name</text>
<polygon fill="white" stroke="none" points="528,-1266.5 528,-1285.5 653,-1285.5 653,-1266.5 528,-1266.5"/>
<text text-anchor="start" x="579.5" y="-1272.3" font-family="Times,serif" font-size="14.00">size</text>
<polygon fill="white" stroke="none" points="528,-1245.5 528,-1264.5 653,-1264.5 653,-1245.5 528,-1245.5"/>
<text text-anchor="start" x="557.5" y="-1251.3" font-family="Times,serif" font-size="14.00">first_release</text>
<polygon fill="white" stroke="none" points="528,-1224.5 528,-1243.5 653,-1243.5 653,-1224.5 528,-1224.5"/>
<text text-anchor="start" x="558.5" y="-1230.3" font-family="Times,serif" font-size="14.00">last_release</text>
<polygon fill="black" stroke="black" points="526,-1328.5 526,-1328.5 655,-1328.5 655,-1328.5 526,-1328.5"/>
</g>
<!-- method_link_species_set&#45;&gt;species_set_header -->
<g id="edge8" class="edge">
<title>method_link_species_set:e&#45;&gt;species_set_header:w</title>
<path fill="none" stroke="black" stroke-dasharray="5,2" d="M473,-1497C551.98,-1497 453.99,-1335.05 515.69,-1319.24"/>
<polygon fill="black" stroke="black" points="515.96,-1322.62 525.5,-1318 515.17,-1315.66 515.96,-1322.62"/>
</g>
<!-- method_link_species_set_attr -->
<g id="node4" class="node">
<title>method_link_species_set_attr</title>
<path fill="#3cb371" stroke="black" d="M219,-1546.5C219,-1546.5 28,-1546.5 28,-1546.5 22,-1546.5 16,-1540.5 16,-1534.5 16,-1534.5 16,-1293.5 16,-1293.5 16,-1287.5 22,-1281.5 28,-1281.5 28,-1281.5 219,-1281.5 219,-1281.5 225,-1281.5 231,-1287.5 231,-1293.5 231,-1293.5 231,-1534.5 231,-1534.5 231,-1540.5 225,-1546.5 219,-1546.5"/>
<text text-anchor="start" x="28" y="-1525.7" font-family="Times,serif" font-size="16.00">method_link_species_set_attr</text>
<polygon fill="white" stroke="none" points="26,-1497.5 26,-1516.5 221,-1516.5 221,-1497.5 26,-1497.5"/>
<text text-anchor="start" x="32.5" y="-1504.3" font-family="Times,serif" font-weight="bold" font-size="14.00">PK</text>
<text text-anchor="start" x="52.5" y="-1504.3" font-family="Times,serif" font-size="14.00">  method_link_species_set_id</text>
<polygon fill="white" stroke="none" points="26,-1476.5 26,-1495.5 221,-1495.5 221,-1476.5 26,-1476.5"/>
<text text-anchor="start" x="100" y="-1482.3" font-family="Times,serif" font-size="14.00">n_goc_0</text>
<polygon fill="white" stroke="none" points="26,-1455.5 26,-1474.5 221,-1474.5 221,-1455.5 26,-1455.5"/>
<text text-anchor="start" x="96.5" y="-1461.3" font-family="Times,serif" font-size="14.00">n_goc_25</text>
<polygon fill="white" stroke="none" points="26,-1434.5 26,-1453.5 221,-1453.5 221,-1434.5 26,-1434.5"/>
<text text-anchor="start" x="96.5" y="-1440.3" font-family="Times,serif" font-size="14.00">n_goc_50</text>
<polygon fill="white" stroke="none" points="26,-1413.5 26,-1432.5 221,-1432.5 221,-1413.5 26,-1413.5"/>
<text text-anchor="start" x="96.5" y="-1419.3" font-family="Times,serif" font-size="14.00">n_goc_75</text>
<polygon fill="white" stroke="none" points="26,-1392.5 26,-1411.5 221,-1411.5 221,-1392.5 26,-1392.5"/>
<text text-anchor="start" x="93" y="-1398.3" font-family="Times,serif" font-size="14.00">n_goc_100</text>
<polygon fill="white" stroke="none" points="26,-1371.5 26,-1390.5 221,-1390.5 221,-1371.5 26,-1371.5"/>
<text text-anchor="start" x="44.5" y="-1377.3" font-family="Times,serif" font-size="14.00">perc_orth_above_goc_thresh</text>
<polygon fill="white" stroke="none" points="26,-1350.5 26,-1369.5 221,-1369.5 221,-1350.5 26,-1350.5"/>
<text text-anchor="start" x="63" y="-1356.3" font-family="Times,serif" font-size="14.00">goc_quality_threshold</text>
<polygon fill="white" stroke="none" points="26,-1329.5 26,-1348.5 221,-1348.5 221,-1329.5 26,-1329.5"/>
<text text-anchor="start" x="61.5" y="-1335.3" font-family="Times,serif" font-size="14.00">wga_quality_threshold</text>
<polygon fill="white" stroke="none" points="26,-1308.5 26,-1327.5 221,-1327.5 221,-1308.5 26,-1308.5"/>
<text text-anchor="start" x="43" y="-1314.3" font-family="Times,serif" font-size="14.00">perc_orth_above_wga_thresh</text>
<polygon fill="white" stroke="none" points="26,-1287.5 26,-1306.5 221,-1306.5 221,-1287.5 26,-1287.5"/>
<text text-anchor="start" x="78.5" y="-1293.3" font-family="Times,serif" font-size="14.00">threshold_on_ds</text>
<polygon fill="black" stroke="black" points="24,-1517.5 24,-1517.5 223,-1517.5 223,-1517.5 24,-1517.5"/>
</g>
<!-- method_link_species_set_attr&#45;&gt;method_link_species_set -->
<g id="edge9" class="edge">
<title>method_link_species_set_attr:e&#45;&gt;method_link_species_set:w</title>
<path fill="none" stroke="black" stroke-dasharray="5,2" d="M222.5,-1507C249.68,-1507 253.25,-1531.28 274.35,-1537.54"/>
<polygon fill="black" stroke="black" points="273.62,-1541.11 284,-1539 274.57,-1534.18 273.62,-1541.11"/>
</g>
<!-- method_link_species_set_tag -->
<g id="node5" class="node">
<title>method_link_species_set_tag</title>
<path fill="#3cb371" stroke="black" d="M218.5,-1263.5C218.5,-1263.5 28.5,-1263.5 28.5,-1263.5 22.5,-1263.5 16.5,-1257.5 16.5,-1251.5 16.5,-1251.5 16.5,-1178.5 16.5,-1178.5 16.5,-1172.5 22.5,-1166.5 28.5,-1166.5 28.5,-1166.5 218.5,-1166.5 218.5,-1166.5 224.5,-1166.5 230.5,-1172.5 230.5,-1178.5 230.5,-1178.5 230.5,-1251.5 230.5,-1251.5 230.5,-1257.5 224.5,-1263.5 218.5,-1263.5"/>
<text text-anchor="start" x="28.5" y="-1242.7" font-family="Times,serif" font-size="16.00">method_link_species_set_tag</text>
<polygon fill="white" stroke="none" points="26.5,-1214.5 26.5,-1233.5 220.5,-1233.5 220.5,-1214.5 26.5,-1214.5"/>
<text text-anchor="start" x="32.5" y="-1221.3" font-family="Times,serif" font-weight="bold" font-size="14.00">PK</text>
<text text-anchor="start" x="52.5" y="-1221.3" font-family="Times,serif" font-size="14.00">  method_link_species_set_id</text>
<polygon fill="white" stroke="none" points="26.5,-1193.5 26.5,-1212.5 220.5,-1212.5 220.5,-1193.5 26.5,-1193.5"/>
<text text-anchor="start" x="101" y="-1200.3" font-family="Times,serif" font-weight="bold" font-size="14.00">PK</text>
<text text-anchor="start" x="121" y="-1200.3" font-family="Times,serif" font-size="14.00">  tag</text>
<polygon fill="white" stroke="none" points="26.5,-1172.5 26.5,-1191.5 220.5,-1191.5 220.5,-1172.5 26.5,-1172.5"/>
<text text-anchor="start" x="108.5" y="-1178.3" font-family="Times,serif" font-size="14.00">value</text>
<polygon fill="black" stroke="black" points="24.5,-1234.5 24.5,-1234.5 222.5,-1234.5 222.5,-1234.5 24.5,-1234.5"/>
</g>
<!-- method_link_species_set_tag&#45;&gt;method_link_species_set -->
<g id="edge10" class="edge">
<title>method_link_species_set_tag:e&#45;&gt;method_link_species_set:w</title>
<path fill="none" stroke="black" stroke-dasharray="5,2" d="M221.5,-1224C289,-1224 221.82,-1505.49 274.59,-1536.28"/>
<polygon fill="black" stroke="black" points="273.44,-1539.86 284,-1539 275.21,-1533.08 273.44,-1539.86"/>
</g>
<!-- species_set -->
<g id="node6" class="node">
<title>species_set</title>
<path fill="#3cb371" stroke="black" d="M433.5,-1242C433.5,-1242 324.5,-1242 324.5,-1242 318.5,-1242 312.5,-1236 312.5,-1230 312.5,-1230 312.5,-1178 312.5,-1178 312.5,-1172 318.5,-1166 324.5,-1166 324.5,-1166 433.5,-1166 433.5,-1166 439.5,-1166 445.5,-1172 445.5,-1178 445.5,-1178 445.5,-1230 445.5,-1230 445.5,-1236 439.5,-1242 433.5,-1242"/>
<text text-anchor="start" x="343.5" y="-1221.2" font-family="Times,serif" font-size="16.00">species_set</text>
<polygon fill="white" stroke="none" points="322.5,-1193 322.5,-1212 435.5,-1212 435.5,-1193 322.5,-1193"/>
<text text-anchor="start" x="326" y="-1199.8" font-family="Times,serif" font-weight="bold" font-size="14.00">PK</text>
<text text-anchor="start" x="346" y="-1199.8" font-family="Times,serif" font-size="14.00">  species_set_id</text>
<polygon fill="white" stroke="none" points="322.5,-1172 322.5,-1191 435.5,-1191 435.5,-1172 322.5,-1172"/>
<text text-anchor="start" x="324.5" y="-1178.8" font-family="Times,serif" font-weight="bold" font-size="14.00">PK</text>
<text text-anchor="start" x="344.5" y="-1178.8" font-family="Times,serif" font-size="14.00">  genome_db_id</text>
<polygon fill="black" stroke="black" points="320.5,-1213 320.5,-1213 437.5,-1213 437.5,-1213 320.5,-1213"/>
</g>
<!-- species_set&#45;&gt;species_set_header -->
<g id="edge12" class="edge">
<title>species_set:e&#45;&gt;species_set_header:w</title>
<path fill="none" stroke="black" stroke-dasharray="5,2" d="M437,-1202C466.9,-1202 463.6,-1228.44 482,-1252 501.22,-1276.62 493.61,-1309.21 515.91,-1316.51"/>
<polygon fill="black" stroke="black" points="515.11,-1320.07 525.5,-1318 516.09,-1313.14 515.11,-1320.07"/>
</g>
<!-- genome_db -->
<g id="node12" class="node">
<title>genome_db</title>
<path fill="#808000" stroke="black" d="M645,-1112C645,-1112 536,-1112 536,-1112 530,-1112 524,-1106 524,-1100 524,-1100 524,-1048 524,-1048 524,-1042 530,-1036 536,-1036 536,-1036 645,-1036 645,-1036 651,-1036 657,-1042 657,-1048 657,-1048 657,-1100 657,-1100 657,-1106 651,-1112 645,-1112"/>
<text text-anchor="start" x="552.5" y="-1091.2" font-family="Times,serif" font-size="16.00">genome_db</text>
<polygon fill="white" stroke="none" points="534,-1063 534,-1082 647,-1082 647,-1063 534,-1063"/>
<text text-anchor="start" x="536" y="-1069.8" font-family="Times,serif" font-weight="bold" font-size="14.00">PK</text>
<text text-anchor="start" x="556" y="-1069.8" font-family="Times,serif" font-size="14.00">  genome_db_id</text>
<polygon fill="white" stroke="none" points="534,-1042 534,-1061 647,-1061 647,-1042 534,-1042"/>
<text text-anchor="start" x="584.5" y="-1048.8" font-family="Times,serif" font-style="italic" font-size="14.00">...</text>
<polygon fill="black" stroke="black" points="532,-1083 532,-1083 649,-1083 649,-1083 532,-1083"/>
</g>
<!-- species_set&#45;&gt;genome_db -->
<g id="edge11" class="edge">
<title>species_set:e&#45;&gt;genome_db:w</title>
<path fill="none" stroke="black" stroke-dasharray="5,2" d="M437,-1181C497.51,-1181 471.77,-1084.8 521.83,-1073.15"/>
<polygon fill="black" stroke="black" points="521.93,-1076.55 531.5,-1072 521.18,-1069.59 521.93,-1076.55"/>
</g>
<!-- species_set_tag -->
<g id="node8" class="node">
<title>species_set_tag</title>
<path fill="#3cb371" stroke="black" d="M432,-1357.5C432,-1357.5 326,-1357.5 326,-1357.5 320,-1357.5 314,-1351.5 314,-1345.5 314,-1345.5 314,-1272.5 314,-1272.5 314,-1266.5 320,-1260.5 326,-1260.5 326,-1260.5 432,-1260.5 432,-1260.5 438,-1260.5 444,-1266.5 444,-1272.5 444,-1272.5 444,-1345.5 444,-1345.5 444,-1351.5 438,-1357.5 432,-1357.5"/>
<text text-anchor="start" x="329.5" y="-1336.7" font-family="Times,serif" font-size="16.00">species_set_tag</text>
<polygon fill="white" stroke="none" points="324,-1308.5 324,-1327.5 434,-1327.5 434,-1308.5 324,-1308.5"/>
<text text-anchor="start" x="326" y="-1315.3" font-family="Times,serif" font-weight="bold" font-size="14.00">PK</text>
<text text-anchor="start" x="346" y="-1315.3" font-family="Times,serif" font-size="14.00">  species_set_id</text>
<polygon fill="white" stroke="none" points="324,-1287.5 324,-1306.5 434,-1306.5 434,-1287.5 324,-1287.5"/>
<text text-anchor="start" x="356.5" y="-1294.3" font-family="Times,serif" font-weight="bold" font-size="14.00">PK</text>
<text text-anchor="start" x="376.5" y="-1294.3" font-family="Times,serif" font-size="14.00">  tag</text>
<polygon fill="white" stroke="none" points="324,-1266.5 324,-1285.5 434,-1285.5 434,-1266.5 324,-1266.5"/>
<text text-anchor="start" x="364" y="-1272.3" font-family="Times,serif" font-size="14.00">value</text>
<polygon fill="black" stroke="black" points="322,-1328.5 322,-1328.5 436,-1328.5 436,-1328.5 322,-1328.5"/>
</g>
<!-- species_set_tag&#45;&gt;species_set_header -->
<g id="edge13" class="edge">
<title>species_set_tag:e&#45;&gt;species_set_header:w</title>
<path fill="none" stroke="black" stroke-dasharray="5,2" d="M435,-1318C471.85,-1318 483.66,-1318 515.82,-1318"/>
<polygon fill="black" stroke="black" points="515.5,-1321.5 525.5,-1318 515.5,-1314.5 515.5,-1321.5"/>
</g>
<!-- constrained_element -->
<g id="node9" class="node">
<title>constrained_element</title>
<path fill="#c70c09" stroke="black" d="M200.5,-1111.5C200.5,-1111.5 46.5,-1111.5 46.5,-1111.5 40.5,-1111.5 34.5,-1105.5 34.5,-1099.5 34.5,-1099.5 34.5,-1026.5 34.5,-1026.5 34.5,-1020.5 40.5,-1014.5 46.5,-1014.5 46.5,-1014.5 200.5,-1014.5 200.5,-1014.5 206.5,-1014.5 212.5,-1020.5 212.5,-1026.5 212.5,-1026.5 212.5,-1099.5 212.5,-1099.5 212.5,-1105.5 206.5,-1111.5 200.5,-1111.5"/>
<text text-anchor="start" x="57" y="-1090.7" font-family="Times,serif" font-size="16.00">constrained_element</text>
<polygon fill="white" stroke="none" points="44.5,-1062.5 44.5,-1081.5 202.5,-1081.5 202.5,-1062.5 44.5,-1062.5"/>
<text text-anchor="start" x="117.5" y="-1069.3" font-family="Times,serif" font-style="italic" font-size="14.00">...</text>
<polygon fill="white" stroke="none" points="44.5,-1041.5 44.5,-1060.5 202.5,-1060.5 202.5,-1041.5 44.5,-1041.5"/>
<text text-anchor="start" x="46.5" y="-1047.3" font-family="Times,serif" font-size="14.00">method_link_species_set_id</text>
<polygon fill="white" stroke="none" points="44.5,-1020.5 44.5,-1039.5 202.5,-1039.5 202.5,-1020.5 44.5,-1020.5"/>
<text text-anchor="start" x="117.5" y="-1027.3" font-family="Times,serif" font-style="italic" font-size="14.00">...</text>
<polygon fill="black" stroke="black" points="42.5,-1082.5 42.5,-1082.5 204.5,-1082.5 204.5,-1082.5 42.5,-1082.5"/>
</g>
<!-- constrained_element&#45;&gt;method_link_species_set -->
<g id="edge1" class="edge">
<title>constrained_element:e&#45;&gt;method_link_species_set:w</title>
<path fill="none" stroke="black" stroke-dasharray="5,2" d="M203.5,-1051C252.14,-1051 229.41,-1106.64 240.5,-1154 249.55,-1192.65 243.14,-1487.23 275.82,-1533.03"/>
<polygon fill="black" stroke="black" points="273.71,-1536.48 284,-1539 277.53,-1530.61 273.71,-1536.48"/>
</g>
<!-- family -->
<g id="node10" class="node">
<title>family</title>
<path fill="#bc5cec" stroke="black" d="M200.5,-959.5C200.5,-959.5 46.5,-959.5 46.5,-959.5 40.5,-959.5 34.5,-953.5 34.5,-947.5 34.5,-947.5 34.5,-874.5 34.5,-874.5 34.5,-868.5 40.5,-862.5 46.5,-862.5 46.5,-862.5 200.5,-862.5 200.5,-862.5 206.5,-862.5 212.5,-868.5 212.5,-874.5 212.5,-874.5 212.5,-947.5 212.5,-947.5 212.5,-953.5 206.5,-959.5 200.5,-959.5"/>
<text text-anchor="start" x="102.5" y="-938.7" font-family="Times,serif" font-size="16.00">family</text>
<polygon fill="white" stroke="none" points="44.5,-910.5 44.5,-929.5 202.5,-929.5 202.5,-910.5 44.5,-910.5"/>
<text text-anchor="start" x="117.5" y="-917.3" font-family="Times,serif" font-style="italic" font-size="14.00">...</text>
<polygon fill="white" stroke="none" points="44.5,-889.5 44.5,-908.5 202.5,-908.5 202.5,-889.5 44.5,-889.5"/>
<text text-anchor="start" x="46.5" y="-895.3" font-family="Times,serif" font-size="14.00">method_link_species_set_id</text>
<polygon fill="white" stroke="none" points="44.5,-868.5 44.5,-887.5 202.5,-887.5 202.5,-868.5 44.5,-868.5"/>
<text text-anchor="start" x="117.5" y="-875.3" font-family="Times,serif" font-style="italic" font-size="14.00">...</text>
<polygon fill="black" stroke="black" points="42.5,-930.5 42.5,-930.5 204.5,-930.5 204.5,-930.5 42.5,-930.5"/>
</g>
<!-- family&#45;&gt;method_link_species_set -->
<g id="edge2" class="edge">
<title>family:e&#45;&gt;method_link_species_set:w</title>
<path fill="none" stroke="black" stroke-dasharray="5,2" d="M203.5,-899C252.14,-899 230.18,-954.47 240.5,-1002 252.46,-1057.08 228.28,-1484.37 275.36,-1534.25"/>
<polygon fill="black" stroke="black" points="273.48,-1537.72 284,-1539 276.57,-1531.44 273.48,-1537.72"/>
</g>
<!-- gene_tree_root -->
<g id="node11" class="node">
<title>gene_tree_root</title>
<path fill="#1e90ff" stroke="black" d="M200.5,-807.5C200.5,-807.5 46.5,-807.5 46.5,-807.5 40.5,-807.5 34.5,-801.5 34.5,-795.5 34.5,-795.5 34.5,-722.5 34.5,-722.5 34.5,-716.5 40.5,-710.5 46.5,-710.5 46.5,-710.5 200.5,-710.5 200.5,-710.5 206.5,-710.5 212.5,-716.5 212.5,-722.5 212.5,-722.5 212.5,-795.5 212.5,-795.5 212.5,-801.5 206.5,-807.5 200.5,-807.5"/>
<text text-anchor="start" x="76" y="-786.7" font-family="Times,serif" font-size="16.00">gene_tree_root</text>
<polygon fill="white" stroke="none" points="44.5,-758.5 44.5,-777.5 202.5,-777.5 202.5,-758.5 44.5,-758.5"/>
<text text-anchor="start" x="117.5" y="-765.3" font-family="Times,serif" font-style="italic" font-size="14.00">...</text>
<polygon fill="white" stroke="none" points="44.5,-737.5 44.5,-756.5 202.5,-756.5 202.5,-737.5 44.5,-737.5"/>
<text text-anchor="start" x="46.5" y="-743.3" font-family="Times,serif" font-size="14.00">method_link_species_set_id</text>
<polygon fill="white" stroke="none" points="44.5,-716.5 44.5,-735.5 202.5,-735.5 202.5,-716.5 44.5,-716.5"/>
<text text-anchor="start" x="117.5" y="-723.3" font-family="Times,serif" font-style="italic" font-size="14.00">...</text>
<polygon fill="black" stroke="black" points="42.5,-778.5 42.5,-778.5 204.5,-778.5 204.5,-778.5 42.5,-778.5"/>
</g>
<!-- gene_tree_root&#45;&gt;method_link_species_set -->
<g id="edge3" class="edge">
<title>gene_tree_root:e&#45;&gt;method_link_species_set:w</title>
<path fill="none" stroke="black" stroke-dasharray="5,2" d="M203.5,-747C252.14,-747 230.61,-802.37 240.5,-850 247.78,-885.06 246.82,-1455.19 277.87,-1530.75"/>
<polygon fill="black" stroke="black" points="275.81,-1532.72 285,-1538 281.11,-1528.15 275.81,-1532.72"/>
</g>
<!-- genomic_align -->
<g id="node13" class="node">
<title>genomic_align</title>
<path fill="#ff8500" stroke="black" d="M200.5,-540.5C200.5,-540.5 46.5,-540.5 46.5,-540.5 40.5,-540.5 34.5,-534.5 34.5,-528.5 34.5,-528.5 34.5,-455.5 34.5,-455.5 34.5,-449.5 40.5,-443.5 46.5,-443.5 46.5,-443.5 200.5,-443.5 200.5,-443.5 206.5,-443.5 212.5,-449.5 212.5,-455.5 212.5,-455.5 212.5,-528.5 212.5,-528.5 212.5,-534.5 206.5,-540.5 200.5,-540.5"/>
<text text-anchor="start" x="76" y="-519.7" font-family="Times,serif" font-size="16.00">genomic_align</text>
<polygon fill="white" stroke="none" points="44.5,-491.5 44.5,-510.5 202.5,-510.5 202.5,-491.5 44.5,-491.5"/>
<text text-anchor="start" x="117.5" y="-498.3" font-family="Times,serif" font-style="italic" font-size="14.00">...</text>
<polygon fill="white" stroke="none" points="44.5,-470.5 44.5,-489.5 202.5,-489.5 202.5,-470.5 44.5,-470.5"/>
<text text-anchor="start" x="46.5" y="-476.3" font-family="Times,serif" font-size="14.00">method_link_species_set_id</text>
<polygon fill="white" stroke="none" points="44.5,-449.5 44.5,-468.5 202.5,-468.5 202.5,-449.5 44.5,-449.5"/>
<text text-anchor="start" x="117.5" y="-456.3" font-family="Times,serif" font-style="italic" font-size="14.00">...</text>
<polygon fill="black" stroke="black" points="42.5,-511.5 42.5,-511.5 204.5,-511.5 204.5,-511.5 42.5,-511.5"/>
</g>
<!-- genomic_align&#45;&gt;method_link_species_set -->
<g id="edge4" class="edge">
<title>genomic_align:e&#45;&gt;method_link_species_set:w</title>
<path fill="none" stroke="black" stroke-dasharray="5,2" d="M203.5,-480C276.03,-480 221.22,-244.61 276,-1367 279.53,-1439.43 215.76,-1528.98 274.09,-1538.22"/>
<polygon fill="black" stroke="black" points="273.78,-1541.78 284,-1539 274.28,-1534.8 273.78,-1541.78"/>
</g>
<!-- genomic_align_block -->
<g id="node14" class="node">
<title>genomic_align_block</title>
<path fill="#ff8500" stroke="black" d="M200.5,-425.5C200.5,-425.5 46.5,-425.5 46.5,-425.5 40.5,-425.5 34.5,-419.5 34.5,-413.5 34.5,-413.5 34.5,-340.5 34.5,-340.5 34.5,-334.5 40.5,-328.5 46.5,-328.5 46.5,-328.5 200.5,-328.5 200.5,-328.5 206.5,-328.5 212.5,-334.5 212.5,-340.5 212.5,-340.5 212.5,-413.5 212.5,-413.5 212.5,-419.5 206.5,-425.5 200.5,-425.5"/>
<text text-anchor="start" x="54" y="-404.7" font-family="Times,serif" font-size="16.00">genomic_align_block</text>
<polygon fill="white" stroke="none" points="44.5,-376.5 44.5,-395.5 202.5,-395.5 202.5,-376.5 44.5,-376.5"/>
<text text-anchor="start" x="117.5" y="-383.3" font-family="Times,serif" font-style="italic" font-size="14.00">...</text>
<polygon fill="white" stroke="none" points="44.5,-355.5 44.5,-374.5 202.5,-374.5 202.5,-355.5 44.5,-355.5"/>
<text text-anchor="start" x="46.5" y="-361.3" font-family="Times,serif" font-size="14.00">method_link_species_set_id</text>
<polygon fill="white" stroke="none" points="44.5,-334.5 44.5,-353.5 202.5,-353.5 202.5,-334.5 44.5,-334.5"/>
<text text-anchor="start" x="117.5" y="-341.3" font-family="Times,serif" font-style="italic" font-size="14.00">...</text>
<polygon fill="black" stroke="black" points="42.5,-396.5 42.5,-396.5 204.5,-396.5 204.5,-396.5 42.5,-396.5"/>
</g>
<!-- genomic_align_block&#45;&gt;method_link_species_set -->
<g id="edge5" class="edge">
<title>genomic_align_block:e&#45;&gt;method_link_species_set:w</title>
<path fill="none" stroke="black" stroke-dasharray="5,2" d="M203.5,-365C259.26,-365 229.23,-332.36 276,-1367 279.27,-1439.44 215.73,-1528.98 274.09,-1538.22"/>
<polygon fill="black" stroke="black" points="273.78,-1541.78 284,-1539 274.28,-1534.8 273.78,-1541.78"/>
</g>
<!-- homology -->
<g id="node15" class="node">
<title>homology</title>
<path fill="#1e90ff" stroke="black" d="M200.5,-692.5C200.5,-692.5 46.5,-692.5 46.5,-692.5 40.5,-692.5 34.5,-686.5 34.5,-680.5 34.5,-680.5 34.5,-607.5 34.5,-607.5 34.5,-601.5 40.5,-595.5 46.5,-595.5 46.5,-595.5 200.5,-595.5 200.5,-595.5 206.5,-595.5 212.5,-601.5 212.5,-607.5 212.5,-607.5 212.5,-680.5 212.5,-680.5 212.5,-686.5 206.5,-692.5 200.5,-692.5"/>
<text text-anchor="start" x="90" y="-671.7" font-family="Times,serif" font-size="16.00">homology</text>
<polygon fill="white" stroke="none" points="44.5,-643.5 44.5,-662.5 202.5,-662.5 202.5,-643.5 44.5,-643.5"/>
<text text-anchor="start" x="117.5" y="-650.3" font-family="Times,serif" font-style="italic" font-size="14.00">...</text>
<polygon fill="white" stroke="none" points="44.5,-622.5 44.5,-641.5 202.5,-641.5 202.5,-622.5 44.5,-622.5"/>
<text text-anchor="start" x="46.5" y="-628.3" font-family="Times,serif" font-size="14.00">method_link_species_set_id</text>
<polygon fill="white" stroke="none" points="44.5,-601.5 44.5,-620.5 202.5,-620.5 202.5,-601.5 44.5,-601.5"/>
<text text-anchor="start" x="117.5" y="-608.3" font-family="Times,serif" font-style="italic" font-size="14.00">...</text>
<polygon fill="black" stroke="black" points="42.5,-663.5 42.5,-663.5 204.5,-663.5 204.5,-663.5 42.5,-663.5"/>
</g>
<!-- homology&#45;&gt;method_link_species_set -->
<g id="edge6" class="edge">
<title>homology:e&#45;&gt;method_link_species_set:w</title>
<path fill="none" stroke="black" stroke-dasharray="5,2" d="M203.5,-632C238.69,-632 231.12,-668.08 240.5,-702 252.18,-744.25 240.04,-1448.74 277.43,-1531.15"/>
<polygon fill="black" stroke="black" points="274.54,-1533.23 284,-1538 279.57,-1528.37 274.54,-1533.23"/>
</g>
<!-- species_tree_root -->
<g id="node16" class="node">
<title>species_tree_root</title>
<path fill="#24da06" stroke="black" d="M200.5,-273.5C200.5,-273.5 46.5,-273.5 46.5,-273.5 40.5,-273.5 34.5,-267.5 34.5,-261.5 34.5,-261.5 34.5,-188.5 34.5,-188.5 34.5,-182.5 40.5,-176.5 46.5,-176.5 46.5,-176.5 200.5,-176.5 200.5,-176.5 206.5,-176.5 212.5,-182.5 212.5,-188.5 212.5,-188.5 212.5,-261.5 212.5,-261.5 212.5,-267.5 206.5,-273.5 200.5,-273.5"/>
<text text-anchor="start" x="68" y="-252.7" font-family="Times,serif" font-size="16.00">species_tree_root</text>
<polygon fill="white" stroke="none" points="44.5,-224.5 44.5,-243.5 202.5,-243.5 202.5,-224.5 44.5,-224.5"/>
<text text-anchor="start" x="117.5" y="-231.3" font-family="Times,serif" font-style="italic" font-size="14.00">...</text>
<polygon fill="white" stroke="none" points="44.5,-203.5 44.5,-222.5 202.5,-222.5 202.5,-203.5 44.5,-203.5"/>
<text text-anchor="start" x="46.5" y="-209.3" font-family="Times,serif" font-size="14.00">method_link_species_set_id</text>
<polygon fill="white" stroke="none" points="44.5,-182.5 44.5,-201.5 202.5,-201.5 202.5,-182.5 44.5,-182.5"/>
<text text-anchor="start" x="117.5" y="-189.3" font-family="Times,serif" font-style="italic" font-size="14.00">...</text>
<polygon fill="black" stroke="black" points="42.5,-244.5 42.5,-244.5 204.5,-244.5 204.5,-244.5 42.5,-244.5"/>
</g>
<!-- species_tree_root&#45;&gt;method_link_species_set -->
<g id="edge14" class="edge">
<title>species_tree_root:e&#45;&gt;method_link_species_set:w</title>
<path fill="none" stroke="black" stroke-dasharray="5,2" d="M203.5,-213C252.14,-213 231.35,-268.23 240.5,-316 284.48,-545.51 265.95,-1133.53 276,-1367 279.12,-1439.45 215.72,-1528.98 274.09,-1538.22"/>
<polygon fill="black" stroke="black" points="273.78,-1541.78 284,-1539 274.28,-1534.8 273.78,-1541.78"/>
</g>
<!-- synteny_region -->
<g id="node17" class="node">
<title>synteny_region</title>
<path fill="#ff6666" stroke="black" d="M200.5,-122C200.5,-122 46.5,-122 46.5,-122 40.5,-122 34.5,-116 34.5,-110 34.5,-110 34.5,-58 34.5,-58 34.5,-52 40.5,-46 46.5,-46 46.5,-46 200.5,-46 200.5,-46 206.5,-46 212.5,-52 212.5,-58 212.5,-58 212.5,-110 212.5,-110 212.5,-116 206.5,-122 200.5,-122"/>
<text text-anchor="start" x="73.5" y="-101.2" font-family="Times,serif" font-size="16.00">synteny_region</text>
<polygon fill="white" stroke="none" points="44.5,-73 44.5,-92 202.5,-92 202.5,-73 44.5,-73"/>
<text text-anchor="start" x="117.5" y="-79.8" font-family="Times,serif" font-style="italic" font-size="14.00">...</text>
<polygon fill="white" stroke="none" points="44.5,-52 44.5,-71 202.5,-71 202.5,-52 44.5,-52"/>
<text text-anchor="start" x="46.5" y="-57.8" font-family="Times,serif" font-size="14.00">method_link_species_set_id</text>
<polygon fill="black" stroke="black" points="42.5,-93 42.5,-93 204.5,-93 204.5,-93 42.5,-93"/>
</g>
<!-- synteny_region&#45;&gt;method_link_species_set -->
<g id="edge15" class="edge">
<title>synteny_region:e&#45;&gt;method_link_species_set:w</title>
<path fill="none" stroke="black" stroke-dasharray="5,2" d="M203.5,-61C252.14,-61 231.45,-116.21 240.5,-164 290.27,-426.78 265.07,-1099.77 276,-1367 278.96,-1439.45 215.7,-1528.98 274.09,-1538.22"/>
<polygon fill="black" stroke="black" points="273.78,-1541.78 284,-1539 274.27,-1534.8 273.78,-1541.78"/>
</g>
</g>
</svg>
