<?xml version="1.0" encoding="UTF-8" standalone="no"?>
<!DOCTYPE svg PUBLIC "-//W3C//DTD SVG 1.1//EN"
 "http://www.w3.org/Graphics/SVG/1.1/DTD/svg11.dtd">
<!-- Generated by graphviz version 8.0.5 (20230430.1635)
 -->
<!-- Title: test Pages: 1 -->
<svg width="611pt" height="3671pt"
 viewBox="0.00 0.00 611.20 3670.50" xmlns="http://www.w3.org/2000/svg" xmlns:xlink="http://www.w3.org/1999/xlink">
<g id="graph0" class="graph" transform="scale(1 1) rotate(0) translate(4 3666.5)">
<title>test</title>
<polygon fill="white" stroke="none" points="-4,4 -4,-3666.5 607.2,-3666.5 607.2,4 -4,4"/>
<text text-anchor="middle" x="301.6" y="-7.5" font-family="Times,serif" font-size="20.00">Core schema diagram: Assembly Tables tables</text>
<g id="clust1" class="cluster">
<title>cluster_assembly_tables</title>
<path fill="#f3cecd" stroke="#f3cecd" d="M52.7,-2421.5C52.7,-2421.5 583.2,-2421.5 583.2,-2421.5 589.2,-2421.5 595.2,-2427.5 595.2,-2433.5 595.2,-2433.5 595.2,-3642.5 595.2,-3642.5 595.2,-3648.5 589.2,-3654.5 583.2,-3654.5 583.2,-3654.5 52.7,-3654.5 52.7,-3654.5 46.7,-3654.5 40.7,-3648.5 40.7,-3642.5 40.7,-3642.5 40.7,-2433.5 40.7,-2433.5 40.7,-2427.5 46.7,-2421.5 52.7,-2421.5"/>
<text text-anchor="middle" x="317.95" y="-3631.5" font-family="Times,serif" font-size="20.00">Assembly Tables</text>
</g>
<g id="clust2" class="cluster">
<title>cluster_features</title>
<polygon fill="white" stroke="white" points="30.2,-472.5 30.2,-1581.5 251.7,-1581.5 251.7,-472.5 30.2,-472.5"/>
<text text-anchor="middle" x="140.95" y="-1558.5" font-family="Times,serif" font-size="20.00">Features</text>
</g>
<g id="clust4" class="cluster">
<title>cluster_id_mapping</title>
<polygon fill="white" stroke="white" points="53.07,-38.5 53.07,-187.5 228.82,-187.5 228.82,-38.5 53.07,-38.5"/>
<text text-anchor="middle" x="140.95" y="-164.5" font-family="Times,serif" font-size="20.00">ID Mapping</text>
</g>
<g id="clust5" class="cluster">
<title>cluster_misc</title>
<polygon fill="white" stroke="white" points="64.32,-195.5 64.32,-464.5 217.57,-464.5 217.57,-195.5 64.32,-195.5"/>
<text text-anchor="middle" x="140.95" y="-441.5" font-family="Times,serif" font-size="20.00">Misc</text>
</g>
<g id="clust3" class="cluster">
<title>cluster_fundamental_tables</title>
<polygon fill="white" stroke="white" points="51.95,-1589.5 51.95,-2413.5 229.95,-2413.5 229.95,-1589.5 51.95,-1589.5"/>
<text text-anchor="middle" x="140.95" y="-2390.5" font-family="Times,serif" font-size="20.00">Fundamental Tables</text>
</g>
<!-- assembly -->
<g id="node1" class="node">
<title>assembly</title>
<path fill="#c70c09" stroke="black" d="M194.57,-3351.62C194.57,-3351.62 87.32,-3351.62 87.32,-3351.62 81.32,-3351.62 75.32,-3345.62 75.32,-3339.62 75.32,-3339.62 75.32,-3171.38 75.32,-3171.38 75.32,-3165.38 81.32,-3159.38 87.32,-3159.38 87.32,-3159.38 194.57,-3159.38 194.57,-3159.38 200.57,-3159.38 206.57,-3165.38 206.57,-3171.38 206.57,-3171.38 206.57,-3339.62 206.57,-3339.62 206.57,-3345.62 200.57,-3351.62 194.57,-3351.62"/>
<text text-anchor="start" x="111.32" y="-3328.43" font-family="Times,serif" font-size="16.00">assembly</text>
<polygon fill="white" stroke="none" points="85.32,-3300.38 85.32,-3320.88 196.57,-3320.88 196.57,-3300.38 85.32,-3300.38"/>
<text text-anchor="start" x="88.07" y="-3305.57" font-family="Times,serif" font-size="14.00">asm_seq_region_id</text>
<polygon fill="white" stroke="none" points="85.32,-3277.88 85.32,-3298.38 196.57,-3298.38 196.57,-3277.88 85.32,-3277.88"/>
<text text-anchor="start" x="87.32" y="-3283.07" font-family="Times,serif" font-size="14.00">cmp_seq_region_id</text>
<polygon fill="white" stroke="none" points="85.32,-3255.38 85.32,-3275.88 196.57,-3275.88 196.57,-3255.38 85.32,-3255.38"/>
<text text-anchor="start" x="114.7" y="-3260.57" font-family="Times,serif" font-size="14.00">asm_start</text>
<polygon fill="white" stroke="none" points="85.32,-3232.88 85.32,-3253.38 196.57,-3253.38 196.57,-3232.88 85.32,-3232.88"/>
<text text-anchor="start" x="116.57" y="-3238.07" font-family="Times,serif" font-size="14.00">asm_end</text>
<polygon fill="white" stroke="none" points="85.32,-3210.38 85.32,-3230.88 196.57,-3230.88 196.57,-3210.38 85.32,-3210.38"/>
<text text-anchor="start" x="113.95" y="-3215.57" font-family="Times,serif" font-size="14.00">cmp_start</text>
<polygon fill="white" stroke="none" points="85.32,-3187.88 85.32,-3208.38 196.57,-3208.38 196.57,-3187.88 85.32,-3187.88"/>
<text text-anchor="start" x="115.82" y="-3193.07" font-family="Times,serif" font-size="14.00">cmp_end</text>
<polygon fill="white" stroke="none" points="85.32,-3165.38 85.32,-3185.88 196.57,-3185.88 196.57,-3165.38 85.32,-3165.38"/>
<text text-anchor="start" x="133.45" y="-3170.57" font-family="Times,serif" font-size="14.00">ori</text>
<polygon fill="black" stroke="black" points="83.32,-3321.88 83.32,-3321.88 198.57,-3321.88 198.57,-3321.88 83.32,-3321.88"/>
</g>
<!-- seq_region -->
<g id="node10" class="node">
<title>seq_region</title>
<path fill="#c70c09" stroke="black" d="M395.2,-2696.88C395.2,-2696.88 291.7,-2696.88 291.7,-2696.88 285.7,-2696.88 279.7,-2690.88 279.7,-2684.88 279.7,-2684.88 279.7,-2584.12 279.7,-2584.12 279.7,-2578.12 285.7,-2572.12 291.7,-2572.12 291.7,-2572.12 395.2,-2572.12 395.2,-2572.12 401.2,-2572.12 407.2,-2578.12 407.2,-2584.12 407.2,-2584.12 407.2,-2684.88 407.2,-2684.88 407.2,-2690.88 401.2,-2696.88 395.2,-2696.88"/>
<text text-anchor="start" x="308.2" y="-2673.68" font-family="Times,serif" font-size="16.00">seq_region</text>
<polygon fill="white" stroke="none" points="289.7,-2645.62 289.7,-2666.12 397.2,-2666.12 397.2,-2645.62 289.7,-2645.62"/>
<text text-anchor="start" x="291.7" y="-2651.82" font-family="Times,serif" font-weight="bold" font-size="14.00">PK</text>
<text text-anchor="start" x="311.2" y="-2651.82" font-family="Times,serif" font-size="14.00">  seq_region_id</text>
<polygon fill="white" stroke="none" points="289.7,-2623.12 289.7,-2643.62 397.2,-2643.62 397.2,-2623.12 289.7,-2623.12"/>
<text text-anchor="start" x="328.45" y="-2628.32" font-family="Times,serif" font-size="14.00">name</text>
<polygon fill="white" stroke="none" points="289.7,-2600.62 289.7,-2621.12 397.2,-2621.12 397.2,-2600.62 289.7,-2600.62"/>
<text text-anchor="start" x="296.95" y="-2605.82" font-family="Times,serif" font-size="14.00">coord_system_id</text>
<polygon fill="white" stroke="none" points="289.7,-2578.12 289.7,-2598.62 397.2,-2598.62 397.2,-2578.12 289.7,-2578.12"/>
<text text-anchor="start" x="326.57" y="-2583.32" font-family="Times,serif" font-size="14.00">length</text>
<polygon fill="black" stroke="black" points="287.7,-2667.12 287.7,-2667.12 399.2,-2667.12 399.2,-2667.12 287.7,-2667.12"/>
</g>
<!-- assembly&#45;&gt;seq_region -->
<g id="edge1" class="edge">
<title>assembly:e&#45;&gt;seq_region:w</title>
<path fill="none" stroke="black" stroke-dasharray="5,2" d="M197.95,-3310.5C272.97,-3310.5 237.27,-3224.12 251.7,-3150.5 261.62,-3099.87 236.87,-2710.73 278.8,-2660.77"/>
<polygon fill="black" stroke="black" points="280.35,-2663.37 287.45,-2655.5 277,-2657.22 280.35,-2663.37"/>
</g>
<!-- assembly_exception -->
<g id="node2" class="node">
<title>assembly_exception</title>
<path fill="#c70c09" stroke="black" d="M218.2,-2765.12C218.2,-2765.12 63.7,-2765.12 63.7,-2765.12 57.7,-2765.12 51.7,-2759.12 51.7,-2753.12 51.7,-2753.12 51.7,-2539.88 51.7,-2539.88 51.7,-2533.88 57.7,-2527.88 63.7,-2527.88 63.7,-2527.88 218.2,-2527.88 218.2,-2527.88 224.2,-2527.88 230.2,-2533.88 230.2,-2539.88 230.2,-2539.88 230.2,-2753.12 230.2,-2753.12 230.2,-2759.12 224.2,-2765.12 218.2,-2765.12"/>
<text text-anchor="start" x="76.07" y="-2741.93" font-family="Times,serif" font-size="16.00">assembly_exception</text>
<polygon fill="white" stroke="none" points="61.7,-2713.88 61.7,-2734.38 220.2,-2734.38 220.2,-2713.88 61.7,-2713.88"/>
<text text-anchor="start" x="63.7" y="-2720.07" font-family="Times,serif" font-weight="bold" font-size="14.00">PK</text>
<text text-anchor="start" x="83.2" y="-2720.07" font-family="Times,serif" font-size="14.00">  assembly_exception_id</text>
<polygon fill="white" stroke="none" points="61.7,-2691.38 61.7,-2711.88 220.2,-2711.88 220.2,-2691.38 61.7,-2691.38"/>
<text text-anchor="start" x="102.7" y="-2696.57" font-family="Times,serif" font-size="14.00">seq_region_id</text>
<polygon fill="white" stroke="none" points="61.7,-2668.88 61.7,-2689.38 220.2,-2689.38 220.2,-2668.88 61.7,-2668.88"/>
<text text-anchor="start" x="96.32" y="-2674.07" font-family="Times,serif" font-size="14.00">seq_region_start</text>
<polygon fill="white" stroke="none" points="61.7,-2646.38 61.7,-2666.88 220.2,-2666.88 220.2,-2646.38 61.7,-2646.38"/>
<text text-anchor="start" x="98.2" y="-2651.57" font-family="Times,serif" font-size="14.00">seq_region_end</text>
<polygon fill="white" stroke="none" points="61.7,-2623.88 61.7,-2644.38 220.2,-2644.38 220.2,-2623.88 61.7,-2623.88"/>
<text text-anchor="start" x="116.57" y="-2629.07" font-family="Times,serif" font-size="14.00">exc_type</text>
<polygon fill="white" stroke="none" points="61.7,-2601.38 61.7,-2621.88 220.2,-2621.88 220.2,-2601.38 61.7,-2601.38"/>
<text text-anchor="start" x="89.95" y="-2606.57" font-family="Times,serif" font-size="14.00">exc_seq_region_id</text>
<polygon fill="white" stroke="none" points="61.7,-2578.88 61.7,-2599.38 220.2,-2599.38 220.2,-2578.88 61.7,-2578.88"/>
<text text-anchor="start" x="83.57" y="-2584.07" font-family="Times,serif" font-size="14.00">exc_seq_region_start</text>
<polygon fill="white" stroke="none" points="61.7,-2556.38 61.7,-2576.88 220.2,-2576.88 220.2,-2556.38 61.7,-2556.38"/>
<text text-anchor="start" x="85.45" y="-2561.57" font-family="Times,serif" font-size="14.00">exc_seq_region_end</text>
<polygon fill="white" stroke="none" points="61.7,-2533.88 61.7,-2554.38 220.2,-2554.38 220.2,-2533.88 61.7,-2533.88"/>
<text text-anchor="start" x="133.45" y="-2539.07" font-family="Times,serif" font-size="14.00">ori</text>
<polygon fill="black" stroke="black" points="59.7,-2735.38 59.7,-2735.38 222.2,-2735.38 222.2,-2735.38 59.7,-2735.38"/>
</g>
<!-- assembly_exception&#45;&gt;seq_region -->
<g id="edge2" class="edge">
<title>assembly_exception:e&#45;&gt;seq_region:w</title>
<path fill="none" stroke="black" stroke-dasharray="5,2" d="M220.95,-2611.5C252.7,-2611.5 253.06,-2646.1 277.7,-2653.93"/>
<polygon fill="black" stroke="black" points="277.05,-2657.52 287.45,-2655.5 278.06,-2650.59 277.05,-2657.52"/>
</g>
<!-- coord_system -->
<g id="node3" class="node">
<title>coord_system</title>
<path fill="#c70c09" stroke="black" d="M575.2,-2723.38C575.2,-2723.38 455.2,-2723.38 455.2,-2723.38 449.2,-2723.38 443.2,-2717.38 443.2,-2711.38 443.2,-2711.38 443.2,-2565.62 443.2,-2565.62 443.2,-2559.62 449.2,-2553.62 455.2,-2553.62 455.2,-2553.62 575.2,-2553.62 575.2,-2553.62 581.2,-2553.62 587.2,-2559.62 587.2,-2565.62 587.2,-2565.62 587.2,-2711.38 587.2,-2711.38 587.2,-2717.38 581.2,-2723.38 575.2,-2723.38"/>
<text text-anchor="start" x="470.57" y="-2700.18" font-family="Times,serif" font-size="16.00">coord_system</text>
<polygon fill="white" stroke="none" points="453.2,-2672.12 453.2,-2692.62 577.2,-2692.62 577.2,-2672.12 453.2,-2672.12"/>
<text text-anchor="start" x="455.2" y="-2678.32" font-family="Times,serif" font-weight="bold" font-size="14.00">PK</text>
<text text-anchor="start" x="474.7" y="-2678.32" font-family="Times,serif" font-size="14.00">  coord_system_id</text>
<polygon fill="white" stroke="none" points="453.2,-2649.62 453.2,-2670.12 577.2,-2670.12 577.2,-2649.62 453.2,-2649.62"/>
<text text-anchor="start" x="487.07" y="-2654.82" font-family="Times,serif" font-size="14.00">species_id</text>
<polygon fill="white" stroke="none" points="453.2,-2627.12 453.2,-2647.62 577.2,-2647.62 577.2,-2627.12 453.2,-2627.12"/>
<text text-anchor="start" x="500.2" y="-2632.32" font-family="Times,serif" font-size="14.00">name</text>
<polygon fill="white" stroke="none" points="453.2,-2604.62 453.2,-2625.12 577.2,-2625.12 577.2,-2604.62 453.2,-2604.62"/>
<text text-anchor="start" x="495.32" y="-2609.82" font-family="Times,serif" font-size="14.00">version</text>
<polygon fill="white" stroke="none" points="453.2,-2582.12 453.2,-2602.62 577.2,-2602.62 577.2,-2582.12 453.2,-2582.12"/>
<text text-anchor="start" x="503.2" y="-2587.32" font-family="Times,serif" font-size="14.00">rank</text>
<polygon fill="white" stroke="none" points="453.2,-2559.62 453.2,-2580.12 577.2,-2580.12 577.2,-2559.62 453.2,-2559.62"/>
<text text-anchor="start" x="500.95" y="-2564.82" font-family="Times,serif" font-size="14.00">attrib</text>
<polygon fill="black" stroke="black" points="451.2,-2693.62 451.2,-2693.62 579.2,-2693.62 579.2,-2693.62 451.2,-2693.62"/>
</g>
<!-- data_file -->
<g id="node4" class="node">
<title>data_file</title>
<path fill="#c70c09" stroke="black" d="M389.95,-3050.88C389.95,-3050.88 296.95,-3050.88 296.95,-3050.88 290.95,-3050.88 284.95,-3044.88 284.95,-3038.88 284.95,-3038.88 284.95,-2848.12 284.95,-2848.12 284.95,-2842.12 290.95,-2836.12 296.95,-2836.12 296.95,-2836.12 389.95,-2836.12 389.95,-2836.12 395.95,-2836.12 401.95,-2842.12 401.95,-2848.12 401.95,-2848.12 401.95,-3038.88 401.95,-3038.88 401.95,-3044.88 395.95,-3050.88 389.95,-3050.88"/>
<text text-anchor="start" x="315.7" y="-3027.68" font-family="Times,serif" font-size="16.00">data_file</text>
<polygon fill="white" stroke="none" points="294.95,-2999.62 294.95,-3020.12 391.95,-3020.12 391.95,-2999.62 294.95,-2999.62"/>
<text text-anchor="start" x="297.7" y="-3005.82" font-family="Times,serif" font-weight="bold" font-size="14.00">PK</text>
<text text-anchor="start" x="317.2" y="-3005.82" font-family="Times,serif" font-size="14.00">  data_file_id</text>
<polygon fill="white" stroke="none" points="294.95,-2977.12 294.95,-2997.62 391.95,-2997.62 391.95,-2977.12 294.95,-2977.12"/>
<text text-anchor="start" x="296.95" y="-2982.32" font-family="Times,serif" font-size="14.00">coord_system_id</text>
<polygon fill="white" stroke="none" points="294.95,-2954.62 294.95,-2975.12 391.95,-2975.12 391.95,-2954.62 294.95,-2954.62"/>
<text text-anchor="start" x="313.07" y="-2959.82" font-family="Times,serif" font-size="14.00">analysis_id</text>
<polygon fill="white" stroke="none" points="294.95,-2932.12 294.95,-2952.62 391.95,-2952.62 391.95,-2932.12 294.95,-2932.12"/>
<text text-anchor="start" x="328.45" y="-2937.32" font-family="Times,serif" font-size="14.00">name</text>
<polygon fill="white" stroke="none" points="294.95,-2909.62 294.95,-2930.12 391.95,-2930.12 391.95,-2909.62 294.95,-2909.62"/>
<text text-anchor="start" x="308.57" y="-2914.82" font-family="Times,serif" font-size="14.00">version_lock</text>
<polygon fill="white" stroke="none" points="294.95,-2887.12 294.95,-2907.62 391.95,-2907.62 391.95,-2887.12 294.95,-2887.12"/>
<text text-anchor="start" x="320.95" y="-2892.32" font-family="Times,serif" font-size="14.00">absolute</text>
<polygon fill="white" stroke="none" points="294.95,-2864.62 294.95,-2885.12 391.95,-2885.12 391.95,-2864.62 294.95,-2864.62"/>
<text text-anchor="start" x="335.95" y="-2869.82" font-family="Times,serif" font-size="14.00">url</text>
<polygon fill="white" stroke="none" points="294.95,-2842.12 294.95,-2862.62 391.95,-2862.62 391.95,-2842.12 294.95,-2842.12"/>
<text text-anchor="start" x="319.45" y="-2847.32" font-family="Times,serif" font-size="14.00">file_type</text>
<polygon fill="black" stroke="black" points="292.95,-3021.12 292.95,-3021.12 393.95,-3021.12 393.95,-3021.12 292.95,-3021.12"/>
</g>
<!-- data_file&#45;&gt;coord_system -->
<g id="edge4" class="edge">
<title>data_file:e&#45;&gt;coord_system:w</title>
<path fill="none" stroke="black" stroke-dasharray="5,2" d="M393.45,-2987.5C458.56,-2987.5 391.68,-2716.07 441.84,-2685.32"/>
<polygon fill="black" stroke="black" points="442.47,-2688.51 451.2,-2682.5 440.63,-2681.76 442.47,-2688.51"/>
</g>
<!-- analysis -->
<g id="node13" class="node">
<title>analysis</title>
<path fill="#808000" stroke="black" d="M184.82,-2375.38C184.82,-2375.38 97.07,-2375.38 97.07,-2375.38 91.07,-2375.38 85.07,-2369.38 85.07,-2363.38 85.07,-2363.38 85.07,-2307.62 85.07,-2307.62 85.07,-2301.62 91.07,-2295.62 97.07,-2295.62 97.07,-2295.62 184.82,-2295.62 184.82,-2295.62 190.82,-2295.62 196.82,-2301.62 196.82,-2307.62 196.82,-2307.62 196.82,-2363.38 196.82,-2363.38 196.82,-2369.38 190.82,-2375.38 184.82,-2375.38"/>
<text text-anchor="start" x="115.45" y="-2352.18" font-family="Times,serif" font-size="16.00">analysis</text>
<polygon fill="white" stroke="none" points="95.07,-2324.12 95.07,-2344.62 186.82,-2344.62 186.82,-2324.12 95.07,-2324.12"/>
<text text-anchor="start" x="97.07" y="-2330.32" font-family="Times,serif" font-weight="bold" font-size="14.00">PK</text>
<text text-anchor="start" x="116.57" y="-2330.32" font-family="Times,serif" font-size="14.00">  analysis_id</text>
<polygon fill="white" stroke="none" points="95.07,-2301.62 95.07,-2322.12 186.82,-2322.12 186.82,-2301.62 95.07,-2301.62"/>
<text text-anchor="start" x="135.32" y="-2307.82" font-family="Times,serif" font-style="italic" font-size="14.00">...</text>
<polygon fill="black" stroke="black" points="93.07,-2345.62 93.07,-2345.62 188.82,-2345.62 188.82,-2345.62 93.07,-2345.62"/>
</g>
<!-- data_file&#45;&gt;analysis -->
<g id="edge3" class="edge">
<title>data_file:e&#45;&gt;analysis:w</title>
<path fill="none" stroke="black" stroke-dasharray="5,2" d="M393.45,-2964.5C431.84,-2964.5 419.75,-3023.89 392.45,-3050.88 358.47,-3084.46 319.61,-3083.76 284.95,-3050.88 233.83,-3002.37 268.3,-2485.99 251.7,-2417.5 237.71,-2359.77 246.71,-2327.87 196.82,-2295.62 187.32,-2289.48 103.06,-2287.72 94.95,-2295.62 86.05,-2304.3 80.5,-2320.58 84.5,-2329.06"/>
<polygon fill="black" stroke="black" points="82.54,-2332.55 92.95,-2334.5 86.03,-2326.48 82.54,-2332.55"/>
</g>
<!-- dna -->
<g id="node5" class="node">
<title>dna</title>
<path fill="#c70c09" stroke="black" d="M192.7,-2509.38C192.7,-2509.38 89.2,-2509.38 89.2,-2509.38 83.2,-2509.38 77.2,-2503.38 77.2,-2497.38 77.2,-2497.38 77.2,-2441.62 77.2,-2441.62 77.2,-2435.62 83.2,-2429.62 89.2,-2429.62 89.2,-2429.62 192.7,-2429.62 192.7,-2429.62 198.7,-2429.62 204.7,-2435.62 204.7,-2441.62 204.7,-2441.62 204.7,-2497.38 204.7,-2497.38 204.7,-2503.38 198.7,-2509.38 192.7,-2509.38"/>
<text text-anchor="start" x="129.32" y="-2486.18" font-family="Times,serif" font-size="16.00">dna</text>
<polygon fill="white" stroke="none" points="87.2,-2458.12 87.2,-2478.62 194.7,-2478.62 194.7,-2458.12 87.2,-2458.12"/>
<text text-anchor="start" x="89.2" y="-2464.32" font-family="Times,serif" font-weight="bold" font-size="14.00">PK</text>
<text text-anchor="start" x="108.7" y="-2464.32" font-family="Times,serif" font-size="14.00">  seq_region_id</text>
<polygon fill="white" stroke="none" points="87.2,-2435.62 87.2,-2456.12 194.7,-2456.12 194.7,-2435.62 87.2,-2435.62"/>
<text text-anchor="start" x="116.2" y="-2440.82" font-family="Times,serif" font-size="14.00">sequence</text>
<polygon fill="black" stroke="black" points="85.2,-2479.62 85.2,-2479.62 196.7,-2479.62 196.7,-2479.62 85.2,-2479.62"/>
</g>
<!-- dna&#45;&gt;seq_region -->
<g id="edge7" class="edge">
<title>dna:e&#45;&gt;seq_region:w</title>
<path fill="none" stroke="black" stroke-dasharray="5,2" d="M195.95,-2468.5C229.23,-2468.5 234.28,-2490.14 251.7,-2518.5 282.57,-2568.75 232.67,-2644.89 277.73,-2654.49"/>
<polygon fill="black" stroke="black" points="277.17,-2658.05 287.45,-2655.5 277.82,-2651.08 277.17,-2658.05"/>
</g>
<!-- genome_statistics -->
<g id="node6" class="node">
<title>genome_statistics</title>
<path fill="#c70c09" stroke="black" d="M211.45,-3141.38C211.45,-3141.38 70.45,-3141.38 70.45,-3141.38 64.45,-3141.38 58.45,-3135.38 58.45,-3129.38 58.45,-3129.38 58.45,-2983.62 58.45,-2983.62 58.45,-2977.62 64.45,-2971.62 70.45,-2971.62 70.45,-2971.62 211.45,-2971.62 211.45,-2971.62 217.45,-2971.62 223.45,-2977.62 223.45,-2983.62 223.45,-2983.62 223.45,-3129.38 223.45,-3129.38 223.45,-3135.38 217.45,-3141.38 211.45,-3141.38"/>
<text text-anchor="start" x="84.32" y="-3118.18" font-family="Times,serif" font-size="16.00">genome_statistics</text>
<polygon fill="white" stroke="none" points="68.45,-3090.12 68.45,-3110.62 213.45,-3110.62 213.45,-3090.12 68.45,-3090.12"/>
<text text-anchor="start" x="70.45" y="-3096.32" font-family="Times,serif" font-weight="bold" font-size="14.00">PK</text>
<text text-anchor="start" x="89.95" y="-3096.32" font-family="Times,serif" font-size="14.00">  genome_statistics_id</text>
<polygon fill="white" stroke="none" points="68.45,-3067.62 68.45,-3088.12 213.45,-3088.12 213.45,-3067.62 68.45,-3067.62"/>
<text text-anchor="start" x="120.32" y="-3072.82" font-family="Times,serif" font-size="14.00">statistic</text>
<polygon fill="white" stroke="none" points="68.45,-3045.12 68.45,-3065.62 213.45,-3065.62 213.45,-3045.12 68.45,-3045.12"/>
<text text-anchor="start" x="126.32" y="-3050.32" font-family="Times,serif" font-size="14.00">value</text>
<polygon fill="white" stroke="none" points="68.45,-3022.62 68.45,-3043.12 213.45,-3043.12 213.45,-3022.62 68.45,-3022.62"/>
<text text-anchor="start" x="112.82" y="-3027.82" font-family="Times,serif" font-size="14.00">species_id</text>
<polygon fill="white" stroke="none" points="68.45,-3000.12 68.45,-3020.62 213.45,-3020.62 213.45,-3000.12 68.45,-3000.12"/>
<text text-anchor="start" x="103.07" y="-3005.32" font-family="Times,serif" font-size="14.00">attrib_type_id</text>
<polygon fill="white" stroke="none" points="68.45,-2977.62 68.45,-2998.12 213.45,-2998.12 213.45,-2977.62 68.45,-2977.62"/>
<text text-anchor="start" x="112.07" y="-2982.82" font-family="Times,serif" font-size="14.00">timestamp</text>
<polygon fill="black" stroke="black" points="66.45,-3111.62 66.45,-3111.62 215.45,-3111.62 215.45,-3111.62 66.45,-3111.62"/>
</g>
<!-- karyotype -->
<g id="node7" class="node">
<title>karyotype</title>
<path fill="#c70c09" stroke="black" d="M190.07,-2953.38C190.07,-2953.38 91.82,-2953.38 91.82,-2953.38 85.82,-2953.38 79.82,-2947.38 79.82,-2941.38 79.82,-2941.38 79.82,-2795.62 79.82,-2795.62 79.82,-2789.62 85.82,-2783.62 91.82,-2783.62 91.82,-2783.62 190.07,-2783.62 190.07,-2783.62 196.07,-2783.62 202.07,-2789.62 202.07,-2795.62 202.07,-2795.62 202.07,-2941.38 202.07,-2941.38 202.07,-2947.38 196.07,-2953.38 190.07,-2953.38"/>
<text text-anchor="start" x="108.7" y="-2930.18" font-family="Times,serif" font-size="16.00">karyotype</text>
<polygon fill="white" stroke="none" points="89.82,-2902.12 89.82,-2922.62 192.07,-2922.62 192.07,-2902.12 89.82,-2902.12"/>
<text text-anchor="start" x="91.82" y="-2908.32" font-family="Times,serif" font-weight="bold" font-size="14.00">PK</text>
<text text-anchor="start" x="111.32" y="-2908.32" font-family="Times,serif" font-size="14.00">  karyotype_id</text>
<polygon fill="white" stroke="none" points="89.82,-2879.62 89.82,-2900.12 192.07,-2900.12 192.07,-2879.62 89.82,-2879.62"/>
<text text-anchor="start" x="102.7" y="-2884.82" font-family="Times,serif" font-size="14.00">seq_region_id</text>
<polygon fill="white" stroke="none" points="89.82,-2857.12 89.82,-2877.62 192.07,-2877.62 192.07,-2857.12 89.82,-2857.12"/>
<text text-anchor="start" x="96.32" y="-2862.32" font-family="Times,serif" font-size="14.00">seq_region_start</text>
<polygon fill="white" stroke="none" points="89.82,-2834.62 89.82,-2855.12 192.07,-2855.12 192.07,-2834.62 89.82,-2834.62"/>
<text text-anchor="start" x="98.2" y="-2839.82" font-family="Times,serif" font-size="14.00">seq_region_end</text>
<polygon fill="white" stroke="none" points="89.82,-2812.12 89.82,-2832.62 192.07,-2832.62 192.07,-2812.12 89.82,-2812.12"/>
<text text-anchor="start" x="127.82" y="-2817.32" font-family="Times,serif" font-size="14.00">band</text>
<polygon fill="white" stroke="none" points="89.82,-2789.62 89.82,-2810.12 192.07,-2810.12 192.07,-2789.62 89.82,-2789.62"/>
<text text-anchor="start" x="128.2" y="-2794.82" font-family="Times,serif" font-size="14.00">stain</text>
<polygon fill="black" stroke="black" points="87.82,-2923.62 87.82,-2923.62 194.07,-2923.62 194.07,-2923.62 87.82,-2923.62"/>
</g>
<!-- karyotype&#45;&gt;seq_region -->
<g id="edge12" class="edge">
<title>karyotype:e&#45;&gt;seq_region:w</title>
<path fill="none" stroke="black" stroke-dasharray="5,2" d="M192.95,-2889.5C250.34,-2889.5 230.1,-2827.67 251.7,-2774.5 270.99,-2727.02 238.62,-2665.46 277.63,-2656.58"/>
<polygon fill="black" stroke="black" points="277.85,-2659.98 287.45,-2655.5 277.15,-2653.01 277.85,-2659.98"/>
</g>
<!-- meta -->
<g id="node8" class="node">
<title>meta</title>
<path fill="#c70c09" stroke="black" d="M379.07,-2553.88C379.07,-2553.88 307.82,-2553.88 307.82,-2553.88 301.82,-2553.88 295.82,-2547.88 295.82,-2541.88 295.82,-2541.88 295.82,-2441.12 295.82,-2441.12 295.82,-2435.12 301.82,-2429.12 307.82,-2429.12 307.82,-2429.12 379.07,-2429.12 379.07,-2429.12 385.07,-2429.12 391.07,-2435.12 391.07,-2441.12 391.07,-2441.12 391.07,-2541.88 391.07,-2541.88 391.07,-2547.88 385.07,-2553.88 379.07,-2553.88"/>
<text text-anchor="start" x="328.07" y="-2530.68" font-family="Times,serif" font-size="16.00">meta</text>
<polygon fill="white" stroke="none" points="305.82,-2502.62 305.82,-2523.12 381.07,-2523.12 381.07,-2502.62 305.82,-2502.62"/>
<text text-anchor="start" x="307.82" y="-2508.82" font-family="Times,serif" font-weight="bold" font-size="14.00">PK</text>
<text text-anchor="start" x="327.32" y="-2508.82" font-family="Times,serif" font-size="14.00">  meta_id</text>
<polygon fill="white" stroke="none" points="305.82,-2480.12 305.82,-2500.62 381.07,-2500.62 381.07,-2480.12 305.82,-2480.12"/>
<text text-anchor="start" x="315.32" y="-2485.32" font-family="Times,serif" font-size="14.00">species_id</text>
<polygon fill="white" stroke="none" points="305.82,-2457.62 305.82,-2478.12 381.07,-2478.12 381.07,-2457.62 305.82,-2457.62"/>
<text text-anchor="start" x="316.82" y="-2462.82" font-family="Times,serif" font-size="14.00">meta_key</text>
<polygon fill="white" stroke="none" points="305.82,-2435.12 305.82,-2455.62 381.07,-2455.62 381.07,-2435.12 305.82,-2435.12"/>
<text text-anchor="start" x="311.95" y="-2440.32" font-family="Times,serif" font-size="14.00">meta_value</text>
<polygon fill="black" stroke="black" points="303.82,-2524.12 303.82,-2524.12 383.07,-2524.12 383.07,-2524.12 303.82,-2524.12"/>
</g>
<!-- meta&#45;&gt;coord_system -->
<g id="edge14" class="edge">
<title>meta:e&#45;&gt;coord_system:w</title>
<path fill="none" stroke="black" stroke-dasharray="5,2" d="M382.45,-2490.5C459.74,-2490.5 379.59,-2643.4 441.5,-2658.33"/>
<polygon fill="black" stroke="black" points="440.88,-2661.89 451.2,-2659.5 441.64,-2654.93 440.88,-2661.89"/>
</g>
<!-- meta_coord -->
<g id="node9" class="node">
<title>meta_coord</title>
<path fill="#c70c09" stroke="black" d="M389.95,-2817.62C389.95,-2817.62 296.95,-2817.62 296.95,-2817.62 290.95,-2817.62 284.95,-2811.62 284.95,-2805.62 284.95,-2805.62 284.95,-2727.38 284.95,-2727.38 284.95,-2721.38 290.95,-2715.38 296.95,-2715.38 296.95,-2715.38 389.95,-2715.38 389.95,-2715.38 395.95,-2715.38 401.95,-2721.38 401.95,-2727.38 401.95,-2727.38 401.95,-2805.62 401.95,-2805.62 401.95,-2811.62 395.95,-2817.62 389.95,-2817.62"/>
<text text-anchor="start" x="305.57" y="-2794.43" font-family="Times,serif" font-size="16.00">meta_coord</text>
<polygon fill="white" stroke="none" points="294.95,-2766.38 294.95,-2786.88 391.95,-2786.88 391.95,-2766.38 294.95,-2766.38"/>
<text text-anchor="start" x="311.95" y="-2771.57" font-family="Times,serif" font-size="14.00">table_name</text>
<polygon fill="white" stroke="none" points="294.95,-2743.88 294.95,-2764.38 391.95,-2764.38 391.95,-2743.88 294.95,-2743.88"/>
<text text-anchor="start" x="296.95" y="-2749.07" font-family="Times,serif" font-size="14.00">coord_system_id</text>
<polygon fill="white" stroke="none" points="294.95,-2721.38 294.95,-2741.88 391.95,-2741.88 391.95,-2721.38 294.95,-2721.38"/>
<text text-anchor="start" x="311.2" y="-2726.57" font-family="Times,serif" font-size="14.00">max_length</text>
<polygon fill="black" stroke="black" points="292.95,-2787.88 292.95,-2787.88 393.95,-2787.88 393.95,-2787.88 292.95,-2787.88"/>
</g>
<!-- meta_coord&#45;&gt;coord_system -->
<g id="edge15" class="edge">
<title>meta_coord:e&#45;&gt;coord_system:w</title>
<path fill="none" stroke="black" stroke-dasharray="5,2" d="M393.45,-2754.5C430.56,-2754.5 415.07,-2696.38 441.5,-2684.58"/>
<polygon fill="black" stroke="black" points="442.05,-2687.84 451.2,-2682.5 440.72,-2680.97 442.05,-2687.84"/>
</g>
<!-- seq_region&#45;&gt;coord_system -->
<g id="edge23" class="edge">
<title>seq_region:e&#45;&gt;coord_system:w</title>
<path fill="none" stroke="black" stroke-dasharray="5,2" d="M398.45,-2610.5C434.17,-2610.5 417.04,-2668.11 441.61,-2680.27"/>
<polygon fill="black" stroke="black" points="440.69,-2683.86 451.2,-2682.5 442.14,-2677.01 440.69,-2683.86"/>
</g>
<!-- seq_region_attrib -->
<g id="node11" class="node">
<title>seq_region_attrib</title>
<path fill="#c70c09" stroke="black" d="M197.2,-3615.62C197.2,-3615.62 84.7,-3615.62 84.7,-3615.62 78.7,-3615.62 72.7,-3609.62 72.7,-3603.62 72.7,-3603.62 72.7,-3525.38 72.7,-3525.38 72.7,-3519.38 78.7,-3513.38 84.7,-3513.38 84.7,-3513.38 197.2,-3513.38 197.2,-3513.38 203.2,-3513.38 209.2,-3519.38 209.2,-3525.38 209.2,-3525.38 209.2,-3603.62 209.2,-3603.62 209.2,-3609.62 203.2,-3615.62 197.2,-3615.62"/>
<text text-anchor="start" x="84.7" y="-3592.43" font-family="Times,serif" font-size="16.00">seq_region_attrib</text>
<polygon fill="white" stroke="none" points="82.7,-3564.38 82.7,-3584.88 199.2,-3584.88 199.2,-3564.38 82.7,-3564.38"/>
<text text-anchor="start" x="102.7" y="-3569.57" font-family="Times,serif" font-size="14.00">seq_region_id</text>
<polygon fill="white" stroke="none" points="82.7,-3541.88 82.7,-3562.38 199.2,-3562.38 199.2,-3541.88 82.7,-3541.88"/>
<text text-anchor="start" x="103.07" y="-3547.07" font-family="Times,serif" font-size="14.00">attrib_type_id</text>
<polygon fill="white" stroke="none" points="82.7,-3519.38 82.7,-3539.88 199.2,-3539.88 199.2,-3519.38 82.7,-3519.38"/>
<text text-anchor="start" x="126.32" y="-3524.57" font-family="Times,serif" font-size="14.00">value</text>
<polygon fill="black" stroke="black" points="80.7,-3585.88 80.7,-3585.88 201.2,-3585.88 201.2,-3585.88 80.7,-3585.88"/>
</g>
<!-- seq_region_attrib&#45;&gt;seq_region -->
<g id="edge25" class="edge">
<title>seq_region_attrib:e&#45;&gt;seq_region:w</title>
<path fill="none" stroke="black" stroke-dasharray="5,2" d="M199.95,-3574.5C239,-3574.5 238.96,-3540.41 251.7,-3503.5 266.19,-3461.54 244.18,-2747.05 280.89,-2663.46"/>
<polygon fill="black" stroke="black" points="283.1,-2666.16 287.45,-2656.5 278.03,-2661.34 283.1,-2666.16"/>
</g>
<!-- attrib_type -->
<g id="node14" class="node">
<title>attrib_type</title>
<path fill="#808000" stroke="black" d="M192.32,-2277.38C192.32,-2277.38 89.57,-2277.38 89.57,-2277.38 83.57,-2277.38 77.57,-2271.38 77.57,-2265.38 77.57,-2265.38 77.57,-2209.62 77.57,-2209.62 77.57,-2203.62 83.57,-2197.62 89.57,-2197.62 89.57,-2197.62 192.32,-2197.62 192.32,-2197.62 198.32,-2197.62 204.32,-2203.62 204.32,-2209.62 204.32,-2209.62 204.32,-2265.38 204.32,-2265.38 204.32,-2271.38 198.32,-2277.38 192.32,-2277.38"/>
<text text-anchor="start" x="106.07" y="-2254.18" font-family="Times,serif" font-size="16.00">attrib_type</text>
<polygon fill="white" stroke="none" points="87.57,-2226.12 87.57,-2246.62 194.32,-2246.62 194.32,-2226.12 87.57,-2226.12"/>
<text text-anchor="start" x="89.57" y="-2232.32" font-family="Times,serif" font-weight="bold" font-size="14.00">PK</text>
<text text-anchor="start" x="109.07" y="-2232.32" font-family="Times,serif" font-size="14.00">  attrib_type_id</text>
<polygon fill="white" stroke="none" points="87.57,-2203.62 87.57,-2224.12 194.32,-2224.12 194.32,-2203.62 87.57,-2203.62"/>
<text text-anchor="start" x="135.32" y="-2209.82" font-family="Times,serif" font-style="italic" font-size="14.00">...</text>
<polygon fill="black" stroke="black" points="85.57,-2247.62 85.57,-2247.62 196.32,-2247.62 196.32,-2247.62 85.57,-2247.62"/>
</g>
<!-- seq_region_attrib&#45;&gt;attrib_type -->
<g id="edge24" class="edge">
<title>seq_region_attrib:e&#45;&gt;attrib_type:w</title>
<path fill="none" stroke="black" stroke-dasharray="5,2" d="M209.2,-3552.5C227.48,-3552.5 221.84,-3524.58 209.2,-3511.38 195.44,-3496.99 49.47,-3508.5 30.2,-3503.5 21.54,-3501.25 16.9,-3502.11 12.2,-3494.5 -5.31,-3466.17 -2.33,-2325.47 12.2,-2295.5 29,-2260.84 42.08,-2240.4 76.21,-2237"/>
<polygon fill="black" stroke="black" points="76.12,-2240.46 85.95,-2236.5 75.8,-2233.47 76.12,-2240.46"/>
</g>
<!-- seq_region_synonym -->
<g id="node12" class="node">
<title>seq_region_synonym</title>
<path fill="#c70c09" stroke="black" d="M221.2,-3494.88C221.2,-3494.88 60.7,-3494.88 60.7,-3494.88 54.7,-3494.88 48.7,-3488.88 48.7,-3482.88 48.7,-3482.88 48.7,-3382.12 48.7,-3382.12 48.7,-3376.12 54.7,-3370.12 60.7,-3370.12 60.7,-3370.12 221.2,-3370.12 221.2,-3370.12 227.2,-3370.12 233.2,-3376.12 233.2,-3382.12 233.2,-3382.12 233.2,-3482.88 233.2,-3482.88 233.2,-3488.88 227.2,-3494.88 221.2,-3494.88"/>
<text text-anchor="start" x="71.57" y="-3471.68" font-family="Times,serif" font-size="16.00">seq_region_synonym</text>
<polygon fill="white" stroke="none" points="58.7,-3443.62 58.7,-3464.12 223.2,-3464.12 223.2,-3443.62 58.7,-3443.62"/>
<text text-anchor="start" x="60.7" y="-3449.82" font-family="Times,serif" font-weight="bold" font-size="14.00">PK</text>
<text text-anchor="start" x="80.2" y="-3449.82" font-family="Times,serif" font-size="14.00">  seq_region_synonym_id</text>
<polygon fill="white" stroke="none" points="58.7,-3421.12 58.7,-3441.62 223.2,-3441.62 223.2,-3421.12 58.7,-3421.12"/>
<text text-anchor="start" x="102.7" y="-3426.32" font-family="Times,serif" font-size="14.00">seq_region_id</text>
<polygon fill="white" stroke="none" points="58.7,-3398.62 58.7,-3419.12 223.2,-3419.12 223.2,-3398.62 58.7,-3398.62"/>
<text text-anchor="start" x="115.82" y="-3403.82" font-family="Times,serif" font-size="14.00">synonym</text>
<polygon fill="white" stroke="none" points="58.7,-3376.12 58.7,-3396.62 223.2,-3396.62 223.2,-3376.12 58.7,-3376.12"/>
<text text-anchor="start" x="100.45" y="-3381.32" font-family="Times,serif" font-size="14.00">external_db_id</text>
<polygon fill="black" stroke="black" points="56.7,-3465.12 56.7,-3465.12 225.2,-3465.12 225.2,-3465.12 56.7,-3465.12"/>
</g>
<!-- seq_region_synonym&#45;&gt;seq_region -->
<g id="edge27" class="edge">
<title>seq_region_synonym:e&#45;&gt;seq_region:w</title>
<path fill="none" stroke="black" stroke-dasharray="5,2" d="M223.95,-3431.5C306.75,-3431.5 210.9,-2720.75 278.35,-2659.68"/>
<polygon fill="black" stroke="black" points="279.54,-2662.55 287.45,-2655.5 276.87,-2656.08 279.54,-2662.55"/>
</g>
<!-- density_feature -->
<g id="node15" class="node">
<title>density_feature</title>
<path fill="#3cb371" stroke="black" d="M190.07,-702.62C190.07,-702.62 91.82,-702.62 91.82,-702.62 85.82,-702.62 79.82,-696.62 79.82,-690.62 79.82,-690.62 79.82,-612.38 79.82,-612.38 79.82,-606.38 85.82,-600.38 91.82,-600.38 91.82,-600.38 190.07,-600.38 190.07,-600.38 196.07,-600.38 202.07,-606.38 202.07,-612.38 202.07,-612.38 202.07,-690.62 202.07,-690.62 202.07,-696.62 196.07,-702.62 190.07,-702.62"/>
<text text-anchor="start" x="91.82" y="-679.42" font-family="Times,serif" font-size="16.00">density_feature</text>
<polygon fill="white" stroke="none" points="89.82,-651.38 89.82,-671.88 192.07,-671.88 192.07,-651.38 89.82,-651.38"/>
<text text-anchor="start" x="135.32" y="-657.58" font-family="Times,serif" font-style="italic" font-size="14.00">...</text>
<polygon fill="white" stroke="none" points="89.82,-628.88 89.82,-649.38 192.07,-649.38 192.07,-628.88 89.82,-628.88"/>
<text text-anchor="start" x="102.7" y="-634.08" font-family="Times,serif" font-size="14.00">seq_region_id</text>
<polygon fill="white" stroke="none" points="89.82,-606.38 89.82,-626.88 192.07,-626.88 192.07,-606.38 89.82,-606.38"/>
<text text-anchor="start" x="135.32" y="-612.58" font-family="Times,serif" font-style="italic" font-size="14.00">...</text>
<polygon fill="black" stroke="black" points="87.82,-672.88 87.82,-672.88 194.07,-672.88 194.07,-672.88 87.82,-672.88"/>
</g>
<!-- density_feature&#45;&gt;seq_region -->
<g id="edge5" class="edge">
<title>density_feature:e&#45;&gt;seq_region:w</title>
<path fill="none" stroke="black" stroke-dasharray="5,2" d="M192.95,-639.5C234.25,-639.5 237.55,-672.7 251.7,-711.5 286.94,-808.12 274.1,-2459.81 279.7,-2562.5 281.72,-2599.58 253.91,-2644.74 277.73,-2653.85"/>
<polygon fill="black" stroke="black" points="277.03,-2657.44 287.45,-2655.5 278.1,-2650.52 277.03,-2657.44"/>
</g>
<!-- ditag_feature -->
<g id="node16" class="node">
<title>ditag_feature</title>
<path fill="#3cb371" stroke="black" d="M182.95,-582.62C182.95,-582.62 98.95,-582.62 98.95,-582.62 92.95,-582.62 86.95,-576.62 86.95,-570.62 86.95,-570.62 86.95,-492.38 86.95,-492.38 86.95,-486.38 92.95,-480.38 98.95,-480.38 98.95,-480.38 182.95,-480.38 182.95,-480.38 188.95,-480.38 194.95,-486.38 194.95,-492.38 194.95,-492.38 194.95,-570.62 194.95,-570.62 194.95,-576.62 188.95,-582.62 182.95,-582.62"/>
<text text-anchor="start" x="98.95" y="-559.42" font-family="Times,serif" font-size="16.00">ditag_feature</text>
<polygon fill="white" stroke="none" points="96.95,-531.38 96.95,-551.88 184.95,-551.88 184.95,-531.38 96.95,-531.38"/>
<text text-anchor="start" x="135.32" y="-537.58" font-family="Times,serif" font-style="italic" font-size="14.00">...</text>
<polygon fill="white" stroke="none" points="96.95,-508.88 96.95,-529.38 184.95,-529.38 184.95,-508.88 96.95,-508.88"/>
<text text-anchor="start" x="102.7" y="-514.08" font-family="Times,serif" font-size="14.00">seq_region_id</text>
<polygon fill="white" stroke="none" points="96.95,-486.38 96.95,-506.88 184.95,-506.88 184.95,-486.38 96.95,-486.38"/>
<text text-anchor="start" x="135.32" y="-492.57" font-family="Times,serif" font-style="italic" font-size="14.00">...</text>
<polygon fill="black" stroke="black" points="94.95,-552.88 94.95,-552.88 186.95,-552.88 186.95,-552.88 94.95,-552.88"/>
</g>
<!-- ditag_feature&#45;&gt;seq_region -->
<g id="edge6" class="edge">
<title>ditag_feature:e&#45;&gt;seq_region:w</title>
<path fill="none" stroke="black" stroke-dasharray="5,2" d="M185.95,-519.5C229.29,-519.5 235.74,-551.21 251.7,-591.5 292.03,-693.32 273.79,-2453.15 279.7,-2562.5 281.7,-2599.58 253.9,-2644.74 277.73,-2653.85"/>
<polygon fill="black" stroke="black" points="277.03,-2657.44 287.45,-2655.5 278.1,-2650.52 277.03,-2657.44"/>
</g>
<!-- dna_align_feature -->
<g id="node17" class="node">
<title>dna_align_feature</title>
<path fill="#808000" stroke="black" d="M198.7,-2179.62C198.7,-2179.62 83.2,-2179.62 83.2,-2179.62 77.2,-2179.62 71.2,-2173.62 71.2,-2167.62 71.2,-2167.62 71.2,-2089.38 71.2,-2089.38 71.2,-2083.38 77.2,-2077.38 83.2,-2077.38 83.2,-2077.38 198.7,-2077.38 198.7,-2077.38 204.7,-2077.38 210.7,-2083.38 210.7,-2089.38 210.7,-2089.38 210.7,-2167.62 210.7,-2167.62 210.7,-2173.62 204.7,-2179.62 198.7,-2179.62"/>
<text text-anchor="start" x="83.2" y="-2156.43" font-family="Times,serif" font-size="16.00">dna_align_feature</text>
<polygon fill="white" stroke="none" points="81.2,-2128.38 81.2,-2148.88 200.7,-2148.88 200.7,-2128.38 81.2,-2128.38"/>
<text text-anchor="start" x="135.32" y="-2134.57" font-family="Times,serif" font-style="italic" font-size="14.00">...</text>
<polygon fill="white" stroke="none" points="81.2,-2105.88 81.2,-2126.38 200.7,-2126.38 200.7,-2105.88 81.2,-2105.88"/>
<text text-anchor="start" x="102.7" y="-2111.07" font-family="Times,serif" font-size="14.00">seq_region_id</text>
<polygon fill="white" stroke="none" points="81.2,-2083.38 81.2,-2103.88 200.7,-2103.88 200.7,-2083.38 81.2,-2083.38"/>
<text text-anchor="start" x="135.32" y="-2089.57" font-family="Times,serif" font-style="italic" font-size="14.00">...</text>
<polygon fill="black" stroke="black" points="79.2,-2149.88 79.2,-2149.88 202.7,-2149.88 202.7,-2149.88 79.2,-2149.88"/>
</g>
<!-- dna_align_feature&#45;&gt;seq_region -->
<g id="edge8" class="edge">
<title>dna_align_feature:e&#45;&gt;seq_region:w</title>
<path fill="none" stroke="black" stroke-dasharray="5,2" d="M201.95,-2116.5C240.85,-2116.5 238.74,-2151.83 251.7,-2188.5 279.47,-2267.08 272.68,-2479.45 279.7,-2562.5 282.83,-2599.51 254.14,-2644.72 277.77,-2653.85"/>
<polygon fill="black" stroke="black" points="277.03,-2657.43 287.45,-2655.5 278.1,-2650.51 277.03,-2657.43"/>
</g>
<!-- exon -->
<g id="node18" class="node">
<title>exon</title>
<path fill="#808000" stroke="black" d="M179.2,-2059.62C179.2,-2059.62 102.7,-2059.62 102.7,-2059.62 96.7,-2059.62 90.7,-2053.62 90.7,-2047.62 90.7,-2047.62 90.7,-1969.38 90.7,-1969.38 90.7,-1963.38 96.7,-1957.38 102.7,-1957.38 102.7,-1957.38 179.2,-1957.38 179.2,-1957.38 185.2,-1957.38 191.2,-1963.38 191.2,-1969.38 191.2,-1969.38 191.2,-2047.62 191.2,-2047.62 191.2,-2053.62 185.2,-2059.62 179.2,-2059.62"/>
<text text-anchor="start" x="125.2" y="-2036.42" font-family="Times,serif" font-size="16.00">exon</text>
<polygon fill="white" stroke="none" points="100.7,-2008.38 100.7,-2028.88 181.2,-2028.88 181.2,-2008.38 100.7,-2008.38"/>
<text text-anchor="start" x="135.32" y="-2014.58" font-family="Times,serif" font-style="italic" font-size="14.00">...</text>
<polygon fill="white" stroke="none" points="100.7,-1985.88 100.7,-2006.38 181.2,-2006.38 181.2,-1985.88 100.7,-1985.88"/>
<text text-anchor="start" x="102.7" y="-1991.08" font-family="Times,serif" font-size="14.00">seq_region_id</text>
<polygon fill="white" stroke="none" points="100.7,-1963.38 100.7,-1983.88 181.2,-1983.88 181.2,-1963.38 100.7,-1963.38"/>
<text text-anchor="start" x="135.32" y="-1969.58" font-family="Times,serif" font-style="italic" font-size="14.00">...</text>
<polygon fill="black" stroke="black" points="98.7,-2029.88 98.7,-2029.88 183.2,-2029.88 183.2,-2029.88 98.7,-2029.88"/>
</g>
<!-- exon&#45;&gt;seq_region -->
<g id="edge9" class="edge">
<title>exon:e&#45;&gt;seq_region:w</title>
<path fill="none" stroke="black" stroke-dasharray="5,2" d="M181.95,-1996.5C226.5,-1996.5 233.82,-2027.69 251.7,-2068.5 295.84,-2169.21 271.44,-2452.86 279.7,-2562.5 282.49,-2599.53 254.07,-2644.73 277.76,-2653.85"/>
<polygon fill="black" stroke="black" points="277.03,-2657.43 287.45,-2655.5 278.1,-2650.52 277.03,-2657.43"/>
</g>
<!-- gene -->
<g id="node19" class="node">
<title>gene</title>
<path fill="#808000" stroke="black" d="M179.2,-1939.62C179.2,-1939.62 102.7,-1939.62 102.7,-1939.62 96.7,-1939.62 90.7,-1933.62 90.7,-1927.62 90.7,-1927.62 90.7,-1849.38 90.7,-1849.38 90.7,-1843.38 96.7,-1837.38 102.7,-1837.38 102.7,-1837.38 179.2,-1837.38 179.2,-1837.38 185.2,-1837.38 191.2,-1843.38 191.2,-1849.38 191.2,-1849.38 191.2,-1927.62 191.2,-1927.62 191.2,-1933.62 185.2,-1939.62 179.2,-1939.62"/>
<text text-anchor="start" x="125.95" y="-1916.42" font-family="Times,serif" font-size="16.00">gene</text>
<polygon fill="white" stroke="none" points="100.7,-1888.38 100.7,-1908.88 181.2,-1908.88 181.2,-1888.38 100.7,-1888.38"/>
<text text-anchor="start" x="135.32" y="-1894.58" font-family="Times,serif" font-style="italic" font-size="14.00">...</text>
<polygon fill="white" stroke="none" points="100.7,-1865.88 100.7,-1886.38 181.2,-1886.38 181.2,-1865.88 100.7,-1865.88"/>
<text text-anchor="start" x="102.7" y="-1871.08" font-family="Times,serif" font-size="14.00">seq_region_id</text>
<polygon fill="white" stroke="none" points="100.7,-1843.38 100.7,-1863.88 181.2,-1863.88 181.2,-1843.38 100.7,-1843.38"/>
<text text-anchor="start" x="135.32" y="-1849.58" font-family="Times,serif" font-style="italic" font-size="14.00">...</text>
<polygon fill="black" stroke="black" points="98.7,-1909.88 98.7,-1909.88 183.2,-1909.88 183.2,-1909.88 98.7,-1909.88"/>
</g>
<!-- gene&#45;&gt;seq_region -->
<g id="edge10" class="edge">
<title>gene:e&#45;&gt;seq_region:w</title>
<path fill="none" stroke="black" stroke-dasharray="5,2" d="M181.95,-1876.5C314.99,-1876.5 247.3,-2098.28 279.7,-2562.5 282.29,-2599.55 254.03,-2644.73 277.75,-2653.85"/>
<polygon fill="black" stroke="black" points="277.03,-2657.44 287.45,-2655.5 278.1,-2650.52 277.03,-2657.44"/>
</g>
<!-- intron_supporting_evidence -->
<g id="node20" class="node">
<title>intron_supporting_evidence</title>
<path fill="#3cb371" stroke="black" d="M231.7,-1542.62C231.7,-1542.62 50.2,-1542.62 50.2,-1542.62 44.2,-1542.62 38.2,-1536.62 38.2,-1530.62 38.2,-1530.62 38.2,-1452.38 38.2,-1452.38 38.2,-1446.38 44.2,-1440.38 50.2,-1440.38 50.2,-1440.38 231.7,-1440.38 231.7,-1440.38 237.7,-1440.38 243.7,-1446.38 243.7,-1452.38 243.7,-1452.38 243.7,-1530.62 243.7,-1530.62 243.7,-1536.62 237.7,-1542.62 231.7,-1542.62"/>
<text text-anchor="start" x="50.2" y="-1519.42" font-family="Times,serif" font-size="16.00">intron_supporting_evidence</text>
<polygon fill="white" stroke="none" points="48.2,-1491.38 48.2,-1511.88 233.7,-1511.88 233.7,-1491.38 48.2,-1491.38"/>
<text text-anchor="start" x="135.32" y="-1497.58" font-family="Times,serif" font-style="italic" font-size="14.00">...</text>
<polygon fill="white" stroke="none" points="48.2,-1468.88 48.2,-1489.38 233.7,-1489.38 233.7,-1468.88 48.2,-1468.88"/>
<text text-anchor="start" x="102.7" y="-1474.08" font-family="Times,serif" font-size="14.00">seq_region_id</text>
<polygon fill="white" stroke="none" points="48.2,-1446.38 48.2,-1466.88 233.7,-1466.88 233.7,-1446.38 48.2,-1446.38"/>
<text text-anchor="start" x="135.32" y="-1452.58" font-family="Times,serif" font-style="italic" font-size="14.00">...</text>
<polygon fill="black" stroke="black" points="46.2,-1512.88 46.2,-1512.88 235.7,-1512.88 235.7,-1512.88 46.2,-1512.88"/>
</g>
<!-- intron_supporting_evidence&#45;&gt;seq_region -->
<g id="edge11" class="edge">
<title>intron_supporting_evidence:e&#45;&gt;seq_region:w</title>
<path fill="none" stroke="black" stroke-dasharray="5,2" d="M234.95,-1479.5C297.35,-1479.5 229.84,-2550.02 280.32,-2648.3"/>
<polygon fill="black" stroke="black" points="277.64,-2650.49 287.45,-2654.5 282.29,-2645.25 277.64,-2650.49"/>
</g>
<!-- marker_feature -->
<g id="node21" class="node">
<title>marker_feature</title>
<path fill="#3cb371" stroke="black" d="M189.32,-1422.62C189.32,-1422.62 92.57,-1422.62 92.57,-1422.62 86.57,-1422.62 80.57,-1416.62 80.57,-1410.62 80.57,-1410.62 80.57,-1332.38 80.57,-1332.38 80.57,-1326.38 86.57,-1320.38 92.57,-1320.38 92.57,-1320.38 189.32,-1320.38 189.32,-1320.38 195.32,-1320.38 201.32,-1326.38 201.32,-1332.38 201.32,-1332.38 201.32,-1410.62 201.32,-1410.62 201.32,-1416.62 195.32,-1422.62 189.32,-1422.62"/>
<text text-anchor="start" x="92.57" y="-1399.42" font-family="Times,serif" font-size="16.00">marker_feature</text>
<polygon fill="white" stroke="none" points="90.57,-1371.38 90.57,-1391.88 191.32,-1391.88 191.32,-1371.38 90.57,-1371.38"/>
<text text-anchor="start" x="135.32" y="-1377.58" font-family="Times,serif" font-style="italic" font-size="14.00">...</text>
<polygon fill="white" stroke="none" points="90.57,-1348.88 90.57,-1369.38 191.32,-1369.38 191.32,-1348.88 90.57,-1348.88"/>
<text text-anchor="start" x="102.7" y="-1354.08" font-family="Times,serif" font-size="14.00">seq_region_id</text>
<polygon fill="white" stroke="none" points="90.57,-1326.38 90.57,-1346.88 191.32,-1346.88 191.32,-1326.38 90.57,-1326.38"/>
<text text-anchor="start" x="135.32" y="-1332.58" font-family="Times,serif" font-style="italic" font-size="14.00">...</text>
<polygon fill="black" stroke="black" points="88.57,-1392.88 88.57,-1392.88 193.32,-1392.88 193.32,-1392.88 88.57,-1392.88"/>
</g>
<!-- marker_feature&#45;&gt;seq_region -->
<g id="edge13" class="edge">
<title>marker_feature:e&#45;&gt;seq_region:w</title>
<path fill="none" stroke="black" stroke-dasharray="5,2" d="M191.95,-1359.5C233.53,-1359.5 237.1,-1392.56 251.7,-1431.5 295.83,-1549.2 272.25,-2437.02 279.7,-2562.5 281.9,-2599.57 253.95,-2644.74 277.74,-2653.85"/>
<polygon fill="black" stroke="black" points="277.03,-2657.44 287.45,-2655.5 278.1,-2650.52 277.03,-2657.44"/>
</g>
<!-- misc_feature -->
<g id="node22" class="node">
<title>misc_feature</title>
<path fill="#3cb371" stroke="black" d="M181.82,-1302.62C181.82,-1302.62 100.07,-1302.62 100.07,-1302.62 94.07,-1302.62 88.07,-1296.62 88.07,-1290.62 88.07,-1290.62 88.07,-1212.38 88.07,-1212.38 88.07,-1206.38 94.07,-1200.38 100.07,-1200.38 100.07,-1200.38 181.82,-1200.38 181.82,-1200.38 187.82,-1200.38 193.82,-1206.38 193.82,-1212.38 193.82,-1212.38 193.82,-1290.62 193.82,-1290.62 193.82,-1296.62 187.82,-1302.62 181.82,-1302.62"/>
<text text-anchor="start" x="100.07" y="-1279.42" font-family="Times,serif" font-size="16.00">misc_feature</text>
<polygon fill="white" stroke="none" points="98.07,-1251.38 98.07,-1271.88 183.82,-1271.88 183.82,-1251.38 98.07,-1251.38"/>
<text text-anchor="start" x="135.32" y="-1257.58" font-family="Times,serif" font-style="italic" font-size="14.00">...</text>
<polygon fill="white" stroke="none" points="98.07,-1228.88 98.07,-1249.38 183.82,-1249.38 183.82,-1228.88 98.07,-1228.88"/>
<text text-anchor="start" x="102.7" y="-1234.08" font-family="Times,serif" font-size="14.00">seq_region_id</text>
<polygon fill="white" stroke="none" points="98.07,-1206.38 98.07,-1226.88 183.82,-1226.88 183.82,-1206.38 98.07,-1206.38"/>
<text text-anchor="start" x="135.32" y="-1212.58" font-family="Times,serif" font-style="italic" font-size="14.00">...</text>
<polygon fill="black" stroke="black" points="96.07,-1272.88 96.07,-1272.88 185.82,-1272.88 185.82,-1272.88 96.07,-1272.88"/>
</g>
<!-- misc_feature&#45;&gt;seq_region -->
<g id="edge16" class="edge">
<title>misc_feature:e&#45;&gt;seq_region:w</title>
<path fill="none" stroke="black" stroke-dasharray="5,2" d="M184.95,-1239.5C228.59,-1239.5 235.31,-1271.06 251.7,-1311.5 277.81,-1375.93 275.66,-2493.1 279.7,-2562.5 281.86,-2599.57 253.94,-2644.74 277.74,-2653.85"/>
<polygon fill="black" stroke="black" points="277.03,-2657.44 287.45,-2655.5 278.1,-2650.52 277.03,-2657.44"/>
</g>
<!-- operon -->
<g id="node23" class="node">
<title>operon</title>
<path fill="#ff8500" stroke="black" d="M179.2,-425.62C179.2,-425.62 102.7,-425.62 102.7,-425.62 96.7,-425.62 90.7,-419.62 90.7,-413.62 90.7,-413.62 90.7,-335.38 90.7,-335.38 90.7,-329.38 96.7,-323.38 102.7,-323.38 102.7,-323.38 179.2,-323.38 179.2,-323.38 185.2,-323.38 191.2,-329.38 191.2,-335.38 191.2,-335.38 191.2,-413.62 191.2,-413.62 191.2,-419.62 185.2,-425.62 179.2,-425.62"/>
<text text-anchor="start" x="118.45" y="-402.43" font-family="Times,serif" font-size="16.00">operon</text>
<polygon fill="white" stroke="none" points="100.7,-374.38 100.7,-394.88 181.2,-394.88 181.2,-374.38 100.7,-374.38"/>
<text text-anchor="start" x="135.32" y="-380.57" font-family="Times,serif" font-style="italic" font-size="14.00">...</text>
<polygon fill="white" stroke="none" points="100.7,-351.88 100.7,-372.38 181.2,-372.38 181.2,-351.88 100.7,-351.88"/>
<text text-anchor="start" x="102.7" y="-357.07" font-family="Times,serif" font-size="14.00">seq_region_id</text>
<polygon fill="white" stroke="none" points="100.7,-329.38 100.7,-349.88 181.2,-349.88 181.2,-329.38 100.7,-329.38"/>
<text text-anchor="start" x="135.32" y="-335.57" font-family="Times,serif" font-style="italic" font-size="14.00">...</text>
<polygon fill="black" stroke="black" points="98.7,-395.88 98.7,-395.88 183.2,-395.88 183.2,-395.88 98.7,-395.88"/>
</g>
<!-- operon&#45;&gt;seq_region -->
<g id="edge17" class="edge">
<title>operon:e&#45;&gt;seq_region:w</title>
<path fill="none" stroke="black" stroke-dasharray="5,2" d="M181.95,-362.5C238.35,-362.5 235.16,-414.58 251.7,-468.5 268.86,-524.43 230.71,-2500.35 282.1,-2646.92"/>
<polygon fill="black" stroke="black" points="279.69,-2648.54 288.45,-2654.5 285.32,-2644.38 279.69,-2648.54"/>
</g>
<!-- operon_transcript -->
<g id="node24" class="node">
<title>operon_transcript</title>
<path fill="#ff8500" stroke="black" d="M197.57,-305.62C197.57,-305.62 84.32,-305.62 84.32,-305.62 78.32,-305.62 72.32,-299.62 72.32,-293.62 72.32,-293.62 72.32,-215.38 72.32,-215.38 72.32,-209.38 78.32,-203.38 84.32,-203.38 84.32,-203.38 197.57,-203.38 197.57,-203.38 203.57,-203.38 209.57,-209.38 209.57,-215.38 209.57,-215.38 209.57,-293.62 209.57,-293.62 209.57,-299.62 203.57,-305.62 197.57,-305.62"/>
<text text-anchor="start" x="84.32" y="-282.43" font-family="Times,serif" font-size="16.00">operon_transcript</text>
<polygon fill="white" stroke="none" points="82.32,-254.38 82.32,-274.88 199.57,-274.88 199.57,-254.38 82.32,-254.38"/>
<text text-anchor="start" x="135.32" y="-260.57" font-family="Times,serif" font-style="italic" font-size="14.00">...</text>
<polygon fill="white" stroke="none" points="82.32,-231.88 82.32,-252.38 199.57,-252.38 199.57,-231.88 82.32,-231.88"/>
<text text-anchor="start" x="102.7" y="-237.07" font-family="Times,serif" font-size="14.00">seq_region_id</text>
<polygon fill="white" stroke="none" points="82.32,-209.38 82.32,-229.88 199.57,-229.88 199.57,-209.38 82.32,-209.38"/>
<text text-anchor="start" x="135.32" y="-215.57" font-family="Times,serif" font-style="italic" font-size="14.00">...</text>
<polygon fill="black" stroke="black" points="80.32,-275.88 80.32,-275.88 201.57,-275.88 201.57,-275.88 80.32,-275.88"/>
</g>
<!-- operon_transcript&#45;&gt;seq_region -->
<g id="edge18" class="edge">
<title>operon_transcript:e&#45;&gt;seq_region:w</title>
<path fill="none" stroke="black" stroke-dasharray="5,2" d="M200.95,-242.5C240.1,-242.5 239.64,-277.25 251.7,-314.5 290.18,-433.32 273.07,-2437.78 279.7,-2562.5 281.67,-2599.58 253.9,-2644.74 277.73,-2653.85"/>
<polygon fill="black" stroke="black" points="277.03,-2657.44 287.45,-2655.5 278.1,-2650.52 277.03,-2657.44"/>
</g>
<!-- prediction_exon -->
<g id="node25" class="node">
<title>prediction_exon</title>
<path fill="#3cb371" stroke="black" d="M193.45,-1182.62C193.45,-1182.62 88.45,-1182.62 88.45,-1182.62 82.45,-1182.62 76.45,-1176.62 76.45,-1170.62 76.45,-1170.62 76.45,-1092.38 76.45,-1092.38 76.45,-1086.38 82.45,-1080.38 88.45,-1080.38 88.45,-1080.38 193.45,-1080.38 193.45,-1080.38 199.45,-1080.38 205.45,-1086.38 205.45,-1092.38 205.45,-1092.38 205.45,-1170.62 205.45,-1170.62 205.45,-1176.62 199.45,-1182.62 193.45,-1182.62"/>
<text text-anchor="start" x="88.45" y="-1159.42" font-family="Times,serif" font-size="16.00">prediction_exon</text>
<polygon fill="white" stroke="none" points="86.45,-1131.38 86.45,-1151.88 195.45,-1151.88 195.45,-1131.38 86.45,-1131.38"/>
<text text-anchor="start" x="135.32" y="-1137.58" font-family="Times,serif" font-style="italic" font-size="14.00">...</text>
<polygon fill="white" stroke="none" points="86.45,-1108.88 86.45,-1129.38 195.45,-1129.38 195.45,-1108.88 86.45,-1108.88"/>
<text text-anchor="start" x="102.7" y="-1114.08" font-family="Times,serif" font-size="14.00">seq_region_id</text>
<polygon fill="white" stroke="none" points="86.45,-1086.38 86.45,-1106.88 195.45,-1106.88 195.45,-1086.38 86.45,-1086.38"/>
<text text-anchor="start" x="135.32" y="-1092.58" font-family="Times,serif" font-style="italic" font-size="14.00">...</text>
<polygon fill="black" stroke="black" points="84.45,-1152.88 84.45,-1152.88 197.45,-1152.88 197.45,-1152.88 84.45,-1152.88"/>
</g>
<!-- prediction_exon&#45;&gt;seq_region -->
<g id="edge19" class="edge">
<title>prediction_exon:e&#45;&gt;seq_region:w</title>
<path fill="none" stroke="black" stroke-dasharray="5,2" d="M196.95,-1119.5C237.15,-1119.5 238.47,-1153.54 251.7,-1191.5 276.77,-1263.44 275.35,-2486.44 279.7,-2562.5 281.82,-2599.58 253.93,-2644.74 277.74,-2653.85"/>
<polygon fill="black" stroke="black" points="277.03,-2657.44 287.45,-2655.5 278.1,-2650.52 277.03,-2657.44"/>
</g>
<!-- prediction_transcript -->
<g id="node26" class="node">
<title>prediction_transcript</title>
<path fill="#3cb371" stroke="black" d="M207.7,-1062.62C207.7,-1062.62 74.2,-1062.62 74.2,-1062.62 68.2,-1062.62 62.2,-1056.62 62.2,-1050.62 62.2,-1050.62 62.2,-972.38 62.2,-972.38 62.2,-966.38 68.2,-960.38 74.2,-960.38 74.2,-960.38 207.7,-960.38 207.7,-960.38 213.7,-960.38 219.7,-966.38 219.7,-972.38 219.7,-972.38 219.7,-1050.62 219.7,-1050.62 219.7,-1056.62 213.7,-1062.62 207.7,-1062.62"/>
<text text-anchor="start" x="74.2" y="-1039.42" font-family="Times,serif" font-size="16.00">prediction_transcript</text>
<polygon fill="white" stroke="none" points="72.2,-1011.38 72.2,-1031.88 209.7,-1031.88 209.7,-1011.38 72.2,-1011.38"/>
<text text-anchor="start" x="135.32" y="-1017.58" font-family="Times,serif" font-style="italic" font-size="14.00">...</text>
<polygon fill="white" stroke="none" points="72.2,-988.88 72.2,-1009.38 209.7,-1009.38 209.7,-988.88 72.2,-988.88"/>
<text text-anchor="start" x="102.7" y="-994.08" font-family="Times,serif" font-size="14.00">seq_region_id</text>
<polygon fill="white" stroke="none" points="72.2,-966.38 72.2,-986.88 209.7,-986.88 209.7,-966.38 72.2,-966.38"/>
<text text-anchor="start" x="135.32" y="-972.58" font-family="Times,serif" font-style="italic" font-size="14.00">...</text>
<polygon fill="black" stroke="black" points="70.2,-1032.88 70.2,-1032.88 211.7,-1032.88 211.7,-1032.88 70.2,-1032.88"/>
</g>
<!-- prediction_transcript&#45;&gt;seq_region -->
<g id="edge20" class="edge">
<title>prediction_transcript:e&#45;&gt;seq_region:w</title>
<path fill="none" stroke="black" stroke-dasharray="5,2" d="M210.95,-999.5C247.72,-999.5 242,-1036.03 251.7,-1071.5 295.4,-1231.33 270.38,-2397.07 279.7,-2562.5 281.79,-2599.58 253.92,-2644.74 277.74,-2653.85"/>
<polygon fill="black" stroke="black" points="277.03,-2657.44 287.45,-2655.5 278.1,-2650.52 277.03,-2657.44"/>
</g>
<!-- protein_align_feature -->
<g id="node27" class="node">
<title>protein_align_feature</title>
<path fill="#808000" stroke="black" d="M209.95,-1819.62C209.95,-1819.62 71.95,-1819.62 71.95,-1819.62 65.95,-1819.62 59.95,-1813.62 59.95,-1807.62 59.95,-1807.62 59.95,-1729.38 59.95,-1729.38 59.95,-1723.38 65.95,-1717.38 71.95,-1717.38 71.95,-1717.38 209.95,-1717.38 209.95,-1717.38 215.95,-1717.38 221.95,-1723.38 221.95,-1729.38 221.95,-1729.38 221.95,-1807.62 221.95,-1807.62 221.95,-1813.62 215.95,-1819.62 209.95,-1819.62"/>
<text text-anchor="start" x="71.95" y="-1796.42" font-family="Times,serif" font-size="16.00">protein_align_feature</text>
<polygon fill="white" stroke="none" points="69.95,-1768.38 69.95,-1788.88 211.95,-1788.88 211.95,-1768.38 69.95,-1768.38"/>
<text text-anchor="start" x="135.32" y="-1774.58" font-family="Times,serif" font-style="italic" font-size="14.00">...</text>
<polygon fill="white" stroke="none" points="69.95,-1745.88 69.95,-1766.38 211.95,-1766.38 211.95,-1745.88 69.95,-1745.88"/>
<text text-anchor="start" x="102.7" y="-1751.08" font-family="Times,serif" font-size="14.00">seq_region_id</text>
<polygon fill="white" stroke="none" points="69.95,-1723.38 69.95,-1743.88 211.95,-1743.88 211.95,-1723.38 69.95,-1723.38"/>
<text text-anchor="start" x="135.32" y="-1729.58" font-family="Times,serif" font-style="italic" font-size="14.00">...</text>
<polygon fill="black" stroke="black" points="67.95,-1789.88 67.95,-1789.88 213.95,-1789.88 213.95,-1789.88 67.95,-1789.88"/>
</g>
<!-- protein_align_feature&#45;&gt;seq_region -->
<g id="edge21" class="edge">
<title>protein_align_feature:e&#45;&gt;seq_region:w</title>
<path fill="none" stroke="black" stroke-dasharray="5,2" d="M212.95,-1756.5C249.29,-1756.5 242.15,-1793.44 251.7,-1828.5 294.6,-1985.99 268.94,-2399.63 279.7,-2562.5 282.15,-2599.56 254,-2644.73 277.75,-2653.85"/>
<polygon fill="black" stroke="black" points="277.03,-2657.44 287.45,-2655.5 278.1,-2650.52 277.03,-2657.44"/>
</g>
<!-- repeat_feature -->
<g id="node28" class="node">
<title>repeat_feature</title>
<path fill="#3cb371" stroke="black" d="M185.95,-942.62C185.95,-942.62 95.95,-942.62 95.95,-942.62 89.95,-942.62 83.95,-936.62 83.95,-930.62 83.95,-930.62 83.95,-852.38 83.95,-852.38 83.95,-846.38 89.95,-840.38 95.95,-840.38 95.95,-840.38 185.95,-840.38 185.95,-840.38 191.95,-840.38 197.95,-846.38 197.95,-852.38 197.95,-852.38 197.95,-930.62 197.95,-930.62 197.95,-936.62 191.95,-942.62 185.95,-942.62"/>
<text text-anchor="start" x="95.95" y="-919.42" font-family="Times,serif" font-size="16.00">repeat_feature</text>
<polygon fill="white" stroke="none" points="93.95,-891.38 93.95,-911.88 187.95,-911.88 187.95,-891.38 93.95,-891.38"/>
<text text-anchor="start" x="135.32" y="-897.58" font-family="Times,serif" font-style="italic" font-size="14.00">...</text>
<polygon fill="white" stroke="none" points="93.95,-868.88 93.95,-889.38 187.95,-889.38 187.95,-868.88 93.95,-868.88"/>
<text text-anchor="start" x="102.7" y="-874.08" font-family="Times,serif" font-size="14.00">seq_region_id</text>
<polygon fill="white" stroke="none" points="93.95,-846.38 93.95,-866.88 187.95,-866.88 187.95,-846.38 93.95,-846.38"/>
<text text-anchor="start" x="135.32" y="-852.58" font-family="Times,serif" font-style="italic" font-size="14.00">...</text>
<polygon fill="black" stroke="black" points="91.95,-912.88 91.95,-912.88 189.95,-912.88 189.95,-912.88 91.95,-912.88"/>
</g>
<!-- repeat_feature&#45;&gt;seq_region -->
<g id="edge22" class="edge">
<title>repeat_feature:e&#45;&gt;seq_region:w</title>
<path fill="none" stroke="black" stroke-dasharray="5,2" d="M188.95,-879.5C231.4,-879.5 236.46,-911.88 251.7,-951.5 283.83,-1035.05 274.73,-2473.12 279.7,-2562.5 281.76,-2599.58 253.92,-2644.74 277.74,-2653.85"/>
<polygon fill="black" stroke="black" points="277.03,-2657.44 287.45,-2655.5 278.1,-2650.52 277.03,-2657.44"/>
</g>
<!-- seq_region_mapping -->
<g id="node29" class="node">
<title>seq_region_mapping</title>
<path fill="#ff6666" stroke="black" d="M208.82,-148.62C208.82,-148.62 73.07,-148.62 73.07,-148.62 67.07,-148.62 61.07,-142.62 61.07,-136.62 61.07,-136.62 61.07,-58.38 61.07,-58.38 61.07,-52.38 67.07,-46.38 73.07,-46.38 73.07,-46.38 208.82,-46.38 208.82,-46.38 214.82,-46.38 220.82,-52.38 220.82,-58.38 220.82,-58.38 220.82,-136.62 220.82,-136.62 220.82,-142.62 214.82,-148.62 208.82,-148.62"/>
<text text-anchor="start" x="73.07" y="-125.42" font-family="Times,serif" font-size="16.00">seq_region_mapping</text>
<polygon fill="white" stroke="none" points="71.07,-97.38 71.07,-117.88 210.82,-117.88 210.82,-97.38 71.07,-97.38"/>
<text text-anchor="start" x="135.32" y="-103.58" font-family="Times,serif" font-style="italic" font-size="14.00">...</text>
<polygon fill="white" stroke="none" points="71.07,-74.88 71.07,-95.38 210.82,-95.38 210.82,-74.88 71.07,-74.88"/>
<text text-anchor="start" x="78.7" y="-80.08" font-family="Times,serif" font-size="14.00">internal_seq_region_id</text>
<polygon fill="white" stroke="none" points="71.07,-52.38 71.07,-72.88 210.82,-72.88 210.82,-52.38 71.07,-52.38"/>
<text text-anchor="start" x="135.32" y="-58.58" font-family="Times,serif" font-style="italic" font-size="14.00">...</text>
<polygon fill="black" stroke="black" points="69.07,-118.88 69.07,-118.88 212.82,-118.88 212.82,-118.88 69.07,-118.88"/>
</g>
<!-- seq_region_mapping&#45;&gt;seq_region -->
<g id="edge26" class="edge">
<title>seq_region_mapping:e&#45;&gt;seq_region:w</title>
<path fill="none" stroke="black" stroke-dasharray="5,2" d="M211.95,-85.5C262.26,-85.5 242.43,-142.05 251.7,-191.5 257.77,-223.86 254.5,-2473.85 284.7,-2645.19"/>
<polygon fill="black" stroke="black" points="281.74,-2646.3 288.45,-2654.5 288.32,-2643.91 281.74,-2646.3"/>
</g>
<!-- simple_feature -->
<g id="node30" class="node">
<title>simple_feature</title>
<path fill="#3cb371" stroke="black" d="M188.2,-822.62C188.2,-822.62 93.7,-822.62 93.7,-822.62 87.7,-822.62 81.7,-816.62 81.7,-810.62 81.7,-810.62 81.7,-732.38 81.7,-732.38 81.7,-726.38 87.7,-720.38 93.7,-720.38 93.7,-720.38 188.2,-720.38 188.2,-720.38 194.2,-720.38 200.2,-726.38 200.2,-732.38 200.2,-732.38 200.2,-810.62 200.2,-810.62 200.2,-816.62 194.2,-822.62 188.2,-822.62"/>
<text text-anchor="start" x="93.7" y="-799.42" font-family="Times,serif" font-size="16.00">simple_feature</text>
<polygon fill="white" stroke="none" points="91.7,-771.38 91.7,-791.88 190.2,-791.88 190.2,-771.38 91.7,-771.38"/>
<text text-anchor="start" x="135.32" y="-777.58" font-family="Times,serif" font-style="italic" font-size="14.00">...</text>
<polygon fill="white" stroke="none" points="91.7,-748.88 91.7,-769.38 190.2,-769.38 190.2,-748.88 91.7,-748.88"/>
<text text-anchor="start" x="102.7" y="-754.08" font-family="Times,serif" font-size="14.00">seq_region_id</text>
<polygon fill="white" stroke="none" points="91.7,-726.38 91.7,-746.88 190.2,-746.88 190.2,-726.38 91.7,-726.38"/>
<text text-anchor="start" x="135.32" y="-732.58" font-family="Times,serif" font-style="italic" font-size="14.00">...</text>
<polygon fill="black" stroke="black" points="89.7,-792.88 89.7,-792.88 192.2,-792.88 192.2,-792.88 89.7,-792.88"/>
</g>
<!-- simple_feature&#45;&gt;seq_region -->
<g id="edge28" class="edge">
<title>simple_feature:e&#45;&gt;seq_region:w</title>
<path fill="none" stroke="black" stroke-dasharray="5,2" d="M190.95,-759.5C232.82,-759.5 237.01,-792.29 251.7,-831.5 285.45,-921.56 274.41,-2466.47 279.7,-2562.5 281.74,-2599.58 253.91,-2644.74 277.74,-2653.85"/>
<polygon fill="black" stroke="black" points="277.03,-2657.44 287.45,-2655.5 278.1,-2650.52 277.03,-2657.44"/>
</g>
<!-- transcript -->
<g id="node31" class="node">
<title>transcript</title>
<path fill="#808000" stroke="black" d="M179.2,-1699.62C179.2,-1699.62 102.7,-1699.62 102.7,-1699.62 96.7,-1699.62 90.7,-1693.62 90.7,-1687.62 90.7,-1687.62 90.7,-1609.38 90.7,-1609.38 90.7,-1603.38 96.7,-1597.38 102.7,-1597.38 102.7,-1597.38 179.2,-1597.38 179.2,-1597.38 185.2,-1597.38 191.2,-1603.38 191.2,-1609.38 191.2,-1609.38 191.2,-1687.62 191.2,-1687.62 191.2,-1693.62 185.2,-1699.62 179.2,-1699.62"/>
<text text-anchor="start" x="110.95" y="-1676.42" font-family="Times,serif" font-size="16.00">transcript</text>
<polygon fill="white" stroke="none" points="100.7,-1648.38 100.7,-1668.88 181.2,-1668.88 181.2,-1648.38 100.7,-1648.38"/>
<text text-anchor="start" x="135.32" y="-1654.58" font-family="Times,serif" font-style="italic" font-size="14.00">...</text>
<polygon fill="white" stroke="none" points="100.7,-1625.88 100.7,-1646.38 181.2,-1646.38 181.2,-1625.88 100.7,-1625.88"/>
<text text-anchor="start" x="102.7" y="-1631.08" font-family="Times,serif" font-size="14.00">seq_region_id</text>
<polygon fill="white" stroke="none" points="100.7,-1603.38 100.7,-1623.88 181.2,-1623.88 181.2,-1603.38 100.7,-1603.38"/>
<text text-anchor="start" x="135.32" y="-1609.58" font-family="Times,serif" font-style="italic" font-size="14.00">...</text>
<polygon fill="black" stroke="black" points="98.7,-1669.88 98.7,-1669.88 183.2,-1669.88 183.2,-1669.88 98.7,-1669.88"/>
</g>
<!-- transcript&#45;&gt;seq_region -->
<g id="edge29" class="edge">
<title>transcript:e&#45;&gt;seq_region:w</title>
<path fill="none" stroke="black" stroke-dasharray="5,2" d="M181.95,-1636.5C351.01,-1636.5 217.59,-1582.5 279.7,-2562.5 282.05,-2599.56 253.98,-2644.74 277.75,-2653.85"/>
<polygon fill="black" stroke="black" points="277.03,-2657.44 287.45,-2655.5 278.1,-2650.52 277.03,-2657.44"/>
</g>
</g>
</svg>
