<?xml version="1.0" encoding="UTF-8" standalone="no"?>
<!DOCTYPE svg PUBLIC "-//W3C//DTD SVG 1.1//EN"
 "http://www.w3.org/Graphics/SVG/1.1/DTD/svg11.dtd">
<!-- Generated by graphviz version 2.30.1 (20140821.0912)
 -->
<!-- Title: test Pages: 1 -->
<svg width="804pt" height="1621pt"
 viewBox="0.00 0.00 804.00 1621.00" xmlns="http://www.w3.org/2000/svg" xmlns:xlink="http://www.w3.org/1999/xlink">
<g id="graph0" class="graph" transform="scale(1 1) rotate(0) translate(4 1617)">
<title>test</title>
<polygon fill="white" stroke="white" points="-4,5 -4,-1617 801,-1617 801,5 -4,5"/>
<text text-anchor="middle" x="398" y="-10" font-family="Times,serif" font-size="20.00">Core schema diagram: External References tables</text>
<g id="clust1" class="cluster"><title>cluster_external_references</title>
<path fill="#d2e8ff" stroke="#d2e8ff" d="M20,-610C20,-610 776,-610 776,-610 782,-610 788,-616 788,-622 788,-622 788,-1593 788,-1593 788,-1599 782,-1605 776,-1605 776,-1605 20,-1605 20,-1605 14,-1605 8,-1599 8,-1593 8,-1593 8,-622 8,-622 8,-616 14,-610 20,-610"/>
<text text-anchor="middle" x="398" y="-1585" font-family="Times,serif" font-size="20.00">External References</text>
</g>
<g id="clust2" class="cluster"><title>cluster_fundamental_tables</title>
<polygon fill="white" stroke="white" points="400,-38 400,-602 580,-602 580,-38 400,-38"/>
<text text-anchor="middle" x="490" y="-582" font-family="Times,serif" font-size="20.00">Fundamental Tables</text>
</g>
<!-- associated_group -->
<g id="node1" class="node"><title>associated_group</title>
<path fill="#1e90ff" stroke="black" d="M358,-921.5C358,-921.5 218,-921.5 218,-921.5 212,-921.5 206,-915.5 206,-909.5 206,-909.5 206,-860.5 206,-860.5 206,-854.5 212,-848.5 218,-848.5 218,-848.5 358,-848.5 358,-848.5 364,-848.5 370,-854.5 370,-860.5 370,-860.5 370,-909.5 370,-909.5 370,-915.5 364,-921.5 358,-921.5"/>
<text text-anchor="start" x="232" y="-900.7" font-family="Times,serif" font-size="16.00">associated_group</text>
<polygon fill="white" stroke="none" points="216,-874 216,-892 360,-892 360,-874 216,-874"/>
<text text-anchor="start" x="218.5" y="-879.8" font-family="Times,serif" font-weight="bold" font-size="14.00">PK</text>
<text text-anchor="start" x="238.5" y="-879.8" font-family="Times,serif" font-size="14.00">  associated_group_id</text>
<polygon fill="white" stroke="none" points="216,-854 216,-872 360,-872 360,-854 216,-854"/>
<text text-anchor="start" x="257.5" y="-859.8" font-family="Times,serif" font-size="14.00">description</text>
<polygon fill="black" stroke="black" points="214,-893 214,-893 362,-893 362,-893 214,-893"/>
</g>
<!-- associated_xref -->
<g id="node2" class="node"><title>associated_xref</title>
<path fill="#1e90ff" stroke="black" d="M158,-1133.5C158,-1133.5 28,-1133.5 28,-1133.5 22,-1133.5 16,-1127.5 16,-1121.5 16,-1121.5 16,-972.5 16,-972.5 16,-966.5 22,-960.5 28,-960.5 28,-960.5 158,-960.5 158,-960.5 164,-960.5 170,-966.5 170,-972.5 170,-972.5 170,-1121.5 170,-1121.5 170,-1127.5 164,-1133.5 158,-1133.5"/>
<text text-anchor="start" x="43.5" y="-1112.7" font-family="Times,serif" font-size="16.00">associated_xref</text>
<polygon fill="white" stroke="none" points="26,-1086 26,-1104 160,-1104 160,-1086 26,-1086"/>
<text text-anchor="start" x="28.5" y="-1091.8" font-family="Times,serif" font-weight="bold" font-size="14.00">PK</text>
<text text-anchor="start" x="48.5" y="-1091.8" font-family="Times,serif" font-size="14.00">  associated_xref_id</text>
<polygon fill="white" stroke="none" points="26,-1066 26,-1084 160,-1084 160,-1066 26,-1066"/>
<text text-anchor="start" x="53.5" y="-1071.8" font-family="Times,serif" font-size="14.00">object_xref_id</text>
<polygon fill="white" stroke="none" points="26,-1046 26,-1064 160,-1064 160,-1046 26,-1046"/>
<text text-anchor="start" x="73" y="-1051.8" font-family="Times,serif" font-size="14.00">xref_id</text>
<polygon fill="white" stroke="none" points="26,-1026 26,-1044 160,-1044 160,-1026 26,-1026"/>
<text text-anchor="start" x="52" y="-1031.8" font-family="Times,serif" font-size="14.00">source_xref_id</text>
<polygon fill="white" stroke="none" points="26,-1006 26,-1024 160,-1024 160,-1006 26,-1006"/>
<text text-anchor="start" x="52" y="-1011.8" font-family="Times,serif" font-size="14.00">condition_type</text>
<polygon fill="white" stroke="none" points="26,-986 26,-1004 160,-1004 160,-986 26,-986"/>
<text text-anchor="start" x="37" y="-991.8" font-family="Times,serif" font-size="14.00">associated_group_id</text>
<polygon fill="white" stroke="none" points="26,-966 26,-984 160,-984 160,-966 26,-966"/>
<text text-anchor="start" x="80.5" y="-971.8" font-family="Times,serif" font-size="14.00">rank</text>
<polygon fill="black" stroke="black" points="24,-1105 24,-1105 162,-1105 162,-1105 24,-1105"/>
</g>
<!-- associated_xref&#45;&gt;associated_group -->
<g id="edge1" class="edge"><title>associated_xref:portassociated_group_id:e&#45;&gt;associated_group:portassociated_group_id:w</title>
<path fill="none" stroke="black" stroke-dasharray="5,2" d="M161,-995C212.376,-995 167.134,-898.196 204.924,-884.583"/>
<polygon fill="black" stroke="black" points="205.665,-888.01 215,-883 204.578,-881.095 205.665,-888.01"/>
</g>
<!-- object_xref -->
<g id="node9" class="node"><title>object_xref</title>
<path fill="#1e90ff" stroke="black" d="M346.5,-1113.5C346.5,-1113.5 229.5,-1113.5 229.5,-1113.5 223.5,-1113.5 217.5,-1107.5 217.5,-1101.5 217.5,-1101.5 217.5,-972.5 217.5,-972.5 217.5,-966.5 223.5,-960.5 229.5,-960.5 229.5,-960.5 346.5,-960.5 346.5,-960.5 352.5,-960.5 358.5,-966.5 358.5,-972.5 358.5,-972.5 358.5,-1101.5 358.5,-1101.5 358.5,-1107.5 352.5,-1113.5 346.5,-1113.5"/>
<text text-anchor="start" x="252" y="-1092.7" font-family="Times,serif" font-size="16.00">object_xref</text>
<polygon fill="white" stroke="none" points="228,-1066 228,-1084 349,-1084 349,-1066 228,-1066"/>
<text text-anchor="start" x="235" y="-1071.8" font-family="Times,serif" font-weight="bold" font-size="14.00">PK</text>
<text text-anchor="start" x="255" y="-1071.8" font-family="Times,serif" font-size="14.00">  object_xref_id</text>
<polygon fill="white" stroke="none" points="228,-1046 228,-1064 349,-1064 349,-1046 228,-1046"/>
<text text-anchor="start" x="256.5" y="-1051.8" font-family="Times,serif" font-size="14.00">ensembl_id</text>
<polygon fill="white" stroke="none" points="228,-1026 228,-1044 349,-1044 349,-1026 228,-1026"/>
<text text-anchor="start" x="230.5" y="-1031.8" font-family="Times,serif" font-size="14.00">ensembl_object_type</text>
<polygon fill="white" stroke="none" points="228,-1006 228,-1024 349,-1024 349,-1006 228,-1006"/>
<text text-anchor="start" x="268.5" y="-1011.8" font-family="Times,serif" font-size="14.00">xref_id</text>
<polygon fill="white" stroke="none" points="228,-986 228,-1004 349,-1004 349,-986 228,-986"/>
<text text-anchor="start" x="236.5" y="-991.8" font-family="Times,serif" font-size="14.00">linkage_annotation</text>
<polygon fill="white" stroke="none" points="228,-966 228,-984 349,-984 349,-966 228,-966"/>
<text text-anchor="start" x="258" y="-971.8" font-family="Times,serif" font-size="14.00">analysis_id</text>
<polygon fill="black" stroke="black" points="226,-1085 226,-1085 351,-1085 351,-1085 226,-1085"/>
</g>
<!-- associated_xref&#45;&gt;object_xref -->
<g id="edge2" class="edge"><title>associated_xref:portobject_xref_id:e&#45;&gt;object_xref:portobject_xref_id:w</title>
<path fill="none" stroke="black" stroke-dasharray="5,2" d="M161,-1075C186.667,-1075 195.49,-1075 216.945,-1075"/>
<polygon fill="black" stroke="black" points="217,-1078.5 227,-1075 217,-1071.5 217,-1078.5"/>
</g>
<!-- xref -->
<g id="node13" class="node"><title>xref</title>
<path fill="#1e90ff" stroke="black" d="M531.5,-871.5C531.5,-871.5 448.5,-871.5 448.5,-871.5 442.5,-871.5 436.5,-865.5 436.5,-859.5 436.5,-859.5 436.5,-690.5 436.5,-690.5 436.5,-684.5 442.5,-678.5 448.5,-678.5 448.5,-678.5 531.5,-678.5 531.5,-678.5 537.5,-678.5 543.5,-684.5 543.5,-690.5 543.5,-690.5 543.5,-859.5 543.5,-859.5 543.5,-865.5 537.5,-871.5 531.5,-871.5"/>
<text text-anchor="start" x="477.5" y="-850.7" font-family="Times,serif" font-size="16.00">xref</text>
<polygon fill="white" stroke="none" points="447,-824 447,-842 534,-842 534,-824 447,-824"/>
<text text-anchor="start" x="457" y="-829.8" font-family="Times,serif" font-weight="bold" font-size="14.00">PK</text>
<text text-anchor="start" x="477" y="-829.8" font-family="Times,serif" font-size="14.00">  xref_id</text>
<polygon fill="white" stroke="none" points="447,-804 447,-822 534,-822 534,-804 447,-804"/>
<text text-anchor="start" x="449.5" y="-809.8" font-family="Times,serif" font-size="14.00">external_db_id</text>
<polygon fill="white" stroke="none" points="447,-784 447,-802 534,-802 534,-784 447,-784"/>
<text text-anchor="start" x="449.5" y="-789.8" font-family="Times,serif" font-size="14.00">dbprimary_acc</text>
<polygon fill="white" stroke="none" points="447,-764 447,-782 534,-782 534,-764 447,-764"/>
<text text-anchor="start" x="454" y="-769.8" font-family="Times,serif" font-size="14.00">display_label</text>
<polygon fill="white" stroke="none" points="447,-744 447,-762 534,-762 534,-744 447,-744"/>
<text text-anchor="start" x="470.5" y="-749.8" font-family="Times,serif" font-size="14.00">version</text>
<polygon fill="white" stroke="none" points="447,-724 447,-742 534,-742 534,-724 447,-724"/>
<text text-anchor="start" x="460" y="-729.8" font-family="Times,serif" font-size="14.00">description</text>
<polygon fill="white" stroke="none" points="447,-704 447,-722 534,-722 534,-704 447,-704"/>
<text text-anchor="start" x="464.5" y="-709.8" font-family="Times,serif" font-size="14.00">info_type</text>
<polygon fill="white" stroke="none" points="447,-684 447,-702 534,-702 534,-684 447,-684"/>
<text text-anchor="start" x="466" y="-689.8" font-family="Times,serif" font-size="14.00">info_text</text>
<polygon fill="black" stroke="black" points="445,-843 445,-843 536,-843 536,-843 445,-843"/>
</g>
<!-- associated_xref&#45;&gt;xref -->
<g id="edge3" class="edge"><title>associated_xref:portxref_id:e&#45;&gt;xref:portxref_id:w</title>
<path fill="none" stroke="black" stroke-dasharray="5,2" d="M161,-1055C210.956,-1055 166.114,-982.078 206,-952 264.718,-907.721 308.56,-970.417 370,-930 391.651,-915.757 384.161,-900.512 400,-880 415.491,-859.938 416.727,-839.326 435.843,-834.205"/>
<polygon fill="black" stroke="black" points="436.482,-837.654 446,-833 435.657,-830.703 436.482,-837.654"/>
</g>
<!-- biotype -->
<g id="node3" class="node"><title>biotype</title>
<path fill="#1e90ff" stroke="black" d="M136.5,-1455.5C136.5,-1455.5 49.5,-1455.5 49.5,-1455.5 43.5,-1455.5 37.5,-1449.5 37.5,-1443.5 37.5,-1443.5 37.5,-1274.5 37.5,-1274.5 37.5,-1268.5 43.5,-1262.5 49.5,-1262.5 49.5,-1262.5 136.5,-1262.5 136.5,-1262.5 142.5,-1262.5 148.5,-1268.5 148.5,-1274.5 148.5,-1274.5 148.5,-1443.5 148.5,-1443.5 148.5,-1449.5 142.5,-1455.5 136.5,-1455.5"/>
<text text-anchor="start" x="69" y="-1434.7" font-family="Times,serif" font-size="16.00">biotype</text>
<polygon fill="white" stroke="none" points="48,-1408 48,-1426 139,-1426 139,-1408 48,-1408"/>
<text text-anchor="start" x="50.5" y="-1413.8" font-family="Times,serif" font-weight="bold" font-size="14.00">PK</text>
<text text-anchor="start" x="70.5" y="-1413.8" font-family="Times,serif" font-size="14.00">  biotype_id</text>
<polygon fill="white" stroke="none" points="48,-1388 48,-1406 139,-1406 139,-1388 48,-1388"/>
<text text-anchor="start" x="78" y="-1393.8" font-family="Times,serif" font-size="14.00">name</text>
<polygon fill="white" stroke="none" points="48,-1368 48,-1386 139,-1386 139,-1368 48,-1368"/>
<text text-anchor="start" x="61.5" y="-1373.8" font-family="Times,serif" font-size="14.00">object_type</text>
<polygon fill="white" stroke="none" points="48,-1348 48,-1366 139,-1366 139,-1348 48,-1348"/>
<text text-anchor="start" x="71.5" y="-1353.8" font-family="Times,serif" font-size="14.00">db_type</text>
<polygon fill="white" stroke="none" points="48,-1328 48,-1346 139,-1346 139,-1328 48,-1328"/>
<text text-anchor="start" x="55.5" y="-1333.8" font-family="Times,serif" font-size="14.00">attrib_type_id</text>
<polygon fill="white" stroke="none" points="48,-1308 48,-1326 139,-1326 139,-1308 48,-1308"/>
<text text-anchor="start" x="63" y="-1313.8" font-family="Times,serif" font-size="14.00">description</text>
<polygon fill="white" stroke="none" points="48,-1288 48,-1306 139,-1306 139,-1288 48,-1288"/>
<text text-anchor="start" x="54" y="-1293.8" font-family="Times,serif" font-size="14.00">biotype_group</text>
<polygon fill="white" stroke="none" points="48,-1268 48,-1286 139,-1286 139,-1268 48,-1268"/>
<text text-anchor="start" x="75" y="-1273.8" font-family="Times,serif" font-size="14.00">so_acc</text>
<polygon fill="black" stroke="black" points="46,-1427 46,-1427 141,-1427 141,-1427 46,-1427"/>
</g>
<!-- dependent_xref -->
<g id="node4" class="node"><title>dependent_xref</title>
<path fill="#1e90ff" stroke="black" d="M147,-1244.5C147,-1244.5 39,-1244.5 39,-1244.5 33,-1244.5 27,-1238.5 27,-1232.5 27,-1232.5 27,-1163.5 27,-1163.5 27,-1157.5 33,-1151.5 39,-1151.5 39,-1151.5 147,-1151.5 147,-1151.5 153,-1151.5 159,-1157.5 159,-1163.5 159,-1163.5 159,-1232.5 159,-1232.5 159,-1238.5 153,-1244.5 147,-1244.5"/>
<text text-anchor="start" x="43" y="-1223.7" font-family="Times,serif" font-size="16.00">dependent_xref</text>
<polygon fill="white" stroke="none" points="37,-1197 37,-1215 149,-1215 149,-1197 37,-1197"/>
<text text-anchor="start" x="39.5" y="-1202.8" font-family="Times,serif" font-weight="bold" font-size="14.00">PK</text>
<text text-anchor="start" x="59.5" y="-1202.8" font-family="Times,serif" font-size="14.00">  object_xref_id</text>
<polygon fill="white" stroke="none" points="37,-1177 37,-1195 149,-1195 149,-1177 37,-1177"/>
<text text-anchor="start" x="51.5" y="-1182.8" font-family="Times,serif" font-size="14.00">master_xref_id</text>
<polygon fill="white" stroke="none" points="37,-1157 37,-1175 149,-1175 149,-1157 37,-1157"/>
<text text-anchor="start" x="42" y="-1162.8" font-family="Times,serif" font-size="14.00">dependent_xref_id</text>
<polygon fill="black" stroke="black" points="35,-1216 35,-1216 151,-1216 151,-1216 35,-1216"/>
</g>
<!-- dependent_xref&#45;&gt;object_xref -->
<g id="edge4" class="edge"><title>dependent_xref:portobject_xref_id:e&#45;&gt;object_xref:portobject_xref_id:w</title>
<path fill="none" stroke="black" stroke-dasharray="5,2" d="M150,-1206C213.842,-1206 165.441,-1088.94 217.006,-1076.13"/>
<polygon fill="black" stroke="black" points="217.458,-1079.6 227,-1075 216.669,-1072.65 217.458,-1079.6"/>
</g>
<!-- dependent_xref&#45;&gt;xref -->
<g id="edge5" class="edge"><title>dependent_xref:portmaster_xref_id:e&#45;&gt;xref:portxref_id:w</title>
<path fill="none" stroke="black" stroke-dasharray="5,2" d="M289,-1186C316.802,-1149.5 347.493,-1161.98 370,-1122 433.369,-1009.43 319.718,-842.432 435.668,-833.384"/>
<polygon fill="black" stroke="black" points="436.137,-836.869 446,-833 435.877,-829.874 436.137,-836.869"/>
<path fill="none" stroke="black" stroke-dasharray="5,2" d="M150,-1186C180.444,-1186 268.552,-1210.22 287,-1186"/>
</g>
<!-- external_db -->
<g id="node5" class="node"><title>external_db</title>
<path fill="#1e90ff" stroke="black" d="M751.5,-851.5C751.5,-851.5 638.5,-851.5 638.5,-851.5 632.5,-851.5 626.5,-845.5 626.5,-839.5 626.5,-839.5 626.5,-630.5 626.5,-630.5 626.5,-624.5 632.5,-618.5 638.5,-618.5 638.5,-618.5 751.5,-618.5 751.5,-618.5 757.5,-618.5 763.5,-624.5 763.5,-630.5 763.5,-630.5 763.5,-839.5 763.5,-839.5 763.5,-845.5 757.5,-851.5 751.5,-851.5"/>
<text text-anchor="start" x="657.5" y="-830.7" font-family="Times,serif" font-size="16.00">external_db</text>
<polygon fill="white" stroke="none" points="637,-804 637,-822 754,-822 754,-804 637,-804"/>
<text text-anchor="start" x="641" y="-809.8" font-family="Times,serif" font-weight="bold" font-size="14.00">PK</text>
<text text-anchor="start" x="661" y="-809.8" font-family="Times,serif" font-size="14.00">  external_db_id</text>
<polygon fill="white" stroke="none" points="637,-784 637,-802 754,-802 754,-784 637,-784"/>
<text text-anchor="start" x="670" y="-789.8" font-family="Times,serif" font-size="14.00">db_name</text>
<polygon fill="white" stroke="none" points="637,-764 637,-782 754,-782 754,-764 637,-764"/>
<text text-anchor="start" x="666.5" y="-769.8" font-family="Times,serif" font-size="14.00">db_release</text>
<polygon fill="white" stroke="none" points="637,-744 637,-762 754,-762 754,-744 637,-744"/>
<text text-anchor="start" x="680" y="-749.8" font-family="Times,serif" font-size="14.00">status</text>
<polygon fill="white" stroke="none" points="637,-724 637,-742 754,-742 754,-724 637,-724"/>
<text text-anchor="start" x="675" y="-729.8" font-family="Times,serif" font-size="14.00">priority</text>
<polygon fill="white" stroke="none" points="637,-704 637,-722 754,-722 754,-704 637,-704"/>
<text text-anchor="start" x="647" y="-709.8" font-family="Times,serif" font-size="14.00">db_display_name</text>
<polygon fill="white" stroke="none" points="637,-684 637,-702 754,-702 754,-684 637,-684"/>
<text text-anchor="start" x="683.5" y="-689.8" font-family="Times,serif" font-size="14.00">type</text>
<polygon fill="white" stroke="none" points="637,-664 637,-682 754,-682 754,-664 637,-664"/>
<text text-anchor="start" x="639.5" y="-669.8" font-family="Times,serif" font-size="14.00">secondary_db_name</text>
<polygon fill="white" stroke="none" points="637,-644 637,-662 754,-662 754,-644 637,-644"/>
<text text-anchor="start" x="641" y="-649.8" font-family="Times,serif" font-size="14.00">secondary_db_table</text>
<polygon fill="white" stroke="none" points="637,-624 637,-642 754,-642 754,-624 637,-624"/>
<text text-anchor="start" x="665" y="-629.8" font-family="Times,serif" font-size="14.00">description</text>
<polygon fill="black" stroke="black" points="635,-823 635,-823 756,-823 756,-823 635,-823"/>
</g>
<!-- external_synonym -->
<g id="node6" class="node"><title>external_synonym</title>
<path fill="#1e90ff" stroke="black" d="M348.5,-1278.5C348.5,-1278.5 227.5,-1278.5 227.5,-1278.5 221.5,-1278.5 215.5,-1272.5 215.5,-1266.5 215.5,-1266.5 215.5,-1217.5 215.5,-1217.5 215.5,-1211.5 221.5,-1205.5 227.5,-1205.5 227.5,-1205.5 348.5,-1205.5 348.5,-1205.5 354.5,-1205.5 360.5,-1211.5 360.5,-1217.5 360.5,-1217.5 360.5,-1266.5 360.5,-1266.5 360.5,-1272.5 354.5,-1278.5 348.5,-1278.5"/>
<text text-anchor="start" x="228.5" y="-1257.7" font-family="Times,serif" font-size="16.00">external_synonym</text>
<polygon fill="white" stroke="none" points="226,-1231 226,-1249 351,-1249 351,-1231 226,-1231"/>
<text text-anchor="start" x="255" y="-1236.8" font-family="Times,serif" font-weight="bold" font-size="14.00">PK</text>
<text text-anchor="start" x="275" y="-1236.8" font-family="Times,serif" font-size="14.00">  xref_id</text>
<polygon fill="white" stroke="none" points="226,-1211 226,-1229 351,-1229 351,-1211 226,-1211"/>
<text text-anchor="start" x="249.5" y="-1216.8" font-family="Times,serif" font-weight="bold" font-size="14.00">PK</text>
<text text-anchor="start" x="269.5" y="-1216.8" font-family="Times,serif" font-size="14.00">  synonym</text>
<polygon fill="black" stroke="black" points="224,-1250 224,-1250 353,-1250 353,-1250 224,-1250"/>
</g>
<!-- external_synonym&#45;&gt;xref -->
<g id="edge7" class="edge"><title>external_synonym:portxref_id:e&#45;&gt;xref:portxref_id:w</title>
<path fill="none" stroke="black" stroke-dasharray="5,2" d="M352,-1240C375.201,-1240 364.844,-1213.62 370,-1191 400.86,-1055.61 341.43,-1005.91 400,-880 410.739,-856.915 415.495,-838.384 435.862,-833.991"/>
<polygon fill="black" stroke="black" points="436.388,-837.456 446,-833 435.707,-830.489 436.388,-837.456"/>
</g>
<!-- identity_xref -->
<g id="node7" class="node"><title>identity_xref</title>
<path fill="#1e90ff" stroke="black" d="M147,-851.5C147,-851.5 39,-851.5 39,-851.5 33,-851.5 27,-845.5 27,-839.5 27,-839.5 27,-630.5 27,-630.5 27,-624.5 33,-618.5 39,-618.5 39,-618.5 147,-618.5 147,-618.5 153,-618.5 159,-624.5 159,-630.5 159,-630.5 159,-839.5 159,-839.5 159,-845.5 153,-851.5 147,-851.5"/>
<text text-anchor="start" x="51" y="-830.7" font-family="Times,serif" font-size="16.00">identity_xref</text>
<polygon fill="white" stroke="none" points="37,-804 37,-822 149,-822 149,-804 37,-804"/>
<text text-anchor="start" x="39.5" y="-809.8" font-family="Times,serif" font-weight="bold" font-size="14.00">PK</text>
<text text-anchor="start" x="59.5" y="-809.8" font-family="Times,serif" font-size="14.00">  object_xref_id</text>
<polygon fill="white" stroke="none" points="37,-784 37,-802 149,-802 149,-784 37,-784"/>
<text text-anchor="start" x="58" y="-789.8" font-family="Times,serif" font-size="14.00">xref_identity</text>
<polygon fill="white" stroke="none" points="37,-764 37,-782 149,-782 149,-764 37,-764"/>
<text text-anchor="start" x="46" y="-769.8" font-family="Times,serif" font-size="14.00">ensembl_identity</text>
<polygon fill="white" stroke="none" points="37,-744 37,-762 149,-762 149,-744 37,-744"/>
<text text-anchor="start" x="67" y="-749.8" font-family="Times,serif" font-size="14.00">xref_start</text>
<polygon fill="white" stroke="none" points="37,-724 37,-742 149,-742 149,-724 37,-724"/>
<text text-anchor="start" x="68.5" y="-729.8" font-family="Times,serif" font-size="14.00">xref_end</text>
<polygon fill="white" stroke="none" points="37,-704 37,-722 149,-722 149,-704 37,-704"/>
<text text-anchor="start" x="55" y="-709.8" font-family="Times,serif" font-size="14.00">ensembl_start</text>
<polygon fill="white" stroke="none" points="37,-684 37,-702 149,-702 149,-684 37,-684"/>
<text text-anchor="start" x="56.5" y="-689.8" font-family="Times,serif" font-size="14.00">ensembl_end</text>
<polygon fill="white" stroke="none" points="37,-664 37,-682 149,-682 149,-664 37,-664"/>
<text text-anchor="start" x="65.5" y="-669.8" font-family="Times,serif" font-size="14.00">cigar_line</text>
<polygon fill="white" stroke="none" points="37,-644 37,-662 149,-662 149,-644 37,-644"/>
<text text-anchor="start" x="78.5" y="-649.8" font-family="Times,serif" font-size="14.00">score</text>
<polygon fill="white" stroke="none" points="37,-624 37,-642 149,-642 149,-624 37,-624"/>
<text text-anchor="start" x="75" y="-629.8" font-family="Times,serif" font-size="14.00">evalue</text>
<polygon fill="black" stroke="black" points="35,-823 35,-823 151,-823 151,-823 35,-823"/>
</g>
<!-- identity_xref&#45;&gt;object_xref -->
<g id="edge9" class="edge"><title>identity_xref:portobject_xref_id:e&#45;&gt;object_xref:portobject_xref_id:w</title>
<path fill="none" stroke="black" stroke-dasharray="5,2" d="M150,-813C267.695,-813 115.403,-1059.38 216.751,-1074.29"/>
<polygon fill="black" stroke="black" points="216.783,-1077.8 227,-1075 217.264,-1070.82 216.783,-1077.8"/>
</g>
<!-- interpro -->
<g id="node8" class="node"><title>interpro</title>
<path fill="#1e90ff" stroke="black" d="M124.5,-942.5C124.5,-942.5 61.5,-942.5 61.5,-942.5 55.5,-942.5 49.5,-936.5 49.5,-930.5 49.5,-930.5 49.5,-881.5 49.5,-881.5 49.5,-875.5 55.5,-869.5 61.5,-869.5 61.5,-869.5 124.5,-869.5 124.5,-869.5 130.5,-869.5 136.5,-875.5 136.5,-881.5 136.5,-881.5 136.5,-930.5 136.5,-930.5 136.5,-936.5 130.5,-942.5 124.5,-942.5"/>
<text text-anchor="start" x="67.5" y="-921.7" font-family="Times,serif" font-size="16.00">interpro</text>
<polygon fill="white" stroke="none" points="60,-895 60,-913 127,-913 127,-895 60,-895"/>
<text text-anchor="start" x="62.5" y="-900.8" font-family="Times,serif" font-size="14.00">interpro_ac</text>
<polygon fill="white" stroke="none" points="60,-875 60,-893 127,-893 127,-875 60,-875"/>
<text text-anchor="start" x="88" y="-880.8" font-family="Times,serif" font-size="14.00">id</text>
<polygon fill="black" stroke="black" points="58,-914 58,-914 129,-914 129,-914 58,-914"/>
</g>
<!-- analysis -->
<g id="node14" class="node"><title>analysis</title>
<path fill="#808000" stroke="black" d="M535,-119.5C535,-119.5 445,-119.5 445,-119.5 439,-119.5 433,-113.5 433,-107.5 433,-107.5 433,-58.5 433,-58.5 433,-52.5 439,-46.5 445,-46.5 445,-46.5 535,-46.5 535,-46.5 541,-46.5 547,-52.5 547,-58.5 547,-58.5 547,-107.5 547,-107.5 547,-113.5 541,-119.5 535,-119.5"/>
<text text-anchor="start" x="464" y="-98.7" font-family="Times,serif" font-size="16.00">analysis</text>
<polygon fill="white" stroke="none" points="443,-72 443,-90 537,-90 537,-72 443,-72"/>
<text text-anchor="start" x="445.5" y="-77.8" font-family="Times,serif" font-weight="bold" font-size="14.00">PK</text>
<text text-anchor="start" x="465.5" y="-77.8" font-family="Times,serif" font-size="14.00">  analysis_id</text>
<polygon fill="white" stroke="none" points="443,-52 443,-70 537,-70 537,-52 443,-52"/>
<text text-anchor="start" x="484" y="-57.8" font-family="Times,serif" font-style="italic" font-size="14.00">...</text>
<polygon fill="black" stroke="black" points="441,-91 441,-91 539,-91 539,-91 441,-91"/>
</g>
<!-- object_xref&#45;&gt;analysis -->
<g id="edge10" class="edge"><title>object_xref:portanalysis_id:e&#45;&gt;analysis:portanalysis_id:w</title>
<path fill="none" stroke="black" stroke-dasharray="5,2" d="M350,-975C371.886,-975 365.057,-951.321 370,-930 410.278,-756.261 333.296,-293.403 400,-128 409.045,-105.571 412.896,-86.8401 431.804,-82.1376"/>
<polygon fill="black" stroke="black" points="432.45,-85.5873 442,-81 431.674,-78.6305 432.45,-85.5873"/>
</g>
<!-- object_xref&#45;&gt;xref -->
<g id="edge11" class="edge"><title>object_xref:portxref_id:e&#45;&gt;xref:portxref_id:w</title>
<path fill="none" stroke="black" stroke-dasharray="5,2" d="M350,-1015C413.983,-1015 365.76,-934.05 400,-880 413.625,-858.492 416.239,-838.791 436.006,-834.069"/>
<polygon fill="black" stroke="black" points="436.429,-837.544 446,-833 435.684,-830.584 436.429,-837.544"/>
</g>
<!-- ontology_xref -->
<g id="node10" class="node"><title>ontology_xref</title>
<path fill="#1e90ff" stroke="black" d="M140,-1566.5C140,-1566.5 46,-1566.5 46,-1566.5 40,-1566.5 34,-1560.5 34,-1554.5 34,-1554.5 34,-1485.5 34,-1485.5 34,-1479.5 40,-1473.5 46,-1473.5 46,-1473.5 140,-1473.5 140,-1473.5 146,-1473.5 152,-1479.5 152,-1485.5 152,-1485.5 152,-1554.5 152,-1554.5 152,-1560.5 146,-1566.5 140,-1566.5"/>
<text text-anchor="start" x="46.5" y="-1545.7" font-family="Times,serif" font-size="16.00">ontology_xref</text>
<polygon fill="white" stroke="none" points="44,-1519 44,-1537 142,-1537 142,-1519 44,-1519"/>
<text text-anchor="start" x="53.5" y="-1524.8" font-family="Times,serif" font-size="14.00">object_xref_id</text>
<polygon fill="white" stroke="none" points="44,-1499 44,-1517 142,-1517 142,-1499 44,-1499"/>
<text text-anchor="start" x="52" y="-1504.8" font-family="Times,serif" font-size="14.00">source_xref_id</text>
<polygon fill="white" stroke="none" points="44,-1479 44,-1497 142,-1497 142,-1479 44,-1479"/>
<text text-anchor="start" x="58" y="-1484.8" font-family="Times,serif" font-size="14.00">linkage_type</text>
<polygon fill="black" stroke="black" points="42,-1538 42,-1538 144,-1538 144,-1538 42,-1538"/>
</g>
<!-- ontology_xref&#45;&gt;object_xref -->
<g id="edge12" class="edge"><title>ontology_xref:portobject_xref_id:e&#45;&gt;object_xref:portobject_xref_id:w</title>
<path fill="none" stroke="black" stroke-dasharray="5,2" d="M143,-1528C241.783,-1528 132.833,-1106.29 217.01,-1076.64"/>
<polygon fill="black" stroke="black" points="217.699,-1080.07 227,-1075 216.565,-1073.17 217.699,-1080.07"/>
</g>
<!-- ontology_xref&#45;&gt;xref -->
<g id="edge13" class="edge"><title>ontology_xref:portsource_xref_id:e&#45;&gt;xref:portxref_id:w</title>
<path fill="none" stroke="black" stroke-dasharray="5,2" d="M143,-1508C165.944,-1508 162.301,-1485.61 170,-1464 190.09,-1407.6 163.686,-1239.35 206,-1197 231.677,-1171.3 264.986,-1214.9 287,-1186"/>
</g>
<!-- unmapped_object -->
<g id="node11" class="node"><title>unmapped_object</title>
<path fill="#1e90ff" stroke="black" d="M561.5,-1142.5C561.5,-1142.5 418.5,-1142.5 418.5,-1142.5 412.5,-1142.5 406.5,-1136.5 406.5,-1130.5 406.5,-1130.5 406.5,-901.5 406.5,-901.5 406.5,-895.5 412.5,-889.5 418.5,-889.5 418.5,-889.5 561.5,-889.5 561.5,-889.5 567.5,-889.5 573.5,-895.5 573.5,-901.5 573.5,-901.5 573.5,-1130.5 573.5,-1130.5 573.5,-1136.5 567.5,-1142.5 561.5,-1142.5"/>
<text text-anchor="start" x="433" y="-1121.7" font-family="Times,serif" font-size="16.00">unmapped_object</text>
<polygon fill="white" stroke="none" points="417,-1095 417,-1113 564,-1113 564,-1095 417,-1095"/>
<text text-anchor="start" x="419.5" y="-1100.8" font-family="Times,serif" font-weight="bold" font-size="14.00">PK</text>
<text text-anchor="start" x="439.5" y="-1100.8" font-family="Times,serif" font-size="14.00">  unmapped_object_id</text>
<polygon fill="white" stroke="none" points="417,-1075 417,-1093 564,-1093 564,-1075 417,-1075"/>
<text text-anchor="start" x="478.5" y="-1080.8" font-family="Times,serif" font-size="14.00">type</text>
<polygon fill="white" stroke="none" points="417,-1055 417,-1073 564,-1073 564,-1055 417,-1055"/>
<text text-anchor="start" x="460" y="-1060.8" font-family="Times,serif" font-size="14.00">analysis_id</text>
<polygon fill="white" stroke="none" points="417,-1035 417,-1053 564,-1053 564,-1035 417,-1035"/>
<text text-anchor="start" x="449.5" y="-1040.8" font-family="Times,serif" font-size="14.00">external_db_id</text>
<polygon fill="white" stroke="none" points="417,-1015 417,-1033 564,-1033 564,-1015 417,-1015"/>
<text text-anchor="start" x="465.5" y="-1020.8" font-family="Times,serif" font-size="14.00">identifier</text>
<polygon fill="white" stroke="none" points="417,-995 417,-1013 564,-1013 564,-995 417,-995"/>
<text text-anchor="start" x="432" y="-1000.8" font-family="Times,serif" font-size="14.00">unmapped_reason_id</text>
<polygon fill="white" stroke="none" points="417,-975 417,-993 564,-993 564,-975 417,-975"/>
<text text-anchor="start" x="457" y="-980.8" font-family="Times,serif" font-size="14.00">query_score</text>
<polygon fill="white" stroke="none" points="417,-955 417,-973 564,-973 564,-955 417,-955"/>
<text text-anchor="start" x="457" y="-960.8" font-family="Times,serif" font-size="14.00">target_score</text>
<polygon fill="white" stroke="none" points="417,-935 417,-953 564,-953 564,-935 417,-935"/>
<text text-anchor="start" x="458.5" y="-940.8" font-family="Times,serif" font-size="14.00">ensembl_id</text>
<polygon fill="white" stroke="none" points="417,-915 417,-933 564,-933 564,-915 417,-915"/>
<text text-anchor="start" x="432.5" y="-920.8" font-family="Times,serif" font-size="14.00">ensembl_object_type</text>
<polygon fill="white" stroke="none" points="417,-895 417,-913 564,-913 564,-895 417,-895"/>
<text text-anchor="start" x="473.5" y="-900.8" font-family="Times,serif" font-size="14.00">parent</text>
<polygon fill="black" stroke="black" points="415,-1114 415,-1114 566,-1114 566,-1114 415,-1114"/>
</g>
<!-- unmapped_object&#45;&gt;analysis -->
<g id="edge16" class="edge"><title>unmapped_object:portanalysis_id:e&#45;&gt;analysis:portanalysis_id:w</title>
<path fill="none" stroke="black" stroke-dasharray="5,2" d="M574,-1064C593.611,-1064 587.565,-901.663 574,-887.5 560.614,-873.525 418.534,-885.566 400,-880 392.554,-877.764 388.831,-877.765 385,-871 364.909,-835.515 369.228,-174.604 385,-137 397.341,-107.576 404.85,-85.8206 432.003,-81.7051"/>
<polygon fill="black" stroke="black" points="432.271,-85.195 442,-81 431.779,-78.2123 432.271,-85.195"/>
</g>
<!-- unmapped_object&#45;&gt;external_db -->
<g id="edge17" class="edge"><title>unmapped_object:portexternal_db_id:e&#45;&gt;external_db:portexternal_db_id:w</title>
<path fill="none" stroke="black" stroke-dasharray="5,2" d="M565,-1044C668.736,-1044 538.131,-828.521 625.847,-813.791"/>
<polygon fill="black" stroke="black" points="626.302,-817.266 636,-813 625.758,-810.288 626.302,-817.266"/>
</g>
<!-- unmapped_reason -->
<g id="node12" class="node"><title>unmapped_reason</title>
<path fill="#1e90ff" stroke="black" d="M767.5,-1042.5C767.5,-1042.5 622.5,-1042.5 622.5,-1042.5 616.5,-1042.5 610.5,-1036.5 610.5,-1030.5 610.5,-1030.5 610.5,-961.5 610.5,-961.5 610.5,-955.5 616.5,-949.5 622.5,-949.5 622.5,-949.5 767.5,-949.5 767.5,-949.5 773.5,-949.5 779.5,-955.5 779.5,-961.5 779.5,-961.5 779.5,-1030.5 779.5,-1030.5 779.5,-1036.5 773.5,-1042.5 767.5,-1042.5"/>
<text text-anchor="start" x="636.5" y="-1021.7" font-family="Times,serif" font-size="16.00">unmapped_reason</text>
<polygon fill="white" stroke="none" points="621,-995 621,-1013 770,-1013 770,-995 621,-995"/>
<text text-anchor="start" x="623.5" y="-1000.8" font-family="Times,serif" font-weight="bold" font-size="14.00">PK</text>
<text text-anchor="start" x="643.5" y="-1000.8" font-family="Times,serif" font-size="14.00">  unmapped_reason_id</text>
<polygon fill="white" stroke="none" points="621,-975 621,-993 770,-993 770,-975 621,-975"/>
<text text-anchor="start" x="636" y="-980.8" font-family="Times,serif" font-size="14.00">summary_description</text>
<polygon fill="white" stroke="none" points="621,-955 621,-973 770,-973 770,-955 621,-955"/>
<text text-anchor="start" x="652.5" y="-960.8" font-family="Times,serif" font-size="14.00">full_description</text>
<polygon fill="black" stroke="black" points="619,-1014 619,-1014 772,-1014 772,-1014 619,-1014"/>
</g>
<!-- unmapped_object&#45;&gt;unmapped_reason -->
<g id="edge18" class="edge"><title>unmapped_object:portunmapped_reason_id:e&#45;&gt;unmapped_reason:portunmapped_reason_id:w</title>
<path fill="none" stroke="black" stroke-dasharray="5,2" d="M565,-1004C585.625,-1004 593.198,-1004 609.745,-1004"/>
<polygon fill="black" stroke="black" points="610,-1007.5 620,-1004 610,-1000.5 610,-1007.5"/>
</g>
<!-- xref&#45;&gt;external_db -->
<g id="edge19" class="edge"><title>xref:portexternal_db_id:e&#45;&gt;external_db:portexternal_db_id:w</title>
<path fill="none" stroke="black" stroke-dasharray="5,2" d="M535,-813C576.207,-813 589.043,-813 625.596,-813"/>
<polygon fill="black" stroke="black" points="626,-816.5 636,-813 626,-809.5 626,-816.5"/>
</g>
<!-- dna_align_feature -->
<g id="node15" class="node"><title>dna_align_feature</title>
<path fill="#808000" stroke="black" d="M548.5,-563.5C548.5,-563.5 431.5,-563.5 431.5,-563.5 425.5,-563.5 419.5,-557.5 419.5,-551.5 419.5,-551.5 419.5,-482.5 419.5,-482.5 419.5,-476.5 425.5,-470.5 431.5,-470.5 431.5,-470.5 548.5,-470.5 548.5,-470.5 554.5,-470.5 560.5,-476.5 560.5,-482.5 560.5,-482.5 560.5,-551.5 560.5,-551.5 560.5,-557.5 554.5,-563.5 548.5,-563.5"/>
<text text-anchor="start" x="432.5" y="-542.7" font-family="Times,serif" font-size="16.00">dna_align_feature</text>
<polygon fill="white" stroke="none" points="430,-516 430,-534 551,-534 551,-516 430,-516"/>
<text text-anchor="start" x="484.5" y="-521.8" font-family="Times,serif" font-style="italic" font-size="14.00">...</text>
<polygon fill="white" stroke="none" points="430,-496 430,-514 551,-514 551,-496 430,-496"/>
<text text-anchor="start" x="449.5" y="-501.8" font-family="Times,serif" font-size="14.00">external_db_id</text>
<polygon fill="white" stroke="none" points="430,-476 430,-494 551,-494 551,-476 430,-476"/>
<text text-anchor="start" x="484.5" y="-481.8" font-family="Times,serif" font-style="italic" font-size="14.00">...</text>
<polygon fill="black" stroke="black" points="428,-535 428,-535 553,-535 553,-535 428,-535"/>
</g>
<!-- dna_align_feature&#45;&gt;external_db -->
<g id="edge6" class="edge"><title>dna_align_feature:portexternal_db_id:e&#45;&gt;external_db:portexternal_db_id:w</title>
<path fill="none" stroke="black" stroke-dasharray="5,2" d="M552,-505C690.286,-505 504.036,-797.558 625.842,-812.414"/>
<polygon fill="black" stroke="black" points="625.815,-815.919 636,-813 626.218,-808.93 625.815,-815.919"/>
</g>
<!-- gene -->
<g id="node16" class="node"><title>gene</title>
<path fill="#808000" stroke="black" d="M533,-341.5C533,-341.5 447,-341.5 447,-341.5 441,-341.5 435,-335.5 435,-329.5 435,-329.5 435,-260.5 435,-260.5 435,-254.5 441,-248.5 447,-248.5 447,-248.5 533,-248.5 533,-248.5 539,-248.5 545,-254.5 545,-260.5 545,-260.5 545,-329.5 545,-329.5 545,-335.5 539,-341.5 533,-341.5"/>
<text text-anchor="start" x="474.5" y="-320.7" font-family="Times,serif" font-size="16.00">gene</text>
<polygon fill="white" stroke="none" points="445,-294 445,-312 535,-312 535,-294 445,-294"/>
<text text-anchor="start" x="484" y="-299.8" font-family="Times,serif" font-style="italic" font-size="14.00">...</text>
<polygon fill="white" stroke="none" points="445,-274 445,-292 535,-292 535,-274 445,-274"/>
<text text-anchor="start" x="447.5" y="-279.8" font-family="Times,serif" font-size="14.00">display_xref_id</text>
<polygon fill="white" stroke="none" points="445,-254 445,-272 535,-272 535,-254 445,-254"/>
<text text-anchor="start" x="484" y="-259.8" font-family="Times,serif" font-style="italic" font-size="14.00">...</text>
<polygon fill="black" stroke="black" points="443,-313 443,-313 537,-313 537,-313 443,-313"/>
</g>
<!-- gene&#45;&gt;xref -->
<g id="edge8" class="edge"><title>gene:portdisplay_xref_id:e&#45;&gt;xref:portxref_id:w</title>
<path fill="none" stroke="black" stroke-dasharray="5,2" d="M545,-283C570.778,-283 562.654,-322.216 545,-341 520.496,-367.072 402.629,-327.864 385,-359 360.37,-402.501 389.114,-784.178 436.87,-828.757"/>
<polygon fill="black" stroke="black" points="435.456,-831.959 446,-833 438.407,-825.611 435.456,-831.959"/>
</g>
<!-- protein_align_feature -->
<g id="node17" class="node"><title>protein_align_feature</title>
<path fill="#808000" stroke="black" d="M560,-452.5C560,-452.5 420,-452.5 420,-452.5 414,-452.5 408,-446.5 408,-440.5 408,-440.5 408,-371.5 408,-371.5 408,-365.5 414,-359.5 420,-359.5 420,-359.5 560,-359.5 560,-359.5 566,-359.5 572,-365.5 572,-371.5 572,-371.5 572,-440.5 572,-440.5 572,-446.5 566,-452.5 560,-452.5"/>
<text text-anchor="start" x="420.5" y="-431.7" font-family="Times,serif" font-size="16.00">protein_align_feature</text>
<polygon fill="white" stroke="none" points="418,-405 418,-423 562,-423 562,-405 418,-405"/>
<text text-anchor="start" x="484" y="-410.8" font-family="Times,serif" font-style="italic" font-size="14.00">...</text>
<polygon fill="white" stroke="none" points="418,-385 418,-403 562,-403 562,-385 418,-385"/>
<text text-anchor="start" x="449" y="-390.8" font-family="Times,serif" font-size="14.00">external_db_id</text>
<polygon fill="white" stroke="none" points="418,-365 418,-383 562,-383 562,-365 418,-365"/>
<text text-anchor="start" x="484" y="-370.8" font-family="Times,serif" font-style="italic" font-size="14.00">...</text>
<polygon fill="black" stroke="black" points="416,-424 416,-424 564,-424 564,-424 416,-424"/>
</g>
<!-- protein_align_feature&#45;&gt;external_db -->
<g id="edge14" class="edge"><title>protein_align_feature:portexternal_db_id:e&#45;&gt;external_db:portexternal_db_id:w</title>
<path fill="none" stroke="black" stroke-dasharray="5,2" d="M563,-394C653.822,-394 550.23,-780.905 625.863,-811.132"/>
<polygon fill="black" stroke="black" points="625.531,-814.63 636,-813 626.8,-807.746 625.531,-814.63"/>
</g>
<!-- transcript -->
<g id="node18" class="node"><title>transcript</title>
<path fill="#808000" stroke="black" d="M533,-230.5C533,-230.5 447,-230.5 447,-230.5 441,-230.5 435,-224.5 435,-218.5 435,-218.5 435,-149.5 435,-149.5 435,-143.5 441,-137.5 447,-137.5 447,-137.5 533,-137.5 533,-137.5 539,-137.5 545,-143.5 545,-149.5 545,-149.5 545,-218.5 545,-218.5 545,-224.5 539,-230.5 533,-230.5"/>
<text text-anchor="start" x="459.5" y="-209.7" font-family="Times,serif" font-size="16.00">transcript</text>
<polygon fill="white" stroke="none" points="445,-183 445,-201 535,-201 535,-183 445,-183"/>
<text text-anchor="start" x="484" y="-188.8" font-family="Times,serif" font-style="italic" font-size="14.00">...</text>
<polygon fill="white" stroke="none" points="445,-163 445,-181 535,-181 535,-163 445,-163"/>
<text text-anchor="start" x="447.5" y="-168.8" font-family="Times,serif" font-size="14.00">display_xref_id</text>
<polygon fill="white" stroke="none" points="445,-143 445,-161 535,-161 535,-143 445,-143"/>
<text text-anchor="start" x="484" y="-148.8" font-family="Times,serif" font-style="italic" font-size="14.00">...</text>
<polygon fill="black" stroke="black" points="443,-202 443,-202 537,-202 537,-202 443,-202"/>
</g>
<!-- transcript&#45;&gt;xref -->
<g id="edge15" class="edge"><title>transcript:portdisplay_xref_id:e&#45;&gt;xref:portxref_id:w</title>
<path fill="none" stroke="black" stroke-dasharray="5,2" d="M545,-172C570.778,-172 562.654,-211.216 545,-230 520.496,-256.072 402.629,-216.864 385,-248 354.436,-301.982 377.974,-780.577 436.337,-829.045"/>
<polygon fill="black" stroke="black" points="435.419,-832.451 446,-833 438.071,-825.973 435.419,-832.451"/>
</g>
</g>
</svg>
