<?xml version="1.0" encoding="UTF-8" standalone="no"?>
<!DOCTYPE svg PUBLIC "-//W3C//DTD SVG 1.1//EN"
 "http://www.w3.org/Graphics/SVG/1.1/DTD/svg11.dtd">
<!-- Generated by graphviz version 8.0.1 (0)
 -->
<!-- Title: test Pages: 1 -->
<svg width="800pt" height="1701pt"
 viewBox="0.00 0.00 800.00 1701.00" xmlns="http://www.w3.org/2000/svg" xmlns:xlink="http://www.w3.org/1999/xlink">
<g id="graph0" class="graph" transform="scale(1 1) rotate(0) translate(4 1697)">
<title>test</title>
<polygon fill="white" stroke="none" points="-4,4 -4,-1697 796,-1697 796,4 -4,4"/>
<text text-anchor="middle" x="396" y="-10" font-family="Times,serif" font-size="20.00">Core schema diagram: External References tables</text>
<g id="clust1" class="cluster">
<title>cluster_external_references</title>
<path fill="#d2e8ff" stroke="#d2e8ff" d="M20,-629C20,-629 772,-629 772,-629 778,-629 784,-635 784,-641 784,-641 784,-1673 784,-1673 784,-1679 778,-1685 772,-1685 772,-1685 20,-1685 20,-1685 14,-1685 8,-1679 8,-1673 8,-1673 8,-641 8,-641 8,-635 14,-629 20,-629"/>
<text text-anchor="middle" x="396" y="-1665" font-family="Times,serif" font-size="20.00">External References</text>
</g>
<g id="clust2" class="cluster">
<title>cluster_fundamental_tables</title>
<polygon fill="white" stroke="white" points="400,-38 400,-621 577,-621 577,-38 400,-38"/>
<text text-anchor="middle" x="488.5" y="-601" font-family="Times,serif" font-size="20.00">Fundamental Tables</text>
</g>
<!-- associated_group -->
<g id="node1" class="node">
<title>associated_group</title>
<path fill="#1e90ff" stroke="black" d="M357,-1542C357,-1542 217,-1542 217,-1542 211,-1542 205,-1536 205,-1530 205,-1530 205,-1478 205,-1478 205,-1472 211,-1466 217,-1466 217,-1466 357,-1466 357,-1466 363,-1466 369,-1472 369,-1478 369,-1478 369,-1530 369,-1530 369,-1536 363,-1542 357,-1542"/>
<text text-anchor="start" x="231" y="-1521.2" font-family="Times,serif" font-size="16.00">associated_group</text>
<polygon fill="white" stroke="none" points="215,-1493 215,-1512 359,-1512 359,-1493 215,-1493"/>
<text text-anchor="start" x="217" y="-1499.8" font-family="Times,serif" font-weight="bold" font-size="14.00">PK</text>
<text text-anchor="start" x="237" y="-1499.8" font-family="Times,serif" font-size="14.00">  associated_group_id</text>
<polygon fill="white" stroke="none" points="215,-1472 215,-1491 359,-1491 359,-1472 215,-1472"/>
<text text-anchor="start" x="256.5" y="-1477.8" font-family="Times,serif" font-size="14.00">description</text>
<polygon fill="black" stroke="black" points="213,-1513 213,-1513 361,-1513 361,-1513 213,-1513"/>
</g>
<!-- associated_xref -->
<g id="node2" class="node">
<title>associated_xref</title>
<path fill="#1e90ff" stroke="black" d="M157,-1646.5C157,-1646.5 28,-1646.5 28,-1646.5 22,-1646.5 16,-1640.5 16,-1634.5 16,-1634.5 16,-1477.5 16,-1477.5 16,-1471.5 22,-1465.5 28,-1465.5 28,-1465.5 157,-1465.5 157,-1465.5 163,-1465.5 169,-1471.5 169,-1477.5 169,-1477.5 169,-1634.5 169,-1634.5 169,-1640.5 163,-1646.5 157,-1646.5"/>
<text text-anchor="start" x="43" y="-1625.7" font-family="Times,serif" font-size="16.00">associated_xref</text>
<polygon fill="white" stroke="none" points="26,-1597.5 26,-1616.5 159,-1616.5 159,-1597.5 26,-1597.5"/>
<text text-anchor="start" x="28" y="-1604.3" font-family="Times,serif" font-weight="bold" font-size="14.00">PK</text>
<text text-anchor="start" x="48" y="-1604.3" font-family="Times,serif" font-size="14.00">  associated_xref_id</text>
<polygon fill="white" stroke="none" points="26,-1576.5 26,-1595.5 159,-1595.5 159,-1576.5 26,-1576.5"/>
<text text-anchor="start" x="53" y="-1582.3" font-family="Times,serif" font-size="14.00">object_xref_id</text>
<polygon fill="white" stroke="none" points="26,-1555.5 26,-1574.5 159,-1574.5 159,-1555.5 26,-1555.5"/>
<text text-anchor="start" x="72.5" y="-1561.3" font-family="Times,serif" font-size="14.00">xref_id</text>
<polygon fill="white" stroke="none" points="26,-1534.5 26,-1553.5 159,-1553.5 159,-1534.5 26,-1534.5"/>
<text text-anchor="start" x="51.5" y="-1540.3" font-family="Times,serif" font-size="14.00">source_xref_id</text>
<polygon fill="white" stroke="none" points="26,-1513.5 26,-1532.5 159,-1532.5 159,-1513.5 26,-1513.5"/>
<text text-anchor="start" x="51.5" y="-1519.3" font-family="Times,serif" font-size="14.00">condition_type</text>
<polygon fill="white" stroke="none" points="26,-1492.5 26,-1511.5 159,-1511.5 159,-1492.5 26,-1492.5"/>
<text text-anchor="start" x="36.5" y="-1498.3" font-family="Times,serif" font-size="14.00">associated_group_id</text>
<polygon fill="white" stroke="none" points="26,-1471.5 26,-1490.5 159,-1490.5 159,-1471.5 26,-1471.5"/>
<text text-anchor="start" x="80" y="-1477.3" font-family="Times,serif" font-size="14.00">rank</text>
<polygon fill="black" stroke="black" points="24,-1617.5 24,-1617.5 161,-1617.5 161,-1617.5 24,-1617.5"/>
</g>
<!-- associated_xref&#45;&gt;associated_group -->
<g id="edge1" class="edge">
<title>associated_xref:e&#45;&gt;associated_group:w</title>
<path fill="none" stroke="black" stroke-dasharray="5,2" d="M160.5,-1502C180.19,-1502 187.65,-1502 203.14,-1502"/>
<polygon fill="black" stroke="black" points="203,-1505.5 213,-1502 203,-1498.5 203,-1505.5"/>
</g>
<!-- object_xref -->
<g id="node9" class="node">
<title>object_xref</title>
<path fill="#1e90ff" stroke="black" d="M345,-903C345,-903 229,-903 229,-903 223,-903 217,-897 217,-891 217,-891 217,-755 217,-755 217,-749 223,-743 229,-743 229,-743 345,-743 345,-743 351,-743 357,-749 357,-755 357,-755 357,-891 357,-891 357,-897 351,-903 345,-903"/>
<text text-anchor="start" x="250.5" y="-882.2" font-family="Times,serif" font-size="16.00">object_xref</text>
<polygon fill="white" stroke="none" points="227,-854 227,-873 347,-873 347,-854 227,-854"/>
<text text-anchor="start" x="233.5" y="-860.8" font-family="Times,serif" font-weight="bold" font-size="14.00">PK</text>
<text text-anchor="start" x="253.5" y="-860.8" font-family="Times,serif" font-size="14.00">  object_xref_id</text>
<polygon fill="white" stroke="none" points="227,-833 227,-852 347,-852 347,-833 227,-833"/>
<text text-anchor="start" x="255" y="-838.8" font-family="Times,serif" font-size="14.00">ensembl_id</text>
<polygon fill="white" stroke="none" points="227,-812 227,-831 347,-831 347,-812 227,-812"/>
<text text-anchor="start" x="229" y="-817.8" font-family="Times,serif" font-size="14.00">ensembl_object_type</text>
<polygon fill="white" stroke="none" points="227,-791 227,-810 347,-810 347,-791 227,-791"/>
<text text-anchor="start" x="267" y="-796.8" font-family="Times,serif" font-size="14.00">xref_id</text>
<polygon fill="white" stroke="none" points="227,-770 227,-789 347,-789 347,-770 227,-770"/>
<text text-anchor="start" x="235" y="-775.8" font-family="Times,serif" font-size="14.00">linkage_annotation</text>
<polygon fill="white" stroke="none" points="227,-749 227,-768 347,-768 347,-749 227,-749"/>
<text text-anchor="start" x="256.5" y="-754.8" font-family="Times,serif" font-size="14.00">analysis_id</text>
<polygon fill="black" stroke="black" points="225,-874 225,-874 349,-874 349,-874 225,-874"/>
</g>
<!-- associated_xref&#45;&gt;object_xref -->
<g id="edge2" class="edge">
<title>associated_xref:e&#45;&gt;object_xref:w</title>
<path fill="none" stroke="black" stroke-dasharray="5,2" d="M160.5,-1586C237.43,-1586 153.68,-927.41 216.18,-868.24"/>
<polygon fill="black" stroke="black" points="217.21,-871.18 225,-864 214.43,-864.75 217.21,-871.18"/>
</g>
<!-- xref -->
<g id="node13" class="node">
<title>xref</title>
<path fill="#1e90ff" stroke="black" d="M530,-839C530,-839 446,-839 446,-839 440,-839 434,-833 434,-827 434,-827 434,-649 434,-649 434,-643 440,-637 446,-637 446,-637 530,-637 530,-637 536,-637 542,-643 542,-649 542,-649 542,-827 542,-827 542,-833 536,-839 530,-839"/>
<text text-anchor="start" x="475" y="-818.2" font-family="Times,serif" font-size="16.00">xref</text>
<polygon fill="white" stroke="none" points="444,-790 444,-809 532,-809 532,-790 444,-790"/>
<text text-anchor="start" x="454.5" y="-796.8" font-family="Times,serif" font-weight="bold" font-size="14.00">PK</text>
<text text-anchor="start" x="474.5" y="-796.8" font-family="Times,serif" font-size="14.00">  xref_id</text>
<polygon fill="white" stroke="none" points="444,-769 444,-788 532,-788 532,-769 444,-769"/>
<text text-anchor="start" x="447" y="-774.8" font-family="Times,serif" font-size="14.00">external_db_id</text>
<polygon fill="white" stroke="none" points="444,-748 444,-767 532,-767 532,-748 444,-748"/>
<text text-anchor="start" x="446" y="-753.8" font-family="Times,serif" font-size="14.00">dbprimary_acc</text>
<polygon fill="white" stroke="none" points="444,-727 444,-746 532,-746 532,-727 444,-727"/>
<text text-anchor="start" x="451.5" y="-732.8" font-family="Times,serif" font-size="14.00">display_label</text>
<polygon fill="white" stroke="none" points="444,-706 444,-725 532,-725 532,-706 444,-706"/>
<text text-anchor="start" x="468" y="-711.8" font-family="Times,serif" font-size="14.00">version</text>
<polygon fill="white" stroke="none" points="444,-685 444,-704 532,-704 532,-685 444,-685"/>
<text text-anchor="start" x="457.5" y="-690.8" font-family="Times,serif" font-size="14.00">description</text>
<polygon fill="white" stroke="none" points="444,-664 444,-683 532,-683 532,-664 444,-664"/>
<text text-anchor="start" x="462" y="-669.8" font-family="Times,serif" font-size="14.00">info_type</text>
<polygon fill="white" stroke="none" points="444,-643 444,-662 532,-662 532,-643 444,-643"/>
<text text-anchor="start" x="463.5" y="-648.8" font-family="Times,serif" font-size="14.00">info_text</text>
<polygon fill="black" stroke="black" points="442,-810 442,-810 534,-810 534,-810 442,-810"/>
</g>
<!-- associated_xref&#45;&gt;xref -->
<g id="edge3" class="edge">
<title>associated_xref:e&#45;&gt;xref:w</title>
<path fill="none" stroke="black" stroke-dasharray="5,2" d="M160.5,-1565C253.38,-1565 304.08,-1617.42 369,-1551 423.57,-1495.16 370.88,-921.44 400,-849 409.29,-825.9 412.97,-806.31 432.21,-801.26"/>
<polygon fill="black" stroke="black" points="432.48,-804.64 442,-800 431.66,-797.69 432.48,-804.64"/>
</g>
<!-- biotype -->
<g id="node3" class="node">
<title>biotype</title>
<path fill="#1e90ff" stroke="black" d="M135.5,-1447.5C135.5,-1447.5 49.5,-1447.5 49.5,-1447.5 43.5,-1447.5 37.5,-1441.5 37.5,-1435.5 37.5,-1435.5 37.5,-1236.5 37.5,-1236.5 37.5,-1230.5 43.5,-1224.5 49.5,-1224.5 49.5,-1224.5 135.5,-1224.5 135.5,-1224.5 141.5,-1224.5 147.5,-1230.5 147.5,-1236.5 147.5,-1236.5 147.5,-1435.5 147.5,-1435.5 147.5,-1441.5 141.5,-1447.5 135.5,-1447.5"/>
<text text-anchor="start" x="68" y="-1426.7" font-family="Times,serif" font-size="16.00">biotype</text>
<polygon fill="white" stroke="none" points="47.5,-1398.5 47.5,-1417.5 137.5,-1417.5 137.5,-1398.5 47.5,-1398.5"/>
<text text-anchor="start" x="49.5" y="-1405.3" font-family="Times,serif" font-weight="bold" font-size="14.00">PK</text>
<text text-anchor="start" x="69.5" y="-1405.3" font-family="Times,serif" font-size="14.00">  biotype_id</text>
<polygon fill="white" stroke="none" points="47.5,-1377.5 47.5,-1396.5 137.5,-1396.5 137.5,-1377.5 47.5,-1377.5"/>
<text text-anchor="start" x="77" y="-1383.3" font-family="Times,serif" font-size="14.00">name</text>
<polygon fill="white" stroke="none" points="47.5,-1356.5 47.5,-1375.5 137.5,-1375.5 137.5,-1356.5 47.5,-1356.5"/>
<text text-anchor="start" x="60.5" y="-1362.3" font-family="Times,serif" font-size="14.00">object_type</text>
<polygon fill="white" stroke="none" points="47.5,-1335.5 47.5,-1354.5 137.5,-1354.5 137.5,-1335.5 47.5,-1335.5"/>
<text text-anchor="start" x="70.5" y="-1341.3" font-family="Times,serif" font-size="14.00">db_type</text>
<polygon fill="white" stroke="none" points="47.5,-1314.5 47.5,-1333.5 137.5,-1333.5 137.5,-1314.5 47.5,-1314.5"/>
<text text-anchor="start" x="54" y="-1320.3" font-family="Times,serif" font-size="14.00">attrib_type_id</text>
<polygon fill="white" stroke="none" points="47.5,-1293.5 47.5,-1312.5 137.5,-1312.5 137.5,-1293.5 47.5,-1293.5"/>
<text text-anchor="start" x="62" y="-1299.3" font-family="Times,serif" font-size="14.00">description</text>
<polygon fill="white" stroke="none" points="47.5,-1272.5 47.5,-1291.5 137.5,-1291.5 137.5,-1272.5 47.5,-1272.5"/>
<text text-anchor="start" x="52.5" y="-1278.3" font-family="Times,serif" font-size="14.00">biotype_group</text>
<polygon fill="white" stroke="none" points="47.5,-1251.5 47.5,-1270.5 137.5,-1270.5 137.5,-1251.5 47.5,-1251.5"/>
<text text-anchor="start" x="74" y="-1257.3" font-family="Times,serif" font-size="14.00">so_acc</text>
<polygon fill="white" stroke="none" points="47.5,-1230.5 47.5,-1249.5 137.5,-1249.5 137.5,-1230.5 47.5,-1230.5"/>
<text text-anchor="start" x="69.5" y="-1236.3" font-family="Times,serif" font-size="14.00">so_term</text>
<polygon fill="black" stroke="black" points="45.5,-1418.5 45.5,-1418.5 139.5,-1418.5 139.5,-1418.5 45.5,-1418.5"/>
</g>
<!-- dependent_xref -->
<g id="node4" class="node">
<title>dependent_xref</title>
<path fill="#1e90ff" stroke="black" d="M146,-1206.5C146,-1206.5 39,-1206.5 39,-1206.5 33,-1206.5 27,-1200.5 27,-1194.5 27,-1194.5 27,-1121.5 27,-1121.5 27,-1115.5 33,-1109.5 39,-1109.5 39,-1109.5 146,-1109.5 146,-1109.5 152,-1109.5 158,-1115.5 158,-1121.5 158,-1121.5 158,-1194.5 158,-1194.5 158,-1200.5 152,-1206.5 146,-1206.5"/>
<text text-anchor="start" x="42.5" y="-1185.7" font-family="Times,serif" font-size="16.00">dependent_xref</text>
<polygon fill="white" stroke="none" points="37,-1157.5 37,-1176.5 148,-1176.5 148,-1157.5 37,-1157.5"/>
<text text-anchor="start" x="39" y="-1164.3" font-family="Times,serif" font-weight="bold" font-size="14.00">PK</text>
<text text-anchor="start" x="59" y="-1164.3" font-family="Times,serif" font-size="14.00">  object_xref_id</text>
<polygon fill="white" stroke="none" points="37,-1136.5 37,-1155.5 148,-1155.5 148,-1136.5 37,-1136.5"/>
<text text-anchor="start" x="51" y="-1142.3" font-family="Times,serif" font-size="14.00">master_xref_id</text>
<polygon fill="white" stroke="none" points="37,-1115.5 37,-1134.5 148,-1134.5 148,-1115.5 37,-1115.5"/>
<text text-anchor="start" x="41.5" y="-1121.3" font-family="Times,serif" font-size="14.00">dependent_xref_id</text>
<polygon fill="black" stroke="black" points="35,-1177.5 35,-1177.5 150,-1177.5 150,-1177.5 35,-1177.5"/>
</g>
<!-- dependent_xref&#45;&gt;object_xref -->
<g id="edge4" class="edge">
<title>dependent_xref:e&#45;&gt;object_xref:w</title>
<path fill="none" stroke="black" stroke-dasharray="5,2" d="M149.5,-1167C284.59,-1167 97.86,-880.34 215.36,-864.67"/>
<polygon fill="black" stroke="black" points="215.24,-868.12 225,-864 214.8,-861.13 215.24,-868.12"/>
</g>
<!-- dependent_xref&#45;&gt;xref -->
<g id="edge5" class="edge">
<title>dependent_xref:e&#45;&gt;xref:w</title>
<path fill="none" stroke="black" stroke-dasharray="5,2" d="M149.5,-1146C265.21,-1146 303.76,-1101.57 369,-1006 421.71,-928.79 351.62,-809.75 432.38,-800.57"/>
<polygon fill="black" stroke="black" points="432.2,-804.03 442,-800 431.83,-797.04 432.2,-804.03"/>
</g>
<!-- external_db -->
<g id="node5" class="node">
<title>external_db</title>
<path fill="#1e90ff" stroke="black" d="M748.5,-881C748.5,-881 635.5,-881 635.5,-881 629.5,-881 623.5,-875 623.5,-869 623.5,-869 623.5,-649 623.5,-649 623.5,-643 629.5,-637 635.5,-637 635.5,-637 748.5,-637 748.5,-637 754.5,-637 760.5,-643 760.5,-649 760.5,-649 760.5,-869 760.5,-869 760.5,-875 754.5,-881 748.5,-881"/>
<text text-anchor="start" x="653.5" y="-860.2" font-family="Times,serif" font-size="16.00">external_db</text>
<polygon fill="white" stroke="none" points="633.5,-832 633.5,-851 750.5,-851 750.5,-832 633.5,-832"/>
<text text-anchor="start" x="637" y="-838.8" font-family="Times,serif" font-weight="bold" font-size="14.00">PK</text>
<text text-anchor="start" x="657" y="-838.8" font-family="Times,serif" font-size="14.00">  external_db_id</text>
<polygon fill="white" stroke="none" points="633.5,-811 633.5,-830 750.5,-830 750.5,-811 633.5,-811"/>
<text text-anchor="start" x="666.5" y="-816.8" font-family="Times,serif" font-size="14.00">db_name</text>
<polygon fill="white" stroke="none" points="633.5,-790 633.5,-809 750.5,-809 750.5,-790 633.5,-790"/>
<text text-anchor="start" x="663" y="-795.8" font-family="Times,serif" font-size="14.00">db_release</text>
<polygon fill="white" stroke="none" points="633.5,-769 633.5,-788 750.5,-788 750.5,-769 633.5,-769"/>
<text text-anchor="start" x="676.5" y="-774.8" font-family="Times,serif" font-size="14.00">status</text>
<polygon fill="white" stroke="none" points="633.5,-748 633.5,-767 750.5,-767 750.5,-748 633.5,-748"/>
<text text-anchor="start" x="670.5" y="-753.8" font-family="Times,serif" font-size="14.00">priority</text>
<polygon fill="white" stroke="none" points="633.5,-727 633.5,-746 750.5,-746 750.5,-727 633.5,-727"/>
<text text-anchor="start" x="643.5" y="-732.8" font-family="Times,serif" font-size="14.00">db_display_name</text>
<polygon fill="white" stroke="none" points="633.5,-706 633.5,-725 750.5,-725 750.5,-706 633.5,-706"/>
<text text-anchor="start" x="680" y="-711.8" font-family="Times,serif" font-size="14.00">type</text>
<polygon fill="white" stroke="none" points="633.5,-685 633.5,-704 750.5,-704 750.5,-685 633.5,-685"/>
<text text-anchor="start" x="635.5" y="-690.8" font-family="Times,serif" font-size="14.00">secondary_db_name</text>
<polygon fill="white" stroke="none" points="633.5,-664 633.5,-683 750.5,-683 750.5,-664 633.5,-664"/>
<text text-anchor="start" x="637.5" y="-669.8" font-family="Times,serif" font-size="14.00">secondary_db_table</text>
<polygon fill="white" stroke="none" points="633.5,-643 633.5,-662 750.5,-662 750.5,-643 633.5,-643"/>
<text text-anchor="start" x="661.5" y="-648.8" font-family="Times,serif" font-size="14.00">description</text>
<polygon fill="black" stroke="black" points="631.5,-852 631.5,-852 752.5,-852 752.5,-852 631.5,-852"/>
</g>
<!-- external_synonym -->
<g id="node6" class="node">
<title>external_synonym</title>
<path fill="#1e90ff" stroke="black" d="M347,-997C347,-997 227,-997 227,-997 221,-997 215,-991 215,-985 215,-985 215,-933 215,-933 215,-927 221,-921 227,-921 227,-921 347,-921 347,-921 353,-921 359,-927 359,-933 359,-933 359,-985 359,-985 359,-991 353,-997 347,-997"/>
<text text-anchor="start" x="227" y="-976.2" font-family="Times,serif" font-size="16.00">external_synonym</text>
<polygon fill="white" stroke="none" points="225,-948 225,-967 349,-967 349,-948 225,-948"/>
<text text-anchor="start" x="253.5" y="-954.8" font-family="Times,serif" font-weight="bold" font-size="14.00">PK</text>
<text text-anchor="start" x="273.5" y="-954.8" font-family="Times,serif" font-size="14.00">  xref_id</text>
<polygon fill="white" stroke="none" points="225,-927 225,-946 349,-946 349,-927 225,-927"/>
<text text-anchor="start" x="248" y="-933.8" font-family="Times,serif" font-weight="bold" font-size="14.00">PK</text>
<text text-anchor="start" x="268" y="-933.8" font-family="Times,serif" font-size="14.00">  synonym</text>
<polygon fill="black" stroke="black" points="223,-968 223,-968 351,-968 351,-968 223,-968"/>
</g>
<!-- external_synonym&#45;&gt;xref -->
<g id="edge7" class="edge">
<title>external_synonym:e&#45;&gt;xref:w</title>
<path fill="none" stroke="black" stroke-dasharray="5,2" d="M350,-957C427.14,-957 368.3,-814.96 432.16,-801.09"/>
<polygon fill="black" stroke="black" points="432.4,-804.48 442,-800 431.7,-797.51 432.4,-804.48"/>
</g>
<!-- identity_xref -->
<g id="node7" class="node">
<title>identity_xref</title>
<path fill="#1e90ff" stroke="black" d="M146,-1091C146,-1091 39,-1091 39,-1091 33,-1091 27,-1085 27,-1079 27,-1079 27,-859 27,-859 27,-853 33,-847 39,-847 39,-847 146,-847 146,-847 152,-847 158,-853 158,-859 158,-859 158,-1079 158,-1079 158,-1085 152,-1091 146,-1091"/>
<text text-anchor="start" x="50.5" y="-1070.2" font-family="Times,serif" font-size="16.00">identity_xref</text>
<polygon fill="white" stroke="none" points="37,-1042 37,-1061 148,-1061 148,-1042 37,-1042"/>
<text text-anchor="start" x="39" y="-1048.8" font-family="Times,serif" font-weight="bold" font-size="14.00">PK</text>
<text text-anchor="start" x="59" y="-1048.8" font-family="Times,serif" font-size="14.00">  object_xref_id</text>
<polygon fill="white" stroke="none" points="37,-1021 37,-1040 148,-1040 148,-1021 37,-1021"/>
<text text-anchor="start" x="57.5" y="-1026.8" font-family="Times,serif" font-size="14.00">xref_identity</text>
<polygon fill="white" stroke="none" points="37,-1000 37,-1019 148,-1019 148,-1000 37,-1000"/>
<text text-anchor="start" x="45.5" y="-1005.8" font-family="Times,serif" font-size="14.00">ensembl_identity</text>
<polygon fill="white" stroke="none" points="37,-979 37,-998 148,-998 148,-979 37,-979"/>
<text text-anchor="start" x="66" y="-984.8" font-family="Times,serif" font-size="14.00">xref_start</text>
<polygon fill="white" stroke="none" points="37,-958 37,-977 148,-977 148,-958 37,-958"/>
<text text-anchor="start" x="68" y="-963.8" font-family="Times,serif" font-size="14.00">xref_end</text>
<polygon fill="white" stroke="none" points="37,-937 37,-956 148,-956 148,-937 37,-937"/>
<text text-anchor="start" x="54" y="-942.8" font-family="Times,serif" font-size="14.00">ensembl_start</text>
<polygon fill="white" stroke="none" points="37,-916 37,-935 148,-935 148,-916 37,-916"/>
<text text-anchor="start" x="56" y="-921.8" font-family="Times,serif" font-size="14.00">ensembl_end</text>
<polygon fill="white" stroke="none" points="37,-895 37,-914 148,-914 148,-895 37,-895"/>
<text text-anchor="start" x="65" y="-900.8" font-family="Times,serif" font-size="14.00">cigar_line</text>
<polygon fill="white" stroke="none" points="37,-874 37,-893 148,-893 148,-874 37,-874"/>
<text text-anchor="start" x="78" y="-879.8" font-family="Times,serif" font-size="14.00">score</text>
<polygon fill="white" stroke="none" points="37,-853 37,-872 148,-872 148,-853 37,-853"/>
<text text-anchor="start" x="74.5" y="-858.8" font-family="Times,serif" font-size="14.00">evalue</text>
<polygon fill="black" stroke="black" points="35,-1062 35,-1062 150,-1062 150,-1062 35,-1062"/>
</g>
<!-- identity_xref&#45;&gt;object_xref -->
<g id="edge9" class="edge">
<title>identity_xref:e&#45;&gt;object_xref:w</title>
<path fill="none" stroke="black" stroke-dasharray="5,2" d="M149.5,-1052C235.83,-1052 144.36,-879.81 215.42,-865.01"/>
<polygon fill="black" stroke="black" points="215.38,-868.44 225,-864 214.71,-861.47 215.38,-868.44"/>
</g>
<!-- interpro -->
<g id="node8" class="node">
<title>interpro</title>
<path fill="#1e90ff" stroke="black" d="M124,-829C124,-829 61,-829 61,-829 55,-829 49,-823 49,-817 49,-817 49,-765 49,-765 49,-759 55,-753 61,-753 61,-753 124,-753 124,-753 130,-753 136,-759 136,-765 136,-765 136,-817 136,-817 136,-823 130,-829 124,-829"/>
<text text-anchor="start" x="66.5" y="-808.2" font-family="Times,serif" font-size="16.00">interpro</text>
<polygon fill="white" stroke="none" points="59,-780 59,-799 126,-799 126,-780 59,-780"/>
<text text-anchor="start" x="61" y="-785.8" font-family="Times,serif" font-size="14.00">interpro_ac</text>
<polygon fill="white" stroke="none" points="59,-759 59,-778 126,-778 126,-759 59,-759"/>
<text text-anchor="start" x="87" y="-764.8" font-family="Times,serif" font-size="14.00">id</text>
<polygon fill="black" stroke="black" points="57,-800 57,-800 128,-800 128,-800 57,-800"/>
</g>
<!-- object_xref&#45;&gt;xref -->
<g id="edge11" class="edge">
<title>object_xref:e&#45;&gt;xref:w</title>
<path fill="none" stroke="black" stroke-dasharray="5,2" d="M348,-800C386.43,-800 398.63,-800 432.34,-800"/>
<polygon fill="black" stroke="black" points="432,-803.5 442,-800 432,-796.5 432,-803.5"/>
</g>
<!-- analysis -->
<g id="node14" class="node">
<title>analysis</title>
<path fill="#808000" stroke="black" d="M532.5,-122C532.5,-122 443.5,-122 443.5,-122 437.5,-122 431.5,-116 431.5,-110 431.5,-110 431.5,-58 431.5,-58 431.5,-52 437.5,-46 443.5,-46 443.5,-46 532.5,-46 532.5,-46 538.5,-46 544.5,-52 544.5,-58 544.5,-58 544.5,-110 544.5,-110 544.5,-116 538.5,-122 532.5,-122"/>
<text text-anchor="start" x="463" y="-101.2" font-family="Times,serif" font-size="16.00">analysis</text>
<polygon fill="white" stroke="none" points="441.5,-73 441.5,-92 534.5,-92 534.5,-73 441.5,-73"/>
<text text-anchor="start" x="443.5" y="-79.8" font-family="Times,serif" font-weight="bold" font-size="14.00">PK</text>
<text text-anchor="start" x="463.5" y="-79.8" font-family="Times,serif" font-size="14.00">  analysis_id</text>
<polygon fill="white" stroke="none" points="441.5,-52 441.5,-71 534.5,-71 534.5,-52 441.5,-52"/>
<text text-anchor="start" x="482" y="-58.8" font-family="Times,serif" font-style="italic" font-size="14.00">...</text>
<polygon fill="black" stroke="black" points="439.5,-93 439.5,-93 536.5,-93 536.5,-93 439.5,-93"/>
</g>
<!-- object_xref&#45;&gt;analysis -->
<g id="edge10" class="edge">
<title>object_xref:e&#45;&gt;analysis:w</title>
<path fill="none" stroke="black" stroke-dasharray="5,2" d="M348,-758C417.91,-758 373.83,-195.82 400,-131 408.96,-108.8 411.28,-88.88 429.13,-83.45"/>
<polygon fill="black" stroke="black" points="429.55,-86.79 439,-82 428.62,-79.85 429.55,-86.79"/>
</g>
<!-- ontology_xref -->
<g id="node10" class="node">
<title>ontology_xref</title>
<path fill="#1e90ff" stroke="black" d="M138.5,-734.5C138.5,-734.5 46.5,-734.5 46.5,-734.5 40.5,-734.5 34.5,-728.5 34.5,-722.5 34.5,-722.5 34.5,-649.5 34.5,-649.5 34.5,-643.5 40.5,-637.5 46.5,-637.5 46.5,-637.5 138.5,-637.5 138.5,-637.5 144.5,-637.5 150.5,-643.5 150.5,-649.5 150.5,-649.5 150.5,-722.5 150.5,-722.5 150.5,-728.5 144.5,-734.5 138.5,-734.5"/>
<text text-anchor="start" x="46.5" y="-713.7" font-family="Times,serif" font-size="16.00">ontology_xref</text>
<polygon fill="white" stroke="none" points="44.5,-685.5 44.5,-704.5 140.5,-704.5 140.5,-685.5 44.5,-685.5"/>
<text text-anchor="start" x="53" y="-691.3" font-family="Times,serif" font-size="14.00">object_xref_id</text>
<polygon fill="white" stroke="none" points="44.5,-664.5 44.5,-683.5 140.5,-683.5 140.5,-664.5 44.5,-664.5"/>
<text text-anchor="start" x="51.5" y="-670.3" font-family="Times,serif" font-size="14.00">source_xref_id</text>
<polygon fill="white" stroke="none" points="44.5,-643.5 44.5,-662.5 140.5,-662.5 140.5,-643.5 44.5,-643.5"/>
<text text-anchor="start" x="57.5" y="-649.3" font-family="Times,serif" font-size="14.00">linkage_type</text>
<polygon fill="black" stroke="black" points="42.5,-705.5 42.5,-705.5 142.5,-705.5 142.5,-705.5 42.5,-705.5"/>
</g>
<!-- ontology_xref&#45;&gt;object_xref -->
<g id="edge12" class="edge">
<title>ontology_xref:e&#45;&gt;object_xref:w</title>
<path fill="none" stroke="black" stroke-dasharray="5,2" d="M141.5,-695C221.54,-695 149.48,-848.53 215.26,-862.92"/>
<polygon fill="black" stroke="black" points="214.7,-866.48 225,-864 215.4,-859.52 214.7,-866.48"/>
</g>
<!-- ontology_xref&#45;&gt;xref -->
<g id="edge13" class="edge">
<title>ontology_xref:e&#45;&gt;xref:w</title>
<path fill="none" stroke="black" stroke-dasharray="5,2" d="M141.5,-674C246.07,-674 276.89,-684.5 369,-734 404.33,-752.99 400.14,-792.08 432.33,-798.96"/>
<polygon fill="black" stroke="black" points="431.71,-802.51 442,-800 432.39,-795.54 431.71,-802.51"/>
</g>
<!-- unmapped_object -->
<g id="node11" class="node">
<title>unmapped_object</title>
<path fill="#1e90ff" stroke="black" d="M559,-1122.5C559,-1122.5 417,-1122.5 417,-1122.5 411,-1122.5 405,-1116.5 405,-1110.5 405,-1110.5 405,-869.5 405,-869.5 405,-863.5 411,-857.5 417,-857.5 417,-857.5 559,-857.5 559,-857.5 565,-857.5 571,-863.5 571,-869.5 571,-869.5 571,-1110.5 571,-1110.5 571,-1116.5 565,-1122.5 559,-1122.5"/>
<text text-anchor="start" x="430.5" y="-1101.7" font-family="Times,serif" font-size="16.00">unmapped_object</text>
<polygon fill="white" stroke="none" points="415,-1073.5 415,-1092.5 561,-1092.5 561,-1073.5 415,-1073.5"/>
<text text-anchor="start" x="417" y="-1080.3" font-family="Times,serif" font-weight="bold" font-size="14.00">PK</text>
<text text-anchor="start" x="437" y="-1080.3" font-family="Times,serif" font-size="14.00">  unmapped_object_id</text>
<polygon fill="white" stroke="none" points="415,-1052.5 415,-1071.5 561,-1071.5 561,-1052.5 415,-1052.5"/>
<text text-anchor="start" x="476" y="-1058.3" font-family="Times,serif" font-size="14.00">type</text>
<polygon fill="white" stroke="none" points="415,-1031.5 415,-1050.5 561,-1050.5 561,-1031.5 415,-1031.5"/>
<text text-anchor="start" x="457.5" y="-1037.3" font-family="Times,serif" font-size="14.00">analysis_id</text>
<polygon fill="white" stroke="none" points="415,-1010.5 415,-1029.5 561,-1029.5 561,-1010.5 415,-1010.5"/>
<text text-anchor="start" x="447" y="-1016.3" font-family="Times,serif" font-size="14.00">external_db_id</text>
<polygon fill="white" stroke="none" points="415,-989.5 415,-1008.5 561,-1008.5 561,-989.5 415,-989.5"/>
<text text-anchor="start" x="463.5" y="-995.3" font-family="Times,serif" font-size="14.00">identifier</text>
<polygon fill="white" stroke="none" points="415,-968.5 415,-987.5 561,-987.5 561,-968.5 415,-968.5"/>
<text text-anchor="start" x="429.5" y="-974.3" font-family="Times,serif" font-size="14.00">unmapped_reason_id</text>
<polygon fill="white" stroke="none" points="415,-947.5 415,-966.5 561,-966.5 561,-947.5 415,-947.5"/>
<text text-anchor="start" x="454.5" y="-953.3" font-family="Times,serif" font-size="14.00">query_score</text>
<polygon fill="white" stroke="none" points="415,-926.5 415,-945.5 561,-945.5 561,-926.5 415,-926.5"/>
<text text-anchor="start" x="454.5" y="-932.3" font-family="Times,serif" font-size="14.00">target_score</text>
<polygon fill="white" stroke="none" points="415,-905.5 415,-924.5 561,-924.5 561,-905.5 415,-905.5"/>
<text text-anchor="start" x="456" y="-911.3" font-family="Times,serif" font-size="14.00">ensembl_id</text>
<polygon fill="white" stroke="none" points="415,-884.5 415,-903.5 561,-903.5 561,-884.5 415,-884.5"/>
<text text-anchor="start" x="430" y="-890.3" font-family="Times,serif" font-size="14.00">ensembl_object_type</text>
<polygon fill="white" stroke="none" points="415,-863.5 415,-882.5 561,-882.5 561,-863.5 415,-863.5"/>
<text text-anchor="start" x="471" y="-869.3" font-family="Times,serif" font-size="14.00">parent</text>
<polygon fill="black" stroke="black" points="413,-1093.5 413,-1093.5 563,-1093.5 563,-1093.5 413,-1093.5"/>
</g>
<!-- unmapped_object&#45;&gt;external_db -->
<g id="edge17" class="edge">
<title>unmapped_object:e&#45;&gt;external_db:w</title>
<path fill="none" stroke="black" stroke-dasharray="5,2" d="M562,-1020C643.02,-1020 555.96,-858.3 621.23,-843.14"/>
<polygon fill="black" stroke="black" points="621.42,-846.53 631,-842 620.69,-839.57 621.42,-846.53"/>
</g>
<!-- unmapped_reason -->
<g id="node12" class="node">
<title>unmapped_reason</title>
<path fill="#1e90ff" stroke="black" d="M764,-1017.5C764,-1017.5 620,-1017.5 620,-1017.5 614,-1017.5 608,-1011.5 608,-1005.5 608,-1005.5 608,-932.5 608,-932.5 608,-926.5 614,-920.5 620,-920.5 620,-920.5 764,-920.5 764,-920.5 770,-920.5 776,-926.5 776,-932.5 776,-932.5 776,-1005.5 776,-1005.5 776,-1011.5 770,-1017.5 764,-1017.5"/>
<text text-anchor="start" x="633" y="-996.7" font-family="Times,serif" font-size="16.00">unmapped_reason</text>
<polygon fill="white" stroke="none" points="618,-968.5 618,-987.5 766,-987.5 766,-968.5 618,-968.5"/>
<text text-anchor="start" x="620" y="-975.3" font-family="Times,serif" font-weight="bold" font-size="14.00">PK</text>
<text text-anchor="start" x="640" y="-975.3" font-family="Times,serif" font-size="14.00">  unmapped_reason_id</text>
<polygon fill="white" stroke="none" points="618,-947.5 618,-966.5 766,-966.5 766,-947.5 618,-947.5"/>
<text text-anchor="start" x="631.5" y="-953.3" font-family="Times,serif" font-size="14.00">summary_description</text>
<polygon fill="white" stroke="none" points="618,-926.5 618,-945.5 766,-945.5 766,-926.5 618,-926.5"/>
<text text-anchor="start" x="648.5" y="-932.3" font-family="Times,serif" font-size="14.00">full_description</text>
<polygon fill="black" stroke="black" points="616,-988.5 616,-988.5 768,-988.5 768,-988.5 616,-988.5"/>
</g>
<!-- unmapped_object&#45;&gt;unmapped_reason -->
<g id="edge18" class="edge">
<title>unmapped_object:e&#45;&gt;unmapped_reason:w</title>
<path fill="none" stroke="black" stroke-dasharray="5,2" d="M562,-978C582.43,-978 590.06,-978 606.29,-978"/>
<polygon fill="black" stroke="black" points="606,-981.5 616,-978 606,-974.5 606,-981.5"/>
</g>
<!-- unmapped_object&#45;&gt;analysis -->
<g id="edge16" class="edge">
<title>unmapped_object:e&#45;&gt;analysis:w</title>
<path fill="none" stroke="black" stroke-dasharray="5,2" d="M571,-1041C591.61,-1041 585.25,-870.39 571,-855.5 557.85,-841.76 418.25,-853.35 400,-848 392.36,-845.76 388.47,-845.9 384.5,-839 365.12,-805.35 370.04,-176.04 384.5,-140 396.34,-110.51 402.81,-87.54 429.29,-82.87"/>
<polygon fill="black" stroke="black" points="429.32,-86.3 439,-82 428.75,-79.32 429.32,-86.3"/>
</g>
<!-- xref&#45;&gt;external_db -->
<g id="edge19" class="edge">
<title>xref:e&#45;&gt;external_db:w</title>
<path fill="none" stroke="black" stroke-dasharray="5,2" d="M533,-779C581.28,-779 580.32,-833 621.29,-841.01"/>
<polygon fill="black" stroke="black" points="620.72,-844.56 631,-842 621.36,-837.59 620.72,-844.56"/>
</g>
<!-- dna_align_feature -->
<g id="node15" class="node">
<title>dna_align_feature</title>
<path fill="#808000" stroke="black" d="M545.5,-467.5C545.5,-467.5 430.5,-467.5 430.5,-467.5 424.5,-467.5 418.5,-461.5 418.5,-455.5 418.5,-455.5 418.5,-382.5 418.5,-382.5 418.5,-376.5 424.5,-370.5 430.5,-370.5 430.5,-370.5 545.5,-370.5 545.5,-370.5 551.5,-370.5 557.5,-376.5 557.5,-382.5 557.5,-382.5 557.5,-455.5 557.5,-455.5 557.5,-461.5 551.5,-467.5 545.5,-467.5"/>
<text text-anchor="start" x="430.5" y="-446.7" font-family="Times,serif" font-size="16.00">dna_align_feature</text>
<polygon fill="white" stroke="none" points="428.5,-418.5 428.5,-437.5 547.5,-437.5 547.5,-418.5 428.5,-418.5"/>
<text text-anchor="start" x="482" y="-425.3" font-family="Times,serif" font-style="italic" font-size="14.00">...</text>
<polygon fill="white" stroke="none" points="428.5,-397.5 428.5,-416.5 547.5,-416.5 547.5,-397.5 428.5,-397.5"/>
<text text-anchor="start" x="447" y="-403.3" font-family="Times,serif" font-size="14.00">external_db_id</text>
<polygon fill="white" stroke="none" points="428.5,-376.5 428.5,-395.5 547.5,-395.5 547.5,-376.5 428.5,-376.5"/>
<text text-anchor="start" x="482" y="-383.3" font-family="Times,serif" font-style="italic" font-size="14.00">...</text>
<polygon fill="black" stroke="black" points="426.5,-438.5 426.5,-438.5 549.5,-438.5 549.5,-438.5 426.5,-438.5"/>
</g>
<!-- dna_align_feature&#45;&gt;external_db -->
<g id="edge6" class="edge">
<title>dna_align_feature:e&#45;&gt;external_db:w</title>
<path fill="none" stroke="black" stroke-dasharray="5,2" d="M549,-407C643.57,-407 542.16,-808.68 621.41,-840.06"/>
<polygon fill="black" stroke="black" points="620.53,-843.64 631,-842 621.79,-836.76 620.53,-843.64"/>
</g>
<!-- gene -->
<g id="node16" class="node">
<title>gene</title>
<path fill="#808000" stroke="black" d="M530.5,-237.5C530.5,-237.5 445.5,-237.5 445.5,-237.5 439.5,-237.5 433.5,-231.5 433.5,-225.5 433.5,-225.5 433.5,-152.5 433.5,-152.5 433.5,-146.5 439.5,-140.5 445.5,-140.5 445.5,-140.5 530.5,-140.5 530.5,-140.5 536.5,-140.5 542.5,-146.5 542.5,-152.5 542.5,-152.5 542.5,-225.5 542.5,-225.5 542.5,-231.5 536.5,-237.5 530.5,-237.5"/>
<text text-anchor="start" x="473" y="-216.7" font-family="Times,serif" font-size="16.00">gene</text>
<polygon fill="white" stroke="none" points="443.5,-188.5 443.5,-207.5 532.5,-207.5 532.5,-188.5 443.5,-188.5"/>
<text text-anchor="start" x="482" y="-195.3" font-family="Times,serif" font-style="italic" font-size="14.00">...</text>
<polygon fill="white" stroke="none" points="443.5,-167.5 443.5,-186.5 532.5,-186.5 532.5,-167.5 443.5,-167.5"/>
<text text-anchor="start" x="445.5" y="-173.3" font-family="Times,serif" font-size="14.00">display_xref_id</text>
<polygon fill="white" stroke="none" points="443.5,-146.5 443.5,-165.5 532.5,-165.5 532.5,-146.5 443.5,-146.5"/>
<text text-anchor="start" x="482" y="-153.3" font-family="Times,serif" font-style="italic" font-size="14.00">...</text>
<polygon fill="black" stroke="black" points="441.5,-208.5 441.5,-208.5 534.5,-208.5 534.5,-208.5 441.5,-208.5"/>
</g>
<!-- gene&#45;&gt;xref -->
<g id="edge8" class="edge">
<title>gene:e&#45;&gt;xref:w</title>
<path fill="none" stroke="black" stroke-dasharray="5,2" d="M542.5,-177C569.39,-177 560.94,-217.93 542.5,-237.5 518.28,-263.21 402.13,-224.39 384.5,-255 364.49,-289.76 378.35,-576.36 384.5,-616 397.06,-696.99 360.72,-791.12 432.18,-799.41"/>
<polygon fill="black" stroke="black" points="431.82,-802.95 442,-800 432.21,-795.96 431.82,-802.95"/>
</g>
<!-- protein_align_feature -->
<g id="node17" class="node">
<title>protein_align_feature</title>
<path fill="#808000" stroke="black" d="M556,-582.5C556,-582.5 420,-582.5 420,-582.5 414,-582.5 408,-576.5 408,-570.5 408,-570.5 408,-497.5 408,-497.5 408,-491.5 414,-485.5 420,-485.5 420,-485.5 556,-485.5 556,-485.5 562,-485.5 568,-491.5 568,-497.5 568,-497.5 568,-570.5 568,-570.5 568,-576.5 562,-582.5 556,-582.5"/>
<text text-anchor="start" x="420" y="-561.7" font-family="Times,serif" font-size="16.00">protein_align_feature</text>
<polygon fill="white" stroke="none" points="418,-533.5 418,-552.5 558,-552.5 558,-533.5 418,-533.5"/>
<text text-anchor="start" x="482" y="-540.3" font-family="Times,serif" font-style="italic" font-size="14.00">...</text>
<polygon fill="white" stroke="none" points="418,-512.5 418,-531.5 558,-531.5 558,-512.5 418,-512.5"/>
<text text-anchor="start" x="447" y="-518.3" font-family="Times,serif" font-size="14.00">external_db_id</text>
<polygon fill="white" stroke="none" points="418,-491.5 418,-510.5 558,-510.5 558,-491.5 418,-491.5"/>
<text text-anchor="start" x="482" y="-498.3" font-family="Times,serif" font-style="italic" font-size="14.00">...</text>
<polygon fill="black" stroke="black" points="416,-553.5 416,-553.5 560,-553.5 560,-553.5 416,-553.5"/>
</g>
<!-- protein_align_feature&#45;&gt;external_db -->
<g id="edge14" class="edge">
<title>protein_align_feature:e&#45;&gt;external_db:w</title>
<path fill="none" stroke="black" stroke-dasharray="5,2" d="M559,-522C701.03,-522 497.41,-825.35 621.21,-841.34"/>
<polygon fill="black" stroke="black" points="620.81,-844.89 631,-842 621.23,-837.9 620.81,-844.89"/>
</g>
<!-- transcript -->
<g id="node18" class="node">
<title>transcript</title>
<path fill="#808000" stroke="black" d="M530.5,-352.5C530.5,-352.5 445.5,-352.5 445.5,-352.5 439.5,-352.5 433.5,-346.5 433.5,-340.5 433.5,-340.5 433.5,-267.5 433.5,-267.5 433.5,-261.5 439.5,-255.5 445.5,-255.5 445.5,-255.5 530.5,-255.5 530.5,-255.5 536.5,-255.5 542.5,-261.5 542.5,-267.5 542.5,-267.5 542.5,-340.5 542.5,-340.5 542.5,-346.5 536.5,-352.5 530.5,-352.5"/>
<text text-anchor="start" x="457.5" y="-331.7" font-family="Times,serif" font-size="16.00">transcript</text>
<polygon fill="white" stroke="none" points="443.5,-303.5 443.5,-322.5 532.5,-322.5 532.5,-303.5 443.5,-303.5"/>
<text text-anchor="start" x="482" y="-310.3" font-family="Times,serif" font-style="italic" font-size="14.00">...</text>
<polygon fill="white" stroke="none" points="443.5,-282.5 443.5,-301.5 532.5,-301.5 532.5,-282.5 443.5,-282.5"/>
<text text-anchor="start" x="445.5" y="-288.3" font-family="Times,serif" font-size="14.00">display_xref_id</text>
<polygon fill="white" stroke="none" points="443.5,-261.5 443.5,-280.5 532.5,-280.5 532.5,-261.5 443.5,-261.5"/>
<text text-anchor="start" x="482" y="-268.3" font-family="Times,serif" font-style="italic" font-size="14.00">...</text>
<polygon fill="black" stroke="black" points="441.5,-323.5 441.5,-323.5 534.5,-323.5 534.5,-323.5 441.5,-323.5"/>
</g>
<!-- transcript&#45;&gt;xref -->
<g id="edge15" class="edge">
<title>transcript:e&#45;&gt;xref:w</title>
<path fill="none" stroke="black" stroke-dasharray="5,2" d="M542.5,-292C569.39,-292 560.94,-332.93 542.5,-352.5 518.28,-378.21 402.13,-339.39 384.5,-370 357.23,-417.38 376.12,-561.98 384.5,-616 397.06,-696.99 360.72,-791.12 432.18,-799.41"/>
<polygon fill="black" stroke="black" points="431.82,-802.95 442,-800 432.21,-795.96 431.82,-802.95"/>
</g>
</g>
</svg>
