<?xml version="1.0" encoding="UTF-8" standalone="no"?>
<!DOCTYPE svg PUBLIC "-//W3C//DTD SVG 1.1//EN"
 "http://www.w3.org/Graphics/SVG/1.1/DTD/svg11.dtd">
<!-- Generated by graphviz version 2.42.1 (20190717.1914)
 -->
<!-- Title: test Pages: 1 -->
<svg width="614pt" height="3513pt"
 viewBox="0.00 0.00 613.61 3513.00" xmlns="http://www.w3.org/2000/svg" xmlns:xlink="http://www.w3.org/1999/xlink">
<g id="graph0" class="graph" transform="scale(1 1) rotate(0) translate(4 3509)">
<title>test</title>
<polygon fill="white" stroke="transparent" points="-4,4 -4,-3509 609.61,-3509 609.61,4 -4,4"/>
<text text-anchor="middle" x="302.81" y="-10" font-family="Times,serif" font-size="20.00">Core schema diagram: Assembly Tables tables</text>
<g id="clust1" class="cluster">
<title>cluster_assembly_tables</title>
<path fill="#f3cecd" stroke="#f3cecd" d="M51.61,-2325C51.61,-2325 585.61,-2325 585.61,-2325 591.61,-2325 597.61,-2331 597.61,-2337 597.61,-2337 597.61,-3485 597.61,-3485 597.61,-3491 591.61,-3497 585.61,-3497 585.61,-3497 51.61,-3497 51.61,-3497 45.61,-3497 39.61,-3491 39.61,-3485 39.61,-3485 39.61,-2337 39.61,-2337 39.61,-2331 45.61,-2325 51.61,-2325"/>
<text text-anchor="middle" x="318.61" y="-3477" font-family="Times,serif" font-size="20.00">Assembly Tables</text>
</g>
<g id="clust2" class="cluster">
<title>cluster_features</title>
<polygon fill="white" stroke="white" points="29.61,-455 29.61,-1518 251.61,-1518 251.61,-455 29.61,-455"/>
<text text-anchor="middle" x="140.61" y="-1498" font-family="Times,serif" font-size="20.00">Features</text>
</g>
<g id="clust3" class="cluster">
<title>cluster_fundamental_tables</title>
<polygon fill="white" stroke="white" points="51.11,-1526 51.11,-2317 230.11,-2317 230.11,-1526 51.11,-1526"/>
<text text-anchor="middle" x="140.61" y="-2297" font-family="Times,serif" font-size="20.00">Fundamental Tables</text>
</g>
<g id="clust4" class="cluster">
<title>cluster_id_mapping</title>
<polygon fill="white" stroke="white" points="52.61,-38 52.61,-181 228.61,-181 228.61,-38 52.61,-38"/>
<text text-anchor="middle" x="140.61" y="-161" font-family="Times,serif" font-size="20.00">ID Mapping</text>
</g>
<g id="clust5" class="cluster">
<title>cluster_misc</title>
<polygon fill="white" stroke="white" points="63.61,-189 63.61,-447 217.61,-447 217.61,-189 63.61,-189"/>
<text text-anchor="middle" x="140.61" y="-427" font-family="Times,serif" font-size="20.00">Misc</text>
</g>
<!-- assembly -->
<g id="node1" class="node">
<title>assembly</title>
<path fill="#c70c09" stroke="black" d="M194.61,-3206.5C194.61,-3206.5 86.61,-3206.5 86.61,-3206.5 80.61,-3206.5 74.61,-3200.5 74.61,-3194.5 74.61,-3194.5 74.61,-3037.5 74.61,-3037.5 74.61,-3031.5 80.61,-3025.5 86.61,-3025.5 86.61,-3025.5 194.61,-3025.5 194.61,-3025.5 200.61,-3025.5 206.61,-3031.5 206.61,-3037.5 206.61,-3037.5 206.61,-3194.5 206.61,-3194.5 206.61,-3200.5 200.61,-3206.5 194.61,-3206.5"/>
<text text-anchor="start" x="110.61" y="-3185.2" font-family="Times,serif" font-size="16.00">assembly</text>
<polygon fill="white" stroke="transparent" points="84.61,-3157 84.61,-3176 196.61,-3176 196.61,-3157 84.61,-3157"/>
<text text-anchor="start" x="87.61" y="-3162.8" font-family="Times,serif" font-size="14.00">asm_seq_region_id</text>
<polygon fill="white" stroke="transparent" points="84.61,-3136 84.61,-3155 196.61,-3155 196.61,-3136 84.61,-3136"/>
<text text-anchor="start" x="86.61" y="-3141.8" font-family="Times,serif" font-size="14.00">cmp_seq_region_id</text>
<polygon fill="white" stroke="transparent" points="84.61,-3115 84.61,-3134 196.61,-3134 196.61,-3115 84.61,-3115"/>
<text text-anchor="start" x="114.11" y="-3120.8" font-family="Times,serif" font-size="14.00">asm_start</text>
<polygon fill="white" stroke="transparent" points="84.61,-3094 84.61,-3113 196.61,-3113 196.61,-3094 84.61,-3094"/>
<text text-anchor="start" x="116.11" y="-3099.8" font-family="Times,serif" font-size="14.00">asm_end</text>
<polygon fill="white" stroke="transparent" points="84.61,-3073 84.61,-3092 196.61,-3092 196.61,-3073 84.61,-3073"/>
<text text-anchor="start" x="113.11" y="-3078.8" font-family="Times,serif" font-size="14.00">cmp_start</text>
<polygon fill="white" stroke="transparent" points="84.61,-3052 84.61,-3071 196.61,-3071 196.61,-3052 84.61,-3052"/>
<text text-anchor="start" x="115.11" y="-3057.8" font-family="Times,serif" font-size="14.00">cmp_end</text>
<polygon fill="white" stroke="transparent" points="84.61,-3031 84.61,-3050 196.61,-3050 196.61,-3031 84.61,-3031"/>
<text text-anchor="start" x="132.61" y="-3036.8" font-family="Times,serif" font-size="14.00">ori</text>
<polygon fill="black" stroke="black" points="82.61,-3177 82.61,-3177 198.61,-3177 198.61,-3177 82.61,-3177"/>
</g>
<!-- seq_region -->
<g id="node10" class="node">
<title>seq_region</title>
<path fill="#c70c09" stroke="black" d="M396.61,-2587C396.61,-2587 291.61,-2587 291.61,-2587 285.61,-2587 279.61,-2581 279.61,-2575 279.61,-2575 279.61,-2481 279.61,-2481 279.61,-2475 285.61,-2469 291.61,-2469 291.61,-2469 396.61,-2469 396.61,-2469 402.61,-2469 408.61,-2475 408.61,-2481 408.61,-2481 408.61,-2575 408.61,-2575 408.61,-2581 402.61,-2587 396.61,-2587"/>
<text text-anchor="start" x="309.11" y="-2566.2" font-family="Times,serif" font-size="16.00">seq_region</text>
<polygon fill="white" stroke="transparent" points="290.11,-2538 290.11,-2557 399.11,-2557 399.11,-2538 290.11,-2538"/>
<text text-anchor="start" x="292.11" y="-2544.8" font-family="Times,serif" font-weight="bold" font-size="14.00">PK</text>
<text text-anchor="start" x="312.11" y="-2544.8" font-family="Times,serif" font-size="14.00">  seq_region_id</text>
<polygon fill="white" stroke="transparent" points="290.11,-2517 290.11,-2536 399.11,-2536 399.11,-2517 290.11,-2517"/>
<text text-anchor="start" x="329.11" y="-2522.8" font-family="Times,serif" font-size="14.00">name</text>
<polygon fill="white" stroke="transparent" points="290.11,-2496 290.11,-2515 399.11,-2515 399.11,-2496 290.11,-2496"/>
<text text-anchor="start" x="297.61" y="-2501.8" font-family="Times,serif" font-size="14.00">coord_system_id</text>
<polygon fill="white" stroke="transparent" points="290.11,-2475 290.11,-2494 399.11,-2494 399.11,-2475 290.11,-2475"/>
<text text-anchor="start" x="327.61" y="-2480.8" font-family="Times,serif" font-size="14.00">length</text>
<polygon fill="black" stroke="black" points="288.11,-2558 288.11,-2558 401.11,-2558 401.11,-2558 288.11,-2558"/>
</g>
<!-- assembly&#45;&gt;seq_region -->
<g id="edge1" class="edge">
<title>assembly:e&#45;&gt;seq_region:w</title>
<path fill="none" stroke="black" stroke-dasharray="5,2" d="M197.61,-3167C268.89,-3167 237.1,-3085.78 251.61,-3016 261.57,-2968.12 239.97,-2598.69 280.21,-2552.69"/>
<polygon fill="black" stroke="black" points="281.9,-2555.76 289.11,-2548 278.64,-2549.57 281.9,-2555.76"/>
</g>
<!-- assembly_exception -->
<g id="node2" class="node">
<title>assembly_exception</title>
<path fill="#c70c09" stroke="black" d="M218.61,-2650.5C218.61,-2650.5 62.61,-2650.5 62.61,-2650.5 56.61,-2650.5 50.61,-2644.5 50.61,-2638.5 50.61,-2638.5 50.61,-2439.5 50.61,-2439.5 50.61,-2433.5 56.61,-2427.5 62.61,-2427.5 62.61,-2427.5 218.61,-2427.5 218.61,-2427.5 224.61,-2427.5 230.61,-2433.5 230.61,-2439.5 230.61,-2439.5 230.61,-2638.5 230.61,-2638.5 230.61,-2644.5 224.61,-2650.5 218.61,-2650.5"/>
<text text-anchor="start" x="75.61" y="-2629.2" font-family="Times,serif" font-size="16.00">assembly_exception</text>
<polygon fill="white" stroke="transparent" points="60.61,-2601 60.61,-2620 220.61,-2620 220.61,-2601 60.61,-2601"/>
<text text-anchor="start" x="62.61" y="-2607.8" font-family="Times,serif" font-weight="bold" font-size="14.00">PK</text>
<text text-anchor="start" x="82.61" y="-2607.8" font-family="Times,serif" font-size="14.00">  assembly_exception_id</text>
<polygon fill="white" stroke="transparent" points="60.61,-2580 60.61,-2599 220.61,-2599 220.61,-2580 60.61,-2580"/>
<text text-anchor="start" x="102.11" y="-2585.8" font-family="Times,serif" font-size="14.00">seq_region_id</text>
<polygon fill="white" stroke="transparent" points="60.61,-2559 60.61,-2578 220.61,-2578 220.61,-2559 60.61,-2559"/>
<text text-anchor="start" x="95.61" y="-2564.8" font-family="Times,serif" font-size="14.00">seq_region_start</text>
<polygon fill="white" stroke="transparent" points="60.61,-2538 60.61,-2557 220.61,-2557 220.61,-2538 60.61,-2538"/>
<text text-anchor="start" x="97.61" y="-2543.8" font-family="Times,serif" font-size="14.00">seq_region_end</text>
<polygon fill="white" stroke="transparent" points="60.61,-2517 60.61,-2536 220.61,-2536 220.61,-2517 60.61,-2517"/>
<text text-anchor="start" x="116.11" y="-2522.8" font-family="Times,serif" font-size="14.00">exc_type</text>
<polygon fill="white" stroke="transparent" points="60.61,-2496 60.61,-2515 220.61,-2515 220.61,-2496 60.61,-2496"/>
<text text-anchor="start" x="89.11" y="-2501.8" font-family="Times,serif" font-size="14.00">exc_seq_region_id</text>
<polygon fill="white" stroke="transparent" points="60.61,-2475 60.61,-2494 220.61,-2494 220.61,-2475 60.61,-2475"/>
<text text-anchor="start" x="83.11" y="-2480.8" font-family="Times,serif" font-size="14.00">exc_seq_region_start</text>
<polygon fill="white" stroke="transparent" points="60.61,-2454 60.61,-2473 220.61,-2473 220.61,-2454 60.61,-2454"/>
<text text-anchor="start" x="84.61" y="-2459.8" font-family="Times,serif" font-size="14.00">exc_seq_region_end</text>
<polygon fill="white" stroke="transparent" points="60.61,-2433 60.61,-2452 220.61,-2452 220.61,-2433 60.61,-2433"/>
<text text-anchor="start" x="132.61" y="-2438.8" font-family="Times,serif" font-size="14.00">ori</text>
<polygon fill="black" stroke="black" points="58.61,-2621 58.61,-2621 222.61,-2621 222.61,-2621 58.61,-2621"/>
</g>
<!-- assembly_exception&#45;&gt;seq_region -->
<g id="edge2" class="edge">
<title>assembly_exception:e&#45;&gt;seq_region:w</title>
<path fill="none" stroke="black" stroke-dasharray="5,2" d="M221.61,-2505C253.43,-2505 253.88,-2539.41 279.08,-2546.67"/>
<polygon fill="black" stroke="black" points="278.74,-2550.15 289.11,-2548 279.66,-2543.21 278.74,-2550.15"/>
</g>
<!-- coord_system -->
<g id="node3" class="node">
<title>coord_system</title>
<path fill="#c70c09" stroke="black" d="M577.61,-2612C577.61,-2612 456.61,-2612 456.61,-2612 450.61,-2612 444.61,-2606 444.61,-2600 444.61,-2600 444.61,-2464 444.61,-2464 444.61,-2458 450.61,-2452 456.61,-2452 456.61,-2452 577.61,-2452 577.61,-2452 583.61,-2452 589.61,-2458 589.61,-2464 589.61,-2464 589.61,-2600 589.61,-2600 589.61,-2606 583.61,-2612 577.61,-2612"/>
<text text-anchor="start" x="472.61" y="-2591.2" font-family="Times,serif" font-size="16.00">coord_system</text>
<polygon fill="white" stroke="transparent" points="455.11,-2563 455.11,-2582 580.11,-2582 580.11,-2563 455.11,-2563"/>
<text text-anchor="start" x="457.11" y="-2569.8" font-family="Times,serif" font-weight="bold" font-size="14.00">PK</text>
<text text-anchor="start" x="477.11" y="-2569.8" font-family="Times,serif" font-size="14.00">  coord_system_id</text>
<polygon fill="white" stroke="transparent" points="455.11,-2542 455.11,-2561 580.11,-2561 580.11,-2542 455.11,-2542"/>
<text text-anchor="start" x="489.11" y="-2547.8" font-family="Times,serif" font-size="14.00">species_id</text>
<polygon fill="white" stroke="transparent" points="455.11,-2521 455.11,-2540 580.11,-2540 580.11,-2521 455.11,-2521"/>
<text text-anchor="start" x="502.11" y="-2526.8" font-family="Times,serif" font-size="14.00">name</text>
<polygon fill="white" stroke="transparent" points="455.11,-2500 455.11,-2519 580.11,-2519 580.11,-2500 455.11,-2500"/>
<text text-anchor="start" x="497.61" y="-2505.8" font-family="Times,serif" font-size="14.00">version</text>
<polygon fill="white" stroke="transparent" points="455.11,-2479 455.11,-2498 580.11,-2498 580.11,-2479 455.11,-2479"/>
<text text-anchor="start" x="505.11" y="-2484.8" font-family="Times,serif" font-size="14.00">rank</text>
<polygon fill="white" stroke="transparent" points="455.11,-2458 455.11,-2477 580.11,-2477 580.11,-2458 455.11,-2458"/>
<text text-anchor="start" x="503.11" y="-2463.8" font-family="Times,serif" font-size="14.00">attrib</text>
<polygon fill="black" stroke="black" points="453.11,-2583 453.11,-2583 582.11,-2583 582.11,-2583 453.11,-2583"/>
</g>
<!-- data_file -->
<g id="node4" class="node">
<title>data_file</title>
<path fill="#c70c09" stroke="black" d="M391.11,-2923C391.11,-2923 297.11,-2923 297.11,-2923 291.11,-2923 285.11,-2917 285.11,-2911 285.11,-2911 285.11,-2733 285.11,-2733 285.11,-2727 291.11,-2721 297.11,-2721 297.11,-2721 391.11,-2721 391.11,-2721 397.11,-2721 403.11,-2727 403.11,-2733 403.11,-2733 403.11,-2911 403.11,-2911 403.11,-2917 397.11,-2923 391.11,-2923"/>
<text text-anchor="start" x="316.11" y="-2902.2" font-family="Times,serif" font-size="16.00">data_file</text>
<polygon fill="white" stroke="transparent" points="295.11,-2874 295.11,-2893 393.11,-2893 393.11,-2874 295.11,-2874"/>
<text text-anchor="start" x="297.61" y="-2880.8" font-family="Times,serif" font-weight="bold" font-size="14.00">PK</text>
<text text-anchor="start" x="317.61" y="-2880.8" font-family="Times,serif" font-size="14.00">  data_file_id</text>
<polygon fill="white" stroke="transparent" points="295.11,-2853 295.11,-2872 393.11,-2872 393.11,-2853 295.11,-2853"/>
<text text-anchor="start" x="297.11" y="-2858.8" font-family="Times,serif" font-size="14.00">coord_system_id</text>
<polygon fill="white" stroke="transparent" points="295.11,-2832 295.11,-2851 393.11,-2851 393.11,-2832 295.11,-2832"/>
<text text-anchor="start" x="313.61" y="-2837.8" font-family="Times,serif" font-size="14.00">analysis_id</text>
<polygon fill="white" stroke="transparent" points="295.11,-2811 295.11,-2830 393.11,-2830 393.11,-2811 295.11,-2811"/>
<text text-anchor="start" x="328.61" y="-2816.8" font-family="Times,serif" font-size="14.00">name</text>
<polygon fill="white" stroke="transparent" points="295.11,-2790 295.11,-2809 393.11,-2809 393.11,-2790 295.11,-2790"/>
<text text-anchor="start" x="309.11" y="-2795.8" font-family="Times,serif" font-size="14.00">version_lock</text>
<polygon fill="white" stroke="transparent" points="295.11,-2769 295.11,-2788 393.11,-2788 393.11,-2769 295.11,-2769"/>
<text text-anchor="start" x="321.11" y="-2774.8" font-family="Times,serif" font-size="14.00">absolute</text>
<polygon fill="white" stroke="transparent" points="295.11,-2748 295.11,-2767 393.11,-2767 393.11,-2748 295.11,-2748"/>
<text text-anchor="start" x="336.11" y="-2753.8" font-family="Times,serif" font-size="14.00">url</text>
<polygon fill="white" stroke="transparent" points="295.11,-2727 295.11,-2746 393.11,-2746 393.11,-2727 295.11,-2727"/>
<text text-anchor="start" x="319.61" y="-2732.8" font-family="Times,serif" font-size="14.00">file_type</text>
<polygon fill="black" stroke="black" points="293.11,-2894 293.11,-2894 395.11,-2894 395.11,-2894 293.11,-2894"/>
</g>
<!-- data_file&#45;&gt;coord_system -->
<g id="edge4" class="edge">
<title>data_file:e&#45;&gt;coord_system:w</title>
<path fill="none" stroke="black" stroke-dasharray="5,2" d="M394.11,-2863C456.2,-2863 395.98,-2604.92 444.21,-2575.69"/>
<polygon fill="black" stroke="black" points="445.38,-2578.99 454.11,-2573 443.55,-2572.24 445.38,-2578.99"/>
</g>
<!-- analysis -->
<g id="node13" class="node">
<title>analysis</title>
<path fill="#808000" stroke="black" d="M185.11,-2279C185.11,-2279 96.11,-2279 96.11,-2279 90.11,-2279 84.11,-2273 84.11,-2267 84.11,-2267 84.11,-2215 84.11,-2215 84.11,-2209 90.11,-2203 96.11,-2203 96.11,-2203 185.11,-2203 185.11,-2203 191.11,-2203 197.11,-2209 197.11,-2215 197.11,-2215 197.11,-2267 197.11,-2267 197.11,-2273 191.11,-2279 185.11,-2279"/>
<text text-anchor="start" x="115.11" y="-2258.2" font-family="Times,serif" font-size="16.00">analysis</text>
<polygon fill="white" stroke="transparent" points="94.61,-2230 94.61,-2249 187.61,-2249 187.61,-2230 94.61,-2230"/>
<text text-anchor="start" x="96.61" y="-2236.8" font-family="Times,serif" font-weight="bold" font-size="14.00">PK</text>
<text text-anchor="start" x="116.61" y="-2236.8" font-family="Times,serif" font-size="14.00">  analysis_id</text>
<polygon fill="white" stroke="transparent" points="94.61,-2209 94.61,-2228 187.61,-2228 187.61,-2209 94.61,-2209"/>
<text text-anchor="start" x="135.11" y="-2215.8" font-family="Times,serif" font-style="italic" font-size="14.00">...</text>
<polygon fill="black" stroke="black" points="92.61,-2250 92.61,-2250 189.61,-2250 189.61,-2250 92.61,-2250"/>
</g>
<!-- data_file&#45;&gt;analysis -->
<g id="edge3" class="edge">
<title>data_file:e&#45;&gt;analysis:w</title>
<path fill="none" stroke="black" stroke-dasharray="5,2" d="M394.11,-2842C430.12,-2842 418.73,-2897.7 393.11,-2923 358.96,-2956.73 319.99,-2955.98 285.11,-2923 236.45,-2876.96 267.81,-2386.01 251.61,-2321 237.65,-2264.95 245.78,-2234.13 197.11,-2203 187.52,-2196.86 102.78,-2195.06 94.61,-2203 86.37,-2211.02 81.19,-2226.11 84.87,-2233.96"/>
<polygon fill="black" stroke="black" points="83.2,-2237.04 93.61,-2239 86.7,-2230.97 83.2,-2237.04"/>
</g>
<!-- dna -->
<g id="node5" class="node">
<title>dna</title>
<path fill="#c70c09" stroke="black" d="M193.11,-2409C193.11,-2409 88.11,-2409 88.11,-2409 82.11,-2409 76.11,-2403 76.11,-2397 76.11,-2397 76.11,-2345 76.11,-2345 76.11,-2339 82.11,-2333 88.11,-2333 88.11,-2333 193.11,-2333 193.11,-2333 199.11,-2333 205.11,-2339 205.11,-2345 205.11,-2345 205.11,-2397 205.11,-2397 205.11,-2403 199.11,-2409 193.11,-2409"/>
<text text-anchor="start" x="129.11" y="-2388.2" font-family="Times,serif" font-size="16.00">dna</text>
<polygon fill="white" stroke="transparent" points="86.61,-2360 86.61,-2379 195.61,-2379 195.61,-2360 86.61,-2360"/>
<text text-anchor="start" x="88.61" y="-2366.8" font-family="Times,serif" font-weight="bold" font-size="14.00">PK</text>
<text text-anchor="start" x="108.61" y="-2366.8" font-family="Times,serif" font-size="14.00">  seq_region_id</text>
<polygon fill="white" stroke="transparent" points="86.61,-2339 86.61,-2358 195.61,-2358 195.61,-2339 86.61,-2339"/>
<text text-anchor="start" x="116.11" y="-2344.8" font-family="Times,serif" font-size="14.00">sequence</text>
<polygon fill="black" stroke="black" points="84.61,-2380 84.61,-2380 197.61,-2380 197.61,-2380 84.61,-2380"/>
</g>
<!-- dna&#45;&gt;seq_region -->
<g id="edge7" class="edge">
<title>dna:e&#45;&gt;seq_region:w</title>
<path fill="none" stroke="black" stroke-dasharray="5,2" d="M196.61,-2369C229.65,-2369 234.12,-2390.97 251.61,-2419 281.19,-2466.39 235.99,-2538.02 278.93,-2547.05"/>
<polygon fill="black" stroke="black" points="278.83,-2550.56 289.11,-2548 279.48,-2543.59 278.83,-2550.56"/>
</g>
<!-- genome_statistics -->
<g id="node6" class="node">
<title>genome_statistics</title>
<path fill="#c70c09" stroke="black" d="M211.61,-3007C211.61,-3007 69.61,-3007 69.61,-3007 63.61,-3007 57.61,-3001 57.61,-2995 57.61,-2995 57.61,-2859 57.61,-2859 57.61,-2853 63.61,-2847 69.61,-2847 69.61,-2847 211.61,-2847 211.61,-2847 217.61,-2847 223.61,-2853 223.61,-2859 223.61,-2859 223.61,-2995 223.61,-2995 223.61,-3001 217.61,-3007 211.61,-3007"/>
<text text-anchor="start" x="83.61" y="-2986.2" font-family="Times,serif" font-size="16.00">genome_statistics</text>
<polygon fill="white" stroke="transparent" points="67.61,-2958 67.61,-2977 213.61,-2977 213.61,-2958 67.61,-2958"/>
<text text-anchor="start" x="69.61" y="-2964.8" font-family="Times,serif" font-weight="bold" font-size="14.00">PK</text>
<text text-anchor="start" x="89.61" y="-2964.8" font-family="Times,serif" font-size="14.00">  genome_statistics_id</text>
<polygon fill="white" stroke="transparent" points="67.61,-2937 67.61,-2956 213.61,-2956 213.61,-2937 67.61,-2937"/>
<text text-anchor="start" x="119.61" y="-2942.8" font-family="Times,serif" font-size="14.00">statistic</text>
<polygon fill="white" stroke="transparent" points="67.61,-2916 67.61,-2935 213.61,-2935 213.61,-2916 67.61,-2916"/>
<text text-anchor="start" x="125.61" y="-2921.8" font-family="Times,serif" font-size="14.00">value</text>
<polygon fill="white" stroke="transparent" points="67.61,-2895 67.61,-2914 213.61,-2914 213.61,-2895 67.61,-2895"/>
<text text-anchor="start" x="112.11" y="-2900.8" font-family="Times,serif" font-size="14.00">species_id</text>
<polygon fill="white" stroke="transparent" points="67.61,-2874 67.61,-2893 213.61,-2893 213.61,-2874 67.61,-2874"/>
<text text-anchor="start" x="102.61" y="-2879.8" font-family="Times,serif" font-size="14.00">attrib_type_id</text>
<polygon fill="white" stroke="transparent" points="67.61,-2853 67.61,-2872 213.61,-2872 213.61,-2853 67.61,-2853"/>
<text text-anchor="start" x="111.61" y="-2858.8" font-family="Times,serif" font-size="14.00">timestamp</text>
<polygon fill="black" stroke="black" points="65.61,-2978 65.61,-2978 215.61,-2978 215.61,-2978 65.61,-2978"/>
</g>
<!-- karyotype -->
<g id="node7" class="node">
<title>karyotype</title>
<path fill="#c70c09" stroke="black" d="M190.11,-2829C190.11,-2829 91.11,-2829 91.11,-2829 85.11,-2829 79.11,-2823 79.11,-2817 79.11,-2817 79.11,-2681 79.11,-2681 79.11,-2675 85.11,-2669 91.11,-2669 91.11,-2669 190.11,-2669 190.11,-2669 196.11,-2669 202.11,-2675 202.11,-2681 202.11,-2681 202.11,-2817 202.11,-2817 202.11,-2823 196.11,-2829 190.11,-2829"/>
<text text-anchor="start" x="108.61" y="-2808.2" font-family="Times,serif" font-size="16.00">karyotype</text>
<polygon fill="white" stroke="transparent" points="89.61,-2780 89.61,-2799 192.61,-2799 192.61,-2780 89.61,-2780"/>
<text text-anchor="start" x="91.61" y="-2786.8" font-family="Times,serif" font-weight="bold" font-size="14.00">PK</text>
<text text-anchor="start" x="111.61" y="-2786.8" font-family="Times,serif" font-size="14.00">  karyotype_id</text>
<polygon fill="white" stroke="transparent" points="89.61,-2759 89.61,-2778 192.61,-2778 192.61,-2759 89.61,-2759"/>
<text text-anchor="start" x="102.61" y="-2764.8" font-family="Times,serif" font-size="14.00">seq_region_id</text>
<polygon fill="white" stroke="transparent" points="89.61,-2738 89.61,-2757 192.61,-2757 192.61,-2738 89.61,-2738"/>
<text text-anchor="start" x="96.11" y="-2743.8" font-family="Times,serif" font-size="14.00">seq_region_start</text>
<polygon fill="white" stroke="transparent" points="89.61,-2717 89.61,-2736 192.61,-2736 192.61,-2717 89.61,-2717"/>
<text text-anchor="start" x="98.11" y="-2722.8" font-family="Times,serif" font-size="14.00">seq_region_end</text>
<polygon fill="white" stroke="transparent" points="89.61,-2696 89.61,-2715 192.61,-2715 192.61,-2696 89.61,-2696"/>
<text text-anchor="start" x="127.61" y="-2701.8" font-family="Times,serif" font-size="14.00">band</text>
<polygon fill="white" stroke="transparent" points="89.61,-2675 89.61,-2694 192.61,-2694 192.61,-2675 89.61,-2675"/>
<text text-anchor="start" x="128.11" y="-2680.8" font-family="Times,serif" font-size="14.00">stain</text>
<polygon fill="black" stroke="black" points="87.61,-2800 87.61,-2800 194.61,-2800 194.61,-2800 87.61,-2800"/>
</g>
<!-- karyotype&#45;&gt;seq_region -->
<g id="edge12" class="edge">
<title>karyotype:e&#45;&gt;seq_region:w</title>
<path fill="none" stroke="black" stroke-dasharray="5,2" d="M193.61,-2769C248.49,-2769 229.94,-2710.41 251.61,-2660 270.81,-2615.35 241.61,-2557.38 278.83,-2549.02"/>
<polygon fill="black" stroke="black" points="279.51,-2552.47 289.11,-2548 278.82,-2545.51 279.51,-2552.47"/>
</g>
<!-- meta -->
<g id="node8" class="node">
<title>meta</title>
<path fill="#c70c09" stroke="black" d="M380.11,-2451C380.11,-2451 308.11,-2451 308.11,-2451 302.11,-2451 296.11,-2445 296.11,-2439 296.11,-2439 296.11,-2345 296.11,-2345 296.11,-2339 302.11,-2333 308.11,-2333 308.11,-2333 380.11,-2333 380.11,-2333 386.11,-2333 392.11,-2339 392.11,-2345 392.11,-2345 392.11,-2439 392.11,-2439 392.11,-2445 386.11,-2451 380.11,-2451"/>
<text text-anchor="start" x="328.61" y="-2430.2" font-family="Times,serif" font-size="16.00">meta</text>
<polygon fill="white" stroke="transparent" points="306.11,-2402 306.11,-2421 382.11,-2421 382.11,-2402 306.11,-2402"/>
<text text-anchor="start" x="308.11" y="-2408.8" font-family="Times,serif" font-weight="bold" font-size="14.00">PK</text>
<text text-anchor="start" x="328.11" y="-2408.8" font-family="Times,serif" font-size="14.00">  meta_id</text>
<polygon fill="white" stroke="transparent" points="306.11,-2381 306.11,-2400 382.11,-2400 382.11,-2381 306.11,-2381"/>
<text text-anchor="start" x="315.61" y="-2386.8" font-family="Times,serif" font-size="14.00">species_id</text>
<polygon fill="white" stroke="transparent" points="306.11,-2360 306.11,-2379 382.11,-2379 382.11,-2360 306.11,-2360"/>
<text text-anchor="start" x="317.11" y="-2365.8" font-family="Times,serif" font-size="14.00">meta_key</text>
<polygon fill="white" stroke="transparent" points="306.11,-2339 306.11,-2358 382.11,-2358 382.11,-2339 306.11,-2339"/>
<text text-anchor="start" x="312.11" y="-2344.8" font-family="Times,serif" font-size="14.00">meta_value</text>
<polygon fill="black" stroke="black" points="304.11,-2422 304.11,-2422 384.11,-2422 384.11,-2422 304.11,-2422"/>
</g>
<!-- meta&#45;&gt;coord_system -->
<g id="edge14" class="edge">
<title>meta:e&#45;&gt;coord_system:w</title>
<path fill="none" stroke="black" stroke-dasharray="5,2" d="M383.11,-2390C458.04,-2390 383.22,-2537.17 444.11,-2550.97"/>
<polygon fill="black" stroke="black" points="443.81,-2554.45 454.11,-2552 444.53,-2547.49 443.81,-2554.45"/>
</g>
<!-- meta_coord -->
<g id="node9" class="node">
<title>meta_coord</title>
<path fill="#c70c09" stroke="black" d="M391.11,-2702.5C391.11,-2702.5 297.11,-2702.5 297.11,-2702.5 291.11,-2702.5 285.11,-2696.5 285.11,-2690.5 285.11,-2690.5 285.11,-2617.5 285.11,-2617.5 285.11,-2611.5 291.11,-2605.5 297.11,-2605.5 297.11,-2605.5 391.11,-2605.5 391.11,-2605.5 397.11,-2605.5 403.11,-2611.5 403.11,-2617.5 403.11,-2617.5 403.11,-2690.5 403.11,-2690.5 403.11,-2696.5 397.11,-2702.5 391.11,-2702.5"/>
<text text-anchor="start" x="306.11" y="-2681.2" font-family="Times,serif" font-size="16.00">meta_coord</text>
<polygon fill="white" stroke="transparent" points="295.11,-2653 295.11,-2672 393.11,-2672 393.11,-2653 295.11,-2653"/>
<text text-anchor="start" x="312.11" y="-2658.8" font-family="Times,serif" font-size="14.00">table_name</text>
<polygon fill="white" stroke="transparent" points="295.11,-2632 295.11,-2651 393.11,-2651 393.11,-2632 295.11,-2632"/>
<text text-anchor="start" x="297.11" y="-2637.8" font-family="Times,serif" font-size="14.00">coord_system_id</text>
<polygon fill="white" stroke="transparent" points="295.11,-2611 295.11,-2630 393.11,-2630 393.11,-2611 295.11,-2611"/>
<text text-anchor="start" x="311.61" y="-2616.8" font-family="Times,serif" font-size="14.00">max_length</text>
<polygon fill="black" stroke="black" points="293.11,-2673 293.11,-2673 395.11,-2673 395.11,-2673 293.11,-2673"/>
</g>
<!-- meta_coord&#45;&gt;coord_system -->
<g id="edge15" class="edge">
<title>meta_coord:e&#45;&gt;coord_system:w</title>
<path fill="none" stroke="black" stroke-dasharray="5,2" d="M394.11,-2641C430.48,-2641 417.25,-2585.63 443.94,-2574.82"/>
<polygon fill="black" stroke="black" points="444.89,-2578.2 454.11,-2573 443.65,-2571.31 444.89,-2578.2"/>
</g>
<!-- seq_region&#45;&gt;coord_system -->
<g id="edge23" class="edge">
<title>seq_region:e&#45;&gt;coord_system:w</title>
<path fill="none" stroke="black" stroke-dasharray="5,2" d="M400.11,-2505C434.79,-2505 419.59,-2559.89 444.14,-2571.04"/>
<polygon fill="black" stroke="black" points="443.63,-2574.5 454.11,-2573 444.98,-2567.64 443.63,-2574.5"/>
</g>
<!-- seq_region_attrib -->
<g id="node11" class="node">
<title>seq_region_attrib</title>
<path fill="#c70c09" stroke="black" d="M197.11,-3458.5C197.11,-3458.5 84.11,-3458.5 84.11,-3458.5 78.11,-3458.5 72.11,-3452.5 72.11,-3446.5 72.11,-3446.5 72.11,-3373.5 72.11,-3373.5 72.11,-3367.5 78.11,-3361.5 84.11,-3361.5 84.11,-3361.5 197.11,-3361.5 197.11,-3361.5 203.11,-3361.5 209.11,-3367.5 209.11,-3373.5 209.11,-3373.5 209.11,-3446.5 209.11,-3446.5 209.11,-3452.5 203.11,-3458.5 197.11,-3458.5"/>
<text text-anchor="start" x="84.61" y="-3437.2" font-family="Times,serif" font-size="16.00">seq_region_attrib</text>
<polygon fill="white" stroke="transparent" points="82.61,-3409 82.61,-3428 199.61,-3428 199.61,-3409 82.61,-3409"/>
<text text-anchor="start" x="102.61" y="-3414.8" font-family="Times,serif" font-size="14.00">seq_region_id</text>
<polygon fill="white" stroke="transparent" points="82.61,-3388 82.61,-3407 199.61,-3407 199.61,-3388 82.61,-3388"/>
<text text-anchor="start" x="103.11" y="-3393.8" font-family="Times,serif" font-size="14.00">attrib_type_id</text>
<polygon fill="white" stroke="transparent" points="82.61,-3367 82.61,-3386 199.61,-3386 199.61,-3367 82.61,-3367"/>
<text text-anchor="start" x="126.11" y="-3372.8" font-family="Times,serif" font-size="14.00">value</text>
<polygon fill="black" stroke="black" points="80.61,-3429 80.61,-3429 201.61,-3429 201.61,-3429 80.61,-3429"/>
</g>
<!-- seq_region_attrib&#45;&gt;seq_region -->
<g id="edge25" class="edge">
<title>seq_region_attrib:e&#45;&gt;seq_region:w</title>
<path fill="none" stroke="black" stroke-dasharray="5,2" d="M200.61,-3419C238.04,-3419 239,-3387.23 251.61,-3352 265.81,-3312.37 246.88,-2634.81 281.92,-2555.55"/>
<polygon fill="black" stroke="black" points="284.75,-2557.65 289.11,-2548 279.68,-2552.83 284.75,-2557.65"/>
</g>
<!-- attrib_type -->
<g id="node14" class="node">
<title>attrib_type</title>
<path fill="#808000" stroke="black" d="M192.61,-2185C192.61,-2185 88.61,-2185 88.61,-2185 82.61,-2185 76.61,-2179 76.61,-2173 76.61,-2173 76.61,-2121 76.61,-2121 76.61,-2115 82.61,-2109 88.61,-2109 88.61,-2109 192.61,-2109 192.61,-2109 198.61,-2109 204.61,-2115 204.61,-2121 204.61,-2121 204.61,-2173 204.61,-2173 204.61,-2179 198.61,-2185 192.61,-2185"/>
<text text-anchor="start" x="105.61" y="-2164.2" font-family="Times,serif" font-size="16.00">attrib_type</text>
<polygon fill="white" stroke="transparent" points="86.61,-2136 86.61,-2155 194.61,-2155 194.61,-2136 86.61,-2136"/>
<text text-anchor="start" x="88.61" y="-2142.8" font-family="Times,serif" font-weight="bold" font-size="14.00">PK</text>
<text text-anchor="start" x="108.61" y="-2142.8" font-family="Times,serif" font-size="14.00">  attrib_type_id</text>
<polygon fill="white" stroke="transparent" points="86.61,-2115 86.61,-2134 194.61,-2134 194.61,-2115 86.61,-2115"/>
<text text-anchor="start" x="134.61" y="-2121.8" font-family="Times,serif" font-style="italic" font-size="14.00">...</text>
<polygon fill="black" stroke="black" points="84.61,-2156 84.61,-2156 196.61,-2156 196.61,-2156 84.61,-2156"/>
</g>
<!-- seq_region_attrib&#45;&gt;attrib_type -->
<g id="edge24" class="edge">
<title>seq_region_attrib:e&#45;&gt;attrib_type:w</title>
<path fill="none" stroke="black" stroke-dasharray="5,2" d="M209.11,-3397C225.78,-3397 220.65,-3371.53 209.11,-3359.5 195.3,-3345.09 48.94,-3356.99 29.61,-3352 20.95,-3349.76 16.32,-3350.61 11.61,-3343 -5.03,-3316.06 -2.24,-2231.47 11.61,-2203 28.33,-2168.66 41.4,-2148.64 75.44,-2145.45"/>
<polygon fill="black" stroke="black" points="75.78,-2148.94 85.61,-2145 75.47,-2141.95 75.78,-2148.94"/>
</g>
<!-- seq_region_synonym -->
<g id="node12" class="node">
<title>seq_region_synonym</title>
<path fill="#c70c09" stroke="black" d="M221.61,-3343C221.61,-3343 59.61,-3343 59.61,-3343 53.61,-3343 47.61,-3337 47.61,-3331 47.61,-3331 47.61,-3237 47.61,-3237 47.61,-3231 53.61,-3225 59.61,-3225 59.61,-3225 221.61,-3225 221.61,-3225 227.61,-3225 233.61,-3231 233.61,-3237 233.61,-3237 233.61,-3331 233.61,-3331 233.61,-3337 227.61,-3343 221.61,-3343"/>
<text text-anchor="start" x="71.11" y="-3322.2" font-family="Times,serif" font-size="16.00">seq_region_synonym</text>
<polygon fill="white" stroke="transparent" points="57.61,-3294 57.61,-3313 223.61,-3313 223.61,-3294 57.61,-3294"/>
<text text-anchor="start" x="59.61" y="-3300.8" font-family="Times,serif" font-weight="bold" font-size="14.00">PK</text>
<text text-anchor="start" x="79.61" y="-3300.8" font-family="Times,serif" font-size="14.00">  seq_region_synonym_id</text>
<polygon fill="white" stroke="transparent" points="57.61,-3273 57.61,-3292 223.61,-3292 223.61,-3273 57.61,-3273"/>
<text text-anchor="start" x="102.11" y="-3278.8" font-family="Times,serif" font-size="14.00">seq_region_id</text>
<polygon fill="white" stroke="transparent" points="57.61,-3252 57.61,-3271 223.61,-3271 223.61,-3252 57.61,-3252"/>
<text text-anchor="start" x="115.11" y="-3257.8" font-family="Times,serif" font-size="14.00">synonym</text>
<polygon fill="white" stroke="transparent" points="57.61,-3231 57.61,-3250 223.61,-3250 223.61,-3231 57.61,-3231"/>
<text text-anchor="start" x="99.61" y="-3236.8" font-family="Times,serif" font-size="14.00">external_db_id</text>
<polygon fill="black" stroke="black" points="55.61,-3314 55.61,-3314 225.61,-3314 225.61,-3314 55.61,-3314"/>
</g>
<!-- seq_region_synonym&#45;&gt;seq_region -->
<g id="edge27" class="edge">
<title>seq_region_synonym:e&#45;&gt;seq_region:w</title>
<path fill="none" stroke="black" stroke-dasharray="5,2" d="M224.61,-3282C302.97,-3282 215.44,-2609.72 279.54,-2551.95"/>
<polygon fill="black" stroke="black" points="281.2,-2555.05 289.11,-2548 278.54,-2548.58 281.2,-2555.05"/>
</g>
<!-- density_feature -->
<g id="node15" class="node">
<title>density_feature</title>
<path fill="#3cb371" stroke="black" d="M190.11,-674.5C190.11,-674.5 91.11,-674.5 91.11,-674.5 85.11,-674.5 79.11,-668.5 79.11,-662.5 79.11,-662.5 79.11,-589.5 79.11,-589.5 79.11,-583.5 85.11,-577.5 91.11,-577.5 91.11,-577.5 190.11,-577.5 190.11,-577.5 196.11,-577.5 202.11,-583.5 202.11,-589.5 202.11,-589.5 202.11,-662.5 202.11,-662.5 202.11,-668.5 196.11,-674.5 190.11,-674.5"/>
<text text-anchor="start" x="91.61" y="-653.2" font-family="Times,serif" font-size="16.00">density_feature</text>
<polygon fill="white" stroke="transparent" points="89.61,-625 89.61,-644 192.61,-644 192.61,-625 89.61,-625"/>
<text text-anchor="start" x="135.11" y="-631.8" font-family="Times,serif" font-style="italic" font-size="14.00">...</text>
<polygon fill="white" stroke="transparent" points="89.61,-604 89.61,-623 192.61,-623 192.61,-604 89.61,-604"/>
<text text-anchor="start" x="102.61" y="-609.8" font-family="Times,serif" font-size="14.00">seq_region_id</text>
<polygon fill="white" stroke="transparent" points="89.61,-583 89.61,-602 192.61,-602 192.61,-583 89.61,-583"/>
<text text-anchor="start" x="135.11" y="-589.8" font-family="Times,serif" font-style="italic" font-size="14.00">...</text>
<polygon fill="black" stroke="black" points="87.61,-645 87.61,-645 194.61,-645 194.61,-645 87.61,-645"/>
</g>
<!-- density_feature&#45;&gt;seq_region -->
<g id="edge5" class="edge">
<title>density_feature:e&#45;&gt;seq_region:w</title>
<path fill="none" stroke="black" stroke-dasharray="5,2" d="M193.61,-613C234.02,-613 237.62,-645.1 251.61,-683 285.83,-775.62 273.53,-2361.45 279.61,-2460 281.78,-2495.12 256.2,-2537.83 278.93,-2546.44"/>
<polygon fill="black" stroke="black" points="278.7,-2549.95 289.11,-2548 279.76,-2543.03 278.7,-2549.95"/>
</g>
<!-- ditag_feature -->
<g id="node16" class="node">
<title>ditag_feature</title>
<path fill="#3cb371" stroke="black" d="M183.11,-559.5C183.11,-559.5 98.11,-559.5 98.11,-559.5 92.11,-559.5 86.11,-553.5 86.11,-547.5 86.11,-547.5 86.11,-474.5 86.11,-474.5 86.11,-468.5 92.11,-462.5 98.11,-462.5 98.11,-462.5 183.11,-462.5 183.11,-462.5 189.11,-462.5 195.11,-468.5 195.11,-474.5 195.11,-474.5 195.11,-547.5 195.11,-547.5 195.11,-553.5 189.11,-559.5 183.11,-559.5"/>
<text text-anchor="start" x="98.61" y="-538.2" font-family="Times,serif" font-size="16.00">ditag_feature</text>
<polygon fill="white" stroke="transparent" points="96.61,-510 96.61,-529 185.61,-529 185.61,-510 96.61,-510"/>
<text text-anchor="start" x="135.11" y="-516.8" font-family="Times,serif" font-style="italic" font-size="14.00">...</text>
<polygon fill="white" stroke="transparent" points="96.61,-489 96.61,-508 185.61,-508 185.61,-489 96.61,-489"/>
<text text-anchor="start" x="102.61" y="-494.8" font-family="Times,serif" font-size="14.00">seq_region_id</text>
<polygon fill="white" stroke="transparent" points="96.61,-468 96.61,-487 185.61,-487 185.61,-468 96.61,-468"/>
<text text-anchor="start" x="135.11" y="-474.8" font-family="Times,serif" font-style="italic" font-size="14.00">...</text>
<polygon fill="black" stroke="black" points="94.61,-530 94.61,-530 187.61,-530 187.61,-530 94.61,-530"/>
</g>
<!-- ditag_feature&#45;&gt;seq_region -->
<g id="edge6" class="edge">
<title>ditag_feature:e&#45;&gt;seq_region:w</title>
<path fill="none" stroke="black" stroke-dasharray="5,2" d="M186.61,-498C229.07,-498 235.8,-528.6 251.61,-568 290.76,-665.56 273.19,-2355.07 279.61,-2460 281.77,-2495.12 256.19,-2537.83 278.93,-2546.44"/>
<polygon fill="black" stroke="black" points="278.7,-2549.95 289.11,-2548 279.76,-2543.03 278.7,-2549.95"/>
</g>
<!-- dna_align_feature -->
<g id="node17" class="node">
<title>dna_align_feature</title>
<path fill="#808000" stroke="black" d="M198.61,-2090.5C198.61,-2090.5 82.61,-2090.5 82.61,-2090.5 76.61,-2090.5 70.61,-2084.5 70.61,-2078.5 70.61,-2078.5 70.61,-2005.5 70.61,-2005.5 70.61,-1999.5 76.61,-1993.5 82.61,-1993.5 82.61,-1993.5 198.61,-1993.5 198.61,-1993.5 204.61,-1993.5 210.61,-1999.5 210.61,-2005.5 210.61,-2005.5 210.61,-2078.5 210.61,-2078.5 210.61,-2084.5 204.61,-2090.5 198.61,-2090.5"/>
<text text-anchor="start" x="82.61" y="-2069.2" font-family="Times,serif" font-size="16.00">dna_align_feature</text>
<polygon fill="white" stroke="transparent" points="80.61,-2041 80.61,-2060 200.61,-2060 200.61,-2041 80.61,-2041"/>
<text text-anchor="start" x="134.61" y="-2047.8" font-family="Times,serif" font-style="italic" font-size="14.00">...</text>
<polygon fill="white" stroke="transparent" points="80.61,-2020 80.61,-2039 200.61,-2039 200.61,-2020 80.61,-2020"/>
<text text-anchor="start" x="102.11" y="-2025.8" font-family="Times,serif" font-size="14.00">seq_region_id</text>
<polygon fill="white" stroke="transparent" points="80.61,-1999 80.61,-2018 200.61,-2018 200.61,-1999 80.61,-1999"/>
<text text-anchor="start" x="134.61" y="-2005.8" font-family="Times,serif" font-style="italic" font-size="14.00">...</text>
<polygon fill="black" stroke="black" points="78.61,-2061 78.61,-2061 202.61,-2061 202.61,-2061 78.61,-2061"/>
</g>
<!-- dna_align_feature&#45;&gt;seq_region -->
<g id="edge8" class="edge">
<title>dna_align_feature:e&#45;&gt;seq_region:w</title>
<path fill="none" stroke="black" stroke-dasharray="5,2" d="M201.61,-2029C341.59,-2029 240.55,-2039.25 279.61,-2460 282.87,-2495.04 256.42,-2537.81 278.97,-2546.44"/>
<polygon fill="black" stroke="black" points="278.7,-2549.94 289.11,-2548 279.76,-2543.02 278.7,-2549.94"/>
</g>
<!-- exon -->
<g id="node18" class="node">
<title>exon</title>
<path fill="#808000" stroke="black" d="M179.11,-1975.5C179.11,-1975.5 102.11,-1975.5 102.11,-1975.5 96.11,-1975.5 90.11,-1969.5 90.11,-1963.5 90.11,-1963.5 90.11,-1890.5 90.11,-1890.5 90.11,-1884.5 96.11,-1878.5 102.11,-1878.5 102.11,-1878.5 179.11,-1878.5 179.11,-1878.5 185.11,-1878.5 191.11,-1884.5 191.11,-1890.5 191.11,-1890.5 191.11,-1963.5 191.11,-1963.5 191.11,-1969.5 185.11,-1975.5 179.11,-1975.5"/>
<text text-anchor="start" x="125.11" y="-1954.2" font-family="Times,serif" font-size="16.00">exon</text>
<polygon fill="white" stroke="transparent" points="100.61,-1926 100.61,-1945 181.61,-1945 181.61,-1926 100.61,-1926"/>
<text text-anchor="start" x="135.11" y="-1932.8" font-family="Times,serif" font-style="italic" font-size="14.00">...</text>
<polygon fill="white" stroke="transparent" points="100.61,-1905 100.61,-1924 181.61,-1924 181.61,-1905 100.61,-1905"/>
<text text-anchor="start" x="102.61" y="-1910.8" font-family="Times,serif" font-size="14.00">seq_region_id</text>
<polygon fill="white" stroke="transparent" points="100.61,-1884 100.61,-1903 181.61,-1903 181.61,-1884 100.61,-1884"/>
<text text-anchor="start" x="135.11" y="-1890.8" font-family="Times,serif" font-style="italic" font-size="14.00">...</text>
<polygon fill="black" stroke="black" points="98.61,-1946 98.61,-1946 183.61,-1946 183.61,-1946 98.61,-1946"/>
</g>
<!-- exon&#45;&gt;seq_region -->
<g id="edge9" class="edge">
<title>exon:e&#45;&gt;seq_region:w</title>
<path fill="none" stroke="black" stroke-dasharray="5,2" d="M182.61,-1914C226.3,-1914 233.86,-1944.09 251.61,-1984 294.67,-2080.82 270.81,-2354.41 279.61,-2460 282.54,-2495.07 256.35,-2537.81 278.96,-2546.44"/>
<polygon fill="black" stroke="black" points="278.7,-2549.94 289.11,-2548 279.76,-2543.02 278.7,-2549.94"/>
</g>
<!-- gene -->
<g id="node19" class="node">
<title>gene</title>
<path fill="#808000" stroke="black" d="M179.11,-1860.5C179.11,-1860.5 102.11,-1860.5 102.11,-1860.5 96.11,-1860.5 90.11,-1854.5 90.11,-1848.5 90.11,-1848.5 90.11,-1775.5 90.11,-1775.5 90.11,-1769.5 96.11,-1763.5 102.11,-1763.5 102.11,-1763.5 179.11,-1763.5 179.11,-1763.5 185.11,-1763.5 191.11,-1769.5 191.11,-1775.5 191.11,-1775.5 191.11,-1848.5 191.11,-1848.5 191.11,-1854.5 185.11,-1860.5 179.11,-1860.5"/>
<text text-anchor="start" x="125.61" y="-1839.2" font-family="Times,serif" font-size="16.00">gene</text>
<polygon fill="white" stroke="transparent" points="100.61,-1811 100.61,-1830 181.61,-1830 181.61,-1811 100.61,-1811"/>
<text text-anchor="start" x="135.11" y="-1817.8" font-family="Times,serif" font-style="italic" font-size="14.00">...</text>
<polygon fill="white" stroke="transparent" points="100.61,-1790 100.61,-1809 181.61,-1809 181.61,-1790 100.61,-1790"/>
<text text-anchor="start" x="102.61" y="-1795.8" font-family="Times,serif" font-size="14.00">seq_region_id</text>
<polygon fill="white" stroke="transparent" points="100.61,-1769 100.61,-1788 181.61,-1788 181.61,-1769 100.61,-1769"/>
<text text-anchor="start" x="135.11" y="-1775.8" font-family="Times,serif" font-style="italic" font-size="14.00">...</text>
<polygon fill="black" stroke="black" points="98.61,-1831 98.61,-1831 183.61,-1831 183.61,-1831 98.61,-1831"/>
</g>
<!-- gene&#45;&gt;seq_region -->
<g id="edge10" class="edge">
<title>gene:e&#45;&gt;seq_region:w</title>
<path fill="none" stroke="black" stroke-dasharray="5,2" d="M182.61,-1799C312.11,-1799 246.35,-2031.25 279.61,-2460 282.34,-2495.08 256.31,-2537.82 278.95,-2546.44"/>
<polygon fill="black" stroke="black" points="278.7,-2549.94 289.11,-2548 279.76,-2543.02 278.7,-2549.94"/>
</g>
<!-- intron_supporting_evidence -->
<g id="node20" class="node">
<title>intron_supporting_evidence</title>
<path fill="#3cb371" stroke="black" d="M231.61,-1479.5C231.61,-1479.5 49.61,-1479.5 49.61,-1479.5 43.61,-1479.5 37.61,-1473.5 37.61,-1467.5 37.61,-1467.5 37.61,-1394.5 37.61,-1394.5 37.61,-1388.5 43.61,-1382.5 49.61,-1382.5 49.61,-1382.5 231.61,-1382.5 231.61,-1382.5 237.61,-1382.5 243.61,-1388.5 243.61,-1394.5 243.61,-1394.5 243.61,-1467.5 243.61,-1467.5 243.61,-1473.5 237.61,-1479.5 231.61,-1479.5"/>
<text text-anchor="start" x="49.61" y="-1458.2" font-family="Times,serif" font-size="16.00">intron_supporting_evidence</text>
<polygon fill="white" stroke="transparent" points="47.61,-1430 47.61,-1449 233.61,-1449 233.61,-1430 47.61,-1430"/>
<text text-anchor="start" x="134.61" y="-1436.8" font-family="Times,serif" font-style="italic" font-size="14.00">...</text>
<polygon fill="white" stroke="transparent" points="47.61,-1409 47.61,-1428 233.61,-1428 233.61,-1409 47.61,-1409"/>
<text text-anchor="start" x="102.11" y="-1414.8" font-family="Times,serif" font-size="14.00">seq_region_id</text>
<polygon fill="white" stroke="transparent" points="47.61,-1388 47.61,-1407 233.61,-1407 233.61,-1388 47.61,-1388"/>
<text text-anchor="start" x="134.61" y="-1394.8" font-family="Times,serif" font-style="italic" font-size="14.00">...</text>
<polygon fill="black" stroke="black" points="45.61,-1450 45.61,-1450 235.61,-1450 235.61,-1450 45.61,-1450"/>
</g>
<!-- intron_supporting_evidence&#45;&gt;seq_region -->
<g id="edge11" class="edge">
<title>intron_supporting_evidence:e&#45;&gt;seq_region:w</title>
<path fill="none" stroke="black" stroke-dasharray="5,2" d="M234.61,-1418C294.64,-1418 232.39,-2448.76 281.43,-2541.36"/>
<polygon fill="black" stroke="black" points="279.26,-2544.11 289.11,-2548 283.83,-2538.81 279.26,-2544.11"/>
</g>
<!-- marker_feature -->
<g id="node21" class="node">
<title>marker_feature</title>
<path fill="#3cb371" stroke="black" d="M189.11,-1364.5C189.11,-1364.5 92.11,-1364.5 92.11,-1364.5 86.11,-1364.5 80.11,-1358.5 80.11,-1352.5 80.11,-1352.5 80.11,-1279.5 80.11,-1279.5 80.11,-1273.5 86.11,-1267.5 92.11,-1267.5 92.11,-1267.5 189.11,-1267.5 189.11,-1267.5 195.11,-1267.5 201.11,-1273.5 201.11,-1279.5 201.11,-1279.5 201.11,-1352.5 201.11,-1352.5 201.11,-1358.5 195.11,-1364.5 189.11,-1364.5"/>
<text text-anchor="start" x="92.61" y="-1343.2" font-family="Times,serif" font-size="16.00">marker_feature</text>
<polygon fill="white" stroke="transparent" points="90.61,-1315 90.61,-1334 191.61,-1334 191.61,-1315 90.61,-1315"/>
<text text-anchor="start" x="135.11" y="-1321.8" font-family="Times,serif" font-style="italic" font-size="14.00">...</text>
<polygon fill="white" stroke="transparent" points="90.61,-1294 90.61,-1313 191.61,-1313 191.61,-1294 90.61,-1294"/>
<text text-anchor="start" x="102.61" y="-1299.8" font-family="Times,serif" font-size="14.00">seq_region_id</text>
<polygon fill="white" stroke="transparent" points="90.61,-1273 90.61,-1292 191.61,-1292 191.61,-1273 90.61,-1273"/>
<text text-anchor="start" x="135.11" y="-1279.8" font-family="Times,serif" font-style="italic" font-size="14.00">...</text>
<polygon fill="black" stroke="black" points="88.61,-1335 88.61,-1335 193.61,-1335 193.61,-1335 88.61,-1335"/>
</g>
<!-- marker_feature&#45;&gt;seq_region -->
<g id="edge13" class="edge">
<title>marker_feature:e&#45;&gt;seq_region:w</title>
<path fill="none" stroke="black" stroke-dasharray="5,2" d="M192.61,-1303C233.3,-1303 237.17,-1334.96 251.61,-1373 294.52,-1485.94 271.57,-2339.45 279.61,-2460 281.96,-2495.11 256.23,-2537.82 278.94,-2546.44"/>
<polygon fill="black" stroke="black" points="278.7,-2549.95 289.11,-2548 279.76,-2543.03 278.7,-2549.95"/>
</g>
<!-- misc_feature -->
<g id="node22" class="node">
<title>misc_feature</title>
<path fill="#3cb371" stroke="black" d="M181.61,-1249.5C181.61,-1249.5 99.61,-1249.5 99.61,-1249.5 93.61,-1249.5 87.61,-1243.5 87.61,-1237.5 87.61,-1237.5 87.61,-1164.5 87.61,-1164.5 87.61,-1158.5 93.61,-1152.5 99.61,-1152.5 99.61,-1152.5 181.61,-1152.5 181.61,-1152.5 187.61,-1152.5 193.61,-1158.5 193.61,-1164.5 193.61,-1164.5 193.61,-1237.5 193.61,-1237.5 193.61,-1243.5 187.61,-1249.5 181.61,-1249.5"/>
<text text-anchor="start" x="99.61" y="-1228.2" font-family="Times,serif" font-size="16.00">misc_feature</text>
<polygon fill="white" stroke="transparent" points="97.61,-1200 97.61,-1219 183.61,-1219 183.61,-1200 97.61,-1200"/>
<text text-anchor="start" x="134.61" y="-1206.8" font-family="Times,serif" font-style="italic" font-size="14.00">...</text>
<polygon fill="white" stroke="transparent" points="97.61,-1179 97.61,-1198 183.61,-1198 183.61,-1179 97.61,-1179"/>
<text text-anchor="start" x="102.11" y="-1184.8" font-family="Times,serif" font-size="14.00">seq_region_id</text>
<polygon fill="white" stroke="transparent" points="97.61,-1158 97.61,-1177 183.61,-1177 183.61,-1158 97.61,-1158"/>
<text text-anchor="start" x="134.61" y="-1164.8" font-family="Times,serif" font-style="italic" font-size="14.00">...</text>
<polygon fill="black" stroke="black" points="95.61,-1220 95.61,-1220 185.61,-1220 185.61,-1220 95.61,-1220"/>
</g>
<!-- misc_feature&#45;&gt;seq_region -->
<g id="edge16" class="edge">
<title>misc_feature:e&#45;&gt;seq_region:w</title>
<path fill="none" stroke="black" stroke-dasharray="5,2" d="M184.61,-1188C227.68,-1188 235.11,-1218.22 251.61,-1258 277.22,-1319.69 275.25,-2393.35 279.61,-2460 281.91,-2495.11 256.22,-2537.82 278.94,-2546.44"/>
<polygon fill="black" stroke="black" points="278.7,-2549.95 289.11,-2548 279.76,-2543.03 278.7,-2549.95"/>
</g>
<!-- operon -->
<g id="node23" class="node">
<title>operon</title>
<path fill="#ff8500" stroke="black" d="M179.11,-408.5C179.11,-408.5 102.11,-408.5 102.11,-408.5 96.11,-408.5 90.11,-402.5 90.11,-396.5 90.11,-396.5 90.11,-323.5 90.11,-323.5 90.11,-317.5 96.11,-311.5 102.11,-311.5 102.11,-311.5 179.11,-311.5 179.11,-311.5 185.11,-311.5 191.11,-317.5 191.11,-323.5 191.11,-323.5 191.11,-396.5 191.11,-396.5 191.11,-402.5 185.11,-408.5 179.11,-408.5"/>
<text text-anchor="start" x="118.11" y="-387.2" font-family="Times,serif" font-size="16.00">operon</text>
<polygon fill="white" stroke="transparent" points="100.61,-359 100.61,-378 181.61,-378 181.61,-359 100.61,-359"/>
<text text-anchor="start" x="135.11" y="-365.8" font-family="Times,serif" font-style="italic" font-size="14.00">...</text>
<polygon fill="white" stroke="transparent" points="100.61,-338 100.61,-357 181.61,-357 181.61,-338 100.61,-338"/>
<text text-anchor="start" x="102.61" y="-343.8" font-family="Times,serif" font-size="14.00">seq_region_id</text>
<polygon fill="white" stroke="transparent" points="100.61,-317 100.61,-336 181.61,-336 181.61,-317 100.61,-317"/>
<text text-anchor="start" x="135.11" y="-323.8" font-family="Times,serif" font-style="italic" font-size="14.00">...</text>
<polygon fill="black" stroke="black" points="98.61,-379 98.61,-379 183.61,-379 183.61,-379 98.61,-379"/>
</g>
<!-- operon&#45;&gt;seq_region -->
<g id="edge17" class="edge">
<title>operon:e&#45;&gt;seq_region:w</title>
<path fill="none" stroke="black" stroke-dasharray="5,2" d="M182.61,-347C238.08,-347 235.23,-398.01 251.61,-451 268.19,-504.59 233.6,-2399.23 283.02,-2539.77"/>
<polygon fill="black" stroke="black" points="280.35,-2542.05 289.11,-2548 285.97,-2537.88 280.35,-2542.05"/>
</g>
<!-- operon_transcript -->
<g id="node24" class="node">
<title>operon_transcript</title>
<path fill="#ff8500" stroke="black" d="M197.61,-293.5C197.61,-293.5 83.61,-293.5 83.61,-293.5 77.61,-293.5 71.61,-287.5 71.61,-281.5 71.61,-281.5 71.61,-208.5 71.61,-208.5 71.61,-202.5 77.61,-196.5 83.61,-196.5 83.61,-196.5 197.61,-196.5 197.61,-196.5 203.61,-196.5 209.61,-202.5 209.61,-208.5 209.61,-208.5 209.61,-281.5 209.61,-281.5 209.61,-287.5 203.61,-293.5 197.61,-293.5"/>
<text text-anchor="start" x="83.61" y="-272.2" font-family="Times,serif" font-size="16.00">operon_transcript</text>
<polygon fill="white" stroke="transparent" points="81.61,-244 81.61,-263 199.61,-263 199.61,-244 81.61,-244"/>
<text text-anchor="start" x="134.61" y="-250.8" font-family="Times,serif" font-style="italic" font-size="14.00">...</text>
<polygon fill="white" stroke="transparent" points="81.61,-223 81.61,-242 199.61,-242 199.61,-223 81.61,-223"/>
<text text-anchor="start" x="102.11" y="-228.8" font-family="Times,serif" font-size="14.00">seq_region_id</text>
<polygon fill="white" stroke="transparent" points="81.61,-202 81.61,-221 199.61,-221 199.61,-202 81.61,-202"/>
<text text-anchor="start" x="134.61" y="-208.8" font-family="Times,serif" font-style="italic" font-size="14.00">...</text>
<polygon fill="black" stroke="black" points="79.61,-264 79.61,-264 201.61,-264 201.61,-264 79.61,-264"/>
</g>
<!-- operon_transcript&#45;&gt;seq_region -->
<g id="edge18" class="edge">
<title>operon_transcript:e&#45;&gt;seq_region:w</title>
<path fill="none" stroke="black" stroke-dasharray="5,2" d="M200.61,-232C239.11,-232 239.46,-265.48 251.61,-302 289.48,-415.76 272.39,-2340.32 279.61,-2460 281.73,-2495.13 256.19,-2537.83 278.93,-2546.44"/>
<polygon fill="black" stroke="black" points="278.7,-2549.95 289.11,-2548 279.76,-2543.03 278.7,-2549.95"/>
</g>
<!-- prediction_exon -->
<g id="node25" class="node">
<title>prediction_exon</title>
<path fill="#3cb371" stroke="black" d="M193.61,-1134.5C193.61,-1134.5 87.61,-1134.5 87.61,-1134.5 81.61,-1134.5 75.61,-1128.5 75.61,-1122.5 75.61,-1122.5 75.61,-1049.5 75.61,-1049.5 75.61,-1043.5 81.61,-1037.5 87.61,-1037.5 87.61,-1037.5 193.61,-1037.5 193.61,-1037.5 199.61,-1037.5 205.61,-1043.5 205.61,-1049.5 205.61,-1049.5 205.61,-1122.5 205.61,-1122.5 205.61,-1128.5 199.61,-1134.5 193.61,-1134.5"/>
<text text-anchor="start" x="87.61" y="-1113.2" font-family="Times,serif" font-size="16.00">prediction_exon</text>
<polygon fill="white" stroke="transparent" points="85.61,-1085 85.61,-1104 195.61,-1104 195.61,-1085 85.61,-1085"/>
<text text-anchor="start" x="134.61" y="-1091.8" font-family="Times,serif" font-style="italic" font-size="14.00">...</text>
<polygon fill="white" stroke="transparent" points="85.61,-1064 85.61,-1083 195.61,-1083 195.61,-1064 85.61,-1064"/>
<text text-anchor="start" x="102.11" y="-1069.8" font-family="Times,serif" font-size="14.00">seq_region_id</text>
<polygon fill="white" stroke="transparent" points="85.61,-1043 85.61,-1062 195.61,-1062 195.61,-1043 85.61,-1043"/>
<text text-anchor="start" x="134.61" y="-1049.8" font-family="Times,serif" font-style="italic" font-size="14.00">...</text>
<polygon fill="black" stroke="black" points="83.61,-1105 83.61,-1105 197.61,-1105 197.61,-1105 83.61,-1105"/>
</g>
<!-- prediction_exon&#45;&gt;seq_region -->
<g id="edge19" class="edge">
<title>prediction_exon:e&#45;&gt;seq_region:w</title>
<path fill="none" stroke="black" stroke-dasharray="5,2" d="M196.61,-1073C236.18,-1073 238.29,-1105.75 251.61,-1143 276.27,-1211.91 274.91,-2386.97 279.61,-2460 281.88,-2495.12 256.22,-2537.82 278.94,-2546.44"/>
<polygon fill="black" stroke="black" points="278.7,-2549.95 289.11,-2548 279.76,-2543.03 278.7,-2549.95"/>
</g>
<!-- prediction_transcript -->
<g id="node26" class="node">
<title>prediction_transcript</title>
<path fill="#3cb371" stroke="black" d="M207.61,-1019.5C207.61,-1019.5 73.61,-1019.5 73.61,-1019.5 67.61,-1019.5 61.61,-1013.5 61.61,-1007.5 61.61,-1007.5 61.61,-934.5 61.61,-934.5 61.61,-928.5 67.61,-922.5 73.61,-922.5 73.61,-922.5 207.61,-922.5 207.61,-922.5 213.61,-922.5 219.61,-928.5 219.61,-934.5 219.61,-934.5 219.61,-1007.5 219.61,-1007.5 219.61,-1013.5 213.61,-1019.5 207.61,-1019.5"/>
<text text-anchor="start" x="73.61" y="-998.2" font-family="Times,serif" font-size="16.00">prediction_transcript</text>
<polygon fill="white" stroke="transparent" points="71.61,-970 71.61,-989 209.61,-989 209.61,-970 71.61,-970"/>
<text text-anchor="start" x="134.61" y="-976.8" font-family="Times,serif" font-style="italic" font-size="14.00">...</text>
<polygon fill="white" stroke="transparent" points="71.61,-949 71.61,-968 209.61,-968 209.61,-949 71.61,-949"/>
<text text-anchor="start" x="102.11" y="-954.8" font-family="Times,serif" font-size="14.00">seq_region_id</text>
<polygon fill="white" stroke="transparent" points="71.61,-928 71.61,-947 209.61,-947 209.61,-928 71.61,-928"/>
<text text-anchor="start" x="134.61" y="-934.8" font-family="Times,serif" font-style="italic" font-size="14.00">...</text>
<polygon fill="black" stroke="black" points="69.61,-990 69.61,-990 211.61,-990 211.61,-990 69.61,-990"/>
</g>
<!-- prediction_transcript&#45;&gt;seq_region -->
<g id="edge20" class="edge">
<title>prediction_transcript:e&#45;&gt;seq_region:w</title>
<path fill="none" stroke="black" stroke-dasharray="5,2" d="M210.61,-958C246.67,-958 241.83,-993.3 251.61,-1028 294.78,-1181.17 269.51,-2301.18 279.61,-2460 281.85,-2495.12 256.21,-2537.82 278.93,-2546.44"/>
<polygon fill="black" stroke="black" points="278.7,-2549.95 289.11,-2548 279.76,-2543.03 278.7,-2549.95"/>
</g>
<!-- protein_align_feature -->
<g id="node27" class="node">
<title>protein_align_feature</title>
<path fill="#808000" stroke="black" d="M210.11,-1745.5C210.11,-1745.5 71.11,-1745.5 71.11,-1745.5 65.11,-1745.5 59.11,-1739.5 59.11,-1733.5 59.11,-1733.5 59.11,-1660.5 59.11,-1660.5 59.11,-1654.5 65.11,-1648.5 71.11,-1648.5 71.11,-1648.5 210.11,-1648.5 210.11,-1648.5 216.11,-1648.5 222.11,-1654.5 222.11,-1660.5 222.11,-1660.5 222.11,-1733.5 222.11,-1733.5 222.11,-1739.5 216.11,-1745.5 210.11,-1745.5"/>
<text text-anchor="start" x="71.61" y="-1724.2" font-family="Times,serif" font-size="16.00">protein_align_feature</text>
<polygon fill="white" stroke="transparent" points="69.61,-1696 69.61,-1715 212.61,-1715 212.61,-1696 69.61,-1696"/>
<text text-anchor="start" x="135.11" y="-1702.8" font-family="Times,serif" font-style="italic" font-size="14.00">...</text>
<polygon fill="white" stroke="transparent" points="69.61,-1675 69.61,-1694 212.61,-1694 212.61,-1675 69.61,-1675"/>
<text text-anchor="start" x="102.61" y="-1680.8" font-family="Times,serif" font-size="14.00">seq_region_id</text>
<polygon fill="white" stroke="transparent" points="69.61,-1654 69.61,-1673 212.61,-1673 212.61,-1654 69.61,-1654"/>
<text text-anchor="start" x="135.11" y="-1660.8" font-family="Times,serif" font-style="italic" font-size="14.00">...</text>
<polygon fill="black" stroke="black" points="67.61,-1716 67.61,-1716 214.61,-1716 214.61,-1716 67.61,-1716"/>
</g>
<!-- protein_align_feature&#45;&gt;seq_region -->
<g id="edge21" class="edge">
<title>protein_align_feature:e&#45;&gt;seq_region:w</title>
<path fill="none" stroke="black" stroke-dasharray="5,2" d="M213.61,-1684C249.01,-1684 242.22,-1719.87 251.61,-1754 293.27,-1905.39 268.07,-2303.41 279.61,-2460 282.2,-2495.09 256.28,-2537.82 278.95,-2546.44"/>
<polygon fill="black" stroke="black" points="278.7,-2549.94 289.11,-2548 279.76,-2543.02 278.7,-2549.94"/>
</g>
<!-- repeat_feature -->
<g id="node28" class="node">
<title>repeat_feature</title>
<path fill="#3cb371" stroke="black" d="M186.11,-904.5C186.11,-904.5 95.11,-904.5 95.11,-904.5 89.11,-904.5 83.11,-898.5 83.11,-892.5 83.11,-892.5 83.11,-819.5 83.11,-819.5 83.11,-813.5 89.11,-807.5 95.11,-807.5 95.11,-807.5 186.11,-807.5 186.11,-807.5 192.11,-807.5 198.11,-813.5 198.11,-819.5 198.11,-819.5 198.11,-892.5 198.11,-892.5 198.11,-898.5 192.11,-904.5 186.11,-904.5"/>
<text text-anchor="start" x="95.61" y="-883.2" font-family="Times,serif" font-size="16.00">repeat_feature</text>
<polygon fill="white" stroke="transparent" points="93.61,-855 93.61,-874 188.61,-874 188.61,-855 93.61,-855"/>
<text text-anchor="start" x="135.11" y="-861.8" font-family="Times,serif" font-style="italic" font-size="14.00">...</text>
<polygon fill="white" stroke="transparent" points="93.61,-834 93.61,-853 188.61,-853 188.61,-834 93.61,-834"/>
<text text-anchor="start" x="102.61" y="-839.8" font-family="Times,serif" font-size="14.00">seq_region_id</text>
<polygon fill="white" stroke="transparent" points="93.61,-813 93.61,-832 188.61,-832 188.61,-813 93.61,-813"/>
<text text-anchor="start" x="135.11" y="-819.8" font-family="Times,serif" font-style="italic" font-size="14.00">...</text>
<polygon fill="black" stroke="black" points="91.61,-875 91.61,-875 190.61,-875 190.61,-875 91.61,-875"/>
</g>
<!-- repeat_feature&#45;&gt;seq_region -->
<g id="edge22" class="edge">
<title>repeat_feature:e&#45;&gt;seq_region:w</title>
<path fill="none" stroke="black" stroke-dasharray="5,2" d="M189.61,-843C231.17,-843 236.53,-874.28 251.61,-913 282.82,-993.1 274.22,-2374.21 279.61,-2460 281.82,-2495.12 256.2,-2537.82 278.93,-2546.44"/>
<polygon fill="black" stroke="black" points="278.7,-2549.95 289.11,-2548 279.76,-2543.03 278.7,-2549.95"/>
</g>
<!-- seq_region_mapping -->
<g id="node29" class="node">
<title>seq_region_mapping</title>
<path fill="#ff6666" stroke="black" d="M208.61,-142.5C208.61,-142.5 72.61,-142.5 72.61,-142.5 66.61,-142.5 60.61,-136.5 60.61,-130.5 60.61,-130.5 60.61,-57.5 60.61,-57.5 60.61,-51.5 66.61,-45.5 72.61,-45.5 72.61,-45.5 208.61,-45.5 208.61,-45.5 214.61,-45.5 220.61,-51.5 220.61,-57.5 220.61,-57.5 220.61,-130.5 220.61,-130.5 220.61,-136.5 214.61,-142.5 208.61,-142.5"/>
<text text-anchor="start" x="72.61" y="-121.2" font-family="Times,serif" font-size="16.00">seq_region_mapping</text>
<polygon fill="white" stroke="transparent" points="70.61,-93 70.61,-112 210.61,-112 210.61,-93 70.61,-93"/>
<text text-anchor="start" x="134.61" y="-99.8" font-family="Times,serif" font-style="italic" font-size="14.00">...</text>
<polygon fill="white" stroke="transparent" points="70.61,-72 70.61,-91 210.61,-91 210.61,-72 70.61,-72"/>
<text text-anchor="start" x="78.11" y="-77.8" font-family="Times,serif" font-size="14.00">internal_seq_region_id</text>
<polygon fill="white" stroke="transparent" points="70.61,-51 70.61,-70 210.61,-70 210.61,-51 70.61,-51"/>
<text text-anchor="start" x="134.61" y="-57.8" font-family="Times,serif" font-style="italic" font-size="14.00">...</text>
<polygon fill="black" stroke="black" points="68.61,-113 68.61,-113 212.61,-113 212.61,-113 68.61,-113"/>
</g>
<!-- seq_region_mapping&#45;&gt;seq_region -->
<g id="edge26" class="edge">
<title>seq_region_mapping:e&#45;&gt;seq_region:w</title>
<path fill="none" stroke="black" stroke-dasharray="5,2" d="M211.61,-81C261.14,-81 242.27,-136.37 251.61,-185 257.58,-216.04 256.39,-2378.18 285.6,-2538.61"/>
<polygon fill="black" stroke="black" points="282.33,-2539.86 289.11,-2548 288.89,-2537.41 282.33,-2539.86"/>
</g>
<!-- simple_feature -->
<g id="node30" class="node">
<title>simple_feature</title>
<path fill="#3cb371" stroke="black" d="M188.11,-789.5C188.11,-789.5 93.11,-789.5 93.11,-789.5 87.11,-789.5 81.11,-783.5 81.11,-777.5 81.11,-777.5 81.11,-704.5 81.11,-704.5 81.11,-698.5 87.11,-692.5 93.11,-692.5 93.11,-692.5 188.11,-692.5 188.11,-692.5 194.11,-692.5 200.11,-698.5 200.11,-704.5 200.11,-704.5 200.11,-777.5 200.11,-777.5 200.11,-783.5 194.11,-789.5 188.11,-789.5"/>
<text text-anchor="start" x="93.61" y="-768.2" font-family="Times,serif" font-size="16.00">simple_feature</text>
<polygon fill="white" stroke="transparent" points="91.61,-740 91.61,-759 190.61,-759 190.61,-740 91.61,-740"/>
<text text-anchor="start" x="135.11" y="-746.8" font-family="Times,serif" font-style="italic" font-size="14.00">...</text>
<polygon fill="white" stroke="transparent" points="91.61,-719 91.61,-738 190.61,-738 190.61,-719 91.61,-719"/>
<text text-anchor="start" x="102.61" y="-724.8" font-family="Times,serif" font-size="14.00">seq_region_id</text>
<polygon fill="white" stroke="transparent" points="91.61,-698 91.61,-717 190.61,-717 190.61,-698 91.61,-698"/>
<text text-anchor="start" x="135.11" y="-704.8" font-family="Times,serif" font-style="italic" font-size="14.00">...</text>
<polygon fill="black" stroke="black" points="89.61,-760 89.61,-760 192.61,-760 192.61,-760 89.61,-760"/>
</g>
<!-- simple_feature&#45;&gt;seq_region -->
<g id="edge28" class="edge">
<title>simple_feature:e&#45;&gt;seq_region:w</title>
<path fill="none" stroke="black" stroke-dasharray="5,2" d="M191.61,-728C232.59,-728 237.08,-759.69 251.61,-798 284.38,-884.34 273.88,-2367.83 279.61,-2460 281.8,-2495.12 256.2,-2537.82 278.93,-2546.44"/>
<polygon fill="black" stroke="black" points="278.7,-2549.95 289.11,-2548 279.76,-2543.03 278.7,-2549.95"/>
</g>
<!-- transcript -->
<g id="node31" class="node">
<title>transcript</title>
<path fill="#808000" stroke="black" d="M179.11,-1630.5C179.11,-1630.5 102.11,-1630.5 102.11,-1630.5 96.11,-1630.5 90.11,-1624.5 90.11,-1618.5 90.11,-1618.5 90.11,-1545.5 90.11,-1545.5 90.11,-1539.5 96.11,-1533.5 102.11,-1533.5 102.11,-1533.5 179.11,-1533.5 179.11,-1533.5 185.11,-1533.5 191.11,-1539.5 191.11,-1545.5 191.11,-1545.5 191.11,-1618.5 191.11,-1618.5 191.11,-1624.5 185.11,-1630.5 179.11,-1630.5"/>
<text text-anchor="start" x="110.61" y="-1609.2" font-family="Times,serif" font-size="16.00">transcript</text>
<polygon fill="white" stroke="transparent" points="100.61,-1581 100.61,-1600 181.61,-1600 181.61,-1581 100.61,-1581"/>
<text text-anchor="start" x="135.11" y="-1587.8" font-family="Times,serif" font-style="italic" font-size="14.00">...</text>
<polygon fill="white" stroke="transparent" points="100.61,-1560 100.61,-1579 181.61,-1579 181.61,-1560 100.61,-1560"/>
<text text-anchor="start" x="102.61" y="-1565.8" font-family="Times,serif" font-size="14.00">seq_region_id</text>
<polygon fill="white" stroke="transparent" points="100.61,-1539 100.61,-1558 181.61,-1558 181.61,-1539 100.61,-1539"/>
<text text-anchor="start" x="135.11" y="-1545.8" font-family="Times,serif" font-style="italic" font-size="14.00">...</text>
<polygon fill="black" stroke="black" points="98.61,-1601 98.61,-1601 183.61,-1601 183.61,-1601 98.61,-1601"/>
</g>
<!-- transcript&#45;&gt;seq_region -->
<g id="edge29" class="edge">
<title>transcript:e&#45;&gt;seq_region:w</title>
<path fill="none" stroke="black" stroke-dasharray="5,2" d="M182.61,-1569C346.74,-1569 215.25,-1552.58 279.61,-2460 282.1,-2495.1 256.26,-2537.82 278.94,-2546.44"/>
<polygon fill="black" stroke="black" points="278.7,-2549.94 289.11,-2548 279.76,-2543.03 278.7,-2549.94"/>
</g>
</g>
</svg>
