<?xml version="1.0" encoding="UTF-8" standalone="no"?>
<!DOCTYPE svg PUBLIC "-//W3C//DTD SVG 1.1//EN"
 "http://www.w3.org/Graphics/SVG/1.1/DTD/svg11.dtd">
<!-- Generated by graphviz version 8.0.5 (20230430.1635)
 -->
<!-- Title: test Pages: 1 -->
<svg width="398pt" height="781pt"
 viewBox="0.00 0.00 397.75 780.50" xmlns="http://www.w3.org/2000/svg" xmlns:xlink="http://www.w3.org/1999/xlink">
<g id="graph0" class="graph" transform="scale(1 1) rotate(0) translate(4 776.5)">
<title>test</title>
<polygon fill="white" stroke="none" points="-4,4 -4,-776.5 393.75,-776.5 393.75,4 -4,4"/>
<text text-anchor="middle" x="194.88" y="-7.5" font-family="Times,serif" font-size="20.00">Core schema diagram: ID Mapping tables</text>
<g id="clust1" class="cluster">
<title>cluster_assembly_tables</title>
<polygon fill="white" stroke="white" points="218,-38.5 218,-164.5 367.5,-164.5 367.5,-38.5 218,-38.5"/>
<text text-anchor="middle" x="292.75" y="-141.5" font-family="Times,serif" font-size="20.00">Assembly Tables</text>
</g>
<g id="clust2" class="cluster">
<title>cluster_id_mapping</title>
<path fill="#ffe0e0" stroke="#ffe0e0" d="M20,-172.5C20,-172.5 369.75,-172.5 369.75,-172.5 375.75,-172.5 381.75,-178.5 381.75,-184.5 381.75,-184.5 381.75,-752.5 381.75,-752.5 381.75,-758.5 375.75,-764.5 369.75,-764.5 369.75,-764.5 20,-764.5 20,-764.5 14,-764.5 8,-758.5 8,-752.5 8,-752.5 8,-184.5 8,-184.5 8,-178.5 14,-172.5 20,-172.5"/>
<text text-anchor="middle" x="194.88" y="-741.5" font-family="Times,serif" font-size="20.00">ID Mapping</text>
</g>
<!-- gene_archive -->
<g id="node1" class="node">
<title>gene_archive</title>
<path fill="#ff6666" stroke="black" d="M152.12,-725.88C152.12,-725.88 39.62,-725.88 39.62,-725.88 33.62,-725.88 27.62,-719.88 27.62,-713.88 27.62,-713.88 27.62,-523.12 27.62,-523.12 27.62,-517.12 33.62,-511.12 39.62,-511.12 39.62,-511.12 152.12,-511.12 152.12,-511.12 158.12,-511.12 164.12,-517.12 164.12,-523.12 164.12,-523.12 164.12,-713.88 164.12,-713.88 164.12,-719.88 158.12,-725.88 152.12,-725.88"/>
<text text-anchor="start" x="53.5" y="-702.67" font-family="Times,serif" font-size="16.00">gene_archive</text>
<polygon fill="white" stroke="none" points="37.62,-674.62 37.62,-695.12 154.12,-695.12 154.12,-674.62 37.62,-674.62"/>
<text text-anchor="start" x="55.38" y="-679.83" font-family="Times,serif" font-size="14.00">gene_stable_id</text>
<polygon fill="white" stroke="none" points="37.62,-652.12 37.62,-672.62 154.12,-672.62 154.12,-652.12 37.62,-652.12"/>
<text text-anchor="start" x="59.88" y="-657.33" font-family="Times,serif" font-size="14.00">gene_version</text>
<polygon fill="white" stroke="none" points="37.62,-629.62 37.62,-650.12 154.12,-650.12 154.12,-629.62 37.62,-629.62"/>
<text text-anchor="start" x="42.62" y="-634.83" font-family="Times,serif" font-size="14.00">transcript_stable_id</text>
<polygon fill="white" stroke="none" points="37.62,-607.12 37.62,-627.62 154.12,-627.62 154.12,-607.12 37.62,-607.12"/>
<text text-anchor="start" x="47.12" y="-612.33" font-family="Times,serif" font-size="14.00">transcript_version</text>
<polygon fill="white" stroke="none" points="37.62,-584.62 37.62,-605.12 154.12,-605.12 154.12,-584.62 37.62,-584.62"/>
<text text-anchor="start" x="39.62" y="-589.83" font-family="Times,serif" font-size="14.00">translation_stable_id</text>
<polygon fill="white" stroke="none" points="37.62,-562.12 37.62,-582.62 154.12,-582.62 154.12,-562.12 37.62,-562.12"/>
<text text-anchor="start" x="44.12" y="-567.33" font-family="Times,serif" font-size="14.00">translation_version</text>
<polygon fill="white" stroke="none" points="37.62,-539.62 37.62,-560.12 154.12,-560.12 154.12,-539.62 37.62,-539.62"/>
<text text-anchor="start" x="44.12" y="-544.83" font-family="Times,serif" font-size="14.00">peptide_archive_id</text>
<polygon fill="white" stroke="none" points="37.62,-517.12 37.62,-537.62 154.12,-537.62 154.12,-517.12 37.62,-517.12"/>
<text text-anchor="start" x="40.38" y="-522.33" font-family="Times,serif" font-size="14.00">mapping_session_id</text>
<polygon fill="black" stroke="black" points="35.62,-696.12 35.62,-696.12 156.12,-696.12 156.12,-696.12 35.62,-696.12"/>
</g>
<!-- mapping_session -->
<g id="node2" class="node">
<title>mapping_session</title>
<path fill="#ff6666" stroke="black" d="M361.75,-515.88C361.75,-515.88 223.75,-515.88 223.75,-515.88 217.75,-515.88 211.75,-509.88 211.75,-503.88 211.75,-503.88 211.75,-313.12 211.75,-313.12 211.75,-307.12 217.75,-301.12 223.75,-301.12 223.75,-301.12 361.75,-301.12 361.75,-301.12 367.75,-301.12 373.75,-307.12 373.75,-313.12 373.75,-313.12 373.75,-503.88 373.75,-503.88 373.75,-509.88 367.75,-515.88 361.75,-515.88"/>
<text text-anchor="start" x="237.25" y="-492.68" font-family="Times,serif" font-size="16.00">mapping_session</text>
<polygon fill="white" stroke="none" points="221.75,-464.62 221.75,-485.12 363.75,-485.12 363.75,-464.62 221.75,-464.62"/>
<text text-anchor="start" x="223.75" y="-470.82" font-family="Times,serif" font-weight="bold" font-size="14.00">PK</text>
<text text-anchor="start" x="243.25" y="-470.82" font-family="Times,serif" font-size="14.00">  mapping_session_id</text>
<polygon fill="white" stroke="none" points="221.75,-442.12 221.75,-462.62 363.75,-462.62 363.75,-442.12 221.75,-442.12"/>
<text text-anchor="start" x="255.62" y="-447.32" font-family="Times,serif" font-size="14.00">old_db_name</text>
<polygon fill="white" stroke="none" points="221.75,-419.62 221.75,-440.12 363.75,-440.12 363.75,-419.62 221.75,-419.62"/>
<text text-anchor="start" x="253" y="-424.82" font-family="Times,serif" font-size="14.00">new_db_name</text>
<polygon fill="white" stroke="none" points="221.75,-397.12 221.75,-417.62 363.75,-417.62 363.75,-397.12 221.75,-397.12"/>
<text text-anchor="start" x="262" y="-402.32" font-family="Times,serif" font-size="14.00">old_release</text>
<polygon fill="white" stroke="none" points="221.75,-374.62 221.75,-395.12 363.75,-395.12 363.75,-374.62 221.75,-374.62"/>
<text text-anchor="start" x="259.38" y="-379.82" font-family="Times,serif" font-size="14.00">new_release</text>
<polygon fill="white" stroke="none" points="221.75,-352.12 221.75,-372.62 363.75,-372.62 363.75,-352.12 221.75,-352.12"/>
<text text-anchor="start" x="255.25" y="-357.32" font-family="Times,serif" font-size="14.00">old_assembly</text>
<polygon fill="white" stroke="none" points="221.75,-329.62 221.75,-350.12 363.75,-350.12 363.75,-329.62 221.75,-329.62"/>
<text text-anchor="start" x="252.62" y="-334.82" font-family="Times,serif" font-size="14.00">new_assembly</text>
<polygon fill="white" stroke="none" points="221.75,-307.12 221.75,-327.62 363.75,-327.62 363.75,-307.12 221.75,-307.12"/>
<text text-anchor="start" x="273.25" y="-312.32" font-family="Times,serif" font-size="14.00">created</text>
<polygon fill="black" stroke="black" points="219.75,-486.12 219.75,-486.12 365.75,-486.12 365.75,-486.12 219.75,-486.12"/>
</g>
<!-- gene_archive&#45;&gt;mapping_session -->
<g id="edge1" class="edge">
<title>gene_archive:e&#45;&gt;mapping_session:w</title>
<path fill="none" stroke="black" stroke-dasharray="5,2" d="M154.88,-527.5C188.34,-527.5 184.64,-485.46 209.98,-476.26"/>
<polygon fill="black" stroke="black" points="210.45,-479.57 219.75,-474.5 209.32,-472.66 210.45,-479.57"/>
</g>
<!-- peptide_archive -->
<g id="node4" class="node">
<title>peptide_archive</title>
<path fill="#ff6666" stroke="black" d="M358,-636.62C358,-636.62 227.5,-636.62 227.5,-636.62 221.5,-636.62 215.5,-630.62 215.5,-624.62 215.5,-624.62 215.5,-546.38 215.5,-546.38 215.5,-540.38 221.5,-534.38 227.5,-534.38 227.5,-534.38 358,-534.38 358,-534.38 364,-534.38 370,-540.38 370,-546.38 370,-546.38 370,-624.62 370,-624.62 370,-630.62 364,-636.62 358,-636.62"/>
<text text-anchor="start" x="241.75" y="-613.42" font-family="Times,serif" font-size="16.00">peptide_archive</text>
<polygon fill="white" stroke="none" points="225.5,-585.38 225.5,-605.88 360,-605.88 360,-585.38 225.5,-585.38"/>
<text text-anchor="start" x="227.5" y="-591.58" font-family="Times,serif" font-weight="bold" font-size="14.00">PK</text>
<text text-anchor="start" x="247" y="-591.58" font-family="Times,serif" font-size="14.00">  peptide_archive_id</text>
<polygon fill="white" stroke="none" points="225.5,-562.88 225.5,-583.38 360,-583.38 360,-562.88 225.5,-562.88"/>
<text text-anchor="start" x="249.62" y="-568.08" font-family="Times,serif" font-size="14.00">md5_checksum</text>
<polygon fill="white" stroke="none" points="225.5,-540.38 225.5,-560.88 360,-560.88 360,-540.38 225.5,-540.38"/>
<text text-anchor="start" x="260.5" y="-545.58" font-family="Times,serif" font-size="14.00">peptide_seq</text>
<polygon fill="black" stroke="black" points="223.5,-606.88 223.5,-606.88 362,-606.88 362,-606.88 223.5,-606.88"/>
</g>
<!-- gene_archive&#45;&gt;peptide_archive -->
<g id="edge2" class="edge">
<title>gene_archive:e&#45;&gt;peptide_archive:w</title>
<path fill="none" stroke="black" stroke-dasharray="5,2" d="M154.88,-549.5C187.99,-549.5 188.05,-585.99 213.94,-593.97"/>
<polygon fill="black" stroke="black" points="213.36,-597.56 223.75,-595.5 214.34,-590.63 213.36,-597.56"/>
</g>
<!-- mapping_set -->
<g id="node3" class="node">
<title>mapping_set</title>
<path fill="#ff6666" stroke="black" d="M355.75,-282.62C355.75,-282.62 229.75,-282.62 229.75,-282.62 223.75,-282.62 217.75,-276.62 217.75,-270.62 217.75,-270.62 217.75,-192.38 217.75,-192.38 217.75,-186.38 223.75,-180.38 229.75,-180.38 229.75,-180.38 355.75,-180.38 355.75,-180.38 361.75,-180.38 367.75,-186.38 367.75,-192.38 367.75,-192.38 367.75,-270.62 367.75,-270.62 367.75,-276.62 361.75,-282.62 355.75,-282.62"/>
<text text-anchor="start" x="251.5" y="-259.43" font-family="Times,serif" font-size="16.00">mapping_set</text>
<polygon fill="white" stroke="none" points="227.75,-231.38 227.75,-251.88 357.75,-251.88 357.75,-231.38 227.75,-231.38"/>
<text text-anchor="start" x="235.75" y="-237.57" font-family="Times,serif" font-weight="bold" font-size="14.00">PK</text>
<text text-anchor="start" x="255.25" y="-237.57" font-family="Times,serif" font-size="14.00">  mapping_set_id</text>
<polygon fill="white" stroke="none" points="227.75,-208.88 227.75,-229.38 357.75,-229.38 357.75,-208.88 227.75,-208.88"/>
<text text-anchor="start" x="230.88" y="-214.07" font-family="Times,serif" font-size="14.00">internal_schema_build</text>
<polygon fill="white" stroke="none" points="227.75,-186.38 227.75,-206.88 357.75,-206.88 357.75,-186.38 227.75,-186.38"/>
<text text-anchor="start" x="229.75" y="-191.57" font-family="Times,serif" font-size="14.00">external_schema_build</text>
<polygon fill="black" stroke="black" points="225.75,-252.88 225.75,-252.88 359.75,-252.88 359.75,-252.88 225.75,-252.88"/>
</g>
<!-- seq_region_mapping -->
<g id="node5" class="node">
<title>seq_region_mapping</title>
<path fill="#ff6666" stroke="black" d="M163.75,-282.62C163.75,-282.62 28,-282.62 28,-282.62 22,-282.62 16,-276.62 16,-270.62 16,-270.62 16,-192.38 16,-192.38 16,-186.38 22,-180.38 28,-180.38 28,-180.38 163.75,-180.38 163.75,-180.38 169.75,-180.38 175.75,-186.38 175.75,-192.38 175.75,-192.38 175.75,-270.62 175.75,-270.62 175.75,-276.62 169.75,-282.62 163.75,-282.62"/>
<text text-anchor="start" x="28" y="-259.43" font-family="Times,serif" font-size="16.00">seq_region_mapping</text>
<polygon fill="white" stroke="none" points="26,-231.38 26,-251.88 165.75,-251.88 165.75,-231.38 26,-231.38"/>
<text text-anchor="start" x="32.5" y="-236.57" font-family="Times,serif" font-size="14.00">external_seq_region_id</text>
<polygon fill="white" stroke="none" points="26,-208.88 26,-229.38 165.75,-229.38 165.75,-208.88 26,-208.88"/>
<text text-anchor="start" x="33.62" y="-214.07" font-family="Times,serif" font-size="14.00">internal_seq_region_id</text>
<polygon fill="white" stroke="none" points="26,-186.38 26,-206.88 165.75,-206.88 165.75,-186.38 26,-186.38"/>
<text text-anchor="start" x="52.38" y="-191.57" font-family="Times,serif" font-size="14.00">mapping_set_id</text>
<polygon fill="black" stroke="black" points="24,-252.88 24,-252.88 167.75,-252.88 167.75,-252.88 24,-252.88"/>
</g>
<!-- seq_region_mapping&#45;&gt;mapping_set -->
<g id="edge3" class="edge">
<title>seq_region_mapping:e&#45;&gt;mapping_set:w</title>
<path fill="none" stroke="black" stroke-dasharray="5,2" d="M166.88,-196.5C196,-196.5 194.51,-230.95 215.99,-239.57"/>
<polygon fill="black" stroke="black" points="215.29,-243.18 225.75,-241.5 216.53,-236.29 215.29,-243.18"/>
</g>
<!-- seq_region -->
<g id="node7" class="node">
<title>seq_region</title>
<path fill="#c70c09" stroke="black" d="M344.5,-126.38C344.5,-126.38 241,-126.38 241,-126.38 235,-126.38 229,-120.38 229,-114.38 229,-114.38 229,-58.62 229,-58.62 229,-52.62 235,-46.62 241,-46.62 241,-46.62 344.5,-46.62 344.5,-46.62 350.5,-46.62 356.5,-52.62 356.5,-58.62 356.5,-58.62 356.5,-114.38 356.5,-114.38 356.5,-120.38 350.5,-126.38 344.5,-126.38"/>
<text text-anchor="start" x="257.5" y="-103.17" font-family="Times,serif" font-size="16.00">seq_region</text>
<polygon fill="white" stroke="none" points="239,-75.12 239,-95.62 346.5,-95.62 346.5,-75.12 239,-75.12"/>
<text text-anchor="start" x="241" y="-81.33" font-family="Times,serif" font-weight="bold" font-size="14.00">PK</text>
<text text-anchor="start" x="260.5" y="-81.33" font-family="Times,serif" font-size="14.00">  seq_region_id</text>
<polygon fill="white" stroke="none" points="239,-52.62 239,-73.12 346.5,-73.12 346.5,-52.62 239,-52.62"/>
<text text-anchor="start" x="287.12" y="-58.83" font-family="Times,serif" font-style="italic" font-size="14.00">...</text>
<polygon fill="black" stroke="black" points="237,-96.62 237,-96.62 348.5,-96.62 348.5,-96.62 237,-96.62"/>
</g>
<!-- seq_region_mapping&#45;&gt;seq_region -->
<g id="edge4" class="edge">
<title>seq_region_mapping:e&#45;&gt;seq_region:w</title>
<path fill="none" stroke="black" stroke-dasharray="5,2" d="M166.88,-219.5C230.17,-219.5 177.63,-101.24 226.9,-86.91"/>
<polygon fill="black" stroke="black" points="227.29,-90.26 236.75,-85.5 226.38,-83.32 227.29,-90.26"/>
</g>
<!-- stable_id_event -->
<g id="node6" class="node">
<title>stable_id_event</title>
<path fill="#ff6666" stroke="black" d="M151.38,-492.62C151.38,-492.62 40.38,-492.62 40.38,-492.62 34.38,-492.62 28.38,-486.62 28.38,-480.62 28.38,-480.62 28.38,-312.38 28.38,-312.38 28.38,-306.38 34.38,-300.38 40.38,-300.38 40.38,-300.38 151.38,-300.38 151.38,-300.38 157.38,-300.38 163.38,-306.38 163.38,-312.38 163.38,-312.38 163.38,-480.62 163.38,-480.62 163.38,-486.62 157.38,-492.62 151.38,-492.62"/>
<text text-anchor="start" x="45.62" y="-469.43" font-family="Times,serif" font-size="16.00">stable_id_event</text>
<polygon fill="white" stroke="none" points="38.38,-441.38 38.38,-461.88 153.38,-461.88 153.38,-441.38 38.38,-441.38"/>
<text text-anchor="start" x="59.5" y="-446.57" font-family="Times,serif" font-size="14.00">old_stable_id</text>
<polygon fill="white" stroke="none" points="38.38,-418.88 38.38,-439.38 153.38,-439.38 153.38,-418.88 38.38,-418.88"/>
<text text-anchor="start" x="64" y="-424.07" font-family="Times,serif" font-size="14.00">old_version</text>
<polygon fill="white" stroke="none" points="38.38,-396.38 38.38,-416.88 153.38,-416.88 153.38,-396.38 38.38,-396.38"/>
<text text-anchor="start" x="56.88" y="-401.57" font-family="Times,serif" font-size="14.00">new_stable_id</text>
<polygon fill="white" stroke="none" points="38.38,-373.88 38.38,-394.38 153.38,-394.38 153.38,-373.88 38.38,-373.88"/>
<text text-anchor="start" x="61.38" y="-379.07" font-family="Times,serif" font-size="14.00">new_version</text>
<polygon fill="white" stroke="none" points="38.38,-351.38 38.38,-371.88 153.38,-371.88 153.38,-351.38 38.38,-351.38"/>
<text text-anchor="start" x="40.38" y="-356.57" font-family="Times,serif" font-size="14.00">mapping_session_id</text>
<polygon fill="white" stroke="none" points="38.38,-328.88 38.38,-349.38 153.38,-349.38 153.38,-328.88 38.38,-328.88"/>
<text text-anchor="start" x="84.25" y="-334.07" font-family="Times,serif" font-size="14.00">type</text>
<polygon fill="white" stroke="none" points="38.38,-306.38 38.38,-326.88 153.38,-326.88 153.38,-306.38 38.38,-306.38"/>
<text text-anchor="start" x="81.62" y="-311.57" font-family="Times,serif" font-size="14.00">score</text>
<polygon fill="black" stroke="black" points="36.38,-462.88 36.38,-462.88 155.38,-462.88 155.38,-462.88 36.38,-462.88"/>
</g>
<!-- stable_id_event&#45;&gt;mapping_session -->
<g id="edge5" class="edge">
<title>stable_id_event:e&#45;&gt;mapping_session:w</title>
<path fill="none" stroke="black" stroke-dasharray="5,2" d="M154.88,-361.5C208.92,-361.5 169.17,-459.17 210.02,-472.9"/>
<polygon fill="black" stroke="black" points="209.34,-476.49 219.75,-474.5 210.37,-469.57 209.34,-476.49"/>
</g>
</g>
</svg>
