<?xml version="1.0" encoding="UTF-8" standalone="no"?>
<!DOCTYPE svg PUBLIC "-//W3C//DTD SVG 1.1//EN"
 "http://www.w3.org/Graphics/SVG/1.1/DTD/svg11.dtd">
<!-- Generated by graphviz version 2.47.0 (20210316.0004)
 -->
<!-- Title: test Pages: 1 -->
<svg width="837pt" height="1764pt"
 viewBox="0.00 0.00 837.00 1764.00" xmlns="http://www.w3.org/2000/svg" xmlns:xlink="http://www.w3.org/1999/xlink">
<g id="graph0" class="graph" transform="scale(1 1) rotate(0) translate(4 1760)">
<title>test</title>
<polygon fill="white" stroke="transparent" points="-4,4 -4,-1760 833,-1760 833,4 -4,4"/>
<text text-anchor="middle" x="414.5" y="-10" font-family="Times,serif" font-size="20.00">Core schema diagram: External References tables</text>
<g id="clust1" class="cluster">
<title>cluster_external_references</title>
<path fill="#d2e8ff" stroke="#d2e8ff" d="M20,-651C20,-651 809,-651 809,-651 815,-651 821,-657 821,-663 821,-663 821,-1736 821,-1736 821,-1742 815,-1748 809,-1748 809,-1748 20,-1748 20,-1748 14,-1748 8,-1742 8,-1736 8,-1736 8,-663 8,-663 8,-657 14,-651 20,-651"/>
<text text-anchor="middle" x="414.5" y="-1726" font-family="Times,serif" font-size="20.00">External References</text>
</g>
<g id="clust2" class="cluster">
<title>cluster_fundamental_tables</title>
<polygon fill="white" stroke="white" points="423,-40 423,-643 601,-643 601,-40 423,-40"/>
<text text-anchor="middle" x="512" y="-621" font-family="Times,serif" font-size="20.00">Fundamental Tables</text>
</g>
<!-- associated_group -->
<g id="node1" class="node">
<title>associated_group</title>
<path fill="#1e90ff" stroke="black" d="M376,-1597.5C376,-1597.5 227,-1597.5 227,-1597.5 221,-1597.5 215,-1591.5 215,-1585.5 215,-1585.5 215,-1530.5 215,-1530.5 215,-1524.5 221,-1518.5 227,-1518.5 227,-1518.5 376,-1518.5 376,-1518.5 382,-1518.5 388,-1524.5 388,-1530.5 388,-1530.5 388,-1585.5 388,-1585.5 388,-1591.5 382,-1597.5 376,-1597.5"/>
<text text-anchor="start" x="246.46" y="-1574.6" font-family="Times,serif" font-size="16.00">associated_group</text>
<polygon fill="white" stroke="transparent" points="225.5,-1546 225.5,-1566 378.5,-1566 378.5,-1546 225.5,-1546"/>
<text text-anchor="start" x="227.35" y="-1552.4" font-family="Times,serif" font-weight="bold" font-size="14.00">PK</text>
<text text-anchor="start" x="245.24" y="-1552.4" font-family="Times,serif" font-size="14.00">  associated_group_id</text>
<polygon fill="white" stroke="transparent" points="225.5,-1524 225.5,-1544 378.5,-1544 378.5,-1524 225.5,-1524"/>
<text text-anchor="start" x="270.9" y="-1529.4" font-family="Times,serif" font-size="14.00">description</text>
<polygon fill="black" stroke="black" points="223.5,-1567 223.5,-1567 380.5,-1567 380.5,-1567 223.5,-1567"/>
</g>
<!-- associated_xref -->
<g id="node2" class="node">
<title>associated_xref</title>
<path fill="#1e90ff" stroke="black" d="M167,-1707.5C167,-1707.5 28,-1707.5 28,-1707.5 22,-1707.5 16,-1701.5 16,-1695.5 16,-1695.5 16,-1530.5 16,-1530.5 16,-1524.5 22,-1518.5 28,-1518.5 28,-1518.5 167,-1518.5 167,-1518.5 173,-1518.5 179,-1524.5 179,-1530.5 179,-1530.5 179,-1695.5 179,-1695.5 179,-1701.5 173,-1707.5 167,-1707.5"/>
<text text-anchor="start" x="48.25" y="-1684.6" font-family="Times,serif" font-size="16.00">associated_xref</text>
<polygon fill="white" stroke="transparent" points="26.5,-1656 26.5,-1676 169.5,-1676 169.5,-1656 26.5,-1656"/>
<text text-anchor="start" x="28.42" y="-1662.4" font-family="Times,serif" font-weight="bold" font-size="14.00">PK</text>
<text text-anchor="start" x="46.31" y="-1662.4" font-family="Times,serif" font-size="14.00">  associated_xref_id</text>
<polygon fill="white" stroke="transparent" points="26.5,-1634 26.5,-1654 169.5,-1654 169.5,-1634 26.5,-1634"/>
<text text-anchor="start" x="57.18" y="-1639.4" font-family="Times,serif" font-size="14.00">object_xref_id</text>
<polygon fill="white" stroke="transparent" points="26.5,-1612 26.5,-1632 169.5,-1632 169.5,-1612 26.5,-1612"/>
<text text-anchor="start" x="77.79" y="-1617.4" font-family="Times,serif" font-size="14.00">xref_id</text>
<polygon fill="white" stroke="transparent" points="26.5,-1590 26.5,-1610 169.5,-1610 169.5,-1590 26.5,-1590"/>
<text text-anchor="start" x="56.02" y="-1595.4" font-family="Times,serif" font-size="14.00">source_xref_id</text>
<polygon fill="white" stroke="transparent" points="26.5,-1568 26.5,-1588 169.5,-1588 169.5,-1568 26.5,-1568"/>
<text text-anchor="start" x="56" y="-1573.4" font-family="Times,serif" font-size="14.00">condition_type</text>
<polygon fill="white" stroke="transparent" points="26.5,-1546 26.5,-1566 169.5,-1566 169.5,-1546 26.5,-1546"/>
<text text-anchor="start" x="40.46" y="-1551.4" font-family="Times,serif" font-size="14.00">associated_group_id</text>
<polygon fill="white" stroke="transparent" points="26.5,-1524 26.5,-1544 169.5,-1544 169.5,-1524 26.5,-1524"/>
<text text-anchor="start" x="85.56" y="-1529.4" font-family="Times,serif" font-size="14.00">rank</text>
<polygon fill="black" stroke="black" points="24.5,-1677 24.5,-1677 171.5,-1677 171.5,-1677 24.5,-1677"/>
</g>
<!-- associated_xref&#45;&gt;associated_group -->
<g id="edge1" class="edge">
<title>associated_xref:e&#45;&gt;associated_group:w</title>
<path fill="none" stroke="black" stroke-dasharray="5,2" d="M170.5,-1556C190.75,-1556 198.19,-1556 214.43,-1556"/>
<polygon fill="black" stroke="black" points="214.5,-1559.5 224.5,-1556 214.5,-1552.5 214.5,-1559.5"/>
</g>
<!-- object_xref -->
<g id="node9" class="node">
<title>object_xref</title>
<path fill="#1e90ff" stroke="black" d="M360.5,-936.5C360.5,-936.5 242.5,-936.5 242.5,-936.5 236.5,-936.5 230.5,-930.5 230.5,-924.5 230.5,-924.5 230.5,-781.5 230.5,-781.5 230.5,-775.5 236.5,-769.5 242.5,-769.5 242.5,-769.5 360.5,-769.5 360.5,-769.5 366.5,-769.5 372.5,-775.5 372.5,-781.5 372.5,-781.5 372.5,-924.5 372.5,-924.5 372.5,-930.5 366.5,-936.5 360.5,-936.5"/>
<text text-anchor="start" x="265.07" y="-913.6" font-family="Times,serif" font-size="16.00">object_xref</text>
<polygon fill="white" stroke="transparent" points="240.5,-885 240.5,-905 362.5,-905 362.5,-885 240.5,-885"/>
<text text-anchor="start" x="243.58" y="-891.4" font-family="Times,serif" font-weight="bold" font-size="14.00">PK</text>
<text text-anchor="start" x="261.47" y="-891.4" font-family="Times,serif" font-size="14.00">  object_xref_id</text>
<polygon fill="white" stroke="transparent" points="240.5,-863 240.5,-883 362.5,-883 362.5,-863 240.5,-863"/>
<text text-anchor="start" x="269.23" y="-868.4" font-family="Times,serif" font-size="14.00">ensembl_id</text>
<polygon fill="white" stroke="transparent" points="240.5,-841 240.5,-861 362.5,-861 362.5,-841 240.5,-841"/>
<text text-anchor="start" x="242.01" y="-846.4" font-family="Times,serif" font-size="14.00">ensembl_object_type</text>
<polygon fill="white" stroke="transparent" points="240.5,-819 240.5,-839 362.5,-839 362.5,-819 240.5,-819"/>
<text text-anchor="start" x="281.29" y="-824.4" font-family="Times,serif" font-size="14.00">xref_id</text>
<polygon fill="white" stroke="transparent" points="240.5,-797 240.5,-817 362.5,-817 362.5,-797 240.5,-797"/>
<text text-anchor="start" x="247.84" y="-802.4" font-family="Times,serif" font-size="14.00">linkage_annotation</text>
<polygon fill="white" stroke="transparent" points="240.5,-775 240.5,-795 362.5,-795 362.5,-775 240.5,-775"/>
<text text-anchor="start" x="270" y="-780.4" font-family="Times,serif" font-size="14.00">analysis_id</text>
<polygon fill="black" stroke="black" points="238.5,-906 238.5,-906 364.5,-906 364.5,-906 238.5,-906"/>
</g>
<!-- associated_xref&#45;&gt;object_xref -->
<g id="edge2" class="edge">
<title>associated_xref:e&#45;&gt;object_xref:w</title>
<path fill="none" stroke="black" stroke-dasharray="5,2" d="M170.5,-1644C250.65,-1644 163.67,-955.18 230.11,-898.68"/>
<polygon fill="black" stroke="black" points="231.46,-901.9 239.5,-895 228.91,-895.39 231.46,-901.9"/>
</g>
<!-- xref -->
<g id="node13" class="node">
<title>xref</title>
<path fill="#1e90ff" stroke="black" d="M553,-870.5C553,-870.5 470,-870.5 470,-870.5 464,-870.5 458,-864.5 458,-858.5 458,-858.5 458,-671.5 458,-671.5 458,-665.5 464,-659.5 470,-659.5 470,-659.5 553,-659.5 553,-659.5 559,-659.5 565,-665.5 565,-671.5 565,-671.5 565,-858.5 565,-858.5 565,-864.5 559,-870.5 553,-870.5"/>
<text text-anchor="start" x="499.12" y="-847.6" font-family="Times,serif" font-size="16.00">xref</text>
<polygon fill="white" stroke="transparent" points="468.5,-819 468.5,-839 555.5,-839 555.5,-819 468.5,-819"/>
<text text-anchor="start" x="474.68" y="-825.4" font-family="Times,serif" font-weight="bold" font-size="14.00">PK</text>
<text text-anchor="start" x="492.57" y="-825.4" font-family="Times,serif" font-size="14.00">  xref_id</text>
<polygon fill="white" stroke="transparent" points="468.5,-797 468.5,-817 555.5,-817 555.5,-797 468.5,-797"/>
<text text-anchor="start" x="470.01" y="-802.4" font-family="Times,serif" font-size="14.00">external_db_id</text>
<polygon fill="white" stroke="transparent" points="468.5,-775 468.5,-795 555.5,-795 555.5,-775 468.5,-775"/>
<text text-anchor="start" x="470.02" y="-780.4" font-family="Times,serif" font-size="14.00">dbprimary_acc</text>
<polygon fill="white" stroke="transparent" points="468.5,-753 468.5,-773 555.5,-773 555.5,-753 468.5,-753"/>
<text text-anchor="start" x="474.67" y="-758.4" font-family="Times,serif" font-size="14.00">display_label</text>
<polygon fill="white" stroke="transparent" points="468.5,-731 468.5,-751 555.5,-751 555.5,-731 468.5,-731"/>
<text text-anchor="start" x="491.39" y="-736.4" font-family="Times,serif" font-size="14.00">version</text>
<polygon fill="white" stroke="transparent" points="468.5,-709 468.5,-729 555.5,-729 555.5,-709 468.5,-709"/>
<text text-anchor="start" x="480.9" y="-714.4" font-family="Times,serif" font-size="14.00">description</text>
<polygon fill="white" stroke="transparent" points="468.5,-687 468.5,-707 555.5,-707 555.5,-687 468.5,-687"/>
<text text-anchor="start" x="485.17" y="-692.4" font-family="Times,serif" font-size="14.00">info_type</text>
<polygon fill="white" stroke="transparent" points="468.5,-665 468.5,-685 555.5,-685 555.5,-665 468.5,-665"/>
<text text-anchor="start" x="486.73" y="-670.4" font-family="Times,serif" font-size="14.00">info_text</text>
<polygon fill="black" stroke="black" points="466.5,-840 466.5,-840 557.5,-840 557.5,-840 466.5,-840"/>
</g>
<!-- associated_xref&#45;&gt;xref -->
<g id="edge3" class="edge">
<title>associated_xref:e&#45;&gt;xref:w</title>
<path fill="none" stroke="black" stroke-dasharray="5,2" d="M170.5,-1622C267.4,-1622 320.2,-1676.22 388,-1607 444.59,-1549.23 392.8,-955.02 423,-880 432.83,-855.58 436.5,-834.85 457.41,-830.05"/>
<polygon fill="black" stroke="black" points="457.91,-833.51 467.5,-829 457.19,-826.55 457.91,-833.51"/>
</g>
<!-- biotype -->
<g id="node3" class="node">
<title>biotype</title>
<path fill="#1e90ff" stroke="black" d="M144.5,-1500.5C144.5,-1500.5 50.5,-1500.5 50.5,-1500.5 44.5,-1500.5 38.5,-1494.5 38.5,-1488.5 38.5,-1488.5 38.5,-1279.5 38.5,-1279.5 38.5,-1273.5 44.5,-1267.5 50.5,-1267.5 50.5,-1267.5 144.5,-1267.5 144.5,-1267.5 150.5,-1267.5 156.5,-1273.5 156.5,-1279.5 156.5,-1279.5 156.5,-1488.5 156.5,-1488.5 156.5,-1494.5 150.5,-1500.5 144.5,-1500.5"/>
<text text-anchor="start" x="73.5" y="-1477.6" font-family="Times,serif" font-size="16.00">biotype</text>
<polygon fill="white" stroke="transparent" points="48.5,-1449 48.5,-1469 146.5,-1469 146.5,-1449 48.5,-1449"/>
<text text-anchor="start" x="50.45" y="-1455.4" font-family="Times,serif" font-weight="bold" font-size="14.00">PK</text>
<text text-anchor="start" x="68.34" y="-1455.4" font-family="Times,serif" font-size="14.00">  biotype_id</text>
<polygon fill="white" stroke="transparent" points="48.5,-1427 48.5,-1447 146.5,-1447 146.5,-1427 48.5,-1427"/>
<text text-anchor="start" x="82.34" y="-1432.4" font-family="Times,serif" font-size="14.00">name</text>
<polygon fill="white" stroke="transparent" points="48.5,-1405 48.5,-1425 146.5,-1425 146.5,-1405 48.5,-1405"/>
<text text-anchor="start" x="64.84" y="-1410.4" font-family="Times,serif" font-size="14.00">object_type</text>
<polygon fill="white" stroke="transparent" points="48.5,-1383 48.5,-1403 146.5,-1403 146.5,-1383 48.5,-1383"/>
<text text-anchor="start" x="74.95" y="-1388.4" font-family="Times,serif" font-size="14.00">db_type</text>
<polygon fill="white" stroke="transparent" points="48.5,-1361 48.5,-1381 146.5,-1381 146.5,-1361 48.5,-1361"/>
<text text-anchor="start" x="58.23" y="-1366.4" font-family="Times,serif" font-size="14.00">attrib_type_id</text>
<polygon fill="white" stroke="transparent" points="48.5,-1339 48.5,-1359 146.5,-1359 146.5,-1339 48.5,-1339"/>
<text text-anchor="start" x="66.4" y="-1344.4" font-family="Times,serif" font-size="14.00">description</text>
<polygon fill="white" stroke="transparent" points="48.5,-1317 48.5,-1337 146.5,-1337 146.5,-1317 48.5,-1317"/>
<text text-anchor="start" x="56.67" y="-1322.4" font-family="Times,serif" font-size="14.00">biotype_group</text>
<polygon fill="white" stroke="transparent" points="48.5,-1295 48.5,-1315 146.5,-1315 146.5,-1295 48.5,-1295"/>
<text text-anchor="start" x="78.46" y="-1300.4" font-family="Times,serif" font-size="14.00">so_acc</text>
<polygon fill="white" stroke="transparent" points="48.5,-1273 48.5,-1293 146.5,-1293 146.5,-1273 48.5,-1273"/>
<text text-anchor="start" x="74.95" y="-1278.4" font-family="Times,serif" font-size="14.00">so_term</text>
<polygon fill="black" stroke="black" points="46.5,-1470 46.5,-1470 148.5,-1470 148.5,-1470 46.5,-1470"/>
</g>
<!-- dependent_xref -->
<g id="node4" class="node">
<title>dependent_xref</title>
<path fill="#1e90ff" stroke="black" d="M155,-1249.5C155,-1249.5 40,-1249.5 40,-1249.5 34,-1249.5 28,-1243.5 28,-1237.5 28,-1237.5 28,-1160.5 28,-1160.5 28,-1154.5 34,-1148.5 40,-1148.5 40,-1148.5 155,-1148.5 155,-1148.5 161,-1148.5 167,-1154.5 167,-1160.5 167,-1160.5 167,-1237.5 167,-1237.5 167,-1243.5 161,-1249.5 155,-1249.5"/>
<text text-anchor="start" x="48.25" y="-1226.6" font-family="Times,serif" font-size="16.00">dependent_xref</text>
<polygon fill="white" stroke="transparent" points="38.5,-1198 38.5,-1218 157.5,-1218 157.5,-1198 38.5,-1198"/>
<text text-anchor="start" x="40.08" y="-1204.4" font-family="Times,serif" font-weight="bold" font-size="14.00">PK</text>
<text text-anchor="start" x="57.97" y="-1204.4" font-family="Times,serif" font-size="14.00">  object_xref_id</text>
<polygon fill="white" stroke="transparent" points="38.5,-1176 38.5,-1196 157.5,-1196 157.5,-1176 38.5,-1176"/>
<text text-anchor="start" x="55.63" y="-1181.4" font-family="Times,serif" font-size="14.00">master_xref_id</text>
<polygon fill="white" stroke="transparent" points="38.5,-1154 38.5,-1174 157.5,-1174 157.5,-1154 38.5,-1154"/>
<text text-anchor="start" x="45.52" y="-1159.4" font-family="Times,serif" font-size="14.00">dependent_xref_id</text>
<polygon fill="black" stroke="black" points="36.5,-1219 36.5,-1219 159.5,-1219 159.5,-1219 36.5,-1219"/>
</g>
<!-- dependent_xref&#45;&gt;object_xref -->
<g id="edge4" class="edge">
<title>dependent_xref:e&#45;&gt;object_xref:w</title>
<path fill="none" stroke="black" stroke-dasharray="5,2" d="M158.5,-1208C298.55,-1208 106.06,-910.69 229.22,-895.6"/>
<polygon fill="black" stroke="black" points="229.72,-899.07 239.5,-895 229.31,-892.08 229.72,-899.07"/>
</g>
<!-- dependent_xref&#45;&gt;xref -->
<g id="edge5" class="edge">
<title>dependent_xref:e&#45;&gt;xref:w</title>
<path fill="none" stroke="black" stroke-dasharray="5,2" d="M158.5,-1186C278.68,-1186 318.9,-1141.33 388,-1043 444.28,-962.9 371.51,-838.15 457.46,-829.48"/>
<polygon fill="black" stroke="black" points="457.68,-832.97 467.5,-829 457.34,-825.98 457.68,-832.97"/>
</g>
<!-- external_db -->
<g id="node5" class="node">
<title>external_db</title>
<path fill="#1e90ff" stroke="black" d="M783.5,-914.5C783.5,-914.5 665.5,-914.5 665.5,-914.5 659.5,-914.5 653.5,-908.5 653.5,-902.5 653.5,-902.5 653.5,-671.5 653.5,-671.5 653.5,-665.5 659.5,-659.5 665.5,-659.5 665.5,-659.5 783.5,-659.5 783.5,-659.5 789.5,-659.5 795.5,-665.5 795.5,-671.5 795.5,-671.5 795.5,-902.5 795.5,-902.5 795.5,-908.5 789.5,-914.5 783.5,-914.5"/>
<text text-anchor="start" x="686.74" y="-891.6" font-family="Times,serif" font-size="16.00">external_db</text>
<polygon fill="white" stroke="transparent" points="663.5,-863 663.5,-883 785.5,-883 785.5,-863 663.5,-863"/>
<text text-anchor="start" x="665.41" y="-869.4" font-family="Times,serif" font-weight="bold" font-size="14.00">PK</text>
<text text-anchor="start" x="683.3" y="-869.4" font-family="Times,serif" font-size="14.00">  external_db_id</text>
<polygon fill="white" stroke="transparent" points="663.5,-841 663.5,-861 785.5,-861 785.5,-841 663.5,-841"/>
<text text-anchor="start" x="698.84" y="-846.4" font-family="Times,serif" font-size="14.00">db_name</text>
<polygon fill="white" stroke="transparent" points="663.5,-819 663.5,-839 785.5,-839 785.5,-819 663.5,-819"/>
<text text-anchor="start" x="694.57" y="-824.4" font-family="Times,serif" font-size="14.00">db_release</text>
<polygon fill="white" stroke="transparent" points="663.5,-797 663.5,-817 785.5,-817 785.5,-797 663.5,-797"/>
<text text-anchor="start" x="708.56" y="-802.4" font-family="Times,serif" font-size="14.00">status</text>
<polygon fill="white" stroke="transparent" points="663.5,-775 663.5,-795 785.5,-795 785.5,-775 663.5,-775"/>
<text text-anchor="start" x="703.5" y="-780.4" font-family="Times,serif" font-size="14.00">priority</text>
<polygon fill="white" stroke="transparent" points="663.5,-753 663.5,-773 785.5,-773 785.5,-753 663.5,-753"/>
<text text-anchor="start" x="675.12" y="-758.4" font-family="Times,serif" font-size="14.00">db_display_name</text>
<polygon fill="white" stroke="transparent" points="663.5,-731 663.5,-751 785.5,-751 785.5,-731 663.5,-731"/>
<text text-anchor="start" x="712.45" y="-736.4" font-family="Times,serif" font-size="14.00">type</text>
<polygon fill="white" stroke="transparent" points="663.5,-709 663.5,-729 785.5,-729 785.5,-709 663.5,-709"/>
<text text-anchor="start" x="666.97" y="-714.4" font-family="Times,serif" font-size="14.00">secondary_db_name</text>
<polygon fill="white" stroke="transparent" points="663.5,-687 663.5,-707 785.5,-707 785.5,-687 663.5,-687"/>
<text text-anchor="start" x="668.52" y="-692.4" font-family="Times,serif" font-size="14.00">secondary_db_table</text>
<polygon fill="white" stroke="transparent" points="663.5,-665 663.5,-685 785.5,-685 785.5,-665 663.5,-665"/>
<text text-anchor="start" x="693.4" y="-670.4" font-family="Times,serif" font-size="14.00">description</text>
<polygon fill="black" stroke="black" points="661.5,-884 661.5,-884 787.5,-884 787.5,-884 661.5,-884"/>
</g>
<!-- external_synonym -->
<g id="node6" class="node">
<title>external_synonym</title>
<path fill="#1e90ff" stroke="black" d="M360.5,-1033.5C360.5,-1033.5 242.5,-1033.5 242.5,-1033.5 236.5,-1033.5 230.5,-1027.5 230.5,-1021.5 230.5,-1021.5 230.5,-966.5 230.5,-966.5 230.5,-960.5 236.5,-954.5 242.5,-954.5 242.5,-954.5 360.5,-954.5 360.5,-954.5 366.5,-954.5 372.5,-960.5 372.5,-966.5 372.5,-966.5 372.5,-1021.5 372.5,-1021.5 372.5,-1027.5 366.5,-1033.5 360.5,-1033.5"/>
<text text-anchor="start" x="242.4" y="-1010.6" font-family="Times,serif" font-size="16.00">external_synonym</text>
<polygon fill="white" stroke="transparent" points="240.5,-982 240.5,-1002 362.5,-1002 362.5,-982 240.5,-982"/>
<text text-anchor="start" x="264.18" y="-988.4" font-family="Times,serif" font-weight="bold" font-size="14.00">PK</text>
<text text-anchor="start" x="282.07" y="-988.4" font-family="Times,serif" font-size="14.00">  xref_id</text>
<polygon fill="white" stroke="transparent" points="240.5,-960 240.5,-980 362.5,-980 362.5,-960 240.5,-960"/>
<text text-anchor="start" x="258.73" y="-966.4" font-family="Times,serif" font-weight="bold" font-size="14.00">PK</text>
<text text-anchor="start" x="276.62" y="-966.4" font-family="Times,serif" font-size="14.00">  synonym</text>
<polygon fill="black" stroke="black" points="238.5,-1003 238.5,-1003 364.5,-1003 364.5,-1003 238.5,-1003"/>
</g>
<!-- external_synonym&#45;&gt;xref -->
<g id="edge7" class="edge">
<title>external_synonym:e&#45;&gt;xref:w</title>
<path fill="none" stroke="black" stroke-dasharray="5,2" d="M363.5,-992C445.74,-992 387.11,-842.71 457.25,-829.88"/>
<polygon fill="black" stroke="black" points="457.83,-833.34 467.5,-829 457.24,-826.37 457.83,-833.34"/>
</g>
<!-- identity_xref -->
<g id="node7" class="node">
<title>identity_xref</title>
<path fill="#1e90ff" stroke="black" d="M155,-1130.5C155,-1130.5 40,-1130.5 40,-1130.5 34,-1130.5 28,-1124.5 28,-1118.5 28,-1118.5 28,-887.5 28,-887.5 28,-881.5 34,-875.5 40,-875.5 40,-875.5 155,-875.5 155,-875.5 161,-875.5 167,-881.5 167,-887.5 167,-887.5 167,-1118.5 167,-1118.5 167,-1124.5 161,-1130.5 155,-1130.5"/>
<text text-anchor="start" x="56.68" y="-1107.6" font-family="Times,serif" font-size="16.00">identity_xref</text>
<polygon fill="white" stroke="transparent" points="38.5,-1079 38.5,-1099 157.5,-1099 157.5,-1079 38.5,-1079"/>
<text text-anchor="start" x="40.08" y="-1085.4" font-family="Times,serif" font-weight="bold" font-size="14.00">PK</text>
<text text-anchor="start" x="57.97" y="-1085.4" font-family="Times,serif" font-size="14.00">  object_xref_id</text>
<polygon fill="white" stroke="transparent" points="38.5,-1057 38.5,-1077 157.5,-1077 157.5,-1057 38.5,-1057"/>
<text text-anchor="start" x="61.84" y="-1062.4" font-family="Times,serif" font-size="14.00">xref_identity</text>
<polygon fill="white" stroke="transparent" points="38.5,-1035 38.5,-1055 157.5,-1055 157.5,-1035 38.5,-1035"/>
<text text-anchor="start" x="49.78" y="-1040.4" font-family="Times,serif" font-size="14.00">ensembl_identity</text>
<polygon fill="white" stroke="transparent" points="38.5,-1013 38.5,-1033 157.5,-1033 157.5,-1013 38.5,-1013"/>
<text text-anchor="start" x="71.18" y="-1018.4" font-family="Times,serif" font-size="14.00">xref_start</text>
<polygon fill="white" stroke="transparent" points="38.5,-991 38.5,-1011 157.5,-1011 157.5,-991 38.5,-991"/>
<text text-anchor="start" x="73.12" y="-996.4" font-family="Times,serif" font-size="14.00">xref_end</text>
<polygon fill="white" stroke="transparent" points="38.5,-969 38.5,-989 157.5,-989 157.5,-969 38.5,-969"/>
<text text-anchor="start" x="59.12" y="-974.4" font-family="Times,serif" font-size="14.00">ensembl_start</text>
<polygon fill="white" stroke="transparent" points="38.5,-947 38.5,-967 157.5,-967 157.5,-947 38.5,-947"/>
<text text-anchor="start" x="61.07" y="-952.4" font-family="Times,serif" font-size="14.00">ensembl_end</text>
<polygon fill="white" stroke="transparent" points="38.5,-925 38.5,-945 157.5,-945 157.5,-925 38.5,-925"/>
<text text-anchor="start" x="70.01" y="-930.4" font-family="Times,serif" font-size="14.00">cigar_line</text>
<polygon fill="white" stroke="transparent" points="38.5,-903 38.5,-923 157.5,-923 157.5,-903 38.5,-903"/>
<text text-anchor="start" x="83.23" y="-908.4" font-family="Times,serif" font-size="14.00">score</text>
<polygon fill="white" stroke="transparent" points="38.5,-881 38.5,-901 157.5,-901 157.5,-881 38.5,-881"/>
<text text-anchor="start" x="79.73" y="-886.4" font-family="Times,serif" font-size="14.00">evalue</text>
<polygon fill="black" stroke="black" points="36.5,-1100 36.5,-1100 159.5,-1100 159.5,-1100 36.5,-1100"/>
</g>
<!-- identity_xref&#45;&gt;object_xref -->
<g id="edge9" class="edge">
<title>identity_xref:e&#45;&gt;object_xref:w</title>
<path fill="none" stroke="black" stroke-dasharray="5,2" d="M158.5,-1089C248.29,-1089 154.03,-909.86 229.44,-895.86"/>
<polygon fill="black" stroke="black" points="229.84,-899.34 239.5,-895 229.24,-892.37 229.84,-899.34"/>
</g>
<!-- interpro -->
<g id="node8" class="node">
<title>interpro</title>
<path fill="#1e90ff" stroke="black" d="M129,-857.5C129,-857.5 66,-857.5 66,-857.5 60,-857.5 54,-851.5 54,-845.5 54,-845.5 54,-790.5 54,-790.5 54,-784.5 60,-778.5 66,-778.5 66,-778.5 129,-778.5 129,-778.5 135,-778.5 141,-784.5 141,-790.5 141,-790.5 141,-845.5 141,-845.5 141,-851.5 135,-857.5 129,-857.5"/>
<text text-anchor="start" x="72.68" y="-834.6" font-family="Times,serif" font-size="16.00">interpro</text>
<polygon fill="white" stroke="transparent" points="64.5,-806 64.5,-826 131.5,-826 131.5,-806 64.5,-806"/>
<text text-anchor="start" x="66.13" y="-811.4" font-family="Times,serif" font-size="14.00">interpro_ac</text>
<polygon fill="white" stroke="transparent" points="64.5,-784 64.5,-804 131.5,-804 131.5,-784 64.5,-784"/>
<text text-anchor="start" x="92.55" y="-789.4" font-family="Times,serif" font-size="14.00">id</text>
<polygon fill="black" stroke="black" points="62.5,-827 62.5,-827 133.5,-827 133.5,-827 62.5,-827"/>
</g>
<!-- object_xref&#45;&gt;xref -->
<g id="edge11" class="edge">
<title>object_xref:e&#45;&gt;xref:w</title>
<path fill="none" stroke="black" stroke-dasharray="5,2" d="M363.5,-829C406.11,-829 419.26,-829 457.27,-829"/>
<polygon fill="black" stroke="black" points="457.5,-832.5 467.5,-829 457.5,-825.5 457.5,-832.5"/>
</g>
<!-- analysis -->
<g id="node14" class="node">
<title>analysis</title>
<path fill="#808000" stroke="black" d="M560,-126.5C560,-126.5 463,-126.5 463,-126.5 457,-126.5 451,-120.5 451,-114.5 451,-114.5 451,-59.5 451,-59.5 451,-53.5 457,-47.5 463,-47.5 463,-47.5 560,-47.5 560,-47.5 566,-47.5 572,-53.5 572,-59.5 572,-59.5 572,-114.5 572,-114.5 572,-120.5 566,-126.5 560,-126.5"/>
<text text-anchor="start" x="486.23" y="-103.6" font-family="Times,serif" font-size="16.00">analysis</text>
<polygon fill="white" stroke="transparent" points="461.5,-75 461.5,-95 562.5,-95 562.5,-75 461.5,-75"/>
<text text-anchor="start" x="463.4" y="-81.4" font-family="Times,serif" font-weight="bold" font-size="14.00">PK</text>
<text text-anchor="start" x="481.29" y="-81.4" font-family="Times,serif" font-size="14.00">  analysis_id</text>
<polygon fill="white" stroke="transparent" points="461.5,-53 461.5,-73 562.5,-73 562.5,-53 461.5,-53"/>
<text text-anchor="start" x="506.75" y="-59.4" font-family="Times,serif" font-style="italic" font-size="14.00">...</text>
<polygon fill="black" stroke="black" points="459.5,-96 459.5,-96 564.5,-96 564.5,-96 459.5,-96"/>
</g>
<!-- object_xref&#45;&gt;analysis -->
<g id="edge10" class="edge">
<title>object_xref:e&#45;&gt;analysis:w</title>
<path fill="none" stroke="black" stroke-dasharray="5,2" d="M363.5,-785C436.02,-785 396.95,-202.68 423,-135 431.57,-112.72 432.59,-91.81 450.34,-86.37"/>
<polygon fill="black" stroke="black" points="451.06,-89.8 460.5,-85 450.12,-82.86 451.06,-89.8"/>
</g>
<!-- ontology_xref -->
<g id="node10" class="node">
<title>ontology_xref</title>
<path fill="#1e90ff" stroke="black" d="M142.5,-760.5C142.5,-760.5 52.5,-760.5 52.5,-760.5 46.5,-760.5 40.5,-754.5 40.5,-748.5 40.5,-748.5 40.5,-671.5 40.5,-671.5 40.5,-665.5 46.5,-659.5 52.5,-659.5 52.5,-659.5 142.5,-659.5 142.5,-659.5 148.5,-659.5 154.5,-665.5 154.5,-671.5 154.5,-671.5 154.5,-748.5 154.5,-748.5 154.5,-754.5 148.5,-760.5 142.5,-760.5"/>
<text text-anchor="start" x="52.18" y="-737.6" font-family="Times,serif" font-size="16.00">ontology_xref</text>
<polygon fill="white" stroke="transparent" points="50.5,-709 50.5,-729 144.5,-729 144.5,-709 50.5,-709"/>
<text text-anchor="start" x="56.68" y="-714.4" font-family="Times,serif" font-size="14.00">object_xref_id</text>
<polygon fill="white" stroke="transparent" points="50.5,-687 50.5,-707 144.5,-707 144.5,-687 50.5,-687"/>
<text text-anchor="start" x="55.52" y="-692.4" font-family="Times,serif" font-size="14.00">source_xref_id</text>
<polygon fill="white" stroke="transparent" points="50.5,-665 50.5,-685 144.5,-685 144.5,-665 50.5,-665"/>
<text text-anchor="start" x="61.34" y="-670.4" font-family="Times,serif" font-size="14.00">linkage_type</text>
<polygon fill="black" stroke="black" points="48.5,-730 48.5,-730 146.5,-730 146.5,-730 48.5,-730"/>
</g>
<!-- ontology_xref&#45;&gt;object_xref -->
<g id="edge12" class="edge">
<title>ontology_xref:e&#45;&gt;object_xref:w</title>
<path fill="none" stroke="black" stroke-dasharray="5,2" d="M145.5,-719C230.54,-719 157.37,-880.86 229.43,-894.14"/>
<polygon fill="black" stroke="black" points="229.24,-897.63 239.5,-895 229.84,-890.66 229.24,-897.63"/>
</g>
<!-- ontology_xref&#45;&gt;xref -->
<g id="edge13" class="edge">
<title>ontology_xref:e&#45;&gt;xref:w</title>
<path fill="none" stroke="black" stroke-dasharray="5,2" d="M145.5,-697C256.97,-697 289.27,-709.25 388,-761 425.8,-780.82 422.01,-821.55 457.1,-828.1"/>
<polygon fill="black" stroke="black" points="457.24,-831.63 467.5,-829 457.84,-824.65 457.24,-831.63"/>
</g>
<!-- unmapped_object -->
<g id="node11" class="node">
<title>unmapped_object</title>
<path fill="#1e90ff" stroke="black" d="M587,-1165.5C587,-1165.5 436,-1165.5 436,-1165.5 430,-1165.5 424,-1159.5 424,-1153.5 424,-1153.5 424,-900.5 424,-900.5 424,-894.5 430,-888.5 436,-888.5 436,-888.5 587,-888.5 587,-888.5 593,-888.5 599,-894.5 599,-900.5 599,-900.5 599,-1153.5 599,-1153.5 599,-1159.5 593,-1165.5 587,-1165.5"/>
<text text-anchor="start" x="455.13" y="-1142.6" font-family="Times,serif" font-size="16.00">unmapped_object</text>
<polygon fill="white" stroke="transparent" points="434.5,-1114 434.5,-1134 589.5,-1134 589.5,-1114 434.5,-1114"/>
<text text-anchor="start" x="436.18" y="-1120.4" font-family="Times,serif" font-weight="bold" font-size="14.00">PK</text>
<text text-anchor="start" x="454.07" y="-1120.4" font-family="Times,serif" font-size="14.00">  unmapped_object_id</text>
<polygon fill="white" stroke="transparent" points="434.5,-1092 434.5,-1112 589.5,-1112 589.5,-1092 434.5,-1092"/>
<text text-anchor="start" x="499.95" y="-1097.4" font-family="Times,serif" font-size="14.00">type</text>
<polygon fill="white" stroke="transparent" points="434.5,-1070 434.5,-1090 589.5,-1090 589.5,-1070 434.5,-1070"/>
<text text-anchor="start" x="480.5" y="-1075.4" font-family="Times,serif" font-size="14.00">analysis_id</text>
<polygon fill="white" stroke="transparent" points="434.5,-1048 434.5,-1068 589.5,-1068 589.5,-1048 434.5,-1048"/>
<text text-anchor="start" x="470.01" y="-1053.4" font-family="Times,serif" font-size="14.00">external_db_id</text>
<polygon fill="white" stroke="transparent" points="434.5,-1026 434.5,-1046 589.5,-1046 589.5,-1026 434.5,-1026"/>
<text text-anchor="start" x="486.34" y="-1031.4" font-family="Times,serif" font-size="14.00">identifier</text>
<polygon fill="white" stroke="transparent" points="434.5,-1004 434.5,-1024 589.5,-1024 589.5,-1004 434.5,-1004"/>
<text text-anchor="start" x="452.13" y="-1009.4" font-family="Times,serif" font-size="14.00">unmapped_reason_id</text>
<polygon fill="white" stroke="transparent" points="434.5,-982 434.5,-1002 589.5,-1002 589.5,-982 434.5,-982"/>
<text text-anchor="start" x="477.8" y="-987.4" font-family="Times,serif" font-size="14.00">query_score</text>
<polygon fill="white" stroke="transparent" points="434.5,-960 434.5,-980 589.5,-980 589.5,-960 434.5,-960"/>
<text text-anchor="start" x="477.8" y="-965.4" font-family="Times,serif" font-size="14.00">target_score</text>
<polygon fill="white" stroke="transparent" points="434.5,-938 434.5,-958 589.5,-958 589.5,-938 434.5,-938"/>
<text text-anchor="start" x="479.73" y="-943.4" font-family="Times,serif" font-size="14.00">ensembl_id</text>
<polygon fill="white" stroke="transparent" points="434.5,-916 434.5,-936 589.5,-936 589.5,-916 434.5,-916"/>
<text text-anchor="start" x="452.51" y="-921.4" font-family="Times,serif" font-size="14.00">ensembl_object_type</text>
<polygon fill="white" stroke="transparent" points="434.5,-894 434.5,-914 589.5,-914 589.5,-894 434.5,-894"/>
<text text-anchor="start" x="494.51" y="-899.4" font-family="Times,serif" font-size="14.00">parent</text>
<polygon fill="black" stroke="black" points="432.5,-1135 432.5,-1135 591.5,-1135 591.5,-1135 432.5,-1135"/>
</g>
<!-- unmapped_object&#45;&gt;external_db -->
<g id="edge17" class="edge">
<title>unmapped_object:e&#45;&gt;external_db:w</title>
<path fill="none" stroke="black" stroke-dasharray="5,2" d="M590.5,-1058C674.94,-1058 582.89,-888.56 652.16,-874"/>
<polygon fill="black" stroke="black" points="652.88,-877.44 662.5,-873 652.21,-870.47 652.88,-877.44"/>
</g>
<!-- unmapped_reason -->
<g id="node12" class="node">
<title>unmapped_reason</title>
<path fill="#1e90ff" stroke="black" d="M801,-1055.5C801,-1055.5 648,-1055.5 648,-1055.5 642,-1055.5 636,-1049.5 636,-1043.5 636,-1043.5 636,-966.5 636,-966.5 636,-960.5 642,-954.5 648,-954.5 648,-954.5 801,-954.5 801,-954.5 807,-954.5 813,-960.5 813,-966.5 813,-966.5 813,-1043.5 813,-1043.5 813,-1049.5 807,-1055.5 801,-1055.5"/>
<text text-anchor="start" x="666.8" y="-1032.6" font-family="Times,serif" font-size="16.00">unmapped_reason</text>
<polygon fill="white" stroke="transparent" points="646.5,-1004 646.5,-1024 803.5,-1024 803.5,-1004 646.5,-1004"/>
<text text-anchor="start" x="648.02" y="-1010.4" font-family="Times,serif" font-weight="bold" font-size="14.00">PK</text>
<text text-anchor="start" x="665.91" y="-1010.4" font-family="Times,serif" font-size="14.00">  unmapped_reason_id</text>
<polygon fill="white" stroke="transparent" points="646.5,-982 646.5,-1002 803.5,-1002 803.5,-982 646.5,-982"/>
<text text-anchor="start" x="664.35" y="-987.4" font-family="Times,serif" font-size="14.00">summary_description</text>
<polygon fill="white" stroke="transparent" points="646.5,-960 646.5,-980 803.5,-980 803.5,-960 646.5,-960"/>
<text text-anchor="start" x="680.68" y="-965.4" font-family="Times,serif" font-size="14.00">full_description</text>
<polygon fill="black" stroke="black" points="644.5,-1025 644.5,-1025 805.5,-1025 805.5,-1025 644.5,-1025"/>
</g>
<!-- unmapped_object&#45;&gt;unmapped_reason -->
<g id="edge18" class="edge">
<title>unmapped_object:e&#45;&gt;unmapped_reason:w</title>
<path fill="none" stroke="black" stroke-dasharray="5,2" d="M590.5,-1014C611.12,-1014 618.7,-1014 635.24,-1014"/>
<polygon fill="black" stroke="black" points="635.5,-1017.5 645.5,-1014 635.5,-1010.5 635.5,-1017.5"/>
</g>
<!-- unmapped_object&#45;&gt;analysis -->
<g id="edge16" class="edge">
<title>unmapped_object:e&#45;&gt;analysis:w</title>
<path fill="none" stroke="black" stroke-dasharray="5,2" d="M599,-1080C620.5,-1080 613.92,-901.98 599,-886.5 585.42,-872.41 441.93,-884.95 423,-880 414.54,-877.79 410.06,-878.47 405.5,-871 384.46,-836.52 390.7,-181.58 405.5,-144 417.3,-114.03 423.36,-90.29 450.46,-85.77"/>
<polygon fill="black" stroke="black" points="450.8,-89.26 460.5,-85 450.26,-82.28 450.8,-89.26"/>
</g>
<!-- xref&#45;&gt;external_db -->
<g id="edge19" class="edge">
<title>xref:e&#45;&gt;external_db:w</title>
<path fill="none" stroke="black" stroke-dasharray="5,2" d="M556.5,-807C608.42,-807 607.4,-864.77 652.49,-872.21"/>
<polygon fill="black" stroke="black" points="652.26,-875.71 662.5,-873 652.81,-868.73 652.26,-875.71"/>
</g>
<!-- dna_align_feature -->
<g id="node15" class="node">
<title>dna_align_feature</title>
<path fill="#808000" stroke="black" d="M569,-483.5C569,-483.5 454,-483.5 454,-483.5 448,-483.5 442,-477.5 442,-471.5 442,-471.5 442,-394.5 442,-394.5 442,-388.5 448,-382.5 454,-382.5 454,-382.5 569,-382.5 569,-382.5 575,-382.5 581,-388.5 581,-394.5 581,-394.5 581,-471.5 581,-471.5 581,-477.5 575,-483.5 569,-483.5"/>
<text text-anchor="start" x="454.25" y="-460.6" font-family="Times,serif" font-size="16.00">dna_align_feature</text>
<polygon fill="white" stroke="transparent" points="452.5,-432 452.5,-452 571.5,-452 571.5,-432 452.5,-432"/>
<text text-anchor="start" x="506.75" y="-438.4" font-family="Times,serif" font-style="italic" font-size="14.00">...</text>
<polygon fill="white" stroke="transparent" points="452.5,-410 452.5,-430 571.5,-430 571.5,-410 452.5,-410"/>
<text text-anchor="start" x="470.01" y="-415.4" font-family="Times,serif" font-size="14.00">external_db_id</text>
<polygon fill="white" stroke="transparent" points="452.5,-388 452.5,-408 571.5,-408 571.5,-388 452.5,-388"/>
<text text-anchor="start" x="506.75" y="-394.4" font-family="Times,serif" font-style="italic" font-size="14.00">...</text>
<polygon fill="black" stroke="black" points="450.5,-453 450.5,-453 573.5,-453 573.5,-453 450.5,-453"/>
</g>
<!-- dna_align_feature&#45;&gt;external_db -->
<g id="edge6" class="edge">
<title>dna_align_feature:e&#45;&gt;external_db:w</title>
<path fill="none" stroke="black" stroke-dasharray="5,2" d="M572.5,-420C671.53,-420 567.7,-841.71 652.46,-871.36"/>
<polygon fill="black" stroke="black" points="652.07,-874.84 662.5,-873 653.2,-867.93 652.07,-874.84"/>
</g>
<!-- gene -->
<g id="node16" class="node">
<title>gene</title>
<path fill="#808000" stroke="black" d="M555,-245.5C555,-245.5 468,-245.5 468,-245.5 462,-245.5 456,-239.5 456,-233.5 456,-233.5 456,-156.5 456,-156.5 456,-150.5 462,-144.5 468,-144.5 468,-144.5 555,-144.5 555,-144.5 561,-144.5 567,-150.5 567,-156.5 567,-156.5 567,-233.5 567,-233.5 567,-239.5 561,-245.5 555,-245.5"/>
<text text-anchor="start" x="496.9" y="-222.6" font-family="Times,serif" font-size="16.00">gene</text>
<polygon fill="white" stroke="transparent" points="466.5,-194 466.5,-214 557.5,-214 557.5,-194 466.5,-194"/>
<text text-anchor="start" x="506.75" y="-200.4" font-family="Times,serif" font-style="italic" font-size="14.00">...</text>
<polygon fill="white" stroke="transparent" points="466.5,-172 466.5,-192 557.5,-192 557.5,-172 466.5,-172"/>
<text text-anchor="start" x="468.07" y="-177.4" font-family="Times,serif" font-size="14.00">display_xref_id</text>
<polygon fill="white" stroke="transparent" points="466.5,-150 466.5,-170 557.5,-170 557.5,-150 466.5,-150"/>
<text text-anchor="start" x="506.75" y="-156.4" font-family="Times,serif" font-style="italic" font-size="14.00">...</text>
<polygon fill="black" stroke="black" points="464.5,-215 464.5,-215 559.5,-215 559.5,-215 464.5,-215"/>
</g>
<!-- gene&#45;&gt;xref -->
<g id="edge8" class="edge">
<title>gene:e&#45;&gt;xref:w</title>
<path fill="none" stroke="black" stroke-dasharray="5,2" d="M567,-182C595.22,-182 586.36,-224.96 567,-245.5 556.01,-257.16 438.46,-249.77 423,-254 414.56,-256.31 410.06,-255.53 405.5,-263 383.8,-298.57 398.99,-596.85 405.5,-638 418.88,-722.54 381.54,-820.59 457.16,-828.49"/>
<polygon fill="black" stroke="black" points="457.34,-832 467.5,-829 457.69,-825.01 457.34,-832"/>
</g>
<!-- protein_align_feature -->
<g id="node17" class="node">
<title>protein_align_feature</title>
<path fill="#808000" stroke="black" d="M580,-602.5C580,-602.5 443,-602.5 443,-602.5 437,-602.5 431,-596.5 431,-590.5 431,-590.5 431,-513.5 431,-513.5 431,-507.5 437,-501.5 443,-501.5 443,-501.5 580,-501.5 580,-501.5 586,-501.5 592,-507.5 592,-513.5 592,-513.5 592,-590.5 592,-590.5 592,-596.5 586,-602.5 580,-602.5"/>
<text text-anchor="start" x="443.14" y="-579.6" font-family="Times,serif" font-size="16.00">protein_align_feature</text>
<polygon fill="white" stroke="transparent" points="441.5,-551 441.5,-571 582.5,-571 582.5,-551 441.5,-551"/>
<text text-anchor="start" x="506.75" y="-557.4" font-family="Times,serif" font-style="italic" font-size="14.00">...</text>
<polygon fill="white" stroke="transparent" points="441.5,-529 441.5,-549 582.5,-549 582.5,-529 441.5,-529"/>
<text text-anchor="start" x="470.01" y="-534.4" font-family="Times,serif" font-size="14.00">external_db_id</text>
<polygon fill="white" stroke="transparent" points="441.5,-507 441.5,-527 582.5,-527 582.5,-507 441.5,-507"/>
<text text-anchor="start" x="506.75" y="-513.4" font-family="Times,serif" font-style="italic" font-size="14.00">...</text>
<polygon fill="black" stroke="black" points="439.5,-572 439.5,-572 584.5,-572 584.5,-572 439.5,-572"/>
</g>
<!-- protein_align_feature&#45;&gt;external_db -->
<g id="edge14" class="edge">
<title>protein_align_feature:e&#45;&gt;external_db:w</title>
<path fill="none" stroke="black" stroke-dasharray="5,2" d="M583.5,-539C732.47,-539 520.35,-857.53 652.39,-872.46"/>
<polygon fill="black" stroke="black" points="652.33,-875.96 662.5,-873 652.7,-868.97 652.33,-875.96"/>
</g>
<!-- transcript -->
<g id="node18" class="node">
<title>transcript</title>
<path fill="#808000" stroke="black" d="M555,-364.5C555,-364.5 468,-364.5 468,-364.5 462,-364.5 456,-358.5 456,-352.5 456,-352.5 456,-275.5 456,-275.5 456,-269.5 462,-263.5 468,-263.5 468,-263.5 555,-263.5 555,-263.5 561,-263.5 567,-269.5 567,-275.5 567,-275.5 567,-352.5 567,-352.5 567,-358.5 561,-364.5 555,-364.5"/>
<text text-anchor="start" x="481.79" y="-341.6" font-family="Times,serif" font-size="16.00">transcript</text>
<polygon fill="white" stroke="transparent" points="466.5,-313 466.5,-333 557.5,-333 557.5,-313 466.5,-313"/>
<text text-anchor="start" x="506.75" y="-319.4" font-family="Times,serif" font-style="italic" font-size="14.00">...</text>
<polygon fill="white" stroke="transparent" points="466.5,-291 466.5,-311 557.5,-311 557.5,-291 466.5,-291"/>
<text text-anchor="start" x="468.07" y="-296.4" font-family="Times,serif" font-size="14.00">display_xref_id</text>
<polygon fill="white" stroke="transparent" points="466.5,-269 466.5,-289 557.5,-289 557.5,-269 466.5,-269"/>
<text text-anchor="start" x="506.75" y="-275.4" font-family="Times,serif" font-style="italic" font-size="14.00">...</text>
<polygon fill="black" stroke="black" points="464.5,-334 464.5,-334 559.5,-334 559.5,-334 464.5,-334"/>
</g>
<!-- transcript&#45;&gt;xref -->
<g id="edge15" class="edge">
<title>transcript:e&#45;&gt;xref:w</title>
<path fill="none" stroke="black" stroke-dasharray="5,2" d="M567,-301C595.22,-301 586.36,-343.96 567,-364.5 556.01,-376.16 438.46,-368.77 423,-373 414.56,-375.31 410.06,-374.53 405.5,-382 375.87,-430.56 396.61,-581.81 405.5,-638 418.88,-722.54 381.54,-820.59 457.16,-828.49"/>
<polygon fill="black" stroke="black" points="457.34,-832 467.5,-829 457.69,-825.01 457.34,-832"/>
</g>
</g>
</svg>
