<?xml version="1.0" encoding="UTF-8" standalone="no"?>
<!DOCTYPE svg PUBLIC "-//W3C//DTD SVG 1.1//EN"
 "http://www.w3.org/Graphics/SVG/1.1/DTD/svg11.dtd">
<!-- Generated by graphviz version 8.0.1 (0)
 -->
<!-- Title: test Pages: 1 -->
<svg width="399pt" height="747pt"
 viewBox="0.00 0.00 399.00 747.00" xmlns="http://www.w3.org/2000/svg" xmlns:xlink="http://www.w3.org/1999/xlink">
<g id="graph0" class="graph" transform="scale(1 1) rotate(0) translate(4 743)">
<title>test</title>
<polygon fill="white" stroke="none" points="-4,4 -4,-743 395,-743 395,4 -4,4"/>
<text text-anchor="middle" x="195.5" y="-10" font-family="Times,serif" font-size="20.00">Core schema diagram: ID Mapping tables</text>
<g id="clust1" class="cluster">
<title>cluster_assembly_tables</title>
<polygon fill="white" stroke="white" points="218,-38 218,-160 370,-160 370,-38 218,-38"/>
<text text-anchor="middle" x="294" y="-140" font-family="Times,serif" font-size="20.00">Assembly Tables</text>
</g>
<g id="clust2" class="cluster">
<title>cluster_id_mapping</title>
<path fill="#ffe0e0" stroke="#ffe0e0" d="M20,-168C20,-168 371,-168 371,-168 377,-168 383,-174 383,-180 383,-180 383,-719 383,-719 383,-725 377,-731 371,-731 371,-731 20,-731 20,-731 14,-731 8,-725 8,-719 8,-719 8,-180 8,-180 8,-174 14,-168 20,-168"/>
<text text-anchor="middle" x="195.5" y="-711" font-family="Times,serif" font-size="20.00">ID Mapping</text>
</g>
<!-- gene_archive -->
<g id="node1" class="node">
<title>gene_archive</title>
<path fill="#ff6666" stroke="black" d="M152.5,-693C152.5,-693 39.5,-693 39.5,-693 33.5,-693 27.5,-687 27.5,-681 27.5,-681 27.5,-503 27.5,-503 27.5,-497 33.5,-491 39.5,-491 39.5,-491 152.5,-491 152.5,-491 158.5,-491 164.5,-497 164.5,-503 164.5,-503 164.5,-681 164.5,-681 164.5,-687 158.5,-693 152.5,-693"/>
<text text-anchor="start" x="54.5" y="-672.2" font-family="Times,serif" font-size="16.00">gene_archive</text>
<polygon fill="white" stroke="none" points="37.5,-644 37.5,-663 154.5,-663 154.5,-644 37.5,-644"/>
<text text-anchor="start" x="55" y="-649.8" font-family="Times,serif" font-size="14.00">gene_stable_id</text>
<polygon fill="white" stroke="none" points="37.5,-623 37.5,-642 154.5,-642 154.5,-623 37.5,-623"/>
<text text-anchor="start" x="59.5" y="-628.8" font-family="Times,serif" font-size="14.00">gene_version</text>
<polygon fill="white" stroke="none" points="37.5,-602 37.5,-621 154.5,-621 154.5,-602 37.5,-602"/>
<text text-anchor="start" x="42" y="-607.8" font-family="Times,serif" font-size="14.00">transcript_stable_id</text>
<polygon fill="white" stroke="none" points="37.5,-581 37.5,-600 154.5,-600 154.5,-581 37.5,-581"/>
<text text-anchor="start" x="46.5" y="-586.8" font-family="Times,serif" font-size="14.00">transcript_version</text>
<polygon fill="white" stroke="none" points="37.5,-560 37.5,-579 154.5,-579 154.5,-560 37.5,-560"/>
<text text-anchor="start" x="39.5" y="-565.8" font-family="Times,serif" font-size="14.00">translation_stable_id</text>
<polygon fill="white" stroke="none" points="37.5,-539 37.5,-558 154.5,-558 154.5,-539 37.5,-539"/>
<text text-anchor="start" x="44" y="-544.8" font-family="Times,serif" font-size="14.00">translation_version</text>
<polygon fill="white" stroke="none" points="37.5,-518 37.5,-537 154.5,-537 154.5,-518 37.5,-518"/>
<text text-anchor="start" x="44" y="-523.8" font-family="Times,serif" font-size="14.00">peptide_archive_id</text>
<polygon fill="white" stroke="none" points="37.5,-497 37.5,-516 154.5,-516 154.5,-497 37.5,-497"/>
<text text-anchor="start" x="40" y="-502.8" font-family="Times,serif" font-size="14.00">mapping_session_id</text>
<polygon fill="black" stroke="black" points="35.5,-664 35.5,-664 156.5,-664 156.5,-664 35.5,-664"/>
</g>
<!-- mapping_session -->
<g id="node2" class="node">
<title>mapping_session</title>
<path fill="#ff6666" stroke="black" d="M363,-494C363,-494 224,-494 224,-494 218,-494 212,-488 212,-482 212,-482 212,-304 212,-304 212,-298 218,-292 224,-292 224,-292 363,-292 363,-292 369,-292 375,-298 375,-304 375,-304 375,-482 375,-482 375,-488 369,-494 363,-494"/>
<text text-anchor="start" x="238" y="-473.2" font-family="Times,serif" font-size="16.00">mapping_session</text>
<polygon fill="white" stroke="none" points="222,-445 222,-464 365,-464 365,-445 222,-445"/>
<text text-anchor="start" x="224" y="-451.8" font-family="Times,serif" font-weight="bold" font-size="14.00">PK</text>
<text text-anchor="start" x="244" y="-451.8" font-family="Times,serif" font-size="14.00">  mapping_session_id</text>
<polygon fill="white" stroke="none" points="222,-424 222,-443 365,-443 365,-424 222,-424"/>
<text text-anchor="start" x="256" y="-429.8" font-family="Times,serif" font-size="14.00">old_db_name</text>
<polygon fill="white" stroke="none" points="222,-403 222,-422 365,-422 365,-403 222,-403"/>
<text text-anchor="start" x="253.5" y="-408.8" font-family="Times,serif" font-size="14.00">new_db_name</text>
<polygon fill="white" stroke="none" points="222,-382 222,-401 365,-401 365,-382 222,-382"/>
<text text-anchor="start" x="262.5" y="-387.8" font-family="Times,serif" font-size="14.00">old_release</text>
<polygon fill="white" stroke="none" points="222,-361 222,-380 365,-380 365,-361 222,-361"/>
<text text-anchor="start" x="260" y="-366.8" font-family="Times,serif" font-size="14.00">new_release</text>
<polygon fill="white" stroke="none" points="222,-340 222,-359 365,-359 365,-340 222,-340"/>
<text text-anchor="start" x="255.5" y="-345.8" font-family="Times,serif" font-size="14.00">old_assembly</text>
<polygon fill="white" stroke="none" points="222,-319 222,-338 365,-338 365,-319 222,-319"/>
<text text-anchor="start" x="253" y="-324.8" font-family="Times,serif" font-size="14.00">new_assembly</text>
<polygon fill="white" stroke="none" points="222,-298 222,-317 365,-317 365,-298 222,-298"/>
<text text-anchor="start" x="273.5" y="-303.8" font-family="Times,serif" font-size="14.00">created</text>
<polygon fill="black" stroke="black" points="220,-465 220,-465 367,-465 367,-465 220,-465"/>
</g>
<!-- gene_archive&#45;&gt;mapping_session -->
<g id="edge1" class="edge">
<title>gene_archive:e&#45;&gt;mapping_session:w</title>
<path fill="none" stroke="black" stroke-dasharray="5,2" d="M156,-506C188.41,-506 185.32,-465.9 209.69,-456.82"/>
<polygon fill="black" stroke="black" points="210.22,-460.11 219.5,-455 209.06,-453.2 210.22,-460.11"/>
</g>
<!-- peptide_archive -->
<g id="node4" class="node">
<title>peptide_archive</title>
<path fill="#ff6666" stroke="black" d="M359.5,-609.5C359.5,-609.5 227.5,-609.5 227.5,-609.5 221.5,-609.5 215.5,-603.5 215.5,-597.5 215.5,-597.5 215.5,-524.5 215.5,-524.5 215.5,-518.5 221.5,-512.5 227.5,-512.5 227.5,-512.5 359.5,-512.5 359.5,-512.5 365.5,-512.5 371.5,-518.5 371.5,-524.5 371.5,-524.5 371.5,-597.5 371.5,-597.5 371.5,-603.5 365.5,-609.5 359.5,-609.5"/>
<text text-anchor="start" x="243" y="-588.7" font-family="Times,serif" font-size="16.00">peptide_archive</text>
<polygon fill="white" stroke="none" points="225.5,-560.5 225.5,-579.5 361.5,-579.5 361.5,-560.5 225.5,-560.5"/>
<text text-anchor="start" x="227.5" y="-567.3" font-family="Times,serif" font-weight="bold" font-size="14.00">PK</text>
<text text-anchor="start" x="247.5" y="-567.3" font-family="Times,serif" font-size="14.00">  peptide_archive_id</text>
<polygon fill="white" stroke="none" points="225.5,-539.5 225.5,-558.5 361.5,-558.5 361.5,-539.5 225.5,-539.5"/>
<text text-anchor="start" x="250" y="-545.3" font-family="Times,serif" font-size="14.00">md5_checksum</text>
<polygon fill="white" stroke="none" points="225.5,-518.5 225.5,-537.5 361.5,-537.5 361.5,-518.5 225.5,-518.5"/>
<text text-anchor="start" x="261" y="-524.3" font-family="Times,serif" font-size="14.00">peptide_seq</text>
<polygon fill="black" stroke="black" points="223.5,-580.5 223.5,-580.5 363.5,-580.5 363.5,-580.5 223.5,-580.5"/>
</g>
<!-- gene_archive&#45;&gt;peptide_archive -->
<g id="edge2" class="edge">
<title>gene_archive:e&#45;&gt;peptide_archive:w</title>
<path fill="none" stroke="black" stroke-dasharray="5,2" d="M156,-527C187.87,-527 188.82,-560.81 213.68,-568.47"/>
<polygon fill="black" stroke="black" points="213.11,-572.06 223.5,-570 214.09,-565.13 213.11,-572.06"/>
</g>
<!-- mapping_set -->
<g id="node3" class="node">
<title>mapping_set</title>
<path fill="#ff6666" stroke="black" d="M357,-273.5C357,-273.5 230,-273.5 230,-273.5 224,-273.5 218,-267.5 218,-261.5 218,-261.5 218,-188.5 218,-188.5 218,-182.5 224,-176.5 230,-176.5 230,-176.5 357,-176.5 357,-176.5 363,-176.5 369,-182.5 369,-188.5 369,-188.5 369,-261.5 369,-261.5 369,-267.5 363,-273.5 357,-273.5"/>
<text text-anchor="start" x="252.5" y="-252.7" font-family="Times,serif" font-size="16.00">mapping_set</text>
<polygon fill="white" stroke="none" points="228,-224.5 228,-243.5 359,-243.5 359,-224.5 228,-224.5"/>
<text text-anchor="start" x="236" y="-231.3" font-family="Times,serif" font-weight="bold" font-size="14.00">PK</text>
<text text-anchor="start" x="256" y="-231.3" font-family="Times,serif" font-size="14.00">  mapping_set_id</text>
<polygon fill="white" stroke="none" points="228,-203.5 228,-222.5 359,-222.5 359,-203.5 228,-203.5"/>
<text text-anchor="start" x="231" y="-209.3" font-family="Times,serif" font-size="14.00">internal_schema_build</text>
<polygon fill="white" stroke="none" points="228,-182.5 228,-201.5 359,-201.5 359,-182.5 228,-182.5"/>
<text text-anchor="start" x="230" y="-188.3" font-family="Times,serif" font-size="14.00">external_schema_build</text>
<polygon fill="black" stroke="black" points="226,-244.5 226,-244.5 361,-244.5 361,-244.5 226,-244.5"/>
</g>
<!-- seq_region_mapping -->
<g id="node5" class="node">
<title>seq_region_mapping</title>
<path fill="#ff6666" stroke="black" d="M164,-273.5C164,-273.5 28,-273.5 28,-273.5 22,-273.5 16,-267.5 16,-261.5 16,-261.5 16,-188.5 16,-188.5 16,-182.5 22,-176.5 28,-176.5 28,-176.5 164,-176.5 164,-176.5 170,-176.5 176,-182.5 176,-188.5 176,-188.5 176,-261.5 176,-261.5 176,-267.5 170,-273.5 164,-273.5"/>
<text text-anchor="start" x="28" y="-252.7" font-family="Times,serif" font-size="16.00">seq_region_mapping</text>
<polygon fill="white" stroke="none" points="26,-224.5 26,-243.5 166,-243.5 166,-224.5 26,-224.5"/>
<text text-anchor="start" x="32" y="-230.3" font-family="Times,serif" font-size="14.00">external_seq_region_id</text>
<polygon fill="white" stroke="none" points="26,-203.5 26,-222.5 166,-222.5 166,-203.5 26,-203.5"/>
<text text-anchor="start" x="33" y="-209.3" font-family="Times,serif" font-size="14.00">internal_seq_region_id</text>
<polygon fill="white" stroke="none" points="26,-182.5 26,-201.5 166,-201.5 166,-182.5 26,-182.5"/>
<text text-anchor="start" x="52" y="-188.3" font-family="Times,serif" font-size="14.00">mapping_set_id</text>
<polygon fill="black" stroke="black" points="24,-244.5 24,-244.5 168,-244.5 168,-244.5 24,-244.5"/>
</g>
<!-- seq_region_mapping&#45;&gt;mapping_set -->
<g id="edge3" class="edge">
<title>seq_region_mapping:e&#45;&gt;mapping_set:w</title>
<path fill="none" stroke="black" stroke-dasharray="5,2" d="M167,-192C195.2,-192 194.86,-223.87 215.7,-232.09"/>
<polygon fill="black" stroke="black" points="215.04,-235.7 225.5,-234 216.26,-228.81 215.04,-235.7"/>
</g>
<!-- seq_region -->
<g id="node7" class="node">
<title>seq_region</title>
<path fill="#c70c09" stroke="black" d="M346,-122C346,-122 241,-122 241,-122 235,-122 229,-116 229,-110 229,-110 229,-58 229,-58 229,-52 235,-46 241,-46 241,-46 346,-46 346,-46 352,-46 358,-52 358,-58 358,-58 358,-110 358,-110 358,-116 352,-122 346,-122"/>
<text text-anchor="start" x="258" y="-101.2" font-family="Times,serif" font-size="16.00">seq_region</text>
<polygon fill="white" stroke="none" points="239,-73 239,-92 348,-92 348,-73 239,-73"/>
<text text-anchor="start" x="241" y="-79.8" font-family="Times,serif" font-weight="bold" font-size="14.00">PK</text>
<text text-anchor="start" x="261" y="-79.8" font-family="Times,serif" font-size="14.00">  seq_region_id</text>
<polygon fill="white" stroke="none" points="239,-52 239,-71 348,-71 348,-52 239,-52"/>
<text text-anchor="start" x="287.5" y="-58.8" font-family="Times,serif" font-style="italic" font-size="14.00">...</text>
<polygon fill="black" stroke="black" points="237,-93 237,-93 350,-93 350,-93 237,-93"/>
</g>
<!-- seq_region_mapping&#45;&gt;seq_region -->
<g id="edge4" class="edge">
<title>seq_region_mapping:e&#45;&gt;seq_region:w</title>
<path fill="none" stroke="black" stroke-dasharray="5,2" d="M167,-213C229.11,-213 178.39,-97.38 226.84,-83.38"/>
<polygon fill="black" stroke="black" points="227.03,-86.76 236.5,-82 226.13,-79.82 227.03,-86.76"/>
</g>
<!-- stable_id_event -->
<g id="node6" class="node">
<title>stable_id_event</title>
<path fill="#ff6666" stroke="black" d="M152,-472.5C152,-472.5 40,-472.5 40,-472.5 34,-472.5 28,-466.5 28,-460.5 28,-460.5 28,-303.5 28,-303.5 28,-297.5 34,-291.5 40,-291.5 40,-291.5 152,-291.5 152,-291.5 158,-291.5 164,-297.5 164,-303.5 164,-303.5 164,-460.5 164,-460.5 164,-466.5 158,-472.5 152,-472.5"/>
<text text-anchor="start" x="46" y="-451.7" font-family="Times,serif" font-size="16.00">stable_id_event</text>
<polygon fill="white" stroke="none" points="38,-423.5 38,-442.5 154,-442.5 154,-423.5 38,-423.5"/>
<text text-anchor="start" x="59.5" y="-429.3" font-family="Times,serif" font-size="14.00">old_stable_id</text>
<polygon fill="white" stroke="none" points="38,-402.5 38,-421.5 154,-421.5 154,-402.5 38,-402.5"/>
<text text-anchor="start" x="64" y="-408.3" font-family="Times,serif" font-size="14.00">old_version</text>
<polygon fill="white" stroke="none" points="38,-381.5 38,-400.5 154,-400.5 154,-381.5 38,-381.5"/>
<text text-anchor="start" x="56.5" y="-387.3" font-family="Times,serif" font-size="14.00">new_stable_id</text>
<polygon fill="white" stroke="none" points="38,-360.5 38,-379.5 154,-379.5 154,-360.5 38,-360.5"/>
<text text-anchor="start" x="61" y="-366.3" font-family="Times,serif" font-size="14.00">new_version</text>
<polygon fill="white" stroke="none" points="38,-339.5 38,-358.5 154,-358.5 154,-339.5 38,-339.5"/>
<text text-anchor="start" x="40" y="-345.3" font-family="Times,serif" font-size="14.00">mapping_session_id</text>
<polygon fill="white" stroke="none" points="38,-318.5 38,-337.5 154,-337.5 154,-318.5 38,-318.5"/>
<text text-anchor="start" x="84" y="-324.3" font-family="Times,serif" font-size="14.00">type</text>
<polygon fill="white" stroke="none" points="38,-297.5 38,-316.5 154,-316.5 154,-297.5 38,-297.5"/>
<text text-anchor="start" x="81.5" y="-303.3" font-family="Times,serif" font-size="14.00">score</text>
<polygon fill="black" stroke="black" points="36,-443.5 36,-443.5 156,-443.5 156,-443.5 36,-443.5"/>
</g>
<!-- stable_id_event&#45;&gt;mapping_session -->
<g id="edge5" class="edge">
<title>stable_id_event:e&#45;&gt;mapping_session:w</title>
<path fill="none" stroke="black" stroke-dasharray="5,2" d="M155,-349C206.27,-349 171.28,-439.85 209.75,-453.33"/>
<polygon fill="black" stroke="black" points="209.08,-456.93 219.5,-455 210.15,-450.01 209.08,-456.93"/>
</g>
</g>
</svg>
