<?xml version="1.0" encoding="UTF-8" standalone="no"?>
<!DOCTYPE svg PUBLIC "-//W3C//DTD SVG 1.1//EN"
 "http://www.w3.org/Graphics/SVG/1.1/DTD/svg11.dtd">
<!-- Generated by graphviz version 2.47.0 (20210316.0004)
 -->
<!-- Title: test Pages: 1 -->
<svg width="800pt" height="1700pt"
 viewBox="0.00 0.00 800.00 1700.00" xmlns="http://www.w3.org/2000/svg" xmlns:xlink="http://www.w3.org/1999/xlink">
<g id="graph0" class="graph" transform="scale(1 1) rotate(0) translate(4 1696)">
<title>test</title>
<polygon fill="white" stroke="transparent" points="-4,4 -4,-1696 796,-1696 796,4 -4,4"/>
<text text-anchor="middle" x="396" y="-10" font-family="Times,serif" font-size="20.00">Core schema diagram: External References tables</text>
<g id="clust1" class="cluster">
<title>cluster_external_references</title>
<path fill="#d2e8ff" stroke="#d2e8ff" d="M20,-629C20,-629 772,-629 772,-629 778,-629 784,-635 784,-641 784,-641 784,-1672 784,-1672 784,-1678 778,-1684 772,-1684 772,-1684 20,-1684 20,-1684 14,-1684 8,-1678 8,-1672 8,-1672 8,-641 8,-641 8,-635 14,-629 20,-629"/>
<text text-anchor="middle" x="396" y="-1664" font-family="Times,serif" font-size="20.00">External References</text>
</g>
<g id="clust2" class="cluster">
<title>cluster_fundamental_tables</title>
<polygon fill="white" stroke="white" points="400,-38 400,-621 577,-621 577,-38 400,-38"/>
<text text-anchor="middle" x="488.5" y="-601" font-family="Times,serif" font-size="20.00">Fundamental Tables</text>
</g>
<!-- associated_group -->
<g id="node1" class="node">
<title>associated_group</title>
<path fill="#1e90ff" stroke="black" d="M357,-1540C357,-1540 217,-1540 217,-1540 211,-1540 205,-1534 205,-1528 205,-1528 205,-1476 205,-1476 205,-1470 211,-1464 217,-1464 217,-1464 357,-1464 357,-1464 363,-1464 369,-1470 369,-1476 369,-1476 369,-1528 369,-1528 369,-1534 363,-1540 357,-1540"/>
<text text-anchor="start" x="231" y="-1519.2" font-family="Times,serif" font-size="16.00">associated_group</text>
<polygon fill="white" stroke="transparent" points="215,-1491 215,-1510 359,-1510 359,-1491 215,-1491"/>
<text text-anchor="start" x="217" y="-1497.8" font-family="Times,serif" font-weight="bold" font-size="14.00">PK</text>
<text text-anchor="start" x="237" y="-1497.8" font-family="Times,serif" font-size="14.00">  associated_group_id</text>
<polygon fill="white" stroke="transparent" points="215,-1470 215,-1489 359,-1489 359,-1470 215,-1470"/>
<text text-anchor="start" x="256.5" y="-1475.8" font-family="Times,serif" font-size="14.00">description</text>
<polygon fill="black" stroke="black" points="213,-1511 213,-1511 361,-1511 361,-1511 213,-1511"/>
</g>
<!-- associated_xref -->
<g id="node2" class="node">
<title>associated_xref</title>
<path fill="#1e90ff" stroke="black" d="M157,-1645.5C157,-1645.5 28,-1645.5 28,-1645.5 22,-1645.5 16,-1639.5 16,-1633.5 16,-1633.5 16,-1476.5 16,-1476.5 16,-1470.5 22,-1464.5 28,-1464.5 28,-1464.5 157,-1464.5 157,-1464.5 163,-1464.5 169,-1470.5 169,-1476.5 169,-1476.5 169,-1633.5 169,-1633.5 169,-1639.5 163,-1645.5 157,-1645.5"/>
<text text-anchor="start" x="43.5" y="-1624.2" font-family="Times,serif" font-size="16.00">associated_xref</text>
<polygon fill="white" stroke="transparent" points="26.5,-1596 26.5,-1615 159.5,-1615 159.5,-1596 26.5,-1596"/>
<text text-anchor="start" x="28.5" y="-1602.8" font-family="Times,serif" font-weight="bold" font-size="14.00">PK</text>
<text text-anchor="start" x="48.5" y="-1602.8" font-family="Times,serif" font-size="14.00">  associated_xref_id</text>
<polygon fill="white" stroke="transparent" points="26.5,-1575 26.5,-1594 159.5,-1594 159.5,-1575 26.5,-1575"/>
<text text-anchor="start" x="53.5" y="-1580.8" font-family="Times,serif" font-size="14.00">object_xref_id</text>
<polygon fill="white" stroke="transparent" points="26.5,-1554 26.5,-1573 159.5,-1573 159.5,-1554 26.5,-1554"/>
<text text-anchor="start" x="73" y="-1559.8" font-family="Times,serif" font-size="14.00">xref_id</text>
<polygon fill="white" stroke="transparent" points="26.5,-1533 26.5,-1552 159.5,-1552 159.5,-1533 26.5,-1533"/>
<text text-anchor="start" x="52" y="-1538.8" font-family="Times,serif" font-size="14.00">source_xref_id</text>
<polygon fill="white" stroke="transparent" points="26.5,-1512 26.5,-1531 159.5,-1531 159.5,-1512 26.5,-1512"/>
<text text-anchor="start" x="52" y="-1517.8" font-family="Times,serif" font-size="14.00">condition_type</text>
<polygon fill="white" stroke="transparent" points="26.5,-1491 26.5,-1510 159.5,-1510 159.5,-1491 26.5,-1491"/>
<text text-anchor="start" x="37" y="-1496.8" font-family="Times,serif" font-size="14.00">associated_group_id</text>
<polygon fill="white" stroke="transparent" points="26.5,-1470 26.5,-1489 159.5,-1489 159.5,-1470 26.5,-1470"/>
<text text-anchor="start" x="80.5" y="-1475.8" font-family="Times,serif" font-size="14.00">rank</text>
<polygon fill="black" stroke="black" points="24.5,-1616 24.5,-1616 161.5,-1616 161.5,-1616 24.5,-1616"/>
</g>
<!-- associated_xref&#45;&gt;associated_group -->
<g id="edge1" class="edge">
<title>associated_xref:e&#45;&gt;associated_group:w</title>
<path fill="none" stroke="black" stroke-dasharray="5,2" d="M160.5,-1500C180.38,-1500 187.79,-1500 203.58,-1500"/>
<polygon fill="black" stroke="black" points="204,-1503.5 214,-1500 204,-1496.5 204,-1503.5"/>
</g>
<!-- object_xref -->
<g id="node9" class="node">
<title>object_xref</title>
<path fill="#1e90ff" stroke="black" d="M345,-903C345,-903 229,-903 229,-903 223,-903 217,-897 217,-891 217,-891 217,-755 217,-755 217,-749 223,-743 229,-743 229,-743 345,-743 345,-743 351,-743 357,-749 357,-755 357,-755 357,-891 357,-891 357,-897 351,-903 345,-903"/>
<text text-anchor="start" x="250.5" y="-882.2" font-family="Times,serif" font-size="16.00">object_xref</text>
<polygon fill="white" stroke="transparent" points="227,-854 227,-873 347,-873 347,-854 227,-854"/>
<text text-anchor="start" x="233.5" y="-860.8" font-family="Times,serif" font-weight="bold" font-size="14.00">PK</text>
<text text-anchor="start" x="253.5" y="-860.8" font-family="Times,serif" font-size="14.00">  object_xref_id</text>
<polygon fill="white" stroke="transparent" points="227,-833 227,-852 347,-852 347,-833 227,-833"/>
<text text-anchor="start" x="255" y="-838.8" font-family="Times,serif" font-size="14.00">ensembl_id</text>
<polygon fill="white" stroke="transparent" points="227,-812 227,-831 347,-831 347,-812 227,-812"/>
<text text-anchor="start" x="229" y="-817.8" font-family="Times,serif" font-size="14.00">ensembl_object_type</text>
<polygon fill="white" stroke="transparent" points="227,-791 227,-810 347,-810 347,-791 227,-791"/>
<text text-anchor="start" x="267" y="-796.8" font-family="Times,serif" font-size="14.00">xref_id</text>
<polygon fill="white" stroke="transparent" points="227,-770 227,-789 347,-789 347,-770 227,-770"/>
<text text-anchor="start" x="235" y="-775.8" font-family="Times,serif" font-size="14.00">linkage_annotation</text>
<polygon fill="white" stroke="transparent" points="227,-749 227,-768 347,-768 347,-749 227,-749"/>
<text text-anchor="start" x="256.5" y="-754.8" font-family="Times,serif" font-size="14.00">analysis_id</text>
<polygon fill="black" stroke="black" points="225,-874 225,-874 349,-874 349,-874 225,-874"/>
</g>
<!-- associated_xref&#45;&gt;object_xref -->
<g id="edge2" class="edge">
<title>associated_xref:e&#45;&gt;object_xref:w</title>
<path fill="none" stroke="black" stroke-dasharray="5,2" d="M160.5,-1585C237.48,-1585 153.43,-924.63 216.58,-867.88"/>
<polygon fill="black" stroke="black" points="218.09,-871.04 226,-864 215.42,-864.57 218.09,-871.04"/>
</g>
<!-- xref -->
<g id="node13" class="node">
<title>xref</title>
<path fill="#1e90ff" stroke="black" d="M530,-839C530,-839 446,-839 446,-839 440,-839 434,-833 434,-827 434,-827 434,-649 434,-649 434,-643 440,-637 446,-637 446,-637 530,-637 530,-637 536,-637 542,-643 542,-649 542,-649 542,-827 542,-827 542,-833 536,-839 530,-839"/>
<text text-anchor="start" x="475" y="-818.2" font-family="Times,serif" font-size="16.00">xref</text>
<polygon fill="white" stroke="transparent" points="444,-790 444,-809 532,-809 532,-790 444,-790"/>
<text text-anchor="start" x="454.5" y="-796.8" font-family="Times,serif" font-weight="bold" font-size="14.00">PK</text>
<text text-anchor="start" x="474.5" y="-796.8" font-family="Times,serif" font-size="14.00">  xref_id</text>
<polygon fill="white" stroke="transparent" points="444,-769 444,-788 532,-788 532,-769 444,-769"/>
<text text-anchor="start" x="447" y="-774.8" font-family="Times,serif" font-size="14.00">external_db_id</text>
<polygon fill="white" stroke="transparent" points="444,-748 444,-767 532,-767 532,-748 444,-748"/>
<text text-anchor="start" x="446" y="-753.8" font-family="Times,serif" font-size="14.00">dbprimary_acc</text>
<polygon fill="white" stroke="transparent" points="444,-727 444,-746 532,-746 532,-727 444,-727"/>
<text text-anchor="start" x="451.5" y="-732.8" font-family="Times,serif" font-size="14.00">display_label</text>
<polygon fill="white" stroke="transparent" points="444,-706 444,-725 532,-725 532,-706 444,-706"/>
<text text-anchor="start" x="468" y="-711.8" font-family="Times,serif" font-size="14.00">version</text>
<polygon fill="white" stroke="transparent" points="444,-685 444,-704 532,-704 532,-685 444,-685"/>
<text text-anchor="start" x="457.5" y="-690.8" font-family="Times,serif" font-size="14.00">description</text>
<polygon fill="white" stroke="transparent" points="444,-664 444,-683 532,-683 532,-664 444,-664"/>
<text text-anchor="start" x="462" y="-669.8" font-family="Times,serif" font-size="14.00">info_type</text>
<polygon fill="white" stroke="transparent" points="444,-643 444,-662 532,-662 532,-643 444,-643"/>
<text text-anchor="start" x="463.5" y="-648.8" font-family="Times,serif" font-size="14.00">info_text</text>
<polygon fill="black" stroke="black" points="442,-810 442,-810 534,-810 534,-810 442,-810"/>
</g>
<!-- associated_xref&#45;&gt;xref -->
<g id="edge3" class="edge">
<title>associated_xref:e&#45;&gt;xref:w</title>
<path fill="none" stroke="black" stroke-dasharray="5,2" d="M160.5,-1564C253.41,-1564 304.22,-1615.59 369,-1549 423.29,-1493.2 370.96,-921.23 400,-849 409.41,-825.58 413.07,-805.78 433.01,-801.07"/>
<polygon fill="black" stroke="black" points="433.43,-804.54 443,-800 432.69,-797.58 433.43,-804.54"/>
</g>
<!-- biotype -->
<g id="node3" class="node">
<title>biotype</title>
<path fill="#1e90ff" stroke="black" d="M135.5,-1446.5C135.5,-1446.5 49.5,-1446.5 49.5,-1446.5 43.5,-1446.5 37.5,-1440.5 37.5,-1434.5 37.5,-1434.5 37.5,-1235.5 37.5,-1235.5 37.5,-1229.5 43.5,-1223.5 49.5,-1223.5 49.5,-1223.5 135.5,-1223.5 135.5,-1223.5 141.5,-1223.5 147.5,-1229.5 147.5,-1235.5 147.5,-1235.5 147.5,-1434.5 147.5,-1434.5 147.5,-1440.5 141.5,-1446.5 135.5,-1446.5"/>
<text text-anchor="start" x="68" y="-1425.2" font-family="Times,serif" font-size="16.00">biotype</text>
<polygon fill="white" stroke="transparent" points="47.5,-1397 47.5,-1416 137.5,-1416 137.5,-1397 47.5,-1397"/>
<text text-anchor="start" x="49.5" y="-1403.8" font-family="Times,serif" font-weight="bold" font-size="14.00">PK</text>
<text text-anchor="start" x="69.5" y="-1403.8" font-family="Times,serif" font-size="14.00">  biotype_id</text>
<polygon fill="white" stroke="transparent" points="47.5,-1376 47.5,-1395 137.5,-1395 137.5,-1376 47.5,-1376"/>
<text text-anchor="start" x="77" y="-1381.8" font-family="Times,serif" font-size="14.00">name</text>
<polygon fill="white" stroke="transparent" points="47.5,-1355 47.5,-1374 137.5,-1374 137.5,-1355 47.5,-1355"/>
<text text-anchor="start" x="60.5" y="-1360.8" font-family="Times,serif" font-size="14.00">object_type</text>
<polygon fill="white" stroke="transparent" points="47.5,-1334 47.5,-1353 137.5,-1353 137.5,-1334 47.5,-1334"/>
<text text-anchor="start" x="70.5" y="-1339.8" font-family="Times,serif" font-size="14.00">db_type</text>
<polygon fill="white" stroke="transparent" points="47.5,-1313 47.5,-1332 137.5,-1332 137.5,-1313 47.5,-1313"/>
<text text-anchor="start" x="54" y="-1318.8" font-family="Times,serif" font-size="14.00">attrib_type_id</text>
<polygon fill="white" stroke="transparent" points="47.5,-1292 47.5,-1311 137.5,-1311 137.5,-1292 47.5,-1292"/>
<text text-anchor="start" x="62" y="-1297.8" font-family="Times,serif" font-size="14.00">description</text>
<polygon fill="white" stroke="transparent" points="47.5,-1271 47.5,-1290 137.5,-1290 137.5,-1271 47.5,-1271"/>
<text text-anchor="start" x="52.5" y="-1276.8" font-family="Times,serif" font-size="14.00">biotype_group</text>
<polygon fill="white" stroke="transparent" points="47.5,-1250 47.5,-1269 137.5,-1269 137.5,-1250 47.5,-1250"/>
<text text-anchor="start" x="74" y="-1255.8" font-family="Times,serif" font-size="14.00">so_acc</text>
<polygon fill="white" stroke="transparent" points="47.5,-1229 47.5,-1248 137.5,-1248 137.5,-1229 47.5,-1229"/>
<text text-anchor="start" x="69.5" y="-1234.8" font-family="Times,serif" font-size="14.00">so_term</text>
<polygon fill="black" stroke="black" points="45.5,-1417 45.5,-1417 139.5,-1417 139.5,-1417 45.5,-1417"/>
</g>
<!-- dependent_xref -->
<g id="node4" class="node">
<title>dependent_xref</title>
<path fill="#1e90ff" stroke="black" d="M146,-1205.5C146,-1205.5 39,-1205.5 39,-1205.5 33,-1205.5 27,-1199.5 27,-1193.5 27,-1193.5 27,-1120.5 27,-1120.5 27,-1114.5 33,-1108.5 39,-1108.5 39,-1108.5 146,-1108.5 146,-1108.5 152,-1108.5 158,-1114.5 158,-1120.5 158,-1120.5 158,-1193.5 158,-1193.5 158,-1199.5 152,-1205.5 146,-1205.5"/>
<text text-anchor="start" x="43" y="-1184.2" font-family="Times,serif" font-size="16.00">dependent_xref</text>
<polygon fill="white" stroke="transparent" points="37.5,-1156 37.5,-1175 148.5,-1175 148.5,-1156 37.5,-1156"/>
<text text-anchor="start" x="39.5" y="-1162.8" font-family="Times,serif" font-weight="bold" font-size="14.00">PK</text>
<text text-anchor="start" x="59.5" y="-1162.8" font-family="Times,serif" font-size="14.00">  object_xref_id</text>
<polygon fill="white" stroke="transparent" points="37.5,-1135 37.5,-1154 148.5,-1154 148.5,-1135 37.5,-1135"/>
<text text-anchor="start" x="51.5" y="-1140.8" font-family="Times,serif" font-size="14.00">master_xref_id</text>
<polygon fill="white" stroke="transparent" points="37.5,-1114 37.5,-1133 148.5,-1133 148.5,-1114 37.5,-1114"/>
<text text-anchor="start" x="42" y="-1119.8" font-family="Times,serif" font-size="14.00">dependent_xref_id</text>
<polygon fill="black" stroke="black" points="35.5,-1176 35.5,-1176 150.5,-1176 150.5,-1176 35.5,-1176"/>
</g>
<!-- dependent_xref&#45;&gt;object_xref -->
<g id="edge4" class="edge">
<title>dependent_xref:e&#45;&gt;object_xref:w</title>
<path fill="none" stroke="black" stroke-dasharray="5,2" d="M149.5,-1166C284.31,-1166 97.87,-879.72 215.74,-864.62"/>
<polygon fill="black" stroke="black" points="216.23,-868.1 226,-864 215.81,-861.11 216.23,-868.1"/>
</g>
<!-- dependent_xref&#45;&gt;xref -->
<g id="edge5" class="edge">
<title>dependent_xref:e&#45;&gt;xref:w</title>
<path fill="none" stroke="black" stroke-dasharray="5,2" d="M149.5,-1144C264.73,-1144 303.72,-1100.96 369,-1006 422.07,-928.81 351.35,-809.28 432.88,-800.51"/>
<polygon fill="black" stroke="black" points="433.19,-804 443,-800 432.84,-797.01 433.19,-804"/>
</g>
<!-- external_db -->
<g id="node5" class="node">
<title>external_db</title>
<path fill="#1e90ff" stroke="black" d="M748.5,-881C748.5,-881 635.5,-881 635.5,-881 629.5,-881 623.5,-875 623.5,-869 623.5,-869 623.5,-649 623.5,-649 623.5,-643 629.5,-637 635.5,-637 635.5,-637 748.5,-637 748.5,-637 754.5,-637 760.5,-643 760.5,-649 760.5,-649 760.5,-869 760.5,-869 760.5,-875 754.5,-881 748.5,-881"/>
<text text-anchor="start" x="654" y="-860.2" font-family="Times,serif" font-size="16.00">external_db</text>
<polygon fill="white" stroke="transparent" points="634,-832 634,-851 751,-851 751,-832 634,-832"/>
<text text-anchor="start" x="637.5" y="-838.8" font-family="Times,serif" font-weight="bold" font-size="14.00">PK</text>
<text text-anchor="start" x="657.5" y="-838.8" font-family="Times,serif" font-size="14.00">  external_db_id</text>
<polygon fill="white" stroke="transparent" points="634,-811 634,-830 751,-830 751,-811 634,-811"/>
<text text-anchor="start" x="667" y="-816.8" font-family="Times,serif" font-size="14.00">db_name</text>
<polygon fill="white" stroke="transparent" points="634,-790 634,-809 751,-809 751,-790 634,-790"/>
<text text-anchor="start" x="663.5" y="-795.8" font-family="Times,serif" font-size="14.00">db_release</text>
<polygon fill="white" stroke="transparent" points="634,-769 634,-788 751,-788 751,-769 634,-769"/>
<text text-anchor="start" x="677" y="-774.8" font-family="Times,serif" font-size="14.00">status</text>
<polygon fill="white" stroke="transparent" points="634,-748 634,-767 751,-767 751,-748 634,-748"/>
<text text-anchor="start" x="671" y="-753.8" font-family="Times,serif" font-size="14.00">priority</text>
<polygon fill="white" stroke="transparent" points="634,-727 634,-746 751,-746 751,-727 634,-727"/>
<text text-anchor="start" x="644" y="-732.8" font-family="Times,serif" font-size="14.00">db_display_name</text>
<polygon fill="white" stroke="transparent" points="634,-706 634,-725 751,-725 751,-706 634,-706"/>
<text text-anchor="start" x="680.5" y="-711.8" font-family="Times,serif" font-size="14.00">type</text>
<polygon fill="white" stroke="transparent" points="634,-685 634,-704 751,-704 751,-685 634,-685"/>
<text text-anchor="start" x="636" y="-690.8" font-family="Times,serif" font-size="14.00">secondary_db_name</text>
<polygon fill="white" stroke="transparent" points="634,-664 634,-683 751,-683 751,-664 634,-664"/>
<text text-anchor="start" x="638" y="-669.8" font-family="Times,serif" font-size="14.00">secondary_db_table</text>
<polygon fill="white" stroke="transparent" points="634,-643 634,-662 751,-662 751,-643 634,-643"/>
<text text-anchor="start" x="662" y="-648.8" font-family="Times,serif" font-size="14.00">description</text>
<polygon fill="black" stroke="black" points="632,-852 632,-852 753,-852 753,-852 632,-852"/>
</g>
<!-- external_synonym -->
<g id="node6" class="node">
<title>external_synonym</title>
<path fill="#1e90ff" stroke="black" d="M347,-997C347,-997 227,-997 227,-997 221,-997 215,-991 215,-985 215,-985 215,-933 215,-933 215,-927 221,-921 227,-921 227,-921 347,-921 347,-921 353,-921 359,-927 359,-933 359,-933 359,-985 359,-985 359,-991 353,-997 347,-997"/>
<text text-anchor="start" x="227" y="-976.2" font-family="Times,serif" font-size="16.00">external_synonym</text>
<polygon fill="white" stroke="transparent" points="225,-948 225,-967 349,-967 349,-948 225,-948"/>
<text text-anchor="start" x="253.5" y="-954.8" font-family="Times,serif" font-weight="bold" font-size="14.00">PK</text>
<text text-anchor="start" x="273.5" y="-954.8" font-family="Times,serif" font-size="14.00">  xref_id</text>
<polygon fill="white" stroke="transparent" points="225,-927 225,-946 349,-946 349,-927 225,-927"/>
<text text-anchor="start" x="248" y="-933.8" font-family="Times,serif" font-weight="bold" font-size="14.00">PK</text>
<text text-anchor="start" x="268" y="-933.8" font-family="Times,serif" font-size="14.00">  synonym</text>
<polygon fill="black" stroke="black" points="223,-968 223,-968 351,-968 351,-968 223,-968"/>
</g>
<!-- external_synonym&#45;&gt;xref -->
<g id="edge7" class="edge">
<title>external_synonym:e&#45;&gt;xref:w</title>
<path fill="none" stroke="black" stroke-dasharray="5,2" d="M350,-957C427.46,-957 367.81,-813.79 432.95,-800.92"/>
<polygon fill="black" stroke="black" points="433.36,-804.4 443,-800 432.72,-797.43 433.36,-804.4"/>
</g>
<!-- identity_xref -->
<g id="node7" class="node">
<title>identity_xref</title>
<path fill="#1e90ff" stroke="black" d="M146,-1090C146,-1090 39,-1090 39,-1090 33,-1090 27,-1084 27,-1078 27,-1078 27,-858 27,-858 27,-852 33,-846 39,-846 39,-846 146,-846 146,-846 152,-846 158,-852 158,-858 158,-858 158,-1078 158,-1078 158,-1084 152,-1090 146,-1090"/>
<text text-anchor="start" x="51" y="-1069.2" font-family="Times,serif" font-size="16.00">identity_xref</text>
<polygon fill="white" stroke="transparent" points="37.5,-1041 37.5,-1060 148.5,-1060 148.5,-1041 37.5,-1041"/>
<text text-anchor="start" x="39.5" y="-1047.8" font-family="Times,serif" font-weight="bold" font-size="14.00">PK</text>
<text text-anchor="start" x="59.5" y="-1047.8" font-family="Times,serif" font-size="14.00">  object_xref_id</text>
<polygon fill="white" stroke="transparent" points="37.5,-1020 37.5,-1039 148.5,-1039 148.5,-1020 37.5,-1020"/>
<text text-anchor="start" x="58" y="-1025.8" font-family="Times,serif" font-size="14.00">xref_identity</text>
<polygon fill="white" stroke="transparent" points="37.5,-999 37.5,-1018 148.5,-1018 148.5,-999 37.5,-999"/>
<text text-anchor="start" x="46" y="-1004.8" font-family="Times,serif" font-size="14.00">ensembl_identity</text>
<polygon fill="white" stroke="transparent" points="37.5,-978 37.5,-997 148.5,-997 148.5,-978 37.5,-978"/>
<text text-anchor="start" x="66.5" y="-983.8" font-family="Times,serif" font-size="14.00">xref_start</text>
<polygon fill="white" stroke="transparent" points="37.5,-957 37.5,-976 148.5,-976 148.5,-957 37.5,-957"/>
<text text-anchor="start" x="68.5" y="-962.8" font-family="Times,serif" font-size="14.00">xref_end</text>
<polygon fill="white" stroke="transparent" points="37.5,-936 37.5,-955 148.5,-955 148.5,-936 37.5,-936"/>
<text text-anchor="start" x="54.5" y="-941.8" font-family="Times,serif" font-size="14.00">ensembl_start</text>
<polygon fill="white" stroke="transparent" points="37.5,-915 37.5,-934 148.5,-934 148.5,-915 37.5,-915"/>
<text text-anchor="start" x="56.5" y="-920.8" font-family="Times,serif" font-size="14.00">ensembl_end</text>
<polygon fill="white" stroke="transparent" points="37.5,-894 37.5,-913 148.5,-913 148.5,-894 37.5,-894"/>
<text text-anchor="start" x="65.5" y="-899.8" font-family="Times,serif" font-size="14.00">cigar_line</text>
<polygon fill="white" stroke="transparent" points="37.5,-873 37.5,-892 148.5,-892 148.5,-873 37.5,-873"/>
<text text-anchor="start" x="78.5" y="-878.8" font-family="Times,serif" font-size="14.00">score</text>
<polygon fill="white" stroke="transparent" points="37.5,-852 37.5,-871 148.5,-871 148.5,-852 37.5,-852"/>
<text text-anchor="start" x="75" y="-857.8" font-family="Times,serif" font-size="14.00">evalue</text>
<polygon fill="black" stroke="black" points="35.5,-1061 35.5,-1061 150.5,-1061 150.5,-1061 35.5,-1061"/>
</g>
<!-- identity_xref&#45;&gt;object_xref -->
<g id="edge9" class="edge">
<title>identity_xref:e&#45;&gt;object_xref:w</title>
<path fill="none" stroke="black" stroke-dasharray="5,2" d="M149.5,-1051C235.61,-1051 144.34,-879.03 215.9,-864.92"/>
<polygon fill="black" stroke="black" points="216.36,-868.39 226,-864 215.72,-861.42 216.36,-868.39"/>
</g>
<!-- interpro -->
<g id="node8" class="node">
<title>interpro</title>
<path fill="#1e90ff" stroke="black" d="M124,-828C124,-828 61,-828 61,-828 55,-828 49,-822 49,-816 49,-816 49,-764 49,-764 49,-758 55,-752 61,-752 61,-752 124,-752 124,-752 130,-752 136,-758 136,-764 136,-764 136,-816 136,-816 136,-822 130,-828 124,-828"/>
<text text-anchor="start" x="67" y="-807.2" font-family="Times,serif" font-size="16.00">interpro</text>
<polygon fill="white" stroke="transparent" points="59.5,-779 59.5,-798 126.5,-798 126.5,-779 59.5,-779"/>
<text text-anchor="start" x="61.5" y="-784.8" font-family="Times,serif" font-size="14.00">interpro_ac</text>
<polygon fill="white" stroke="transparent" points="59.5,-758 59.5,-777 126.5,-777 126.5,-758 59.5,-758"/>
<text text-anchor="start" x="87.5" y="-763.8" font-family="Times,serif" font-size="14.00">id</text>
<polygon fill="black" stroke="black" points="57.5,-799 57.5,-799 128.5,-799 128.5,-799 57.5,-799"/>
</g>
<!-- object_xref&#45;&gt;xref -->
<g id="edge11" class="edge">
<title>object_xref:e&#45;&gt;xref:w</title>
<path fill="none" stroke="black" stroke-dasharray="5,2" d="M348,-800C386.59,-800 398.73,-800 432.78,-800"/>
<polygon fill="black" stroke="black" points="433,-803.5 443,-800 433,-796.5 433,-803.5"/>
</g>
<!-- analysis -->
<g id="node14" class="node">
<title>analysis</title>
<path fill="#808000" stroke="black" d="M532.5,-122C532.5,-122 443.5,-122 443.5,-122 437.5,-122 431.5,-116 431.5,-110 431.5,-110 431.5,-58 431.5,-58 431.5,-52 437.5,-46 443.5,-46 443.5,-46 532.5,-46 532.5,-46 538.5,-46 544.5,-52 544.5,-58 544.5,-58 544.5,-110 544.5,-110 544.5,-116 538.5,-122 532.5,-122"/>
<text text-anchor="start" x="463.5" y="-101.2" font-family="Times,serif" font-size="16.00">analysis</text>
<polygon fill="white" stroke="transparent" points="442,-73 442,-92 535,-92 535,-73 442,-73"/>
<text text-anchor="start" x="444" y="-79.8" font-family="Times,serif" font-weight="bold" font-size="14.00">PK</text>
<text text-anchor="start" x="464" y="-79.8" font-family="Times,serif" font-size="14.00">  analysis_id</text>
<polygon fill="white" stroke="transparent" points="442,-52 442,-71 535,-71 535,-52 442,-52"/>
<text text-anchor="start" x="482.5" y="-58.8" font-family="Times,serif" font-style="italic" font-size="14.00">...</text>
<polygon fill="black" stroke="black" points="440,-93 440,-93 537,-93 537,-93 440,-93"/>
</g>
<!-- object_xref&#45;&gt;analysis -->
<g id="edge10" class="edge">
<title>object_xref:e&#45;&gt;analysis:w</title>
<path fill="none" stroke="black" stroke-dasharray="5,2" d="M348,-758C417.91,-758 373.44,-195.66 400,-131 409.36,-108.22 411.96,-88.1 431.01,-83.16"/>
<polygon fill="black" stroke="black" points="431.47,-86.63 441,-82 430.66,-79.67 431.47,-86.63"/>
</g>
<!-- ontology_xref -->
<g id="node10" class="node">
<title>ontology_xref</title>
<path fill="#1e90ff" stroke="black" d="M138.5,-733.5C138.5,-733.5 46.5,-733.5 46.5,-733.5 40.5,-733.5 34.5,-727.5 34.5,-721.5 34.5,-721.5 34.5,-648.5 34.5,-648.5 34.5,-642.5 40.5,-636.5 46.5,-636.5 46.5,-636.5 138.5,-636.5 138.5,-636.5 144.5,-636.5 150.5,-642.5 150.5,-648.5 150.5,-648.5 150.5,-721.5 150.5,-721.5 150.5,-727.5 144.5,-733.5 138.5,-733.5"/>
<text text-anchor="start" x="46.5" y="-712.2" font-family="Times,serif" font-size="16.00">ontology_xref</text>
<polygon fill="white" stroke="transparent" points="44.5,-684 44.5,-703 140.5,-703 140.5,-684 44.5,-684"/>
<text text-anchor="start" x="53" y="-689.8" font-family="Times,serif" font-size="14.00">object_xref_id</text>
<polygon fill="white" stroke="transparent" points="44.5,-663 44.5,-682 140.5,-682 140.5,-663 44.5,-663"/>
<text text-anchor="start" x="51.5" y="-668.8" font-family="Times,serif" font-size="14.00">source_xref_id</text>
<polygon fill="white" stroke="transparent" points="44.5,-642 44.5,-661 140.5,-661 140.5,-642 44.5,-642"/>
<text text-anchor="start" x="57.5" y="-647.8" font-family="Times,serif" font-size="14.00">linkage_type</text>
<polygon fill="black" stroke="black" points="42.5,-704 42.5,-704 142.5,-704 142.5,-704 42.5,-704"/>
</g>
<!-- ontology_xref&#45;&gt;object_xref -->
<g id="edge12" class="edge">
<title>ontology_xref:e&#45;&gt;object_xref:w</title>
<path fill="none" stroke="black" stroke-dasharray="5,2" d="M141.5,-694C222.25,-694 148.55,-849.7 216.03,-863.09"/>
<polygon fill="black" stroke="black" points="215.72,-866.57 226,-864 216.36,-859.6 215.72,-866.57"/>
</g>
<!-- ontology_xref&#45;&gt;xref -->
<g id="edge13" class="edge">
<title>ontology_xref:e&#45;&gt;xref:w</title>
<path fill="none" stroke="black" stroke-dasharray="5,2" d="M141.5,-672C246.3,-672 276.89,-684.02 369,-734 404.41,-753.21 400.09,-792.45 432.75,-799.05"/>
<polygon fill="black" stroke="black" points="432.72,-802.56 443,-800 433.37,-795.59 432.72,-802.56"/>
</g>
<!-- unmapped_object -->
<g id="node11" class="node">
<title>unmapped_object</title>
<path fill="#1e90ff" stroke="black" d="M559,-1122.5C559,-1122.5 417,-1122.5 417,-1122.5 411,-1122.5 405,-1116.5 405,-1110.5 405,-1110.5 405,-869.5 405,-869.5 405,-863.5 411,-857.5 417,-857.5 417,-857.5 559,-857.5 559,-857.5 565,-857.5 571,-863.5 571,-869.5 571,-869.5 571,-1110.5 571,-1110.5 571,-1116.5 565,-1122.5 559,-1122.5"/>
<text text-anchor="start" x="430.5" y="-1101.2" font-family="Times,serif" font-size="16.00">unmapped_object</text>
<polygon fill="white" stroke="transparent" points="415,-1073 415,-1092 561,-1092 561,-1073 415,-1073"/>
<text text-anchor="start" x="417" y="-1079.8" font-family="Times,serif" font-weight="bold" font-size="14.00">PK</text>
<text text-anchor="start" x="437" y="-1079.8" font-family="Times,serif" font-size="14.00">  unmapped_object_id</text>
<polygon fill="white" stroke="transparent" points="415,-1052 415,-1071 561,-1071 561,-1052 415,-1052"/>
<text text-anchor="start" x="476" y="-1057.8" font-family="Times,serif" font-size="14.00">type</text>
<polygon fill="white" stroke="transparent" points="415,-1031 415,-1050 561,-1050 561,-1031 415,-1031"/>
<text text-anchor="start" x="457.5" y="-1036.8" font-family="Times,serif" font-size="14.00">analysis_id</text>
<polygon fill="white" stroke="transparent" points="415,-1010 415,-1029 561,-1029 561,-1010 415,-1010"/>
<text text-anchor="start" x="447" y="-1015.8" font-family="Times,serif" font-size="14.00">external_db_id</text>
<polygon fill="white" stroke="transparent" points="415,-989 415,-1008 561,-1008 561,-989 415,-989"/>
<text text-anchor="start" x="463.5" y="-994.8" font-family="Times,serif" font-size="14.00">identifier</text>
<polygon fill="white" stroke="transparent" points="415,-968 415,-987 561,-987 561,-968 415,-968"/>
<text text-anchor="start" x="429.5" y="-973.8" font-family="Times,serif" font-size="14.00">unmapped_reason_id</text>
<polygon fill="white" stroke="transparent" points="415,-947 415,-966 561,-966 561,-947 415,-947"/>
<text text-anchor="start" x="454.5" y="-952.8" font-family="Times,serif" font-size="14.00">query_score</text>
<polygon fill="white" stroke="transparent" points="415,-926 415,-945 561,-945 561,-926 415,-926"/>
<text text-anchor="start" x="454.5" y="-931.8" font-family="Times,serif" font-size="14.00">target_score</text>
<polygon fill="white" stroke="transparent" points="415,-905 415,-924 561,-924 561,-905 415,-905"/>
<text text-anchor="start" x="456" y="-910.8" font-family="Times,serif" font-size="14.00">ensembl_id</text>
<polygon fill="white" stroke="transparent" points="415,-884 415,-903 561,-903 561,-884 415,-884"/>
<text text-anchor="start" x="430" y="-889.8" font-family="Times,serif" font-size="14.00">ensembl_object_type</text>
<polygon fill="white" stroke="transparent" points="415,-863 415,-882 561,-882 561,-863 415,-863"/>
<text text-anchor="start" x="471" y="-868.8" font-family="Times,serif" font-size="14.00">parent</text>
<polygon fill="black" stroke="black" points="413,-1093 413,-1093 563,-1093 563,-1093 413,-1093"/>
</g>
<!-- unmapped_object&#45;&gt;external_db -->
<g id="edge17" class="edge">
<title>unmapped_object:e&#45;&gt;external_db:w</title>
<path fill="none" stroke="black" stroke-dasharray="5,2" d="M562,-1020C643.51,-1020 556.02,-856.97 623.01,-842.96"/>
<polygon fill="black" stroke="black" points="623.38,-846.44 633,-842 622.71,-839.47 623.38,-846.44"/>
</g>
<!-- unmapped_reason -->
<g id="node12" class="node">
<title>unmapped_reason</title>
<path fill="#1e90ff" stroke="black" d="M764,-1016.5C764,-1016.5 620,-1016.5 620,-1016.5 614,-1016.5 608,-1010.5 608,-1004.5 608,-1004.5 608,-931.5 608,-931.5 608,-925.5 614,-919.5 620,-919.5 620,-919.5 764,-919.5 764,-919.5 770,-919.5 776,-925.5 776,-931.5 776,-931.5 776,-1004.5 776,-1004.5 776,-1010.5 770,-1016.5 764,-1016.5"/>
<text text-anchor="start" x="633" y="-995.2" font-family="Times,serif" font-size="16.00">unmapped_reason</text>
<polygon fill="white" stroke="transparent" points="618,-967 618,-986 766,-986 766,-967 618,-967"/>
<text text-anchor="start" x="620" y="-973.8" font-family="Times,serif" font-weight="bold" font-size="14.00">PK</text>
<text text-anchor="start" x="640" y="-973.8" font-family="Times,serif" font-size="14.00">  unmapped_reason_id</text>
<polygon fill="white" stroke="transparent" points="618,-946 618,-965 766,-965 766,-946 618,-946"/>
<text text-anchor="start" x="631.5" y="-951.8" font-family="Times,serif" font-size="14.00">summary_description</text>
<polygon fill="white" stroke="transparent" points="618,-925 618,-944 766,-944 766,-925 618,-925"/>
<text text-anchor="start" x="648.5" y="-930.8" font-family="Times,serif" font-size="14.00">full_description</text>
<polygon fill="black" stroke="black" points="616,-987 616,-987 768,-987 768,-987 616,-987"/>
</g>
<!-- unmapped_object&#45;&gt;unmapped_reason -->
<g id="edge18" class="edge">
<title>unmapped_object:e&#45;&gt;unmapped_reason:w</title>
<path fill="none" stroke="black" stroke-dasharray="5,2" d="M562,-977C582.62,-977 590.2,-977 606.74,-977"/>
<polygon fill="black" stroke="black" points="607,-980.5 617,-977 607,-973.5 607,-980.5"/>
</g>
<!-- unmapped_object&#45;&gt;analysis -->
<g id="edge16" class="edge">
<title>unmapped_object:e&#45;&gt;analysis:w</title>
<path fill="none" stroke="black" stroke-dasharray="5,2" d="M571,-1041C591.61,-1041 585.25,-870.39 571,-855.5 557.85,-841.76 418.25,-853.35 400,-848 392.36,-845.76 388.47,-845.9 384.5,-839 365.12,-805.35 369.87,-175.97 384.5,-140 396.68,-110.05 403.53,-87.1 430.9,-82.75"/>
<polygon fill="black" stroke="black" points="431.29,-86.23 441,-82 430.77,-79.25 431.29,-86.23"/>
</g>
<!-- xref&#45;&gt;external_db -->
<g id="edge19" class="edge">
<title>xref:e&#45;&gt;external_db:w</title>
<path fill="none" stroke="black" stroke-dasharray="5,2" d="M533,-779C581.94,-779 580.89,-833.68 623,-841.16"/>
<polygon fill="black" stroke="black" points="622.74,-844.65 633,-842 623.33,-837.67 622.74,-844.65"/>
</g>
<!-- dna_align_feature -->
<g id="node15" class="node">
<title>dna_align_feature</title>
<path fill="#808000" stroke="black" d="M545.5,-467.5C545.5,-467.5 430.5,-467.5 430.5,-467.5 424.5,-467.5 418.5,-461.5 418.5,-455.5 418.5,-455.5 418.5,-382.5 418.5,-382.5 418.5,-376.5 424.5,-370.5 430.5,-370.5 430.5,-370.5 545.5,-370.5 545.5,-370.5 551.5,-370.5 557.5,-376.5 557.5,-382.5 557.5,-382.5 557.5,-455.5 557.5,-455.5 557.5,-461.5 551.5,-467.5 545.5,-467.5"/>
<text text-anchor="start" x="431" y="-446.2" font-family="Times,serif" font-size="16.00">dna_align_feature</text>
<polygon fill="white" stroke="transparent" points="429,-418 429,-437 548,-437 548,-418 429,-418"/>
<text text-anchor="start" x="482.5" y="-424.8" font-family="Times,serif" font-style="italic" font-size="14.00">...</text>
<polygon fill="white" stroke="transparent" points="429,-397 429,-416 548,-416 548,-397 429,-397"/>
<text text-anchor="start" x="447.5" y="-402.8" font-family="Times,serif" font-size="14.00">external_db_id</text>
<polygon fill="white" stroke="transparent" points="429,-376 429,-395 548,-395 548,-376 429,-376"/>
<text text-anchor="start" x="482.5" y="-382.8" font-family="Times,serif" font-style="italic" font-size="14.00">...</text>
<polygon fill="black" stroke="black" points="427,-438 427,-438 550,-438 550,-438 427,-438"/>
</g>
<!-- dna_align_feature&#45;&gt;external_db -->
<g id="edge6" class="edge">
<title>dna_align_feature:e&#45;&gt;external_db:w</title>
<path fill="none" stroke="black" stroke-dasharray="5,2" d="M549,-406C644.01,-406 542.45,-810.24 622.87,-840.24"/>
<polygon fill="black" stroke="black" points="622.55,-843.74 633,-842 623.75,-836.84 622.55,-843.74"/>
</g>
<!-- gene -->
<g id="node16" class="node">
<title>gene</title>
<path fill="#808000" stroke="black" d="M530.5,-237.5C530.5,-237.5 445.5,-237.5 445.5,-237.5 439.5,-237.5 433.5,-231.5 433.5,-225.5 433.5,-225.5 433.5,-152.5 433.5,-152.5 433.5,-146.5 439.5,-140.5 445.5,-140.5 445.5,-140.5 530.5,-140.5 530.5,-140.5 536.5,-140.5 542.5,-146.5 542.5,-152.5 542.5,-152.5 542.5,-225.5 542.5,-225.5 542.5,-231.5 536.5,-237.5 530.5,-237.5"/>
<text text-anchor="start" x="473.5" y="-216.2" font-family="Times,serif" font-size="16.00">gene</text>
<polygon fill="white" stroke="transparent" points="444,-188 444,-207 533,-207 533,-188 444,-188"/>
<text text-anchor="start" x="482.5" y="-194.8" font-family="Times,serif" font-style="italic" font-size="14.00">...</text>
<polygon fill="white" stroke="transparent" points="444,-167 444,-186 533,-186 533,-167 444,-167"/>
<text text-anchor="start" x="446" y="-172.8" font-family="Times,serif" font-size="14.00">display_xref_id</text>
<polygon fill="white" stroke="transparent" points="444,-146 444,-165 533,-165 533,-146 444,-146"/>
<text text-anchor="start" x="482.5" y="-152.8" font-family="Times,serif" font-style="italic" font-size="14.00">...</text>
<polygon fill="black" stroke="black" points="442,-208 442,-208 535,-208 535,-208 442,-208"/>
</g>
<!-- gene&#45;&gt;xref -->
<g id="edge8" class="edge">
<title>gene:e&#45;&gt;xref:w</title>
<path fill="none" stroke="black" stroke-dasharray="5,2" d="M542.5,-176C569.83,-176 561.24,-217.61 542.5,-237.5 518.28,-263.21 402.13,-224.39 384.5,-255 364.49,-289.76 378.35,-576.36 384.5,-616 397.09,-697.15 360.57,-791.5 432.62,-799.46"/>
<polygon fill="black" stroke="black" points="432.83,-802.98 443,-800 433.2,-795.98 432.83,-802.98"/>
</g>
<!-- protein_align_feature -->
<g id="node17" class="node">
<title>protein_align_feature</title>
<path fill="#808000" stroke="black" d="M556,-582.5C556,-582.5 420,-582.5 420,-582.5 414,-582.5 408,-576.5 408,-570.5 408,-570.5 408,-497.5 408,-497.5 408,-491.5 414,-485.5 420,-485.5 420,-485.5 556,-485.5 556,-485.5 562,-485.5 568,-491.5 568,-497.5 568,-497.5 568,-570.5 568,-570.5 568,-576.5 562,-582.5 556,-582.5"/>
<text text-anchor="start" x="420" y="-561.2" font-family="Times,serif" font-size="16.00">protein_align_feature</text>
<polygon fill="white" stroke="transparent" points="418,-533 418,-552 558,-552 558,-533 418,-533"/>
<text text-anchor="start" x="482" y="-539.8" font-family="Times,serif" font-style="italic" font-size="14.00">...</text>
<polygon fill="white" stroke="transparent" points="418,-512 418,-531 558,-531 558,-512 418,-512"/>
<text text-anchor="start" x="447" y="-517.8" font-family="Times,serif" font-size="14.00">external_db_id</text>
<polygon fill="white" stroke="transparent" points="418,-491 418,-510 558,-510 558,-491 418,-491"/>
<text text-anchor="start" x="482" y="-497.8" font-family="Times,serif" font-style="italic" font-size="14.00">...</text>
<polygon fill="black" stroke="black" points="416,-553 416,-553 560,-553 560,-553 416,-553"/>
</g>
<!-- protein_align_feature&#45;&gt;external_db -->
<g id="edge14" class="edge">
<title>protein_align_feature:e&#45;&gt;external_db:w</title>
<path fill="none" stroke="black" stroke-dasharray="5,2" d="M559,-521C701.83,-521 497.06,-826.52 622.92,-841.44"/>
<polygon fill="black" stroke="black" points="622.82,-844.94 633,-842 623.21,-837.95 622.82,-844.94"/>
</g>
<!-- transcript -->
<g id="node18" class="node">
<title>transcript</title>
<path fill="#808000" stroke="black" d="M530.5,-352.5C530.5,-352.5 445.5,-352.5 445.5,-352.5 439.5,-352.5 433.5,-346.5 433.5,-340.5 433.5,-340.5 433.5,-267.5 433.5,-267.5 433.5,-261.5 439.5,-255.5 445.5,-255.5 445.5,-255.5 530.5,-255.5 530.5,-255.5 536.5,-255.5 542.5,-261.5 542.5,-267.5 542.5,-267.5 542.5,-340.5 542.5,-340.5 542.5,-346.5 536.5,-352.5 530.5,-352.5"/>
<text text-anchor="start" x="458" y="-331.2" font-family="Times,serif" font-size="16.00">transcript</text>
<polygon fill="white" stroke="transparent" points="444,-303 444,-322 533,-322 533,-303 444,-303"/>
<text text-anchor="start" x="482.5" y="-309.8" font-family="Times,serif" font-style="italic" font-size="14.00">...</text>
<polygon fill="white" stroke="transparent" points="444,-282 444,-301 533,-301 533,-282 444,-282"/>
<text text-anchor="start" x="446" y="-287.8" font-family="Times,serif" font-size="14.00">display_xref_id</text>
<polygon fill="white" stroke="transparent" points="444,-261 444,-280 533,-280 533,-261 444,-261"/>
<text text-anchor="start" x="482.5" y="-267.8" font-family="Times,serif" font-style="italic" font-size="14.00">...</text>
<polygon fill="black" stroke="black" points="442,-323 442,-323 535,-323 535,-323 442,-323"/>
</g>
<!-- transcript&#45;&gt;xref -->
<g id="edge15" class="edge">
<title>transcript:e&#45;&gt;xref:w</title>
<path fill="none" stroke="black" stroke-dasharray="5,2" d="M542.5,-291C569.83,-291 561.24,-332.61 542.5,-352.5 518.28,-378.21 402.13,-339.39 384.5,-370 357.23,-417.38 376.12,-561.98 384.5,-616 397.09,-697.15 360.57,-791.5 432.62,-799.46"/>
<polygon fill="black" stroke="black" points="432.83,-802.98 443,-800 433.2,-795.98 432.83,-802.98"/>
</g>
</g>
</svg>
