<?xml version="1.0" encoding="UTF-8" standalone="no"?>
<!DOCTYPE svg PUBLIC "-//W3C//DTD SVG 1.1//EN"
 "http://www.w3.org/Graphics/SVG/1.1/DTD/svg11.dtd">
<!-- Generated by graphviz version 2.47.0 (20210316.0004)
 -->
<!-- Title: test Pages: 1 -->
<svg width="777pt" height="739pt"
 viewBox="0.00 0.00 777.00 739.00" xmlns="http://www.w3.org/2000/svg" xmlns:xlink="http://www.w3.org/1999/xlink">
<g id="graph0" class="graph" transform="scale(1 1) rotate(0) translate(4 735)">
<title>test</title>
<polygon fill="white" stroke="transparent" points="-4,4 -4,-735 773,-735 773,4 -4,4"/>
<text text-anchor="middle" x="384.5" y="-10" font-family="Times,serif" font-size="20.00">Core schema diagram: Misc tables</text>
<g id="clust1" class="cluster">
<title>cluster_assembly_tables</title>
<polygon fill="white" stroke="white" points="603,-545 603,-672 757,-672 757,-545 603,-545"/>
<text text-anchor="middle" x="680" y="-650" font-family="Times,serif" font-size="20.00">Assembly Tables</text>
</g>
<g id="clust3" class="cluster">
<title>cluster_misc</title>
<path fill="#ffe6cc" stroke="#ffe6cc" d="M20,-40C20,-40 559,-40 559,-40 565,-40 571,-46 571,-52 571,-52 571,-711 571,-711 571,-717 565,-723 559,-723 559,-723 20,-723 20,-723 14,-723 8,-717 8,-711 8,-711 8,-52 8,-52 8,-46 14,-40 20,-40"/>
<text text-anchor="middle" x="289.5" y="-701" font-family="Times,serif" font-size="20.00">Misc</text>
</g>
<g id="clust2" class="cluster">
<title>cluster_fundamental_tables</title>
<polygon fill="white" stroke="white" points="591,-237 591,-461 769,-461 769,-237 591,-237"/>
<text text-anchor="middle" x="680" y="-439" font-family="Times,serif" font-size="20.00">Fundamental Tables</text>
</g>
<!-- operon -->
<g id="node1" class="node">
<title>operon</title>
<path fill="#ff8500" stroke="black" d="M551,-625.5C551,-625.5 449,-625.5 449,-625.5 443,-625.5 437,-619.5 437,-613.5 437,-613.5 437,-360.5 437,-360.5 437,-354.5 443,-348.5 449,-348.5 449,-348.5 551,-348.5 551,-348.5 557,-348.5 563,-354.5 563,-360.5 563,-360.5 563,-613.5 563,-613.5 563,-619.5 557,-625.5 551,-625.5"/>
<text text-anchor="start" x="477.79" y="-602.6" font-family="Times,serif" font-size="16.00">operon</text>
<polygon fill="white" stroke="transparent" points="447,-574 447,-594 553,-594 553,-574 447,-574"/>
<text text-anchor="start" x="454.51" y="-580.4" font-family="Times,serif" font-weight="bold" font-size="14.00">PK</text>
<text text-anchor="start" x="472.4" y="-580.4" font-family="Times,serif" font-size="14.00">  operon_id</text>
<polygon fill="white" stroke="transparent" points="447,-552 447,-572 553,-572 553,-552 447,-552"/>
<text text-anchor="start" x="468.5" y="-557.4" font-family="Times,serif" font-size="14.00">analysis_id</text>
<polygon fill="white" stroke="transparent" points="447,-530 447,-550 553,-550 553,-530 447,-530"/>
<text text-anchor="start" x="460.34" y="-535.4" font-family="Times,serif" font-size="14.00">seq_region_id</text>
<polygon fill="white" stroke="transparent" points="447,-508 447,-528 553,-528 553,-508 447,-508"/>
<text text-anchor="start" x="453.74" y="-513.4" font-family="Times,serif" font-size="14.00">seq_region_start</text>
<polygon fill="white" stroke="transparent" points="447,-486 447,-506 553,-506 553,-486 447,-486"/>
<text text-anchor="start" x="455.68" y="-491.4" font-family="Times,serif" font-size="14.00">seq_region_end</text>
<polygon fill="white" stroke="transparent" points="447,-464 447,-484 553,-484 553,-464 447,-464"/>
<text text-anchor="start" x="448.68" y="-469.4" font-family="Times,serif" font-size="14.00">seq_region_strand</text>
<polygon fill="white" stroke="transparent" points="447,-442 447,-462 553,-462 553,-442 447,-442"/>
<text text-anchor="start" x="462.67" y="-447.4" font-family="Times,serif" font-size="14.00">display_label</text>
<polygon fill="white" stroke="transparent" points="447,-420 447,-440 553,-440 553,-420 447,-420"/>
<text text-anchor="start" x="474.73" y="-425.4" font-family="Times,serif" font-size="14.00">stable_id</text>
<polygon fill="white" stroke="transparent" points="447,-398 447,-418 553,-418 553,-398 447,-398"/>
<text text-anchor="start" x="479.39" y="-403.4" font-family="Times,serif" font-size="14.00">version</text>
<polygon fill="white" stroke="transparent" points="447,-376 447,-396 553,-396 553,-376 447,-376"/>
<text text-anchor="start" x="464.64" y="-381.4" font-family="Times,serif" font-size="14.00">created_date</text>
<polygon fill="white" stroke="transparent" points="447,-354 447,-374 553,-374 553,-354 447,-354"/>
<text text-anchor="start" x="459.57" y="-359.4" font-family="Times,serif" font-size="14.00">modified_date</text>
<polygon fill="black" stroke="black" points="445,-595 445,-595 555,-595 555,-595 445,-595"/>
</g>
<!-- analysis -->
<g id="node7" class="node">
<title>analysis</title>
<path fill="#808000" stroke="black" d="M728,-420.5C728,-420.5 631,-420.5 631,-420.5 625,-420.5 619,-414.5 619,-408.5 619,-408.5 619,-353.5 619,-353.5 619,-347.5 625,-341.5 631,-341.5 631,-341.5 728,-341.5 728,-341.5 734,-341.5 740,-347.5 740,-353.5 740,-353.5 740,-408.5 740,-408.5 740,-414.5 734,-420.5 728,-420.5"/>
<text text-anchor="start" x="654.23" y="-397.6" font-family="Times,serif" font-size="16.00">analysis</text>
<polygon fill="white" stroke="transparent" points="629.5,-369 629.5,-389 730.5,-389 730.5,-369 629.5,-369"/>
<text text-anchor="start" x="631.4" y="-375.4" font-family="Times,serif" font-weight="bold" font-size="14.00">PK</text>
<text text-anchor="start" x="649.29" y="-375.4" font-family="Times,serif" font-size="14.00">  analysis_id</text>
<polygon fill="white" stroke="transparent" points="629.5,-347 629.5,-367 730.5,-367 730.5,-347 629.5,-347"/>
<text text-anchor="start" x="674.75" y="-353.4" font-family="Times,serif" font-style="italic" font-size="14.00">...</text>
<polygon fill="black" stroke="black" points="627.5,-390 627.5,-390 732.5,-390 732.5,-390 627.5,-390"/>
</g>
<!-- operon&#45;&gt;analysis -->
<g id="edge1" class="edge">
<title>operon:e&#45;&gt;analysis:w</title>
<path fill="none" stroke="black" stroke-dasharray="5,2" d="M554,-562C638.04,-562 549.03,-394.39 618.2,-379.98"/>
<polygon fill="black" stroke="black" points="618.88,-383.44 628.5,-379 618.21,-376.47 618.88,-383.44"/>
</g>
<!-- seq_region -->
<g id="node9" class="node">
<title>seq_region</title>
<path fill="#c70c09" stroke="black" d="M736,-631.5C736,-631.5 623,-631.5 623,-631.5 617,-631.5 611,-625.5 611,-619.5 611,-619.5 611,-564.5 611,-564.5 611,-558.5 617,-552.5 623,-552.5 623,-552.5 736,-552.5 736,-552.5 742,-552.5 748,-558.5 748,-564.5 748,-564.5 748,-619.5 748,-619.5 748,-625.5 742,-631.5 736,-631.5"/>
<text text-anchor="start" x="644.9" y="-608.6" font-family="Times,serif" font-size="16.00">seq_region</text>
<polygon fill="white" stroke="transparent" points="621.5,-580 621.5,-600 738.5,-600 738.5,-580 621.5,-580"/>
<text text-anchor="start" x="623.24" y="-586.4" font-family="Times,serif" font-weight="bold" font-size="14.00">PK</text>
<text text-anchor="start" x="641.13" y="-586.4" font-family="Times,serif" font-size="14.00">  seq_region_id</text>
<polygon fill="white" stroke="transparent" points="621.5,-558 621.5,-578 738.5,-578 738.5,-558 621.5,-558"/>
<text text-anchor="start" x="674.75" y="-564.4" font-family="Times,serif" font-style="italic" font-size="14.00">...</text>
<polygon fill="black" stroke="black" points="619.5,-601 619.5,-601 740.5,-601 740.5,-601 619.5,-601"/>
</g>
<!-- operon&#45;&gt;seq_region -->
<g id="edge2" class="edge">
<title>operon:e&#45;&gt;seq_region:w</title>
<path fill="none" stroke="black" stroke-dasharray="5,2" d="M554,-540C587.22,-540 584.58,-580.36 610.52,-588.56"/>
<polygon fill="black" stroke="black" points="610.1,-592.03 620.5,-590 611.1,-585.11 610.1,-592.03"/>
</g>
<!-- operon_transcript -->
<g id="node2" class="node">
<title>operon_transcript</title>
<path fill="#ff8500" stroke="black" d="M389,-682.5C389,-682.5 239,-682.5 239,-682.5 233,-682.5 227,-676.5 227,-670.5 227,-670.5 227,-395.5 227,-395.5 227,-389.5 233,-383.5 239,-383.5 239,-383.5 389,-383.5 389,-383.5 395,-383.5 401,-389.5 401,-395.5 401,-395.5 401,-670.5 401,-670.5 401,-676.5 395,-682.5 389,-682.5"/>
<text text-anchor="start" x="257.58" y="-659.6" font-family="Times,serif" font-size="16.00">operon_transcript</text>
<polygon fill="white" stroke="transparent" points="237,-631 237,-651 391,-651 391,-631 237,-631"/>
<text text-anchor="start" x="238.58" y="-637.4" font-family="Times,serif" font-weight="bold" font-size="14.00">PK</text>
<text text-anchor="start" x="256.47" y="-637.4" font-family="Times,serif" font-size="14.00">  operon_transcript_id</text>
<polygon fill="white" stroke="transparent" points="237,-609 237,-629 391,-629 391,-609 237,-609"/>
<text text-anchor="start" x="282.5" y="-614.4" font-family="Times,serif" font-size="14.00">analysis_id</text>
<polygon fill="white" stroke="transparent" points="237,-587 237,-607 391,-607 391,-587 237,-587"/>
<text text-anchor="start" x="274.34" y="-592.4" font-family="Times,serif" font-size="14.00">seq_region_id</text>
<polygon fill="white" stroke="transparent" points="237,-565 237,-585 391,-585 391,-565 237,-565"/>
<text text-anchor="start" x="267.74" y="-570.4" font-family="Times,serif" font-size="14.00">seq_region_start</text>
<polygon fill="white" stroke="transparent" points="237,-543 237,-563 391,-563 391,-543 237,-543"/>
<text text-anchor="start" x="269.68" y="-548.4" font-family="Times,serif" font-size="14.00">seq_region_end</text>
<polygon fill="white" stroke="transparent" points="237,-521 237,-541 391,-541 391,-521 237,-521"/>
<text text-anchor="start" x="262.68" y="-526.4" font-family="Times,serif" font-size="14.00">seq_region_strand</text>
<polygon fill="white" stroke="transparent" points="237,-499 237,-519 391,-519 391,-499 237,-499"/>
<text text-anchor="start" x="285.62" y="-504.4" font-family="Times,serif" font-size="14.00">operon_id</text>
<polygon fill="white" stroke="transparent" points="237,-477 237,-497 391,-497 391,-477 237,-477"/>
<text text-anchor="start" x="276.67" y="-482.4" font-family="Times,serif" font-size="14.00">display_label</text>
<polygon fill="white" stroke="transparent" points="237,-455 237,-475 391,-475 391,-455 237,-455"/>
<text text-anchor="start" x="288.73" y="-460.4" font-family="Times,serif" font-size="14.00">stable_id</text>
<polygon fill="white" stroke="transparent" points="237,-433 237,-453 391,-453 391,-433 237,-433"/>
<text text-anchor="start" x="293.39" y="-438.4" font-family="Times,serif" font-size="14.00">version</text>
<polygon fill="white" stroke="transparent" points="237,-411 237,-431 391,-431 391,-411 237,-411"/>
<text text-anchor="start" x="278.64" y="-416.4" font-family="Times,serif" font-size="14.00">created_date</text>
<polygon fill="white" stroke="transparent" points="237,-389 237,-409 391,-409 391,-389 237,-389"/>
<text text-anchor="start" x="273.57" y="-394.4" font-family="Times,serif" font-size="14.00">modified_date</text>
<polygon fill="black" stroke="black" points="235,-652 235,-652 393,-652 393,-652 235,-652"/>
</g>
<!-- operon_transcript&#45;&gt;operon -->
<g id="edge4" class="edge">
<title>operon_transcript:e&#45;&gt;operon:w</title>
<path fill="none" stroke="black" stroke-dasharray="5,2" d="M392,-509C429.22,-509 409.6,-570.6 436.16,-582.15"/>
<polygon fill="black" stroke="black" points="435.52,-585.59 446,-584 436.82,-578.71 435.52,-585.59"/>
</g>
<!-- operon_transcript&#45;&gt;analysis -->
<g id="edge3" class="edge">
<title>operon_transcript:e&#45;&gt;analysis:w</title>
<path fill="none" stroke="black" stroke-dasharray="5,2" d="M392,-619C454.8,-619 389.19,-380.72 437,-340 482.34,-301.39 514.07,-322.51 571,-340 596.83,-347.93 597.84,-371.84 618.37,-377.7"/>
<polygon fill="black" stroke="black" points="618.13,-381.19 628.5,-379 619.03,-374.25 618.13,-381.19"/>
</g>
<!-- operon_transcript&#45;&gt;seq_region -->
<g id="edge5" class="edge">
<title>operon_transcript:e&#45;&gt;seq_region:w</title>
<path fill="none" stroke="black" stroke-dasharray="5,2" d="M392,-597C418.18,-597 412.42,-626.01 437,-635 492.93,-655.46 515.45,-656.48 571,-635 595.05,-625.7 592.25,-598.69 610.48,-591.68"/>
<polygon fill="black" stroke="black" points="611.22,-595.1 620.5,-590 610.06,-588.2 611.22,-595.1"/>
</g>
<!-- operon_transcript_gene -->
<g id="node3" class="node">
<title>operon_transcript_gene</title>
<path fill="#ff8500" stroke="black" d="M179,-682.5C179,-682.5 28,-682.5 28,-682.5 22,-682.5 16,-676.5 16,-670.5 16,-670.5 16,-615.5 16,-615.5 16,-609.5 22,-603.5 28,-603.5 28,-603.5 179,-603.5 179,-603.5 185,-603.5 191,-609.5 191,-615.5 191,-615.5 191,-670.5 191,-670.5 191,-676.5 185,-682.5 179,-682.5"/>
<text text-anchor="start" x="28.47" y="-659.6" font-family="Times,serif" font-size="16.00">operon_transcript_gene</text>
<polygon fill="white" stroke="transparent" points="26.5,-631 26.5,-651 181.5,-651 181.5,-631 26.5,-631"/>
<text text-anchor="start" x="45.68" y="-636.4" font-family="Times,serif" font-size="14.00">operon_transcript_id</text>
<polygon fill="white" stroke="transparent" points="26.5,-609 26.5,-629 181.5,-629 181.5,-609 26.5,-609"/>
<text text-anchor="start" x="81.84" y="-614.4" font-family="Times,serif" font-size="14.00">gene_id</text>
<polygon fill="black" stroke="black" points="24.5,-652 24.5,-652 183.5,-652 183.5,-652 24.5,-652"/>
</g>
<!-- operon_transcript_gene&#45;&gt;operon_transcript -->
<g id="edge7" class="edge">
<title>operon_transcript_gene:e&#45;&gt;operon_transcript:w</title>
<path fill="none" stroke="black" stroke-dasharray="5,2" d="M182.5,-641C202.38,-641 209.79,-641 225.58,-641"/>
<polygon fill="black" stroke="black" points="226,-644.5 236,-641 226,-637.5 226,-644.5"/>
</g>
<!-- gene -->
<g id="node8" class="node">
<title>gene</title>
<path fill="#808000" stroke="black" d="M718.5,-323.5C718.5,-323.5 640.5,-323.5 640.5,-323.5 634.5,-323.5 628.5,-317.5 628.5,-311.5 628.5,-311.5 628.5,-256.5 628.5,-256.5 628.5,-250.5 634.5,-244.5 640.5,-244.5 640.5,-244.5 718.5,-244.5 718.5,-244.5 724.5,-244.5 730.5,-250.5 730.5,-256.5 730.5,-256.5 730.5,-311.5 730.5,-311.5 730.5,-317.5 724.5,-323.5 718.5,-323.5"/>
<text text-anchor="start" x="664.4" y="-300.6" font-family="Times,serif" font-size="16.00">gene</text>
<polygon fill="white" stroke="transparent" points="638.5,-272 638.5,-292 720.5,-292 720.5,-272 638.5,-272"/>
<text text-anchor="start" x="640.23" y="-278.4" font-family="Times,serif" font-weight="bold" font-size="14.00">PK</text>
<text text-anchor="start" x="658.12" y="-278.4" font-family="Times,serif" font-size="14.00">  gene_id</text>
<polygon fill="white" stroke="transparent" points="638.5,-250 638.5,-270 720.5,-270 720.5,-250 638.5,-250"/>
<text text-anchor="start" x="674.25" y="-256.4" font-family="Times,serif" font-style="italic" font-size="14.00">...</text>
<polygon fill="black" stroke="black" points="636.5,-293 636.5,-293 722.5,-293 722.5,-293 636.5,-293"/>
</g>
<!-- operon_transcript_gene&#45;&gt;gene -->
<g id="edge6" class="edge">
<title>operon_transcript_gene:e&#45;&gt;gene:w</title>
<path fill="none" stroke="black" stroke-dasharray="5,2" d="M182.5,-619C292.73,-619 153.89,-457.5 227,-375 348.83,-237.53 446.83,-280.36 627.45,-281.96"/>
<polygon fill="black" stroke="black" points="627.48,-285.46 637.5,-282 627.52,-278.46 627.48,-285.46"/>
</g>
<!-- rnaproduct -->
<g id="node4" class="node">
<title>rnaproduct</title>
<path fill="#808000" stroke="black" d="M159.5,-585.5C159.5,-585.5 47.5,-585.5 47.5,-585.5 41.5,-585.5 35.5,-579.5 35.5,-573.5 35.5,-573.5 35.5,-320.5 35.5,-320.5 35.5,-314.5 41.5,-308.5 47.5,-308.5 47.5,-308.5 159.5,-308.5 159.5,-308.5 165.5,-308.5 171.5,-314.5 171.5,-320.5 171.5,-320.5 171.5,-573.5 171.5,-573.5 171.5,-579.5 165.5,-585.5 159.5,-585.5"/>
<text text-anchor="start" x="68.85" y="-562.6" font-family="Times,serif" font-size="16.00">rnaproduct</text>
<polygon fill="white" stroke="transparent" points="45.5,-534 45.5,-554 161.5,-554 161.5,-534 45.5,-534"/>
<text text-anchor="start" x="47.13" y="-540.4" font-family="Times,serif" font-weight="bold" font-size="14.00">PK</text>
<text text-anchor="start" x="65.02" y="-540.4" font-family="Times,serif" font-size="14.00">  rnaproduct_id</text>
<polygon fill="white" stroke="transparent" points="45.5,-512 45.5,-532 161.5,-532 161.5,-512 45.5,-512"/>
<text text-anchor="start" x="48.68" y="-517.4" font-family="Times,serif" font-size="14.00">rnaproduct_type_id</text>
<polygon fill="white" stroke="transparent" points="45.5,-490 45.5,-510 161.5,-510 161.5,-490 45.5,-490"/>
<text text-anchor="start" x="68.12" y="-495.4" font-family="Times,serif" font-size="14.00">transcript_id</text>
<polygon fill="white" stroke="transparent" points="45.5,-468 45.5,-488 161.5,-488 161.5,-468 45.5,-468"/>
<text text-anchor="start" x="78.62" y="-473.4" font-family="Times,serif" font-size="14.00">seq_start</text>
<polygon fill="white" stroke="transparent" points="45.5,-446 45.5,-466 161.5,-466 161.5,-446 45.5,-446"/>
<text text-anchor="start" x="65.4" y="-451.4" font-family="Times,serif" font-size="14.00">start_exon_id</text>
<polygon fill="white" stroke="transparent" points="45.5,-424 45.5,-444 161.5,-444 161.5,-424 45.5,-424"/>
<text text-anchor="start" x="80.56" y="-429.4" font-family="Times,serif" font-size="14.00">seq_end</text>
<polygon fill="white" stroke="transparent" points="45.5,-402 45.5,-422 161.5,-422 161.5,-402 45.5,-402"/>
<text text-anchor="start" x="67.34" y="-407.4" font-family="Times,serif" font-size="14.00">end_exon_id</text>
<polygon fill="white" stroke="transparent" points="45.5,-380 45.5,-400 161.5,-400 161.5,-380 45.5,-380"/>
<text text-anchor="start" x="78.23" y="-385.4" font-family="Times,serif" font-size="14.00">stable_id</text>
<polygon fill="white" stroke="transparent" points="45.5,-358 45.5,-378 161.5,-378 161.5,-358 45.5,-358"/>
<text text-anchor="start" x="82.89" y="-363.4" font-family="Times,serif" font-size="14.00">version</text>
<polygon fill="white" stroke="transparent" points="45.5,-336 45.5,-356 161.5,-356 161.5,-336 45.5,-336"/>
<text text-anchor="start" x="68.14" y="-341.4" font-family="Times,serif" font-size="14.00">created_date</text>
<polygon fill="white" stroke="transparent" points="45.5,-314 45.5,-334 161.5,-334 161.5,-314 45.5,-314"/>
<text text-anchor="start" x="63.07" y="-319.4" font-family="Times,serif" font-size="14.00">modified_date</text>
<polygon fill="black" stroke="black" points="43.5,-555 43.5,-555 163.5,-555 163.5,-555 43.5,-555"/>
</g>
<!-- rnaproduct_attrib -->
<g id="node5" class="node">
<title>rnaproduct_attrib</title>
<path fill="#808000" stroke="black" d="M159,-290.5C159,-290.5 48,-290.5 48,-290.5 42,-290.5 36,-284.5 36,-278.5 36,-278.5 36,-201.5 36,-201.5 36,-195.5 42,-189.5 48,-189.5 48,-189.5 159,-189.5 159,-189.5 165,-189.5 171,-195.5 171,-201.5 171,-201.5 171,-278.5 171,-278.5 171,-284.5 165,-290.5 159,-290.5"/>
<text text-anchor="start" x="48.46" y="-267.6" font-family="Times,serif" font-size="16.00">rnaproduct_attrib</text>
<polygon fill="white" stroke="transparent" points="46.5,-239 46.5,-259 161.5,-259 161.5,-239 46.5,-239"/>
<text text-anchor="start" x="64.73" y="-244.4" font-family="Times,serif" font-size="14.00">rnaproduct_id</text>
<polygon fill="white" stroke="transparent" points="46.5,-217 46.5,-237 161.5,-237 161.5,-217 46.5,-217"/>
<text text-anchor="start" x="64.73" y="-222.4" font-family="Times,serif" font-size="14.00">attrib_type_id</text>
<polygon fill="white" stroke="transparent" points="46.5,-195 46.5,-215 161.5,-215 161.5,-195 46.5,-195"/>
<text text-anchor="start" x="88.84" y="-200.4" font-family="Times,serif" font-size="14.00">value</text>
<polygon fill="black" stroke="black" points="44.5,-260 44.5,-260 163.5,-260 163.5,-260 44.5,-260"/>
</g>
<!-- rnaproduct_type -->
<g id="node6" class="node">
<title>rnaproduct_type</title>
<path fill="#808000" stroke="black" d="M175,-171.5C175,-171.5 32,-171.5 32,-171.5 26,-171.5 20,-165.5 20,-159.5 20,-159.5 20,-60.5 20,-60.5 20,-54.5 26,-48.5 32,-48.5 32,-48.5 175,-48.5 175,-48.5 181,-48.5 187,-54.5 187,-60.5 187,-60.5 187,-159.5 187,-159.5 187,-165.5 181,-171.5 175,-171.5"/>
<text text-anchor="start" x="51.57" y="-148.6" font-family="Times,serif" font-size="16.00">rnaproduct_type</text>
<polygon fill="white" stroke="transparent" points="30.5,-120 30.5,-140 177.5,-140 177.5,-120 30.5,-120"/>
<text text-anchor="start" x="32.08" y="-126.4" font-family="Times,serif" font-weight="bold" font-size="14.00">PK</text>
<text text-anchor="start" x="49.97" y="-126.4" font-family="Times,serif" font-size="14.00">  rnaproduct_type_id</text>
<polygon fill="white" stroke="transparent" points="30.5,-98 30.5,-118 177.5,-118 177.5,-98 30.5,-98"/>
<text text-anchor="start" x="90.79" y="-103.4" font-family="Times,serif" font-size="14.00">code</text>
<polygon fill="white" stroke="transparent" points="30.5,-76 30.5,-96 177.5,-96 177.5,-76 30.5,-76"/>
<text text-anchor="start" x="88.84" y="-81.4" font-family="Times,serif" font-size="14.00">name</text>
<polygon fill="white" stroke="transparent" points="30.5,-54 30.5,-74 177.5,-74 177.5,-54 30.5,-54"/>
<text text-anchor="start" x="72.9" y="-59.4" font-family="Times,serif" font-size="14.00">description</text>
<polygon fill="black" stroke="black" points="28.5,-141 28.5,-141 179.5,-141 179.5,-141 28.5,-141"/>
</g>
</g>
</svg>
