<?xml version="1.0" encoding="UTF-8" standalone="no"?>
<!DOCTYPE svg PUBLIC "-//W3C//DTD SVG 1.1//EN"
 "http://www.w3.org/Graphics/SVG/1.1/DTD/svg11.dtd">
<!-- Generated by graphviz version 2.42.1 (20190717.1914)
 -->
<!-- Title: test Pages: 1 -->
<svg width="798pt" height="1700pt"
 viewBox="0.00 0.00 798.00 1700.00" xmlns="http://www.w3.org/2000/svg" xmlns:xlink="http://www.w3.org/1999/xlink">
<g id="graph0" class="graph" transform="scale(1 1) rotate(0) translate(4 1696)">
<title>test</title>
<polygon fill="white" stroke="transparent" points="-4,4 -4,-1696 794,-1696 794,4 -4,4"/>
<text text-anchor="middle" x="395" y="-10" font-family="Times,serif" font-size="20.00">Core schema diagram: External References tables</text>
<g id="clust1" class="cluster">
<title>cluster_external_references</title>
<path fill="#d2e8ff" stroke="#d2e8ff" d="M20,-629C20,-629 770,-629 770,-629 776,-629 782,-635 782,-641 782,-641 782,-1672 782,-1672 782,-1678 776,-1684 770,-1684 770,-1684 20,-1684 20,-1684 14,-1684 8,-1678 8,-1672 8,-1672 8,-641 8,-641 8,-635 14,-629 20,-629"/>
<text text-anchor="middle" x="395" y="-1664" font-family="Times,serif" font-size="20.00">External References</text>
</g>
<g id="clust2" class="cluster">
<title>cluster_fundamental_tables</title>
<polygon fill="white" stroke="white" points="397.5,-38 397.5,-621 576.5,-621 576.5,-38 397.5,-38"/>
<text text-anchor="middle" x="487" y="-601" font-family="Times,serif" font-size="20.00">Fundamental Tables</text>
</g>
<!-- associated_group -->
<g id="node1" class="node">
<title>associated_group</title>
<path fill="#1e90ff" stroke="black" d="M356,-1540C356,-1540 217,-1540 217,-1540 211,-1540 205,-1534 205,-1528 205,-1528 205,-1476 205,-1476 205,-1470 211,-1464 217,-1464 217,-1464 356,-1464 356,-1464 362,-1464 368,-1470 368,-1476 368,-1476 368,-1528 368,-1528 368,-1534 362,-1540 356,-1540"/>
<text text-anchor="start" x="231" y="-1519.2" font-family="Times,serif" font-size="16.00">associated_group</text>
<polygon fill="white" stroke="transparent" points="215.5,-1491 215.5,-1510 358.5,-1510 358.5,-1491 215.5,-1491"/>
<text text-anchor="start" x="217.5" y="-1497.8" font-family="Times,serif" font-weight="bold" font-size="14.00">PK</text>
<text text-anchor="start" x="237.5" y="-1497.8" font-family="Times,serif" font-size="14.00">  associated_group_id</text>
<polygon fill="white" stroke="transparent" points="215.5,-1470 215.5,-1489 358.5,-1489 358.5,-1470 215.5,-1470"/>
<text text-anchor="start" x="256.5" y="-1475.8" font-family="Times,serif" font-size="14.00">description</text>
<polygon fill="black" stroke="black" points="213.5,-1511 213.5,-1511 360.5,-1511 360.5,-1511 213.5,-1511"/>
</g>
<!-- associated_xref -->
<g id="node2" class="node">
<title>associated_xref</title>
<path fill="#1e90ff" stroke="black" d="M157,-1645.5C157,-1645.5 28,-1645.5 28,-1645.5 22,-1645.5 16,-1639.5 16,-1633.5 16,-1633.5 16,-1476.5 16,-1476.5 16,-1470.5 22,-1464.5 28,-1464.5 28,-1464.5 157,-1464.5 157,-1464.5 163,-1464.5 169,-1470.5 169,-1476.5 169,-1476.5 169,-1633.5 169,-1633.5 169,-1639.5 163,-1645.5 157,-1645.5"/>
<text text-anchor="start" x="43.5" y="-1624.2" font-family="Times,serif" font-size="16.00">associated_xref</text>
<polygon fill="white" stroke="transparent" points="26.5,-1596 26.5,-1615 159.5,-1615 159.5,-1596 26.5,-1596"/>
<text text-anchor="start" x="28.5" y="-1602.8" font-family="Times,serif" font-weight="bold" font-size="14.00">PK</text>
<text text-anchor="start" x="48.5" y="-1602.8" font-family="Times,serif" font-size="14.00">  associated_xref_id</text>
<polygon fill="white" stroke="transparent" points="26.5,-1575 26.5,-1594 159.5,-1594 159.5,-1575 26.5,-1575"/>
<text text-anchor="start" x="53.5" y="-1580.8" font-family="Times,serif" font-size="14.00">object_xref_id</text>
<polygon fill="white" stroke="transparent" points="26.5,-1554 26.5,-1573 159.5,-1573 159.5,-1554 26.5,-1554"/>
<text text-anchor="start" x="73" y="-1559.8" font-family="Times,serif" font-size="14.00">xref_id</text>
<polygon fill="white" stroke="transparent" points="26.5,-1533 26.5,-1552 159.5,-1552 159.5,-1533 26.5,-1533"/>
<text text-anchor="start" x="52" y="-1538.8" font-family="Times,serif" font-size="14.00">source_xref_id</text>
<polygon fill="white" stroke="transparent" points="26.5,-1512 26.5,-1531 159.5,-1531 159.5,-1512 26.5,-1512"/>
<text text-anchor="start" x="52" y="-1517.8" font-family="Times,serif" font-size="14.00">condition_type</text>
<polygon fill="white" stroke="transparent" points="26.5,-1491 26.5,-1510 159.5,-1510 159.5,-1491 26.5,-1491"/>
<text text-anchor="start" x="37" y="-1496.8" font-family="Times,serif" font-size="14.00">associated_group_id</text>
<polygon fill="white" stroke="transparent" points="26.5,-1470 26.5,-1489 159.5,-1489 159.5,-1470 26.5,-1470"/>
<text text-anchor="start" x="80.5" y="-1475.8" font-family="Times,serif" font-size="14.00">rank</text>
<polygon fill="black" stroke="black" points="24.5,-1616 24.5,-1616 161.5,-1616 161.5,-1616 24.5,-1616"/>
</g>
<!-- associated_xref&#45;&gt;associated_group -->
<g id="edge1" class="edge">
<title>associated_xref:e&#45;&gt;associated_group:w</title>
<path fill="none" stroke="black" stroke-dasharray="5,2" d="M160.5,-1500C180.75,-1500 188.19,-1500 204.43,-1500"/>
<polygon fill="black" stroke="black" points="204.5,-1503.5 214.5,-1500 204.5,-1496.5 204.5,-1503.5"/>
</g>
<!-- object_xref -->
<g id="node9" class="node">
<title>object_xref</title>
<path fill="#1e90ff" stroke="black" d="M344.5,-903C344.5,-903 228.5,-903 228.5,-903 222.5,-903 216.5,-897 216.5,-891 216.5,-891 216.5,-755 216.5,-755 216.5,-749 222.5,-743 228.5,-743 228.5,-743 344.5,-743 344.5,-743 350.5,-743 356.5,-749 356.5,-755 356.5,-755 356.5,-891 356.5,-891 356.5,-897 350.5,-903 344.5,-903"/>
<text text-anchor="start" x="250" y="-882.2" font-family="Times,serif" font-size="16.00">object_xref</text>
<polygon fill="white" stroke="transparent" points="226.5,-854 226.5,-873 346.5,-873 346.5,-854 226.5,-854"/>
<text text-anchor="start" x="233" y="-860.8" font-family="Times,serif" font-weight="bold" font-size="14.00">PK</text>
<text text-anchor="start" x="253" y="-860.8" font-family="Times,serif" font-size="14.00">  object_xref_id</text>
<polygon fill="white" stroke="transparent" points="226.5,-833 226.5,-852 346.5,-852 346.5,-833 226.5,-833"/>
<text text-anchor="start" x="254.5" y="-838.8" font-family="Times,serif" font-size="14.00">ensembl_id</text>
<polygon fill="white" stroke="transparent" points="226.5,-812 226.5,-831 346.5,-831 346.5,-812 226.5,-812"/>
<text text-anchor="start" x="228.5" y="-817.8" font-family="Times,serif" font-size="14.00">ensembl_object_type</text>
<polygon fill="white" stroke="transparent" points="226.5,-791 226.5,-810 346.5,-810 346.5,-791 226.5,-791"/>
<text text-anchor="start" x="266.5" y="-796.8" font-family="Times,serif" font-size="14.00">xref_id</text>
<polygon fill="white" stroke="transparent" points="226.5,-770 226.5,-789 346.5,-789 346.5,-770 226.5,-770"/>
<text text-anchor="start" x="234.5" y="-775.8" font-family="Times,serif" font-size="14.00">linkage_annotation</text>
<polygon fill="white" stroke="transparent" points="226.5,-749 226.5,-768 346.5,-768 346.5,-749 226.5,-749"/>
<text text-anchor="start" x="256" y="-754.8" font-family="Times,serif" font-size="14.00">analysis_id</text>
<polygon fill="black" stroke="black" points="224.5,-874 224.5,-874 348.5,-874 348.5,-874 224.5,-874"/>
</g>
<!-- associated_xref&#45;&gt;object_xref -->
<g id="edge2" class="edge">
<title>associated_xref:e&#45;&gt;object_xref:w</title>
<path fill="none" stroke="black" stroke-dasharray="5,2" d="M160.5,-1585C237.48,-1585 152.98,-924.63 216.08,-867.88"/>
<polygon fill="black" stroke="black" points="217.59,-871.04 225.5,-864 214.92,-864.57 217.59,-871.04"/>
</g>
<!-- xref -->
<g id="node13" class="node">
<title>xref</title>
<path fill="#1e90ff" stroke="black" d="M528,-839C528,-839 446,-839 446,-839 440,-839 434,-833 434,-827 434,-827 434,-649 434,-649 434,-643 440,-637 446,-637 446,-637 528,-637 528,-637 534,-637 540,-643 540,-649 540,-649 540,-827 540,-827 540,-833 534,-839 528,-839"/>
<text text-anchor="start" x="474" y="-818.2" font-family="Times,serif" font-size="16.00">xref</text>
<polygon fill="white" stroke="transparent" points="444,-790 444,-809 530,-809 530,-790 444,-790"/>
<text text-anchor="start" x="453.5" y="-796.8" font-family="Times,serif" font-weight="bold" font-size="14.00">PK</text>
<text text-anchor="start" x="473.5" y="-796.8" font-family="Times,serif" font-size="14.00">  xref_id</text>
<polygon fill="white" stroke="transparent" points="444,-769 444,-788 530,-788 530,-769 444,-769"/>
<text text-anchor="start" x="446" y="-774.8" font-family="Times,serif" font-size="14.00">external_db_id</text>
<polygon fill="white" stroke="transparent" points="444,-748 444,-767 530,-767 530,-748 444,-748"/>
<text text-anchor="start" x="446" y="-753.8" font-family="Times,serif" font-size="14.00">dbprimary_acc</text>
<polygon fill="white" stroke="transparent" points="444,-727 444,-746 530,-746 530,-727 444,-727"/>
<text text-anchor="start" x="450.5" y="-732.8" font-family="Times,serif" font-size="14.00">display_label</text>
<polygon fill="white" stroke="transparent" points="444,-706 444,-725 530,-725 530,-706 444,-706"/>
<text text-anchor="start" x="467" y="-711.8" font-family="Times,serif" font-size="14.00">version</text>
<polygon fill="white" stroke="transparent" points="444,-685 444,-704 530,-704 530,-685 444,-685"/>
<text text-anchor="start" x="456.5" y="-690.8" font-family="Times,serif" font-size="14.00">description</text>
<polygon fill="white" stroke="transparent" points="444,-664 444,-683 530,-683 530,-664 444,-664"/>
<text text-anchor="start" x="461" y="-669.8" font-family="Times,serif" font-size="14.00">info_type</text>
<polygon fill="white" stroke="transparent" points="444,-643 444,-662 530,-662 530,-643 444,-643"/>
<text text-anchor="start" x="462.5" y="-648.8" font-family="Times,serif" font-size="14.00">info_text</text>
<polygon fill="black" stroke="black" points="442,-810 442,-810 532,-810 532,-810 442,-810"/>
</g>
<!-- associated_xref&#45;&gt;xref -->
<g id="edge3" class="edge">
<title>associated_xref:e&#45;&gt;xref:w</title>
<path fill="none" stroke="black" stroke-dasharray="5,2" d="M160.5,-1564C252.96,-1564 303.61,-1615.36 368,-1549 422.21,-1493.13 367.53,-920.84 397.5,-849 407.51,-825 412.09,-805.48 432.98,-800.98"/>
<polygon fill="black" stroke="black" points="433.39,-804.46 443,-800 432.71,-797.49 433.39,-804.46"/>
</g>
<!-- biotype -->
<g id="node3" class="node">
<title>biotype</title>
<path fill="#1e90ff" stroke="black" d="M135.5,-1446.5C135.5,-1446.5 49.5,-1446.5 49.5,-1446.5 43.5,-1446.5 37.5,-1440.5 37.5,-1434.5 37.5,-1434.5 37.5,-1235.5 37.5,-1235.5 37.5,-1229.5 43.5,-1223.5 49.5,-1223.5 49.5,-1223.5 135.5,-1223.5 135.5,-1223.5 141.5,-1223.5 147.5,-1229.5 147.5,-1235.5 147.5,-1235.5 147.5,-1434.5 147.5,-1434.5 147.5,-1440.5 141.5,-1446.5 135.5,-1446.5"/>
<text text-anchor="start" x="68" y="-1425.2" font-family="Times,serif" font-size="16.00">biotype</text>
<polygon fill="white" stroke="transparent" points="47.5,-1397 47.5,-1416 137.5,-1416 137.5,-1397 47.5,-1397"/>
<text text-anchor="start" x="49.5" y="-1403.8" font-family="Times,serif" font-weight="bold" font-size="14.00">PK</text>
<text text-anchor="start" x="69.5" y="-1403.8" font-family="Times,serif" font-size="14.00">  biotype_id</text>
<polygon fill="white" stroke="transparent" points="47.5,-1376 47.5,-1395 137.5,-1395 137.5,-1376 47.5,-1376"/>
<text text-anchor="start" x="77" y="-1381.8" font-family="Times,serif" font-size="14.00">name</text>
<polygon fill="white" stroke="transparent" points="47.5,-1355 47.5,-1374 137.5,-1374 137.5,-1355 47.5,-1355"/>
<text text-anchor="start" x="60.5" y="-1360.8" font-family="Times,serif" font-size="14.00">object_type</text>
<polygon fill="white" stroke="transparent" points="47.5,-1334 47.5,-1353 137.5,-1353 137.5,-1334 47.5,-1334"/>
<text text-anchor="start" x="70.5" y="-1339.8" font-family="Times,serif" font-size="14.00">db_type</text>
<polygon fill="white" stroke="transparent" points="47.5,-1313 47.5,-1332 137.5,-1332 137.5,-1313 47.5,-1313"/>
<text text-anchor="start" x="54.5" y="-1318.8" font-family="Times,serif" font-size="14.00">attrib_type_id</text>
<polygon fill="white" stroke="transparent" points="47.5,-1292 47.5,-1311 137.5,-1311 137.5,-1292 47.5,-1292"/>
<text text-anchor="start" x="62" y="-1297.8" font-family="Times,serif" font-size="14.00">description</text>
<polygon fill="white" stroke="transparent" points="47.5,-1271 47.5,-1290 137.5,-1290 137.5,-1271 47.5,-1271"/>
<text text-anchor="start" x="53" y="-1276.8" font-family="Times,serif" font-size="14.00">biotype_group</text>
<polygon fill="white" stroke="transparent" points="47.5,-1250 47.5,-1269 137.5,-1269 137.5,-1250 47.5,-1250"/>
<text text-anchor="start" x="74" y="-1255.8" font-family="Times,serif" font-size="14.00">so_acc</text>
<polygon fill="white" stroke="transparent" points="47.5,-1229 47.5,-1248 137.5,-1248 137.5,-1229 47.5,-1229"/>
<text text-anchor="start" x="70" y="-1234.8" font-family="Times,serif" font-size="14.00">so_term</text>
<polygon fill="black" stroke="black" points="45.5,-1417 45.5,-1417 139.5,-1417 139.5,-1417 45.5,-1417"/>
</g>
<!-- dependent_xref -->
<g id="node4" class="node">
<title>dependent_xref</title>
<path fill="#1e90ff" stroke="black" d="M146,-1205.5C146,-1205.5 39,-1205.5 39,-1205.5 33,-1205.5 27,-1199.5 27,-1193.5 27,-1193.5 27,-1120.5 27,-1120.5 27,-1114.5 33,-1108.5 39,-1108.5 39,-1108.5 146,-1108.5 146,-1108.5 152,-1108.5 158,-1114.5 158,-1120.5 158,-1120.5 158,-1193.5 158,-1193.5 158,-1199.5 152,-1205.5 146,-1205.5"/>
<text text-anchor="start" x="43" y="-1184.2" font-family="Times,serif" font-size="16.00">dependent_xref</text>
<polygon fill="white" stroke="transparent" points="37.5,-1156 37.5,-1175 148.5,-1175 148.5,-1156 37.5,-1156"/>
<text text-anchor="start" x="39.5" y="-1162.8" font-family="Times,serif" font-weight="bold" font-size="14.00">PK</text>
<text text-anchor="start" x="59.5" y="-1162.8" font-family="Times,serif" font-size="14.00">  object_xref_id</text>
<polygon fill="white" stroke="transparent" points="37.5,-1135 37.5,-1154 148.5,-1154 148.5,-1135 37.5,-1135"/>
<text text-anchor="start" x="51.5" y="-1140.8" font-family="Times,serif" font-size="14.00">master_xref_id</text>
<polygon fill="white" stroke="transparent" points="37.5,-1114 37.5,-1133 148.5,-1133 148.5,-1114 37.5,-1114"/>
<text text-anchor="start" x="42" y="-1119.8" font-family="Times,serif" font-size="14.00">dependent_xref_id</text>
<polygon fill="black" stroke="black" points="35.5,-1176 35.5,-1176 150.5,-1176 150.5,-1176 35.5,-1176"/>
</g>
<!-- dependent_xref&#45;&gt;object_xref -->
<g id="edge4" class="edge">
<title>dependent_xref:e&#45;&gt;object_xref:w</title>
<path fill="none" stroke="black" stroke-dasharray="5,2" d="M149.5,-1166C284.26,-1166 97.45,-879.72 215.25,-864.62"/>
<polygon fill="black" stroke="black" points="215.73,-868.1 225.5,-864 215.31,-861.11 215.73,-868.1"/>
</g>
<!-- dependent_xref&#45;&gt;xref -->
<g id="edge5" class="edge">
<title>dependent_xref:e&#45;&gt;xref:w</title>
<path fill="none" stroke="black" stroke-dasharray="5,2" d="M149.5,-1144C264.36,-1144 303.47,-1101.02 368,-1006 420.71,-928.39 351.11,-809.25 432.86,-800.51"/>
<polygon fill="black" stroke="black" points="433.19,-804 443,-800 432.84,-797.01 433.19,-804"/>
</g>
<!-- external_db -->
<g id="node5" class="node">
<title>external_db</title>
<path fill="#1e90ff" stroke="black" d="M746,-881C746,-881 634,-881 634,-881 628,-881 622,-875 622,-869 622,-869 622,-649 622,-649 622,-643 628,-637 634,-637 634,-637 746,-637 746,-637 752,-637 758,-643 758,-649 758,-649 758,-869 758,-869 758,-875 752,-881 746,-881"/>
<text text-anchor="start" x="652" y="-860.2" font-family="Times,serif" font-size="16.00">external_db</text>
<polygon fill="white" stroke="transparent" points="632,-832 632,-851 748,-851 748,-832 632,-832"/>
<text text-anchor="start" x="635.5" y="-838.8" font-family="Times,serif" font-weight="bold" font-size="14.00">PK</text>
<text text-anchor="start" x="655.5" y="-838.8" font-family="Times,serif" font-size="14.00">  external_db_id</text>
<polygon fill="white" stroke="transparent" points="632,-811 632,-830 748,-830 748,-811 632,-811"/>
<text text-anchor="start" x="664.5" y="-816.8" font-family="Times,serif" font-size="14.00">db_name</text>
<polygon fill="white" stroke="transparent" points="632,-790 632,-809 748,-809 748,-790 632,-790"/>
<text text-anchor="start" x="661" y="-795.8" font-family="Times,serif" font-size="14.00">db_release</text>
<polygon fill="white" stroke="transparent" points="632,-769 632,-788 748,-788 748,-769 632,-769"/>
<text text-anchor="start" x="674.5" y="-774.8" font-family="Times,serif" font-size="14.00">status</text>
<polygon fill="white" stroke="transparent" points="632,-748 632,-767 748,-767 748,-748 632,-748"/>
<text text-anchor="start" x="669.5" y="-753.8" font-family="Times,serif" font-size="14.00">priority</text>
<polygon fill="white" stroke="transparent" points="632,-727 632,-746 748,-746 748,-727 632,-727"/>
<text text-anchor="start" x="641.5" y="-732.8" font-family="Times,serif" font-size="14.00">db_display_name</text>
<polygon fill="white" stroke="transparent" points="632,-706 632,-725 748,-725 748,-706 632,-706"/>
<text text-anchor="start" x="678" y="-711.8" font-family="Times,serif" font-size="14.00">type</text>
<polygon fill="white" stroke="transparent" points="632,-685 632,-704 748,-704 748,-685 632,-685"/>
<text text-anchor="start" x="634" y="-690.8" font-family="Times,serif" font-size="14.00">secondary_db_name</text>
<polygon fill="white" stroke="transparent" points="632,-664 632,-683 748,-683 748,-664 632,-664"/>
<text text-anchor="start" x="635.5" y="-669.8" font-family="Times,serif" font-size="14.00">secondary_db_table</text>
<polygon fill="white" stroke="transparent" points="632,-643 632,-662 748,-662 748,-643 632,-643"/>
<text text-anchor="start" x="659.5" y="-648.8" font-family="Times,serif" font-size="14.00">description</text>
<polygon fill="black" stroke="black" points="630,-852 630,-852 750,-852 750,-852 630,-852"/>
</g>
<!-- external_synonym -->
<g id="node6" class="node">
<title>external_synonym</title>
<path fill="#1e90ff" stroke="black" d="M346.5,-997C346.5,-997 226.5,-997 226.5,-997 220.5,-997 214.5,-991 214.5,-985 214.5,-985 214.5,-933 214.5,-933 214.5,-927 220.5,-921 226.5,-921 226.5,-921 346.5,-921 346.5,-921 352.5,-921 358.5,-927 358.5,-933 358.5,-933 358.5,-985 358.5,-985 358.5,-991 352.5,-997 346.5,-997"/>
<text text-anchor="start" x="226.5" y="-976.2" font-family="Times,serif" font-size="16.00">external_synonym</text>
<polygon fill="white" stroke="transparent" points="224.5,-948 224.5,-967 348.5,-967 348.5,-948 224.5,-948"/>
<text text-anchor="start" x="253" y="-954.8" font-family="Times,serif" font-weight="bold" font-size="14.00">PK</text>
<text text-anchor="start" x="273" y="-954.8" font-family="Times,serif" font-size="14.00">  xref_id</text>
<polygon fill="white" stroke="transparent" points="224.5,-927 224.5,-946 348.5,-946 348.5,-927 224.5,-927"/>
<text text-anchor="start" x="247.5" y="-933.8" font-family="Times,serif" font-weight="bold" font-size="14.00">PK</text>
<text text-anchor="start" x="267.5" y="-933.8" font-family="Times,serif" font-size="14.00">  synonym</text>
<polygon fill="black" stroke="black" points="222.5,-968 222.5,-968 350.5,-968 350.5,-968 222.5,-968"/>
</g>
<!-- external_synonym&#45;&gt;xref -->
<g id="edge7" class="edge">
<title>external_synonym:e&#45;&gt;xref:w</title>
<path fill="none" stroke="black" stroke-dasharray="5,2" d="M349.5,-957C402.03,-957 368.57,-892.84 397.5,-849 411.76,-827.39 413.15,-806.25 432.92,-801.16"/>
<polygon fill="black" stroke="black" points="433.46,-804.62 443,-800 432.67,-797.66 433.46,-804.62"/>
</g>
<!-- identity_xref -->
<g id="node7" class="node">
<title>identity_xref</title>
<path fill="#1e90ff" stroke="black" d="M146,-1090C146,-1090 39,-1090 39,-1090 33,-1090 27,-1084 27,-1078 27,-1078 27,-858 27,-858 27,-852 33,-846 39,-846 39,-846 146,-846 146,-846 152,-846 158,-852 158,-858 158,-858 158,-1078 158,-1078 158,-1084 152,-1090 146,-1090"/>
<text text-anchor="start" x="51" y="-1069.2" font-family="Times,serif" font-size="16.00">identity_xref</text>
<polygon fill="white" stroke="transparent" points="37.5,-1041 37.5,-1060 148.5,-1060 148.5,-1041 37.5,-1041"/>
<text text-anchor="start" x="39.5" y="-1047.8" font-family="Times,serif" font-weight="bold" font-size="14.00">PK</text>
<text text-anchor="start" x="59.5" y="-1047.8" font-family="Times,serif" font-size="14.00">  object_xref_id</text>
<polygon fill="white" stroke="transparent" points="37.5,-1020 37.5,-1039 148.5,-1039 148.5,-1020 37.5,-1020"/>
<text text-anchor="start" x="58" y="-1025.8" font-family="Times,serif" font-size="14.00">xref_identity</text>
<polygon fill="white" stroke="transparent" points="37.5,-999 37.5,-1018 148.5,-1018 148.5,-999 37.5,-999"/>
<text text-anchor="start" x="46" y="-1004.8" font-family="Times,serif" font-size="14.00">ensembl_identity</text>
<polygon fill="white" stroke="transparent" points="37.5,-978 37.5,-997 148.5,-997 148.5,-978 37.5,-978"/>
<text text-anchor="start" x="67" y="-983.8" font-family="Times,serif" font-size="14.00">xref_start</text>
<polygon fill="white" stroke="transparent" points="37.5,-957 37.5,-976 148.5,-976 148.5,-957 37.5,-957"/>
<text text-anchor="start" x="68.5" y="-962.8" font-family="Times,serif" font-size="14.00">xref_end</text>
<polygon fill="white" stroke="transparent" points="37.5,-936 37.5,-955 148.5,-955 148.5,-936 37.5,-936"/>
<text text-anchor="start" x="55" y="-941.8" font-family="Times,serif" font-size="14.00">ensembl_start</text>
<polygon fill="white" stroke="transparent" points="37.5,-915 37.5,-934 148.5,-934 148.5,-915 37.5,-915"/>
<text text-anchor="start" x="56.5" y="-920.8" font-family="Times,serif" font-size="14.00">ensembl_end</text>
<polygon fill="white" stroke="transparent" points="37.5,-894 37.5,-913 148.5,-913 148.5,-894 37.5,-894"/>
<text text-anchor="start" x="65.5" y="-899.8" font-family="Times,serif" font-size="14.00">cigar_line</text>
<polygon fill="white" stroke="transparent" points="37.5,-873 37.5,-892 148.5,-892 148.5,-873 37.5,-873"/>
<text text-anchor="start" x="78.5" y="-878.8" font-family="Times,serif" font-size="14.00">score</text>
<polygon fill="white" stroke="transparent" points="37.5,-852 37.5,-871 148.5,-871 148.5,-852 37.5,-852"/>
<text text-anchor="start" x="75" y="-857.8" font-family="Times,serif" font-size="14.00">evalue</text>
<polygon fill="black" stroke="black" points="35.5,-1061 35.5,-1061 150.5,-1061 150.5,-1061 35.5,-1061"/>
</g>
<!-- identity_xref&#45;&gt;object_xref -->
<g id="edge9" class="edge">
<title>identity_xref:e&#45;&gt;object_xref:w</title>
<path fill="none" stroke="black" stroke-dasharray="5,2" d="M149.5,-1051C235.53,-1051 143.95,-879.03 215.41,-864.92"/>
<polygon fill="black" stroke="black" points="215.86,-868.39 225.5,-864 215.22,-861.42 215.86,-868.39"/>
</g>
<!-- interpro -->
<g id="node8" class="node">
<title>interpro</title>
<path fill="#1e90ff" stroke="black" d="M123.5,-828C123.5,-828 61.5,-828 61.5,-828 55.5,-828 49.5,-822 49.5,-816 49.5,-816 49.5,-764 49.5,-764 49.5,-758 55.5,-752 61.5,-752 61.5,-752 123.5,-752 123.5,-752 129.5,-752 135.5,-758 135.5,-764 135.5,-764 135.5,-816 135.5,-816 135.5,-822 129.5,-828 123.5,-828"/>
<text text-anchor="start" x="66.5" y="-807.2" font-family="Times,serif" font-size="16.00">interpro</text>
<polygon fill="white" stroke="transparent" points="59.5,-779 59.5,-798 125.5,-798 125.5,-779 59.5,-779"/>
<text text-anchor="start" x="61.5" y="-784.8" font-family="Times,serif" font-size="14.00">interpro_ac</text>
<polygon fill="white" stroke="transparent" points="59.5,-758 59.5,-777 125.5,-777 125.5,-758 59.5,-758"/>
<text text-anchor="start" x="87" y="-763.8" font-family="Times,serif" font-size="14.00">id</text>
<polygon fill="black" stroke="black" points="57.5,-799 57.5,-799 127.5,-799 127.5,-799 57.5,-799"/>
</g>
<!-- object_xref&#45;&gt;xref -->
<g id="edge11" class="edge">
<title>object_xref:e&#45;&gt;xref:w</title>
<path fill="none" stroke="black" stroke-dasharray="5,2" d="M347.5,-800C386.3,-800 398.5,-800 432.72,-800"/>
<polygon fill="black" stroke="black" points="433,-803.5 443,-800 433,-796.5 433,-803.5"/>
</g>
<!-- analysis -->
<g id="node14" class="node">
<title>analysis</title>
<path fill="#808000" stroke="black" d="M531.5,-122C531.5,-122 442.5,-122 442.5,-122 436.5,-122 430.5,-116 430.5,-110 430.5,-110 430.5,-58 430.5,-58 430.5,-52 436.5,-46 442.5,-46 442.5,-46 531.5,-46 531.5,-46 537.5,-46 543.5,-52 543.5,-58 543.5,-58 543.5,-110 543.5,-110 543.5,-116 537.5,-122 531.5,-122"/>
<text text-anchor="start" x="461.5" y="-101.2" font-family="Times,serif" font-size="16.00">analysis</text>
<polygon fill="white" stroke="transparent" points="441,-73 441,-92 534,-92 534,-73 441,-73"/>
<text text-anchor="start" x="443" y="-79.8" font-family="Times,serif" font-weight="bold" font-size="14.00">PK</text>
<text text-anchor="start" x="463" y="-79.8" font-family="Times,serif" font-size="14.00">  analysis_id</text>
<polygon fill="white" stroke="transparent" points="441,-52 441,-71 534,-71 534,-52 441,-52"/>
<text text-anchor="start" x="481.5" y="-58.8" font-family="Times,serif" font-style="italic" font-size="14.00">...</text>
<polygon fill="black" stroke="black" points="439,-93 439,-93 536,-93 536,-93 439,-93"/>
</g>
<!-- object_xref&#45;&gt;analysis -->
<g id="edge10" class="edge">
<title>object_xref:e&#45;&gt;analysis:w</title>
<path fill="none" stroke="black" stroke-dasharray="5,2" d="M347.5,-758C417.39,-758 370.48,-195.45 397.5,-131 407.17,-107.95 410.35,-88.03 429.82,-83.14"/>
<polygon fill="black" stroke="black" points="430.45,-86.59 440,-82 429.67,-79.64 430.45,-86.59"/>
</g>
<!-- ontology_xref -->
<g id="node10" class="node">
<title>ontology_xref</title>
<path fill="#1e90ff" stroke="black" d="M139,-733.5C139,-733.5 46,-733.5 46,-733.5 40,-733.5 34,-727.5 34,-721.5 34,-721.5 34,-648.5 34,-648.5 34,-642.5 40,-636.5 46,-636.5 46,-636.5 139,-636.5 139,-636.5 145,-636.5 151,-642.5 151,-648.5 151,-648.5 151,-721.5 151,-721.5 151,-727.5 145,-733.5 139,-733.5"/>
<text text-anchor="start" x="46.5" y="-712.2" font-family="Times,serif" font-size="16.00">ontology_xref</text>
<polygon fill="white" stroke="transparent" points="44.5,-684 44.5,-703 141.5,-703 141.5,-684 44.5,-684"/>
<text text-anchor="start" x="53.5" y="-689.8" font-family="Times,serif" font-size="14.00">object_xref_id</text>
<polygon fill="white" stroke="transparent" points="44.5,-663 44.5,-682 141.5,-682 141.5,-663 44.5,-663"/>
<text text-anchor="start" x="52" y="-668.8" font-family="Times,serif" font-size="14.00">source_xref_id</text>
<polygon fill="white" stroke="transparent" points="44.5,-642 44.5,-661 141.5,-661 141.5,-642 44.5,-642"/>
<text text-anchor="start" x="58" y="-647.8" font-family="Times,serif" font-size="14.00">linkage_type</text>
<polygon fill="black" stroke="black" points="42.5,-704 42.5,-704 143.5,-704 143.5,-704 42.5,-704"/>
</g>
<!-- ontology_xref&#45;&gt;object_xref -->
<g id="edge12" class="edge">
<title>ontology_xref:e&#45;&gt;object_xref:w</title>
<path fill="none" stroke="black" stroke-dasharray="5,2" d="M142.5,-694C222.8,-694 148.73,-849.07 215.16,-863"/>
<polygon fill="black" stroke="black" points="215.21,-866.52 225.5,-864 215.88,-859.55 215.21,-866.52"/>
</g>
<!-- ontology_xref&#45;&gt;xref -->
<g id="edge13" class="edge">
<title>ontology_xref:e&#45;&gt;xref:w</title>
<path fill="none" stroke="black" stroke-dasharray="5,2" d="M142.5,-672C246.44,-672 276.53,-684.63 368,-734 403.72,-753.28 399.7,-792.46 432.66,-799.05"/>
<polygon fill="black" stroke="black" points="432.72,-802.57 443,-800 433.36,-795.6 432.72,-802.57"/>
</g>
<!-- unmapped_object -->
<g id="node11" class="node">
<title>unmapped_object</title>
<path fill="#1e90ff" stroke="black" d="M558,-1122.5C558,-1122.5 416,-1122.5 416,-1122.5 410,-1122.5 404,-1116.5 404,-1110.5 404,-1110.5 404,-869.5 404,-869.5 404,-863.5 410,-857.5 416,-857.5 416,-857.5 558,-857.5 558,-857.5 564,-857.5 570,-863.5 570,-869.5 570,-869.5 570,-1110.5 570,-1110.5 570,-1116.5 564,-1122.5 558,-1122.5"/>
<text text-anchor="start" x="429.5" y="-1101.2" font-family="Times,serif" font-size="16.00">unmapped_object</text>
<polygon fill="white" stroke="transparent" points="414,-1073 414,-1092 560,-1092 560,-1073 414,-1073"/>
<text text-anchor="start" x="416" y="-1079.8" font-family="Times,serif" font-weight="bold" font-size="14.00">PK</text>
<text text-anchor="start" x="436" y="-1079.8" font-family="Times,serif" font-size="14.00">  unmapped_object_id</text>
<polygon fill="white" stroke="transparent" points="414,-1052 414,-1071 560,-1071 560,-1052 414,-1052"/>
<text text-anchor="start" x="475" y="-1057.8" font-family="Times,serif" font-size="14.00">type</text>
<polygon fill="white" stroke="transparent" points="414,-1031 414,-1050 560,-1050 560,-1031 414,-1031"/>
<text text-anchor="start" x="456.5" y="-1036.8" font-family="Times,serif" font-size="14.00">analysis_id</text>
<polygon fill="white" stroke="transparent" points="414,-1010 414,-1029 560,-1029 560,-1010 414,-1010"/>
<text text-anchor="start" x="446" y="-1015.8" font-family="Times,serif" font-size="14.00">external_db_id</text>
<polygon fill="white" stroke="transparent" points="414,-989 414,-1008 560,-1008 560,-989 414,-989"/>
<text text-anchor="start" x="462" y="-994.8" font-family="Times,serif" font-size="14.00">identifier</text>
<polygon fill="white" stroke="transparent" points="414,-968 414,-987 560,-987 560,-968 414,-968"/>
<text text-anchor="start" x="428.5" y="-973.8" font-family="Times,serif" font-size="14.00">unmapped_reason_id</text>
<polygon fill="white" stroke="transparent" points="414,-947 414,-966 560,-966 560,-947 414,-947"/>
<text text-anchor="start" x="453.5" y="-952.8" font-family="Times,serif" font-size="14.00">query_score</text>
<polygon fill="white" stroke="transparent" points="414,-926 414,-945 560,-945 560,-926 414,-926"/>
<text text-anchor="start" x="453.5" y="-931.8" font-family="Times,serif" font-size="14.00">target_score</text>
<polygon fill="white" stroke="transparent" points="414,-905 414,-924 560,-924 560,-905 414,-905"/>
<text text-anchor="start" x="455" y="-910.8" font-family="Times,serif" font-size="14.00">ensembl_id</text>
<polygon fill="white" stroke="transparent" points="414,-884 414,-903 560,-903 560,-884 414,-884"/>
<text text-anchor="start" x="429" y="-889.8" font-family="Times,serif" font-size="14.00">ensembl_object_type</text>
<polygon fill="white" stroke="transparent" points="414,-863 414,-882 560,-882 560,-863 414,-863"/>
<text text-anchor="start" x="470" y="-868.8" font-family="Times,serif" font-size="14.00">parent</text>
<polygon fill="black" stroke="black" points="412,-1093 412,-1093 562,-1093 562,-1093 412,-1093"/>
</g>
<!-- unmapped_object&#45;&gt;external_db -->
<g id="edge17" class="edge">
<title>unmapped_object:e&#45;&gt;external_db:w</title>
<path fill="none" stroke="black" stroke-dasharray="5,2" d="M561,-1020C642.36,-1020 554.24,-856.97 621.04,-842.96"/>
<polygon fill="black" stroke="black" points="621.38,-846.44 631,-842 620.71,-839.47 621.38,-846.44"/>
</g>
<!-- unmapped_reason -->
<g id="node12" class="node">
<title>unmapped_reason</title>
<path fill="#1e90ff" stroke="black" d="M762,-1016.5C762,-1016.5 618,-1016.5 618,-1016.5 612,-1016.5 606,-1010.5 606,-1004.5 606,-1004.5 606,-931.5 606,-931.5 606,-925.5 612,-919.5 618,-919.5 618,-919.5 762,-919.5 762,-919.5 768,-919.5 774,-925.5 774,-931.5 774,-931.5 774,-1004.5 774,-1004.5 774,-1010.5 768,-1016.5 762,-1016.5"/>
<text text-anchor="start" x="631" y="-995.2" font-family="Times,serif" font-size="16.00">unmapped_reason</text>
<polygon fill="white" stroke="transparent" points="616,-967 616,-986 764,-986 764,-967 616,-967"/>
<text text-anchor="start" x="618" y="-973.8" font-family="Times,serif" font-weight="bold" font-size="14.00">PK</text>
<text text-anchor="start" x="638" y="-973.8" font-family="Times,serif" font-size="14.00">  unmapped_reason_id</text>
<polygon fill="white" stroke="transparent" points="616,-946 616,-965 764,-965 764,-946 616,-946"/>
<text text-anchor="start" x="630.5" y="-951.8" font-family="Times,serif" font-size="14.00">summary_description</text>
<polygon fill="white" stroke="transparent" points="616,-925 616,-944 764,-944 764,-925 616,-925"/>
<text text-anchor="start" x="647" y="-930.8" font-family="Times,serif" font-size="14.00">full_description</text>
<polygon fill="black" stroke="black" points="614,-987 614,-987 766,-987 766,-987 614,-987"/>
</g>
<!-- unmapped_object&#45;&gt;unmapped_reason -->
<g id="edge18" class="edge">
<title>unmapped_object:e&#45;&gt;unmapped_reason:w</title>
<path fill="none" stroke="black" stroke-dasharray="5,2" d="M561,-977C581.25,-977 588.69,-977 604.93,-977"/>
<polygon fill="black" stroke="black" points="605,-980.5 615,-977 605,-973.5 605,-980.5"/>
</g>
<!-- unmapped_object&#45;&gt;analysis -->
<g id="edge16" class="edge">
<title>unmapped_object:e&#45;&gt;analysis:w</title>
<path fill="none" stroke="black" stroke-dasharray="5,2" d="M570,-1041C590.61,-1041 584.25,-870.39 570,-855.5 556.73,-841.64 415.85,-853.59 397.5,-848 390.15,-845.76 386.51,-845.7 382.75,-839 363.74,-805.14 368.01,-175.93 382.75,-140 395.11,-109.9 402.23,-87.07 429.82,-82.74"/>
<polygon fill="black" stroke="black" points="430.28,-86.22 440,-82 429.77,-79.24 430.28,-86.22"/>
</g>
<!-- xref&#45;&gt;external_db -->
<g id="edge19" class="edge">
<title>xref:e&#45;&gt;external_db:w</title>
<path fill="none" stroke="black" stroke-dasharray="5,2" d="M531,-779C579.94,-779 578.89,-833.68 621,-841.16"/>
<polygon fill="black" stroke="black" points="620.74,-844.65 631,-842 621.33,-837.67 620.74,-844.65"/>
</g>
<!-- dna_align_feature -->
<g id="node15" class="node">
<title>dna_align_feature</title>
<path fill="#808000" stroke="black" d="M545,-467.5C545,-467.5 429,-467.5 429,-467.5 423,-467.5 417,-461.5 417,-455.5 417,-455.5 417,-382.5 417,-382.5 417,-376.5 423,-370.5 429,-370.5 429,-370.5 545,-370.5 545,-370.5 551,-370.5 557,-376.5 557,-382.5 557,-382.5 557,-455.5 557,-455.5 557,-461.5 551,-467.5 545,-467.5"/>
<text text-anchor="start" x="429" y="-446.2" font-family="Times,serif" font-size="16.00">dna_align_feature</text>
<polygon fill="white" stroke="transparent" points="427,-418 427,-437 547,-437 547,-418 427,-418"/>
<text text-anchor="start" x="481" y="-424.8" font-family="Times,serif" font-style="italic" font-size="14.00">...</text>
<polygon fill="white" stroke="transparent" points="427,-397 427,-416 547,-416 547,-397 427,-397"/>
<text text-anchor="start" x="446" y="-402.8" font-family="Times,serif" font-size="14.00">external_db_id</text>
<polygon fill="white" stroke="transparent" points="427,-376 427,-395 547,-395 547,-376 427,-376"/>
<text text-anchor="start" x="481" y="-382.8" font-family="Times,serif" font-style="italic" font-size="14.00">...</text>
<polygon fill="black" stroke="black" points="425,-438 425,-438 549,-438 549,-438 425,-438"/>
</g>
<!-- dna_align_feature&#45;&gt;external_db -->
<g id="edge6" class="edge">
<title>dna_align_feature:e&#45;&gt;external_db:w</title>
<path fill="none" stroke="black" stroke-dasharray="5,2" d="M548,-406C642.97,-406 540.56,-810.24 620.88,-840.24"/>
<polygon fill="black" stroke="black" points="620.55,-843.74 631,-842 621.75,-836.84 620.55,-843.74"/>
</g>
<!-- gene -->
<g id="node16" class="node">
<title>gene</title>
<path fill="#808000" stroke="black" d="M529.5,-237.5C529.5,-237.5 444.5,-237.5 444.5,-237.5 438.5,-237.5 432.5,-231.5 432.5,-225.5 432.5,-225.5 432.5,-152.5 432.5,-152.5 432.5,-146.5 438.5,-140.5 444.5,-140.5 444.5,-140.5 529.5,-140.5 529.5,-140.5 535.5,-140.5 541.5,-146.5 541.5,-152.5 541.5,-152.5 541.5,-225.5 541.5,-225.5 541.5,-231.5 535.5,-237.5 529.5,-237.5"/>
<text text-anchor="start" x="472" y="-216.2" font-family="Times,serif" font-size="16.00">gene</text>
<polygon fill="white" stroke="transparent" points="443,-188 443,-207 532,-207 532,-188 443,-188"/>
<text text-anchor="start" x="481.5" y="-194.8" font-family="Times,serif" font-style="italic" font-size="14.00">...</text>
<polygon fill="white" stroke="transparent" points="443,-167 443,-186 532,-186 532,-167 443,-167"/>
<text text-anchor="start" x="445" y="-172.8" font-family="Times,serif" font-size="14.00">display_xref_id</text>
<polygon fill="white" stroke="transparent" points="443,-146 443,-165 532,-165 532,-146 443,-146"/>
<text text-anchor="start" x="481.5" y="-152.8" font-family="Times,serif" font-style="italic" font-size="14.00">...</text>
<polygon fill="black" stroke="black" points="441,-208 441,-208 534,-208 534,-208 441,-208"/>
</g>
<!-- gene&#45;&gt;xref -->
<g id="edge8" class="edge">
<title>gene:e&#45;&gt;xref:w</title>
<path fill="none" stroke="black" stroke-dasharray="5,2" d="M541.5,-176C568.83,-176 560.25,-217.61 541.5,-237.5 517.15,-263.33 400.12,-224.05 382.75,-255 363.12,-289.98 376.43,-576.39 382.75,-616 395.73,-697.32 360.23,-791.52 432.59,-799.46"/>
<polygon fill="black" stroke="black" points="432.83,-802.98 443,-800 433.19,-795.99 432.83,-802.98"/>
</g>
<!-- protein_align_feature -->
<g id="node17" class="node">
<title>protein_align_feature</title>
<path fill="#808000" stroke="black" d="M556.5,-582.5C556.5,-582.5 417.5,-582.5 417.5,-582.5 411.5,-582.5 405.5,-576.5 405.5,-570.5 405.5,-570.5 405.5,-497.5 405.5,-497.5 405.5,-491.5 411.5,-485.5 417.5,-485.5 417.5,-485.5 556.5,-485.5 556.5,-485.5 562.5,-485.5 568.5,-491.5 568.5,-497.5 568.5,-497.5 568.5,-570.5 568.5,-570.5 568.5,-576.5 562.5,-582.5 556.5,-582.5"/>
<text text-anchor="start" x="418" y="-561.2" font-family="Times,serif" font-size="16.00">protein_align_feature</text>
<polygon fill="white" stroke="transparent" points="416,-533 416,-552 559,-552 559,-533 416,-533"/>
<text text-anchor="start" x="481.5" y="-539.8" font-family="Times,serif" font-style="italic" font-size="14.00">...</text>
<polygon fill="white" stroke="transparent" points="416,-512 416,-531 559,-531 559,-512 416,-512"/>
<text text-anchor="start" x="446.5" y="-517.8" font-family="Times,serif" font-size="14.00">external_db_id</text>
<polygon fill="white" stroke="transparent" points="416,-491 416,-510 559,-510 559,-491 416,-491"/>
<text text-anchor="start" x="481.5" y="-497.8" font-family="Times,serif" font-style="italic" font-size="14.00">...</text>
<polygon fill="black" stroke="black" points="414,-553 414,-553 561,-553 561,-553 414,-553"/>
</g>
<!-- protein_align_feature&#45;&gt;external_db -->
<g id="edge14" class="edge">
<title>protein_align_feature:e&#45;&gt;external_db:w</title>
<path fill="none" stroke="black" stroke-dasharray="5,2" d="M560,-521C702.55,-521 495.47,-826.52 620.94,-841.44"/>
<polygon fill="black" stroke="black" points="620.82,-844.93 631,-842 621.21,-837.94 620.82,-844.93"/>
</g>
<!-- transcript -->
<g id="node18" class="node">
<title>transcript</title>
<path fill="#808000" stroke="black" d="M529.5,-352.5C529.5,-352.5 444.5,-352.5 444.5,-352.5 438.5,-352.5 432.5,-346.5 432.5,-340.5 432.5,-340.5 432.5,-267.5 432.5,-267.5 432.5,-261.5 438.5,-255.5 444.5,-255.5 444.5,-255.5 529.5,-255.5 529.5,-255.5 535.5,-255.5 541.5,-261.5 541.5,-267.5 541.5,-267.5 541.5,-340.5 541.5,-340.5 541.5,-346.5 535.5,-352.5 529.5,-352.5"/>
<text text-anchor="start" x="457" y="-331.2" font-family="Times,serif" font-size="16.00">transcript</text>
<polygon fill="white" stroke="transparent" points="443,-303 443,-322 532,-322 532,-303 443,-303"/>
<text text-anchor="start" x="481.5" y="-309.8" font-family="Times,serif" font-style="italic" font-size="14.00">...</text>
<polygon fill="white" stroke="transparent" points="443,-282 443,-301 532,-301 532,-282 443,-282"/>
<text text-anchor="start" x="445" y="-287.8" font-family="Times,serif" font-size="14.00">display_xref_id</text>
<polygon fill="white" stroke="transparent" points="443,-261 443,-280 532,-280 532,-261 443,-261"/>
<text text-anchor="start" x="481.5" y="-267.8" font-family="Times,serif" font-style="italic" font-size="14.00">...</text>
<polygon fill="black" stroke="black" points="441,-323 441,-323 534,-323 534,-323 441,-323"/>
</g>
<!-- transcript&#45;&gt;xref -->
<g id="edge15" class="edge">
<title>transcript:e&#45;&gt;xref:w</title>
<path fill="none" stroke="black" stroke-dasharray="5,2" d="M541.5,-291C568.83,-291 560.25,-332.61 541.5,-352.5 517.15,-378.33 400.12,-339.05 382.75,-370 355.99,-417.67 374.14,-562.02 382.75,-616 395.73,-697.32 360.23,-791.52 432.59,-799.46"/>
<polygon fill="black" stroke="black" points="432.83,-802.98 443,-800 433.19,-795.99 432.83,-802.98"/>
</g>
</g>
</svg>
