<?xml version="1.0" encoding="UTF-8" standalone="no"?>
<!DOCTYPE svg PUBLIC "-//W3C//DTD SVG 1.1//EN"
 "http://www.w3.org/Graphics/SVG/1.1/DTD/svg11.dtd">
<!-- Generated by graphviz version 2.30.1 (20140821.0912)
 -->
<!-- Title: test Pages: 1 -->
<svg width="402pt" height="724pt"
 viewBox="0.00 0.00 402.00 724.00" xmlns="http://www.w3.org/2000/svg" xmlns:xlink="http://www.w3.org/1999/xlink">
<g id="graph0" class="graph" transform="scale(1 1) rotate(0) translate(4 720)">
<title>test</title>
<polygon fill="white" stroke="white" points="-4,5 -4,-720 399,-720 399,5 -4,5"/>
<text text-anchor="middle" x="197" y="-10" font-family="Times,serif" font-size="20.00">Core schema diagram: ID Mapping tables</text>
<g id="clust1" class="cluster"><title>cluster_assembly_tables</title>
<polygon fill="white" stroke="white" points="220,-38 220,-158 373,-158 373,-38 220,-38"/>
<text text-anchor="middle" x="296.5" y="-138" font-family="Times,serif" font-size="20.00">Assembly Tables</text>
</g>
<g id="clust2" class="cluster"><title>cluster_id_mapping</title>
<path fill="#ffe0e0" stroke="#ffe0e0" d="M20,-166C20,-166 374,-166 374,-166 380,-166 386,-172 386,-178 386,-178 386,-696 386,-696 386,-702 380,-708 374,-708 374,-708 20,-708 20,-708 14,-708 8,-702 8,-696 8,-696 8,-178 8,-178 8,-172 14,-166 20,-166"/>
<text text-anchor="middle" x="197" y="-688" font-family="Times,serif" font-size="20.00">ID Mapping</text>
</g>
<!-- gene_archive -->
<g id="node1" class="node"><title>gene_archive</title>
<path fill="#ff6666" stroke="black" d="M154,-669.5C154,-669.5 40,-669.5 40,-669.5 34,-669.5 28,-663.5 28,-657.5 28,-657.5 28,-488.5 28,-488.5 28,-482.5 34,-476.5 40,-476.5 40,-476.5 154,-476.5 154,-476.5 160,-476.5 166,-482.5 166,-488.5 166,-488.5 166,-657.5 166,-657.5 166,-663.5 160,-669.5 154,-669.5"/>
<text text-anchor="start" x="54.5" y="-648.7" font-family="Times,serif" font-size="16.00">gene_archive</text>
<polygon fill="white" stroke="none" points="38,-622 38,-640 156,-640 156,-622 38,-622"/>
<text text-anchor="start" x="56" y="-627.8" font-family="Times,serif" font-size="14.00">gene_stable_id</text>
<polygon fill="white" stroke="none" points="38,-602 38,-620 156,-620 156,-602 38,-602"/>
<text text-anchor="start" x="60.5" y="-607.8" font-family="Times,serif" font-size="14.00">gene_version</text>
<polygon fill="white" stroke="none" points="38,-582 38,-600 156,-600 156,-582 38,-582"/>
<text text-anchor="start" x="43.5" y="-587.8" font-family="Times,serif" font-size="14.00">transcript_stable_id</text>
<polygon fill="white" stroke="none" points="38,-562 38,-580 156,-580 156,-562 38,-562"/>
<text text-anchor="start" x="48" y="-567.8" font-family="Times,serif" font-size="14.00">transcript_version</text>
<polygon fill="white" stroke="none" points="38,-542 38,-560 156,-560 156,-542 38,-542"/>
<text text-anchor="start" x="40.5" y="-547.8" font-family="Times,serif" font-size="14.00">translation_stable_id</text>
<polygon fill="white" stroke="none" points="38,-522 38,-540 156,-540 156,-522 38,-522"/>
<text text-anchor="start" x="45" y="-527.8" font-family="Times,serif" font-size="14.00">translation_version</text>
<polygon fill="white" stroke="none" points="38,-502 38,-520 156,-520 156,-502 38,-502"/>
<text text-anchor="start" x="45" y="-507.8" font-family="Times,serif" font-size="14.00">peptide_archive_id</text>
<polygon fill="white" stroke="none" points="38,-482 38,-500 156,-500 156,-482 38,-482"/>
<text text-anchor="start" x="41" y="-487.8" font-family="Times,serif" font-size="14.00">mapping_session_id</text>
<polygon fill="black" stroke="black" points="36,-641 36,-641 158,-641 158,-641 36,-641"/>
</g>
<!-- mapping_session -->
<g id="node2" class="node"><title>mapping_session</title>
<path fill="#ff6666" stroke="black" d="M366,-478.5C366,-478.5 226,-478.5 226,-478.5 220,-478.5 214,-472.5 214,-466.5 214,-466.5 214,-297.5 214,-297.5 214,-291.5 220,-285.5 226,-285.5 226,-285.5 366,-285.5 366,-285.5 372,-285.5 378,-291.5 378,-297.5 378,-297.5 378,-466.5 378,-466.5 378,-472.5 372,-478.5 366,-478.5"/>
<text text-anchor="start" x="240" y="-457.7" font-family="Times,serif" font-size="16.00">mapping_session</text>
<polygon fill="white" stroke="none" points="224,-431 224,-449 368,-449 368,-431 224,-431"/>
<text text-anchor="start" x="226.5" y="-436.8" font-family="Times,serif" font-weight="bold" font-size="14.00">PK</text>
<text text-anchor="start" x="246.5" y="-436.8" font-family="Times,serif" font-size="14.00">  mapping_session_id</text>
<polygon fill="white" stroke="none" points="224,-411 224,-429 368,-429 368,-411 224,-411"/>
<text text-anchor="start" x="258.5" y="-416.8" font-family="Times,serif" font-size="14.00">old_db_name</text>
<polygon fill="white" stroke="none" points="224,-391 224,-409 368,-409 368,-391 224,-391"/>
<text text-anchor="start" x="256" y="-396.8" font-family="Times,serif" font-size="14.00">new_db_name</text>
<polygon fill="white" stroke="none" points="224,-371 224,-389 368,-389 368,-371 224,-371"/>
<text text-anchor="start" x="265" y="-376.8" font-family="Times,serif" font-size="14.00">old_release</text>
<polygon fill="white" stroke="none" points="224,-351 224,-369 368,-369 368,-351 224,-351"/>
<text text-anchor="start" x="262.5" y="-356.8" font-family="Times,serif" font-size="14.00">new_release</text>
<polygon fill="white" stroke="none" points="224,-331 224,-349 368,-349 368,-331 224,-331"/>
<text text-anchor="start" x="258" y="-336.8" font-family="Times,serif" font-size="14.00">old_assembly</text>
<polygon fill="white" stroke="none" points="224,-311 224,-329 368,-329 368,-311 224,-311"/>
<text text-anchor="start" x="255.5" y="-316.8" font-family="Times,serif" font-size="14.00">new_assembly</text>
<polygon fill="white" stroke="none" points="224,-291 224,-309 368,-309 368,-291 224,-291"/>
<text text-anchor="start" x="276" y="-296.8" font-family="Times,serif" font-size="14.00">created</text>
<polygon fill="black" stroke="black" points="222,-450 222,-450 370,-450 370,-450 222,-450"/>
</g>
<!-- gene_archive&#45;&gt;mapping_session -->
<g id="edge1" class="edge"><title>gene_archive:portmapping_session_id:e&#45;&gt;mapping_session:portmapping_session_id:w</title>
<path fill="none" stroke="black" stroke-dasharray="5,2" d="M157,-491C190.306,-491 187.117,-449.833 213.009,-441.471"/>
<polygon fill="black" stroke="black" points="213.617,-444.92 223,-440 212.597,-437.994 213.617,-444.92"/>
</g>
<!-- peptide_archive -->
<g id="node4" class="node"><title>peptide_archive</title>
<path fill="#ff6666" stroke="black" d="M362.5,-589.5C362.5,-589.5 229.5,-589.5 229.5,-589.5 223.5,-589.5 217.5,-583.5 217.5,-577.5 217.5,-577.5 217.5,-508.5 217.5,-508.5 217.5,-502.5 223.5,-496.5 229.5,-496.5 229.5,-496.5 362.5,-496.5 362.5,-496.5 368.5,-496.5 374.5,-502.5 374.5,-508.5 374.5,-508.5 374.5,-577.5 374.5,-577.5 374.5,-583.5 368.5,-589.5 362.5,-589.5"/>
<text text-anchor="start" x="245" y="-568.7" font-family="Times,serif" font-size="16.00">peptide_archive</text>
<polygon fill="white" stroke="none" points="228,-542 228,-560 365,-560 365,-542 228,-542"/>
<text text-anchor="start" x="230.5" y="-547.8" font-family="Times,serif" font-weight="bold" font-size="14.00">PK</text>
<text text-anchor="start" x="250.5" y="-547.8" font-family="Times,serif" font-size="14.00">  peptide_archive_id</text>
<polygon fill="white" stroke="none" points="228,-522 228,-540 365,-540 365,-522 228,-522"/>
<text text-anchor="start" x="253" y="-527.8" font-family="Times,serif" font-size="14.00">md5_checksum</text>
<polygon fill="white" stroke="none" points="228,-502 228,-520 365,-520 365,-502 228,-502"/>
<text text-anchor="start" x="264" y="-507.8" font-family="Times,serif" font-size="14.00">peptide_seq</text>
<polygon fill="black" stroke="black" points="226,-561 226,-561 367,-561 367,-561 226,-561"/>
</g>
<!-- gene_archive&#45;&gt;peptide_archive -->
<g id="edge2" class="edge"><title>gene_archive:portpeptide_archive_id:e&#45;&gt;peptide_archive:portpeptide_archive_id:w</title>
<path fill="none" stroke="black" stroke-dasharray="5,2" d="M157,-511C189.053,-511 191.102,-543.007 216.826,-549.759"/>
<polygon fill="black" stroke="black" points="216.65,-553.263 227,-551 217.497,-546.315 216.65,-553.263"/>
</g>
<!-- mapping_set -->
<g id="node3" class="node"><title>mapping_set</title>
<path fill="#ff6666" stroke="black" d="M360,-267.5C360,-267.5 232,-267.5 232,-267.5 226,-267.5 220,-261.5 220,-255.5 220,-255.5 220,-186.5 220,-186.5 220,-180.5 226,-174.5 232,-174.5 232,-174.5 360,-174.5 360,-174.5 366,-174.5 372,-180.5 372,-186.5 372,-186.5 372,-255.5 372,-255.5 372,-261.5 366,-267.5 360,-267.5"/>
<text text-anchor="start" x="254.5" y="-246.7" font-family="Times,serif" font-size="16.00">mapping_set</text>
<polygon fill="white" stroke="none" points="230,-220 230,-238 362,-238 362,-220 230,-220"/>
<text text-anchor="start" x="238.5" y="-225.8" font-family="Times,serif" font-weight="bold" font-size="14.00">PK</text>
<text text-anchor="start" x="258.5" y="-225.8" font-family="Times,serif" font-size="14.00">  mapping_set_id</text>
<polygon fill="white" stroke="none" points="230,-200 230,-218 362,-218 362,-200 230,-200"/>
<text text-anchor="start" x="234" y="-205.8" font-family="Times,serif" font-size="14.00">internal_schema_build</text>
<polygon fill="white" stroke="none" points="230,-180 230,-198 362,-198 362,-180 230,-180"/>
<text text-anchor="start" x="232.5" y="-185.8" font-family="Times,serif" font-size="14.00">external_schema_build</text>
<polygon fill="black" stroke="black" points="228,-239 228,-239 364,-239 364,-239 228,-239"/>
</g>
<!-- seq_region_mapping -->
<g id="node5" class="node"><title>seq_region_mapping</title>
<path fill="#ff6666" stroke="black" d="M165.5,-267.5C165.5,-267.5 28.5,-267.5 28.5,-267.5 22.5,-267.5 16.5,-261.5 16.5,-255.5 16.5,-255.5 16.5,-186.5 16.5,-186.5 16.5,-180.5 22.5,-174.5 28.5,-174.5 28.5,-174.5 165.5,-174.5 165.5,-174.5 171.5,-174.5 177.5,-180.5 177.5,-186.5 177.5,-186.5 177.5,-255.5 177.5,-255.5 177.5,-261.5 171.5,-267.5 165.5,-267.5"/>
<text text-anchor="start" x="29.5" y="-246.7" font-family="Times,serif" font-size="16.00">seq_region_mapping</text>
<polygon fill="white" stroke="none" points="27,-220 27,-238 168,-238 168,-220 27,-220"/>
<text text-anchor="start" x="34" y="-225.8" font-family="Times,serif" font-size="14.00">external_seq_region_id</text>
<polygon fill="white" stroke="none" points="27,-200 27,-218 168,-218 168,-200 27,-200"/>
<text text-anchor="start" x="35" y="-205.8" font-family="Times,serif" font-size="14.00">internal_seq_region_id</text>
<polygon fill="white" stroke="none" points="27,-180 27,-198 168,-198 168,-180 27,-180"/>
<text text-anchor="start" x="53.5" y="-185.8" font-family="Times,serif" font-size="14.00">mapping_set_id</text>
<polygon fill="black" stroke="black" points="25,-239 25,-239 170,-239 170,-239 25,-239"/>
</g>
<!-- seq_region_mapping&#45;&gt;mapping_set -->
<g id="edge3" class="edge"><title>seq_region_mapping:portmapping_set_id:e&#45;&gt;mapping_set:portmapping_set_id:w</title>
<path fill="none" stroke="black" stroke-dasharray="5,2" d="M169,-189C197.294,-189 197.415,-220.174 219.106,-227.481"/>
<polygon fill="black" stroke="black" points="218.585,-230.942 229,-229 219.647,-224.023 218.585,-230.942"/>
</g>
<!-- seq_region -->
<g id="node7" class="node"><title>seq_region</title>
<path fill="#c70c09" stroke="black" d="M349,-119.5C349,-119.5 243,-119.5 243,-119.5 237,-119.5 231,-113.5 231,-107.5 231,-107.5 231,-58.5 231,-58.5 231,-52.5 237,-46.5 243,-46.5 243,-46.5 349,-46.5 349,-46.5 355,-46.5 361,-52.5 361,-58.5 361,-58.5 361,-107.5 361,-107.5 361,-113.5 355,-119.5 349,-119.5"/>
<text text-anchor="start" x="260.5" y="-98.7" font-family="Times,serif" font-size="16.00">seq_region</text>
<polygon fill="white" stroke="none" points="241,-72 241,-90 351,-90 351,-72 241,-72"/>
<text text-anchor="start" x="243.5" y="-77.8" font-family="Times,serif" font-weight="bold" font-size="14.00">PK</text>
<text text-anchor="start" x="263.5" y="-77.8" font-family="Times,serif" font-size="14.00">  seq_region_id</text>
<polygon fill="white" stroke="none" points="241,-52 241,-70 351,-70 351,-52 241,-52"/>
<text text-anchor="start" x="290" y="-57.8" font-family="Times,serif" font-style="italic" font-size="14.00">...</text>
<polygon fill="black" stroke="black" points="239,-91 239,-91 353,-91 353,-91 239,-91"/>
</g>
<!-- seq_region_mapping&#45;&gt;seq_region -->
<g id="edge4" class="edge"><title>seq_region_mapping:portinternal_seq_region_id:e&#45;&gt;seq_region:portseq_region_id:w</title>
<path fill="none" stroke="black" stroke-dasharray="5,2" d="M169,-209C230.243,-209 181.446,-95.5605 229.794,-82.2669"/>
<polygon fill="black" stroke="black" points="230.507,-85.7052 240,-81 229.645,-78.7585 230.507,-85.7052"/>
</g>
<!-- stable_id_event -->
<g id="node6" class="node"><title>stable_id_event</title>
<path fill="#ff6666" stroke="black" d="M153.5,-458.5C153.5,-458.5 40.5,-458.5 40.5,-458.5 34.5,-458.5 28.5,-452.5 28.5,-446.5 28.5,-446.5 28.5,-297.5 28.5,-297.5 28.5,-291.5 34.5,-285.5 40.5,-285.5 40.5,-285.5 153.5,-285.5 153.5,-285.5 159.5,-285.5 165.5,-291.5 165.5,-297.5 165.5,-297.5 165.5,-446.5 165.5,-446.5 165.5,-452.5 159.5,-458.5 153.5,-458.5"/>
<text text-anchor="start" x="47" y="-437.7" font-family="Times,serif" font-size="16.00">stable_id_event</text>
<polygon fill="white" stroke="none" points="39,-411 39,-429 156,-429 156,-411 39,-411"/>
<text text-anchor="start" x="61" y="-416.8" font-family="Times,serif" font-size="14.00">old_stable_id</text>
<polygon fill="white" stroke="none" points="39,-391 39,-409 156,-409 156,-391 39,-391"/>
<text text-anchor="start" x="65.5" y="-396.8" font-family="Times,serif" font-size="14.00">old_version</text>
<polygon fill="white" stroke="none" points="39,-371 39,-389 156,-389 156,-371 39,-371"/>
<text text-anchor="start" x="58" y="-376.8" font-family="Times,serif" font-size="14.00">new_stable_id</text>
<polygon fill="white" stroke="none" points="39,-351 39,-369 156,-369 156,-351 39,-351"/>
<text text-anchor="start" x="62.5" y="-356.8" font-family="Times,serif" font-size="14.00">new_version</text>
<polygon fill="white" stroke="none" points="39,-331 39,-349 156,-349 156,-331 39,-331"/>
<text text-anchor="start" x="41.5" y="-336.8" font-family="Times,serif" font-size="14.00">mapping_session_id</text>
<polygon fill="white" stroke="none" points="39,-311 39,-329 156,-329 156,-311 39,-311"/>
<text text-anchor="start" x="85.5" y="-316.8" font-family="Times,serif" font-size="14.00">type</text>
<polygon fill="white" stroke="none" points="39,-291 39,-309 156,-309 156,-291 39,-291"/>
<text text-anchor="start" x="83" y="-296.8" font-family="Times,serif" font-size="14.00">score</text>
<polygon fill="black" stroke="black" points="37,-430 37,-430 158,-430 158,-430 37,-430"/>
</g>
<!-- stable_id_event&#45;&gt;mapping_session -->
<g id="edge5" class="edge"><title>stable_id_event:portmapping_session_id:e&#45;&gt;mapping_session:portmapping_session_id:w</title>
<path fill="none" stroke="black" stroke-dasharray="5,2" d="M157,-340C206.508,-340 174.981,-426.432 213.093,-438.586"/>
<polygon fill="black" stroke="black" points="212.606,-442.052 223,-440 213.595,-435.122 212.606,-442.052"/>
</g>
</g>
</svg>
