<?xml version="1.0" encoding="UTF-8" standalone="no"?>
<!DOCTYPE svg PUBLIC "-//W3C//DTD SVG 1.1//EN"
 "http://www.w3.org/Graphics/SVG/1.1/DTD/svg11.dtd">
<!-- Generated by graphviz version 2.43.0 (0)
 -->
<!-- Title: test Pages: 1 -->
<svg width="1546pt" height="3881pt"
 viewBox="0.00 0.00 1546.00 3881.00" xmlns="http://www.w3.org/2000/svg" xmlns:xlink="http://www.w3.org/1999/xlink">
<g id="graph0" class="graph" transform="scale(1 1) rotate(0) translate(4 3877)">
<title>test</title>
<polygon fill="white" stroke="transparent" points="-4,4 -4,-3877 1542,-3877 1542,4 -4,4"/>
<text text-anchor="middle" x="769" y="-10" font-family="Times,serif" font-size="20.00">Core schema diagram: Fundamental Tables tables</text>
<g id="clust1" class="cluster">
<title>cluster_assembly_tables</title>
<polygon fill="white" stroke="white" points="1128,-472 1128,-825 1313,-825 1313,-472 1128,-472"/>
<text text-anchor="middle" x="1220.5" y="-805" font-family="Times,serif" font-size="20.00">Assembly Tables</text>
</g>
<g id="clust3" class="cluster">
<title>cluster_features</title>
<polygon fill="white" stroke="white" points="538,-2799 538,-3747 809,-3747 809,-2799 538,-2799"/>
<text text-anchor="middle" x="673.5" y="-3727" font-family="Times,serif" font-size="20.00">Features</text>
</g>
<g id="clust2" class="cluster">
<title>cluster_external_references</title>
<polygon fill="white" stroke="white" points="1109,-38 1109,-464 1333,-464 1333,-38 1109,-38"/>
<text text-anchor="middle" x="1221" y="-444" font-family="Times,serif" font-size="20.00">External References</text>
</g>
<g id="clust4" class="cluster">
<title>cluster_fundamental_tables</title>
<path fill="#e5e5cc" stroke="#e5e5cc" d="M20,-833C20,-833 1518,-833 1518,-833 1524,-833 1530,-839 1530,-845 1530,-845 1530,-2779 1530,-2779 1530,-2785 1524,-2791 1518,-2791 1518,-2791 20,-2791 20,-2791 14,-2791 8,-2785 8,-2779 8,-2779 8,-845 8,-845 8,-839 14,-833 20,-833"/>
<text text-anchor="middle" x="769" y="-2771" font-family="Times,serif" font-size="20.00">Fundamental Tables</text>
</g>
<g id="clust5" class="cluster">
<title>cluster_misc</title>
<polygon fill="white" stroke="white" points="272,-3512 272,-3865 509,-3865 509,-3512 272,-3512"/>
<text text-anchor="middle" x="390.5" y="-3845" font-family="Times,serif" font-size="20.00">Misc</text>
</g>
<!-- alt_allele -->
<g id="node1" class="node">
<title>alt_allele</title>
<path fill="#808000" stroke="black" d="M457,-1843.5C457,-1843.5 324,-1843.5 324,-1843.5 318,-1843.5 312,-1837.5 312,-1831.5 312,-1831.5 312,-1758.5 312,-1758.5 312,-1752.5 318,-1746.5 324,-1746.5 324,-1746.5 457,-1746.5 457,-1746.5 463,-1746.5 469,-1752.5 469,-1758.5 469,-1758.5 469,-1831.5 469,-1831.5 469,-1837.5 463,-1843.5 457,-1843.5"/>
<text text-anchor="start" x="353" y="-1822.2" font-family="Times,serif" font-size="16.00">alt_allele</text>
<polygon fill="white" stroke="transparent" points="322.5,-1794 322.5,-1813 459.5,-1813 459.5,-1794 322.5,-1794"/>
<text text-anchor="start" x="332.5" y="-1800.8" font-family="Times,serif" font-weight="bold" font-size="14.00">PK</text>
<text text-anchor="start" x="355.5" y="-1800.8" font-family="Times,serif" font-size="14.00">  alt_allele_id</text>
<polygon fill="white" stroke="transparent" points="322.5,-1773 322.5,-1792 459.5,-1792 459.5,-1773 322.5,-1773"/>
<text text-anchor="start" x="363.5" y="-1778.8" font-family="Times,serif" font-size="14.00">gene_id</text>
<polygon fill="white" stroke="transparent" points="322.5,-1752 322.5,-1771 459.5,-1771 459.5,-1752 322.5,-1752"/>
<text text-anchor="start" x="324.5" y="-1757.8" font-family="Times,serif" font-size="14.00">alt_allele_group_id</text>
<polygon fill="black" stroke="black" points="320.5,-1814 320.5,-1814 461.5,-1814 461.5,-1814 320.5,-1814"/>
</g>
<!-- alt_allele_group -->
<g id="node3" class="node">
<title>alt_allele_group</title>
<path fill="#808000" stroke="black" d="M756,-1510.5C756,-1510.5 591,-1510.5 591,-1510.5 585,-1510.5 579,-1504.5 579,-1498.5 579,-1498.5 579,-1467.5 579,-1467.5 579,-1461.5 585,-1455.5 591,-1455.5 591,-1455.5 756,-1455.5 756,-1455.5 762,-1455.5 768,-1461.5 768,-1467.5 768,-1467.5 768,-1498.5 768,-1498.5 768,-1504.5 762,-1510.5 756,-1510.5"/>
<text text-anchor="start" x="607.5" y="-1489.2" font-family="Times,serif" font-size="16.00">alt_allele_group</text>
<polygon fill="white" stroke="transparent" points="589.5,-1461 589.5,-1480 758.5,-1480 758.5,-1461 589.5,-1461"/>
<text text-anchor="start" x="591.5" y="-1467.8" font-family="Times,serif" font-weight="bold" font-size="14.00">PK</text>
<text text-anchor="start" x="614.5" y="-1467.8" font-family="Times,serif" font-size="14.00">  alt_allele_group_id</text>
<polygon fill="black" stroke="black" points="587.5,-1481 587.5,-1481 760.5,-1481 760.5,-1481 587.5,-1481"/>
</g>
<!-- alt_allele&#45;&gt;alt_allele_group -->
<g id="edge1" class="edge">
<title>alt_allele:e&#45;&gt;alt_allele_group:w</title>
<path fill="none" stroke="black" stroke-dasharray="5,2" d="M460.5,-1761C598.2,-1761 454.87,-1484.59 578.3,-1470.55"/>
<polygon fill="black" stroke="black" points="578.7,-1474.04 588.5,-1470 578.33,-1467.05 578.7,-1474.04"/>
</g>
<!-- gene -->
<g id="node11" class="node">
<title>gene</title>
<path fill="#808000" stroke="black" d="M756.5,-1898C756.5,-1898 590.5,-1898 590.5,-1898 584.5,-1898 578.5,-1892 578.5,-1886 578.5,-1886 578.5,-1540 578.5,-1540 578.5,-1534 584.5,-1528 590.5,-1528 590.5,-1528 756.5,-1528 756.5,-1528 762.5,-1528 768.5,-1534 768.5,-1540 768.5,-1540 768.5,-1886 768.5,-1886 768.5,-1892 762.5,-1898 756.5,-1898"/>
<text text-anchor="start" x="653" y="-1877.2" font-family="Times,serif" font-size="16.00">gene</text>
<polygon fill="white" stroke="transparent" points="588.5,-1849 588.5,-1868 758.5,-1868 758.5,-1849 588.5,-1849"/>
<text text-anchor="start" x="630" y="-1855.8" font-family="Times,serif" font-weight="bold" font-size="14.00">PK</text>
<text text-anchor="start" x="653" y="-1855.8" font-family="Times,serif" font-size="14.00">  gene_id</text>
<polygon fill="white" stroke="transparent" points="588.5,-1828 588.5,-1847 758.5,-1847 758.5,-1828 588.5,-1828"/>
<text text-anchor="start" x="646.5" y="-1833.8" font-family="Times,serif" font-size="14.00">biotype</text>
<polygon fill="white" stroke="transparent" points="588.5,-1807 588.5,-1826 758.5,-1826 758.5,-1807 588.5,-1807"/>
<text text-anchor="start" x="634" y="-1812.8" font-family="Times,serif" font-size="14.00">analysis_id</text>
<polygon fill="white" stroke="transparent" points="588.5,-1786 588.5,-1805 758.5,-1805 758.5,-1786 588.5,-1786"/>
<text text-anchor="start" x="624.5" y="-1791.8" font-family="Times,serif" font-size="14.00">seq_region_id</text>
<polygon fill="white" stroke="transparent" points="588.5,-1765 588.5,-1784 758.5,-1784 758.5,-1765 588.5,-1765"/>
<text text-anchor="start" x="614" y="-1770.8" font-family="Times,serif" font-size="14.00">seq_region_start</text>
<polygon fill="white" stroke="transparent" points="588.5,-1744 588.5,-1763 758.5,-1763 758.5,-1744 588.5,-1744"/>
<text text-anchor="start" x="618" y="-1749.8" font-family="Times,serif" font-size="14.00">seq_region_end</text>
<polygon fill="white" stroke="transparent" points="588.5,-1723 588.5,-1742 758.5,-1742 758.5,-1723 588.5,-1723"/>
<text text-anchor="start" x="608" y="-1728.8" font-family="Times,serif" font-size="14.00">seq_region_strand</text>
<polygon fill="white" stroke="transparent" points="588.5,-1702 588.5,-1721 758.5,-1721 758.5,-1702 588.5,-1702"/>
<text text-anchor="start" x="620" y="-1707.8" font-family="Times,serif" font-size="14.00">display_xref_id</text>
<polygon fill="white" stroke="transparent" points="588.5,-1681 588.5,-1700 758.5,-1700 758.5,-1681 588.5,-1681"/>
<text text-anchor="start" x="649.5" y="-1686.8" font-family="Times,serif" font-size="14.00">source</text>
<polygon fill="white" stroke="transparent" points="588.5,-1660 588.5,-1679 758.5,-1679 758.5,-1660 588.5,-1660"/>
<text text-anchor="start" x="633" y="-1665.8" font-family="Times,serif" font-size="14.00">description</text>
<polygon fill="white" stroke="transparent" points="588.5,-1639 588.5,-1658 758.5,-1658 758.5,-1639 588.5,-1639"/>
<text text-anchor="start" x="637" y="-1644.8" font-family="Times,serif" font-size="14.00">is_current</text>
<polygon fill="white" stroke="transparent" points="588.5,-1618 588.5,-1637 758.5,-1637 758.5,-1618 588.5,-1618"/>
<text text-anchor="start" x="590.5" y="-1623.8" font-family="Times,serif" font-size="14.00">canonical_transcript_id</text>
<polygon fill="white" stroke="transparent" points="588.5,-1597 588.5,-1616 758.5,-1616 758.5,-1597 588.5,-1597"/>
<text text-anchor="start" x="641.5" y="-1602.8" font-family="Times,serif" font-size="14.00">stable_id</text>
<polygon fill="white" stroke="transparent" points="588.5,-1576 588.5,-1595 758.5,-1595 758.5,-1576 588.5,-1576"/>
<text text-anchor="start" x="647" y="-1581.8" font-family="Times,serif" font-size="14.00">version</text>
<polygon fill="white" stroke="transparent" points="588.5,-1555 588.5,-1574 758.5,-1574 758.5,-1555 588.5,-1555"/>
<text text-anchor="start" x="627" y="-1560.8" font-family="Times,serif" font-size="14.00">created_date</text>
<polygon fill="white" stroke="transparent" points="588.5,-1534 588.5,-1553 758.5,-1553 758.5,-1534 588.5,-1534"/>
<text text-anchor="start" x="623.5" y="-1539.8" font-family="Times,serif" font-size="14.00">modified_date</text>
<polygon fill="black" stroke="black" points="586.5,-1869 586.5,-1869 760.5,-1869 760.5,-1869 586.5,-1869"/>
</g>
<!-- alt_allele&#45;&gt;gene -->
<g id="edge2" class="edge">
<title>alt_allele:e&#45;&gt;gene:w</title>
<path fill="none" stroke="black" stroke-dasharray="5,2" d="M460.5,-1782C522.9,-1782 521.83,-1850.81 577.28,-1858.33"/>
<polygon fill="black" stroke="black" points="577.29,-1861.84 587.5,-1859 577.75,-1854.86 577.29,-1861.84"/>
</g>
<!-- alt_allele_attrib -->
<g id="node2" class="node">
<title>alt_allele_attrib</title>
<path fill="#808000" stroke="black" d="M195,-1844C195,-1844 65,-1844 65,-1844 59,-1844 53,-1838 53,-1832 53,-1832 53,-1780 53,-1780 53,-1774 59,-1768 65,-1768 65,-1768 195,-1768 195,-1768 201,-1768 207,-1774 207,-1780 207,-1780 207,-1832 207,-1832 207,-1838 201,-1844 195,-1844"/>
<text text-anchor="start" x="65" y="-1823.2" font-family="Times,serif" font-size="16.00">alt_allele_attrib</text>
<polygon fill="white" stroke="transparent" points="63,-1795 63,-1814 197,-1814 197,-1795 63,-1795"/>
<text text-anchor="start" x="87.5" y="-1800.8" font-family="Times,serif" font-size="14.00">alt_allele_id</text>
<polygon fill="white" stroke="transparent" points="63,-1774 63,-1793 197,-1793 197,-1774 63,-1774"/>
<text text-anchor="start" x="109.5" y="-1779.8" font-family="Times,serif" font-size="14.00">attrib</text>
<polygon fill="black" stroke="black" points="61,-1815 61,-1815 199,-1815 199,-1815 61,-1815"/>
</g>
<!-- alt_allele_attrib&#45;&gt;alt_allele -->
<g id="edge3" class="edge">
<title>alt_allele_attrib:e&#45;&gt;alt_allele:w</title>
<path fill="none" stroke="black" stroke-dasharray="5,2" d="M198,-1804C249.35,-1804 264.67,-1804 311.38,-1804"/>
<polygon fill="black" stroke="black" points="311.5,-1807.5 321.5,-1804 311.5,-1800.5 311.5,-1807.5"/>
</g>
<!-- analysis -->
<g id="node4" class="node">
<title>analysis</title>
<path fill="#808000" stroke="black" d="M1281,-2533C1281,-2533 1160,-2533 1160,-2533 1154,-2533 1148,-2527 1148,-2521 1148,-2521 1148,-2217 1148,-2217 1148,-2211 1154,-2205 1160,-2205 1160,-2205 1281,-2205 1281,-2205 1287,-2205 1293,-2211 1293,-2217 1293,-2217 1293,-2521 1293,-2521 1293,-2527 1287,-2533 1281,-2533"/>
<text text-anchor="start" x="1187.5" y="-2512.2" font-family="Times,serif" font-size="16.00">analysis</text>
<polygon fill="white" stroke="transparent" points="1158.5,-2484 1158.5,-2503 1283.5,-2503 1283.5,-2484 1158.5,-2484"/>
<text text-anchor="start" x="1165.5" y="-2490.8" font-family="Times,serif" font-weight="bold" font-size="14.00">PK</text>
<text text-anchor="start" x="1188.5" y="-2490.8" font-family="Times,serif" font-size="14.00">  analysis_id</text>
<polygon fill="white" stroke="transparent" points="1158.5,-2463 1158.5,-2482 1283.5,-2482 1283.5,-2463 1158.5,-2463"/>
<text text-anchor="start" x="1193.5" y="-2468.8" font-family="Times,serif" font-size="14.00">created</text>
<polygon fill="white" stroke="transparent" points="1158.5,-2442 1158.5,-2461 1283.5,-2461 1283.5,-2442 1158.5,-2442"/>
<text text-anchor="start" x="1181" y="-2447.8" font-family="Times,serif" font-size="14.00">logic_name</text>
<polygon fill="white" stroke="transparent" points="1158.5,-2421 1158.5,-2440 1283.5,-2440 1283.5,-2421 1158.5,-2421"/>
<text text-anchor="start" x="1211.5" y="-2426.8" font-family="Times,serif" font-size="14.00">db</text>
<polygon fill="white" stroke="transparent" points="1158.5,-2400 1158.5,-2419 1283.5,-2419 1283.5,-2400 1158.5,-2400"/>
<text text-anchor="start" x="1182" y="-2405.8" font-family="Times,serif" font-size="14.00">db_version</text>
<polygon fill="white" stroke="transparent" points="1158.5,-2379 1158.5,-2398 1283.5,-2398 1283.5,-2379 1158.5,-2379"/>
<text text-anchor="start" x="1197.5" y="-2384.8" font-family="Times,serif" font-size="14.00">db_file</text>
<polygon fill="white" stroke="transparent" points="1158.5,-2358 1158.5,-2377 1283.5,-2377 1283.5,-2358 1158.5,-2358"/>
<text text-anchor="start" x="1190" y="-2363.8" font-family="Times,serif" font-size="14.00">program</text>
<polygon fill="white" stroke="transparent" points="1158.5,-2337 1158.5,-2356 1283.5,-2356 1283.5,-2337 1158.5,-2337"/>
<text text-anchor="start" x="1160.5" y="-2342.8" font-family="Times,serif" font-size="14.00">program_version</text>
<polygon fill="white" stroke="transparent" points="1158.5,-2316 1158.5,-2335 1283.5,-2335 1283.5,-2316 1158.5,-2316"/>
<text text-anchor="start" x="1175.5" y="-2321.8" font-family="Times,serif" font-size="14.00">program_file</text>
<polygon fill="white" stroke="transparent" points="1158.5,-2295 1158.5,-2314 1283.5,-2314 1283.5,-2295 1158.5,-2295"/>
<text text-anchor="start" x="1179.5" y="-2300.8" font-family="Times,serif" font-size="14.00">parameters</text>
<polygon fill="white" stroke="transparent" points="1158.5,-2274 1158.5,-2293 1283.5,-2293 1283.5,-2274 1158.5,-2274"/>
<text text-anchor="start" x="1194.5" y="-2279.8" font-family="Times,serif" font-size="14.00">module</text>
<polygon fill="white" stroke="transparent" points="1158.5,-2253 1158.5,-2272 1283.5,-2272 1283.5,-2253 1158.5,-2253"/>
<text text-anchor="start" x="1165" y="-2258.8" font-family="Times,serif" font-size="14.00">module_version</text>
<polygon fill="white" stroke="transparent" points="1158.5,-2232 1158.5,-2251 1283.5,-2251 1283.5,-2232 1158.5,-2232"/>
<text text-anchor="start" x="1184.5" y="-2237.8" font-family="Times,serif" font-size="14.00">gff_source</text>
<polygon fill="white" stroke="transparent" points="1158.5,-2211 1158.5,-2230 1283.5,-2230 1283.5,-2211 1158.5,-2211"/>
<text text-anchor="start" x="1182" y="-2216.8" font-family="Times,serif" font-size="14.00">gff_feature</text>
<polygon fill="black" stroke="black" points="1156.5,-2504 1156.5,-2504 1285.5,-2504 1285.5,-2504 1156.5,-2504"/>
</g>
<!-- analysis_description -->
<g id="node5" class="node">
<title>analysis_description</title>
<path fill="#808000" stroke="black" d="M1044.5,-2752.5C1044.5,-2752.5 876.5,-2752.5 876.5,-2752.5 870.5,-2752.5 864.5,-2746.5 864.5,-2740.5 864.5,-2740.5 864.5,-2625.5 864.5,-2625.5 864.5,-2619.5 870.5,-2613.5 876.5,-2613.5 876.5,-2613.5 1044.5,-2613.5 1044.5,-2613.5 1050.5,-2613.5 1056.5,-2619.5 1056.5,-2625.5 1056.5,-2625.5 1056.5,-2740.5 1056.5,-2740.5 1056.5,-2746.5 1050.5,-2752.5 1044.5,-2752.5"/>
<text text-anchor="start" x="876.5" y="-2731.2" font-family="Times,serif" font-size="16.00">analysis_description</text>
<polygon fill="white" stroke="transparent" points="874.5,-2703 874.5,-2722 1046.5,-2722 1046.5,-2703 874.5,-2703"/>
<text text-anchor="start" x="921" y="-2708.8" font-family="Times,serif" font-size="14.00">analysis_id</text>
<polygon fill="white" stroke="transparent" points="874.5,-2682 874.5,-2701 1046.5,-2701 1046.5,-2682 874.5,-2682"/>
<text text-anchor="start" x="920" y="-2687.8" font-family="Times,serif" font-size="14.00">description</text>
<polygon fill="white" stroke="transparent" points="874.5,-2661 874.5,-2680 1046.5,-2680 1046.5,-2661 874.5,-2661"/>
<text text-anchor="start" x="914" y="-2666.8" font-family="Times,serif" font-size="14.00">display_label</text>
<polygon fill="white" stroke="transparent" points="874.5,-2640 874.5,-2659 1046.5,-2659 1046.5,-2640 874.5,-2640"/>
<text text-anchor="start" x="919.5" y="-2645.8" font-family="Times,serif" font-size="14.00">displayable</text>
<polygon fill="white" stroke="transparent" points="874.5,-2619 874.5,-2638 1046.5,-2638 1046.5,-2619 874.5,-2619"/>
<text text-anchor="start" x="926.5" y="-2624.8" font-family="Times,serif" font-size="14.00">web_data</text>
<polygon fill="black" stroke="black" points="872.5,-2723 872.5,-2723 1048.5,-2723 1048.5,-2723 872.5,-2723"/>
</g>
<!-- analysis_description&#45;&gt;analysis -->
<g id="edge4" class="edge">
<title>analysis_description:e&#45;&gt;analysis:w</title>
<path fill="none" stroke="black" stroke-dasharray="5,2" d="M1047.5,-2713C1152.81,-2713 1055.5,-2508.3 1147.35,-2494.71"/>
<polygon fill="black" stroke="black" points="1147.77,-2498.19 1157.5,-2494 1147.28,-2491.2 1147.77,-2498.19"/>
</g>
<!-- attrib_type -->
<g id="node6" class="node">
<title>attrib_type</title>
<path fill="#808000" stroke="black" d="M1026.5,-2167C1026.5,-2167 894.5,-2167 894.5,-2167 888.5,-2167 882.5,-2161 882.5,-2155 882.5,-2155 882.5,-2061 882.5,-2061 882.5,-2055 888.5,-2049 894.5,-2049 894.5,-2049 1026.5,-2049 1026.5,-2049 1032.5,-2049 1038.5,-2055 1038.5,-2061 1038.5,-2061 1038.5,-2155 1038.5,-2155 1038.5,-2161 1032.5,-2167 1026.5,-2167"/>
<text text-anchor="start" x="915" y="-2146.2" font-family="Times,serif" font-size="16.00">attrib_type</text>
<polygon fill="white" stroke="transparent" points="892.5,-2118 892.5,-2137 1028.5,-2137 1028.5,-2118 892.5,-2118"/>
<text text-anchor="start" x="894.5" y="-2124.8" font-family="Times,serif" font-weight="bold" font-size="14.00">PK</text>
<text text-anchor="start" x="917.5" y="-2124.8" font-family="Times,serif" font-size="14.00">  attrib_type_id</text>
<polygon fill="white" stroke="transparent" points="892.5,-2097 892.5,-2116 1028.5,-2116 1028.5,-2097 892.5,-2097"/>
<text text-anchor="start" x="943.5" y="-2102.8" font-family="Times,serif" font-size="14.00">code</text>
<polygon fill="white" stroke="transparent" points="892.5,-2076 892.5,-2095 1028.5,-2095 1028.5,-2076 892.5,-2076"/>
<text text-anchor="start" x="940.5" y="-2081.8" font-family="Times,serif" font-size="14.00">name</text>
<polygon fill="white" stroke="transparent" points="892.5,-2055 892.5,-2074 1028.5,-2074 1028.5,-2055 892.5,-2055"/>
<text text-anchor="start" x="920" y="-2060.8" font-family="Times,serif" font-size="14.00">description</text>
<polygon fill="black" stroke="black" points="890.5,-2138 890.5,-2138 1030.5,-2138 1030.5,-2138 890.5,-2138"/>
</g>
<!-- dna_align_feature -->
<g id="node7" class="node">
<title>dna_align_feature</title>
<path fill="#808000" stroke="black" d="M1050.5,-1232.5C1050.5,-1232.5 870.5,-1232.5 870.5,-1232.5 864.5,-1232.5 858.5,-1226.5 858.5,-1220.5 858.5,-1220.5 858.5,-853.5 858.5,-853.5 858.5,-847.5 864.5,-841.5 870.5,-841.5 870.5,-841.5 1050.5,-841.5 1050.5,-841.5 1056.5,-841.5 1062.5,-847.5 1062.5,-853.5 1062.5,-853.5 1062.5,-1220.5 1062.5,-1220.5 1062.5,-1226.5 1056.5,-1232.5 1050.5,-1232.5"/>
<text text-anchor="start" x="886" y="-1211.2" font-family="Times,serif" font-size="16.00">dna_align_feature</text>
<polygon fill="white" stroke="transparent" points="868.5,-1183 868.5,-1202 1052.5,-1202 1052.5,-1183 868.5,-1183"/>
<text text-anchor="start" x="870.5" y="-1189.8" font-family="Times,serif" font-weight="bold" font-size="14.00">PK</text>
<text text-anchor="start" x="893.5" y="-1189.8" font-family="Times,serif" font-size="14.00">  dna_align_feature_id</text>
<polygon fill="white" stroke="transparent" points="868.5,-1162 868.5,-1181 1052.5,-1181 1052.5,-1162 868.5,-1162"/>
<text text-anchor="start" x="911.5" y="-1167.8" font-family="Times,serif" font-size="14.00">seq_region_id</text>
<polygon fill="white" stroke="transparent" points="868.5,-1141 868.5,-1160 1052.5,-1160 1052.5,-1141 868.5,-1141"/>
<text text-anchor="start" x="901" y="-1146.8" font-family="Times,serif" font-size="14.00">seq_region_start</text>
<polygon fill="white" stroke="transparent" points="868.5,-1120 868.5,-1139 1052.5,-1139 1052.5,-1120 868.5,-1120"/>
<text text-anchor="start" x="905" y="-1125.8" font-family="Times,serif" font-size="14.00">seq_region_end</text>
<polygon fill="white" stroke="transparent" points="868.5,-1099 868.5,-1118 1052.5,-1118 1052.5,-1099 868.5,-1099"/>
<text text-anchor="start" x="895" y="-1104.8" font-family="Times,serif" font-size="14.00">seq_region_strand</text>
<polygon fill="white" stroke="transparent" points="868.5,-1078 868.5,-1097 1052.5,-1097 1052.5,-1078 868.5,-1078"/>
<text text-anchor="start" x="930" y="-1083.8" font-family="Times,serif" font-size="14.00">hit_start</text>
<polygon fill="white" stroke="transparent" points="868.5,-1057 868.5,-1076 1052.5,-1076 1052.5,-1057 868.5,-1057"/>
<text text-anchor="start" x="934" y="-1062.8" font-family="Times,serif" font-size="14.00">hit_end</text>
<polygon fill="white" stroke="transparent" points="868.5,-1036 868.5,-1055 1052.5,-1055 1052.5,-1036 868.5,-1036"/>
<text text-anchor="start" x="924" y="-1041.8" font-family="Times,serif" font-size="14.00">hit_strand</text>
<polygon fill="white" stroke="transparent" points="868.5,-1015 868.5,-1034 1052.5,-1034 1052.5,-1015 868.5,-1015"/>
<text text-anchor="start" x="927.5" y="-1020.8" font-family="Times,serif" font-size="14.00">hit_name</text>
<polygon fill="white" stroke="transparent" points="868.5,-994 868.5,-1013 1052.5,-1013 1052.5,-994 868.5,-994"/>
<text text-anchor="start" x="921" y="-999.8" font-family="Times,serif" font-size="14.00">analysis_id</text>
<polygon fill="white" stroke="transparent" points="868.5,-973 868.5,-992 1052.5,-992 1052.5,-973 868.5,-973"/>
<text text-anchor="start" x="941" y="-978.8" font-family="Times,serif" font-size="14.00">score</text>
<polygon fill="white" stroke="transparent" points="868.5,-952 868.5,-971 1052.5,-971 1052.5,-952 868.5,-952"/>
<text text-anchor="start" x="937" y="-957.8" font-family="Times,serif" font-size="14.00">evalue</text>
<polygon fill="white" stroke="transparent" points="868.5,-931 868.5,-950 1052.5,-950 1052.5,-931 868.5,-931"/>
<text text-anchor="start" x="922.5" y="-936.8" font-family="Times,serif" font-size="14.00">perc_ident</text>
<polygon fill="white" stroke="transparent" points="868.5,-910 868.5,-929 1052.5,-929 1052.5,-910 868.5,-910"/>
<text text-anchor="start" x="925.5" y="-915.8" font-family="Times,serif" font-size="14.00">cigar_line</text>
<polygon fill="white" stroke="transparent" points="868.5,-889 868.5,-908 1052.5,-908 1052.5,-889 868.5,-889"/>
<text text-anchor="start" x="908" y="-894.8" font-family="Times,serif" font-size="14.00">external_db_id</text>
<polygon fill="white" stroke="transparent" points="868.5,-868 868.5,-887 1052.5,-887 1052.5,-868 868.5,-868"/>
<text text-anchor="start" x="923.5" y="-873.8" font-family="Times,serif" font-size="14.00">hcoverage</text>
<polygon fill="white" stroke="transparent" points="868.5,-847 868.5,-866 1052.5,-866 1052.5,-847 868.5,-847"/>
<text text-anchor="start" x="923.5" y="-852.8" font-family="Times,serif" font-size="14.00">align_type</text>
<polygon fill="black" stroke="black" points="866.5,-1203 866.5,-1203 1054.5,-1203 1054.5,-1203 866.5,-1203"/>
</g>
<!-- dna_align_feature&#45;&gt;analysis -->
<g id="edge8" class="edge">
<title>dna_align_feature:e&#45;&gt;analysis:w</title>
<path fill="none" stroke="black" stroke-dasharray="5,2" d="M1053.5,-1003C1160.15,-1003 1068.28,-1135.56 1075,-1242 1101.17,-1656.56 1070.07,-1762.44 1109,-2176 1122.07,-2314.86 1019.73,-2485.44 1147.47,-2493.69"/>
<polygon fill="black" stroke="black" points="1147.4,-2497.19 1157.5,-2494 1147.61,-2490.19 1147.4,-2497.19"/>
</g>
<!-- external_db -->
<g id="node24" class="node">
<title>external_db</title>
<path fill="#1e90ff" stroke="black" d="M1289,-216C1289,-216 1152,-216 1152,-216 1146,-216 1140,-210 1140,-204 1140,-204 1140,-152 1140,-152 1140,-146 1146,-140 1152,-140 1152,-140 1289,-140 1289,-140 1295,-140 1301,-146 1301,-152 1301,-152 1301,-204 1301,-204 1301,-210 1295,-216 1289,-216"/>
<text text-anchor="start" x="1172" y="-195.2" font-family="Times,serif" font-size="16.00">external_db</text>
<polygon fill="white" stroke="transparent" points="1150.5,-167 1150.5,-186 1291.5,-186 1291.5,-167 1150.5,-167"/>
<text text-anchor="start" x="1152.5" y="-173.8" font-family="Times,serif" font-weight="bold" font-size="14.00">PK</text>
<text text-anchor="start" x="1175.5" y="-173.8" font-family="Times,serif" font-size="14.00">  external_db_id</text>
<polygon fill="white" stroke="transparent" points="1150.5,-146 1150.5,-165 1291.5,-165 1291.5,-146 1150.5,-146"/>
<text text-anchor="start" x="1214" y="-152.8" font-family="Times,serif" font-style="italic" font-size="14.00">...</text>
<polygon fill="black" stroke="black" points="1148.5,-187 1148.5,-187 1293.5,-187 1293.5,-187 1148.5,-187"/>
</g>
<!-- dna_align_feature&#45;&gt;external_db -->
<g id="edge9" class="edge">
<title>dna_align_feature:e&#45;&gt;external_db:w</title>
<path fill="none" stroke="black" stroke-dasharray="5,2" d="M1053.5,-898C1128.42,-898 1081.1,-295.53 1109,-226 1118.24,-202.98 1120.4,-182.29 1139.47,-177.19"/>
<polygon fill="black" stroke="black" points="1139.98,-180.66 1149.5,-176 1139.16,-173.71 1139.98,-180.66"/>
</g>
<!-- seq_region -->
<g id="node34" class="node">
<title>seq_region</title>
<path fill="#c70c09" stroke="black" d="M1285.5,-556C1285.5,-556 1155.5,-556 1155.5,-556 1149.5,-556 1143.5,-550 1143.5,-544 1143.5,-544 1143.5,-492 1143.5,-492 1143.5,-486 1149.5,-480 1155.5,-480 1155.5,-480 1285.5,-480 1285.5,-480 1291.5,-480 1297.5,-486 1297.5,-492 1297.5,-492 1297.5,-544 1297.5,-544 1297.5,-550 1291.5,-556 1285.5,-556"/>
<text text-anchor="start" x="1175" y="-535.2" font-family="Times,serif" font-size="16.00">seq_region</text>
<polygon fill="white" stroke="transparent" points="1153.5,-507 1153.5,-526 1287.5,-526 1287.5,-507 1153.5,-507"/>
<text text-anchor="start" x="1155.5" y="-513.8" font-family="Times,serif" font-weight="bold" font-size="14.00">PK</text>
<text text-anchor="start" x="1178.5" y="-513.8" font-family="Times,serif" font-size="14.00">  seq_region_id</text>
<polygon fill="white" stroke="transparent" points="1153.5,-486 1153.5,-505 1287.5,-505 1287.5,-486 1153.5,-486"/>
<text text-anchor="start" x="1213.5" y="-492.8" font-family="Times,serif" font-style="italic" font-size="14.00">...</text>
<polygon fill="black" stroke="black" points="1151.5,-527 1151.5,-527 1289.5,-527 1289.5,-527 1151.5,-527"/>
</g>
<!-- dna_align_feature&#45;&gt;seq_region -->
<g id="edge10" class="edge">
<title>dna_align_feature:e&#45;&gt;seq_region:w</title>
<path fill="none" stroke="black" stroke-dasharray="5,2" d="M1053.5,-1172C1121.12,-1172 1082.44,-628.18 1109,-566 1119.08,-542.4 1122.26,-521.98 1142.38,-517.1"/>
<polygon fill="black" stroke="black" points="1142.94,-520.56 1152.5,-516 1142.18,-513.6 1142.94,-520.56"/>
</g>
<!-- dna_align_feature_attrib -->
<g id="node8" class="node">
<title>dna_align_feature_attrib</title>
<path fill="#808000" stroke="black" d="M232,-1467.5C232,-1467.5 28,-1467.5 28,-1467.5 22,-1467.5 16,-1461.5 16,-1455.5 16,-1455.5 16,-1382.5 16,-1382.5 16,-1376.5 22,-1370.5 28,-1370.5 28,-1370.5 232,-1370.5 232,-1370.5 238,-1370.5 244,-1376.5 244,-1382.5 244,-1382.5 244,-1455.5 244,-1455.5 244,-1461.5 238,-1467.5 232,-1467.5"/>
<text text-anchor="start" x="28" y="-1446.2" font-family="Times,serif" font-size="16.00">dna_align_feature_attrib</text>
<polygon fill="white" stroke="transparent" points="26,-1418 26,-1437 234,-1437 234,-1418 26,-1418"/>
<text text-anchor="start" x="56" y="-1423.8" font-family="Times,serif" font-size="14.00">dna_align_feature_id</text>
<polygon fill="white" stroke="transparent" points="26,-1397 26,-1416 234,-1416 234,-1397 26,-1397"/>
<text text-anchor="start" x="80" y="-1402.8" font-family="Times,serif" font-size="14.00">attrib_type_id</text>
<polygon fill="white" stroke="transparent" points="26,-1376 26,-1395 234,-1395 234,-1376 26,-1376"/>
<text text-anchor="start" x="110.5" y="-1381.8" font-family="Times,serif" font-size="14.00">value</text>
<polygon fill="black" stroke="black" points="24,-1438 24,-1438 236,-1438 236,-1438 24,-1438"/>
</g>
<!-- exon -->
<g id="node9" class="node">
<title>exon</title>
<path fill="#808000" stroke="black" d="M1510,-2055.5C1510,-2055.5 1379,-2055.5 1379,-2055.5 1373,-2055.5 1367,-2049.5 1367,-2043.5 1367,-2043.5 1367,-1760.5 1367,-1760.5 1367,-1754.5 1373,-1748.5 1379,-1748.5 1379,-1748.5 1510,-1748.5 1510,-1748.5 1516,-1748.5 1522,-1754.5 1522,-1760.5 1522,-1760.5 1522,-2043.5 1522,-2043.5 1522,-2049.5 1516,-2055.5 1510,-2055.5"/>
<text text-anchor="start" x="1425" y="-2034.2" font-family="Times,serif" font-size="16.00">exon</text>
<polygon fill="white" stroke="transparent" points="1377.5,-2006 1377.5,-2025 1512.5,-2025 1512.5,-2006 1377.5,-2006"/>
<text text-anchor="start" x="1401.5" y="-2012.8" font-family="Times,serif" font-weight="bold" font-size="14.00">PK</text>
<text text-anchor="start" x="1424.5" y="-2012.8" font-family="Times,serif" font-size="14.00">  exon_id</text>
<polygon fill="white" stroke="transparent" points="1377.5,-1985 1377.5,-2004 1512.5,-2004 1512.5,-1985 1377.5,-1985"/>
<text text-anchor="start" x="1396" y="-1990.8" font-family="Times,serif" font-size="14.00">seq_region_id</text>
<polygon fill="white" stroke="transparent" points="1377.5,-1964 1377.5,-1983 1512.5,-1983 1512.5,-1964 1377.5,-1964"/>
<text text-anchor="start" x="1385.5" y="-1969.8" font-family="Times,serif" font-size="14.00">seq_region_start</text>
<polygon fill="white" stroke="transparent" points="1377.5,-1943 1377.5,-1962 1512.5,-1962 1512.5,-1943 1377.5,-1943"/>
<text text-anchor="start" x="1389.5" y="-1948.8" font-family="Times,serif" font-size="14.00">seq_region_end</text>
<polygon fill="white" stroke="transparent" points="1377.5,-1922 1377.5,-1941 1512.5,-1941 1512.5,-1922 1377.5,-1922"/>
<text text-anchor="start" x="1379.5" y="-1927.8" font-family="Times,serif" font-size="14.00">seq_region_strand</text>
<polygon fill="white" stroke="transparent" points="1377.5,-1901 1377.5,-1920 1512.5,-1920 1512.5,-1901 1377.5,-1901"/>
<text text-anchor="start" x="1423.5" y="-1906.8" font-family="Times,serif" font-size="14.00">phase</text>
<polygon fill="white" stroke="transparent" points="1377.5,-1880 1377.5,-1899 1512.5,-1899 1512.5,-1880 1377.5,-1880"/>
<text text-anchor="start" x="1407" y="-1885.8" font-family="Times,serif" font-size="14.00">end_phase</text>
<polygon fill="white" stroke="transparent" points="1377.5,-1859 1377.5,-1878 1512.5,-1878 1512.5,-1859 1377.5,-1859"/>
<text text-anchor="start" x="1408.5" y="-1864.8" font-family="Times,serif" font-size="14.00">is_current</text>
<polygon fill="white" stroke="transparent" points="1377.5,-1838 1377.5,-1857 1512.5,-1857 1512.5,-1838 1377.5,-1838"/>
<text text-anchor="start" x="1393" y="-1843.8" font-family="Times,serif" font-size="14.00">is_constitutive</text>
<polygon fill="white" stroke="transparent" points="1377.5,-1817 1377.5,-1836 1512.5,-1836 1512.5,-1817 1377.5,-1817"/>
<text text-anchor="start" x="1413" y="-1822.8" font-family="Times,serif" font-size="14.00">stable_id</text>
<polygon fill="white" stroke="transparent" points="1377.5,-1796 1377.5,-1815 1512.5,-1815 1512.5,-1796 1377.5,-1796"/>
<text text-anchor="start" x="1418.5" y="-1801.8" font-family="Times,serif" font-size="14.00">version</text>
<polygon fill="white" stroke="transparent" points="1377.5,-1775 1377.5,-1794 1512.5,-1794 1512.5,-1775 1377.5,-1775"/>
<text text-anchor="start" x="1398.5" y="-1780.8" font-family="Times,serif" font-size="14.00">created_date</text>
<polygon fill="white" stroke="transparent" points="1377.5,-1754 1377.5,-1773 1512.5,-1773 1512.5,-1754 1377.5,-1754"/>
<text text-anchor="start" x="1395" y="-1759.8" font-family="Times,serif" font-size="14.00">modified_date</text>
<polygon fill="black" stroke="black" points="1375.5,-2026 1375.5,-2026 1514.5,-2026 1514.5,-2026 1375.5,-2026"/>
</g>
<!-- exon&#45;&gt;seq_region -->
<g id="edge11" class="edge">
<title>exon:e&#45;&gt;seq_region:w</title>
<path fill="none" stroke="black" stroke-dasharray="5,2" d="M1513.5,-1995C1543.11,-1995 1545.76,-2230.23 1367,-2055.5 1307.81,-1997.64 1350.02,-647 1333,-566 1324.5,-525.53 1331.87,-502.99 1297.5,-480 1284.2,-471.1 1164.97,-468.84 1153.5,-480 1145.25,-488.02 1140.08,-503.11 1143.76,-510.96"/>
<polygon fill="black" stroke="black" points="1142.09,-514.04 1152.5,-516 1145.58,-507.97 1142.09,-514.04"/>
</g>
<!-- exon_transcript -->
<g id="node10" class="node">
<title>exon_transcript</title>
<path fill="#808000" stroke="black" d="M738.5,-2357.5C738.5,-2357.5 608.5,-2357.5 608.5,-2357.5 602.5,-2357.5 596.5,-2351.5 596.5,-2345.5 596.5,-2345.5 596.5,-2272.5 596.5,-2272.5 596.5,-2266.5 602.5,-2260.5 608.5,-2260.5 608.5,-2260.5 738.5,-2260.5 738.5,-2260.5 744.5,-2260.5 750.5,-2266.5 750.5,-2272.5 750.5,-2272.5 750.5,-2345.5 750.5,-2345.5 750.5,-2351.5 744.5,-2357.5 738.5,-2357.5"/>
<text text-anchor="start" x="608.5" y="-2336.2" font-family="Times,serif" font-size="16.00">exon_transcript</text>
<polygon fill="white" stroke="transparent" points="606.5,-2308 606.5,-2327 740.5,-2327 740.5,-2308 606.5,-2308"/>
<text text-anchor="start" x="630" y="-2314.8" font-family="Times,serif" font-weight="bold" font-size="14.00">PK</text>
<text text-anchor="start" x="653" y="-2314.8" font-family="Times,serif" font-size="14.00">  exon_id</text>
<polygon fill="white" stroke="transparent" points="606.5,-2287 606.5,-2306 740.5,-2306 740.5,-2287 606.5,-2287"/>
<text text-anchor="start" x="611.5" y="-2293.8" font-family="Times,serif" font-weight="bold" font-size="14.00">PK</text>
<text text-anchor="start" x="634.5" y="-2293.8" font-family="Times,serif" font-size="14.00">  transcript_id</text>
<polygon fill="white" stroke="transparent" points="606.5,-2266 606.5,-2285 740.5,-2285 740.5,-2266 606.5,-2266"/>
<text text-anchor="start" x="641" y="-2272.8" font-family="Times,serif" font-weight="bold" font-size="14.00">PK</text>
<text text-anchor="start" x="664" y="-2272.8" font-family="Times,serif" font-size="14.00">  rank</text>
<polygon fill="black" stroke="black" points="604.5,-2328 604.5,-2328 742.5,-2328 742.5,-2328 604.5,-2328"/>
</g>
<!-- exon_transcript&#45;&gt;exon -->
<g id="edge12" class="edge">
<title>exon_transcript:e&#45;&gt;exon:w</title>
<path fill="none" stroke="black" stroke-dasharray="5,2" d="M741.5,-2318C773.8,-2318 816.61,-2230.39 846,-2217 852.18,-2214.18 1327.79,-2180.35 1333,-2176 1386.74,-2131.22 1311.25,-2027.29 1366.48,-2016.85"/>
<polygon fill="black" stroke="black" points="1366.83,-2020.33 1376.5,-2016 1366.24,-2013.36 1366.83,-2020.33"/>
</g>
<!-- transcript -->
<g id="node16" class="node">
<title>transcript</title>
<path fill="#808000" stroke="black" d="M1046.5,-2030.5C1046.5,-2030.5 874.5,-2030.5 874.5,-2030.5 868.5,-2030.5 862.5,-2024.5 862.5,-2018.5 862.5,-2018.5 862.5,-1651.5 862.5,-1651.5 862.5,-1645.5 868.5,-1639.5 874.5,-1639.5 874.5,-1639.5 1046.5,-1639.5 1046.5,-1639.5 1052.5,-1639.5 1058.5,-1645.5 1058.5,-1651.5 1058.5,-1651.5 1058.5,-2018.5 1058.5,-2018.5 1058.5,-2024.5 1052.5,-2030.5 1046.5,-2030.5"/>
<text text-anchor="start" x="919.5" y="-2009.2" font-family="Times,serif" font-size="16.00">transcript</text>
<polygon fill="white" stroke="transparent" points="872.5,-1981 872.5,-2000 1048.5,-2000 1048.5,-1981 872.5,-1981"/>
<text text-anchor="start" x="898.5" y="-1987.8" font-family="Times,serif" font-weight="bold" font-size="14.00">PK</text>
<text text-anchor="start" x="921.5" y="-1987.8" font-family="Times,serif" font-size="14.00">  transcript_id</text>
<polygon fill="white" stroke="transparent" points="872.5,-1960 872.5,-1979 1048.5,-1979 1048.5,-1960 872.5,-1960"/>
<text text-anchor="start" x="933" y="-1965.8" font-family="Times,serif" font-size="14.00">gene_id</text>
<polygon fill="white" stroke="transparent" points="872.5,-1939 872.5,-1958 1048.5,-1958 1048.5,-1939 872.5,-1939"/>
<text text-anchor="start" x="921" y="-1944.8" font-family="Times,serif" font-size="14.00">analysis_id</text>
<polygon fill="white" stroke="transparent" points="872.5,-1918 872.5,-1937 1048.5,-1937 1048.5,-1918 872.5,-1918"/>
<text text-anchor="start" x="911.5" y="-1923.8" font-family="Times,serif" font-size="14.00">seq_region_id</text>
<polygon fill="white" stroke="transparent" points="872.5,-1897 872.5,-1916 1048.5,-1916 1048.5,-1897 872.5,-1897"/>
<text text-anchor="start" x="901" y="-1902.8" font-family="Times,serif" font-size="14.00">seq_region_start</text>
<polygon fill="white" stroke="transparent" points="872.5,-1876 872.5,-1895 1048.5,-1895 1048.5,-1876 872.5,-1876"/>
<text text-anchor="start" x="905" y="-1881.8" font-family="Times,serif" font-size="14.00">seq_region_end</text>
<polygon fill="white" stroke="transparent" points="872.5,-1855 872.5,-1874 1048.5,-1874 1048.5,-1855 872.5,-1855"/>
<text text-anchor="start" x="895" y="-1860.8" font-family="Times,serif" font-size="14.00">seq_region_strand</text>
<polygon fill="white" stroke="transparent" points="872.5,-1834 872.5,-1853 1048.5,-1853 1048.5,-1834 872.5,-1834"/>
<text text-anchor="start" x="907" y="-1839.8" font-family="Times,serif" font-size="14.00">display_xref_id</text>
<polygon fill="white" stroke="transparent" points="872.5,-1813 872.5,-1832 1048.5,-1832 1048.5,-1813 872.5,-1813"/>
<text text-anchor="start" x="936.5" y="-1818.8" font-family="Times,serif" font-size="14.00">source</text>
<polygon fill="white" stroke="transparent" points="872.5,-1792 872.5,-1811 1048.5,-1811 1048.5,-1792 872.5,-1792"/>
<text text-anchor="start" x="933.5" y="-1797.8" font-family="Times,serif" font-size="14.00">biotype</text>
<polygon fill="white" stroke="transparent" points="872.5,-1771 872.5,-1790 1048.5,-1790 1048.5,-1771 872.5,-1771"/>
<text text-anchor="start" x="920" y="-1776.8" font-family="Times,serif" font-size="14.00">description</text>
<polygon fill="white" stroke="transparent" points="872.5,-1750 872.5,-1769 1048.5,-1769 1048.5,-1750 872.5,-1750"/>
<text text-anchor="start" x="924" y="-1755.8" font-family="Times,serif" font-size="14.00">is_current</text>
<polygon fill="white" stroke="transparent" points="872.5,-1729 872.5,-1748 1048.5,-1748 1048.5,-1729 872.5,-1729"/>
<text text-anchor="start" x="874.5" y="-1734.8" font-family="Times,serif" font-size="14.00">canonical_translation_id</text>
<polygon fill="white" stroke="transparent" points="872.5,-1708 872.5,-1727 1048.5,-1727 1048.5,-1708 872.5,-1708"/>
<text text-anchor="start" x="928.5" y="-1713.8" font-family="Times,serif" font-size="14.00">stable_id</text>
<polygon fill="white" stroke="transparent" points="872.5,-1687 872.5,-1706 1048.5,-1706 1048.5,-1687 872.5,-1687"/>
<text text-anchor="start" x="934" y="-1692.8" font-family="Times,serif" font-size="14.00">version</text>
<polygon fill="white" stroke="transparent" points="872.5,-1666 872.5,-1685 1048.5,-1685 1048.5,-1666 872.5,-1666"/>
<text text-anchor="start" x="914" y="-1671.8" font-family="Times,serif" font-size="14.00">created_date</text>
<polygon fill="white" stroke="transparent" points="872.5,-1645 872.5,-1664 1048.5,-1664 1048.5,-1645 872.5,-1645"/>
<text text-anchor="start" x="910.5" y="-1650.8" font-family="Times,serif" font-size="14.00">modified_date</text>
<polygon fill="black" stroke="black" points="870.5,-2001 870.5,-2001 1050.5,-2001 1050.5,-2001 870.5,-2001"/>
</g>
<!-- exon_transcript&#45;&gt;transcript -->
<g id="edge13" class="edge">
<title>exon_transcript:e&#45;&gt;transcript:w</title>
<path fill="none" stroke="black" stroke-dasharray="5,2" d="M741.5,-2296C777.68,-2296 790.05,-2282.19 810,-2252 873.72,-2155.59 759.62,-2000.73 861.33,-1991.44"/>
<polygon fill="black" stroke="black" points="861.66,-1994.93 871.5,-1991 861.36,-1987.93 861.66,-1994.93"/>
</g>
<!-- gene&#45;&gt;analysis -->
<g id="edge14" class="edge">
<title>gene:e&#45;&gt;analysis:w</title>
<path fill="none" stroke="black" stroke-dasharray="5,2" d="M759.5,-1817C805.37,-1817 797.23,-1862.95 810,-1907 830.98,-1979.35 791.34,-2532.17 846,-2584 864.46,-2601.51 1051.71,-2594.25 1075,-2584 1121.27,-2563.64 1105.84,-2503.1 1147.39,-2494.92"/>
<polygon fill="black" stroke="black" points="1147.86,-2498.39 1157.5,-2494 1147.22,-2491.42 1147.86,-2498.39"/>
</g>
<!-- gene&#45;&gt;transcript -->
<g id="edge16" class="edge">
<title>gene:e&#45;&gt;transcript:w</title>
<path fill="none" stroke="black" stroke-dasharray="5,2" d="M759.5,-1627C840.49,-1627 791.53,-1960.39 861.35,-1989.04"/>
<polygon fill="black" stroke="black" points="861.02,-1992.54 871.5,-1991 862.34,-1985.67 861.02,-1992.54"/>
</g>
<!-- gene&#45;&gt;seq_region -->
<g id="edge15" class="edge">
<title>gene:e&#45;&gt;seq_region:w</title>
<path fill="none" stroke="black" stroke-dasharray="5,2" d="M759.5,-1796C866.93,-1796 803.13,-931.51 846,-833 922.82,-656.46 955.37,-520.84 1142.32,-516.13"/>
<polygon fill="black" stroke="black" points="1142.54,-519.62 1152.5,-516 1142.46,-512.62 1142.54,-519.62"/>
</g>
<!-- xref -->
<g id="node38" class="node">
<title>xref</title>
<path fill="#1e90ff" stroke="black" d="M1261,-122C1261,-122 1180,-122 1180,-122 1174,-122 1168,-116 1168,-110 1168,-110 1168,-58 1168,-58 1168,-52 1174,-46 1180,-46 1180,-46 1261,-46 1261,-46 1267,-46 1273,-52 1273,-58 1273,-58 1273,-110 1273,-110 1273,-116 1267,-122 1261,-122"/>
<text text-anchor="start" x="1204.5" y="-101.2" font-family="Times,serif" font-size="16.00">xref</text>
<polygon fill="white" stroke="transparent" points="1178.5,-73 1178.5,-92 1263.5,-92 1263.5,-73 1178.5,-73"/>
<text text-anchor="start" x="1180.5" y="-79.8" font-family="Times,serif" font-weight="bold" font-size="14.00">PK</text>
<text text-anchor="start" x="1203.5" y="-79.8" font-family="Times,serif" font-size="14.00">  xref_id</text>
<polygon fill="white" stroke="transparent" points="1178.5,-52 1178.5,-71 1263.5,-71 1263.5,-52 1178.5,-52"/>
<text text-anchor="start" x="1214" y="-58.8" font-family="Times,serif" font-style="italic" font-size="14.00">...</text>
<polygon fill="black" stroke="black" points="1176.5,-93 1176.5,-93 1265.5,-93 1265.5,-93 1176.5,-93"/>
</g>
<!-- gene&#45;&gt;xref -->
<g id="edge17" class="edge">
<title>gene:e&#45;&gt;xref:w</title>
<path fill="none" stroke="black" stroke-dasharray="5,2" d="M759.5,-1711C847.31,-1711 797.12,-1606.86 810,-1520 842.56,-1300.48 777.44,-733.07 846,-522 920.57,-292.43 932.33,-87.87 1167.24,-82.12"/>
<polygon fill="black" stroke="black" points="1167.54,-85.62 1177.5,-82 1167.46,-78.62 1167.54,-85.62"/>
</g>
<!-- gene_attrib -->
<g id="node12" class="node">
<title>gene_attrib</title>
<path fill="#808000" stroke="black" d="M440.5,-1574.5C440.5,-1574.5 340.5,-1574.5 340.5,-1574.5 334.5,-1574.5 328.5,-1568.5 328.5,-1562.5 328.5,-1562.5 328.5,-1489.5 328.5,-1489.5 328.5,-1483.5 334.5,-1477.5 340.5,-1477.5 340.5,-1477.5 440.5,-1477.5 440.5,-1477.5 446.5,-1477.5 452.5,-1483.5 452.5,-1489.5 452.5,-1489.5 452.5,-1562.5 452.5,-1562.5 452.5,-1568.5 446.5,-1574.5 440.5,-1574.5"/>
<text text-anchor="start" x="342.5" y="-1553.2" font-family="Times,serif" font-size="16.00">gene_attrib</text>
<polygon fill="white" stroke="transparent" points="338.5,-1525 338.5,-1544 442.5,-1544 442.5,-1525 338.5,-1525"/>
<text text-anchor="start" x="363" y="-1530.8" font-family="Times,serif" font-size="14.00">gene_id</text>
<polygon fill="white" stroke="transparent" points="338.5,-1504 338.5,-1523 442.5,-1523 442.5,-1504 338.5,-1504"/>
<text text-anchor="start" x="340.5" y="-1509.8" font-family="Times,serif" font-size="14.00">attrib_type_id</text>
<polygon fill="white" stroke="transparent" points="338.5,-1483 338.5,-1502 442.5,-1502 442.5,-1483 338.5,-1483"/>
<text text-anchor="start" x="371" y="-1488.8" font-family="Times,serif" font-size="14.00">value</text>
<polygon fill="black" stroke="black" points="336.5,-1545 336.5,-1545 444.5,-1545 444.5,-1545 336.5,-1545"/>
</g>
<!-- gene_attrib&#45;&gt;attrib_type -->
<g id="edge18" class="edge">
<title>gene_attrib:e&#45;&gt;attrib_type:w</title>
<path fill="none" stroke="black" stroke-dasharray="5,2" d="M443.5,-1513C494.37,-1513 488.52,-1462.39 537,-1447 652.65,-1410.29 721.64,-1363.84 810,-1447 858.07,-1492.24 828.46,-1976.36 846,-2040 856.69,-2078.8 849.07,-2120.19 881.3,-2127.02"/>
<polygon fill="black" stroke="black" points="881.21,-2130.53 891.5,-2128 881.88,-2123.56 881.21,-2130.53"/>
</g>
<!-- gene_attrib&#45;&gt;gene -->
<g id="edge19" class="edge">
<title>gene_attrib:e&#45;&gt;gene:w</title>
<path fill="none" stroke="black" stroke-dasharray="5,2" d="M443.5,-1535C597.54,-1535 437.44,-1844.61 577.37,-1858.52"/>
<polygon fill="black" stroke="black" points="577.34,-1862.02 587.5,-1859 577.68,-1855.03 577.34,-1862.02"/>
</g>
<!-- protein_align_feature -->
<g id="node13" class="node">
<title>protein_align_feature</title>
<path fill="#808000" stroke="black" d="M1063,-1621C1063,-1621 858,-1621 858,-1621 852,-1621 846,-1615 846,-1609 846,-1609 846,-1263 846,-1263 846,-1257 852,-1251 858,-1251 858,-1251 1063,-1251 1063,-1251 1069,-1251 1075,-1257 1075,-1263 1075,-1263 1075,-1609 1075,-1609 1075,-1615 1069,-1621 1063,-1621"/>
<text text-anchor="start" x="872" y="-1600.2" font-family="Times,serif" font-size="16.00">protein_align_feature</text>
<polygon fill="white" stroke="transparent" points="856.5,-1572 856.5,-1591 1065.5,-1591 1065.5,-1572 856.5,-1572"/>
<text text-anchor="start" x="858.5" y="-1578.8" font-family="Times,serif" font-weight="bold" font-size="14.00">PK</text>
<text text-anchor="start" x="881.5" y="-1578.8" font-family="Times,serif" font-size="14.00">  protein_align_feature_id</text>
<polygon fill="white" stroke="transparent" points="856.5,-1551 856.5,-1570 1065.5,-1570 1065.5,-1551 856.5,-1551"/>
<text text-anchor="start" x="912" y="-1556.8" font-family="Times,serif" font-size="14.00">seq_region_id</text>
<polygon fill="white" stroke="transparent" points="856.5,-1530 856.5,-1549 1065.5,-1549 1065.5,-1530 856.5,-1530"/>
<text text-anchor="start" x="901.5" y="-1535.8" font-family="Times,serif" font-size="14.00">seq_region_start</text>
<polygon fill="white" stroke="transparent" points="856.5,-1509 856.5,-1528 1065.5,-1528 1065.5,-1509 856.5,-1509"/>
<text text-anchor="start" x="905.5" y="-1514.8" font-family="Times,serif" font-size="14.00">seq_region_end</text>
<polygon fill="white" stroke="transparent" points="856.5,-1488 856.5,-1507 1065.5,-1507 1065.5,-1488 856.5,-1488"/>
<text text-anchor="start" x="895.5" y="-1493.8" font-family="Times,serif" font-size="14.00">seq_region_strand</text>
<polygon fill="white" stroke="transparent" points="856.5,-1467 856.5,-1486 1065.5,-1486 1065.5,-1467 856.5,-1467"/>
<text text-anchor="start" x="930.5" y="-1472.8" font-family="Times,serif" font-size="14.00">hit_start</text>
<polygon fill="white" stroke="transparent" points="856.5,-1446 856.5,-1465 1065.5,-1465 1065.5,-1446 856.5,-1446"/>
<text text-anchor="start" x="934.5" y="-1451.8" font-family="Times,serif" font-size="14.00">hit_end</text>
<polygon fill="white" stroke="transparent" points="856.5,-1425 856.5,-1444 1065.5,-1444 1065.5,-1425 856.5,-1425"/>
<text text-anchor="start" x="928" y="-1430.8" font-family="Times,serif" font-size="14.00">hit_name</text>
<polygon fill="white" stroke="transparent" points="856.5,-1404 856.5,-1423 1065.5,-1423 1065.5,-1404 856.5,-1404"/>
<text text-anchor="start" x="921.5" y="-1409.8" font-family="Times,serif" font-size="14.00">analysis_id</text>
<polygon fill="white" stroke="transparent" points="856.5,-1383 856.5,-1402 1065.5,-1402 1065.5,-1383 856.5,-1383"/>
<text text-anchor="start" x="941.5" y="-1388.8" font-family="Times,serif" font-size="14.00">score</text>
<polygon fill="white" stroke="transparent" points="856.5,-1362 856.5,-1381 1065.5,-1381 1065.5,-1362 856.5,-1362"/>
<text text-anchor="start" x="937.5" y="-1367.8" font-family="Times,serif" font-size="14.00">evalue</text>
<polygon fill="white" stroke="transparent" points="856.5,-1341 856.5,-1360 1065.5,-1360 1065.5,-1341 856.5,-1341"/>
<text text-anchor="start" x="923" y="-1346.8" font-family="Times,serif" font-size="14.00">perc_ident</text>
<polygon fill="white" stroke="transparent" points="856.5,-1320 856.5,-1339 1065.5,-1339 1065.5,-1320 856.5,-1320"/>
<text text-anchor="start" x="926" y="-1325.8" font-family="Times,serif" font-size="14.00">cigar_line</text>
<polygon fill="white" stroke="transparent" points="856.5,-1299 856.5,-1318 1065.5,-1318 1065.5,-1299 856.5,-1299"/>
<text text-anchor="start" x="908.5" y="-1304.8" font-family="Times,serif" font-size="14.00">external_db_id</text>
<polygon fill="white" stroke="transparent" points="856.5,-1278 856.5,-1297 1065.5,-1297 1065.5,-1278 856.5,-1278"/>
<text text-anchor="start" x="924" y="-1283.8" font-family="Times,serif" font-size="14.00">hcoverage</text>
<polygon fill="white" stroke="transparent" points="856.5,-1257 856.5,-1276 1065.5,-1276 1065.5,-1257 856.5,-1257"/>
<text text-anchor="start" x="924" y="-1262.8" font-family="Times,serif" font-size="14.00">align_type</text>
<polygon fill="black" stroke="black" points="854.5,-1592 854.5,-1592 1067.5,-1592 1067.5,-1592 854.5,-1592"/>
</g>
<!-- protein_align_feature&#45;&gt;analysis -->
<g id="edge28" class="edge">
<title>protein_align_feature:e&#45;&gt;analysis:w</title>
<path fill="none" stroke="black" stroke-dasharray="5,2" d="M1066.5,-1413C1108.95,-1413 1104.61,-2133.77 1109,-2176 1123.41,-2314.73 1019.79,-2485.44 1147.47,-2493.69"/>
<polygon fill="black" stroke="black" points="1147.4,-2497.19 1157.5,-2494 1147.61,-2490.19 1147.4,-2497.19"/>
</g>
<!-- protein_align_feature&#45;&gt;external_db -->
<g id="edge29" class="edge">
<title>protein_align_feature:e&#45;&gt;external_db:w</title>
<path fill="none" stroke="black" stroke-dasharray="5,2" d="M1066.5,-1308C1096.08,-1308 1072.61,-1271.48 1075,-1242 1084.11,-1129.42 1069.51,-331.83 1109,-226 1117.67,-202.77 1120.25,-182.23 1139.44,-177.18"/>
<polygon fill="black" stroke="black" points="1139.98,-180.64 1149.5,-176 1139.16,-173.69 1139.98,-180.64"/>
</g>
<!-- protein_align_feature&#45;&gt;seq_region -->
<g id="edge30" class="edge">
<title>protein_align_feature:e&#45;&gt;seq_region:w</title>
<path fill="none" stroke="black" stroke-dasharray="5,2" d="M1066.5,-1561C1121.83,-1561 1088.51,-617.39 1109,-566 1118.5,-542.17 1122.11,-521.92 1142.35,-517.09"/>
<polygon fill="black" stroke="black" points="1142.93,-520.55 1152.5,-516 1142.18,-513.59 1142.93,-520.55"/>
</g>
<!-- protein_feature -->
<g id="node14" class="node">
<title>protein_feature</title>
<path fill="#808000" stroke="black" d="M1042,-2574.5C1042,-2574.5 879,-2574.5 879,-2574.5 873,-2574.5 867,-2568.5 867,-2562.5 867,-2562.5 867,-2237.5 867,-2237.5 867,-2231.5 873,-2225.5 879,-2225.5 879,-2225.5 1042,-2225.5 1042,-2225.5 1048,-2225.5 1054,-2231.5 1054,-2237.5 1054,-2237.5 1054,-2562.5 1054,-2562.5 1054,-2568.5 1048,-2574.5 1042,-2574.5"/>
<text text-anchor="start" x="896.5" y="-2553.2" font-family="Times,serif" font-size="16.00">protein_feature</text>
<polygon fill="white" stroke="transparent" points="877.5,-2525 877.5,-2544 1044.5,-2544 1044.5,-2525 877.5,-2525"/>
<text text-anchor="start" x="879.5" y="-2531.8" font-family="Times,serif" font-weight="bold" font-size="14.00">PK</text>
<text text-anchor="start" x="902.5" y="-2531.8" font-family="Times,serif" font-size="14.00">  protein_feature_id</text>
<polygon fill="white" stroke="transparent" points="877.5,-2504 877.5,-2523 1044.5,-2523 1044.5,-2504 877.5,-2504"/>
<text text-anchor="start" x="911.5" y="-2509.8" font-family="Times,serif" font-size="14.00">translation_id</text>
<polygon fill="white" stroke="transparent" points="877.5,-2483 877.5,-2502 1044.5,-2502 1044.5,-2483 877.5,-2483"/>
<text text-anchor="start" x="927.5" y="-2488.8" font-family="Times,serif" font-size="14.00">seq_start</text>
<polygon fill="white" stroke="transparent" points="877.5,-2462 877.5,-2481 1044.5,-2481 1044.5,-2462 877.5,-2462"/>
<text text-anchor="start" x="932" y="-2467.8" font-family="Times,serif" font-size="14.00">seq_end</text>
<polygon fill="white" stroke="transparent" points="877.5,-2441 877.5,-2460 1044.5,-2460 1044.5,-2441 877.5,-2441"/>
<text text-anchor="start" x="930.5" y="-2446.8" font-family="Times,serif" font-size="14.00">hit_start</text>
<polygon fill="white" stroke="transparent" points="877.5,-2420 877.5,-2439 1044.5,-2439 1044.5,-2420 877.5,-2420"/>
<text text-anchor="start" x="934.5" y="-2425.8" font-family="Times,serif" font-size="14.00">hit_end</text>
<polygon fill="white" stroke="transparent" points="877.5,-2399 877.5,-2418 1044.5,-2418 1044.5,-2399 877.5,-2399"/>
<text text-anchor="start" x="928" y="-2404.8" font-family="Times,serif" font-size="14.00">hit_name</text>
<polygon fill="white" stroke="transparent" points="877.5,-2378 877.5,-2397 1044.5,-2397 1044.5,-2378 877.5,-2378"/>
<text text-anchor="start" x="921.5" y="-2383.8" font-family="Times,serif" font-size="14.00">analysis_id</text>
<polygon fill="white" stroke="transparent" points="877.5,-2357 877.5,-2376 1044.5,-2376 1044.5,-2357 877.5,-2357"/>
<text text-anchor="start" x="941.5" y="-2362.8" font-family="Times,serif" font-size="14.00">score</text>
<polygon fill="white" stroke="transparent" points="877.5,-2336 877.5,-2355 1044.5,-2355 1044.5,-2336 877.5,-2336"/>
<text text-anchor="start" x="937.5" y="-2341.8" font-family="Times,serif" font-size="14.00">evalue</text>
<polygon fill="white" stroke="transparent" points="877.5,-2315 877.5,-2334 1044.5,-2334 1044.5,-2315 877.5,-2315"/>
<text text-anchor="start" x="923" y="-2320.8" font-family="Times,serif" font-size="14.00">perc_ident</text>
<polygon fill="white" stroke="transparent" points="877.5,-2294 877.5,-2313 1044.5,-2313 1044.5,-2294 877.5,-2294"/>
<text text-anchor="start" x="912" y="-2299.8" font-family="Times,serif" font-size="14.00">external_data</text>
<polygon fill="white" stroke="transparent" points="877.5,-2273 877.5,-2292 1044.5,-2292 1044.5,-2273 877.5,-2273"/>
<text text-anchor="start" x="907.5" y="-2278.8" font-family="Times,serif" font-size="14.00">hit_description</text>
<polygon fill="white" stroke="transparent" points="877.5,-2252 877.5,-2271 1044.5,-2271 1044.5,-2252 877.5,-2252"/>
<text text-anchor="start" x="926" y="-2257.8" font-family="Times,serif" font-size="14.00">cigar_line</text>
<polygon fill="white" stroke="transparent" points="877.5,-2231 877.5,-2250 1044.5,-2250 1044.5,-2231 877.5,-2231"/>
<text text-anchor="start" x="924" y="-2236.8" font-family="Times,serif" font-size="14.00">align_type</text>
<polygon fill="black" stroke="black" points="875.5,-2545 875.5,-2545 1046.5,-2545 1046.5,-2545 875.5,-2545"/>
</g>
<!-- protein_feature&#45;&gt;analysis -->
<g id="edge31" class="edge">
<title>protein_feature:e&#45;&gt;analysis:w</title>
<path fill="none" stroke="black" stroke-dasharray="5,2" d="M1045.5,-2387C1110.71,-2387 1091.1,-2483.01 1147.37,-2493.14"/>
<polygon fill="black" stroke="black" points="1147.24,-2496.64 1157.5,-2494 1147.83,-2489.67 1147.24,-2496.64"/>
</g>
<!-- translation -->
<g id="node19" class="node">
<title>translation</title>
<path fill="#808000" stroke="black" d="M1286,-2051C1286,-2051 1155,-2051 1155,-2051 1149,-2051 1143,-2045 1143,-2039 1143,-2039 1143,-1819 1143,-1819 1143,-1813 1149,-1807 1155,-1807 1155,-1807 1286,-1807 1286,-1807 1292,-1807 1298,-1813 1298,-1819 1298,-1819 1298,-2039 1298,-2039 1298,-2045 1292,-2051 1286,-2051"/>
<text text-anchor="start" x="1175.5" y="-2030.2" font-family="Times,serif" font-size="16.00">translation</text>
<polygon fill="white" stroke="transparent" points="1153.5,-2002 1153.5,-2021 1288.5,-2021 1288.5,-2002 1153.5,-2002"/>
<text text-anchor="start" x="1155.5" y="-2008.8" font-family="Times,serif" font-weight="bold" font-size="14.00">PK</text>
<text text-anchor="start" x="1178.5" y="-2008.8" font-family="Times,serif" font-size="14.00">  translation_id</text>
<polygon fill="white" stroke="transparent" points="1153.5,-1981 1153.5,-2000 1288.5,-2000 1288.5,-1981 1153.5,-1981"/>
<text text-anchor="start" x="1175" y="-1986.8" font-family="Times,serif" font-size="14.00">transcript_id</text>
<polygon fill="white" stroke="transparent" points="1153.5,-1960 1153.5,-1979 1288.5,-1979 1288.5,-1960 1153.5,-1960"/>
<text text-anchor="start" x="1187.5" y="-1965.8" font-family="Times,serif" font-size="14.00">seq_start</text>
<polygon fill="white" stroke="transparent" points="1153.5,-1939 1153.5,-1958 1288.5,-1958 1288.5,-1939 1153.5,-1939"/>
<text text-anchor="start" x="1173" y="-1944.8" font-family="Times,serif" font-size="14.00">start_exon_id</text>
<polygon fill="white" stroke="transparent" points="1153.5,-1918 1153.5,-1937 1288.5,-1937 1288.5,-1918 1153.5,-1918"/>
<text text-anchor="start" x="1192" y="-1923.8" font-family="Times,serif" font-size="14.00">seq_end</text>
<polygon fill="white" stroke="transparent" points="1153.5,-1897 1153.5,-1916 1288.5,-1916 1288.5,-1897 1153.5,-1897"/>
<text text-anchor="start" x="1177" y="-1902.8" font-family="Times,serif" font-size="14.00">end_exon_id</text>
<polygon fill="white" stroke="transparent" points="1153.5,-1876 1153.5,-1895 1288.5,-1895 1288.5,-1876 1153.5,-1876"/>
<text text-anchor="start" x="1189" y="-1881.8" font-family="Times,serif" font-size="14.00">stable_id</text>
<polygon fill="white" stroke="transparent" points="1153.5,-1855 1153.5,-1874 1288.5,-1874 1288.5,-1855 1153.5,-1855"/>
<text text-anchor="start" x="1194.5" y="-1860.8" font-family="Times,serif" font-size="14.00">version</text>
<polygon fill="white" stroke="transparent" points="1153.5,-1834 1153.5,-1853 1288.5,-1853 1288.5,-1834 1153.5,-1834"/>
<text text-anchor="start" x="1174.5" y="-1839.8" font-family="Times,serif" font-size="14.00">created_date</text>
<polygon fill="white" stroke="transparent" points="1153.5,-1813 1153.5,-1832 1288.5,-1832 1288.5,-1813 1153.5,-1813"/>
<text text-anchor="start" x="1171" y="-1818.8" font-family="Times,serif" font-size="14.00">modified_date</text>
<polygon fill="black" stroke="black" points="1151.5,-2022 1151.5,-2022 1290.5,-2022 1290.5,-2022 1151.5,-2022"/>
</g>
<!-- protein_feature&#45;&gt;translation -->
<g id="edge32" class="edge">
<title>protein_feature:e&#45;&gt;translation:w</title>
<path fill="none" stroke="black" stroke-dasharray="5,2" d="M1045.5,-2514C1147.15,-2514 1066.38,-2153.29 1109,-2061 1119.64,-2037.97 1122.65,-2017.88 1142.5,-2013.08"/>
<polygon fill="black" stroke="black" points="1142.94,-2016.56 1152.5,-2012 1142.18,-2009.6 1142.94,-2016.56"/>
</g>
<!-- supporting_feature -->
<g id="node15" class="node">
<title>supporting_feature</title>
<path fill="#808000" stroke="black" d="M1300,-2166.5C1300,-2166.5 1141,-2166.5 1141,-2166.5 1135,-2166.5 1129,-2160.5 1129,-2154.5 1129,-2154.5 1129,-2081.5 1129,-2081.5 1129,-2075.5 1135,-2069.5 1141,-2069.5 1141,-2069.5 1300,-2069.5 1300,-2069.5 1306,-2069.5 1312,-2075.5 1312,-2081.5 1312,-2081.5 1312,-2154.5 1312,-2154.5 1312,-2160.5 1306,-2166.5 1300,-2166.5"/>
<text text-anchor="start" x="1141.5" y="-2145.2" font-family="Times,serif" font-size="16.00">supporting_feature</text>
<polygon fill="white" stroke="transparent" points="1139.5,-2117 1139.5,-2136 1302.5,-2136 1302.5,-2117 1139.5,-2117"/>
<text text-anchor="start" x="1193.5" y="-2122.8" font-family="Times,serif" font-size="14.00">exon_id</text>
<polygon fill="white" stroke="transparent" points="1139.5,-2096 1139.5,-2115 1302.5,-2115 1302.5,-2096 1139.5,-2096"/>
<text text-anchor="start" x="1175.5" y="-2101.8" font-family="Times,serif" font-size="14.00">feature_type</text>
<polygon fill="white" stroke="transparent" points="1139.5,-2075 1139.5,-2094 1302.5,-2094 1302.5,-2075 1139.5,-2075"/>
<text text-anchor="start" x="1184.5" y="-2080.8" font-family="Times,serif" font-size="14.00">feature_id</text>
<polygon fill="black" stroke="black" points="1137.5,-2137 1137.5,-2137 1304.5,-2137 1304.5,-2137 1137.5,-2137"/>
</g>
<!-- supporting_feature&#45;&gt;exon -->
<g id="edge36" class="edge">
<title>supporting_feature:e&#45;&gt;exon:w</title>
<path fill="none" stroke="black" stroke-dasharray="5,2" d="M1303.5,-2127C1358.74,-2127 1322.83,-2029.85 1366.32,-2017.32"/>
<polygon fill="black" stroke="black" points="1367.04,-2020.76 1376.5,-2016 1366.13,-2013.82 1367.04,-2020.76"/>
</g>
<!-- transcript&#45;&gt;analysis -->
<g id="edge37" class="edge">
<title>transcript:e&#45;&gt;analysis:w</title>
<path fill="none" stroke="black" stroke-dasharray="5,2" d="M1049.5,-1949C1169.35,-1949 1041.95,-2462.53 1147.31,-2492.62"/>
<polygon fill="black" stroke="black" points="1147.12,-2496.13 1157.5,-2494 1148.06,-2489.19 1147.12,-2496.13"/>
</g>
<!-- transcript&#45;&gt;gene -->
<g id="edge38" class="edge">
<title>transcript:e&#45;&gt;gene:w</title>
<path fill="none" stroke="black" stroke-dasharray="5,2" d="M1049.5,-1970C1076.39,-1970 1067.67,-2011.64 1048.5,-2030.5 1033.77,-2044.99 879.74,-2041.9 862.5,-2030.5 812.76,-1997.59 859.07,-1940.91 810,-1907 789.74,-1893 605.79,-1915.55 588.5,-1898 579.47,-1888.83 573.74,-1871.79 578.48,-1863.61"/>
<polygon fill="black" stroke="black" points="580.19,-1866.67 587.5,-1859 577,-1860.43 580.19,-1866.67"/>
</g>
<!-- transcript&#45;&gt;translation -->
<g id="edge40" class="edge">
<title>transcript:e&#45;&gt;translation:w</title>
<path fill="none" stroke="black" stroke-dasharray="5,2" d="M1049.5,-1738C1176.04,-1738 1030.78,-1997.22 1142.46,-2011.4"/>
<polygon fill="black" stroke="black" points="1142.31,-2014.89 1152.5,-2012 1142.73,-2007.91 1142.31,-2014.89"/>
</g>
<!-- transcript&#45;&gt;seq_region -->
<g id="edge39" class="edge">
<title>transcript:e&#45;&gt;seq_region:w</title>
<path fill="none" stroke="black" stroke-dasharray="5,2" d="M1049.5,-1928C1115.96,-1928 1071.1,-1696.35 1075,-1630 1081.93,-1511.92 1065.79,-676.11 1109,-566 1118.37,-542.12 1122.07,-521.9 1142.34,-517.09"/>
<polygon fill="black" stroke="black" points="1142.93,-520.54 1152.5,-516 1142.18,-513.58 1142.93,-520.54"/>
</g>
<!-- transcript&#45;&gt;xref -->
<g id="edge41" class="edge">
<title>transcript:e&#45;&gt;xref:w</title>
<path fill="none" stroke="black" stroke-dasharray="5,2" d="M1049.5,-1844C1145.28,-1844 1068.24,-1725.55 1075,-1630 1080.88,-1546.91 1070.07,-204.64 1109,-131 1124.78,-101.14 1137.38,-85.27 1167.19,-82.46"/>
<polygon fill="black" stroke="black" points="1167.66,-85.94 1177.5,-82 1167.35,-78.95 1167.66,-85.94"/>
</g>
<!-- transcript_attrib -->
<g id="node17" class="node">
<title>transcript_attrib</title>
<path fill="#808000" stroke="black" d="M742,-2127.5C742,-2127.5 605,-2127.5 605,-2127.5 599,-2127.5 593,-2121.5 593,-2115.5 593,-2115.5 593,-2042.5 593,-2042.5 593,-2036.5 599,-2030.5 605,-2030.5 605,-2030.5 742,-2030.5 742,-2030.5 748,-2030.5 754,-2036.5 754,-2042.5 754,-2042.5 754,-2115.5 754,-2115.5 754,-2121.5 748,-2127.5 742,-2127.5"/>
<text text-anchor="start" x="605.5" y="-2106.2" font-family="Times,serif" font-size="16.00">transcript_attrib</text>
<polygon fill="white" stroke="transparent" points="603.5,-2078 603.5,-2097 744.5,-2097 744.5,-2078 603.5,-2078"/>
<text text-anchor="start" x="628" y="-2083.8" font-family="Times,serif" font-size="14.00">transcript_id</text>
<polygon fill="white" stroke="transparent" points="603.5,-2057 603.5,-2076 744.5,-2076 744.5,-2057 603.5,-2057"/>
<text text-anchor="start" x="624" y="-2062.8" font-family="Times,serif" font-size="14.00">attrib_type_id</text>
<polygon fill="white" stroke="transparent" points="603.5,-2036 603.5,-2055 744.5,-2055 744.5,-2036 603.5,-2036"/>
<text text-anchor="start" x="654.5" y="-2041.8" font-family="Times,serif" font-size="14.00">value</text>
<polygon fill="black" stroke="black" points="601.5,-2098 601.5,-2098 746.5,-2098 746.5,-2098 601.5,-2098"/>
</g>
<!-- transcript_attrib&#45;&gt;attrib_type -->
<g id="edge42" class="edge">
<title>transcript_attrib:e&#45;&gt;attrib_type:w</title>
<path fill="none" stroke="black" stroke-dasharray="5,2" d="M745.5,-2066C812.42,-2066 820.33,-2121.86 881.25,-2127.54"/>
<polygon fill="black" stroke="black" points="881.35,-2131.04 891.5,-2128 881.67,-2124.05 881.35,-2131.04"/>
</g>
<!-- transcript_attrib&#45;&gt;transcript -->
<g id="edge43" class="edge">
<title>transcript_attrib:e&#45;&gt;transcript:w</title>
<path fill="none" stroke="black" stroke-dasharray="5,2" d="M745.5,-2088C812.58,-2088 802.16,-2000.6 861.38,-1991.73"/>
<polygon fill="black" stroke="black" points="861.78,-1995.21 871.5,-1991 861.28,-1988.22 861.78,-1995.21"/>
</g>
<!-- transcript_supporting_feature -->
<g id="node18" class="node">
<title>transcript_supporting_feature</title>
<path fill="#808000" stroke="black" d="M798,-2012.5C798,-2012.5 549,-2012.5 549,-2012.5 543,-2012.5 537,-2006.5 537,-2000.5 537,-2000.5 537,-1927.5 537,-1927.5 537,-1921.5 543,-1915.5 549,-1915.5 549,-1915.5 798,-1915.5 798,-1915.5 804,-1915.5 810,-1921.5 810,-1927.5 810,-1927.5 810,-2000.5 810,-2000.5 810,-2006.5 804,-2012.5 798,-2012.5"/>
<text text-anchor="start" x="549.5" y="-1991.2" font-family="Times,serif" font-size="16.00">transcript_supporting_feature</text>
<polygon fill="white" stroke="transparent" points="547.5,-1963 547.5,-1982 800.5,-1982 800.5,-1963 547.5,-1963"/>
<text text-anchor="start" x="628" y="-1968.8" font-family="Times,serif" font-size="14.00">transcript_id</text>
<polygon fill="white" stroke="transparent" points="547.5,-1942 547.5,-1961 800.5,-1961 800.5,-1942 547.5,-1942"/>
<text text-anchor="start" x="628.5" y="-1947.8" font-family="Times,serif" font-size="14.00">feature_type</text>
<polygon fill="white" stroke="transparent" points="547.5,-1921 547.5,-1940 800.5,-1940 800.5,-1921 547.5,-1921"/>
<text text-anchor="start" x="637.5" y="-1926.8" font-family="Times,serif" font-size="14.00">feature_id</text>
<polygon fill="black" stroke="black" points="545.5,-1983 545.5,-1983 802.5,-1983 802.5,-1983 545.5,-1983"/>
</g>
<!-- transcript_supporting_feature&#45;&gt;transcript -->
<g id="edge44" class="edge">
<title>transcript_supporting_feature:e&#45;&gt;transcript:w</title>
<path fill="none" stroke="black" stroke-dasharray="5,2" d="M801.5,-1973C829.86,-1973 837.67,-1987.03 861.21,-1990.32"/>
<polygon fill="black" stroke="black" points="861.29,-1993.83 871.5,-1991 861.75,-1986.84 861.29,-1993.83"/>
</g>
<!-- translation&#45;&gt;exon -->
<g id="edge45" class="edge">
<title>translation:e&#45;&gt;exon:w</title>
<path fill="none" stroke="black" stroke-dasharray="5,2" d="M1289.5,-1906C1348.18,-1906 1318.24,-2003.49 1366.53,-2014.91"/>
<polygon fill="black" stroke="black" points="1366.18,-2018.39 1376.5,-2016 1366.94,-2011.43 1366.18,-2018.39"/>
</g>
<!-- translation&#45;&gt;transcript -->
<g id="edge46" class="edge">
<title>translation:e&#45;&gt;transcript:w</title>
<path fill="none" stroke="black" stroke-dasharray="5,2" d="M1289.5,-1991C1316.17,-1991 1307.52,-2032.3 1288.5,-2051 1265.45,-2073.67 1175.23,-2053.59 1143,-2051 1112.48,-2048.55 1105.45,-2043.17 1075,-2040 1052.6,-2037.67 888.25,-2046.6 872.5,-2030.5 863.29,-2021.09 857.45,-2003.57 862.52,-1995.41"/>
<polygon fill="black" stroke="black" points="864.06,-1998.55 871.5,-1991 860.98,-1992.26 864.06,-1998.55"/>
</g>
<!-- translation_attrib -->
<g id="node20" class="node">
<title>translation_attrib</title>
<path fill="#808000" stroke="black" d="M746,-2242.5C746,-2242.5 601,-2242.5 601,-2242.5 595,-2242.5 589,-2236.5 589,-2230.5 589,-2230.5 589,-2157.5 589,-2157.5 589,-2151.5 595,-2145.5 601,-2145.5 601,-2145.5 746,-2145.5 746,-2145.5 752,-2145.5 758,-2151.5 758,-2157.5 758,-2157.5 758,-2230.5 758,-2230.5 758,-2236.5 752,-2242.5 746,-2242.5"/>
<text text-anchor="start" x="601.5" y="-2221.2" font-family="Times,serif" font-size="16.00">translation_attrib</text>
<polygon fill="white" stroke="transparent" points="599.5,-2193 599.5,-2212 748.5,-2212 748.5,-2193 599.5,-2193"/>
<text text-anchor="start" x="624.5" y="-2198.8" font-family="Times,serif" font-size="14.00">translation_id</text>
<polygon fill="white" stroke="transparent" points="599.5,-2172 599.5,-2191 748.5,-2191 748.5,-2172 599.5,-2172"/>
<text text-anchor="start" x="624" y="-2177.8" font-family="Times,serif" font-size="14.00">attrib_type_id</text>
<polygon fill="white" stroke="transparent" points="599.5,-2151 599.5,-2170 748.5,-2170 748.5,-2151 599.5,-2151"/>
<text text-anchor="start" x="654.5" y="-2156.8" font-family="Times,serif" font-size="14.00">value</text>
<polygon fill="black" stroke="black" points="597.5,-2213 597.5,-2213 750.5,-2213 750.5,-2213 597.5,-2213"/>
</g>
<!-- translation_attrib&#45;&gt;attrib_type -->
<g id="edge47" class="edge">
<title>translation_attrib:e&#45;&gt;attrib_type:w</title>
<path fill="none" stroke="black" stroke-dasharray="5,2" d="M749.5,-2181C813.31,-2181 823.2,-2133.44 881.33,-2128.43"/>
<polygon fill="black" stroke="black" points="881.66,-2131.92 891.5,-2128 881.36,-2124.92 881.66,-2131.92"/>
</g>
<!-- translation_attrib&#45;&gt;translation -->
<g id="edge48" class="edge">
<title>translation_attrib:e&#45;&gt;translation:w</title>
<path fill="none" stroke="black" stroke-dasharray="5,2" d="M749.5,-2203C767.65,-2203 1060.93,-2187.45 1075,-2176 1134.72,-2127.4 1077.52,-2022.04 1142.5,-2012.67"/>
<polygon fill="black" stroke="black" points="1142.76,-2016.16 1152.5,-2012 1142.29,-2009.18 1142.76,-2016.16"/>
</g>
<!-- data_file -->
<g id="node21" class="node">
<title>data_file</title>
<path fill="#c70c09" stroke="black" d="M1260,-786.5C1260,-786.5 1181,-786.5 1181,-786.5 1175,-786.5 1169,-780.5 1169,-774.5 1169,-774.5 1169,-701.5 1169,-701.5 1169,-695.5 1175,-689.5 1181,-689.5 1181,-689.5 1260,-689.5 1260,-689.5 1266,-689.5 1272,-695.5 1272,-701.5 1272,-701.5 1272,-774.5 1272,-774.5 1272,-780.5 1266,-786.5 1260,-786.5"/>
<text text-anchor="start" x="1185.5" y="-765.2" font-family="Times,serif" font-size="16.00">data_file</text>
<polygon fill="white" stroke="transparent" points="1179.5,-737 1179.5,-756 1262.5,-756 1262.5,-737 1179.5,-737"/>
<text text-anchor="start" x="1214" y="-743.8" font-family="Times,serif" font-style="italic" font-size="14.00">...</text>
<polygon fill="white" stroke="transparent" points="1179.5,-716 1179.5,-735 1262.5,-735 1262.5,-716 1179.5,-716"/>
<text text-anchor="start" x="1181.5" y="-721.8" font-family="Times,serif" font-size="14.00">analysis_id</text>
<polygon fill="white" stroke="transparent" points="1179.5,-695 1179.5,-714 1262.5,-714 1262.5,-695 1179.5,-695"/>
<text text-anchor="start" x="1214" y="-701.8" font-family="Times,serif" font-style="italic" font-size="14.00">...</text>
<polygon fill="black" stroke="black" points="1177.5,-757 1177.5,-757 1264.5,-757 1264.5,-757 1177.5,-757"/>
</g>
<!-- data_file&#45;&gt;analysis -->
<g id="edge5" class="edge">
<title>data_file:e&#45;&gt;analysis:w</title>
<path fill="none" stroke="black" stroke-dasharray="5,2" d="M1272,-725C1299.33,-725 1288.71,-764.87 1272,-786.5 1221.12,-852.34 1134.92,-766.71 1092,-838 1072.74,-869.98 1088.14,-2144.87 1092,-2182 1106.26,-2319.35 1020.35,-2485.33 1147.15,-2493.67"/>
<polygon fill="black" stroke="black" points="1147.39,-2497.18 1157.5,-2494 1147.62,-2490.19 1147.39,-2497.18"/>
</g>
<!-- density_type -->
<g id="node22" class="node">
<title>density_type</title>
<path fill="#3cb371" stroke="black" d="M726,-3593.5C726,-3593.5 621,-3593.5 621,-3593.5 615,-3593.5 609,-3587.5 609,-3581.5 609,-3581.5 609,-3508.5 609,-3508.5 609,-3502.5 615,-3496.5 621,-3496.5 621,-3496.5 726,-3496.5 726,-3496.5 732,-3496.5 738,-3502.5 738,-3508.5 738,-3508.5 738,-3581.5 738,-3581.5 738,-3587.5 732,-3593.5 726,-3593.5"/>
<text text-anchor="start" x="621.5" y="-3572.2" font-family="Times,serif" font-size="16.00">density_type</text>
<polygon fill="white" stroke="transparent" points="619.5,-3544 619.5,-3563 728.5,-3563 728.5,-3544 619.5,-3544"/>
<text text-anchor="start" x="667" y="-3550.8" font-family="Times,serif" font-style="italic" font-size="14.00">...</text>
<polygon fill="white" stroke="transparent" points="619.5,-3523 619.5,-3542 728.5,-3542 728.5,-3523 619.5,-3523"/>
<text text-anchor="start" x="634.5" y="-3528.8" font-family="Times,serif" font-size="14.00">analysis_id</text>
<polygon fill="white" stroke="transparent" points="619.5,-3502 619.5,-3521 728.5,-3521 728.5,-3502 619.5,-3502"/>
<text text-anchor="start" x="667" y="-3508.8" font-family="Times,serif" font-style="italic" font-size="14.00">...</text>
<polygon fill="black" stroke="black" points="617.5,-3564 617.5,-3564 730.5,-3564 730.5,-3564 617.5,-3564"/>
</g>
<!-- density_type&#45;&gt;analysis -->
<g id="edge6" class="edge">
<title>density_type:e&#45;&gt;analysis:w</title>
<path fill="none" stroke="black" stroke-dasharray="5,2" d="M729.5,-3532C843.79,-3532 864.2,-3480.09 959.5,-3417"/>
</g>
<!-- ditag_feature -->
<g id="node23" class="node">
<title>ditag_feature</title>
<path fill="#3cb371" stroke="black" d="M729.5,-3478.5C729.5,-3478.5 617.5,-3478.5 617.5,-3478.5 611.5,-3478.5 605.5,-3472.5 605.5,-3466.5 605.5,-3466.5 605.5,-3393.5 605.5,-3393.5 605.5,-3387.5 611.5,-3381.5 617.5,-3381.5 617.5,-3381.5 729.5,-3381.5 729.5,-3381.5 735.5,-3381.5 741.5,-3387.5 741.5,-3393.5 741.5,-3393.5 741.5,-3466.5 741.5,-3466.5 741.5,-3472.5 735.5,-3478.5 729.5,-3478.5"/>
<text text-anchor="start" x="617.5" y="-3457.2" font-family="Times,serif" font-size="16.00">ditag_feature</text>
<polygon fill="white" stroke="transparent" points="615.5,-3429 615.5,-3448 731.5,-3448 731.5,-3429 615.5,-3429"/>
<text text-anchor="start" x="666.5" y="-3435.8" font-family="Times,serif" font-style="italic" font-size="14.00">...</text>
<polygon fill="white" stroke="transparent" points="615.5,-3408 615.5,-3427 731.5,-3427 731.5,-3408 615.5,-3408"/>
<text text-anchor="start" x="634" y="-3413.8" font-family="Times,serif" font-size="14.00">analysis_id</text>
<polygon fill="white" stroke="transparent" points="615.5,-3387 615.5,-3406 731.5,-3406 731.5,-3387 615.5,-3387"/>
<text text-anchor="start" x="666.5" y="-3393.8" font-family="Times,serif" font-style="italic" font-size="14.00">...</text>
<polygon fill="black" stroke="black" points="613.5,-3449 613.5,-3449 733.5,-3449 733.5,-3449 613.5,-3449"/>
</g>
<!-- ditag_feature&#45;&gt;analysis -->
<g id="edge7" class="edge">
<title>ditag_feature:e&#45;&gt;analysis:w</title>
<path fill="none" stroke="black" stroke-dasharray="5,2" d="M732.5,-3417C833.39,-3417 875.37,-3472.69 959.5,-3417"/>
</g>
<!-- intron_supporting_evidence -->
<g id="node25" class="node">
<title>intron_supporting_evidence</title>
<path fill="#3cb371" stroke="black" d="M789,-3363.5C789,-3363.5 558,-3363.5 558,-3363.5 552,-3363.5 546,-3357.5 546,-3351.5 546,-3351.5 546,-3278.5 546,-3278.5 546,-3272.5 552,-3266.5 558,-3266.5 558,-3266.5 789,-3266.5 789,-3266.5 795,-3266.5 801,-3272.5 801,-3278.5 801,-3278.5 801,-3351.5 801,-3351.5 801,-3357.5 795,-3363.5 789,-3363.5"/>
<text text-anchor="start" x="558.5" y="-3342.2" font-family="Times,serif" font-size="16.00">intron_supporting_evidence</text>
<polygon fill="white" stroke="transparent" points="556.5,-3314 556.5,-3333 791.5,-3333 791.5,-3314 556.5,-3314"/>
<text text-anchor="start" x="667" y="-3320.8" font-family="Times,serif" font-style="italic" font-size="14.00">...</text>
<polygon fill="white" stroke="transparent" points="556.5,-3293 556.5,-3312 791.5,-3312 791.5,-3293 556.5,-3293"/>
<text text-anchor="start" x="634.5" y="-3298.8" font-family="Times,serif" font-size="14.00">analysis_id</text>
<polygon fill="white" stroke="transparent" points="556.5,-3272 556.5,-3291 791.5,-3291 791.5,-3272 556.5,-3272"/>
<text text-anchor="start" x="667" y="-3278.8" font-family="Times,serif" font-style="italic" font-size="14.00">...</text>
<polygon fill="black" stroke="black" points="554.5,-3334 554.5,-3334 793.5,-3334 793.5,-3334 554.5,-3334"/>
</g>
<!-- intron_supporting_evidence&#45;&gt;analysis -->
<g id="edge20" class="edge">
<title>intron_supporting_evidence:e&#45;&gt;analysis:w</title>
<path fill="none" stroke="black" stroke-dasharray="5,2" d="M792.5,-3302C882.62,-3302 884.36,-3466.75 959.5,-3417"/>
</g>
<!-- marker_feature -->
<g id="node26" class="node">
<title>marker_feature</title>
<path fill="#3cb371" stroke="black" d="M737.5,-3248.5C737.5,-3248.5 609.5,-3248.5 609.5,-3248.5 603.5,-3248.5 597.5,-3242.5 597.5,-3236.5 597.5,-3236.5 597.5,-3163.5 597.5,-3163.5 597.5,-3157.5 603.5,-3151.5 609.5,-3151.5 609.5,-3151.5 737.5,-3151.5 737.5,-3151.5 743.5,-3151.5 749.5,-3157.5 749.5,-3163.5 749.5,-3163.5 749.5,-3236.5 749.5,-3236.5 749.5,-3242.5 743.5,-3248.5 737.5,-3248.5"/>
<text text-anchor="start" x="609.5" y="-3227.2" font-family="Times,serif" font-size="16.00">marker_feature</text>
<polygon fill="white" stroke="transparent" points="607.5,-3199 607.5,-3218 739.5,-3218 739.5,-3199 607.5,-3199"/>
<text text-anchor="start" x="666.5" y="-3205.8" font-family="Times,serif" font-style="italic" font-size="14.00">...</text>
<polygon fill="white" stroke="transparent" points="607.5,-3178 607.5,-3197 739.5,-3197 739.5,-3178 607.5,-3178"/>
<text text-anchor="start" x="634" y="-3183.8" font-family="Times,serif" font-size="14.00">analysis_id</text>
<polygon fill="white" stroke="transparent" points="607.5,-3157 607.5,-3176 739.5,-3176 739.5,-3157 607.5,-3157"/>
<text text-anchor="start" x="666.5" y="-3163.8" font-family="Times,serif" font-style="italic" font-size="14.00">...</text>
<polygon fill="black" stroke="black" points="605.5,-3219 605.5,-3219 741.5,-3219 741.5,-3219 605.5,-3219"/>
</g>
<!-- marker_feature&#45;&gt;analysis -->
<g id="edge21" class="edge">
<title>marker_feature:e&#45;&gt;analysis:w</title>
<path fill="none" stroke="black" stroke-dasharray="5,2" d="M740.5,-3187C881.65,-3187 841.8,-3494.92 959.5,-3417"/>
</g>
<!-- misc_attrib -->
<g id="node27" class="node">
<title>misc_attrib</title>
<path fill="#3cb371" stroke="black" d="M723.5,-2903.5C723.5,-2903.5 623.5,-2903.5 623.5,-2903.5 617.5,-2903.5 611.5,-2897.5 611.5,-2891.5 611.5,-2891.5 611.5,-2818.5 611.5,-2818.5 611.5,-2812.5 617.5,-2806.5 623.5,-2806.5 623.5,-2806.5 723.5,-2806.5 723.5,-2806.5 729.5,-2806.5 735.5,-2812.5 735.5,-2818.5 735.5,-2818.5 735.5,-2891.5 735.5,-2891.5 735.5,-2897.5 729.5,-2903.5 723.5,-2903.5"/>
<text text-anchor="start" x="627" y="-2882.2" font-family="Times,serif" font-size="16.00">misc_attrib</text>
<polygon fill="white" stroke="transparent" points="621.5,-2854 621.5,-2873 725.5,-2873 725.5,-2854 621.5,-2854"/>
<text text-anchor="start" x="666.5" y="-2860.8" font-family="Times,serif" font-style="italic" font-size="14.00">...</text>
<polygon fill="white" stroke="transparent" points="621.5,-2833 621.5,-2852 725.5,-2852 725.5,-2833 621.5,-2833"/>
<text text-anchor="start" x="623.5" y="-2838.8" font-family="Times,serif" font-size="14.00">attrib_type_id</text>
<polygon fill="white" stroke="transparent" points="621.5,-2812 621.5,-2831 725.5,-2831 725.5,-2812 621.5,-2812"/>
<text text-anchor="start" x="666.5" y="-2818.8" font-family="Times,serif" font-style="italic" font-size="14.00">...</text>
<polygon fill="black" stroke="black" points="619.5,-2874 619.5,-2874 727.5,-2874 727.5,-2874 619.5,-2874"/>
</g>
<!-- misc_attrib&#45;&gt;attrib_type -->
<g id="edge22" class="edge">
<title>misc_attrib:e&#45;&gt;attrib_type:w</title>
<path fill="none" stroke="black" stroke-dasharray="5,2" d="M726.5,-2842C769.09,-2842 787.37,-2831.08 810,-2795 887.48,-2671.46 748.95,-2153.11 881.48,-2128.88"/>
<polygon fill="black" stroke="black" points="881.84,-2132.36 891.5,-2128 881.23,-2125.39 881.84,-2132.36"/>
</g>
<!-- object_xref -->
<g id="node28" class="node">
<title>object_xref</title>
<path fill="#1e90ff" stroke="black" d="M1266.5,-426C1266.5,-426 1174.5,-426 1174.5,-426 1168.5,-426 1162.5,-420 1162.5,-414 1162.5,-414 1162.5,-362 1162.5,-362 1162.5,-356 1168.5,-350 1174.5,-350 1174.5,-350 1266.5,-350 1266.5,-350 1272.5,-350 1278.5,-356 1278.5,-362 1278.5,-362 1278.5,-414 1278.5,-414 1278.5,-420 1272.5,-426 1266.5,-426"/>
<text text-anchor="start" x="1174.5" y="-405.2" font-family="Times,serif" font-size="16.00">object_xref</text>
<polygon fill="white" stroke="transparent" points="1172.5,-377 1172.5,-396 1268.5,-396 1268.5,-377 1172.5,-377"/>
<text text-anchor="start" x="1213.5" y="-383.8" font-family="Times,serif" font-style="italic" font-size="14.00">...</text>
<polygon fill="white" stroke="transparent" points="1172.5,-356 1172.5,-375 1268.5,-375 1268.5,-356 1172.5,-356"/>
<text text-anchor="start" x="1181" y="-361.8" font-family="Times,serif" font-size="14.00">analysis_id</text>
<polygon fill="black" stroke="black" points="1170.5,-397 1170.5,-397 1270.5,-397 1270.5,-397 1170.5,-397"/>
</g>
<!-- object_xref&#45;&gt;analysis -->
<g id="edge23" class="edge">
<title>object_xref:e&#45;&gt;analysis:w</title>
<path fill="none" stroke="black" stroke-dasharray="5,2" d="M1278.5,-365C1305.61,-365 1295.21,-404.65 1278.5,-426 1225.55,-493.68 1136.32,-403.38 1092,-477 1067.57,-517.57 1087.11,-2134.89 1092,-2182 1106.26,-2319.35 1020.35,-2485.33 1147.15,-2493.67"/>
<polygon fill="black" stroke="black" points="1147.39,-2497.18 1157.5,-2494 1147.62,-2490.19 1147.39,-2497.18"/>
</g>
<!-- operon -->
<g id="node29" class="node">
<title>operon</title>
<path fill="#ff8500" stroke="black" d="M430,-3826.5C430,-3826.5 351,-3826.5 351,-3826.5 345,-3826.5 339,-3820.5 339,-3814.5 339,-3814.5 339,-3741.5 339,-3741.5 339,-3735.5 345,-3729.5 351,-3729.5 351,-3729.5 430,-3729.5 430,-3729.5 436,-3729.5 442,-3735.5 442,-3741.5 442,-3741.5 442,-3814.5 442,-3814.5 442,-3820.5 436,-3826.5 430,-3826.5"/>
<text text-anchor="start" x="362" y="-3805.2" font-family="Times,serif" font-size="16.00">operon</text>
<polygon fill="white" stroke="transparent" points="349.5,-3777 349.5,-3796 432.5,-3796 432.5,-3777 349.5,-3777"/>
<text text-anchor="start" x="384" y="-3783.8" font-family="Times,serif" font-style="italic" font-size="14.00">...</text>
<polygon fill="white" stroke="transparent" points="349.5,-3756 349.5,-3775 432.5,-3775 432.5,-3756 349.5,-3756"/>
<text text-anchor="start" x="351.5" y="-3761.8" font-family="Times,serif" font-size="14.00">analysis_id</text>
<polygon fill="white" stroke="transparent" points="349.5,-3735 349.5,-3754 432.5,-3754 432.5,-3735 349.5,-3735"/>
<text text-anchor="start" x="384" y="-3741.8" font-family="Times,serif" font-style="italic" font-size="14.00">...</text>
<polygon fill="black" stroke="black" points="347.5,-3797 347.5,-3797 434.5,-3797 434.5,-3797 347.5,-3797"/>
</g>
<!-- operon&#45;&gt;analysis -->
<g id="edge24" class="edge">
<title>operon:e&#45;&gt;analysis:w</title>
<path fill="none" stroke="black" stroke-dasharray="5,2" d="M433.5,-3765C539.72,-3765 573.18,-3802.68 672.5,-3765"/>
</g>
<!-- operon_transcript -->
<g id="node30" class="node">
<title>operon_transcript</title>
<path fill="#ff8500" stroke="black" d="M464.5,-3711.5C464.5,-3711.5 316.5,-3711.5 316.5,-3711.5 310.5,-3711.5 304.5,-3705.5 304.5,-3699.5 304.5,-3699.5 304.5,-3626.5 304.5,-3626.5 304.5,-3620.5 310.5,-3614.5 316.5,-3614.5 316.5,-3614.5 464.5,-3614.5 464.5,-3614.5 470.5,-3614.5 476.5,-3620.5 476.5,-3626.5 476.5,-3626.5 476.5,-3699.5 476.5,-3699.5 476.5,-3705.5 470.5,-3711.5 464.5,-3711.5"/>
<text text-anchor="start" x="316.5" y="-3690.2" font-family="Times,serif" font-size="16.00">operon_transcript</text>
<polygon fill="white" stroke="transparent" points="314.5,-3662 314.5,-3681 466.5,-3681 466.5,-3662 314.5,-3662"/>
<text text-anchor="start" x="383.5" y="-3668.8" font-family="Times,serif" font-style="italic" font-size="14.00">...</text>
<polygon fill="white" stroke="transparent" points="314.5,-3641 314.5,-3660 466.5,-3660 466.5,-3641 314.5,-3641"/>
<text text-anchor="start" x="351" y="-3646.8" font-family="Times,serif" font-size="14.00">analysis_id</text>
<polygon fill="white" stroke="transparent" points="314.5,-3620 314.5,-3639 466.5,-3639 466.5,-3620 314.5,-3620"/>
<text text-anchor="start" x="383.5" y="-3626.8" font-family="Times,serif" font-style="italic" font-size="14.00">...</text>
<polygon fill="black" stroke="black" points="312.5,-3682 312.5,-3682 468.5,-3682 468.5,-3682 312.5,-3682"/>
</g>
<!-- operon_transcript&#45;&gt;analysis -->
<g id="edge25" class="edge">
<title>operon_transcript:e&#45;&gt;analysis:w</title>
<path fill="none" stroke="black" stroke-dasharray="5,2" d="M467.5,-3650C521.99,-3650 490.14,-3723.19 537,-3751 589.07,-3781.89 615.89,-3786.47 672.5,-3765"/>
<path fill="none" stroke="black" stroke-dasharray="5,2" d="M674.5,-3765C731.11,-3743.53 760.95,-3786.49 810,-3751 941.75,-3655.65 823.89,-3506.78 959.5,-3417"/>
</g>
<!-- operon_transcript_gene -->
<g id="node31" class="node">
<title>operon_transcript_gene</title>
<path fill="#ff8500" stroke="black" d="M489,-3596C489,-3596 292,-3596 292,-3596 286,-3596 280,-3590 280,-3584 280,-3584 280,-3532 280,-3532 280,-3526 286,-3520 292,-3520 292,-3520 489,-3520 489,-3520 495,-3520 501,-3526 501,-3532 501,-3532 501,-3584 501,-3584 501,-3590 495,-3596 489,-3596"/>
<text text-anchor="start" x="292.5" y="-3575.2" font-family="Times,serif" font-size="16.00">operon_transcript_gene</text>
<polygon fill="white" stroke="transparent" points="290.5,-3547 290.5,-3566 491.5,-3566 491.5,-3547 290.5,-3547"/>
<text text-anchor="start" x="384" y="-3553.8" font-family="Times,serif" font-style="italic" font-size="14.00">...</text>
<polygon fill="white" stroke="transparent" points="290.5,-3526 290.5,-3545 491.5,-3545 491.5,-3526 290.5,-3526"/>
<text text-anchor="start" x="363.5" y="-3531.8" font-family="Times,serif" font-size="14.00">gene_id</text>
<polygon fill="black" stroke="black" points="288.5,-3567 288.5,-3567 493.5,-3567 493.5,-3567 288.5,-3567"/>
</g>
<!-- operon_transcript_gene&#45;&gt;gene -->
<g id="edge26" class="edge">
<title>operon_transcript_gene:e&#45;&gt;gene:w</title>
<path fill="none" stroke="black" stroke-dasharray="5,2" d="M492.5,-3535C582.98,-3535 500.19,-1989.65 537,-1907 548.07,-1882.14 554.77,-1863.9 577.26,-1859.85"/>
<polygon fill="black" stroke="black" points="577.82,-1863.31 587.5,-1859 577.25,-1856.34 577.82,-1863.31"/>
</g>
<!-- prediction_transcript -->
<g id="node32" class="node">
<title>prediction_transcript</title>
<path fill="#3cb371" stroke="black" d="M761,-3133.5C761,-3133.5 586,-3133.5 586,-3133.5 580,-3133.5 574,-3127.5 574,-3121.5 574,-3121.5 574,-3048.5 574,-3048.5 574,-3042.5 580,-3036.5 586,-3036.5 586,-3036.5 761,-3036.5 761,-3036.5 767,-3036.5 773,-3042.5 773,-3048.5 773,-3048.5 773,-3121.5 773,-3121.5 773,-3127.5 767,-3133.5 761,-3133.5"/>
<text text-anchor="start" x="586.5" y="-3112.2" font-family="Times,serif" font-size="16.00">prediction_transcript</text>
<polygon fill="white" stroke="transparent" points="584.5,-3084 584.5,-3103 763.5,-3103 763.5,-3084 584.5,-3084"/>
<text text-anchor="start" x="667" y="-3090.8" font-family="Times,serif" font-style="italic" font-size="14.00">...</text>
<polygon fill="white" stroke="transparent" points="584.5,-3063 584.5,-3082 763.5,-3082 763.5,-3063 584.5,-3063"/>
<text text-anchor="start" x="634.5" y="-3068.8" font-family="Times,serif" font-size="14.00">analysis_id</text>
<polygon fill="white" stroke="transparent" points="584.5,-3042 584.5,-3061 763.5,-3061 763.5,-3042 584.5,-3042"/>
<text text-anchor="start" x="667" y="-3048.8" font-family="Times,serif" font-style="italic" font-size="14.00">...</text>
<polygon fill="black" stroke="black" points="582.5,-3104 582.5,-3104 765.5,-3104 765.5,-3104 582.5,-3104"/>
</g>
<!-- prediction_transcript&#45;&gt;analysis -->
<g id="edge27" class="edge">
<title>prediction_transcript:e&#45;&gt;analysis:w</title>
<path fill="none" stroke="black" stroke-dasharray="5,2" d="M764.5,-3072C940.63,-3072 812.63,-3514.23 959.5,-3417"/>
</g>
<!-- repeat_feature -->
<g id="node33" class="node">
<title>repeat_feature</title>
<path fill="#3cb371" stroke="black" d="M735,-3018.5C735,-3018.5 612,-3018.5 612,-3018.5 606,-3018.5 600,-3012.5 600,-3006.5 600,-3006.5 600,-2933.5 600,-2933.5 600,-2927.5 606,-2921.5 612,-2921.5 612,-2921.5 735,-2921.5 735,-2921.5 741,-2921.5 747,-2927.5 747,-2933.5 747,-2933.5 747,-3006.5 747,-3006.5 747,-3012.5 741,-3018.5 735,-3018.5"/>
<text text-anchor="start" x="612.5" y="-2997.2" font-family="Times,serif" font-size="16.00">repeat_feature</text>
<polygon fill="white" stroke="transparent" points="610.5,-2969 610.5,-2988 737.5,-2988 737.5,-2969 610.5,-2969"/>
<text text-anchor="start" x="667" y="-2975.8" font-family="Times,serif" font-style="italic" font-size="14.00">...</text>
<polygon fill="white" stroke="transparent" points="610.5,-2948 610.5,-2967 737.5,-2967 737.5,-2948 610.5,-2948"/>
<text text-anchor="start" x="634.5" y="-2953.8" font-family="Times,serif" font-size="14.00">analysis_id</text>
<polygon fill="white" stroke="transparent" points="610.5,-2927 610.5,-2946 737.5,-2946 737.5,-2927 610.5,-2927"/>
<text text-anchor="start" x="667" y="-2933.8" font-family="Times,serif" font-style="italic" font-size="14.00">...</text>
<polygon fill="black" stroke="black" points="608.5,-2989 608.5,-2989 739.5,-2989 739.5,-2989 608.5,-2989"/>
</g>
<!-- repeat_feature&#45;&gt;analysis -->
<g id="edge33" class="edge">
<title>repeat_feature:e&#45;&gt;analysis:w</title>
<path fill="none" stroke="black" stroke-dasharray="5,2" d="M961.5,-3417C1003.08,-3389.48 1095.46,-2579.25 1149.49,-2500.19"/>
<polygon fill="black" stroke="black" points="1151.73,-2502.89 1157.5,-2494 1147.45,-2497.35 1151.73,-2502.89"/>
<path fill="none" stroke="black" stroke-dasharray="5,2" d="M738.5,-2957C965.32,-2957 770.37,-3542.2 959.5,-3417"/>
</g>
<!-- seq_region_attrib -->
<g id="node35" class="node">
<title>seq_region_attrib</title>
<path fill="#c70c09" stroke="black" d="M1293,-671.5C1293,-671.5 1148,-671.5 1148,-671.5 1142,-671.5 1136,-665.5 1136,-659.5 1136,-659.5 1136,-586.5 1136,-586.5 1136,-580.5 1142,-574.5 1148,-574.5 1148,-574.5 1293,-574.5 1293,-574.5 1299,-574.5 1305,-580.5 1305,-586.5 1305,-586.5 1305,-659.5 1305,-659.5 1305,-665.5 1299,-671.5 1293,-671.5"/>
<text text-anchor="start" x="1148.5" y="-650.2" font-family="Times,serif" font-size="16.00">seq_region_attrib</text>
<polygon fill="white" stroke="transparent" points="1146.5,-622 1146.5,-641 1295.5,-641 1295.5,-622 1146.5,-622"/>
<text text-anchor="start" x="1214" y="-628.8" font-family="Times,serif" font-style="italic" font-size="14.00">...</text>
<polygon fill="white" stroke="transparent" points="1146.5,-601 1146.5,-620 1295.5,-620 1295.5,-601 1146.5,-601"/>
<text text-anchor="start" x="1171" y="-606.8" font-family="Times,serif" font-size="14.00">attrib_type_id</text>
<polygon fill="white" stroke="transparent" points="1146.5,-580 1146.5,-599 1295.5,-599 1295.5,-580 1146.5,-580"/>
<text text-anchor="start" x="1214" y="-586.8" font-family="Times,serif" font-style="italic" font-size="14.00">...</text>
<polygon fill="black" stroke="black" points="1144.5,-642 1144.5,-642 1297.5,-642 1297.5,-642 1144.5,-642"/>
</g>
<!-- seq_region_attrib&#45;&gt;attrib_type -->
<g id="edge34" class="edge">
<title>seq_region_attrib:e&#45;&gt;attrib_type:w</title>
<path fill="none" stroke="black" stroke-dasharray="5,2" d="M1296.5,-610C1312.28,-610 1306.82,-585.5 1295.5,-574.5 1282.79,-562.15 1149.99,-563.62 1136,-574.5 1097.46,-604.49 1115.65,-632.62 1109,-681 1026.69,-1279.56 1166.74,-1442.82 1075,-2040 1066.08,-2098.05 1085.41,-2131.67 1038.5,-2167 1025.54,-2176.76 904.12,-2178.32 892.5,-2167 883.28,-2158.02 877.65,-2140.89 882.44,-2132.65"/>
<polygon fill="black" stroke="black" points="884.2,-2135.68 891.5,-2128 881.01,-2129.45 884.2,-2135.68"/>
</g>
<!-- simple_feature -->
<g id="node36" class="node">
<title>simple_feature</title>
<path fill="#3cb371" stroke="black" d="M735,-3708.5C735,-3708.5 612,-3708.5 612,-3708.5 606,-3708.5 600,-3702.5 600,-3696.5 600,-3696.5 600,-3623.5 600,-3623.5 600,-3617.5 606,-3611.5 612,-3611.5 612,-3611.5 735,-3611.5 735,-3611.5 741,-3611.5 747,-3617.5 747,-3623.5 747,-3623.5 747,-3696.5 747,-3696.5 747,-3702.5 741,-3708.5 735,-3708.5"/>
<text text-anchor="start" x="612.5" y="-3687.2" font-family="Times,serif" font-size="16.00">simple_feature</text>
<polygon fill="white" stroke="transparent" points="610.5,-3659 610.5,-3678 737.5,-3678 737.5,-3659 610.5,-3659"/>
<text text-anchor="start" x="667" y="-3665.8" font-family="Times,serif" font-style="italic" font-size="14.00">...</text>
<polygon fill="white" stroke="transparent" points="610.5,-3638 610.5,-3657 737.5,-3657 737.5,-3638 610.5,-3638"/>
<text text-anchor="start" x="634.5" y="-3643.8" font-family="Times,serif" font-size="14.00">analysis_id</text>
<polygon fill="white" stroke="transparent" points="610.5,-3617 610.5,-3636 737.5,-3636 737.5,-3617 610.5,-3617"/>
<text text-anchor="start" x="667" y="-3623.8" font-family="Times,serif" font-style="italic" font-size="14.00">...</text>
<polygon fill="black" stroke="black" points="608.5,-3679 608.5,-3679 739.5,-3679 739.5,-3679 608.5,-3679"/>
</g>
<!-- simple_feature&#45;&gt;analysis -->
<g id="edge35" class="edge">
<title>simple_feature:e&#45;&gt;analysis:w</title>
<path fill="none" stroke="black" stroke-dasharray="5,2" d="M738.5,-3647C820.47,-3647 887.49,-3464.67 959.5,-3417"/>
</g>
<!-- unmapped_object -->
<g id="node37" class="node">
<title>unmapped_object</title>
<path fill="#1e90ff" stroke="black" d="M1294,-331.5C1294,-331.5 1147,-331.5 1147,-331.5 1141,-331.5 1135,-325.5 1135,-319.5 1135,-319.5 1135,-246.5 1135,-246.5 1135,-240.5 1141,-234.5 1147,-234.5 1147,-234.5 1294,-234.5 1294,-234.5 1300,-234.5 1306,-240.5 1306,-246.5 1306,-246.5 1306,-319.5 1306,-319.5 1306,-325.5 1300,-331.5 1294,-331.5"/>
<text text-anchor="start" x="1147.5" y="-310.2" font-family="Times,serif" font-size="16.00">unmapped_object</text>
<polygon fill="white" stroke="transparent" points="1145.5,-282 1145.5,-301 1296.5,-301 1296.5,-282 1145.5,-282"/>
<text text-anchor="start" x="1214" y="-288.8" font-family="Times,serif" font-style="italic" font-size="14.00">...</text>
<polygon fill="white" stroke="transparent" points="1145.5,-261 1145.5,-280 1296.5,-280 1296.5,-261 1145.5,-261"/>
<text text-anchor="start" x="1181.5" y="-266.8" font-family="Times,serif" font-size="14.00">analysis_id</text>
<polygon fill="white" stroke="transparent" points="1145.5,-240 1145.5,-259 1296.5,-259 1296.5,-240 1145.5,-240"/>
<text text-anchor="start" x="1214" y="-246.8" font-family="Times,serif" font-style="italic" font-size="14.00">...</text>
<polygon fill="black" stroke="black" points="1143.5,-302 1143.5,-302 1298.5,-302 1298.5,-302 1143.5,-302"/>
</g>
<!-- unmapped_object&#45;&gt;analysis -->
<g id="edge49" class="edge">
<title>unmapped_object:e&#45;&gt;analysis:w</title>
<path fill="none" stroke="black" stroke-dasharray="5,2" d="M1306,-270C1333.33,-270 1324.86,-311.71 1306,-331.5 1290.88,-347.36 1130.13,-335.21 1109,-341 1100.76,-343.26 1096.41,-342.68 1092,-350 1065.75,-393.6 1086.74,-2131.38 1092,-2182 1106.26,-2319.35 1020.35,-2485.33 1147.15,-2493.67"/>
<polygon fill="black" stroke="black" points="1147.39,-2497.18 1157.5,-2494 1147.62,-2490.19 1147.39,-2497.18"/>
</g>
</g>
</svg>
