<?xml version="1.0" encoding="UTF-8" standalone="no"?>
<!DOCTYPE svg PUBLIC "-//W3C//DTD SVG 1.1//EN"
 "http://www.w3.org/Graphics/SVG/1.1/DTD/svg11.dtd">
<!-- Generated by graphviz version 2.40.1 (20161225.0304)
 -->
<!-- Title: test Pages: 1 -->
<svg width="765pt" height="478pt"
 viewBox="0.00 0.00 765.00 478.00" xmlns="http://www.w3.org/2000/svg" xmlns:xlink="http://www.w3.org/1999/xlink">
<g id="graph0" class="graph" transform="scale(1 1) rotate(0) translate(4 474)">
<title>test</title>
<polygon fill="#ffffff" stroke="transparent" points="-4,4 -4,-474 761,-474 761,4 -4,4"/>
<text text-anchor="middle" x="378.5" y="-10" font-family="Times,serif" font-size="20.00" fill="#000000">Core schema diagram: Misc tables</text>
<g id="clust1" class="cluster">
<title>cluster_assembly_tables</title>
<polygon fill="#ffffff" stroke="#ffffff" points="593,-314 593,-436 745,-436 745,-314 593,-314"/>
<text text-anchor="middle" x="669" y="-416" font-family="Times,serif" font-size="20.00" fill="#000000">Assembly Tables</text>
</g>
<g id="clust3" class="cluster">
<title>cluster_misc</title>
<path fill="#ffe6cc" stroke="#ffe6cc" d="M20,-130C20,-130 549,-130 549,-130 555,-130 561,-136 561,-142 561,-142 561,-450 561,-450 561,-456 555,-462 549,-462 549,-462 20,-462 20,-462 14,-462 8,-456 8,-450 8,-450 8,-142 8,-142 8,-136 14,-130 20,-130"/>
<text text-anchor="middle" x="284.5" y="-442" font-family="Times,serif" font-size="20.00" fill="#000000">Misc</text>
</g>
<g id="clust2" class="cluster">
<title>cluster_fundamental_tables</title>
<polygon fill="#ffffff" stroke="#ffffff" points="581,-38 581,-254 757,-254 757,-38 581,-38"/>
<text text-anchor="middle" x="669" y="-234" font-family="Times,serif" font-size="20.00" fill="#000000">Fundamental Tables</text>
</g>
<!-- operon -->
<g id="node1" class="node">
<title>operon</title>
<path fill="#ff8500" stroke="#000000" d="M541,-413.5C541,-413.5 441,-413.5 441,-413.5 435,-413.5 429,-407.5 429,-401.5 429,-401.5 429,-160.5 429,-160.5 429,-154.5 435,-148.5 441,-148.5 441,-148.5 541,-148.5 541,-148.5 547,-148.5 553,-154.5 553,-160.5 553,-160.5 553,-401.5 553,-401.5 553,-407.5 547,-413.5 541,-413.5"/>
<text text-anchor="start" x="468" y="-392.2" font-family="Times,serif" font-size="16.00" fill="#000000">operon</text>
<polygon fill="#ffffff" stroke="transparent" points="439,-364 439,-383 543,-383 543,-364 439,-364"/>
<text text-anchor="start" x="449.5" y="-370.8" font-family="Times,serif" font-weight="bold" font-size="14.00" fill="#000000">PK</text>
<text text-anchor="start" x="469.5" y="-370.8" font-family="Times,serif" font-size="14.00" fill="#000000">  operon_id</text>
<polygon fill="#ffffff" stroke="transparent" points="439,-343 439,-362 543,-362 543,-343 439,-343"/>
<text text-anchor="start" x="460.5" y="-348.8" font-family="Times,serif" font-size="14.00" fill="#000000">analysis_id</text>
<polygon fill="#ffffff" stroke="transparent" points="439,-322 439,-341 543,-341 543,-322 439,-322"/>
<text text-anchor="start" x="452.5" y="-327.8" font-family="Times,serif" font-size="14.00" fill="#000000">seq_region_id</text>
<polygon fill="#ffffff" stroke="transparent" points="439,-301 439,-320 543,-320 543,-301 439,-301"/>
<text text-anchor="start" x="446" y="-306.8" font-family="Times,serif" font-size="14.00" fill="#000000">seq_region_start</text>
<polygon fill="#ffffff" stroke="transparent" points="439,-280 439,-299 543,-299 543,-280 439,-280"/>
<text text-anchor="start" x="448" y="-285.8" font-family="Times,serif" font-size="14.00" fill="#000000">seq_region_end</text>
<polygon fill="#ffffff" stroke="transparent" points="439,-259 439,-278 543,-278 543,-259 439,-259"/>
<text text-anchor="start" x="441" y="-264.8" font-family="Times,serif" font-size="14.00" fill="#000000">seq_region_strand</text>
<polygon fill="#ffffff" stroke="transparent" points="439,-238 439,-257 543,-257 543,-238 439,-238"/>
<text text-anchor="start" x="454.5" y="-243.8" font-family="Times,serif" font-size="14.00" fill="#000000">display_label</text>
<polygon fill="#ffffff" stroke="transparent" points="439,-217 439,-236 543,-236 543,-217 439,-217"/>
<text text-anchor="start" x="466.5" y="-222.8" font-family="Times,serif" font-size="14.00" fill="#000000">stable_id</text>
<polygon fill="#ffffff" stroke="transparent" points="439,-196 439,-215 543,-215 543,-196 439,-196"/>
<text text-anchor="start" x="471" y="-201.8" font-family="Times,serif" font-size="14.00" fill="#000000">version</text>
<polygon fill="#ffffff" stroke="transparent" points="439,-175 439,-194 543,-194 543,-175 439,-175"/>
<text text-anchor="start" x="456.5" y="-180.8" font-family="Times,serif" font-size="14.00" fill="#000000">created_date</text>
<polygon fill="#ffffff" stroke="transparent" points="439,-154 439,-173 543,-173 543,-154 439,-154"/>
<text text-anchor="start" x="451.5" y="-159.8" font-family="Times,serif" font-size="14.00" fill="#000000">modified_date</text>
<polygon fill="#000000" stroke="#000000" points="437,-384 437,-384 545,-384 545,-384 437,-384"/>
</g>
<!-- analysis -->
<g id="node4" class="node">
<title>analysis</title>
<path fill="#808000" stroke="#000000" d="M713,-216C713,-216 624,-216 624,-216 618,-216 612,-210 612,-204 612,-204 612,-152 612,-152 612,-146 618,-140 624,-140 624,-140 713,-140 713,-140 719,-140 725,-146 725,-152 725,-152 725,-204 725,-204 725,-210 719,-216 713,-216"/>
<text text-anchor="start" x="643" y="-195.2" font-family="Times,serif" font-size="16.00" fill="#000000">analysis</text>
<polygon fill="#ffffff" stroke="transparent" points="622.5,-167 622.5,-186 715.5,-186 715.5,-167 622.5,-167"/>
<text text-anchor="start" x="624.5" y="-173.8" font-family="Times,serif" font-weight="bold" font-size="14.00" fill="#000000">PK</text>
<text text-anchor="start" x="644.5" y="-173.8" font-family="Times,serif" font-size="14.00" fill="#000000">  analysis_id</text>
<polygon fill="#ffffff" stroke="transparent" points="622.5,-146 622.5,-165 715.5,-165 715.5,-146 622.5,-146"/>
<text text-anchor="start" x="663" y="-152.8" font-family="Times,serif" font-style="italic" font-size="14.00" fill="#000000">...</text>
<polygon fill="#000000" stroke="#000000" points="620.5,-187 620.5,-187 717.5,-187 717.5,-187 620.5,-187"/>
</g>
<!-- operon&#45;&gt;analysis -->
<g id="edge1" class="edge">
<title>operon:e&#45;&gt;analysis:w</title>
<path fill="none" stroke="#000000" stroke-dasharray="5,2" d="M543,-353C582.5816,-353 580.1512,-203.848 612.8402,-179.3778"/>
<polygon fill="#000000" stroke="#000000" points="614.2157,-182.6046 622.5,-176 611.9052,-175.997 614.2157,-182.6046"/>
</g>
<!-- seq_region -->
<g id="node6" class="node">
<title>seq_region</title>
<path fill="#c70c09" stroke="#000000" d="M721,-398C721,-398 616,-398 616,-398 610,-398 604,-392 604,-386 604,-386 604,-334 604,-334 604,-328 610,-322 616,-322 616,-322 721,-322 721,-322 727,-322 733,-328 733,-334 733,-334 733,-386 733,-386 733,-392 727,-398 721,-398"/>
<text text-anchor="start" x="633.5" y="-377.2" font-family="Times,serif" font-size="16.00" fill="#000000">seq_region</text>
<polygon fill="#ffffff" stroke="transparent" points="614.5,-349 614.5,-368 723.5,-368 723.5,-349 614.5,-349"/>
<text text-anchor="start" x="616.5" y="-355.8" font-family="Times,serif" font-weight="bold" font-size="14.00" fill="#000000">PK</text>
<text text-anchor="start" x="636.5" y="-355.8" font-family="Times,serif" font-size="14.00" fill="#000000">  seq_region_id</text>
<polygon fill="#ffffff" stroke="transparent" points="614.5,-328 614.5,-347 723.5,-347 723.5,-328 614.5,-328"/>
<text text-anchor="start" x="663" y="-334.8" font-family="Times,serif" font-style="italic" font-size="14.00" fill="#000000">...</text>
<polygon fill="#000000" stroke="#000000" points="612.5,-369 612.5,-369 725.5,-369 725.5,-369 612.5,-369"/>
</g>
<!-- operon&#45;&gt;seq_region -->
<g id="edge2" class="edge">
<title>operon:e&#45;&gt;seq_region:w</title>
<path fill="none" stroke="#000000" stroke-dasharray="5,2" d="M543,-332C573.1152,-332 579.4811,-352.6235 604.4011,-357.1349"/>
<polygon fill="#000000" stroke="#000000" points="604.2377,-360.6337 614.5,-358 604.8352,-353.6592 604.2377,-360.6337"/>
</g>
<!-- operon_transcript -->
<g id="node2" class="node">
<title>operon_transcript</title>
<path fill="#ff8500" stroke="#000000" d="M381,-424C381,-424 240,-424 240,-424 234,-424 228,-418 228,-412 228,-412 228,-150 228,-150 228,-144 234,-138 240,-138 240,-138 381,-138 381,-138 387,-138 393,-144 393,-150 393,-150 393,-412 393,-412 393,-418 387,-424 381,-424"/>
<text text-anchor="start" x="254" y="-403.2" font-family="Times,serif" font-size="16.00" fill="#000000">operon_transcript</text>
<polygon fill="#ffffff" stroke="transparent" points="238.5,-375 238.5,-394 383.5,-394 383.5,-375 238.5,-375"/>
<text text-anchor="start" x="240.5" y="-381.8" font-family="Times,serif" font-weight="bold" font-size="14.00" fill="#000000">PK</text>
<text text-anchor="start" x="260.5" y="-381.8" font-family="Times,serif" font-size="14.00" fill="#000000">  operon_transcript_id</text>
<polygon fill="#ffffff" stroke="transparent" points="238.5,-354 238.5,-373 383.5,-373 383.5,-354 238.5,-354"/>
<text text-anchor="start" x="280.5" y="-359.8" font-family="Times,serif" font-size="14.00" fill="#000000">analysis_id</text>
<polygon fill="#ffffff" stroke="transparent" points="238.5,-333 238.5,-352 383.5,-352 383.5,-333 238.5,-333"/>
<text text-anchor="start" x="272.5" y="-338.8" font-family="Times,serif" font-size="14.00" fill="#000000">seq_region_id</text>
<polygon fill="#ffffff" stroke="transparent" points="238.5,-312 238.5,-331 383.5,-331 383.5,-312 238.5,-312"/>
<text text-anchor="start" x="266" y="-317.8" font-family="Times,serif" font-size="14.00" fill="#000000">seq_region_start</text>
<polygon fill="#ffffff" stroke="transparent" points="238.5,-291 238.5,-310 383.5,-310 383.5,-291 238.5,-291"/>
<text text-anchor="start" x="268" y="-296.8" font-family="Times,serif" font-size="14.00" fill="#000000">seq_region_end</text>
<polygon fill="#ffffff" stroke="transparent" points="238.5,-270 238.5,-289 383.5,-289 383.5,-270 238.5,-270"/>
<text text-anchor="start" x="261" y="-275.8" font-family="Times,serif" font-size="14.00" fill="#000000">seq_region_strand</text>
<polygon fill="#ffffff" stroke="transparent" points="238.5,-249 238.5,-268 383.5,-268 383.5,-249 238.5,-249"/>
<text text-anchor="start" x="283.5" y="-254.8" font-family="Times,serif" font-size="14.00" fill="#000000">operon_id</text>
<polygon fill="#ffffff" stroke="transparent" points="238.5,-228 238.5,-247 383.5,-247 383.5,-228 238.5,-228"/>
<text text-anchor="start" x="274.5" y="-233.8" font-family="Times,serif" font-size="14.00" fill="#000000">display_label</text>
<polygon fill="#ffffff" stroke="transparent" points="238.5,-207 238.5,-226 383.5,-226 383.5,-207 238.5,-207"/>
<text text-anchor="start" x="286.5" y="-212.8" font-family="Times,serif" font-size="14.00" fill="#000000">stable_id</text>
<polygon fill="#ffffff" stroke="transparent" points="238.5,-186 238.5,-205 383.5,-205 383.5,-186 238.5,-186"/>
<text text-anchor="start" x="291" y="-191.8" font-family="Times,serif" font-size="14.00" fill="#000000">version</text>
<polygon fill="#ffffff" stroke="transparent" points="238.5,-165 238.5,-184 383.5,-184 383.5,-165 238.5,-165"/>
<text text-anchor="start" x="276.5" y="-170.8" font-family="Times,serif" font-size="14.00" fill="#000000">created_date</text>
<polygon fill="#ffffff" stroke="transparent" points="238.5,-144 238.5,-163 383.5,-163 383.5,-144 238.5,-144"/>
<text text-anchor="start" x="271.5" y="-149.8" font-family="Times,serif" font-size="14.00" fill="#000000">modified_date</text>
<polygon fill="#000000" stroke="#000000" points="236.5,-395 236.5,-395 385.5,-395 385.5,-395 236.5,-395"/>
</g>
<!-- operon_transcript&#45;&gt;operon -->
<g id="edge4" class="edge">
<title>operon_transcript:e&#45;&gt;operon:w</title>
<path fill="none" stroke="#000000" stroke-dasharray="5,2" d="M383.5,-258C436.8573,-258 389.1461,-359.1053 429.0803,-372.5333"/>
<polygon fill="#000000" stroke="#000000" points="428.5956,-375.9996 439,-374 429.6195,-369.0749 428.5956,-375.9996"/>
</g>
<!-- operon_transcript&#45;&gt;analysis -->
<g id="edge3" class="edge">
<title>operon_transcript:e&#45;&gt;analysis:w</title>
<path fill="none" stroke="#000000" stroke-dasharray="5,2" d="M383.5,-364C485.0886,-364 350.3406,-204.288 429,-140 474.4252,-102.8741 504.3781,-124.6463 561,-140 587.8664,-147.2852 590.5482,-169.5735 612.3069,-174.8647"/>
<polygon fill="#000000" stroke="#000000" points="612.174,-178.3714 622.5,-176 612.9489,-171.4144 612.174,-178.3714"/>
</g>
<!-- operon_transcript&#45;&gt;seq_region -->
<g id="edge5" class="edge">
<title>operon_transcript:e&#45;&gt;seq_region:w</title>
<path fill="none" stroke="#000000" stroke-dasharray="5,2" d="M383.5,-343C424.404,-343 393.6425,-402.4334 429,-423 479.7116,-452.4976 507.948,-448.0453 561,-423 591.2665,-408.7115 580.2546,-367.9739 604.3771,-359.5398"/>
<polygon fill="#000000" stroke="#000000" points="605.1401,-362.9641 614.5,-358 604.0874,-356.0437 605.1401,-362.9641"/>
</g>
<!-- operon_transcript_gene -->
<g id="node3" class="node">
<title>operon_transcript_gene</title>
<path fill="#ff8500" stroke="#000000" d="M180,-319C180,-319 28,-319 28,-319 22,-319 16,-313 16,-307 16,-307 16,-255 16,-255 16,-249 22,-243 28,-243 28,-243 180,-243 180,-243 186,-243 192,-249 192,-255 192,-255 192,-307 192,-307 192,-313 186,-319 180,-319"/>
<text text-anchor="start" x="28" y="-298.2" font-family="Times,serif" font-size="16.00" fill="#000000">operon_transcript_gene</text>
<polygon fill="#ffffff" stroke="transparent" points="26,-270 26,-289 182,-289 182,-270 26,-270"/>
<text text-anchor="start" x="47.5" y="-275.8" font-family="Times,serif" font-size="14.00" fill="#000000">operon_transcript_id</text>
<polygon fill="#ffffff" stroke="transparent" points="26,-249 26,-268 182,-268 182,-249 26,-249"/>
<text text-anchor="start" x="82.5" y="-254.8" font-family="Times,serif" font-size="14.00" fill="#000000">gene_id</text>
<polygon fill="#000000" stroke="#000000" points="24,-290 24,-290 184,-290 184,-290 24,-290"/>
</g>
<!-- operon_transcript_gene&#45;&gt;operon_transcript -->
<g id="edge7" class="edge">
<title>operon_transcript_gene:e&#45;&gt;operon_transcript:w</title>
<path fill="none" stroke="#000000" stroke-dasharray="5,2" d="M182,-279C231.4234,-279 192.0055,-369.8495 228.2416,-383.335"/>
<polygon fill="#000000" stroke="#000000" points="228.0684,-386.8526 238.5,-385 229.1899,-379.943 228.0684,-386.8526"/>
</g>
<!-- gene -->
<g id="node5" class="node">
<title>gene</title>
<path fill="#808000" stroke="#000000" d="M704,-122C704,-122 633,-122 633,-122 627,-122 621,-116 621,-110 621,-110 621,-58 621,-58 621,-52 627,-46 633,-46 633,-46 704,-46 704,-46 710,-46 716,-52 716,-58 716,-58 716,-110 716,-110 716,-116 710,-122 704,-122"/>
<text text-anchor="start" x="653.5" y="-101.2" font-family="Times,serif" font-size="16.00" fill="#000000">gene</text>
<polygon fill="#ffffff" stroke="transparent" points="631.5,-73 631.5,-92 706.5,-92 706.5,-73 631.5,-73"/>
<text text-anchor="start" x="633.5" y="-79.8" font-family="Times,serif" font-weight="bold" font-size="14.00" fill="#000000">PK</text>
<text text-anchor="start" x="653.5" y="-79.8" font-family="Times,serif" font-size="14.00" fill="#000000">  gene_id</text>
<polygon fill="#ffffff" stroke="transparent" points="631.5,-52 631.5,-71 706.5,-71 706.5,-52 631.5,-52"/>
<text text-anchor="start" x="663" y="-58.8" font-family="Times,serif" font-style="italic" font-size="14.00" fill="#000000">...</text>
<polygon fill="#000000" stroke="#000000" points="629.5,-93 629.5,-93 708.5,-93 708.5,-93 629.5,-93"/>
</g>
<!-- operon_transcript_gene&#45;&gt;gene -->
<g id="edge6" class="edge">
<title>operon_transcript_gene:e&#45;&gt;gene:w</title>
<path fill="none" stroke="#000000" stroke-dasharray="5,2" d="M182,-258C242.8694,-258 180.3691,-166.8997 228,-129 366.5884,-18.7258 447.8219,-79.5731 621.2921,-81.9305"/>
<polygon fill="#000000" stroke="#000000" points="621.4764,-85.4318 631.5,-82 621.5241,-78.4319 621.4764,-85.4318"/>
</g>
</g>
</svg>
