<?xml version="1.0" encoding="UTF-8" standalone="no"?>
<!DOCTYPE svg PUBLIC "-//W3C//DTD SVG 1.1//EN"
 "http://www.w3.org/Graphics/SVG/1.1/DTD/svg11.dtd">
<!-- Generated by graphviz version 2.43.0 (0)
 -->
<!-- Title: test Pages: 1 -->
<svg width="469pt" height="746pt"
 viewBox="0.00 0.00 469.00 746.00" xmlns="http://www.w3.org/2000/svg" xmlns:xlink="http://www.w3.org/1999/xlink">
<g id="graph0" class="graph" transform="scale(1 1) rotate(0) translate(4 742)">
<title>test</title>
<polygon fill="white" stroke="transparent" points="-4,4 -4,-742 465,-742 465,4 -4,4"/>
<text text-anchor="middle" x="230.5" y="-10" font-family="Times,serif" font-size="20.00">Core schema diagram: ID Mapping tables</text>
<g id="clust1" class="cluster">
<title>cluster_assembly_tables</title>
<polygon fill="white" stroke="white" points="254,-38 254,-160 439,-160 439,-38 254,-38"/>
<text text-anchor="middle" x="346.5" y="-140" font-family="Times,serif" font-size="20.00">Assembly Tables</text>
</g>
<g id="clust2" class="cluster">
<title>cluster_id_mapping</title>
<path fill="#ffe0e0" stroke="#ffe0e0" d="M20,-168C20,-168 441,-168 441,-168 447,-168 453,-174 453,-180 453,-180 453,-718 453,-718 453,-724 447,-730 441,-730 441,-730 20,-730 20,-730 14,-730 8,-724 8,-718 8,-718 8,-180 8,-180 8,-174 14,-168 20,-168"/>
<text text-anchor="middle" x="230.5" y="-710" font-family="Times,serif" font-size="20.00">ID Mapping</text>
</g>
<!-- gene_archive -->
<g id="node1" class="node">
<title>gene_archive</title>
<path fill="#ff6666" stroke="black" d="M188,-692C188,-692 39,-692 39,-692 33,-692 27,-686 27,-680 27,-680 27,-502 27,-502 27,-496 33,-490 39,-490 39,-490 188,-490 188,-490 194,-490 200,-496 200,-502 200,-502 200,-680 200,-680 200,-686 194,-692 188,-692"/>
<text text-anchor="start" x="59" y="-671.2" font-family="Times,serif" font-size="16.00">gene_archive</text>
<polygon fill="white" stroke="transparent" points="37.5,-643 37.5,-662 190.5,-662 190.5,-643 37.5,-643"/>
<text text-anchor="start" x="61" y="-648.8" font-family="Times,serif" font-size="14.00">gene_stable_id</text>
<polygon fill="white" stroke="transparent" points="37.5,-622 37.5,-641 190.5,-641 190.5,-622 37.5,-622"/>
<text text-anchor="start" x="67" y="-627.8" font-family="Times,serif" font-size="14.00">gene_version</text>
<polygon fill="white" stroke="transparent" points="37.5,-601 37.5,-620 190.5,-620 190.5,-601 37.5,-601"/>
<text text-anchor="start" x="43" y="-606.8" font-family="Times,serif" font-size="14.00">transcript_stable_id</text>
<polygon fill="white" stroke="transparent" points="37.5,-580 37.5,-599 190.5,-599 190.5,-580 37.5,-580"/>
<text text-anchor="start" x="48.5" y="-585.8" font-family="Times,serif" font-size="14.00">transcript_version</text>
<polygon fill="white" stroke="transparent" points="37.5,-559 37.5,-578 190.5,-578 190.5,-559 37.5,-559"/>
<text text-anchor="start" x="39.5" y="-564.8" font-family="Times,serif" font-size="14.00">translation_stable_id</text>
<polygon fill="white" stroke="transparent" points="37.5,-538 37.5,-557 190.5,-557 190.5,-538 37.5,-538"/>
<text text-anchor="start" x="45" y="-543.8" font-family="Times,serif" font-size="14.00">translation_version</text>
<polygon fill="white" stroke="transparent" points="37.5,-517 37.5,-536 190.5,-536 190.5,-517 37.5,-517"/>
<text text-anchor="start" x="47" y="-522.8" font-family="Times,serif" font-size="14.00">peptide_archive_id</text>
<polygon fill="white" stroke="transparent" points="37.5,-496 37.5,-515 190.5,-515 190.5,-496 37.5,-496"/>
<text text-anchor="start" x="43" y="-501.8" font-family="Times,serif" font-size="14.00">mapping_session_id</text>
<polygon fill="black" stroke="black" points="35.5,-663 35.5,-663 192.5,-663 192.5,-663 35.5,-663"/>
</g>
<!-- mapping_session -->
<g id="node2" class="node">
<title>mapping_session</title>
<path fill="#ff6666" stroke="black" d="M433,-493C433,-493 259,-493 259,-493 253,-493 247,-487 247,-481 247,-481 247,-303 247,-303 247,-297 253,-291 259,-291 259,-291 433,-291 433,-291 439,-291 445,-297 445,-303 445,-303 445,-481 445,-481 445,-487 439,-493 433,-493"/>
<text text-anchor="start" x="275.5" y="-472.2" font-family="Times,serif" font-size="16.00">mapping_session</text>
<polygon fill="white" stroke="transparent" points="257,-444 257,-463 435,-463 435,-444 257,-444"/>
<text text-anchor="start" x="259" y="-450.8" font-family="Times,serif" font-weight="bold" font-size="14.00">PK</text>
<text text-anchor="start" x="282" y="-450.8" font-family="Times,serif" font-size="14.00">  mapping_session_id</text>
<polygon fill="white" stroke="transparent" points="257,-423 257,-442 435,-442 435,-423 257,-423"/>
<text text-anchor="start" x="299.5" y="-428.8" font-family="Times,serif" font-size="14.00">old_db_name</text>
<polygon fill="white" stroke="transparent" points="257,-402 257,-421 435,-421 435,-402 257,-402"/>
<text text-anchor="start" x="296" y="-407.8" font-family="Times,serif" font-size="14.00">new_db_name</text>
<polygon fill="white" stroke="transparent" points="257,-381 257,-400 435,-400 435,-381 257,-381"/>
<text text-anchor="start" x="305.5" y="-386.8" font-family="Times,serif" font-size="14.00">old_release</text>
<polygon fill="white" stroke="transparent" points="257,-360 257,-379 435,-379 435,-360 257,-360"/>
<text text-anchor="start" x="302" y="-365.8" font-family="Times,serif" font-size="14.00">new_release</text>
<polygon fill="white" stroke="transparent" points="257,-339 257,-358 435,-358 435,-339 257,-339"/>
<text text-anchor="start" x="298" y="-344.8" font-family="Times,serif" font-size="14.00">old_assembly</text>
<polygon fill="white" stroke="transparent" points="257,-318 257,-337 435,-337 435,-318 257,-318"/>
<text text-anchor="start" x="294.5" y="-323.8" font-family="Times,serif" font-size="14.00">new_assembly</text>
<polygon fill="white" stroke="transparent" points="257,-297 257,-316 435,-316 435,-297 257,-297"/>
<text text-anchor="start" x="318.5" y="-302.8" font-family="Times,serif" font-size="14.00">created</text>
<polygon fill="black" stroke="black" points="255,-464 255,-464 437,-464 437,-464 255,-464"/>
</g>
<!-- gene_archive&#45;&gt;mapping_session -->
<g id="edge1" class="edge">
<title>gene_archive:e&#45;&gt;mapping_session:w</title>
<path fill="none" stroke="black" stroke-dasharray="5,2" d="M191.5,-505C224.19,-505 220.76,-464.19 245.84,-455.58"/>
<polygon fill="black" stroke="black" points="246.66,-459 256,-454 245.58,-452.08 246.66,-459"/>
</g>
<!-- peptide_archive -->
<g id="node4" class="node">
<title>peptide_archive</title>
<path fill="#ff6666" stroke="black" d="M429,-608.5C429,-608.5 263,-608.5 263,-608.5 257,-608.5 251,-602.5 251,-596.5 251,-596.5 251,-523.5 251,-523.5 251,-517.5 257,-511.5 263,-511.5 263,-511.5 429,-511.5 429,-511.5 435,-511.5 441,-517.5 441,-523.5 441,-523.5 441,-596.5 441,-596.5 441,-602.5 435,-608.5 429,-608.5"/>
<text text-anchor="start" x="279.5" y="-587.2" font-family="Times,serif" font-size="16.00">peptide_archive</text>
<polygon fill="white" stroke="transparent" points="261,-559 261,-578 431,-578 431,-559 261,-559"/>
<text text-anchor="start" x="263" y="-565.8" font-family="Times,serif" font-weight="bold" font-size="14.00">PK</text>
<text text-anchor="start" x="286" y="-565.8" font-family="Times,serif" font-size="14.00">  peptide_archive_id</text>
<polygon fill="white" stroke="transparent" points="261,-538 261,-557 431,-557 431,-538 261,-538"/>
<text text-anchor="start" x="291.5" y="-543.8" font-family="Times,serif" font-size="14.00">md5_checksum</text>
<polygon fill="white" stroke="transparent" points="261,-517 261,-536 431,-536 431,-517 261,-517"/>
<text text-anchor="start" x="303" y="-522.8" font-family="Times,serif" font-size="14.00">peptide_seq</text>
<polygon fill="black" stroke="black" points="259,-579 259,-579 433,-579 433,-579 259,-579"/>
</g>
<!-- gene_archive&#45;&gt;peptide_archive -->
<g id="edge2" class="edge">
<title>gene_archive:e&#45;&gt;peptide_archive:w</title>
<path fill="none" stroke="black" stroke-dasharray="5,2" d="M191.5,-526C223.65,-526 224.33,-560.41 249.85,-567.67"/>
<polygon fill="black" stroke="black" points="249.63,-571.17 260,-569 250.54,-564.23 249.63,-571.17"/>
</g>
<!-- mapping_set -->
<g id="node3" class="node">
<title>mapping_set</title>
<path fill="#ff6666" stroke="black" d="M427.5,-272.5C427.5,-272.5 264.5,-272.5 264.5,-272.5 258.5,-272.5 252.5,-266.5 252.5,-260.5 252.5,-260.5 252.5,-187.5 252.5,-187.5 252.5,-181.5 258.5,-175.5 264.5,-175.5 264.5,-175.5 427.5,-175.5 427.5,-175.5 433.5,-175.5 439.5,-181.5 439.5,-187.5 439.5,-187.5 439.5,-260.5 439.5,-260.5 439.5,-266.5 433.5,-272.5 427.5,-272.5"/>
<text text-anchor="start" x="293.5" y="-251.2" font-family="Times,serif" font-size="16.00">mapping_set</text>
<polygon fill="white" stroke="transparent" points="263,-223 263,-242 430,-242 430,-223 263,-223"/>
<text text-anchor="start" x="274.5" y="-229.8" font-family="Times,serif" font-weight="bold" font-size="14.00">PK</text>
<text text-anchor="start" x="297.5" y="-229.8" font-family="Times,serif" font-size="14.00">  mapping_set_id</text>
<polygon fill="white" stroke="transparent" points="263,-202 263,-221 430,-221 430,-202 263,-202"/>
<text text-anchor="start" x="266.5" y="-207.8" font-family="Times,serif" font-size="14.00">internal_schema_build</text>
<polygon fill="white" stroke="transparent" points="263,-181 263,-200 430,-200 430,-181 263,-181"/>
<text text-anchor="start" x="265" y="-186.8" font-family="Times,serif" font-size="14.00">external_schema_build</text>
<polygon fill="black" stroke="black" points="261,-243 261,-243 432,-243 432,-243 261,-243"/>
</g>
<!-- seq_region_mapping -->
<g id="node5" class="node">
<title>seq_region_mapping</title>
<path fill="#ff6666" stroke="black" d="M199,-272.5C199,-272.5 28,-272.5 28,-272.5 22,-272.5 16,-266.5 16,-260.5 16,-260.5 16,-187.5 16,-187.5 16,-181.5 22,-175.5 28,-175.5 28,-175.5 199,-175.5 199,-175.5 205,-175.5 211,-181.5 211,-187.5 211,-187.5 211,-260.5 211,-260.5 211,-266.5 205,-272.5 199,-272.5"/>
<text text-anchor="start" x="28.5" y="-251.2" font-family="Times,serif" font-size="16.00">seq_region_mapping</text>
<polygon fill="white" stroke="transparent" points="26.5,-223 26.5,-242 201.5,-242 201.5,-223 26.5,-223"/>
<text text-anchor="start" x="32" y="-228.8" font-family="Times,serif" font-size="14.00">external_seq_region_id</text>
<polygon fill="white" stroke="transparent" points="26.5,-202 26.5,-221 201.5,-221 201.5,-202 26.5,-202"/>
<text text-anchor="start" x="33.5" y="-207.8" font-family="Times,serif" font-size="14.00">internal_seq_region_id</text>
<polygon fill="white" stroke="transparent" points="26.5,-181 26.5,-200 201.5,-200 201.5,-181 26.5,-181"/>
<text text-anchor="start" x="58" y="-186.8" font-family="Times,serif" font-size="14.00">mapping_set_id</text>
<polygon fill="black" stroke="black" points="24.5,-243 24.5,-243 203.5,-243 203.5,-243 24.5,-243"/>
</g>
<!-- seq_region_mapping&#45;&gt;mapping_set -->
<g id="edge3" class="edge">
<title>seq_region_mapping:e&#45;&gt;mapping_set:w</title>
<path fill="none" stroke="black" stroke-dasharray="5,2" d="M202.5,-190C231.3,-190 230.19,-223.51 251.99,-231.37"/>
<polygon fill="black" stroke="black" points="251.57,-234.84 262,-233 252.69,-227.94 251.57,-234.84"/>
</g>
<!-- seq_region -->
<g id="node7" class="node">
<title>seq_region</title>
<path fill="#c70c09" stroke="black" d="M411,-122C411,-122 281,-122 281,-122 275,-122 269,-116 269,-110 269,-110 269,-58 269,-58 269,-52 275,-46 281,-46 281,-46 411,-46 411,-46 417,-46 423,-52 423,-58 423,-58 423,-110 423,-110 423,-116 417,-122 411,-122"/>
<text text-anchor="start" x="300.5" y="-101.2" font-family="Times,serif" font-size="16.00">seq_region</text>
<polygon fill="white" stroke="transparent" points="279,-73 279,-92 413,-92 413,-73 279,-73"/>
<text text-anchor="start" x="281" y="-79.8" font-family="Times,serif" font-weight="bold" font-size="14.00">PK</text>
<text text-anchor="start" x="304" y="-79.8" font-family="Times,serif" font-size="14.00">  seq_region_id</text>
<polygon fill="white" stroke="transparent" points="279,-52 279,-71 413,-71 413,-52 279,-52"/>
<text text-anchor="start" x="339" y="-58.8" font-family="Times,serif" font-style="italic" font-size="14.00">...</text>
<polygon fill="black" stroke="black" points="277,-93 277,-93 415,-93 415,-93 277,-93"/>
</g>
<!-- seq_region_mapping&#45;&gt;seq_region -->
<g id="edge4" class="edge">
<title>seq_region_mapping:e&#45;&gt;seq_region:w</title>
<path fill="none" stroke="black" stroke-dasharray="5,2" d="M202.5,-211C265.17,-211 217.67,-96.2 267.86,-83.19"/>
<polygon fill="black" stroke="black" points="268.48,-86.65 278,-82 267.66,-79.69 268.48,-86.65"/>
</g>
<!-- stable_id_event -->
<g id="node6" class="node">
<title>stable_id_event</title>
<path fill="#ff6666" stroke="black" d="M184.5,-471.5C184.5,-471.5 42.5,-471.5 42.5,-471.5 36.5,-471.5 30.5,-465.5 30.5,-459.5 30.5,-459.5 30.5,-302.5 30.5,-302.5 30.5,-296.5 36.5,-290.5 42.5,-290.5 42.5,-290.5 184.5,-290.5 184.5,-290.5 190.5,-290.5 196.5,-296.5 196.5,-302.5 196.5,-302.5 196.5,-459.5 196.5,-459.5 196.5,-465.5 190.5,-471.5 184.5,-471.5"/>
<text text-anchor="start" x="49" y="-450.2" font-family="Times,serif" font-size="16.00">stable_id_event</text>
<polygon fill="white" stroke="transparent" points="40.5,-422 40.5,-441 186.5,-441 186.5,-422 40.5,-422"/>
<text text-anchor="start" x="67" y="-427.8" font-family="Times,serif" font-size="14.00">old_stable_id</text>
<polygon fill="white" stroke="transparent" points="40.5,-401 40.5,-420 186.5,-420 186.5,-401 40.5,-401"/>
<text text-anchor="start" x="72.5" y="-406.8" font-family="Times,serif" font-size="14.00">old_version</text>
<polygon fill="white" stroke="transparent" points="40.5,-380 40.5,-399 186.5,-399 186.5,-380 40.5,-380"/>
<text text-anchor="start" x="63.5" y="-385.8" font-family="Times,serif" font-size="14.00">new_stable_id</text>
<polygon fill="white" stroke="transparent" points="40.5,-359 40.5,-378 186.5,-378 186.5,-359 40.5,-359"/>
<text text-anchor="start" x="69" y="-364.8" font-family="Times,serif" font-size="14.00">new_version</text>
<polygon fill="white" stroke="transparent" points="40.5,-338 40.5,-357 186.5,-357 186.5,-338 40.5,-338"/>
<text text-anchor="start" x="42.5" y="-343.8" font-family="Times,serif" font-size="14.00">mapping_session_id</text>
<polygon fill="white" stroke="transparent" points="40.5,-317 40.5,-336 186.5,-336 186.5,-317 40.5,-317"/>
<text text-anchor="start" x="97.5" y="-322.8" font-family="Times,serif" font-size="14.00">type</text>
<polygon fill="white" stroke="transparent" points="40.5,-296 40.5,-315 186.5,-315 186.5,-296 40.5,-296"/>
<text text-anchor="start" x="94" y="-301.8" font-family="Times,serif" font-size="14.00">score</text>
<polygon fill="black" stroke="black" points="38.5,-442 38.5,-442 188.5,-442 188.5,-442 38.5,-442"/>
</g>
<!-- stable_id_event&#45;&gt;mapping_session -->
<g id="edge5" class="edge">
<title>stable_id_event:e&#45;&gt;mapping_session:w</title>
<path fill="none" stroke="black" stroke-dasharray="5,2" d="M187.5,-347C240.22,-347 204.99,-440.26 246.03,-452.65"/>
<polygon fill="black" stroke="black" points="245.62,-456.12 256,-454 246.56,-449.19 245.62,-456.12"/>
</g>
</g>
</svg>
