<?xml version="1.0" encoding="UTF-8" standalone="no"?>
<!DOCTYPE svg PUBLIC "-//W3C//DTD SVG 1.1//EN"
 "http://www.w3.org/Graphics/SVG/1.1/DTD/svg11.dtd">
<!-- Generated by graphviz version 8.0.5 (20230430.1635)
 -->
<!-- Title: test Pages: 1 -->
<svg width="761pt" height="744pt"
 viewBox="0.00 0.00 760.62 743.50" xmlns="http://www.w3.org/2000/svg" xmlns:xlink="http://www.w3.org/1999/xlink">
<g id="graph0" class="graph" transform="scale(1 1) rotate(0) translate(4 739.5)">
<title>test</title>
<polygon fill="white" stroke="none" points="-4,4 -4,-739.5 756.62,-739.5 756.62,4 -4,4"/>
<text text-anchor="middle" x="376.31" y="-7.5" font-family="Times,serif" font-size="20.00">Core schema diagram: Misc tables</text>
<g id="clust1" class="cluster">
<title>cluster_assembly_tables</title>
<polygon fill="white" stroke="white" points="590,-549.5 590,-675.5 739.5,-675.5 739.5,-549.5 590,-549.5"/>
<text text-anchor="middle" x="664.75" y="-652.5" font-family="Times,serif" font-size="20.00">Assembly Tables</text>
</g>
<g id="clust3" class="cluster">
<title>cluster_misc</title>
<path fill="#ffe6cc" stroke="#ffe6cc" d="M20,-38.5C20,-38.5 546,-38.5 546,-38.5 552,-38.5 558,-44.5 558,-50.5 558,-50.5 558,-715.5 558,-715.5 558,-721.5 552,-727.5 546,-727.5 546,-727.5 20,-727.5 20,-727.5 14,-727.5 8,-721.5 8,-715.5 8,-715.5 8,-50.5 8,-50.5 8,-44.5 14,-38.5 20,-38.5"/>
<text text-anchor="middle" x="283" y="-704.5" font-family="Times,serif" font-size="20.00">Misc</text>
</g>
<g id="clust2" class="cluster">
<title>cluster_fundamental_tables</title>
<polygon fill="white" stroke="white" points="577.88,-236.5 577.88,-460.5 752.62,-460.5 752.62,-236.5 577.88,-236.5"/>
<text text-anchor="middle" x="665.25" y="-437.5" font-family="Times,serif" font-size="20.00">Fundamental Tables</text>
</g>
<!-- operon -->
<g id="node1" class="node">
<title>operon</title>
<path fill="#ff8500" stroke="black" d="M538,-631.62C538,-631.62 439,-631.62 439,-631.62 433,-631.62 427,-625.62 427,-619.62 427,-619.62 427,-361.38 427,-361.38 427,-355.38 433,-349.38 439,-349.38 439,-349.38 538,-349.38 538,-349.38 544,-349.38 550,-355.38 550,-361.38 550,-361.38 550,-619.62 550,-619.62 550,-625.62 544,-631.62 538,-631.62"/>
<text text-anchor="start" x="466" y="-608.42" font-family="Times,serif" font-size="16.00">operon</text>
<polygon fill="white" stroke="none" points="437,-580.38 437,-600.88 540,-600.88 540,-580.38 437,-580.38"/>
<text text-anchor="start" x="447.62" y="-586.58" font-family="Times,serif" font-weight="bold" font-size="14.00">PK</text>
<text text-anchor="start" x="467.12" y="-586.58" font-family="Times,serif" font-size="14.00">  operon_id</text>
<polygon fill="white" stroke="none" points="437,-557.88 437,-578.38 540,-578.38 540,-557.88 437,-557.88"/>
<text text-anchor="start" x="458.12" y="-563.08" font-family="Times,serif" font-size="14.00">analysis_id</text>
<polygon fill="white" stroke="none" points="437,-535.38 437,-555.88 540,-555.88 540,-535.38 437,-535.38"/>
<text text-anchor="start" x="450.25" y="-540.58" font-family="Times,serif" font-size="14.00">seq_region_id</text>
<polygon fill="white" stroke="none" points="437,-512.88 437,-533.38 540,-533.38 540,-512.88 437,-512.88"/>
<text text-anchor="start" x="443.88" y="-518.08" font-family="Times,serif" font-size="14.00">seq_region_start</text>
<polygon fill="white" stroke="none" points="437,-490.38 437,-510.88 540,-510.88 540,-490.38 437,-490.38"/>
<text text-anchor="start" x="445.75" y="-495.57" font-family="Times,serif" font-size="14.00">seq_region_end</text>
<polygon fill="white" stroke="none" points="437,-467.88 437,-488.38 540,-488.38 540,-467.88 437,-467.88"/>
<text text-anchor="start" x="439" y="-473.07" font-family="Times,serif" font-size="14.00">seq_region_strand</text>
<polygon fill="white" stroke="none" points="437,-445.38 437,-465.88 540,-465.88 540,-445.38 437,-445.38"/>
<text text-anchor="start" x="452.5" y="-450.57" font-family="Times,serif" font-size="14.00">display_label</text>
<polygon fill="white" stroke="none" points="437,-422.88 437,-443.38 540,-443.38 540,-422.88 437,-422.88"/>
<text text-anchor="start" x="464.12" y="-428.07" font-family="Times,serif" font-size="14.00">stable_id</text>
<polygon fill="white" stroke="none" points="437,-400.38 437,-420.88 540,-420.88 540,-400.38 437,-400.38"/>
<text text-anchor="start" x="468.62" y="-405.57" font-family="Times,serif" font-size="14.00">version</text>
<polygon fill="white" stroke="none" points="437,-377.88 437,-398.38 540,-398.38 540,-377.88 437,-377.88"/>
<text text-anchor="start" x="454.38" y="-383.07" font-family="Times,serif" font-size="14.00">created_date</text>
<polygon fill="white" stroke="none" points="437,-355.38 437,-375.88 540,-375.88 540,-355.38 437,-355.38"/>
<text text-anchor="start" x="449.12" y="-360.57" font-family="Times,serif" font-size="14.00">modified_date</text>
<polygon fill="black" stroke="black" points="435,-601.88 435,-601.88 542,-601.88 542,-601.88 435,-601.88"/>
</g>
<!-- analysis -->
<g id="node7" class="node">
<title>analysis</title>
<path fill="#808000" stroke="black" d="M708.62,-422.38C708.62,-422.38 620.88,-422.38 620.88,-422.38 614.88,-422.38 608.88,-416.38 608.88,-410.38 608.88,-410.38 608.88,-354.62 608.88,-354.62 608.88,-348.62 614.88,-342.62 620.88,-342.62 620.88,-342.62 708.62,-342.62 708.62,-342.62 714.62,-342.62 720.62,-348.62 720.62,-354.62 720.62,-354.62 720.62,-410.38 720.62,-410.38 720.62,-416.38 714.62,-422.38 708.62,-422.38"/>
<text text-anchor="start" x="639.25" y="-399.18" font-family="Times,serif" font-size="16.00">analysis</text>
<polygon fill="white" stroke="none" points="618.88,-371.12 618.88,-391.62 710.62,-391.62 710.62,-371.12 618.88,-371.12"/>
<text text-anchor="start" x="620.88" y="-377.32" font-family="Times,serif" font-weight="bold" font-size="14.00">PK</text>
<text text-anchor="start" x="640.38" y="-377.32" font-family="Times,serif" font-size="14.00">  analysis_id</text>
<polygon fill="white" stroke="none" points="618.88,-348.62 618.88,-369.12 710.62,-369.12 710.62,-348.62 618.88,-348.62"/>
<text text-anchor="start" x="659.12" y="-354.82" font-family="Times,serif" font-style="italic" font-size="14.00">...</text>
<polygon fill="black" stroke="black" points="616.88,-392.62 616.88,-392.62 712.62,-392.62 712.62,-392.62 616.88,-392.62"/>
</g>
<!-- operon&#45;&gt;analysis -->
<g id="edge1" class="edge">
<title>operon:e&#45;&gt;analysis:w</title>
<path fill="none" stroke="black" stroke-dasharray="5,2" d="M541.5,-568.5C627.4,-568.5 536.51,-397.23 607.22,-382.51"/>
<polygon fill="black" stroke="black" points="607.13,-385.94 616.75,-381.5 606.46,-378.97 607.13,-385.94"/>
</g>
<!-- seq_region -->
<g id="node9" class="node">
<title>seq_region</title>
<path fill="#c70c09" stroke="black" d="M716.5,-637.38C716.5,-637.38 613,-637.38 613,-637.38 607,-637.38 601,-631.38 601,-625.38 601,-625.38 601,-569.62 601,-569.62 601,-563.62 607,-557.62 613,-557.62 613,-557.62 716.5,-557.62 716.5,-557.62 722.5,-557.62 728.5,-563.62 728.5,-569.62 728.5,-569.62 728.5,-625.38 728.5,-625.38 728.5,-631.38 722.5,-637.38 716.5,-637.38"/>
<text text-anchor="start" x="629.5" y="-614.17" font-family="Times,serif" font-size="16.00">seq_region</text>
<polygon fill="white" stroke="none" points="611,-586.12 611,-606.62 718.5,-606.62 718.5,-586.12 611,-586.12"/>
<text text-anchor="start" x="613" y="-592.33" font-family="Times,serif" font-weight="bold" font-size="14.00">PK</text>
<text text-anchor="start" x="632.5" y="-592.33" font-family="Times,serif" font-size="14.00">  seq_region_id</text>
<polygon fill="white" stroke="none" points="611,-563.62 611,-584.12 718.5,-584.12 718.5,-563.62 611,-563.62"/>
<text text-anchor="start" x="659.12" y="-569.83" font-family="Times,serif" font-style="italic" font-size="14.00">...</text>
<polygon fill="black" stroke="black" points="609,-607.62 609,-607.62 720.5,-607.62 720.5,-607.62 609,-607.62"/>
</g>
<!-- operon&#45;&gt;seq_region -->
<g id="edge2" class="edge">
<title>operon:e&#45;&gt;seq_region:w</title>
<path fill="none" stroke="black" stroke-dasharray="5,2" d="M541.5,-545.5C575.37,-545.5 572.96,-586.31 599.18,-594.92"/>
<polygon fill="black" stroke="black" points="598.34,-598.48 608.75,-596.5 599.38,-591.56 598.34,-598.48"/>
</g>
<!-- operon_transcript -->
<g id="node2" class="node">
<title>operon_transcript</title>
<path fill="#ff8500" stroke="black" d="M379,-688.88C379,-688.88 239.5,-688.88 239.5,-688.88 233.5,-688.88 227.5,-682.88 227.5,-676.88 227.5,-676.88 227.5,-396.12 227.5,-396.12 227.5,-390.12 233.5,-384.12 239.5,-384.12 239.5,-384.12 379,-384.12 379,-384.12 385,-384.12 391,-390.12 391,-396.12 391,-396.12 391,-676.88 391,-676.88 391,-682.88 385,-688.88 379,-688.88"/>
<text text-anchor="start" x="252.62" y="-665.67" font-family="Times,serif" font-size="16.00">operon_transcript</text>
<polygon fill="white" stroke="none" points="237.5,-637.62 237.5,-658.12 381,-658.12 381,-637.62 237.5,-637.62"/>
<text text-anchor="start" x="239.5" y="-643.83" font-family="Times,serif" font-weight="bold" font-size="14.00">PK</text>
<text text-anchor="start" x="259" y="-643.83" font-family="Times,serif" font-size="14.00">  operon_transcript_id</text>
<polygon fill="white" stroke="none" points="237.5,-615.12 237.5,-635.62 381,-635.62 381,-615.12 237.5,-615.12"/>
<text text-anchor="start" x="278.88" y="-620.33" font-family="Times,serif" font-size="14.00">analysis_id</text>
<polygon fill="white" stroke="none" points="237.5,-592.62 237.5,-613.12 381,-613.12 381,-592.62 237.5,-592.62"/>
<text text-anchor="start" x="271" y="-597.83" font-family="Times,serif" font-size="14.00">seq_region_id</text>
<polygon fill="white" stroke="none" points="237.5,-570.12 237.5,-590.62 381,-590.62 381,-570.12 237.5,-570.12"/>
<text text-anchor="start" x="264.62" y="-575.33" font-family="Times,serif" font-size="14.00">seq_region_start</text>
<polygon fill="white" stroke="none" points="237.5,-547.62 237.5,-568.12 381,-568.12 381,-547.62 237.5,-547.62"/>
<text text-anchor="start" x="266.5" y="-552.83" font-family="Times,serif" font-size="14.00">seq_region_end</text>
<polygon fill="white" stroke="none" points="237.5,-525.12 237.5,-545.62 381,-545.62 381,-525.12 237.5,-525.12"/>
<text text-anchor="start" x="259.75" y="-530.33" font-family="Times,serif" font-size="14.00">seq_region_strand</text>
<polygon fill="white" stroke="none" points="237.5,-502.62 237.5,-523.12 381,-523.12 381,-502.62 237.5,-502.62"/>
<text text-anchor="start" x="281.88" y="-507.82" font-family="Times,serif" font-size="14.00">operon_id</text>
<polygon fill="white" stroke="none" points="237.5,-480.12 237.5,-500.62 381,-500.62 381,-480.12 237.5,-480.12"/>
<text text-anchor="start" x="273.25" y="-485.32" font-family="Times,serif" font-size="14.00">display_label</text>
<polygon fill="white" stroke="none" points="237.5,-457.62 237.5,-478.12 381,-478.12 381,-457.62 237.5,-457.62"/>
<text text-anchor="start" x="284.88" y="-462.82" font-family="Times,serif" font-size="14.00">stable_id</text>
<polygon fill="white" stroke="none" points="237.5,-435.12 237.5,-455.62 381,-455.62 381,-435.12 237.5,-435.12"/>
<text text-anchor="start" x="289.38" y="-440.32" font-family="Times,serif" font-size="14.00">version</text>
<polygon fill="white" stroke="none" points="237.5,-412.62 237.5,-433.12 381,-433.12 381,-412.62 237.5,-412.62"/>
<text text-anchor="start" x="275.12" y="-417.82" font-family="Times,serif" font-size="14.00">created_date</text>
<polygon fill="white" stroke="none" points="237.5,-390.12 237.5,-410.62 381,-410.62 381,-390.12 237.5,-390.12"/>
<text text-anchor="start" x="269.88" y="-395.32" font-family="Times,serif" font-size="14.00">modified_date</text>
<polygon fill="black" stroke="black" points="235.5,-659.12 235.5,-659.12 383,-659.12 383,-659.12 235.5,-659.12"/>
</g>
<!-- operon_transcript&#45;&gt;operon -->
<g id="edge4" class="edge">
<title>operon_transcript:e&#45;&gt;operon:w</title>
<path fill="none" stroke="black" stroke-dasharray="5,2" d="M382.25,-512.5C419.96,-512.5 399.01,-575.46 424.81,-588.25"/>
<polygon fill="black" stroke="black" points="423.99,-591.87 434.5,-590.5 425.44,-585.02 423.99,-591.87"/>
</g>
<!-- operon_transcript&#45;&gt;analysis -->
<g id="edge3" class="edge">
<title>operon_transcript:e&#45;&gt;analysis:w</title>
<path fill="none" stroke="black" stroke-dasharray="5,2" d="M382.25,-625.5C446.36,-625.5 378.28,-382.17 427,-340.5 471.25,-302.66 502.39,-323.26 558,-340.5 584.8,-348.81 585.81,-373.75 606.91,-380.05"/>
<polygon fill="black" stroke="black" points="606.37,-383.64 616.75,-381.5 607.3,-376.7 606.37,-383.64"/>
</g>
<!-- operon_transcript&#45;&gt;seq_region -->
<g id="edge5" class="edge">
<title>operon_transcript:e&#45;&gt;seq_region:w</title>
<path fill="none" stroke="black" stroke-dasharray="5,2" d="M382.25,-602.5C408.34,-602.5 402.51,-631.5 427,-640.5 481.65,-660.57 503.35,-660.59 558,-640.5 582.35,-631.55 580.77,-605.49 599.01,-598.33"/>
<polygon fill="black" stroke="black" points="599.48,-601.63 608.75,-596.5 598.3,-594.73 599.48,-601.63"/>
</g>
<!-- operon_transcript_gene -->
<g id="node3" class="node">
<title>operon_transcript_gene</title>
<path fill="#ff8500" stroke="black" d="M179.5,-689.38C179.5,-689.38 28,-689.38 28,-689.38 22,-689.38 16,-683.38 16,-677.38 16,-677.38 16,-621.62 16,-621.62 16,-615.62 22,-609.62 28,-609.62 28,-609.62 179.5,-609.62 179.5,-609.62 185.5,-609.62 191.5,-615.62 191.5,-621.62 191.5,-621.62 191.5,-677.38 191.5,-677.38 191.5,-683.38 185.5,-689.38 179.5,-689.38"/>
<text text-anchor="start" x="28" y="-666.17" font-family="Times,serif" font-size="16.00">operon_transcript_gene</text>
<polygon fill="white" stroke="none" points="26,-638.12 26,-658.62 181.5,-658.62 181.5,-638.12 26,-638.12"/>
<text text-anchor="start" x="47.5" y="-643.33" font-family="Times,serif" font-size="14.00">operon_transcript_id</text>
<polygon fill="white" stroke="none" points="26,-615.62 26,-636.12 181.5,-636.12 181.5,-615.62 26,-615.62"/>
<text text-anchor="start" x="82.38" y="-620.83" font-family="Times,serif" font-size="14.00">gene_id</text>
<polygon fill="black" stroke="black" points="24,-659.62 24,-659.62 183.5,-659.62 183.5,-659.62 24,-659.62"/>
</g>
<!-- operon_transcript_gene&#45;&gt;operon_transcript -->
<g id="edge7" class="edge">
<title>operon_transcript_gene:e&#45;&gt;operon_transcript:w</title>
<path fill="none" stroke="black" stroke-dasharray="5,2" d="M182.75,-648.5C202.44,-648.5 209.9,-647.81 225.39,-647.58"/>
<polygon fill="black" stroke="black" points="225.28,-651.07 235.25,-647.5 225.22,-644.07 225.28,-651.07"/>
</g>
<!-- gene -->
<g id="node8" class="node">
<title>gene</title>
<path fill="#808000" stroke="black" d="M699.62,-324.38C699.62,-324.38 629.88,-324.38 629.88,-324.38 623.88,-324.38 617.88,-318.38 617.88,-312.38 617.88,-312.38 617.88,-256.62 617.88,-256.62 617.88,-250.62 623.88,-244.62 629.88,-244.62 629.88,-244.62 699.62,-244.62 699.62,-244.62 705.62,-244.62 711.62,-250.62 711.62,-256.62 711.62,-256.62 711.62,-312.38 711.62,-312.38 711.62,-318.38 705.62,-324.38 699.62,-324.38"/>
<text text-anchor="start" x="649.75" y="-301.18" font-family="Times,serif" font-size="16.00">gene</text>
<polygon fill="white" stroke="none" points="627.88,-273.12 627.88,-293.62 701.62,-293.62 701.62,-273.12 627.88,-273.12"/>
<text text-anchor="start" x="629.88" y="-279.32" font-family="Times,serif" font-weight="bold" font-size="14.00">PK</text>
<text text-anchor="start" x="649.38" y="-279.32" font-family="Times,serif" font-size="14.00">  gene_id</text>
<polygon fill="white" stroke="none" points="627.88,-250.62 627.88,-271.12 701.62,-271.12 701.62,-250.62 627.88,-250.62"/>
<text text-anchor="start" x="659.12" y="-256.82" font-family="Times,serif" font-style="italic" font-size="14.00">...</text>
<polygon fill="black" stroke="black" points="625.88,-294.62 625.88,-294.62 703.62,-294.62 703.62,-294.62 625.88,-294.62"/>
</g>
<!-- operon_transcript_gene&#45;&gt;gene -->
<g id="edge6" class="edge">
<title>operon_transcript_gene:e&#45;&gt;gene:w</title>
<path fill="none" stroke="black" stroke-dasharray="5,2" d="M182.75,-625.5C239.19,-625.5 190.44,-418.07 227.5,-375.5 344.68,-240.91 440.74,-281.76 615.91,-283.45"/>
<polygon fill="black" stroke="black" points="615.73,-286.95 625.75,-283.5 615.77,-279.95 615.73,-286.95"/>
</g>
<!-- rnaproduct -->
<g id="node4" class="node">
<title>rnaproduct</title>
<path fill="#808000" stroke="black" d="M156.62,-591.62C156.62,-591.62 50.88,-591.62 50.88,-591.62 44.88,-591.62 38.88,-585.62 38.88,-579.62 38.88,-579.62 38.88,-321.38 38.88,-321.38 38.88,-315.38 44.88,-309.38 50.88,-309.38 50.88,-309.38 156.62,-309.38 156.62,-309.38 162.62,-309.38 168.62,-315.38 168.62,-321.38 168.62,-321.38 168.62,-579.62 168.62,-579.62 168.62,-585.62 162.62,-591.62 156.62,-591.62"/>
<text text-anchor="start" x="68.88" y="-568.42" font-family="Times,serif" font-size="16.00">rnaproduct</text>
<polygon fill="white" stroke="none" points="48.88,-540.38 48.88,-560.88 158.62,-560.88 158.62,-540.38 48.88,-540.38"/>
<text text-anchor="start" x="52.38" y="-546.58" font-family="Times,serif" font-weight="bold" font-size="14.00">PK</text>
<text text-anchor="start" x="71.88" y="-546.58" font-family="Times,serif" font-size="14.00">  rnaproduct_id</text>
<polygon fill="white" stroke="none" points="48.88,-517.88 48.88,-538.38 158.62,-538.38 158.62,-517.88 48.88,-517.88"/>
<text text-anchor="start" x="50.88" y="-523.08" font-family="Times,serif" font-size="14.00">rnaproduct_type_id</text>
<polygon fill="white" stroke="none" points="48.88,-495.38 48.88,-515.88 158.62,-515.88 158.62,-495.38 48.88,-495.38"/>
<text text-anchor="start" x="69.62" y="-500.57" font-family="Times,serif" font-size="14.00">transcript_id</text>
<polygon fill="white" stroke="none" points="48.88,-472.88 48.88,-493.38 158.62,-493.38 158.62,-472.88 48.88,-472.88"/>
<text text-anchor="start" x="79.75" y="-478.07" font-family="Times,serif" font-size="14.00">seq_start</text>
<polygon fill="white" stroke="none" points="48.88,-450.38 48.88,-470.88 158.62,-470.88 158.62,-450.38 48.88,-450.38"/>
<text text-anchor="start" x="67" y="-455.57" font-family="Times,serif" font-size="14.00">start_exon_id</text>
<polygon fill="white" stroke="none" points="48.88,-427.88 48.88,-448.38 158.62,-448.38 158.62,-427.88 48.88,-427.88"/>
<text text-anchor="start" x="81.62" y="-433.07" font-family="Times,serif" font-size="14.00">seq_end</text>
<polygon fill="white" stroke="none" points="48.88,-405.38 48.88,-425.88 158.62,-425.88 158.62,-405.38 48.88,-405.38"/>
<text text-anchor="start" x="68.88" y="-410.57" font-family="Times,serif" font-size="14.00">end_exon_id</text>
<polygon fill="white" stroke="none" points="48.88,-382.88 48.88,-403.38 158.62,-403.38 158.62,-382.88 48.88,-382.88"/>
<text text-anchor="start" x="79.38" y="-388.07" font-family="Times,serif" font-size="14.00">stable_id</text>
<polygon fill="white" stroke="none" points="48.88,-360.38 48.88,-380.88 158.62,-380.88 158.62,-360.38 48.88,-360.38"/>
<text text-anchor="start" x="83.88" y="-365.57" font-family="Times,serif" font-size="14.00">version</text>
<polygon fill="white" stroke="none" points="48.88,-337.88 48.88,-358.38 158.62,-358.38 158.62,-337.88 48.88,-337.88"/>
<text text-anchor="start" x="69.62" y="-343.07" font-family="Times,serif" font-size="14.00">created_date</text>
<polygon fill="white" stroke="none" points="48.88,-315.38 48.88,-335.88 158.62,-335.88 158.62,-315.38 48.88,-315.38"/>
<text text-anchor="start" x="64.38" y="-320.57" font-family="Times,serif" font-size="14.00">modified_date</text>
<polygon fill="black" stroke="black" points="46.88,-561.88 46.88,-561.88 160.62,-561.88 160.62,-561.88 46.88,-561.88"/>
</g>
<!-- rnaproduct_attrib -->
<g id="node5" class="node">
<title>rnaproduct_attrib</title>
<path fill="#808000" stroke="black" d="M159.62,-291.62C159.62,-291.62 47.88,-291.62 47.88,-291.62 41.88,-291.62 35.88,-285.62 35.88,-279.62 35.88,-279.62 35.88,-201.38 35.88,-201.38 35.88,-195.38 41.88,-189.38 47.88,-189.38 47.88,-189.38 159.62,-189.38 159.62,-189.38 165.62,-189.38 171.62,-195.38 171.62,-201.38 171.62,-201.38 171.62,-279.62 171.62,-279.62 171.62,-285.62 165.62,-291.62 159.62,-291.62"/>
<text text-anchor="start" x="47.88" y="-268.43" font-family="Times,serif" font-size="16.00">rnaproduct_attrib</text>
<polygon fill="white" stroke="none" points="45.88,-240.38 45.88,-260.88 161.62,-260.88 161.62,-240.38 45.88,-240.38"/>
<text text-anchor="start" x="65.88" y="-245.57" font-family="Times,serif" font-size="14.00">rnaproduct_id</text>
<polygon fill="white" stroke="none" points="45.88,-217.88 45.88,-238.38 161.62,-238.38 161.62,-217.88 45.88,-217.88"/>
<text text-anchor="start" x="65.88" y="-223.07" font-family="Times,serif" font-size="14.00">attrib_type_id</text>
<polygon fill="white" stroke="none" points="45.88,-195.38 45.88,-215.88 161.62,-215.88 161.62,-195.38 45.88,-195.38"/>
<text text-anchor="start" x="89.12" y="-200.57" font-family="Times,serif" font-size="14.00">value</text>
<polygon fill="black" stroke="black" points="43.88,-261.88 43.88,-261.88 163.62,-261.88 163.62,-261.88 43.88,-261.88"/>
</g>
<!-- rnaproduct_type -->
<g id="node6" class="node">
<title>rnaproduct_type</title>
<path fill="#808000" stroke="black" d="M170.12,-170.88C170.12,-170.88 37.38,-170.88 37.38,-170.88 31.38,-170.88 25.38,-164.88 25.38,-158.88 25.38,-158.88 25.38,-58.12 25.38,-58.12 25.38,-52.12 31.38,-46.13 37.38,-46.13 37.38,-46.13 170.12,-46.13 170.12,-46.13 176.12,-46.13 182.12,-52.13 182.12,-58.13 182.12,-58.13 182.12,-158.88 182.12,-158.88 182.12,-164.88 176.12,-170.88 170.12,-170.88"/>
<text text-anchor="start" x="50.88" y="-147.68" font-family="Times,serif" font-size="16.00">rnaproduct_type</text>
<polygon fill="white" stroke="none" points="35.38,-119.62 35.38,-140.12 172.12,-140.12 172.12,-119.62 35.38,-119.62"/>
<text text-anchor="start" x="37.38" y="-125.83" font-family="Times,serif" font-weight="bold" font-size="14.00">PK</text>
<text text-anchor="start" x="56.88" y="-125.83" font-family="Times,serif" font-size="14.00">  rnaproduct_type_id</text>
<polygon fill="white" stroke="none" points="35.38,-97.12 35.38,-117.62 172.12,-117.62 172.12,-97.12 35.38,-97.12"/>
<text text-anchor="start" x="91" y="-102.33" font-family="Times,serif" font-size="14.00">code</text>
<polygon fill="white" stroke="none" points="35.38,-74.62 35.38,-95.12 172.12,-95.12 172.12,-74.62 35.38,-74.62"/>
<text text-anchor="start" x="88.75" y="-79.83" font-family="Times,serif" font-size="14.00">name</text>
<polygon fill="white" stroke="none" points="35.38,-52.12 35.38,-72.62 172.12,-72.62 172.12,-52.12 35.38,-52.12"/>
<text text-anchor="start" x="73.75" y="-57.33" font-family="Times,serif" font-size="14.00">description</text>
<polygon fill="black" stroke="black" points="33.38,-141.12 33.38,-141.12 174.12,-141.12 174.12,-141.12 33.38,-141.12"/>
</g>
</g>
</svg>
