<?xml version="1.0" encoding="UTF-8" standalone="no"?>
<!DOCTYPE svg PUBLIC "-//W3C//DTD SVG 1.1//EN"
 "http://www.w3.org/Graphics/SVG/1.1/DTD/svg11.dtd">
<!-- Generated by graphviz version 2.47.0 (20210316.0004)
 -->
<!-- Title: test Pages: 1 -->
<svg width="627pt" height="3644pt"
 viewBox="0.00 0.00 626.85 3644.00" xmlns="http://www.w3.org/2000/svg" xmlns:xlink="http://www.w3.org/1999/xlink">
<g id="graph0" class="graph" transform="scale(1 1) rotate(0) translate(4 3640)">
<title>test</title>
<polygon fill="white" stroke="transparent" points="-4,4 -4,-3640 622.85,-3640 622.85,4 -4,4"/>
<text text-anchor="middle" x="309.42" y="-10" font-family="Times,serif" font-size="20.00">Core schema diagram: Assembly Tables tables</text>
<g id="clust1" class="cluster">
<title>cluster_assembly_tables</title>
<path fill="#f3cecd" stroke="#f3cecd" d="M45.85,-2413C45.85,-2413 598.85,-2413 598.85,-2413 604.85,-2413 610.85,-2419 610.85,-2425 610.85,-2425 610.85,-3616 610.85,-3616 610.85,-3622 604.85,-3628 598.85,-3628 598.85,-3628 45.85,-3628 45.85,-3628 39.85,-3628 33.85,-3622 33.85,-3616 33.85,-3616 33.85,-2425 33.85,-2425 33.85,-2419 39.85,-2413 45.85,-2413"/>
<text text-anchor="middle" x="322.35" y="-3606" font-family="Times,serif" font-size="20.00">Assembly Tables</text>
</g>
<g id="clust2" class="cluster">
<title>cluster_features</title>
<polygon fill="white" stroke="white" points="29.85,-475 29.85,-1577 248.85,-1577 248.85,-475 29.85,-475"/>
<text text-anchor="middle" x="139.35" y="-1555" font-family="Times,serif" font-size="20.00">Features</text>
</g>
<g id="clust3" class="cluster">
<title>cluster_fundamental_tables</title>
<polygon fill="white" stroke="white" points="50.85,-1585 50.85,-2405 228.85,-2405 228.85,-1585 50.85,-1585"/>
<text text-anchor="middle" x="139.85" y="-2383" font-family="Times,serif" font-size="20.00">Fundamental Tables</text>
</g>
<g id="clust4" class="cluster">
<title>cluster_id_mapping</title>
<polygon fill="white" stroke="white" points="52.35,-40 52.35,-190 226.35,-190 226.35,-40 52.35,-40"/>
<text text-anchor="middle" x="139.35" y="-168" font-family="Times,serif" font-size="20.00">ID Mapping</text>
</g>
<g id="clust5" class="cluster">
<title>cluster_misc</title>
<polygon fill="white" stroke="white" points="63.35,-198 63.35,-467 215.35,-467 215.35,-198 63.35,-198"/>
<text text-anchor="middle" x="139.35" y="-445" font-family="Times,serif" font-size="20.00">Misc</text>
</g>
<!-- assembly -->
<g id="node1" class="node">
<title>assembly</title>
<path fill="#c70c09" stroke="black" d="M194.35,-3327.5C194.35,-3327.5 84.35,-3327.5 84.35,-3327.5 78.35,-3327.5 72.35,-3321.5 72.35,-3315.5 72.35,-3315.5 72.35,-3150.5 72.35,-3150.5 72.35,-3144.5 78.35,-3138.5 84.35,-3138.5 84.35,-3138.5 194.35,-3138.5 194.35,-3138.5 200.35,-3138.5 206.35,-3144.5 206.35,-3150.5 206.35,-3150.5 206.35,-3315.5 206.35,-3315.5 206.35,-3321.5 200.35,-3327.5 194.35,-3327.5"/>
<text text-anchor="start" x="109.58" y="-3304.6" font-family="Times,serif" font-size="16.00">assembly</text>
<polygon fill="white" stroke="transparent" points="82.35,-3276 82.35,-3296 196.35,-3296 196.35,-3276 82.35,-3276"/>
<text text-anchor="start" x="84.92" y="-3281.4" font-family="Times,serif" font-size="14.00">asm_seq_region_id</text>
<polygon fill="white" stroke="transparent" points="82.35,-3254 82.35,-3274 196.35,-3274 196.35,-3254 82.35,-3254"/>
<text text-anchor="start" x="84.14" y="-3259.4" font-family="Times,serif" font-size="14.00">cmp_seq_region_id</text>
<polygon fill="white" stroke="transparent" points="82.35,-3232 82.35,-3252 196.35,-3252 196.35,-3232 82.35,-3232"/>
<text text-anchor="start" x="112.52" y="-3237.4" font-family="Times,serif" font-size="14.00">asm_start</text>
<polygon fill="white" stroke="transparent" points="82.35,-3210 82.35,-3230 196.35,-3230 196.35,-3210 82.35,-3210"/>
<text text-anchor="start" x="114.47" y="-3215.4" font-family="Times,serif" font-size="14.00">asm_end</text>
<polygon fill="white" stroke="transparent" points="82.35,-3188 82.35,-3208 196.35,-3208 196.35,-3188 82.35,-3188"/>
<text text-anchor="start" x="111.75" y="-3193.4" font-family="Times,serif" font-size="14.00">cmp_start</text>
<polygon fill="white" stroke="transparent" points="82.35,-3166 82.35,-3186 196.35,-3186 196.35,-3166 82.35,-3166"/>
<text text-anchor="start" x="113.69" y="-3171.4" font-family="Times,serif" font-size="14.00">cmp_end</text>
<polygon fill="white" stroke="transparent" points="82.35,-3144 82.35,-3164 196.35,-3164 196.35,-3144 82.35,-3144"/>
<text text-anchor="start" x="131.57" y="-3149.4" font-family="Times,serif" font-size="14.00">ori</text>
<polygon fill="black" stroke="black" points="80.35,-3297 80.35,-3297 198.35,-3297 198.35,-3297 80.35,-3297"/>
</g>
<!-- seq_region -->
<g id="node10" class="node">
<title>seq_region</title>
<path fill="#c70c09" stroke="black" d="M401.85,-2685.5C401.85,-2685.5 288.85,-2685.5 288.85,-2685.5 282.85,-2685.5 276.85,-2679.5 276.85,-2673.5 276.85,-2673.5 276.85,-2574.5 276.85,-2574.5 276.85,-2568.5 282.85,-2562.5 288.85,-2562.5 288.85,-2562.5 401.85,-2562.5 401.85,-2562.5 407.85,-2562.5 413.85,-2568.5 413.85,-2574.5 413.85,-2574.5 413.85,-2673.5 413.85,-2673.5 413.85,-2679.5 407.85,-2685.5 401.85,-2685.5"/>
<text text-anchor="start" x="310.75" y="-2662.6" font-family="Times,serif" font-size="16.00">seq_region</text>
<polygon fill="white" stroke="transparent" points="287.35,-2634 287.35,-2654 404.35,-2654 404.35,-2634 287.35,-2634"/>
<text text-anchor="start" x="289.09" y="-2640.4" font-family="Times,serif" font-weight="bold" font-size="14.00">PK</text>
<text text-anchor="start" x="306.97" y="-2640.4" font-family="Times,serif" font-size="14.00">  seq_region_id</text>
<polygon fill="white" stroke="transparent" points="287.35,-2612 287.35,-2632 404.35,-2632 404.35,-2612 287.35,-2612"/>
<text text-anchor="start" x="330.69" y="-2617.4" font-family="Times,serif" font-size="14.00">name</text>
<polygon fill="white" stroke="transparent" points="287.35,-2590 287.35,-2610 404.35,-2610 404.35,-2590 287.35,-2590"/>
<text text-anchor="start" x="298.02" y="-2595.4" font-family="Times,serif" font-size="14.00">coord_system_id</text>
<polygon fill="white" stroke="transparent" points="287.35,-2568 287.35,-2588 404.35,-2588 404.35,-2568 287.35,-2568"/>
<text text-anchor="start" x="328.35" y="-2573.4" font-family="Times,serif" font-size="14.00">length</text>
<polygon fill="black" stroke="black" points="285.35,-2655 285.35,-2655 406.35,-2655 406.35,-2655 285.35,-2655"/>
</g>
<!-- assembly&#45;&gt;seq_region -->
<g id="edge1" class="edge">
<title>assembly:e&#45;&gt;seq_region:w</title>
<path fill="none" stroke="black" stroke-dasharray="5,2" d="M197.35,-3286C270.36,-3286 234.95,-3201.68 248.85,-3130 258.54,-3080.05 235.32,-2695.02 277.38,-2648.58"/>
<polygon fill="black" stroke="black" points="279.03,-2651.66 286.35,-2644 275.85,-2645.43 279.03,-2651.66"/>
</g>
<!-- assembly_exception -->
<g id="node2" class="node">
<title>assembly_exception</title>
<path fill="#c70c09" stroke="black" d="M221.85,-2750.5C221.85,-2750.5 56.85,-2750.5 56.85,-2750.5 50.85,-2750.5 44.85,-2744.5 44.85,-2738.5 44.85,-2738.5 44.85,-2529.5 44.85,-2529.5 44.85,-2523.5 50.85,-2517.5 56.85,-2517.5 56.85,-2517.5 221.85,-2517.5 221.85,-2517.5 227.85,-2517.5 233.85,-2523.5 233.85,-2529.5 233.85,-2529.5 233.85,-2738.5 233.85,-2738.5 233.85,-2744.5 227.85,-2750.5 221.85,-2750.5"/>
<text text-anchor="start" x="74.98" y="-2727.6" font-family="Times,serif" font-size="16.00">assembly_exception</text>
<polygon fill="white" stroke="transparent" points="55.35,-2699 55.35,-2719 224.35,-2719 224.35,-2699 55.35,-2699"/>
<text text-anchor="start" x="57.04" y="-2705.4" font-family="Times,serif" font-weight="bold" font-size="14.00">PK</text>
<text text-anchor="start" x="74.92" y="-2705.4" font-family="Times,serif" font-size="14.00">  assembly_exception_id</text>
<polygon fill="white" stroke="transparent" points="55.35,-2677 55.35,-2697 224.35,-2697 224.35,-2677 55.35,-2677"/>
<text text-anchor="start" x="100.19" y="-2682.4" font-family="Times,serif" font-size="14.00">seq_region_id</text>
<polygon fill="white" stroke="transparent" points="55.35,-2655 55.35,-2675 224.35,-2675 224.35,-2655 55.35,-2655"/>
<text text-anchor="start" x="93.59" y="-2660.4" font-family="Times,serif" font-size="14.00">seq_region_start</text>
<polygon fill="white" stroke="transparent" points="55.35,-2633 55.35,-2653 224.35,-2653 224.35,-2633 55.35,-2633"/>
<text text-anchor="start" x="95.53" y="-2638.4" font-family="Times,serif" font-size="14.00">seq_region_end</text>
<polygon fill="white" stroke="transparent" points="55.35,-2611 55.35,-2631 224.35,-2631 224.35,-2611 55.35,-2611"/>
<text text-anchor="start" x="114.58" y="-2616.4" font-family="Times,serif" font-size="14.00">exc_type</text>
<polygon fill="white" stroke="transparent" points="55.35,-2589 55.35,-2609 224.35,-2609 224.35,-2589 55.35,-2589"/>
<text text-anchor="start" x="86.98" y="-2594.4" font-family="Times,serif" font-size="14.00">exc_seq_region_id</text>
<polygon fill="white" stroke="transparent" points="55.35,-2567 55.35,-2587 224.35,-2587 224.35,-2567 55.35,-2567"/>
<text text-anchor="start" x="80.37" y="-2572.4" font-family="Times,serif" font-size="14.00">exc_seq_region_start</text>
<polygon fill="white" stroke="transparent" points="55.35,-2545 55.35,-2565 224.35,-2565 224.35,-2545 55.35,-2545"/>
<text text-anchor="start" x="82.31" y="-2550.4" font-family="Times,serif" font-size="14.00">exc_seq_region_end</text>
<polygon fill="white" stroke="transparent" points="55.35,-2523 55.35,-2543 224.35,-2543 224.35,-2523 55.35,-2523"/>
<text text-anchor="start" x="132.07" y="-2528.4" font-family="Times,serif" font-size="14.00">ori</text>
<polygon fill="black" stroke="black" points="53.35,-2720 53.35,-2720 226.35,-2720 226.35,-2720 53.35,-2720"/>
</g>
<!-- assembly_exception&#45;&gt;seq_region -->
<g id="edge2" class="edge">
<title>assembly_exception:e&#45;&gt;seq_region:w</title>
<path fill="none" stroke="black" stroke-dasharray="5,2" d="M225.35,-2599C255.22,-2599 253.59,-2634.38 276.32,-2642.4"/>
<polygon fill="black" stroke="black" points="275.92,-2645.88 286.35,-2644 277.03,-2638.97 275.92,-2645.88"/>
</g>
<!-- coord_system -->
<g id="node3" class="node">
<title>coord_system</title>
<path fill="#c70c09" stroke="black" d="M590.85,-2711.5C590.85,-2711.5 461.85,-2711.5 461.85,-2711.5 455.85,-2711.5 449.85,-2705.5 449.85,-2699.5 449.85,-2699.5 449.85,-2556.5 449.85,-2556.5 449.85,-2550.5 455.85,-2544.5 461.85,-2544.5 461.85,-2544.5 590.85,-2544.5 590.85,-2544.5 596.85,-2544.5 602.85,-2550.5 602.85,-2556.5 602.85,-2556.5 602.85,-2699.5 602.85,-2699.5 602.85,-2705.5 596.85,-2711.5 590.85,-2711.5"/>
<text text-anchor="start" x="482.41" y="-2688.6" font-family="Times,serif" font-size="16.00">coord_system</text>
<polygon fill="white" stroke="transparent" points="460.35,-2660 460.35,-2680 593.35,-2680 593.35,-2660 460.35,-2660"/>
<text text-anchor="start" x="461.92" y="-2666.4" font-family="Times,serif" font-weight="bold" font-size="14.00">PK</text>
<text text-anchor="start" x="479.81" y="-2666.4" font-family="Times,serif" font-size="14.00">  coord_system_id</text>
<polygon fill="white" stroke="transparent" points="460.35,-2638 460.35,-2658 593.35,-2658 593.35,-2638 460.35,-2638"/>
<text text-anchor="start" x="497.69" y="-2643.4" font-family="Times,serif" font-size="14.00">species_id</text>
<polygon fill="white" stroke="transparent" points="460.35,-2616 460.35,-2636 593.35,-2636 593.35,-2616 460.35,-2616"/>
<text text-anchor="start" x="511.69" y="-2621.4" font-family="Times,serif" font-size="14.00">name</text>
<polygon fill="white" stroke="transparent" points="460.35,-2594 460.35,-2614 593.35,-2614 593.35,-2594 460.35,-2594"/>
<text text-anchor="start" x="506.24" y="-2599.4" font-family="Times,serif" font-size="14.00">version</text>
<polygon fill="white" stroke="transparent" points="460.35,-2572 460.35,-2592 593.35,-2592 593.35,-2572 460.35,-2572"/>
<text text-anchor="start" x="514.41" y="-2577.4" font-family="Times,serif" font-size="14.00">rank</text>
<polygon fill="white" stroke="transparent" points="460.35,-2550 460.35,-2570 593.35,-2570 593.35,-2550 460.35,-2550"/>
<text text-anchor="start" x="512.07" y="-2555.4" font-family="Times,serif" font-size="14.00">attrib</text>
<polygon fill="black" stroke="black" points="458.35,-2681 458.35,-2681 595.35,-2681 595.35,-2681 458.35,-2681"/>
</g>
<!-- data_file -->
<g id="node4" class="node">
<title>data_file</title>
<path fill="#c70c09" stroke="black" d="M395.85,-3033.5C395.85,-3033.5 294.85,-3033.5 294.85,-3033.5 288.85,-3033.5 282.85,-3027.5 282.85,-3021.5 282.85,-3021.5 282.85,-2834.5 282.85,-2834.5 282.85,-2828.5 288.85,-2822.5 294.85,-2822.5 294.85,-2822.5 395.85,-2822.5 395.85,-2822.5 401.85,-2822.5 407.85,-2828.5 407.85,-2834.5 407.85,-2834.5 407.85,-3021.5 407.85,-3021.5 407.85,-3027.5 401.85,-3033.5 395.85,-3033.5"/>
<text text-anchor="start" x="317.86" y="-3010.6" font-family="Times,serif" font-size="16.00">data_file</text>
<polygon fill="white" stroke="transparent" points="293.35,-2982 293.35,-3002 398.35,-3002 398.35,-2982 293.35,-2982"/>
<text text-anchor="start" x="295.31" y="-2988.4" font-family="Times,serif" font-weight="bold" font-size="14.00">PK</text>
<text text-anchor="start" x="313.2" y="-2988.4" font-family="Times,serif" font-size="14.00">  data_file_id</text>
<polygon fill="white" stroke="transparent" points="293.35,-2960 293.35,-2980 398.35,-2980 398.35,-2960 293.35,-2960"/>
<text text-anchor="start" x="298.02" y="-2965.4" font-family="Times,serif" font-size="14.00">coord_system_id</text>
<polygon fill="white" stroke="transparent" points="293.35,-2938 293.35,-2958 398.35,-2958 398.35,-2938 293.35,-2938"/>
<text text-anchor="start" x="314.35" y="-2943.4" font-family="Times,serif" font-size="14.00">analysis_id</text>
<polygon fill="white" stroke="transparent" points="293.35,-2916 293.35,-2936 398.35,-2936 398.35,-2916 293.35,-2916"/>
<text text-anchor="start" x="330.69" y="-2921.4" font-family="Times,serif" font-size="14.00">name</text>
<polygon fill="white" stroke="transparent" points="293.35,-2894 293.35,-2914 398.35,-2914 398.35,-2894 293.35,-2894"/>
<text text-anchor="start" x="309.69" y="-2899.4" font-family="Times,serif" font-size="14.00">version_lock</text>
<polygon fill="white" stroke="transparent" points="293.35,-2872 293.35,-2892 398.35,-2892 398.35,-2872 293.35,-2872"/>
<text text-anchor="start" x="322.52" y="-2877.4" font-family="Times,serif" font-size="14.00">absolute</text>
<polygon fill="white" stroke="transparent" points="293.35,-2850 293.35,-2870 398.35,-2870 398.35,-2850 293.35,-2850"/>
<text text-anchor="start" x="338.07" y="-2855.4" font-family="Times,serif" font-size="14.00">url</text>
<polygon fill="white" stroke="transparent" points="293.35,-2828 293.35,-2848 398.35,-2848 398.35,-2828 293.35,-2828"/>
<text text-anchor="start" x="320.97" y="-2833.4" font-family="Times,serif" font-size="14.00">file_type</text>
<polygon fill="black" stroke="black" points="291.35,-3003 291.35,-3003 400.35,-3003 400.35,-3003 291.35,-3003"/>
</g>
<!-- data_file&#45;&gt;coord_system -->
<g id="edge4" class="edge">
<title>data_file:e&#45;&gt;coord_system:w</title>
<path fill="none" stroke="black" stroke-dasharray="5,2" d="M399.35,-2970C463.62,-2970 399.24,-2701.92 449.44,-2672.59"/>
<polygon fill="black" stroke="black" points="450.56,-2675.92 459.35,-2670 448.79,-2669.15 450.56,-2675.92"/>
</g>
<!-- analysis -->
<g id="node13" class="node">
<title>analysis</title>
<path fill="#808000" stroke="black" d="M187.85,-2364.5C187.85,-2364.5 90.85,-2364.5 90.85,-2364.5 84.85,-2364.5 78.85,-2358.5 78.85,-2352.5 78.85,-2352.5 78.85,-2297.5 78.85,-2297.5 78.85,-2291.5 84.85,-2285.5 90.85,-2285.5 90.85,-2285.5 187.85,-2285.5 187.85,-2285.5 193.85,-2285.5 199.85,-2291.5 199.85,-2297.5 199.85,-2297.5 199.85,-2352.5 199.85,-2352.5 199.85,-2358.5 193.85,-2364.5 187.85,-2364.5"/>
<text text-anchor="start" x="114.08" y="-2341.6" font-family="Times,serif" font-size="16.00">analysis</text>
<polygon fill="white" stroke="transparent" points="89.35,-2313 89.35,-2333 190.35,-2333 190.35,-2313 89.35,-2313"/>
<text text-anchor="start" x="91.25" y="-2319.4" font-family="Times,serif" font-weight="bold" font-size="14.00">PK</text>
<text text-anchor="start" x="109.14" y="-2319.4" font-family="Times,serif" font-size="14.00">  analysis_id</text>
<polygon fill="white" stroke="transparent" points="89.35,-2291 89.35,-2311 190.35,-2311 190.35,-2291 89.35,-2291"/>
<text text-anchor="start" x="134.6" y="-2297.4" font-family="Times,serif" font-style="italic" font-size="14.00">...</text>
<polygon fill="black" stroke="black" points="87.35,-2334 87.35,-2334 192.35,-2334 192.35,-2334 87.35,-2334"/>
</g>
<!-- data_file&#45;&gt;analysis -->
<g id="edge3" class="edge">
<title>data_file:e&#45;&gt;analysis:w</title>
<path fill="none" stroke="black" stroke-dasharray="5,2" d="M399.35,-2948C437.35,-2948 425.38,-3006.79 398.35,-3033.5 361.84,-3069.59 320.12,-3068.8 282.85,-3033.5 232.39,-2985.72 263.75,-2476.88 248.85,-2409 236.19,-2351.32 248.7,-2318.67 199.85,-2285.5 189.69,-2278.6 98.14,-2276.93 89.35,-2285.5 80.58,-2294.04 75.16,-2310.26 79.5,-2318.28"/>
<polygon fill="black" stroke="black" points="77.88,-2321.38 88.35,-2323 81.18,-2315.2 77.88,-2321.38"/>
</g>
<!-- dna -->
<g id="node5" class="node">
<title>dna</title>
<path fill="#c70c09" stroke="black" d="M195.85,-2499.5C195.85,-2499.5 82.85,-2499.5 82.85,-2499.5 76.85,-2499.5 70.85,-2493.5 70.85,-2487.5 70.85,-2487.5 70.85,-2432.5 70.85,-2432.5 70.85,-2426.5 76.85,-2420.5 82.85,-2420.5 82.85,-2420.5 195.85,-2420.5 195.85,-2420.5 201.85,-2420.5 207.85,-2426.5 207.85,-2432.5 207.85,-2432.5 207.85,-2487.5 207.85,-2487.5 207.85,-2493.5 201.85,-2499.5 195.85,-2499.5"/>
<text text-anchor="start" x="128.3" y="-2476.6" font-family="Times,serif" font-size="16.00">dna</text>
<polygon fill="white" stroke="transparent" points="81.35,-2448 81.35,-2468 198.35,-2468 198.35,-2448 81.35,-2448"/>
<text text-anchor="start" x="83.09" y="-2454.4" font-family="Times,serif" font-weight="bold" font-size="14.00">PK</text>
<text text-anchor="start" x="100.97" y="-2454.4" font-family="Times,serif" font-size="14.00">  seq_region_id</text>
<polygon fill="white" stroke="transparent" points="81.35,-2426 81.35,-2446 198.35,-2446 198.35,-2426 81.35,-2426"/>
<text text-anchor="start" x="114.2" y="-2431.4" font-family="Times,serif" font-size="14.00">sequence</text>
<polygon fill="black" stroke="black" points="79.35,-2469 79.35,-2469 200.35,-2469 200.35,-2469 79.35,-2469"/>
</g>
<!-- dna&#45;&gt;seq_region -->
<g id="edge7" class="edge">
<title>dna:e&#45;&gt;seq_region:w</title>
<path fill="none" stroke="black" stroke-dasharray="5,2" d="M199.35,-2458C230.94,-2458 233.13,-2481.6 248.85,-2509 277.95,-2559.75 230.51,-2634.29 276.29,-2643.13"/>
<polygon fill="black" stroke="black" points="276.08,-2646.63 286.35,-2644 276.69,-2639.65 276.08,-2646.63"/>
</g>
<!-- genome_statistics -->
<g id="node6" class="node">
<title>genome_statistics</title>
<path fill="#c70c09" stroke="black" d="M214.85,-3120.5C214.85,-3120.5 63.85,-3120.5 63.85,-3120.5 57.85,-3120.5 51.85,-3114.5 51.85,-3108.5 51.85,-3108.5 51.85,-2965.5 51.85,-2965.5 51.85,-2959.5 57.85,-2953.5 63.85,-2953.5 63.85,-2953.5 214.85,-2953.5 214.85,-2953.5 220.85,-2953.5 226.85,-2959.5 226.85,-2965.5 226.85,-2965.5 226.85,-3108.5 226.85,-3108.5 226.85,-3114.5 220.85,-3120.5 214.85,-3120.5"/>
<text text-anchor="start" x="82.97" y="-3097.6" font-family="Times,serif" font-size="16.00">genome_statistics</text>
<polygon fill="white" stroke="transparent" points="62.35,-3069 62.35,-3089 217.35,-3089 217.35,-3069 62.35,-3069"/>
<text text-anchor="start" x="64.03" y="-3075.4" font-family="Times,serif" font-weight="bold" font-size="14.00">PK</text>
<text text-anchor="start" x="81.92" y="-3075.4" font-family="Times,serif" font-size="14.00">  genome_statistics_id</text>
<polygon fill="white" stroke="transparent" points="62.35,-3047 62.35,-3067 217.35,-3067 217.35,-3047 62.35,-3047"/>
<text text-anchor="start" x="118.46" y="-3052.4" font-family="Times,serif" font-size="14.00">statistic</text>
<polygon fill="white" stroke="transparent" points="62.35,-3025 62.35,-3045 217.35,-3045 217.35,-3025 62.35,-3025"/>
<text text-anchor="start" x="124.69" y="-3030.4" font-family="Times,serif" font-size="14.00">value</text>
<polygon fill="white" stroke="transparent" points="62.35,-3003 62.35,-3023 217.35,-3023 217.35,-3003 62.35,-3003"/>
<text text-anchor="start" x="110.69" y="-3008.4" font-family="Times,serif" font-size="14.00">species_id</text>
<polygon fill="white" stroke="transparent" points="62.35,-2981 62.35,-3001 217.35,-3001 217.35,-2981 62.35,-2981"/>
<text text-anchor="start" x="100.58" y="-2986.4" font-family="Times,serif" font-size="14.00">attrib_type_id</text>
<polygon fill="white" stroke="transparent" points="62.35,-2959 62.35,-2979 217.35,-2979 217.35,-2959 62.35,-2959"/>
<text text-anchor="start" x="110.68" y="-2964.4" font-family="Times,serif" font-size="14.00">timestamp</text>
<polygon fill="black" stroke="black" points="60.35,-3090 60.35,-3090 219.35,-3090 219.35,-3090 60.35,-3090"/>
</g>
<!-- karyotype -->
<g id="node7" class="node">
<title>karyotype</title>
<path fill="#c70c09" stroke="black" d="M193.35,-2935.5C193.35,-2935.5 85.35,-2935.5 85.35,-2935.5 79.35,-2935.5 73.35,-2929.5 73.35,-2923.5 73.35,-2923.5 73.35,-2780.5 73.35,-2780.5 73.35,-2774.5 79.35,-2768.5 85.35,-2768.5 85.35,-2768.5 193.35,-2768.5 193.35,-2768.5 199.35,-2768.5 205.35,-2774.5 205.35,-2780.5 205.35,-2780.5 205.35,-2923.5 205.35,-2923.5 205.35,-2929.5 199.35,-2935.5 193.35,-2935.5"/>
<text text-anchor="start" x="107.36" y="-2912.6" font-family="Times,serif" font-size="16.00">karyotype</text>
<polygon fill="white" stroke="transparent" points="83.35,-2884 83.35,-2904 195.35,-2904 195.35,-2884 83.35,-2884"/>
<text text-anchor="start" x="85.31" y="-2890.4" font-family="Times,serif" font-weight="bold" font-size="14.00">PK</text>
<text text-anchor="start" x="103.2" y="-2890.4" font-family="Times,serif" font-size="14.00">  karyotype_id</text>
<polygon fill="white" stroke="transparent" points="83.35,-2862 83.35,-2882 195.35,-2882 195.35,-2862 83.35,-2862"/>
<text text-anchor="start" x="99.69" y="-2867.4" font-family="Times,serif" font-size="14.00">seq_region_id</text>
<polygon fill="white" stroke="transparent" points="83.35,-2840 83.35,-2860 195.35,-2860 195.35,-2840 83.35,-2840"/>
<text text-anchor="start" x="93.09" y="-2845.4" font-family="Times,serif" font-size="14.00">seq_region_start</text>
<polygon fill="white" stroke="transparent" points="83.35,-2818 83.35,-2838 195.35,-2838 195.35,-2818 83.35,-2818"/>
<text text-anchor="start" x="95.03" y="-2823.4" font-family="Times,serif" font-size="14.00">seq_region_end</text>
<polygon fill="white" stroke="transparent" points="83.35,-2796 83.35,-2816 195.35,-2816 195.35,-2796 83.35,-2796"/>
<text text-anchor="start" x="125.74" y="-2801.4" font-family="Times,serif" font-size="14.00">band</text>
<polygon fill="white" stroke="transparent" points="83.35,-2774 83.35,-2794 195.35,-2794 195.35,-2774 83.35,-2774"/>
<text text-anchor="start" x="126.13" y="-2779.4" font-family="Times,serif" font-size="14.00">stain</text>
<polygon fill="black" stroke="black" points="81.35,-2905 81.35,-2905 197.35,-2905 197.35,-2905 81.35,-2905"/>
</g>
<!-- karyotype&#45;&gt;seq_region -->
<g id="edge12" class="edge">
<title>karyotype:e&#45;&gt;seq_region:w</title>
<path fill="none" stroke="black" stroke-dasharray="5,2" d="M196.35,-2872C251.32,-2872 228.69,-2811.14 248.85,-2760 267.32,-2713.14 237.03,-2653.15 276.21,-2644.94"/>
<polygon fill="black" stroke="black" points="276.72,-2648.41 286.35,-2644 276.07,-2641.44 276.72,-2648.41"/>
</g>
<!-- meta -->
<g id="node8" class="node">
<title>meta</title>
<path fill="#c70c09" stroke="black" d="M384.85,-2544.5C384.85,-2544.5 305.85,-2544.5 305.85,-2544.5 299.85,-2544.5 293.85,-2538.5 293.85,-2532.5 293.85,-2532.5 293.85,-2433.5 293.85,-2433.5 293.85,-2427.5 299.85,-2421.5 305.85,-2421.5 305.85,-2421.5 384.85,-2421.5 384.85,-2421.5 390.85,-2421.5 396.85,-2427.5 396.85,-2433.5 396.85,-2433.5 396.85,-2532.5 396.85,-2532.5 396.85,-2538.5 390.85,-2544.5 384.85,-2544.5"/>
<text text-anchor="start" x="330.3" y="-2521.6" font-family="Times,serif" font-size="16.00">meta</text>
<polygon fill="white" stroke="transparent" points="304.35,-2493 304.35,-2513 387.35,-2513 387.35,-2493 304.35,-2493"/>
<text text-anchor="start" x="306.19" y="-2499.4" font-family="Times,serif" font-weight="bold" font-size="14.00">PK</text>
<text text-anchor="start" x="324.08" y="-2499.4" font-family="Times,serif" font-size="14.00">  meta_id</text>
<polygon fill="white" stroke="transparent" points="304.35,-2471 304.35,-2491 387.35,-2491 387.35,-2471 304.35,-2471"/>
<text text-anchor="start" x="316.69" y="-2476.4" font-family="Times,serif" font-size="14.00">species_id</text>
<polygon fill="white" stroke="transparent" points="304.35,-2449 304.35,-2469 387.35,-2469 387.35,-2449 304.35,-2449"/>
<text text-anchor="start" x="318.64" y="-2454.4" font-family="Times,serif" font-size="14.00">meta_key</text>
<polygon fill="white" stroke="transparent" points="304.35,-2427 304.35,-2447 387.35,-2447 387.35,-2427 304.35,-2427"/>
<text text-anchor="start" x="313.58" y="-2432.4" font-family="Times,serif" font-size="14.00">meta_value</text>
<polygon fill="black" stroke="black" points="302.35,-2514 302.35,-2514 389.35,-2514 389.35,-2514 302.35,-2514"/>
</g>
<!-- meta&#45;&gt;coord_system -->
<g id="edge14" class="edge">
<title>meta:e&#45;&gt;coord_system:w</title>
<path fill="none" stroke="black" stroke-dasharray="5,2" d="M388.35,-2481C465.22,-2481 386.79,-2632.71 449.1,-2646.93"/>
<polygon fill="black" stroke="black" points="449.04,-2650.45 459.35,-2648 449.76,-2643.48 449.04,-2650.45"/>
</g>
<!-- meta_coord -->
<g id="node9" class="node">
<title>meta_coord</title>
<path fill="#c70c09" stroke="black" d="M392.85,-2804.5C392.85,-2804.5 297.85,-2804.5 297.85,-2804.5 291.85,-2804.5 285.85,-2798.5 285.85,-2792.5 285.85,-2792.5 285.85,-2715.5 285.85,-2715.5 285.85,-2709.5 291.85,-2703.5 297.85,-2703.5 297.85,-2703.5 392.85,-2703.5 392.85,-2703.5 398.85,-2703.5 404.85,-2709.5 404.85,-2715.5 404.85,-2715.5 404.85,-2792.5 404.85,-2792.5 404.85,-2798.5 398.85,-2804.5 392.85,-2804.5"/>
<text text-anchor="start" x="308.08" y="-2781.6" font-family="Times,serif" font-size="16.00">meta_coord</text>
<polygon fill="white" stroke="transparent" points="296.35,-2753 296.35,-2773 395.35,-2773 395.35,-2753 296.35,-2753"/>
<text text-anchor="start" x="313.58" y="-2758.4" font-family="Times,serif" font-size="14.00">table_name</text>
<polygon fill="white" stroke="transparent" points="296.35,-2731 296.35,-2751 395.35,-2751 395.35,-2731 296.35,-2731"/>
<text text-anchor="start" x="298.02" y="-2736.4" font-family="Times,serif" font-size="14.00">coord_system_id</text>
<polygon fill="white" stroke="transparent" points="296.35,-2709 296.35,-2729 395.35,-2729 395.35,-2709 296.35,-2709"/>
<text text-anchor="start" x="312.8" y="-2714.4" font-family="Times,serif" font-size="14.00">max_length</text>
<polygon fill="black" stroke="black" points="294.35,-2774 294.35,-2774 397.35,-2774 397.35,-2774 294.35,-2774"/>
</g>
<!-- meta_coord&#45;&gt;coord_system -->
<g id="edge15" class="edge">
<title>meta_coord:e&#45;&gt;coord_system:w</title>
<path fill="none" stroke="black" stroke-dasharray="5,2" d="M396.35,-2741C434.74,-2741 420.49,-2682.18 449.42,-2671.62"/>
<polygon fill="black" stroke="black" points="450.04,-2675.06 459.35,-2670 448.92,-2668.15 450.04,-2675.06"/>
</g>
<!-- seq_region&#45;&gt;coord_system -->
<g id="edge23" class="edge">
<title>seq_region:e&#45;&gt;coord_system:w</title>
<path fill="none" stroke="black" stroke-dasharray="5,2" d="M405.35,-2600C440.65,-2600 424.39,-2656.5 449.22,-2667.98"/>
<polygon fill="black" stroke="black" points="448.86,-2671.48 459.35,-2670 450.23,-2664.61 448.86,-2671.48"/>
</g>
<!-- seq_region_attrib -->
<g id="node11" class="node">
<title>seq_region_attrib</title>
<path fill="#c70c09" stroke="black" d="M194.85,-3587.5C194.85,-3587.5 83.85,-3587.5 83.85,-3587.5 77.85,-3587.5 71.85,-3581.5 71.85,-3575.5 71.85,-3575.5 71.85,-3498.5 71.85,-3498.5 71.85,-3492.5 77.85,-3486.5 83.85,-3486.5 83.85,-3486.5 194.85,-3486.5 194.85,-3486.5 200.85,-3486.5 206.85,-3492.5 206.85,-3498.5 206.85,-3498.5 206.85,-3575.5 206.85,-3575.5 206.85,-3581.5 200.85,-3587.5 194.85,-3587.5"/>
<text text-anchor="start" x="83.86" y="-3564.6" font-family="Times,serif" font-size="16.00">seq_region_attrib</text>
<polygon fill="white" stroke="transparent" points="82.35,-3536 82.35,-3556 197.35,-3556 197.35,-3536 82.35,-3536"/>
<text text-anchor="start" x="100.19" y="-3541.4" font-family="Times,serif" font-size="14.00">seq_region_id</text>
<polygon fill="white" stroke="transparent" points="82.35,-3514 82.35,-3534 197.35,-3534 197.35,-3514 82.35,-3514"/>
<text text-anchor="start" x="100.58" y="-3519.4" font-family="Times,serif" font-size="14.00">attrib_type_id</text>
<polygon fill="white" stroke="transparent" points="82.35,-3492 82.35,-3512 197.35,-3512 197.35,-3492 82.35,-3492"/>
<text text-anchor="start" x="124.69" y="-3497.4" font-family="Times,serif" font-size="14.00">value</text>
<polygon fill="black" stroke="black" points="80.35,-3557 80.35,-3557 199.35,-3557 199.35,-3557 80.35,-3557"/>
</g>
<!-- seq_region_attrib&#45;&gt;seq_region -->
<g id="edge25" class="edge">
<title>seq_region_attrib:e&#45;&gt;seq_region:w</title>
<path fill="none" stroke="black" stroke-dasharray="5,2" d="M198.35,-3546C235.99,-3546 236.39,-3513.52 248.85,-3478 263.34,-3436.67 242.54,-2729.66 279.24,-2651.08"/>
<polygon fill="black" stroke="black" points="281.73,-2653.54 286.35,-2644 276.79,-2648.58 281.73,-2653.54"/>
</g>
<!-- attrib_type -->
<g id="node14" class="node">
<title>attrib_type</title>
<path fill="#808000" stroke="black" d="M195.35,-2267.5C195.35,-2267.5 83.35,-2267.5 83.35,-2267.5 77.35,-2267.5 71.35,-2261.5 71.35,-2255.5 71.35,-2255.5 71.35,-2200.5 71.35,-2200.5 71.35,-2194.5 77.35,-2188.5 83.35,-2188.5 83.35,-2188.5 195.35,-2188.5 195.35,-2188.5 201.35,-2188.5 207.35,-2194.5 207.35,-2200.5 207.35,-2200.5 207.35,-2255.5 207.35,-2255.5 207.35,-2261.5 201.35,-2267.5 195.35,-2267.5"/>
<text text-anchor="start" x="104.69" y="-2244.6" font-family="Times,serif" font-size="16.00">attrib_type</text>
<polygon fill="white" stroke="transparent" points="81.35,-2216 81.35,-2236 197.35,-2236 197.35,-2216 81.35,-2216"/>
<text text-anchor="start" x="82.97" y="-2222.4" font-family="Times,serif" font-weight="bold" font-size="14.00">PK</text>
<text text-anchor="start" x="100.86" y="-2222.4" font-family="Times,serif" font-size="14.00">  attrib_type_id</text>
<polygon fill="white" stroke="transparent" points="81.35,-2194 81.35,-2214 197.35,-2214 197.35,-2194 81.35,-2194"/>
<text text-anchor="start" x="134.1" y="-2200.4" font-family="Times,serif" font-style="italic" font-size="14.00">...</text>
<polygon fill="black" stroke="black" points="79.35,-2237 79.35,-2237 199.35,-2237 199.35,-2237 79.35,-2237"/>
</g>
<!-- seq_region_attrib&#45;&gt;attrib_type -->
<g id="edge24" class="edge">
<title>seq_region_attrib:e&#45;&gt;attrib_type:w</title>
<path fill="none" stroke="black" stroke-dasharray="5,2" d="M206.85,-3524C224.4,-3524 219.03,-3497.14 206.85,-3484.5 193.19,-3470.33 48.92,-3482.87 29.85,-3478 21.18,-3475.79 16.55,-3476.61 11.85,-3469 -5.44,-3441.02 -1.86,-2314.9 11.85,-2285 27.09,-2251.76 38.05,-2230.15 70.19,-2226.54"/>
<polygon fill="black" stroke="black" points="70.55,-2230.02 80.35,-2226 70.18,-2223.03 70.55,-2230.02"/>
</g>
<!-- seq_region_synonym -->
<g id="node12" class="node">
<title>seq_region_synonym</title>
<path fill="#c70c09" stroke="black" d="M224.85,-3468.5C224.85,-3468.5 53.85,-3468.5 53.85,-3468.5 47.85,-3468.5 41.85,-3462.5 41.85,-3456.5 41.85,-3456.5 41.85,-3357.5 41.85,-3357.5 41.85,-3351.5 47.85,-3345.5 53.85,-3345.5 53.85,-3345.5 224.85,-3345.5 224.85,-3345.5 230.85,-3345.5 236.85,-3351.5 236.85,-3357.5 236.85,-3357.5 236.85,-3456.5 236.85,-3456.5 236.85,-3462.5 230.85,-3468.5 224.85,-3468.5"/>
<text text-anchor="start" x="71.41" y="-3445.6" font-family="Times,serif" font-size="16.00">seq_region_synonym</text>
<polygon fill="white" stroke="transparent" points="52.35,-3417 52.35,-3437 227.35,-3437 227.35,-3417 52.35,-3417"/>
<text text-anchor="start" x="53.92" y="-3423.4" font-family="Times,serif" font-weight="bold" font-size="14.00">PK</text>
<text text-anchor="start" x="71.81" y="-3423.4" font-family="Times,serif" font-size="14.00">  seq_region_synonym_id</text>
<polygon fill="white" stroke="transparent" points="52.35,-3395 52.35,-3415 227.35,-3415 227.35,-3395 52.35,-3395"/>
<text text-anchor="start" x="100.19" y="-3400.4" font-family="Times,serif" font-size="14.00">seq_region_id</text>
<polygon fill="white" stroke="transparent" points="52.35,-3373 52.35,-3393 227.35,-3393 227.35,-3373 52.35,-3373"/>
<text text-anchor="start" x="114.18" y="-3378.4" font-family="Times,serif" font-size="14.00">synonym</text>
<polygon fill="white" stroke="transparent" points="52.35,-3351 52.35,-3371 227.35,-3371 227.35,-3351 52.35,-3351"/>
<text text-anchor="start" x="97.86" y="-3356.4" font-family="Times,serif" font-size="14.00">external_db_id</text>
<polygon fill="black" stroke="black" points="50.35,-3438 50.35,-3438 229.35,-3438 229.35,-3438 50.35,-3438"/>
</g>
<!-- seq_region_synonym&#45;&gt;seq_region -->
<g id="edge27" class="edge">
<title>seq_region_synonym:e&#45;&gt;seq_region:w</title>
<path fill="none" stroke="black" stroke-dasharray="5,2" d="M228.35,-3405C309.67,-3405 210.37,-2705.15 276.88,-2647.74"/>
<polygon fill="black" stroke="black" points="278.33,-2650.93 286.35,-2644 275.76,-2644.41 278.33,-2650.93"/>
</g>
<!-- density_feature -->
<g id="node15" class="node">
<title>density_feature</title>
<path fill="#3cb371" stroke="black" d="M188.35,-703.5C188.35,-703.5 90.35,-703.5 90.35,-703.5 84.35,-703.5 78.35,-697.5 78.35,-691.5 78.35,-691.5 78.35,-614.5 78.35,-614.5 78.35,-608.5 84.35,-602.5 90.35,-602.5 90.35,-602.5 188.35,-602.5 188.35,-602.5 194.35,-602.5 200.35,-608.5 200.35,-614.5 200.35,-614.5 200.35,-691.5 200.35,-691.5 200.35,-697.5 194.35,-703.5 188.35,-703.5"/>
<text text-anchor="start" x="90.04" y="-680.6" font-family="Times,serif" font-size="16.00">density_feature</text>
<polygon fill="white" stroke="transparent" points="88.35,-652 88.35,-672 190.35,-672 190.35,-652 88.35,-652"/>
<text text-anchor="start" x="134.1" y="-658.4" font-family="Times,serif" font-style="italic" font-size="14.00">...</text>
<polygon fill="white" stroke="transparent" points="88.35,-630 88.35,-650 190.35,-650 190.35,-630 88.35,-630"/>
<text text-anchor="start" x="99.69" y="-635.4" font-family="Times,serif" font-size="14.00">seq_region_id</text>
<polygon fill="white" stroke="transparent" points="88.35,-608 88.35,-628 190.35,-628 190.35,-608 88.35,-608"/>
<text text-anchor="start" x="134.1" y="-614.4" font-family="Times,serif" font-style="italic" font-size="14.00">...</text>
<polygon fill="black" stroke="black" points="86.35,-673 86.35,-673 192.35,-673 192.35,-673 86.35,-673"/>
</g>
<!-- density_feature&#45;&gt;seq_region -->
<g id="edge5" class="edge">
<title>density_feature:e&#45;&gt;seq_region:w</title>
<path fill="none" stroke="black" stroke-dasharray="5,2" d="M191.35,-640C232.3,-640 235.02,-673.45 248.85,-712 283.4,-808.28 270.75,-2450.89 276.85,-2553 279.02,-2589.47 252.13,-2633.86 276.14,-2642.5"/>
<polygon fill="black" stroke="black" points="275.95,-2646.01 286.35,-2644 276.96,-2639.09 275.95,-2646.01"/>
</g>
<!-- ditag_feature -->
<g id="node16" class="node">
<title>ditag_feature</title>
<path fill="#3cb371" stroke="black" d="M181.35,-584.5C181.35,-584.5 97.35,-584.5 97.35,-584.5 91.35,-584.5 85.35,-578.5 85.35,-572.5 85.35,-572.5 85.35,-495.5 85.35,-495.5 85.35,-489.5 91.35,-483.5 97.35,-483.5 97.35,-483.5 181.35,-483.5 181.35,-483.5 187.35,-483.5 193.35,-489.5 193.35,-495.5 193.35,-495.5 193.35,-572.5 193.35,-572.5 193.35,-578.5 187.35,-584.5 181.35,-584.5"/>
<text text-anchor="start" x="97.15" y="-561.6" font-family="Times,serif" font-size="16.00">ditag_feature</text>
<polygon fill="white" stroke="transparent" points="95.35,-533 95.35,-553 183.35,-553 183.35,-533 95.35,-533"/>
<text text-anchor="start" x="134.1" y="-539.4" font-family="Times,serif" font-style="italic" font-size="14.00">...</text>
<polygon fill="white" stroke="transparent" points="95.35,-511 95.35,-531 183.35,-531 183.35,-511 95.35,-511"/>
<text text-anchor="start" x="99.69" y="-516.4" font-family="Times,serif" font-size="14.00">seq_region_id</text>
<polygon fill="white" stroke="transparent" points="95.35,-489 95.35,-509 183.35,-509 183.35,-489 95.35,-489"/>
<text text-anchor="start" x="134.1" y="-495.4" font-family="Times,serif" font-style="italic" font-size="14.00">...</text>
<polygon fill="black" stroke="black" points="93.35,-554 93.35,-554 185.35,-554 185.35,-554 93.35,-554"/>
</g>
<!-- ditag_feature&#45;&gt;seq_region -->
<g id="edge6" class="edge">
<title>ditag_feature:e&#45;&gt;seq_region:w</title>
<path fill="none" stroke="black" stroke-dasharray="5,2" d="M184.35,-521C227.31,-521 233.22,-552.98 248.85,-593 288.47,-694.44 270.41,-2444.29 276.85,-2553 279.01,-2589.47 252.13,-2633.86 276.14,-2642.5"/>
<polygon fill="black" stroke="black" points="275.95,-2646.01 286.35,-2644 276.96,-2639.09 275.95,-2646.01"/>
</g>
<!-- dna_align_feature -->
<g id="node17" class="node">
<title>dna_align_feature</title>
<path fill="#808000" stroke="black" d="M196.85,-2170.5C196.85,-2170.5 81.85,-2170.5 81.85,-2170.5 75.85,-2170.5 69.85,-2164.5 69.85,-2158.5 69.85,-2158.5 69.85,-2081.5 69.85,-2081.5 69.85,-2075.5 75.85,-2069.5 81.85,-2069.5 81.85,-2069.5 196.85,-2069.5 196.85,-2069.5 202.85,-2069.5 208.85,-2075.5 208.85,-2081.5 208.85,-2081.5 208.85,-2158.5 208.85,-2158.5 208.85,-2164.5 202.85,-2170.5 196.85,-2170.5"/>
<text text-anchor="start" x="82.1" y="-2147.6" font-family="Times,serif" font-size="16.00">dna_align_feature</text>
<polygon fill="white" stroke="transparent" points="80.35,-2119 80.35,-2139 199.35,-2139 199.35,-2119 80.35,-2119"/>
<text text-anchor="start" x="134.6" y="-2125.4" font-family="Times,serif" font-style="italic" font-size="14.00">...</text>
<polygon fill="white" stroke="transparent" points="80.35,-2097 80.35,-2117 199.35,-2117 199.35,-2097 80.35,-2097"/>
<text text-anchor="start" x="100.19" y="-2102.4" font-family="Times,serif" font-size="14.00">seq_region_id</text>
<polygon fill="white" stroke="transparent" points="80.35,-2075 80.35,-2095 199.35,-2095 199.35,-2075 80.35,-2075"/>
<text text-anchor="start" x="134.6" y="-2081.4" font-family="Times,serif" font-style="italic" font-size="14.00">...</text>
<polygon fill="black" stroke="black" points="78.35,-2140 78.35,-2140 201.35,-2140 201.35,-2140 78.35,-2140"/>
</g>
<!-- dna_align_feature&#45;&gt;seq_region -->
<g id="edge8" class="edge">
<title>dna_align_feature:e&#45;&gt;seq_region:w</title>
<path fill="none" stroke="black" stroke-dasharray="5,2" d="M200.35,-2107C338.98,-2107 234.29,-2078.14 276.85,-2553 280.11,-2589.39 252.36,-2633.85 276.17,-2642.5"/>
<polygon fill="black" stroke="black" points="275.94,-2646 286.35,-2644 276.97,-2639.08 275.94,-2646"/>
</g>
<!-- exon -->
<g id="node18" class="node">
<title>exon</title>
<path fill="#808000" stroke="black" d="M178.85,-2051.5C178.85,-2051.5 99.85,-2051.5 99.85,-2051.5 93.85,-2051.5 87.85,-2045.5 87.85,-2039.5 87.85,-2039.5 87.85,-1962.5 87.85,-1962.5 87.85,-1956.5 93.85,-1950.5 99.85,-1950.5 99.85,-1950.5 178.85,-1950.5 178.85,-1950.5 184.85,-1950.5 190.85,-1956.5 190.85,-1962.5 190.85,-1962.5 190.85,-2039.5 190.85,-2039.5 190.85,-2045.5 184.85,-2051.5 178.85,-2051.5"/>
<text text-anchor="start" x="124.3" y="-2028.6" font-family="Times,serif" font-size="16.00">exon</text>
<polygon fill="white" stroke="transparent" points="98.35,-2000 98.35,-2020 181.35,-2020 181.35,-2000 98.35,-2000"/>
<text text-anchor="start" x="134.6" y="-2006.4" font-family="Times,serif" font-style="italic" font-size="14.00">...</text>
<polygon fill="white" stroke="transparent" points="98.35,-1978 98.35,-1998 181.35,-1998 181.35,-1978 98.35,-1978"/>
<text text-anchor="start" x="100.19" y="-1983.4" font-family="Times,serif" font-size="14.00">seq_region_id</text>
<polygon fill="white" stroke="transparent" points="98.35,-1956 98.35,-1976 181.35,-1976 181.35,-1956 98.35,-1956"/>
<text text-anchor="start" x="134.6" y="-1962.4" font-family="Times,serif" font-style="italic" font-size="14.00">...</text>
<polygon fill="black" stroke="black" points="96.35,-2021 96.35,-2021 183.35,-2021 183.35,-2021 96.35,-2021"/>
</g>
<!-- exon&#45;&gt;seq_region -->
<g id="edge9" class="edge">
<title>exon:e&#45;&gt;seq_region:w</title>
<path fill="none" stroke="black" stroke-dasharray="5,2" d="M182.35,-1988C225.91,-1988 231.84,-2019.9 248.85,-2060 291.7,-2161.02 268.04,-2443.62 276.85,-2553 279.78,-2589.42 252.29,-2633.85 276.16,-2642.5"/>
<polygon fill="black" stroke="black" points="275.95,-2646.01 286.35,-2644 276.96,-2639.08 275.95,-2646.01"/>
</g>
<!-- gene -->
<g id="node19" class="node">
<title>gene</title>
<path fill="#808000" stroke="black" d="M178.85,-1932.5C178.85,-1932.5 99.85,-1932.5 99.85,-1932.5 93.85,-1932.5 87.85,-1926.5 87.85,-1920.5 87.85,-1920.5 87.85,-1843.5 87.85,-1843.5 87.85,-1837.5 93.85,-1831.5 99.85,-1831.5 99.85,-1831.5 178.85,-1831.5 178.85,-1831.5 184.85,-1831.5 190.85,-1837.5 190.85,-1843.5 190.85,-1843.5 190.85,-1920.5 190.85,-1920.5 190.85,-1926.5 184.85,-1932.5 178.85,-1932.5"/>
<text text-anchor="start" x="124.75" y="-1909.6" font-family="Times,serif" font-size="16.00">gene</text>
<polygon fill="white" stroke="transparent" points="98.35,-1881 98.35,-1901 181.35,-1901 181.35,-1881 98.35,-1881"/>
<text text-anchor="start" x="134.6" y="-1887.4" font-family="Times,serif" font-style="italic" font-size="14.00">...</text>
<polygon fill="white" stroke="transparent" points="98.35,-1859 98.35,-1879 181.35,-1879 181.35,-1859 98.35,-1859"/>
<text text-anchor="start" x="100.19" y="-1864.4" font-family="Times,serif" font-size="14.00">seq_region_id</text>
<polygon fill="white" stroke="transparent" points="98.35,-1837 98.35,-1857 181.35,-1857 181.35,-1837 98.35,-1837"/>
<text text-anchor="start" x="134.6" y="-1843.4" font-family="Times,serif" font-style="italic" font-size="14.00">...</text>
<polygon fill="black" stroke="black" points="96.35,-1902 96.35,-1902 183.35,-1902 183.35,-1902 96.35,-1902"/>
</g>
<!-- gene&#45;&gt;seq_region -->
<g id="edge10" class="edge">
<title>gene:e&#45;&gt;seq_region:w</title>
<path fill="none" stroke="black" stroke-dasharray="5,2" d="M182.35,-1869C309.96,-1869 239.69,-2057.58 276.85,-2553 279.58,-2589.43 252.25,-2633.85 276.16,-2642.5"/>
<polygon fill="black" stroke="black" points="275.95,-2646.01 286.35,-2644 276.96,-2639.08 275.95,-2646.01"/>
</g>
<!-- intron_supporting_evidence -->
<g id="node20" class="node">
<title>intron_supporting_evidence</title>
<path fill="#3cb371" stroke="black" d="M228.85,-1536.5C228.85,-1536.5 49.85,-1536.5 49.85,-1536.5 43.85,-1536.5 37.85,-1530.5 37.85,-1524.5 37.85,-1524.5 37.85,-1447.5 37.85,-1447.5 37.85,-1441.5 43.85,-1435.5 49.85,-1435.5 49.85,-1435.5 228.85,-1435.5 228.85,-1435.5 234.85,-1435.5 240.85,-1441.5 240.85,-1447.5 240.85,-1447.5 240.85,-1524.5 240.85,-1524.5 240.85,-1530.5 234.85,-1536.5 228.85,-1536.5"/>
<text text-anchor="start" x="50.09" y="-1513.6" font-family="Times,serif" font-size="16.00">intron_supporting_evidence</text>
<polygon fill="white" stroke="transparent" points="48.35,-1485 48.35,-1505 231.35,-1505 231.35,-1485 48.35,-1485"/>
<text text-anchor="start" x="134.6" y="-1491.4" font-family="Times,serif" font-style="italic" font-size="14.00">...</text>
<polygon fill="white" stroke="transparent" points="48.35,-1463 48.35,-1483 231.35,-1483 231.35,-1463 48.35,-1463"/>
<text text-anchor="start" x="100.19" y="-1468.4" font-family="Times,serif" font-size="14.00">seq_region_id</text>
<polygon fill="white" stroke="transparent" points="48.35,-1441 48.35,-1461 231.35,-1461 231.35,-1441 48.35,-1441"/>
<text text-anchor="start" x="134.6" y="-1447.4" font-family="Times,serif" font-style="italic" font-size="14.00">...</text>
<polygon fill="black" stroke="black" points="46.35,-1506 46.35,-1506 233.35,-1506 233.35,-1506 46.35,-1506"/>
</g>
<!-- intron_supporting_evidence&#45;&gt;seq_region -->
<g id="edge11" class="edge">
<title>intron_supporting_evidence:e&#45;&gt;seq_region:w</title>
<path fill="none" stroke="black" stroke-dasharray="5,2" d="M232.35,-1473C294.61,-1473 227.65,-2543.34 278.56,-2637.41"/>
<polygon fill="black" stroke="black" points="276.45,-2640.22 286.35,-2644 280.97,-2634.87 276.45,-2640.22"/>
</g>
<!-- marker_feature -->
<g id="node21" class="node">
<title>marker_feature</title>
<path fill="#3cb371" stroke="black" d="M187.85,-1417.5C187.85,-1417.5 90.85,-1417.5 90.85,-1417.5 84.85,-1417.5 78.85,-1411.5 78.85,-1405.5 78.85,-1405.5 78.85,-1328.5 78.85,-1328.5 78.85,-1322.5 84.85,-1316.5 90.85,-1316.5 90.85,-1316.5 187.85,-1316.5 187.85,-1316.5 193.85,-1316.5 199.85,-1322.5 199.85,-1328.5 199.85,-1328.5 199.85,-1405.5 199.85,-1405.5 199.85,-1411.5 193.85,-1417.5 187.85,-1417.5"/>
<text text-anchor="start" x="90.99" y="-1394.6" font-family="Times,serif" font-size="16.00">marker_feature</text>
<polygon fill="white" stroke="transparent" points="89.35,-1366 89.35,-1386 190.35,-1386 190.35,-1366 89.35,-1366"/>
<text text-anchor="start" x="134.6" y="-1372.4" font-family="Times,serif" font-style="italic" font-size="14.00">...</text>
<polygon fill="white" stroke="transparent" points="89.35,-1344 89.35,-1364 190.35,-1364 190.35,-1344 89.35,-1344"/>
<text text-anchor="start" x="100.19" y="-1349.4" font-family="Times,serif" font-size="14.00">seq_region_id</text>
<polygon fill="white" stroke="transparent" points="89.35,-1322 89.35,-1342 190.35,-1342 190.35,-1322 89.35,-1322"/>
<text text-anchor="start" x="134.6" y="-1328.4" font-family="Times,serif" font-style="italic" font-size="14.00">...</text>
<polygon fill="black" stroke="black" points="87.35,-1387 87.35,-1387 192.35,-1387 192.35,-1387 87.35,-1387"/>
</g>
<!-- marker_feature&#45;&gt;seq_region -->
<g id="edge13" class="edge">
<title>marker_feature:e&#45;&gt;seq_region:w</title>
<path fill="none" stroke="black" stroke-dasharray="5,2" d="M191.35,-1354C232.3,-1354 234.83,-1387.52 248.85,-1426 291.73,-1543.69 268.78,-2428 276.85,-2553 279.2,-2589.46 252.17,-2633.86 276.15,-2642.5"/>
<polygon fill="black" stroke="black" points="275.95,-2646.01 286.35,-2644 276.96,-2639.09 275.95,-2646.01"/>
</g>
<!-- misc_feature -->
<g id="node22" class="node">
<title>misc_feature</title>
<path fill="#3cb371" stroke="black" d="M180.35,-1298.5C180.35,-1298.5 98.35,-1298.5 98.35,-1298.5 92.35,-1298.5 86.35,-1292.5 86.35,-1286.5 86.35,-1286.5 86.35,-1209.5 86.35,-1209.5 86.35,-1203.5 92.35,-1197.5 98.35,-1197.5 98.35,-1197.5 180.35,-1197.5 180.35,-1197.5 186.35,-1197.5 192.35,-1203.5 192.35,-1209.5 192.35,-1209.5 192.35,-1286.5 192.35,-1286.5 192.35,-1292.5 186.35,-1298.5 180.35,-1298.5"/>
<text text-anchor="start" x="98.04" y="-1275.6" font-family="Times,serif" font-size="16.00">misc_feature</text>
<polygon fill="white" stroke="transparent" points="96.35,-1247 96.35,-1267 182.35,-1267 182.35,-1247 96.35,-1247"/>
<text text-anchor="start" x="134.1" y="-1253.4" font-family="Times,serif" font-style="italic" font-size="14.00">...</text>
<polygon fill="white" stroke="transparent" points="96.35,-1225 96.35,-1245 182.35,-1245 182.35,-1225 96.35,-1225"/>
<text text-anchor="start" x="99.69" y="-1230.4" font-family="Times,serif" font-size="14.00">seq_region_id</text>
<polygon fill="white" stroke="transparent" points="96.35,-1203 96.35,-1223 182.35,-1223 182.35,-1203 96.35,-1203"/>
<text text-anchor="start" x="134.1" y="-1209.4" font-family="Times,serif" font-style="italic" font-size="14.00">...</text>
<polygon fill="black" stroke="black" points="94.35,-1268 94.35,-1268 184.35,-1268 184.35,-1268 94.35,-1268"/>
</g>
<!-- misc_feature&#45;&gt;seq_region -->
<g id="edge16" class="edge">
<title>misc_feature:e&#45;&gt;seq_region:w</title>
<path fill="none" stroke="black" stroke-dasharray="5,2" d="M183.35,-1235C226.61,-1235 232.79,-1266.83 248.85,-1307 274.55,-1371.29 272.47,-2483.9 276.85,-2553 279.16,-2589.46 252.16,-2633.86 276.14,-2642.5"/>
<polygon fill="black" stroke="black" points="275.95,-2646.01 286.35,-2644 276.96,-2639.09 275.95,-2646.01"/>
</g>
<!-- operon -->
<g id="node23" class="node">
<title>operon</title>
<path fill="#ff8500" stroke="black" d="M178.85,-426.5C178.85,-426.5 99.85,-426.5 99.85,-426.5 93.85,-426.5 87.85,-420.5 87.85,-414.5 87.85,-414.5 87.85,-337.5 87.85,-337.5 87.85,-331.5 93.85,-325.5 99.85,-325.5 99.85,-325.5 178.85,-325.5 178.85,-325.5 184.85,-325.5 190.85,-331.5 190.85,-337.5 190.85,-337.5 190.85,-414.5 190.85,-414.5 190.85,-420.5 184.85,-426.5 178.85,-426.5"/>
<text text-anchor="start" x="117.63" y="-403.6" font-family="Times,serif" font-size="16.00">operon</text>
<polygon fill="white" stroke="transparent" points="98.35,-375 98.35,-395 181.35,-395 181.35,-375 98.35,-375"/>
<text text-anchor="start" x="134.6" y="-381.4" font-family="Times,serif" font-style="italic" font-size="14.00">...</text>
<polygon fill="white" stroke="transparent" points="98.35,-353 98.35,-373 181.35,-373 181.35,-353 98.35,-353"/>
<text text-anchor="start" x="100.19" y="-358.4" font-family="Times,serif" font-size="14.00">seq_region_id</text>
<polygon fill="white" stroke="transparent" points="98.35,-331 98.35,-351 181.35,-351 181.35,-331 98.35,-331"/>
<text text-anchor="start" x="134.6" y="-337.4" font-family="Times,serif" font-style="italic" font-size="14.00">...</text>
<polygon fill="black" stroke="black" points="96.35,-396 96.35,-396 183.35,-396 183.35,-396 96.35,-396"/>
</g>
<!-- operon&#45;&gt;seq_region -->
<g id="edge17" class="edge">
<title>operon:e&#45;&gt;seq_region:w</title>
<path fill="none" stroke="black" stroke-dasharray="5,2" d="M182.35,-363C238.72,-363 233.12,-416.87 248.85,-471 265.08,-526.88 228.77,-2493.84 280.19,-2635.91"/>
<polygon fill="black" stroke="black" points="277.5,-2638.17 286.35,-2644 283.07,-2633.92 277.5,-2638.17"/>
</g>
<!-- operon_transcript -->
<g id="node24" class="node">
<title>operon_transcript</title>
<path fill="#ff8500" stroke="black" d="M195.35,-307.5C195.35,-307.5 83.35,-307.5 83.35,-307.5 77.35,-307.5 71.35,-301.5 71.35,-295.5 71.35,-295.5 71.35,-218.5 71.35,-218.5 71.35,-212.5 77.35,-206.5 83.35,-206.5 83.35,-206.5 195.35,-206.5 195.35,-206.5 201.35,-206.5 207.35,-212.5 207.35,-218.5 207.35,-218.5 207.35,-295.5 207.35,-295.5 207.35,-301.5 201.35,-307.5 195.35,-307.5"/>
<text text-anchor="start" x="82.92" y="-284.6" font-family="Times,serif" font-size="16.00">operon_transcript</text>
<polygon fill="white" stroke="transparent" points="81.35,-256 81.35,-276 197.35,-276 197.35,-256 81.35,-256"/>
<text text-anchor="start" x="134.1" y="-262.4" font-family="Times,serif" font-style="italic" font-size="14.00">...</text>
<polygon fill="white" stroke="transparent" points="81.35,-234 81.35,-254 197.35,-254 197.35,-234 81.35,-234"/>
<text text-anchor="start" x="99.69" y="-239.4" font-family="Times,serif" font-size="14.00">seq_region_id</text>
<polygon fill="white" stroke="transparent" points="81.35,-212 81.35,-232 197.35,-232 197.35,-212 81.35,-212"/>
<text text-anchor="start" x="134.1" y="-218.4" font-family="Times,serif" font-style="italic" font-size="14.00">...</text>
<polygon fill="black" stroke="black" points="79.35,-277 79.35,-277 199.35,-277 199.35,-277 79.35,-277"/>
</g>
<!-- operon_transcript&#45;&gt;seq_region -->
<g id="edge18" class="edge">
<title>operon_transcript:e&#45;&gt;seq_region:w</title>
<path fill="none" stroke="black" stroke-dasharray="5,2" d="M198.35,-244C237.43,-244 236.85,-278.8 248.85,-316 287.01,-434.28 269.61,-2428.92 276.85,-2553 278.98,-2589.47 252.12,-2633.86 276.14,-2642.5"/>
<polygon fill="black" stroke="black" points="275.95,-2646.01 286.35,-2644 276.96,-2639.09 275.95,-2646.01"/>
</g>
<!-- prediction_exon -->
<g id="node25" class="node">
<title>prediction_exon</title>
<path fill="#3cb371" stroke="black" d="M190.85,-1179.5C190.85,-1179.5 87.85,-1179.5 87.85,-1179.5 81.85,-1179.5 75.85,-1173.5 75.85,-1167.5 75.85,-1167.5 75.85,-1090.5 75.85,-1090.5 75.85,-1084.5 81.85,-1078.5 87.85,-1078.5 87.85,-1078.5 190.85,-1078.5 190.85,-1078.5 196.85,-1078.5 202.85,-1084.5 202.85,-1090.5 202.85,-1090.5 202.85,-1167.5 202.85,-1167.5 202.85,-1173.5 196.85,-1179.5 190.85,-1179.5"/>
<text text-anchor="start" x="87.86" y="-1156.6" font-family="Times,serif" font-size="16.00">prediction_exon</text>
<polygon fill="white" stroke="transparent" points="86.35,-1128 86.35,-1148 193.35,-1148 193.35,-1128 86.35,-1128"/>
<text text-anchor="start" x="134.6" y="-1134.4" font-family="Times,serif" font-style="italic" font-size="14.00">...</text>
<polygon fill="white" stroke="transparent" points="86.35,-1106 86.35,-1126 193.35,-1126 193.35,-1106 86.35,-1106"/>
<text text-anchor="start" x="100.19" y="-1111.4" font-family="Times,serif" font-size="14.00">seq_region_id</text>
<polygon fill="white" stroke="transparent" points="86.35,-1084 86.35,-1104 193.35,-1104 193.35,-1084 86.35,-1084"/>
<text text-anchor="start" x="134.6" y="-1090.4" font-family="Times,serif" font-style="italic" font-size="14.00">...</text>
<polygon fill="black" stroke="black" points="84.35,-1149 84.35,-1149 195.35,-1149 195.35,-1149 84.35,-1149"/>
</g>
<!-- prediction_exon&#45;&gt;seq_region -->
<g id="edge19" class="edge">
<title>prediction_exon:e&#45;&gt;seq_region:w</title>
<path fill="none" stroke="black" stroke-dasharray="5,2" d="M194.35,-1116C234.48,-1116 235.68,-1150.09 248.85,-1188 273.73,-1259.65 272.13,-2477.3 276.85,-2553 279.12,-2589.46 252.15,-2633.86 276.14,-2642.5"/>
<polygon fill="black" stroke="black" points="275.95,-2646.01 286.35,-2644 276.96,-2639.09 275.95,-2646.01"/>
</g>
<!-- prediction_transcript -->
<g id="node26" class="node">
<title>prediction_transcript</title>
<path fill="#3cb371" stroke="black" d="M205.85,-1060.5C205.85,-1060.5 72.85,-1060.5 72.85,-1060.5 66.85,-1060.5 60.85,-1054.5 60.85,-1048.5 60.85,-1048.5 60.85,-971.5 60.85,-971.5 60.85,-965.5 66.85,-959.5 72.85,-959.5 72.85,-959.5 205.85,-959.5 205.85,-959.5 211.85,-959.5 217.85,-965.5 217.85,-971.5 217.85,-971.5 217.85,-1048.5 217.85,-1048.5 217.85,-1054.5 211.85,-1060.5 205.85,-1060.5"/>
<text text-anchor="start" x="73.2" y="-1037.6" font-family="Times,serif" font-size="16.00">prediction_transcript</text>
<polygon fill="white" stroke="transparent" points="71.35,-1009 71.35,-1029 208.35,-1029 208.35,-1009 71.35,-1009"/>
<text text-anchor="start" x="134.6" y="-1015.4" font-family="Times,serif" font-style="italic" font-size="14.00">...</text>
<polygon fill="white" stroke="transparent" points="71.35,-987 71.35,-1007 208.35,-1007 208.35,-987 71.35,-987"/>
<text text-anchor="start" x="100.19" y="-992.4" font-family="Times,serif" font-size="14.00">seq_region_id</text>
<polygon fill="white" stroke="transparent" points="71.35,-965 71.35,-985 208.35,-985 208.35,-965 71.35,-965"/>
<text text-anchor="start" x="134.6" y="-971.4" font-family="Times,serif" font-style="italic" font-size="14.00">...</text>
<polygon fill="black" stroke="black" points="69.35,-1030 69.35,-1030 210.35,-1030 210.35,-1030 69.35,-1030"/>
</g>
<!-- prediction_transcript&#45;&gt;seq_region -->
<g id="edge20" class="edge">
<title>prediction_transcript:e&#45;&gt;seq_region:w</title>
<path fill="none" stroke="black" stroke-dasharray="5,2" d="M209.35,-997C245.85,-997 239.45,-1033.73 248.85,-1069 291.3,-1228.36 266.72,-2388.39 276.85,-2553 279.09,-2589.47 252.15,-2633.86 276.14,-2642.5"/>
<polygon fill="black" stroke="black" points="275.95,-2646.01 286.35,-2644 276.96,-2639.09 275.95,-2646.01"/>
</g>
<!-- protein_align_feature -->
<g id="node27" class="node">
<title>protein_align_feature</title>
<path fill="#808000" stroke="black" d="M207.85,-1813.5C207.85,-1813.5 70.85,-1813.5 70.85,-1813.5 64.85,-1813.5 58.85,-1807.5 58.85,-1801.5 58.85,-1801.5 58.85,-1724.5 58.85,-1724.5 58.85,-1718.5 64.85,-1712.5 70.85,-1712.5 70.85,-1712.5 207.85,-1712.5 207.85,-1712.5 213.85,-1712.5 219.85,-1718.5 219.85,-1724.5 219.85,-1724.5 219.85,-1801.5 219.85,-1801.5 219.85,-1807.5 213.85,-1813.5 207.85,-1813.5"/>
<text text-anchor="start" x="70.99" y="-1790.6" font-family="Times,serif" font-size="16.00">protein_align_feature</text>
<polygon fill="white" stroke="transparent" points="69.35,-1762 69.35,-1782 210.35,-1782 210.35,-1762 69.35,-1762"/>
<text text-anchor="start" x="134.6" y="-1768.4" font-family="Times,serif" font-style="italic" font-size="14.00">...</text>
<polygon fill="white" stroke="transparent" points="69.35,-1740 69.35,-1760 210.35,-1760 210.35,-1740 69.35,-1740"/>
<text text-anchor="start" x="100.19" y="-1745.4" font-family="Times,serif" font-size="14.00">seq_region_id</text>
<polygon fill="white" stroke="transparent" points="69.35,-1718 69.35,-1738 210.35,-1738 210.35,-1718 69.35,-1718"/>
<text text-anchor="start" x="134.6" y="-1724.4" font-family="Times,serif" font-style="italic" font-size="14.00">...</text>
<polygon fill="black" stroke="black" points="67.35,-1783 67.35,-1783 212.35,-1783 212.35,-1783 67.35,-1783"/>
</g>
<!-- protein_align_feature&#45;&gt;seq_region -->
<g id="edge21" class="edge">
<title>protein_align_feature:e&#45;&gt;seq_region:w</title>
<path fill="none" stroke="black" stroke-dasharray="5,2" d="M211.35,-1750C247.43,-1750 239.6,-1787.13 248.85,-1822 290.52,-1979.13 265.29,-2390.85 276.85,-2553 279.45,-2589.44 252.22,-2633.86 276.15,-2642.5"/>
<polygon fill="black" stroke="black" points="275.95,-2646.01 286.35,-2644 276.96,-2639.08 275.95,-2646.01"/>
</g>
<!-- repeat_feature -->
<g id="node28" class="node">
<title>repeat_feature</title>
<path fill="#3cb371" stroke="black" d="M184.85,-941.5C184.85,-941.5 93.85,-941.5 93.85,-941.5 87.85,-941.5 81.85,-935.5 81.85,-929.5 81.85,-929.5 81.85,-852.5 81.85,-852.5 81.85,-846.5 87.85,-840.5 93.85,-840.5 93.85,-840.5 184.85,-840.5 184.85,-840.5 190.85,-840.5 196.85,-846.5 196.85,-852.5 196.85,-852.5 196.85,-929.5 196.85,-929.5 196.85,-935.5 190.85,-941.5 184.85,-941.5"/>
<text text-anchor="start" x="94.1" y="-918.6" font-family="Times,serif" font-size="16.00">repeat_feature</text>
<polygon fill="white" stroke="transparent" points="92.35,-890 92.35,-910 187.35,-910 187.35,-890 92.35,-890"/>
<text text-anchor="start" x="134.6" y="-896.4" font-family="Times,serif" font-style="italic" font-size="14.00">...</text>
<polygon fill="white" stroke="transparent" points="92.35,-868 92.35,-888 187.35,-888 187.35,-868 92.35,-868"/>
<text text-anchor="start" x="100.19" y="-873.4" font-family="Times,serif" font-size="14.00">seq_region_id</text>
<polygon fill="white" stroke="transparent" points="92.35,-846 92.35,-866 187.35,-866 187.35,-846 92.35,-846"/>
<text text-anchor="start" x="134.6" y="-852.4" font-family="Times,serif" font-style="italic" font-size="14.00">...</text>
<polygon fill="black" stroke="black" points="90.35,-911 90.35,-911 189.35,-911 189.35,-911 90.35,-911"/>
</g>
<!-- repeat_feature&#45;&gt;seq_region -->
<g id="edge22" class="edge">
<title>repeat_feature:e&#45;&gt;seq_region:w</title>
<path fill="none" stroke="black" stroke-dasharray="5,2" d="M188.35,-878C230.15,-878 234.2,-910.85 248.85,-950 280.07,-1033.42 271.44,-2464.1 276.85,-2553 279.07,-2589.47 252.14,-2633.86 276.14,-2642.5"/>
<polygon fill="black" stroke="black" points="275.95,-2646.01 286.35,-2644 276.96,-2639.09 275.95,-2646.01"/>
</g>
<!-- seq_region_mapping -->
<g id="node29" class="node">
<title>seq_region_mapping</title>
<path fill="#ff6666" stroke="black" d="M206.35,-149.5C206.35,-149.5 72.35,-149.5 72.35,-149.5 66.35,-149.5 60.35,-143.5 60.35,-137.5 60.35,-137.5 60.35,-60.5 60.35,-60.5 60.35,-54.5 66.35,-48.5 72.35,-48.5 72.35,-48.5 206.35,-48.5 206.35,-48.5 212.35,-48.5 218.35,-54.5 218.35,-60.5 218.35,-60.5 218.35,-137.5 218.35,-137.5 218.35,-143.5 212.35,-149.5 206.35,-149.5"/>
<text text-anchor="start" x="72.25" y="-126.6" font-family="Times,serif" font-size="16.00">seq_region_mapping</text>
<polygon fill="white" stroke="transparent" points="70.35,-98 70.35,-118 208.35,-118 208.35,-98 70.35,-98"/>
<text text-anchor="start" x="134.1" y="-104.4" font-family="Times,serif" font-style="italic" font-size="14.00">...</text>
<polygon fill="white" stroke="transparent" points="70.35,-76 70.35,-96 208.35,-96 208.35,-76 70.35,-76"/>
<text text-anchor="start" x="74.81" y="-81.4" font-family="Times,serif" font-size="14.00">internal_seq_region_id</text>
<polygon fill="white" stroke="transparent" points="70.35,-54 70.35,-74 208.35,-74 208.35,-54 70.35,-54"/>
<text text-anchor="start" x="134.1" y="-60.4" font-family="Times,serif" font-style="italic" font-size="14.00">...</text>
<polygon fill="black" stroke="black" points="68.35,-119 68.35,-119 210.35,-119 210.35,-119 68.35,-119"/>
</g>
<!-- seq_region_mapping&#45;&gt;seq_region -->
<g id="edge26" class="edge">
<title>seq_region_mapping:e&#45;&gt;seq_region:w</title>
<path fill="none" stroke="black" stroke-dasharray="5,2" d="M209.35,-86C260.46,-86 239.64,-143.73 248.85,-194 254.75,-226.23 252.5,-2467.93 282.71,-2634.26"/>
<polygon fill="black" stroke="black" points="279.57,-2635.86 286.35,-2644 286.13,-2633.41 279.57,-2635.86"/>
</g>
<!-- simple_feature -->
<g id="node30" class="node">
<title>simple_feature</title>
<path fill="#3cb371" stroke="black" d="M186.85,-822.5C186.85,-822.5 91.85,-822.5 91.85,-822.5 85.85,-822.5 79.85,-816.5 79.85,-810.5 79.85,-810.5 79.85,-733.5 79.85,-733.5 79.85,-727.5 85.85,-721.5 91.85,-721.5 91.85,-721.5 186.85,-721.5 186.85,-721.5 192.85,-721.5 198.85,-727.5 198.85,-733.5 198.85,-733.5 198.85,-810.5 198.85,-810.5 198.85,-816.5 192.85,-822.5 186.85,-822.5"/>
<text text-anchor="start" x="92.31" y="-799.6" font-family="Times,serif" font-size="16.00">simple_feature</text>
<polygon fill="white" stroke="transparent" points="90.35,-771 90.35,-791 189.35,-791 189.35,-771 90.35,-771"/>
<text text-anchor="start" x="134.6" y="-777.4" font-family="Times,serif" font-style="italic" font-size="14.00">...</text>
<polygon fill="white" stroke="transparent" points="90.35,-749 90.35,-769 189.35,-769 189.35,-749 90.35,-749"/>
<text text-anchor="start" x="100.19" y="-754.4" font-family="Times,serif" font-size="14.00">seq_region_id</text>
<polygon fill="white" stroke="transparent" points="90.35,-727 90.35,-747 189.35,-747 189.35,-727 90.35,-727"/>
<text text-anchor="start" x="134.6" y="-733.4" font-family="Times,serif" font-style="italic" font-size="14.00">...</text>
<polygon fill="black" stroke="black" points="88.35,-792 88.35,-792 191.35,-792 191.35,-792 88.35,-792"/>
</g>
<!-- simple_feature&#45;&gt;seq_region -->
<g id="edge28" class="edge">
<title>simple_feature:e&#45;&gt;seq_region:w</title>
<path fill="none" stroke="black" stroke-dasharray="5,2" d="M190.35,-759C231.58,-759 234.74,-792.26 248.85,-831 281.59,-920.9 271.1,-2457.49 276.85,-2553 279.04,-2589.47 252.14,-2633.86 276.14,-2642.5"/>
<polygon fill="black" stroke="black" points="275.95,-2646.01 286.35,-2644 276.96,-2639.09 275.95,-2646.01"/>
</g>
<!-- transcript -->
<g id="node31" class="node">
<title>transcript</title>
<path fill="#808000" stroke="black" d="M178.85,-1694.5C178.85,-1694.5 99.85,-1694.5 99.85,-1694.5 93.85,-1694.5 87.85,-1688.5 87.85,-1682.5 87.85,-1682.5 87.85,-1605.5 87.85,-1605.5 87.85,-1599.5 93.85,-1593.5 99.85,-1593.5 99.85,-1593.5 178.85,-1593.5 178.85,-1593.5 184.85,-1593.5 190.85,-1599.5 190.85,-1605.5 190.85,-1605.5 190.85,-1682.5 190.85,-1682.5 190.85,-1688.5 184.85,-1694.5 178.85,-1694.5"/>
<text text-anchor="start" x="109.64" y="-1671.6" font-family="Times,serif" font-size="16.00">transcript</text>
<polygon fill="white" stroke="transparent" points="98.35,-1643 98.35,-1663 181.35,-1663 181.35,-1643 98.35,-1643"/>
<text text-anchor="start" x="134.6" y="-1649.4" font-family="Times,serif" font-style="italic" font-size="14.00">...</text>
<polygon fill="white" stroke="transparent" points="98.35,-1621 98.35,-1641 181.35,-1641 181.35,-1621 98.35,-1621"/>
<text text-anchor="start" x="100.19" y="-1626.4" font-family="Times,serif" font-size="14.00">seq_region_id</text>
<polygon fill="white" stroke="transparent" points="98.35,-1599 98.35,-1619 181.35,-1619 181.35,-1599 98.35,-1599"/>
<text text-anchor="start" x="134.6" y="-1605.4" font-family="Times,serif" font-style="italic" font-size="14.00">...</text>
<polygon fill="black" stroke="black" points="96.35,-1664 96.35,-1664 183.35,-1664 183.35,-1664 96.35,-1664"/>
</g>
<!-- transcript&#45;&gt;seq_region -->
<g id="edge29" class="edge">
<title>transcript:e&#45;&gt;seq_region:w</title>
<path fill="none" stroke="black" stroke-dasharray="5,2" d="M182.35,-1631C344.51,-1631 206.02,-1520.24 276.85,-2553 279.35,-2589.45 252.2,-2633.86 276.15,-2642.5"/>
<polygon fill="black" stroke="black" points="275.95,-2646.01 286.35,-2644 276.96,-2639.08 275.95,-2646.01"/>
</g>
</g>
</svg>
