<?xml version="1.0" encoding="UTF-8" standalone="no"?>
<!DOCTYPE svg PUBLIC "-//W3C//DTD SVG 1.1//EN"
 "http://www.w3.org/Graphics/SVG/1.1/DTD/svg11.dtd">
<!-- Generated by graphviz version 2.43.0 (0)
 -->
<!-- Title: test Pages: 1 -->
<svg width="951pt" height="1700pt"
 viewBox="0.00 0.00 951.00 1700.00" xmlns="http://www.w3.org/2000/svg" xmlns:xlink="http://www.w3.org/1999/xlink">
<g id="graph0" class="graph" transform="scale(1 1) rotate(0) translate(4 1696)">
<title>test</title>
<polygon fill="white" stroke="transparent" points="-4,4 -4,-1696 947,-1696 947,4 -4,4"/>
<text text-anchor="middle" x="471.5" y="-10" font-family="Times,serif" font-size="20.00">Core schema diagram: External References tables</text>
<g id="clust1" class="cluster">
<title>cluster_external_references</title>
<path fill="#d2e8ff" stroke="#d2e8ff" d="M20,-629C20,-629 923,-629 923,-629 929,-629 935,-635 935,-641 935,-641 935,-1672 935,-1672 935,-1678 929,-1684 923,-1684 923,-1684 20,-1684 20,-1684 14,-1684 8,-1678 8,-1672 8,-1672 8,-641 8,-641 8,-635 14,-629 20,-629"/>
<text text-anchor="middle" x="471.5" y="-1664" font-family="Times,serif" font-size="20.00">External References</text>
</g>
<g id="clust2" class="cluster">
<title>cluster_fundamental_tables</title>
<polygon fill="white" stroke="white" points="468,-38 468,-621 692,-621 692,-38 468,-38"/>
<text text-anchor="middle" x="580" y="-601" font-family="Times,serif" font-size="20.00">Fundamental Tables</text>
</g>
<!-- associated_group -->
<g id="node1" class="node">
<title>associated_group</title>
<path fill="#1e90ff" stroke="black" d="M428,-1540C428,-1540 251,-1540 251,-1540 245,-1540 239,-1534 239,-1528 239,-1528 239,-1476 239,-1476 239,-1470 245,-1464 251,-1464 251,-1464 428,-1464 428,-1464 434,-1464 440,-1470 440,-1476 440,-1476 440,-1528 440,-1528 440,-1534 434,-1540 428,-1540"/>
<text text-anchor="start" x="267.5" y="-1519.2" font-family="Times,serif" font-size="16.00">associated_group</text>
<polygon fill="white" stroke="transparent" points="249.5,-1491 249.5,-1510 430.5,-1510 430.5,-1491 249.5,-1491"/>
<text text-anchor="start" x="251.5" y="-1497.8" font-family="Times,serif" font-weight="bold" font-size="14.00">PK</text>
<text text-anchor="start" x="274.5" y="-1497.8" font-family="Times,serif" font-size="14.00">  associated_group_id</text>
<polygon fill="white" stroke="transparent" points="249.5,-1470 249.5,-1489 430.5,-1489 430.5,-1470 249.5,-1470"/>
<text text-anchor="start" x="299.5" y="-1475.8" font-family="Times,serif" font-size="14.00">description</text>
<polygon fill="black" stroke="black" points="247.5,-1511 247.5,-1511 432.5,-1511 432.5,-1511 247.5,-1511"/>
</g>
<!-- associated_xref -->
<g id="node2" class="node">
<title>associated_xref</title>
<path fill="#1e90ff" stroke="black" d="M191,-1645.5C191,-1645.5 28,-1645.5 28,-1645.5 22,-1645.5 16,-1639.5 16,-1633.5 16,-1633.5 16,-1476.5 16,-1476.5 16,-1470.5 22,-1464.5 28,-1464.5 28,-1464.5 191,-1464.5 191,-1464.5 197,-1464.5 203,-1470.5 203,-1476.5 203,-1476.5 203,-1633.5 203,-1633.5 203,-1639.5 197,-1645.5 191,-1645.5"/>
<text text-anchor="start" x="46" y="-1624.2" font-family="Times,serif" font-size="16.00">associated_xref</text>
<polygon fill="white" stroke="transparent" points="26.5,-1596 26.5,-1615 193.5,-1615 193.5,-1596 26.5,-1596"/>
<text text-anchor="start" x="28.5" y="-1602.8" font-family="Times,serif" font-weight="bold" font-size="14.00">PK</text>
<text text-anchor="start" x="51.5" y="-1602.8" font-family="Times,serif" font-size="14.00">  associated_xref_id</text>
<polygon fill="white" stroke="transparent" points="26.5,-1575 26.5,-1594 193.5,-1594 193.5,-1575 26.5,-1575"/>
<text text-anchor="start" x="60" y="-1580.8" font-family="Times,serif" font-size="14.00">object_xref_id</text>
<polygon fill="white" stroke="transparent" points="26.5,-1554 26.5,-1573 193.5,-1573 193.5,-1554 26.5,-1554"/>
<text text-anchor="start" x="85.5" y="-1559.8" font-family="Times,serif" font-size="14.00">xref_id</text>
<polygon fill="white" stroke="transparent" points="26.5,-1533 26.5,-1552 193.5,-1552 193.5,-1533 26.5,-1533"/>
<text text-anchor="start" x="58.5" y="-1538.8" font-family="Times,serif" font-size="14.00">source_xref_id</text>
<polygon fill="white" stroke="transparent" points="26.5,-1512 26.5,-1531 193.5,-1531 193.5,-1512 26.5,-1512"/>
<text text-anchor="start" x="57.5" y="-1517.8" font-family="Times,serif" font-size="14.00">condition_type</text>
<polygon fill="white" stroke="transparent" points="26.5,-1491 26.5,-1510 193.5,-1510 193.5,-1491 26.5,-1491"/>
<text text-anchor="start" x="37.5" y="-1496.8" font-family="Times,serif" font-size="14.00">associated_group_id</text>
<polygon fill="white" stroke="transparent" points="26.5,-1470 26.5,-1489 193.5,-1489 193.5,-1470 26.5,-1470"/>
<text text-anchor="start" x="93.5" y="-1475.8" font-family="Times,serif" font-size="14.00">rank</text>
<polygon fill="black" stroke="black" points="24.5,-1616 24.5,-1616 195.5,-1616 195.5,-1616 24.5,-1616"/>
</g>
<!-- associated_xref&#45;&gt;associated_group -->
<g id="edge1" class="edge">
<title>associated_xref:e&#45;&gt;associated_group:w</title>
<path fill="none" stroke="black" stroke-dasharray="5,2" d="M194.5,-1500C214.75,-1500 222.19,-1500 238.43,-1500"/>
<polygon fill="black" stroke="black" points="238.5,-1503.5 248.5,-1500 238.5,-1496.5 238.5,-1503.5"/>
</g>
<!-- object_xref -->
<g id="node9" class="node">
<title>object_xref</title>
<path fill="#1e90ff" stroke="black" d="M414,-903C414,-903 265,-903 265,-903 259,-903 253,-897 253,-891 253,-891 253,-755 253,-755 253,-749 259,-743 265,-743 265,-743 414,-743 414,-743 420,-743 426,-749 426,-755 426,-755 426,-891 426,-891 426,-897 420,-903 414,-903"/>
<text text-anchor="start" x="294" y="-882.2" font-family="Times,serif" font-size="16.00">object_xref</text>
<polygon fill="white" stroke="transparent" points="263.5,-854 263.5,-873 416.5,-873 416.5,-854 263.5,-854"/>
<text text-anchor="start" x="274" y="-860.8" font-family="Times,serif" font-weight="bold" font-size="14.00">PK</text>
<text text-anchor="start" x="297" y="-860.8" font-family="Times,serif" font-size="14.00">  object_xref_id</text>
<polygon fill="white" stroke="transparent" points="263.5,-833 263.5,-852 416.5,-852 416.5,-833 263.5,-833"/>
<text text-anchor="start" x="299.5" y="-838.8" font-family="Times,serif" font-size="14.00">ensembl_id</text>
<polygon fill="white" stroke="transparent" points="263.5,-812 263.5,-831 416.5,-831 416.5,-812 263.5,-812"/>
<text text-anchor="start" x="265.5" y="-817.8" font-family="Times,serif" font-size="14.00">ensembl_object_type</text>
<polygon fill="white" stroke="transparent" points="263.5,-791 263.5,-810 416.5,-810 416.5,-791 263.5,-791"/>
<text text-anchor="start" x="315.5" y="-796.8" font-family="Times,serif" font-size="14.00">xref_id</text>
<polygon fill="white" stroke="transparent" points="263.5,-770 263.5,-789 416.5,-789 416.5,-770 263.5,-770"/>
<text text-anchor="start" x="272" y="-775.8" font-family="Times,serif" font-size="14.00">linkage_annotation</text>
<polygon fill="white" stroke="transparent" points="263.5,-749 263.5,-768 416.5,-768 416.5,-749 263.5,-749"/>
<text text-anchor="start" x="300.5" y="-754.8" font-family="Times,serif" font-size="14.00">analysis_id</text>
<polygon fill="black" stroke="black" points="261.5,-874 261.5,-874 418.5,-874 418.5,-874 261.5,-874"/>
</g>
<!-- associated_xref&#45;&gt;object_xref -->
<g id="edge2" class="edge">
<title>associated_xref:e&#45;&gt;object_xref:w</title>
<path fill="none" stroke="black" stroke-dasharray="5,2" d="M194.5,-1585C271.51,-1585 189.7,-924.63 253.06,-867.88"/>
<polygon fill="black" stroke="black" points="254.58,-871.04 262.5,-864 251.92,-864.56 254.58,-871.04"/>
</g>
<!-- xref -->
<g id="node13" class="node">
<title>xref</title>
<path fill="#1e90ff" stroke="black" d="M633,-839C633,-839 527,-839 527,-839 521,-839 515,-833 515,-827 515,-827 515,-649 515,-649 515,-643 521,-637 527,-637 527,-637 633,-637 633,-637 639,-637 645,-643 645,-649 645,-649 645,-827 645,-827 645,-833 639,-839 633,-839"/>
<text text-anchor="start" x="563.5" y="-818.2" font-family="Times,serif" font-size="16.00">xref</text>
<polygon fill="white" stroke="transparent" points="525,-790 525,-809 635,-809 635,-790 525,-790"/>
<text text-anchor="start" x="539.5" y="-796.8" font-family="Times,serif" font-weight="bold" font-size="14.00">PK</text>
<text text-anchor="start" x="562.5" y="-796.8" font-family="Times,serif" font-size="14.00">  xref_id</text>
<polygon fill="white" stroke="transparent" points="525,-769 525,-788 635,-788 635,-769 525,-769"/>
<text text-anchor="start" x="527.5" y="-774.8" font-family="Times,serif" font-size="14.00">external_db_id</text>
<polygon fill="white" stroke="transparent" points="525,-748 525,-767 635,-767 635,-748 525,-748"/>
<text text-anchor="start" x="527" y="-753.8" font-family="Times,serif" font-size="14.00">dbprimary_acc</text>
<polygon fill="white" stroke="transparent" points="525,-727 525,-746 635,-746 635,-727 525,-727"/>
<text text-anchor="start" x="533.5" y="-732.8" font-family="Times,serif" font-size="14.00">display_label</text>
<polygon fill="white" stroke="transparent" points="525,-706 525,-725 635,-725 635,-706 525,-706"/>
<text text-anchor="start" x="553.5" y="-711.8" font-family="Times,serif" font-size="14.00">version</text>
<polygon fill="white" stroke="transparent" points="525,-685 525,-704 635,-704 635,-685 525,-685"/>
<text text-anchor="start" x="539.5" y="-690.8" font-family="Times,serif" font-size="14.00">description</text>
<polygon fill="white" stroke="transparent" points="525,-664 525,-683 635,-683 635,-664 525,-664"/>
<text text-anchor="start" x="547" y="-669.8" font-family="Times,serif" font-size="14.00">info_type</text>
<polygon fill="white" stroke="transparent" points="525,-643 525,-662 635,-662 635,-643 525,-643"/>
<text text-anchor="start" x="548.5" y="-648.8" font-family="Times,serif" font-size="14.00">info_text</text>
<polygon fill="black" stroke="black" points="523,-810 523,-810 637,-810 637,-810 523,-810"/>
</g>
<!-- associated_xref&#45;&gt;xref -->
<g id="edge3" class="edge">
<title>associated_xref:e&#45;&gt;xref:w</title>
<path fill="none" stroke="black" stroke-dasharray="5,2" d="M194.5,-1564C303.81,-1564 363.52,-1627.11 440,-1549 494.46,-1493.38 434.42,-919.23 468,-849 480.7,-822.43 488.97,-804.32 513.99,-800.68"/>
<polygon fill="black" stroke="black" points="514.26,-804.17 524,-800 513.79,-797.18 514.26,-804.17"/>
</g>
<!-- biotype -->
<g id="node3" class="node">
<title>biotype</title>
<path fill="#1e90ff" stroke="black" d="M162.5,-1446.5C162.5,-1446.5 56.5,-1446.5 56.5,-1446.5 50.5,-1446.5 44.5,-1440.5 44.5,-1434.5 44.5,-1434.5 44.5,-1235.5 44.5,-1235.5 44.5,-1229.5 50.5,-1223.5 56.5,-1223.5 56.5,-1223.5 162.5,-1223.5 162.5,-1223.5 168.5,-1223.5 174.5,-1229.5 174.5,-1235.5 174.5,-1235.5 174.5,-1434.5 174.5,-1434.5 174.5,-1440.5 168.5,-1446.5 162.5,-1446.5"/>
<text text-anchor="start" x="78.5" y="-1425.2" font-family="Times,serif" font-size="16.00">biotype</text>
<polygon fill="white" stroke="transparent" points="54.5,-1397 54.5,-1416 164.5,-1416 164.5,-1397 54.5,-1397"/>
<text text-anchor="start" x="56.5" y="-1403.8" font-family="Times,serif" font-weight="bold" font-size="14.00">PK</text>
<text text-anchor="start" x="79.5" y="-1403.8" font-family="Times,serif" font-size="14.00">  biotype_id</text>
<polygon fill="white" stroke="transparent" points="54.5,-1376 54.5,-1395 164.5,-1395 164.5,-1376 54.5,-1376"/>
<text text-anchor="start" x="89.5" y="-1381.8" font-family="Times,serif" font-size="14.00">name</text>
<polygon fill="white" stroke="transparent" points="54.5,-1355 54.5,-1374 164.5,-1374 164.5,-1355 54.5,-1355"/>
<text text-anchor="start" x="68.5" y="-1360.8" font-family="Times,serif" font-size="14.00">object_type</text>
<polygon fill="white" stroke="transparent" points="54.5,-1334 54.5,-1353 164.5,-1353 164.5,-1334 54.5,-1334"/>
<text text-anchor="start" x="81" y="-1339.8" font-family="Times,serif" font-size="14.00">db_type</text>
<polygon fill="white" stroke="transparent" points="54.5,-1313 54.5,-1332 164.5,-1332 164.5,-1313 54.5,-1313"/>
<text text-anchor="start" x="59.5" y="-1318.8" font-family="Times,serif" font-size="14.00">attrib_type_id</text>
<polygon fill="white" stroke="transparent" points="54.5,-1292 54.5,-1311 164.5,-1311 164.5,-1292 54.5,-1292"/>
<text text-anchor="start" x="69" y="-1297.8" font-family="Times,serif" font-size="14.00">description</text>
<polygon fill="white" stroke="transparent" points="54.5,-1271 54.5,-1290 164.5,-1290 164.5,-1271 54.5,-1271"/>
<text text-anchor="start" x="58" y="-1276.8" font-family="Times,serif" font-size="14.00">biotype_group</text>
<polygon fill="white" stroke="transparent" points="54.5,-1250 54.5,-1269 164.5,-1269 164.5,-1250 54.5,-1250"/>
<text text-anchor="start" x="86.5" y="-1255.8" font-family="Times,serif" font-size="14.00">so_acc</text>
<polygon fill="white" stroke="transparent" points="54.5,-1229 54.5,-1248 164.5,-1248 164.5,-1229 54.5,-1229"/>
<text text-anchor="start" x="80.5" y="-1234.8" font-family="Times,serif" font-size="14.00">so_term</text>
<polygon fill="black" stroke="black" points="52.5,-1417 52.5,-1417 166.5,-1417 166.5,-1417 52.5,-1417"/>
</g>
<!-- dependent_xref -->
<g id="node4" class="node">
<title>dependent_xref</title>
<path fill="#1e90ff" stroke="black" d="M175.5,-1205.5C175.5,-1205.5 43.5,-1205.5 43.5,-1205.5 37.5,-1205.5 31.5,-1199.5 31.5,-1193.5 31.5,-1193.5 31.5,-1120.5 31.5,-1120.5 31.5,-1114.5 37.5,-1108.5 43.5,-1108.5 43.5,-1108.5 175.5,-1108.5 175.5,-1108.5 181.5,-1108.5 187.5,-1114.5 187.5,-1120.5 187.5,-1120.5 187.5,-1193.5 187.5,-1193.5 187.5,-1199.5 181.5,-1205.5 175.5,-1205.5"/>
<text text-anchor="start" x="44.5" y="-1184.2" font-family="Times,serif" font-size="16.00">dependent_xref</text>
<polygon fill="white" stroke="transparent" points="41.5,-1156 41.5,-1175 177.5,-1175 177.5,-1156 41.5,-1156"/>
<text text-anchor="start" x="43.5" y="-1162.8" font-family="Times,serif" font-weight="bold" font-size="14.00">PK</text>
<text text-anchor="start" x="66.5" y="-1162.8" font-family="Times,serif" font-size="14.00">  object_xref_id</text>
<polygon fill="white" stroke="transparent" points="41.5,-1135 41.5,-1154 177.5,-1154 177.5,-1135 41.5,-1135"/>
<text text-anchor="start" x="56.5" y="-1140.8" font-family="Times,serif" font-size="14.00">master_xref_id</text>
<polygon fill="white" stroke="transparent" points="41.5,-1114 41.5,-1133 177.5,-1133 177.5,-1114 41.5,-1114"/>
<text text-anchor="start" x="43.5" y="-1119.8" font-family="Times,serif" font-size="14.00">dependent_xref_id</text>
<polygon fill="black" stroke="black" points="39.5,-1176 39.5,-1176 179.5,-1176 179.5,-1176 39.5,-1176"/>
</g>
<!-- dependent_xref&#45;&gt;object_xref -->
<g id="edge4" class="edge">
<title>dependent_xref:e&#45;&gt;object_xref:w</title>
<path fill="none" stroke="black" stroke-dasharray="5,2" d="M178.5,-1166C314.14,-1166 133.21,-879.72 252.16,-864.62"/>
<polygon fill="black" stroke="black" points="252.73,-868.09 262.5,-864 252.31,-861.1 252.73,-868.09"/>
</g>
<!-- dependent_xref&#45;&gt;xref -->
<g id="edge5" class="edge">
<title>dependent_xref:e&#45;&gt;xref:w</title>
<path fill="none" stroke="black" stroke-dasharray="5,2" d="M178.5,-1144C309.91,-1144 362.49,-1112.12 440,-1006 481.81,-948.76 433.14,-910.71 468,-849 482.42,-823.47 489.3,-804.69 513.73,-800.76"/>
<polygon fill="black" stroke="black" points="514.29,-804.23 524,-800 513.77,-797.25 514.29,-804.23"/>
</g>
<!-- external_db -->
<g id="node5" class="node">
<title>external_db</title>
<path fill="#1e90ff" stroke="black" d="M895.5,-881C895.5,-881 751.5,-881 751.5,-881 745.5,-881 739.5,-875 739.5,-869 739.5,-869 739.5,-649 739.5,-649 739.5,-643 745.5,-637 751.5,-637 751.5,-637 895.5,-637 895.5,-637 901.5,-637 907.5,-643 907.5,-649 907.5,-649 907.5,-869 907.5,-869 907.5,-875 901.5,-881 895.5,-881"/>
<text text-anchor="start" x="774.5" y="-860.2" font-family="Times,serif" font-size="16.00">external_db</text>
<polygon fill="white" stroke="transparent" points="749.5,-832 749.5,-851 897.5,-851 897.5,-832 749.5,-832"/>
<text text-anchor="start" x="755" y="-838.8" font-family="Times,serif" font-weight="bold" font-size="14.00">PK</text>
<text text-anchor="start" x="778" y="-838.8" font-family="Times,serif" font-size="14.00">  external_db_id</text>
<polygon fill="white" stroke="transparent" points="749.5,-811 749.5,-830 897.5,-830 897.5,-811 749.5,-811"/>
<text text-anchor="start" x="791.5" y="-816.8" font-family="Times,serif" font-size="14.00">db_name</text>
<polygon fill="white" stroke="transparent" points="749.5,-790 749.5,-809 897.5,-809 897.5,-790 749.5,-790"/>
<text text-anchor="start" x="785" y="-795.8" font-family="Times,serif" font-size="14.00">db_release</text>
<polygon fill="white" stroke="transparent" points="749.5,-769 749.5,-788 897.5,-788 897.5,-769 749.5,-769"/>
<text text-anchor="start" x="801" y="-774.8" font-family="Times,serif" font-size="14.00">status</text>
<polygon fill="white" stroke="transparent" points="749.5,-748 749.5,-767 897.5,-767 897.5,-748 749.5,-748"/>
<text text-anchor="start" x="796" y="-753.8" font-family="Times,serif" font-size="14.00">priority</text>
<polygon fill="white" stroke="transparent" points="749.5,-727 749.5,-746 897.5,-746 897.5,-727 749.5,-727"/>
<text text-anchor="start" x="762.5" y="-732.8" font-family="Times,serif" font-size="14.00">db_display_name</text>
<polygon fill="white" stroke="transparent" points="749.5,-706 749.5,-725 897.5,-725 897.5,-706 749.5,-706"/>
<text text-anchor="start" x="807.5" y="-711.8" font-family="Times,serif" font-size="14.00">type</text>
<polygon fill="white" stroke="transparent" points="749.5,-685 749.5,-704 897.5,-704 897.5,-685 749.5,-685"/>
<text text-anchor="start" x="751.5" y="-690.8" font-family="Times,serif" font-size="14.00">secondary_db_name</text>
<polygon fill="white" stroke="transparent" points="749.5,-664 749.5,-683 897.5,-683 897.5,-664 749.5,-664"/>
<text text-anchor="start" x="753" y="-669.8" font-family="Times,serif" font-size="14.00">secondary_db_table</text>
<polygon fill="white" stroke="transparent" points="749.5,-643 749.5,-662 897.5,-662 897.5,-643 749.5,-643"/>
<text text-anchor="start" x="783" y="-648.8" font-family="Times,serif" font-size="14.00">description</text>
<polygon fill="black" stroke="black" points="747.5,-852 747.5,-852 899.5,-852 899.5,-852 747.5,-852"/>
</g>
<!-- external_synonym -->
<g id="node6" class="node">
<title>external_synonym</title>
<path fill="#1e90ff" stroke="black" d="M414,-997C414,-997 265,-997 265,-997 259,-997 253,-991 253,-985 253,-985 253,-933 253,-933 253,-927 259,-921 265,-921 265,-921 414,-921 414,-921 420,-921 426,-927 426,-933 426,-933 426,-985 426,-985 426,-991 420,-997 414,-997"/>
<text text-anchor="start" x="265.5" y="-976.2" font-family="Times,serif" font-size="16.00">external_synonym</text>
<polygon fill="white" stroke="transparent" points="263.5,-948 263.5,-967 416.5,-967 416.5,-948 263.5,-948"/>
<text text-anchor="start" x="299.5" y="-954.8" font-family="Times,serif" font-weight="bold" font-size="14.00">PK</text>
<text text-anchor="start" x="322.5" y="-954.8" font-family="Times,serif" font-size="14.00">  xref_id</text>
<polygon fill="white" stroke="transparent" points="263.5,-927 263.5,-946 416.5,-946 416.5,-927 263.5,-927"/>
<text text-anchor="start" x="292" y="-933.8" font-family="Times,serif" font-weight="bold" font-size="14.00">PK</text>
<text text-anchor="start" x="315" y="-933.8" font-family="Times,serif" font-size="14.00">  synonym</text>
<polygon fill="black" stroke="black" points="261.5,-968 261.5,-968 418.5,-968 418.5,-968 261.5,-968"/>
</g>
<!-- external_synonym&#45;&gt;xref -->
<g id="edge7" class="edge">
<title>external_synonym:e&#45;&gt;xref:w</title>
<path fill="none" stroke="black" stroke-dasharray="5,2" d="M417.5,-957C439.86,-957 430.46,-932.22 440,-912 465,-859.03 462.23,-806.53 513.73,-800.56"/>
<polygon fill="black" stroke="black" points="514.21,-804.04 524,-800 513.82,-797.05 514.21,-804.04"/>
</g>
<!-- identity_xref -->
<g id="node7" class="node">
<title>identity_xref</title>
<path fill="#1e90ff" stroke="black" d="M175.5,-1090C175.5,-1090 43.5,-1090 43.5,-1090 37.5,-1090 31.5,-1084 31.5,-1078 31.5,-1078 31.5,-858 31.5,-858 31.5,-852 37.5,-846 43.5,-846 43.5,-846 175.5,-846 175.5,-846 181.5,-846 187.5,-852 187.5,-858 187.5,-858 187.5,-1078 187.5,-1078 187.5,-1084 181.5,-1090 175.5,-1090"/>
<text text-anchor="start" x="57" y="-1069.2" font-family="Times,serif" font-size="16.00">identity_xref</text>
<polygon fill="white" stroke="transparent" points="41.5,-1041 41.5,-1060 177.5,-1060 177.5,-1041 41.5,-1041"/>
<text text-anchor="start" x="43.5" y="-1047.8" font-family="Times,serif" font-weight="bold" font-size="14.00">PK</text>
<text text-anchor="start" x="66.5" y="-1047.8" font-family="Times,serif" font-size="14.00">  object_xref_id</text>
<polygon fill="white" stroke="transparent" points="41.5,-1020 41.5,-1039 177.5,-1039 177.5,-1020 41.5,-1020"/>
<text text-anchor="start" x="64" y="-1025.8" font-family="Times,serif" font-size="14.00">xref_identity</text>
<polygon fill="white" stroke="transparent" points="41.5,-999 41.5,-1018 177.5,-1018 177.5,-999 41.5,-999"/>
<text text-anchor="start" x="48" y="-1004.8" font-family="Times,serif" font-size="14.00">ensembl_identity</text>
<polygon fill="white" stroke="transparent" points="41.5,-978 41.5,-997 177.5,-997 177.5,-978 41.5,-978"/>
<text text-anchor="start" x="74.5" y="-983.8" font-family="Times,serif" font-size="14.00">xref_start</text>
<polygon fill="white" stroke="transparent" points="41.5,-957 41.5,-976 177.5,-976 177.5,-957 41.5,-957"/>
<text text-anchor="start" x="78.5" y="-962.8" font-family="Times,serif" font-size="14.00">xref_end</text>
<polygon fill="white" stroke="transparent" points="41.5,-936 41.5,-955 177.5,-955 177.5,-936 41.5,-936"/>
<text text-anchor="start" x="58.5" y="-941.8" font-family="Times,serif" font-size="14.00">ensembl_start</text>
<polygon fill="white" stroke="transparent" points="41.5,-915 41.5,-934 177.5,-934 177.5,-915 41.5,-915"/>
<text text-anchor="start" x="62.5" y="-920.8" font-family="Times,serif" font-size="14.00">ensembl_end</text>
<polygon fill="white" stroke="transparent" points="41.5,-894 41.5,-913 177.5,-913 177.5,-894 41.5,-894"/>
<text text-anchor="start" x="74.5" y="-899.8" font-family="Times,serif" font-size="14.00">cigar_line</text>
<polygon fill="white" stroke="transparent" points="41.5,-873 41.5,-892 177.5,-892 177.5,-873 41.5,-873"/>
<text text-anchor="start" x="90" y="-878.8" font-family="Times,serif" font-size="14.00">score</text>
<polygon fill="white" stroke="transparent" points="41.5,-852 41.5,-871 177.5,-871 177.5,-852 41.5,-852"/>
<text text-anchor="start" x="86" y="-857.8" font-family="Times,serif" font-size="14.00">evalue</text>
<polygon fill="black" stroke="black" points="39.5,-1061 39.5,-1061 179.5,-1061 179.5,-1061 39.5,-1061"/>
</g>
<!-- identity_xref&#45;&gt;object_xref -->
<g id="edge9" class="edge">
<title>identity_xref:e&#45;&gt;object_xref:w</title>
<path fill="none" stroke="black" stroke-dasharray="5,2" d="M178.5,-1051C265.87,-1051 179.13,-879.03 252.22,-864.92"/>
<polygon fill="black" stroke="black" points="252.85,-868.38 262.5,-864 252.23,-861.4 252.85,-868.38"/>
</g>
<!-- interpro -->
<g id="node8" class="node">
<title>interpro</title>
<path fill="#1e90ff" stroke="black" d="M150.5,-828C150.5,-828 68.5,-828 68.5,-828 62.5,-828 56.5,-822 56.5,-816 56.5,-816 56.5,-764 56.5,-764 56.5,-758 62.5,-752 68.5,-752 68.5,-752 150.5,-752 150.5,-752 156.5,-752 162.5,-758 162.5,-764 162.5,-764 162.5,-816 162.5,-816 162.5,-822 156.5,-828 150.5,-828"/>
<text text-anchor="start" x="75.5" y="-807.2" font-family="Times,serif" font-size="16.00">interpro</text>
<polygon fill="white" stroke="transparent" points="66.5,-779 66.5,-798 152.5,-798 152.5,-779 66.5,-779"/>
<text text-anchor="start" x="68.5" y="-784.8" font-family="Times,serif" font-size="14.00">interpro_ac</text>
<polygon fill="white" stroke="transparent" points="66.5,-758 66.5,-777 152.5,-777 152.5,-758 66.5,-758"/>
<text text-anchor="start" x="102.5" y="-763.8" font-family="Times,serif" font-size="14.00">id</text>
<polygon fill="black" stroke="black" points="64.5,-799 64.5,-799 154.5,-799 154.5,-799 64.5,-799"/>
</g>
<!-- object_xref&#45;&gt;xref -->
<g id="edge11" class="edge">
<title>object_xref:e&#45;&gt;xref:w</title>
<path fill="none" stroke="black" stroke-dasharray="5,2" d="M417.5,-800C461.14,-800 474.6,-800 513.52,-800"/>
<polygon fill="black" stroke="black" points="514,-803.5 524,-800 514,-796.5 514,-803.5"/>
</g>
<!-- analysis -->
<g id="node14" class="node">
<title>analysis</title>
<path fill="#808000" stroke="black" d="M635.5,-122C635.5,-122 524.5,-122 524.5,-122 518.5,-122 512.5,-116 512.5,-110 512.5,-110 512.5,-58 512.5,-58 512.5,-52 518.5,-46 524.5,-46 524.5,-46 635.5,-46 635.5,-46 641.5,-46 647.5,-52 647.5,-58 647.5,-58 647.5,-110 647.5,-110 647.5,-116 641.5,-122 635.5,-122"/>
<text text-anchor="start" x="547" y="-101.2" font-family="Times,serif" font-size="16.00">analysis</text>
<polygon fill="white" stroke="transparent" points="523,-73 523,-92 638,-92 638,-73 523,-73"/>
<text text-anchor="start" x="525" y="-79.8" font-family="Times,serif" font-weight="bold" font-size="14.00">PK</text>
<text text-anchor="start" x="548" y="-79.8" font-family="Times,serif" font-size="14.00">  analysis_id</text>
<polygon fill="white" stroke="transparent" points="523,-52 523,-71 638,-71 638,-52 523,-52"/>
<text text-anchor="start" x="573.5" y="-58.8" font-family="Times,serif" font-style="italic" font-size="14.00">...</text>
<polygon fill="black" stroke="black" points="521,-93 521,-93 640,-93 640,-93 521,-93"/>
</g>
<!-- object_xref&#45;&gt;analysis -->
<g id="edge10" class="edge">
<title>object_xref:e&#45;&gt;analysis:w</title>
<path fill="none" stroke="black" stroke-dasharray="5,2" d="M417.5,-758C487.39,-758 437.15,-193.72 468,-131 480.68,-105.21 487.85,-86.63 511.91,-82.75"/>
<polygon fill="black" stroke="black" points="512.29,-86.23 522,-82 511.77,-79.25 512.29,-86.23"/>
</g>
<!-- ontology_xref -->
<g id="node10" class="node">
<title>ontology_xref</title>
<path fill="#1e90ff" stroke="black" d="M165.5,-733.5C165.5,-733.5 53.5,-733.5 53.5,-733.5 47.5,-733.5 41.5,-727.5 41.5,-721.5 41.5,-721.5 41.5,-648.5 41.5,-648.5 41.5,-642.5 47.5,-636.5 53.5,-636.5 53.5,-636.5 165.5,-636.5 165.5,-636.5 171.5,-636.5 177.5,-642.5 177.5,-648.5 177.5,-648.5 177.5,-721.5 177.5,-721.5 177.5,-727.5 171.5,-733.5 165.5,-733.5"/>
<text text-anchor="start" x="53.5" y="-712.2" font-family="Times,serif" font-size="16.00">ontology_xref</text>
<polygon fill="white" stroke="transparent" points="51.5,-684 51.5,-703 167.5,-703 167.5,-684 51.5,-684"/>
<text text-anchor="start" x="59.5" y="-689.8" font-family="Times,serif" font-size="14.00">object_xref_id</text>
<polygon fill="white" stroke="transparent" points="51.5,-663 51.5,-682 167.5,-682 167.5,-663 51.5,-663"/>
<text text-anchor="start" x="58" y="-668.8" font-family="Times,serif" font-size="14.00">source_xref_id</text>
<polygon fill="white" stroke="transparent" points="51.5,-642 51.5,-661 167.5,-661 167.5,-642 51.5,-642"/>
<text text-anchor="start" x="64" y="-647.8" font-family="Times,serif" font-size="14.00">linkage_type</text>
<polygon fill="black" stroke="black" points="49.5,-704 49.5,-704 169.5,-704 169.5,-704 49.5,-704"/>
</g>
<!-- ontology_xref&#45;&gt;object_xref -->
<g id="edge12" class="edge">
<title>ontology_xref:e&#45;&gt;object_xref:w</title>
<path fill="none" stroke="black" stroke-dasharray="5,2" d="M168.5,-694C251.13,-694 182.62,-849.7 252.26,-863.09"/>
<polygon fill="black" stroke="black" points="252.23,-866.6 262.5,-864 252.85,-859.62 252.23,-866.6"/>
</g>
<!-- ontology_xref&#45;&gt;xref -->
<g id="edge13" class="edge">
<title>ontology_xref:e&#45;&gt;xref:w</title>
<path fill="none" stroke="black" stroke-dasharray="5,2" d="M168.5,-672C292.27,-672 328.29,-680.69 440,-734 479.5,-752.85 477.21,-793.04 513.81,-799.2"/>
<polygon fill="black" stroke="black" points="513.76,-802.71 524,-800 514.3,-795.73 513.76,-802.71"/>
</g>
<!-- unmapped_object -->
<g id="node11" class="node">
<title>unmapped_object</title>
<path fill="#1e90ff" stroke="black" d="M669,-1122.5C669,-1122.5 491,-1122.5 491,-1122.5 485,-1122.5 479,-1116.5 479,-1110.5 479,-1110.5 479,-869.5 479,-869.5 479,-863.5 485,-857.5 491,-857.5 491,-857.5 669,-857.5 669,-857.5 675,-857.5 681,-863.5 681,-869.5 681,-869.5 681,-1110.5 681,-1110.5 681,-1116.5 675,-1122.5 669,-1122.5"/>
<text text-anchor="start" x="506.5" y="-1101.2" font-family="Times,serif" font-size="16.00">unmapped_object</text>
<polygon fill="white" stroke="transparent" points="489,-1073 489,-1092 671,-1092 671,-1073 489,-1073"/>
<text text-anchor="start" x="491" y="-1079.8" font-family="Times,serif" font-weight="bold" font-size="14.00">PK</text>
<text text-anchor="start" x="514" y="-1079.8" font-family="Times,serif" font-size="14.00">  unmapped_object_id</text>
<polygon fill="white" stroke="transparent" points="489,-1052 489,-1071 671,-1071 671,-1052 489,-1052"/>
<text text-anchor="start" x="564" y="-1057.8" font-family="Times,serif" font-size="14.00">type</text>
<polygon fill="white" stroke="transparent" points="489,-1031 489,-1050 671,-1050 671,-1031 489,-1031"/>
<text text-anchor="start" x="540.5" y="-1036.8" font-family="Times,serif" font-size="14.00">analysis_id</text>
<polygon fill="white" stroke="transparent" points="489,-1010 489,-1029 671,-1029 671,-1010 489,-1010"/>
<text text-anchor="start" x="527.5" y="-1015.8" font-family="Times,serif" font-size="14.00">external_db_id</text>
<polygon fill="white" stroke="transparent" points="489,-989 489,-1008 671,-1008 671,-989 489,-989"/>
<text text-anchor="start" x="547" y="-994.8" font-family="Times,serif" font-size="14.00">identifier</text>
<polygon fill="white" stroke="transparent" points="489,-968 489,-987 671,-987 671,-968 489,-968"/>
<text text-anchor="start" x="504.5" y="-973.8" font-family="Times,serif" font-size="14.00">unmapped_reason_id</text>
<polygon fill="white" stroke="transparent" points="489,-947 489,-966 671,-966 671,-947 489,-947"/>
<text text-anchor="start" x="536.5" y="-952.8" font-family="Times,serif" font-size="14.00">query_score</text>
<polygon fill="white" stroke="transparent" points="489,-926 489,-945 671,-945 671,-926 489,-926"/>
<text text-anchor="start" x="535" y="-931.8" font-family="Times,serif" font-size="14.00">target_score</text>
<polygon fill="white" stroke="transparent" points="489,-905 489,-924 671,-924 671,-905 489,-905"/>
<text text-anchor="start" x="539.5" y="-910.8" font-family="Times,serif" font-size="14.00">ensembl_id</text>
<polygon fill="white" stroke="transparent" points="489,-884 489,-903 671,-903 671,-884 489,-884"/>
<text text-anchor="start" x="505.5" y="-889.8" font-family="Times,serif" font-size="14.00">ensembl_object_type</text>
<polygon fill="white" stroke="transparent" points="489,-863 489,-882 671,-882 671,-863 489,-863"/>
<text text-anchor="start" x="556" y="-868.8" font-family="Times,serif" font-size="14.00">parent</text>
<polygon fill="black" stroke="black" points="487,-1093 487,-1093 673,-1093 673,-1093 487,-1093"/>
</g>
<!-- unmapped_object&#45;&gt;external_db -->
<g id="edge17" class="edge">
<title>unmapped_object:e&#45;&gt;external_db:w</title>
<path fill="none" stroke="black" stroke-dasharray="5,2" d="M672,-1020C754.41,-1020 670.28,-856.97 738.38,-842.96"/>
<polygon fill="black" stroke="black" points="738.87,-846.43 748.5,-842 738.21,-839.46 738.87,-846.43"/>
</g>
<!-- unmapped_reason -->
<g id="node12" class="node">
<title>unmapped_reason</title>
<path fill="#1e90ff" stroke="black" d="M915,-1016.5C915,-1016.5 732,-1016.5 732,-1016.5 726,-1016.5 720,-1010.5 720,-1004.5 720,-1004.5 720,-931.5 720,-931.5 720,-925.5 726,-919.5 732,-919.5 732,-919.5 915,-919.5 915,-919.5 921,-919.5 927,-925.5 927,-931.5 927,-931.5 927,-1004.5 927,-1004.5 927,-1010.5 921,-1016.5 915,-1016.5"/>
<text text-anchor="start" x="748.5" y="-995.2" font-family="Times,serif" font-size="16.00">unmapped_reason</text>
<polygon fill="white" stroke="transparent" points="730.5,-967 730.5,-986 917.5,-986 917.5,-967 730.5,-967"/>
<text text-anchor="start" x="732.5" y="-973.8" font-family="Times,serif" font-weight="bold" font-size="14.00">PK</text>
<text text-anchor="start" x="755.5" y="-973.8" font-family="Times,serif" font-size="14.00">  unmapped_reason_id</text>
<polygon fill="white" stroke="transparent" points="730.5,-946 730.5,-965 917.5,-965 917.5,-946 730.5,-946"/>
<text text-anchor="start" x="747" y="-951.8" font-family="Times,serif" font-size="14.00">summary_description</text>
<polygon fill="white" stroke="transparent" points="730.5,-925 730.5,-944 917.5,-944 917.5,-925 730.5,-925"/>
<text text-anchor="start" x="768.5" y="-930.8" font-family="Times,serif" font-size="14.00">full_description</text>
<polygon fill="black" stroke="black" points="728.5,-987 728.5,-987 919.5,-987 919.5,-987 728.5,-987"/>
</g>
<!-- unmapped_object&#45;&gt;unmapped_reason -->
<g id="edge18" class="edge">
<title>unmapped_object:e&#45;&gt;unmapped_reason:w</title>
<path fill="none" stroke="black" stroke-dasharray="5,2" d="M672,-977C693.76,-977 701.63,-977 719.26,-977"/>
<polygon fill="black" stroke="black" points="719.5,-980.5 729.5,-977 719.5,-973.5 719.5,-980.5"/>
</g>
<!-- unmapped_object&#45;&gt;analysis -->
<g id="edge16" class="edge">
<title>unmapped_object:e&#45;&gt;analysis:w</title>
<path fill="none" stroke="black" stroke-dasharray="5,2" d="M681,-1041C701.61,-1041 695.32,-870.33 681,-855.5 664.55,-838.46 490.6,-855.07 468,-848 460.94,-845.79 457.54,-845.49 454,-839 435.39,-804.92 437.73,-175.26 454,-140 469.15,-107.17 480.15,-86.05 511.95,-82.53"/>
<polygon fill="black" stroke="black" points="512.2,-86.02 522,-82 511.83,-79.03 512.2,-86.02"/>
</g>
<!-- xref&#45;&gt;external_db -->
<g id="edge19" class="edge">
<title>xref:e&#45;&gt;external_db:w</title>
<path fill="none" stroke="black" stroke-dasharray="5,2" d="M636,-779C689.72,-779 691.23,-834.37 738.42,-841.29"/>
<polygon fill="black" stroke="black" points="738.28,-844.79 748.5,-842 738.77,-837.81 738.28,-844.79"/>
</g>
<!-- dna_align_feature -->
<g id="node15" class="node">
<title>dna_align_feature</title>
<path fill="#808000" stroke="black" d="M654.5,-467.5C654.5,-467.5 505.5,-467.5 505.5,-467.5 499.5,-467.5 493.5,-461.5 493.5,-455.5 493.5,-455.5 493.5,-382.5 493.5,-382.5 493.5,-376.5 499.5,-370.5 505.5,-370.5 505.5,-370.5 654.5,-370.5 654.5,-370.5 660.5,-370.5 666.5,-376.5 666.5,-382.5 666.5,-382.5 666.5,-455.5 666.5,-455.5 666.5,-461.5 660.5,-467.5 654.5,-467.5"/>
<text text-anchor="start" x="506" y="-446.2" font-family="Times,serif" font-size="16.00">dna_align_feature</text>
<polygon fill="white" stroke="transparent" points="504,-418 504,-437 657,-437 657,-418 504,-418"/>
<text text-anchor="start" x="573.5" y="-424.8" font-family="Times,serif" font-style="italic" font-size="14.00">...</text>
<polygon fill="white" stroke="transparent" points="504,-397 504,-416 657,-416 657,-397 504,-397"/>
<text text-anchor="start" x="528" y="-402.8" font-family="Times,serif" font-size="14.00">external_db_id</text>
<polygon fill="white" stroke="transparent" points="504,-376 504,-395 657,-395 657,-376 504,-376"/>
<text text-anchor="start" x="573.5" y="-382.8" font-family="Times,serif" font-style="italic" font-size="14.00">...</text>
<polygon fill="black" stroke="black" points="502,-438 502,-438 659,-438 659,-438 502,-438"/>
</g>
<!-- dna_align_feature&#45;&gt;external_db -->
<g id="edge6" class="edge">
<title>dna_align_feature:e&#45;&gt;external_db:w</title>
<path fill="none" stroke="black" stroke-dasharray="5,2" d="M658,-406C753.28,-406 657.23,-810.24 738.32,-840.24"/>
<polygon fill="black" stroke="black" points="738.05,-843.75 748.5,-842 739.24,-836.85 738.05,-843.75"/>
</g>
<!-- gene -->
<g id="node16" class="node">
<title>gene</title>
<path fill="#808000" stroke="black" d="M633.5,-237.5C633.5,-237.5 526.5,-237.5 526.5,-237.5 520.5,-237.5 514.5,-231.5 514.5,-225.5 514.5,-225.5 514.5,-152.5 514.5,-152.5 514.5,-146.5 520.5,-140.5 526.5,-140.5 526.5,-140.5 633.5,-140.5 633.5,-140.5 639.5,-140.5 645.5,-146.5 645.5,-152.5 645.5,-152.5 645.5,-225.5 645.5,-225.5 645.5,-231.5 639.5,-237.5 633.5,-237.5"/>
<text text-anchor="start" x="560" y="-216.2" font-family="Times,serif" font-size="16.00">gene</text>
<polygon fill="white" stroke="transparent" points="525,-188 525,-207 636,-207 636,-188 525,-188"/>
<text text-anchor="start" x="573.5" y="-194.8" font-family="Times,serif" font-style="italic" font-size="14.00">...</text>
<polygon fill="white" stroke="transparent" points="525,-167 525,-186 636,-186 636,-167 525,-167"/>
<text text-anchor="start" x="527" y="-172.8" font-family="Times,serif" font-size="14.00">display_xref_id</text>
<polygon fill="white" stroke="transparent" points="525,-146 525,-165 636,-165 636,-146 525,-146"/>
<text text-anchor="start" x="573.5" y="-152.8" font-family="Times,serif" font-style="italic" font-size="14.00">...</text>
<polygon fill="black" stroke="black" points="523,-208 523,-208 638,-208 638,-208 523,-208"/>
</g>
<!-- gene&#45;&gt;xref -->
<g id="edge8" class="edge">
<title>gene:e&#45;&gt;xref:w</title>
<path fill="none" stroke="black" stroke-dasharray="5,2" d="M645.5,-176C672.83,-176 664.36,-217.72 645.5,-237.5 631.88,-251.79 486.81,-239.98 468,-246 460.95,-248.25 457.54,-248.51 454,-255 434.78,-290.21 446.75,-576.55 454,-616 469.17,-698.52 439.15,-791.99 513.83,-799.51"/>
<polygon fill="black" stroke="black" points="513.84,-803.02 524,-800 514.18,-796.03 513.84,-803.02"/>
</g>
<!-- protein_align_feature -->
<g id="node17" class="node">
<title>protein_align_feature</title>
<path fill="#808000" stroke="black" d="M669,-582.5C669,-582.5 491,-582.5 491,-582.5 485,-582.5 479,-576.5 479,-570.5 479,-570.5 479,-497.5 479,-497.5 479,-491.5 485,-485.5 491,-485.5 491,-485.5 669,-485.5 669,-485.5 675,-485.5 681,-491.5 681,-497.5 681,-497.5 681,-570.5 681,-570.5 681,-576.5 675,-582.5 669,-582.5"/>
<text text-anchor="start" x="491" y="-561.2" font-family="Times,serif" font-size="16.00">protein_align_feature</text>
<polygon fill="white" stroke="transparent" points="489,-533 489,-552 671,-552 671,-533 489,-533"/>
<text text-anchor="start" x="573" y="-539.8" font-family="Times,serif" font-style="italic" font-size="14.00">...</text>
<polygon fill="white" stroke="transparent" points="489,-512 489,-531 671,-531 671,-512 489,-512"/>
<text text-anchor="start" x="527.5" y="-517.8" font-family="Times,serif" font-size="14.00">external_db_id</text>
<polygon fill="white" stroke="transparent" points="489,-491 489,-510 671,-510 671,-491 489,-491"/>
<text text-anchor="start" x="573" y="-497.8" font-family="Times,serif" font-style="italic" font-size="14.00">...</text>
<polygon fill="black" stroke="black" points="487,-553 487,-553 673,-553 673,-553 487,-553"/>
</g>
<!-- protein_align_feature&#45;&gt;external_db -->
<g id="edge14" class="edge">
<title>protein_align_feature:e&#45;&gt;external_db:w</title>
<path fill="none" stroke="black" stroke-dasharray="5,2" d="M672,-521C815.08,-521 612.21,-826.52 738.4,-841.44"/>
<polygon fill="black" stroke="black" points="738.32,-844.94 748.5,-842 738.71,-837.95 738.32,-844.94"/>
</g>
<!-- transcript -->
<g id="node18" class="node">
<title>transcript</title>
<path fill="#808000" stroke="black" d="M633.5,-352.5C633.5,-352.5 526.5,-352.5 526.5,-352.5 520.5,-352.5 514.5,-346.5 514.5,-340.5 514.5,-340.5 514.5,-267.5 514.5,-267.5 514.5,-261.5 520.5,-255.5 526.5,-255.5 526.5,-255.5 633.5,-255.5 633.5,-255.5 639.5,-255.5 645.5,-261.5 645.5,-267.5 645.5,-267.5 645.5,-340.5 645.5,-340.5 645.5,-346.5 639.5,-352.5 633.5,-352.5"/>
<text text-anchor="start" x="539.5" y="-331.2" font-family="Times,serif" font-size="16.00">transcript</text>
<polygon fill="white" stroke="transparent" points="525,-303 525,-322 636,-322 636,-303 525,-303"/>
<text text-anchor="start" x="573.5" y="-309.8" font-family="Times,serif" font-style="italic" font-size="14.00">...</text>
<polygon fill="white" stroke="transparent" points="525,-282 525,-301 636,-301 636,-282 525,-282"/>
<text text-anchor="start" x="527" y="-287.8" font-family="Times,serif" font-size="14.00">display_xref_id</text>
<polygon fill="white" stroke="transparent" points="525,-261 525,-280 636,-280 636,-261 525,-261"/>
<text text-anchor="start" x="573.5" y="-267.8" font-family="Times,serif" font-style="italic" font-size="14.00">...</text>
<polygon fill="black" stroke="black" points="523,-323 523,-323 638,-323 638,-323 523,-323"/>
</g>
<!-- transcript&#45;&gt;xref -->
<g id="edge15" class="edge">
<title>transcript:e&#45;&gt;xref:w</title>
<path fill="none" stroke="black" stroke-dasharray="5,2" d="M645.5,-291C672.83,-291 664.36,-332.72 645.5,-352.5 631.88,-366.79 486.81,-354.98 468,-361 460.95,-363.25 457.54,-363.51 454,-370 440.9,-393.99 449.06,-589.12 454,-616 469.17,-698.52 439.15,-791.99 513.83,-799.51"/>
<polygon fill="black" stroke="black" points="513.84,-803.02 524,-800 514.18,-796.03 513.84,-803.02"/>
</g>
</g>
</svg>
