<?xml version="1.0" encoding="UTF-8" standalone="no"?>
<!DOCTYPE svg PUBLIC "-//W3C//DTD SVG 1.1//EN"
 "http://www.w3.org/Graphics/SVG/1.1/DTD/svg11.dtd">
<!-- Generated by graphviz version 2.40.1 (20161225.0304)
 -->
<!-- Title: test Pages: 1 -->
<svg width="765pt" height="711pt"
 viewBox="0.00 0.00 765.00 711.00" xmlns="http://www.w3.org/2000/svg" xmlns:xlink="http://www.w3.org/1999/xlink">
<g id="graph0" class="graph" transform="scale(1 1) rotate(0) translate(4 707)">
<title>test</title>
<polygon fill="#ffffff" stroke="transparent" points="-4,4 -4,-707 761,-707 761,4 -4,4"/>
<text text-anchor="middle" x="378.5" y="-10" font-family="Times,serif" font-size="20.00" fill="#000000">Core schema diagram: Misc tables</text>
<g id="clust1" class="cluster">
<title>cluster_assembly_tables</title>
<polygon fill="#ffffff" stroke="#ffffff" points="593,-524 593,-646 745,-646 745,-524 593,-524"/>
<text text-anchor="middle" x="669" y="-626" font-family="Times,serif" font-size="20.00" fill="#000000">Assembly Tables</text>
</g>
<g id="clust3" class="cluster">
<title>cluster_misc</title>
<path fill="#ffe6cc" stroke="#ffe6cc" d="M20,-38C20,-38 549,-38 549,-38 555,-38 561,-44 561,-50 561,-50 561,-683 561,-683 561,-689 555,-695 549,-695 549,-695 20,-695 20,-695 14,-695 8,-689 8,-683 8,-683 8,-50 8,-50 8,-44 14,-38 20,-38"/>
<text text-anchor="middle" x="284.5" y="-675" font-family="Times,serif" font-size="20.00" fill="#000000">Misc</text>
</g>
<g id="clust2" class="cluster">
<title>cluster_fundamental_tables</title>
<polygon fill="#ffffff" stroke="#ffffff" points="581,-226 581,-442 757,-442 757,-226 581,-226"/>
<text text-anchor="middle" x="669" y="-422" font-family="Times,serif" font-size="20.00" fill="#000000">Fundamental Tables</text>
</g>
<!-- operon -->
<g id="node1" class="node">
<title>operon</title>
<path fill="#ff8500" stroke="#000000" d="M541,-601.5C541,-601.5 441,-601.5 441,-601.5 435,-601.5 429,-595.5 429,-589.5 429,-589.5 429,-348.5 429,-348.5 429,-342.5 435,-336.5 441,-336.5 441,-336.5 541,-336.5 541,-336.5 547,-336.5 553,-342.5 553,-348.5 553,-348.5 553,-589.5 553,-589.5 553,-595.5 547,-601.5 541,-601.5"/>
<text text-anchor="start" x="468" y="-580.2" font-family="Times,serif" font-size="16.00" fill="#000000">operon</text>
<polygon fill="#ffffff" stroke="transparent" points="439,-552 439,-571 543,-571 543,-552 439,-552"/>
<text text-anchor="start" x="449.5" y="-558.8" font-family="Times,serif" font-weight="bold" font-size="14.00" fill="#000000">PK</text>
<text text-anchor="start" x="469.5" y="-558.8" font-family="Times,serif" font-size="14.00" fill="#000000">  operon_id</text>
<polygon fill="#ffffff" stroke="transparent" points="439,-531 439,-550 543,-550 543,-531 439,-531"/>
<text text-anchor="start" x="460.5" y="-536.8" font-family="Times,serif" font-size="14.00" fill="#000000">analysis_id</text>
<polygon fill="#ffffff" stroke="transparent" points="439,-510 439,-529 543,-529 543,-510 439,-510"/>
<text text-anchor="start" x="452.5" y="-515.8" font-family="Times,serif" font-size="14.00" fill="#000000">seq_region_id</text>
<polygon fill="#ffffff" stroke="transparent" points="439,-489 439,-508 543,-508 543,-489 439,-489"/>
<text text-anchor="start" x="446" y="-494.8" font-family="Times,serif" font-size="14.00" fill="#000000">seq_region_start</text>
<polygon fill="#ffffff" stroke="transparent" points="439,-468 439,-487 543,-487 543,-468 439,-468"/>
<text text-anchor="start" x="448" y="-473.8" font-family="Times,serif" font-size="14.00" fill="#000000">seq_region_end</text>
<polygon fill="#ffffff" stroke="transparent" points="439,-447 439,-466 543,-466 543,-447 439,-447"/>
<text text-anchor="start" x="441" y="-452.8" font-family="Times,serif" font-size="14.00" fill="#000000">seq_region_strand</text>
<polygon fill="#ffffff" stroke="transparent" points="439,-426 439,-445 543,-445 543,-426 439,-426"/>
<text text-anchor="start" x="454.5" y="-431.8" font-family="Times,serif" font-size="14.00" fill="#000000">display_label</text>
<polygon fill="#ffffff" stroke="transparent" points="439,-405 439,-424 543,-424 543,-405 439,-405"/>
<text text-anchor="start" x="466.5" y="-410.8" font-family="Times,serif" font-size="14.00" fill="#000000">stable_id</text>
<polygon fill="#ffffff" stroke="transparent" points="439,-384 439,-403 543,-403 543,-384 439,-384"/>
<text text-anchor="start" x="471" y="-389.8" font-family="Times,serif" font-size="14.00" fill="#000000">version</text>
<polygon fill="#ffffff" stroke="transparent" points="439,-363 439,-382 543,-382 543,-363 439,-363"/>
<text text-anchor="start" x="456.5" y="-368.8" font-family="Times,serif" font-size="14.00" fill="#000000">created_date</text>
<polygon fill="#ffffff" stroke="transparent" points="439,-342 439,-361 543,-361 543,-342 439,-342"/>
<text text-anchor="start" x="451.5" y="-347.8" font-family="Times,serif" font-size="14.00" fill="#000000">modified_date</text>
<polygon fill="#000000" stroke="#000000" points="437,-572 437,-572 545,-572 545,-572 437,-572"/>
</g>
<!-- analysis -->
<g id="node7" class="node">
<title>analysis</title>
<path fill="#808000" stroke="#000000" d="M713,-404C713,-404 624,-404 624,-404 618,-404 612,-398 612,-392 612,-392 612,-340 612,-340 612,-334 618,-328 624,-328 624,-328 713,-328 713,-328 719,-328 725,-334 725,-340 725,-340 725,-392 725,-392 725,-398 719,-404 713,-404"/>
<text text-anchor="start" x="643" y="-383.2" font-family="Times,serif" font-size="16.00" fill="#000000">analysis</text>
<polygon fill="#ffffff" stroke="transparent" points="622.5,-355 622.5,-374 715.5,-374 715.5,-355 622.5,-355"/>
<text text-anchor="start" x="624.5" y="-361.8" font-family="Times,serif" font-weight="bold" font-size="14.00" fill="#000000">PK</text>
<text text-anchor="start" x="644.5" y="-361.8" font-family="Times,serif" font-size="14.00" fill="#000000">  analysis_id</text>
<polygon fill="#ffffff" stroke="transparent" points="622.5,-334 622.5,-353 715.5,-353 715.5,-334 622.5,-334"/>
<text text-anchor="start" x="663" y="-340.8" font-family="Times,serif" font-style="italic" font-size="14.00" fill="#000000">...</text>
<polygon fill="#000000" stroke="#000000" points="620.5,-375 620.5,-375 717.5,-375 717.5,-375 620.5,-375"/>
</g>
<!-- operon&#45;&gt;analysis -->
<g id="edge1" class="edge">
<title>operon:e&#45;&gt;analysis:w</title>
<path fill="none" stroke="#000000" stroke-dasharray="5,2" d="M543,-541C625.5319,-541 543.9217,-378.8841 612.3477,-364.9523"/>
<polygon fill="#000000" stroke="#000000" points="612.8706,-368.4187 622.5,-364 612.2168,-361.4493 612.8706,-368.4187"/>
</g>
<!-- seq_region -->
<g id="node9" class="node">
<title>seq_region</title>
<path fill="#c70c09" stroke="#000000" d="M721,-608C721,-608 616,-608 616,-608 610,-608 604,-602 604,-596 604,-596 604,-544 604,-544 604,-538 610,-532 616,-532 616,-532 721,-532 721,-532 727,-532 733,-538 733,-544 733,-544 733,-596 733,-596 733,-602 727,-608 721,-608"/>
<text text-anchor="start" x="633.5" y="-587.2" font-family="Times,serif" font-size="16.00" fill="#000000">seq_region</text>
<polygon fill="#ffffff" stroke="transparent" points="614.5,-559 614.5,-578 723.5,-578 723.5,-559 614.5,-559"/>
<text text-anchor="start" x="616.5" y="-565.8" font-family="Times,serif" font-weight="bold" font-size="14.00" fill="#000000">PK</text>
<text text-anchor="start" x="636.5" y="-565.8" font-family="Times,serif" font-size="14.00" fill="#000000">  seq_region_id</text>
<polygon fill="#ffffff" stroke="transparent" points="614.5,-538 614.5,-557 723.5,-557 723.5,-538 614.5,-538"/>
<text text-anchor="start" x="663" y="-544.8" font-family="Times,serif" font-style="italic" font-size="14.00" fill="#000000">...</text>
<polygon fill="#000000" stroke="#000000" points="612.5,-579 612.5,-579 725.5,-579 725.5,-579 612.5,-579"/>
</g>
<!-- operon&#45;&gt;seq_region -->
<g id="edge2" class="edge">
<title>operon:e&#45;&gt;seq_region:w</title>
<path fill="none" stroke="#000000" stroke-dasharray="5,2" d="M543,-520C577.5368,-520 576.7985,-559.0828 604.4456,-566.7161"/>
<polygon fill="#000000" stroke="#000000" points="604.1372,-570.2051 614.5,-568 605.0239,-563.2615 604.1372,-570.2051"/>
</g>
<!-- operon_transcript -->
<g id="node2" class="node">
<title>operon_transcript</title>
<path fill="#ff8500" stroke="#000000" d="M381,-656C381,-656 240,-656 240,-656 234,-656 228,-650 228,-644 228,-644 228,-382 228,-382 228,-376 234,-370 240,-370 240,-370 381,-370 381,-370 387,-370 393,-376 393,-382 393,-382 393,-644 393,-644 393,-650 387,-656 381,-656"/>
<text text-anchor="start" x="254" y="-635.2" font-family="Times,serif" font-size="16.00" fill="#000000">operon_transcript</text>
<polygon fill="#ffffff" stroke="transparent" points="238.5,-607 238.5,-626 383.5,-626 383.5,-607 238.5,-607"/>
<text text-anchor="start" x="240.5" y="-613.8" font-family="Times,serif" font-weight="bold" font-size="14.00" fill="#000000">PK</text>
<text text-anchor="start" x="260.5" y="-613.8" font-family="Times,serif" font-size="14.00" fill="#000000">  operon_transcript_id</text>
<polygon fill="#ffffff" stroke="transparent" points="238.5,-586 238.5,-605 383.5,-605 383.5,-586 238.5,-586"/>
<text text-anchor="start" x="280.5" y="-591.8" font-family="Times,serif" font-size="14.00" fill="#000000">analysis_id</text>
<polygon fill="#ffffff" stroke="transparent" points="238.5,-565 238.5,-584 383.5,-584 383.5,-565 238.5,-565"/>
<text text-anchor="start" x="272.5" y="-570.8" font-family="Times,serif" font-size="14.00" fill="#000000">seq_region_id</text>
<polygon fill="#ffffff" stroke="transparent" points="238.5,-544 238.5,-563 383.5,-563 383.5,-544 238.5,-544"/>
<text text-anchor="start" x="266" y="-549.8" font-family="Times,serif" font-size="14.00" fill="#000000">seq_region_start</text>
<polygon fill="#ffffff" stroke="transparent" points="238.5,-523 238.5,-542 383.5,-542 383.5,-523 238.5,-523"/>
<text text-anchor="start" x="268" y="-528.8" font-family="Times,serif" font-size="14.00" fill="#000000">seq_region_end</text>
<polygon fill="#ffffff" stroke="transparent" points="238.5,-502 238.5,-521 383.5,-521 383.5,-502 238.5,-502"/>
<text text-anchor="start" x="261" y="-507.8" font-family="Times,serif" font-size="14.00" fill="#000000">seq_region_strand</text>
<polygon fill="#ffffff" stroke="transparent" points="238.5,-481 238.5,-500 383.5,-500 383.5,-481 238.5,-481"/>
<text text-anchor="start" x="283.5" y="-486.8" font-family="Times,serif" font-size="14.00" fill="#000000">operon_id</text>
<polygon fill="#ffffff" stroke="transparent" points="238.5,-460 238.5,-479 383.5,-479 383.5,-460 238.5,-460"/>
<text text-anchor="start" x="274.5" y="-465.8" font-family="Times,serif" font-size="14.00" fill="#000000">display_label</text>
<polygon fill="#ffffff" stroke="transparent" points="238.5,-439 238.5,-458 383.5,-458 383.5,-439 238.5,-439"/>
<text text-anchor="start" x="286.5" y="-444.8" font-family="Times,serif" font-size="14.00" fill="#000000">stable_id</text>
<polygon fill="#ffffff" stroke="transparent" points="238.5,-418 238.5,-437 383.5,-437 383.5,-418 238.5,-418"/>
<text text-anchor="start" x="291" y="-423.8" font-family="Times,serif" font-size="14.00" fill="#000000">version</text>
<polygon fill="#ffffff" stroke="transparent" points="238.5,-397 238.5,-416 383.5,-416 383.5,-397 238.5,-397"/>
<text text-anchor="start" x="276.5" y="-402.8" font-family="Times,serif" font-size="14.00" fill="#000000">created_date</text>
<polygon fill="#ffffff" stroke="transparent" points="238.5,-376 238.5,-395 383.5,-395 383.5,-376 238.5,-376"/>
<text text-anchor="start" x="271.5" y="-381.8" font-family="Times,serif" font-size="14.00" fill="#000000">modified_date</text>
<polygon fill="#000000" stroke="#000000" points="236.5,-627 236.5,-627 385.5,-627 385.5,-627 236.5,-627"/>
</g>
<!-- operon_transcript&#45;&gt;operon -->
<g id="edge4" class="edge">
<title>operon_transcript:e&#45;&gt;operon:w</title>
<path fill="none" stroke="#000000" stroke-dasharray="5,2" d="M383.5,-490C419.9579,-490 402.9126,-548.6241 428.9206,-560.0742"/>
<polygon fill="#000000" stroke="#000000" points="428.5208,-563.561 439,-562 429.8346,-556.6854 428.5208,-563.561"/>
</g>
<!-- operon_transcript&#45;&gt;analysis -->
<g id="edge3" class="edge">
<title>operon_transcript:e&#45;&gt;analysis:w</title>
<path fill="none" stroke="#000000" stroke-dasharray="5,2" d="M383.5,-596C443.9078,-596 382.8487,-366.9763 429,-328 473.8211,-290.1471 504.3781,-312.6463 561,-328 587.8664,-335.2852 590.5482,-357.5735 612.3069,-362.8647"/>
<polygon fill="#000000" stroke="#000000" points="612.174,-366.3714 622.5,-364 612.9489,-359.4144 612.174,-366.3714"/>
</g>
<!-- operon_transcript&#45;&gt;seq_region -->
<g id="edge5" class="edge">
<title>operon_transcript:e&#45;&gt;seq_region:w</title>
<path fill="none" stroke="#000000" stroke-dasharray="5,2" d="M383.5,-575C409.2864,-575 404.6443,-602.5301 429,-611 484.4116,-630.27 505.6626,-630.482 561,-611 586.0656,-602.1754 584.9102,-576.0963 604.3599,-569.5194"/>
<polygon fill="#000000" stroke="#000000" points="605.1291,-572.9434 614.5,-568 604.0917,-566.0206 605.1291,-572.9434"/>
</g>
<!-- operon_transcript_gene -->
<g id="node3" class="node">
<title>operon_transcript_gene</title>
<path fill="#ff8500" stroke="#000000" d="M180,-657C180,-657 28,-657 28,-657 22,-657 16,-651 16,-645 16,-645 16,-593 16,-593 16,-587 22,-581 28,-581 28,-581 180,-581 180,-581 186,-581 192,-587 192,-593 192,-593 192,-645 192,-645 192,-651 186,-657 180,-657"/>
<text text-anchor="start" x="28" y="-636.2" font-family="Times,serif" font-size="16.00" fill="#000000">operon_transcript_gene</text>
<polygon fill="#ffffff" stroke="transparent" points="26,-608 26,-627 182,-627 182,-608 26,-608"/>
<text text-anchor="start" x="47.5" y="-613.8" font-family="Times,serif" font-size="14.00" fill="#000000">operon_transcript_id</text>
<polygon fill="#ffffff" stroke="transparent" points="26,-587 26,-606 182,-606 182,-587 26,-587"/>
<text text-anchor="start" x="82.5" y="-592.8" font-family="Times,serif" font-size="14.00" fill="#000000">gene_id</text>
<polygon fill="#000000" stroke="#000000" points="24,-628 24,-628 184,-628 184,-628 24,-628"/>
</g>
<!-- operon_transcript_gene&#45;&gt;operon_transcript -->
<g id="edge7" class="edge">
<title>operon_transcript_gene:e&#45;&gt;operon_transcript:w</title>
<path fill="none" stroke="#000000" stroke-dasharray="5,2" d="M182,-617C203.3837,-617 211.1102,-617 228.4394,-617"/>
<polygon fill="#000000" stroke="#000000" points="228.5,-620.5001 238.5,-617 228.5,-613.5001 228.5,-620.5001"/>
</g>
<!-- gene -->
<g id="node8" class="node">
<title>gene</title>
<path fill="#808000" stroke="#000000" d="M704,-310C704,-310 633,-310 633,-310 627,-310 621,-304 621,-298 621,-298 621,-246 621,-246 621,-240 627,-234 633,-234 633,-234 704,-234 704,-234 710,-234 716,-240 716,-246 716,-246 716,-298 716,-298 716,-304 710,-310 704,-310"/>
<text text-anchor="start" x="653.5" y="-289.2" font-family="Times,serif" font-size="16.00" fill="#000000">gene</text>
<polygon fill="#ffffff" stroke="transparent" points="631.5,-261 631.5,-280 706.5,-280 706.5,-261 631.5,-261"/>
<text text-anchor="start" x="633.5" y="-267.8" font-family="Times,serif" font-weight="bold" font-size="14.00" fill="#000000">PK</text>
<text text-anchor="start" x="653.5" y="-267.8" font-family="Times,serif" font-size="14.00" fill="#000000">  gene_id</text>
<polygon fill="#ffffff" stroke="transparent" points="631.5,-240 631.5,-259 706.5,-259 706.5,-240 631.5,-240"/>
<text text-anchor="start" x="663" y="-246.8" font-family="Times,serif" font-style="italic" font-size="14.00" fill="#000000">...</text>
<polygon fill="#000000" stroke="#000000" points="629.5,-281 629.5,-281 708.5,-281 708.5,-281 629.5,-281"/>
</g>
<!-- operon_transcript_gene&#45;&gt;gene -->
<g id="edge6" class="edge">
<title>operon_transcript_gene:e&#45;&gt;gene:w</title>
<path fill="none" stroke="#000000" stroke-dasharray="5,2" d="M182,-596C288.4266,-596 157.0726,-440.3468 228,-361 348.2442,-226.4823 444.0488,-268.3538 621.3557,-269.9539"/>
<polygon fill="#000000" stroke="#000000" points="621.4842,-273.4544 631.5,-270 621.516,-266.4545 621.4842,-273.4544"/>
</g>
<!-- rnaproduct -->
<g id="node4" class="node">
<title>rnaproduct</title>
<path fill="#808000" stroke="#000000" d="M157,-562.5C157,-562.5 51,-562.5 51,-562.5 45,-562.5 39,-556.5 39,-550.5 39,-550.5 39,-309.5 39,-309.5 39,-303.5 45,-297.5 51,-297.5 51,-297.5 157,-297.5 157,-297.5 163,-297.5 169,-303.5 169,-309.5 169,-309.5 169,-550.5 169,-550.5 169,-556.5 163,-562.5 157,-562.5"/>
<text text-anchor="start" x="69" y="-541.2" font-family="Times,serif" font-size="16.00" fill="#000000">rnaproduct</text>
<polygon fill="#ffffff" stroke="transparent" points="49,-513 49,-532 159,-532 159,-513 49,-513"/>
<text text-anchor="start" x="52" y="-519.8" font-family="Times,serif" font-weight="bold" font-size="14.00" fill="#000000">PK</text>
<text text-anchor="start" x="72" y="-519.8" font-family="Times,serif" font-size="14.00" fill="#000000">  rnaproduct_id</text>
<polygon fill="#ffffff" stroke="transparent" points="49,-492 49,-511 159,-511 159,-492 49,-492"/>
<text text-anchor="start" x="51" y="-497.8" font-family="Times,serif" font-size="14.00" fill="#000000">rnaproduct_type_id</text>
<polygon fill="#ffffff" stroke="transparent" points="49,-471 49,-490 159,-490 159,-471 49,-471"/>
<text text-anchor="start" x="69.5" y="-476.8" font-family="Times,serif" font-size="14.00" fill="#000000">transcript_id</text>
<polygon fill="#ffffff" stroke="transparent" points="49,-450 49,-469 159,-469 159,-450 49,-450"/>
<text text-anchor="start" x="79.5" y="-455.8" font-family="Times,serif" font-size="14.00" fill="#000000">seq_start</text>
<polygon fill="#ffffff" stroke="transparent" points="49,-429 49,-448 159,-448 159,-429 49,-429"/>
<text text-anchor="start" x="67" y="-434.8" font-family="Times,serif" font-size="14.00" fill="#000000">start_exon_id</text>
<polygon fill="#ffffff" stroke="transparent" points="49,-408 49,-427 159,-427 159,-408 49,-408"/>
<text text-anchor="start" x="81.5" y="-413.8" font-family="Times,serif" font-size="14.00" fill="#000000">seq_end</text>
<polygon fill="#ffffff" stroke="transparent" points="49,-387 49,-406 159,-406 159,-387 49,-387"/>
<text text-anchor="start" x="69" y="-392.8" font-family="Times,serif" font-size="14.00" fill="#000000">end_exon_id</text>
<polygon fill="#ffffff" stroke="transparent" points="49,-366 49,-385 159,-385 159,-366 49,-366"/>
<text text-anchor="start" x="79.5" y="-371.8" font-family="Times,serif" font-size="14.00" fill="#000000">stable_id</text>
<polygon fill="#ffffff" stroke="transparent" points="49,-345 49,-364 159,-364 159,-345 49,-345"/>
<text text-anchor="start" x="84" y="-350.8" font-family="Times,serif" font-size="14.00" fill="#000000">version</text>
<polygon fill="#ffffff" stroke="transparent" points="49,-324 49,-343 159,-343 159,-324 49,-324"/>
<text text-anchor="start" x="69.5" y="-329.8" font-family="Times,serif" font-size="14.00" fill="#000000">created_date</text>
<polygon fill="#ffffff" stroke="transparent" points="49,-303 49,-322 159,-322 159,-303 49,-303"/>
<text text-anchor="start" x="64.5" y="-308.8" font-family="Times,serif" font-size="14.00" fill="#000000">modified_date</text>
<polygon fill="#000000" stroke="#000000" points="47,-533 47,-533 161,-533 161,-533 47,-533"/>
</g>
<!-- rnaproduct_attrib -->
<g id="node5" class="node">
<title>rnaproduct_attrib</title>
<path fill="#808000" stroke="#000000" d="M160,-279.5C160,-279.5 48,-279.5 48,-279.5 42,-279.5 36,-273.5 36,-267.5 36,-267.5 36,-194.5 36,-194.5 36,-188.5 42,-182.5 48,-182.5 48,-182.5 160,-182.5 160,-182.5 166,-182.5 172,-188.5 172,-194.5 172,-194.5 172,-267.5 172,-267.5 172,-273.5 166,-279.5 160,-279.5"/>
<text text-anchor="start" x="48" y="-258.2" font-family="Times,serif" font-size="16.00" fill="#000000">rnaproduct_attrib</text>
<polygon fill="#ffffff" stroke="transparent" points="46,-230 46,-249 162,-249 162,-230 46,-230"/>
<text text-anchor="start" x="66" y="-235.8" font-family="Times,serif" font-size="14.00" fill="#000000">rnaproduct_id</text>
<polygon fill="#ffffff" stroke="transparent" points="46,-209 46,-228 162,-228 162,-209 46,-209"/>
<text text-anchor="start" x="66" y="-214.8" font-family="Times,serif" font-size="14.00" fill="#000000">attrib_type_id</text>
<polygon fill="#ffffff" stroke="transparent" points="46,-188 46,-207 162,-207 162,-188 46,-188"/>
<text text-anchor="start" x="89" y="-193.8" font-family="Times,serif" font-size="14.00" fill="#000000">value</text>
<polygon fill="#000000" stroke="#000000" points="44,-250 44,-250 164,-250 164,-250 44,-250"/>
</g>
<!-- rnaproduct_type -->
<g id="node6" class="node">
<title>rnaproduct_type</title>
<path fill="#808000" stroke="#000000" d="M171,-164C171,-164 37,-164 37,-164 31,-164 25,-158 25,-152 25,-152 25,-58 25,-58 25,-52 31,-46 37,-46 37,-46 171,-46 171,-46 177,-46 183,-52 183,-58 183,-58 183,-152 183,-152 183,-158 177,-164 171,-164"/>
<text text-anchor="start" x="51" y="-143.2" font-family="Times,serif" font-size="16.00" fill="#000000">rnaproduct_type</text>
<polygon fill="#ffffff" stroke="transparent" points="35,-115 35,-134 173,-134 173,-115 35,-115"/>
<text text-anchor="start" x="37" y="-121.8" font-family="Times,serif" font-weight="bold" font-size="14.00" fill="#000000">PK</text>
<text text-anchor="start" x="57" y="-121.8" font-family="Times,serif" font-size="14.00" fill="#000000">  rnaproduct_type_id</text>
<polygon fill="#ffffff" stroke="transparent" points="35,-94 35,-113 173,-113 173,-94 35,-94"/>
<text text-anchor="start" x="91" y="-99.8" font-family="Times,serif" font-size="14.00" fill="#000000">code</text>
<polygon fill="#ffffff" stroke="transparent" points="35,-73 35,-92 173,-92 173,-73 35,-73"/>
<text text-anchor="start" x="88.5" y="-78.8" font-family="Times,serif" font-size="14.00" fill="#000000">name</text>
<polygon fill="#ffffff" stroke="transparent" points="35,-52 35,-71 173,-71 173,-52 35,-52"/>
<text text-anchor="start" x="73.5" y="-57.8" font-family="Times,serif" font-size="14.00" fill="#000000">description</text>
<polygon fill="#000000" stroke="#000000" points="33,-135 33,-135 175,-135 175,-135 33,-135"/>
</g>
</g>
</svg>
