<?xml version="1.0" encoding="UTF-8" standalone="no"?>
<!DOCTYPE svg PUBLIC "-//W3C//DTD SVG 1.1//EN"
 "http://www.w3.org/Graphics/SVG/1.1/DTD/svg11.dtd">
<!-- Generated by graphviz version 8.0.1 (0)
 -->
<!-- Title: test Pages: 1 -->
<svg width="766pt" height="711pt"
 viewBox="0.00 0.00 766.00 711.00" xmlns="http://www.w3.org/2000/svg" xmlns:xlink="http://www.w3.org/1999/xlink">
<g id="graph0" class="graph" transform="scale(1 1) rotate(0) translate(4 707)">
<title>test</title>
<polygon fill="white" stroke="none" points="-4,4 -4,-707 762,-707 762,4 -4,4"/>
<text text-anchor="middle" x="379" y="-10" font-family="Times,serif" font-size="20.00">Core schema diagram: Misc tables</text>
<g id="clust1" class="cluster">
<title>cluster_assembly_tables</title>
<polygon fill="white" stroke="white" points="594,-524 594,-646 746,-646 746,-524 594,-524"/>
<text text-anchor="middle" x="670" y="-626" font-family="Times,serif" font-size="20.00">Assembly Tables</text>
</g>
<g id="clust3" class="cluster">
<title>cluster_misc</title>
<path fill="#ffe6cc" stroke="#ffe6cc" d="M20,-38C20,-38 549,-38 549,-38 555,-38 561,-44 561,-50 561,-50 561,-683 561,-683 561,-689 555,-695 549,-695 549,-695 20,-695 20,-695 14,-695 8,-689 8,-683 8,-683 8,-50 8,-50 8,-44 14,-38 20,-38"/>
<text text-anchor="middle" x="284.5" y="-675" font-family="Times,serif" font-size="20.00">Misc</text>
</g>
<g id="clust2" class="cluster">
<title>cluster_fundamental_tables</title>
<polygon fill="white" stroke="white" points="581,-226 581,-442 758,-442 758,-226 581,-226"/>
<text text-anchor="middle" x="669.5" y="-422" font-family="Times,serif" font-size="20.00">Fundamental Tables</text>
</g>
<!-- operon -->
<g id="node1" class="node">
<title>operon</title>
<path fill="#ff8500" stroke="black" d="M541,-601.5C541,-601.5 441,-601.5 441,-601.5 435,-601.5 429,-595.5 429,-589.5 429,-589.5 429,-348.5 429,-348.5 429,-342.5 435,-336.5 441,-336.5 441,-336.5 541,-336.5 541,-336.5 547,-336.5 553,-342.5 553,-348.5 553,-348.5 553,-589.5 553,-589.5 553,-595.5 547,-601.5 541,-601.5"/>
<text text-anchor="start" x="468" y="-580.7" font-family="Times,serif" font-size="16.00">operon</text>
<polygon fill="white" stroke="none" points="439,-552.5 439,-571.5 543,-571.5 543,-552.5 439,-552.5"/>
<text text-anchor="start" x="449.5" y="-559.3" font-family="Times,serif" font-weight="bold" font-size="14.00">PK</text>
<text text-anchor="start" x="469.5" y="-559.3" font-family="Times,serif" font-size="14.00">  operon_id</text>
<polygon fill="white" stroke="none" points="439,-531.5 439,-550.5 543,-550.5 543,-531.5 439,-531.5"/>
<text text-anchor="start" x="460.5" y="-537.3" font-family="Times,serif" font-size="14.00">analysis_id</text>
<polygon fill="white" stroke="none" points="439,-510.5 439,-529.5 543,-529.5 543,-510.5 439,-510.5"/>
<text text-anchor="start" x="452.5" y="-516.3" font-family="Times,serif" font-size="14.00">seq_region_id</text>
<polygon fill="white" stroke="none" points="439,-489.5 439,-508.5 543,-508.5 543,-489.5 439,-489.5"/>
<text text-anchor="start" x="445.5" y="-495.3" font-family="Times,serif" font-size="14.00">seq_region_start</text>
<polygon fill="white" stroke="none" points="439,-468.5 439,-487.5 543,-487.5 543,-468.5 439,-468.5"/>
<text text-anchor="start" x="448" y="-474.3" font-family="Times,serif" font-size="14.00">seq_region_end</text>
<polygon fill="white" stroke="none" points="439,-447.5 439,-466.5 543,-466.5 543,-447.5 439,-447.5"/>
<text text-anchor="start" x="441" y="-453.3" font-family="Times,serif" font-size="14.00">seq_region_strand</text>
<polygon fill="white" stroke="none" points="439,-426.5 439,-445.5 543,-445.5 543,-426.5 439,-426.5"/>
<text text-anchor="start" x="454.5" y="-432.3" font-family="Times,serif" font-size="14.00">display_label</text>
<polygon fill="white" stroke="none" points="439,-405.5 439,-424.5 543,-424.5 543,-405.5 439,-405.5"/>
<text text-anchor="start" x="466.5" y="-411.3" font-family="Times,serif" font-size="14.00">stable_id</text>
<polygon fill="white" stroke="none" points="439,-384.5 439,-403.5 543,-403.5 543,-384.5 439,-384.5"/>
<text text-anchor="start" x="471" y="-390.3" font-family="Times,serif" font-size="14.00">version</text>
<polygon fill="white" stroke="none" points="439,-363.5 439,-382.5 543,-382.5 543,-363.5 439,-363.5"/>
<text text-anchor="start" x="456.5" y="-369.3" font-family="Times,serif" font-size="14.00">created_date</text>
<polygon fill="white" stroke="none" points="439,-342.5 439,-361.5 543,-361.5 543,-342.5 439,-342.5"/>
<text text-anchor="start" x="451.5" y="-348.3" font-family="Times,serif" font-size="14.00">modified_date</text>
<polygon fill="black" stroke="black" points="437,-572.5 437,-572.5 545,-572.5 545,-572.5 437,-572.5"/>
</g>
<!-- analysis -->
<g id="node7" class="node">
<title>analysis</title>
<path fill="#808000" stroke="black" d="M714,-404C714,-404 625,-404 625,-404 619,-404 613,-398 613,-392 613,-392 613,-340 613,-340 613,-334 619,-328 625,-328 625,-328 714,-328 714,-328 720,-328 726,-334 726,-340 726,-340 726,-392 726,-392 726,-398 720,-404 714,-404"/>
<text text-anchor="start" x="644.5" y="-383.2" font-family="Times,serif" font-size="16.00">analysis</text>
<polygon fill="white" stroke="none" points="623,-355 623,-374 716,-374 716,-355 623,-355"/>
<text text-anchor="start" x="625" y="-361.8" font-family="Times,serif" font-weight="bold" font-size="14.00">PK</text>
<text text-anchor="start" x="645" y="-361.8" font-family="Times,serif" font-size="14.00">  analysis_id</text>
<polygon fill="white" stroke="none" points="623,-334 623,-353 716,-353 716,-334 623,-334"/>
<text text-anchor="start" x="663.5" y="-340.8" font-family="Times,serif" font-style="italic" font-size="14.00">...</text>
<polygon fill="black" stroke="black" points="621,-375 621,-375 718,-375 718,-375 621,-375"/>
</g>
<!-- operon&#45;&gt;analysis -->
<g id="edge1" class="edge">
<title>operon:e&#45;&gt;analysis:w</title>
<path fill="none" stroke="black" stroke-dasharray="5,2" d="M544,-541C625.85,-541 544.06,-380.2 610.57,-365.13"/>
<polygon fill="black" stroke="black" points="610.91,-368.51 620.5,-364 610.19,-361.55 610.91,-368.51"/>
</g>
<!-- seq_region -->
<g id="node9" class="node">
<title>seq_region</title>
<path fill="#c70c09" stroke="black" d="M722,-608C722,-608 617,-608 617,-608 611,-608 605,-602 605,-596 605,-596 605,-544 605,-544 605,-538 611,-532 617,-532 617,-532 722,-532 722,-532 728,-532 734,-538 734,-544 734,-544 734,-596 734,-596 734,-602 728,-608 722,-608"/>
<text text-anchor="start" x="634" y="-587.2" font-family="Times,serif" font-size="16.00">seq_region</text>
<polygon fill="white" stroke="none" points="615,-559 615,-578 724,-578 724,-559 615,-559"/>
<text text-anchor="start" x="617" y="-565.8" font-family="Times,serif" font-weight="bold" font-size="14.00">PK</text>
<text text-anchor="start" x="637" y="-565.8" font-family="Times,serif" font-size="14.00">  seq_region_id</text>
<polygon fill="white" stroke="none" points="615,-538 615,-557 724,-557 724,-538 615,-538"/>
<text text-anchor="start" x="663.5" y="-544.8" font-family="Times,serif" font-style="italic" font-size="14.00">...</text>
<polygon fill="black" stroke="black" points="613,-579 613,-579 726,-579 726,-579 613,-579"/>
</g>
<!-- operon&#45;&gt;seq_region -->
<g id="edge2" class="edge">
<title>operon:e&#45;&gt;seq_region:w</title>
<path fill="none" stroke="black" stroke-dasharray="5,2" d="M544,-520C577.43,-520 576.66,-558.07 602.62,-566.4"/>
<polygon fill="black" stroke="black" points="602.1,-570.01 612.5,-568 603.11,-563.09 602.1,-570.01"/>
</g>
<!-- operon_transcript -->
<g id="node2" class="node">
<title>operon_transcript</title>
<path fill="#ff8500" stroke="black" d="M381,-656C381,-656 240,-656 240,-656 234,-656 228,-650 228,-644 228,-644 228,-382 228,-382 228,-376 234,-370 240,-370 240,-370 381,-370 381,-370 387,-370 393,-376 393,-382 393,-382 393,-644 393,-644 393,-650 387,-656 381,-656"/>
<text text-anchor="start" x="253" y="-635.2" font-family="Times,serif" font-size="16.00">operon_transcript</text>
<polygon fill="white" stroke="none" points="238,-607 238,-626 383,-626 383,-607 238,-607"/>
<text text-anchor="start" x="240" y="-613.8" font-family="Times,serif" font-weight="bold" font-size="14.00">PK</text>
<text text-anchor="start" x="260" y="-613.8" font-family="Times,serif" font-size="14.00">  operon_transcript_id</text>
<polygon fill="white" stroke="none" points="238,-586 238,-605 383,-605 383,-586 238,-586"/>
<text text-anchor="start" x="280" y="-591.8" font-family="Times,serif" font-size="14.00">analysis_id</text>
<polygon fill="white" stroke="none" points="238,-565 238,-584 383,-584 383,-565 238,-565"/>
<text text-anchor="start" x="272" y="-570.8" font-family="Times,serif" font-size="14.00">seq_region_id</text>
<polygon fill="white" stroke="none" points="238,-544 238,-563 383,-563 383,-544 238,-544"/>
<text text-anchor="start" x="265" y="-549.8" font-family="Times,serif" font-size="14.00">seq_region_start</text>
<polygon fill="white" stroke="none" points="238,-523 238,-542 383,-542 383,-523 238,-523"/>
<text text-anchor="start" x="267.5" y="-528.8" font-family="Times,serif" font-size="14.00">seq_region_end</text>
<polygon fill="white" stroke="none" points="238,-502 238,-521 383,-521 383,-502 238,-502"/>
<text text-anchor="start" x="260.5" y="-507.8" font-family="Times,serif" font-size="14.00">seq_region_strand</text>
<polygon fill="white" stroke="none" points="238,-481 238,-500 383,-500 383,-481 238,-481"/>
<text text-anchor="start" x="283" y="-486.8" font-family="Times,serif" font-size="14.00">operon_id</text>
<polygon fill="white" stroke="none" points="238,-460 238,-479 383,-479 383,-460 238,-460"/>
<text text-anchor="start" x="274" y="-465.8" font-family="Times,serif" font-size="14.00">display_label</text>
<polygon fill="white" stroke="none" points="238,-439 238,-458 383,-458 383,-439 238,-439"/>
<text text-anchor="start" x="286" y="-444.8" font-family="Times,serif" font-size="14.00">stable_id</text>
<polygon fill="white" stroke="none" points="238,-418 238,-437 383,-437 383,-418 238,-418"/>
<text text-anchor="start" x="290.5" y="-423.8" font-family="Times,serif" font-size="14.00">version</text>
<polygon fill="white" stroke="none" points="238,-397 238,-416 383,-416 383,-397 238,-397"/>
<text text-anchor="start" x="276" y="-402.8" font-family="Times,serif" font-size="14.00">created_date</text>
<polygon fill="white" stroke="none" points="238,-376 238,-395 383,-395 383,-376 238,-376"/>
<text text-anchor="start" x="271" y="-381.8" font-family="Times,serif" font-size="14.00">modified_date</text>
<polygon fill="black" stroke="black" points="236,-627 236,-627 385,-627 385,-627 236,-627"/>
</g>
<!-- operon_transcript&#45;&gt;operon -->
<g id="edge4" class="edge">
<title>operon_transcript:e&#45;&gt;operon:w</title>
<path fill="none" stroke="black" stroke-dasharray="5,2" d="M384.5,-490C420.16,-490 402.93,-547.61 427.44,-559.77"/>
<polygon fill="black" stroke="black" points="426.49,-563.36 437,-562 427.94,-556.51 426.49,-563.36"/>
</g>
<!-- operon_transcript&#45;&gt;analysis -->
<g id="edge3" class="edge">
<title>operon_transcript:e&#45;&gt;analysis:w</title>
<path fill="none" stroke="black" stroke-dasharray="5,2" d="M384.5,-596C444.87,-596 382.95,-367.04 429,-328 473.75,-290.07 504.43,-312.44 561,-328 587.16,-335.2 589.92,-356.98 610.59,-362.64"/>
<polygon fill="black" stroke="black" points="610.14,-366.24 620.5,-364 611.01,-359.29 610.14,-366.24"/>
</g>
<!-- operon_transcript&#45;&gt;seq_region -->
<g id="edge5" class="edge">
<title>operon_transcript:e&#45;&gt;seq_region:w</title>
<path fill="none" stroke="black" stroke-dasharray="5,2" d="M384.5,-575C409.94,-575 405.02,-602.51 429,-611 484.31,-630.57 505.75,-630.74 561,-611 585.41,-602.28 584.36,-576.79 602.73,-569.79"/>
<polygon fill="black" stroke="black" points="603.21,-573.1 612.5,-568 602.06,-566.19 603.21,-573.1"/>
</g>
<!-- operon_transcript_gene -->
<g id="node3" class="node">
<title>operon_transcript_gene</title>
<path fill="#ff8500" stroke="black" d="M180,-657C180,-657 28,-657 28,-657 22,-657 16,-651 16,-645 16,-645 16,-593 16,-593 16,-587 22,-581 28,-581 28,-581 180,-581 180,-581 186,-581 192,-587 192,-593 192,-593 192,-645 192,-645 192,-651 186,-657 180,-657"/>
<text text-anchor="start" x="28" y="-636.2" font-family="Times,serif" font-size="16.00">operon_transcript_gene</text>
<polygon fill="white" stroke="none" points="26,-608 26,-627 182,-627 182,-608 26,-608"/>
<text text-anchor="start" x="47" y="-613.8" font-family="Times,serif" font-size="14.00">operon_transcript_id</text>
<polygon fill="white" stroke="none" points="26,-587 26,-606 182,-606 182,-587 26,-587"/>
<text text-anchor="start" x="82.5" y="-592.8" font-family="Times,serif" font-size="14.00">gene_id</text>
<polygon fill="black" stroke="black" points="24,-628 24,-628 184,-628 184,-628 24,-628"/>
</g>
<!-- operon_transcript_gene&#45;&gt;operon_transcript -->
<g id="edge7" class="edge">
<title>operon_transcript_gene:e&#45;&gt;operon_transcript:w</title>
<path fill="none" stroke="black" stroke-dasharray="5,2" d="M183,-617C202.69,-617 210.15,-617 225.64,-617"/>
<polygon fill="black" stroke="black" points="225.5,-620.5 235.5,-617 225.5,-613.5 225.5,-620.5"/>
</g>
<!-- gene -->
<g id="node8" class="node">
<title>gene</title>
<path fill="#808000" stroke="black" d="M705,-310C705,-310 634,-310 634,-310 628,-310 622,-304 622,-298 622,-298 622,-246 622,-246 622,-240 628,-234 634,-234 634,-234 705,-234 705,-234 711,-234 717,-240 717,-246 717,-246 717,-298 717,-298 717,-304 711,-310 705,-310"/>
<text text-anchor="start" x="654.5" y="-289.2" font-family="Times,serif" font-size="16.00">gene</text>
<polygon fill="white" stroke="none" points="632,-261 632,-280 707,-280 707,-261 632,-261"/>
<text text-anchor="start" x="634" y="-267.8" font-family="Times,serif" font-weight="bold" font-size="14.00">PK</text>
<text text-anchor="start" x="654" y="-267.8" font-family="Times,serif" font-size="14.00">  gene_id</text>
<polygon fill="white" stroke="none" points="632,-240 632,-259 707,-259 707,-240 632,-240"/>
<text text-anchor="start" x="663.5" y="-246.8" font-family="Times,serif" font-style="italic" font-size="14.00">...</text>
<polygon fill="black" stroke="black" points="630,-281 630,-281 709,-281 709,-281 630,-281"/>
</g>
<!-- operon_transcript_gene&#45;&gt;gene -->
<g id="edge6" class="edge">
<title>operon_transcript_gene:e&#45;&gt;gene:w</title>
<path fill="none" stroke="black" stroke-dasharray="5,2" d="M183,-596C289.34,-596 157.13,-440.28 228,-361 347.78,-227 443.21,-268.24 619.59,-269.95"/>
<polygon fill="black" stroke="black" points="619.48,-273.45 629.5,-270 619.52,-266.45 619.48,-273.45"/>
</g>
<!-- rnaproduct -->
<g id="node4" class="node">
<title>rnaproduct</title>
<path fill="#808000" stroke="black" d="M157.5,-562.5C157.5,-562.5 50.5,-562.5 50.5,-562.5 44.5,-562.5 38.5,-556.5 38.5,-550.5 38.5,-550.5 38.5,-309.5 38.5,-309.5 38.5,-303.5 44.5,-297.5 50.5,-297.5 50.5,-297.5 157.5,-297.5 157.5,-297.5 163.5,-297.5 169.5,-303.5 169.5,-309.5 169.5,-309.5 169.5,-550.5 169.5,-550.5 169.5,-556.5 163.5,-562.5 157.5,-562.5"/>
<text text-anchor="start" x="68.5" y="-541.7" font-family="Times,serif" font-size="16.00">rnaproduct</text>
<polygon fill="white" stroke="none" points="48.5,-513.5 48.5,-532.5 159.5,-532.5 159.5,-513.5 48.5,-513.5"/>
<text text-anchor="start" x="51.5" y="-520.3" font-family="Times,serif" font-weight="bold" font-size="14.00">PK</text>
<text text-anchor="start" x="71.5" y="-520.3" font-family="Times,serif" font-size="14.00">  rnaproduct_id</text>
<polygon fill="white" stroke="none" points="48.5,-492.5 48.5,-511.5 159.5,-511.5 159.5,-492.5 48.5,-492.5"/>
<text text-anchor="start" x="50.5" y="-498.3" font-family="Times,serif" font-size="14.00">rnaproduct_type_id</text>
<polygon fill="white" stroke="none" points="48.5,-471.5 48.5,-490.5 159.5,-490.5 159.5,-471.5 48.5,-471.5"/>
<text text-anchor="start" x="69" y="-477.3" font-family="Times,serif" font-size="14.00">transcript_id</text>
<polygon fill="white" stroke="none" points="48.5,-450.5 48.5,-469.5 159.5,-469.5 159.5,-450.5 48.5,-450.5"/>
<text text-anchor="start" x="79.5" y="-456.3" font-family="Times,serif" font-size="14.00">seq_start</text>
<polygon fill="white" stroke="none" points="48.5,-429.5 48.5,-448.5 159.5,-448.5 159.5,-429.5 48.5,-429.5"/>
<text text-anchor="start" x="67" y="-435.3" font-family="Times,serif" font-size="14.00">start_exon_id</text>
<polygon fill="white" stroke="none" points="48.5,-408.5 48.5,-427.5 159.5,-427.5 159.5,-408.5 48.5,-408.5"/>
<text text-anchor="start" x="81.5" y="-414.3" font-family="Times,serif" font-size="14.00">seq_end</text>
<polygon fill="white" stroke="none" points="48.5,-387.5 48.5,-406.5 159.5,-406.5 159.5,-387.5 48.5,-387.5"/>
<text text-anchor="start" x="69" y="-393.3" font-family="Times,serif" font-size="14.00">end_exon_id</text>
<polygon fill="white" stroke="none" points="48.5,-366.5 48.5,-385.5 159.5,-385.5 159.5,-366.5 48.5,-366.5"/>
<text text-anchor="start" x="79.5" y="-372.3" font-family="Times,serif" font-size="14.00">stable_id</text>
<polygon fill="white" stroke="none" points="48.5,-345.5 48.5,-364.5 159.5,-364.5 159.5,-345.5 48.5,-345.5"/>
<text text-anchor="start" x="84" y="-351.3" font-family="Times,serif" font-size="14.00">version</text>
<polygon fill="white" stroke="none" points="48.5,-324.5 48.5,-343.5 159.5,-343.5 159.5,-324.5 48.5,-324.5"/>
<text text-anchor="start" x="69.5" y="-330.3" font-family="Times,serif" font-size="14.00">created_date</text>
<polygon fill="white" stroke="none" points="48.5,-303.5 48.5,-322.5 159.5,-322.5 159.5,-303.5 48.5,-303.5"/>
<text text-anchor="start" x="64.5" y="-309.3" font-family="Times,serif" font-size="14.00">modified_date</text>
<polygon fill="black" stroke="black" points="46.5,-533.5 46.5,-533.5 161.5,-533.5 161.5,-533.5 46.5,-533.5"/>
</g>
<!-- rnaproduct_attrib -->
<g id="node5" class="node">
<title>rnaproduct_attrib</title>
<path fill="#808000" stroke="black" d="M161,-279.5C161,-279.5 47,-279.5 47,-279.5 41,-279.5 35,-273.5 35,-267.5 35,-267.5 35,-194.5 35,-194.5 35,-188.5 41,-182.5 47,-182.5 47,-182.5 161,-182.5 161,-182.5 167,-182.5 173,-188.5 173,-194.5 173,-194.5 173,-267.5 173,-267.5 173,-273.5 167,-279.5 161,-279.5"/>
<text text-anchor="start" x="47" y="-258.7" font-family="Times,serif" font-size="16.00">rnaproduct_attrib</text>
<polygon fill="white" stroke="none" points="45,-230.5 45,-249.5 163,-249.5 163,-230.5 45,-230.5"/>
<text text-anchor="start" x="65.5" y="-236.3" font-family="Times,serif" font-size="14.00">rnaproduct_id</text>
<polygon fill="white" stroke="none" points="45,-209.5 45,-228.5 163,-228.5 163,-209.5 45,-209.5"/>
<text text-anchor="start" x="65.5" y="-215.3" font-family="Times,serif" font-size="14.00">attrib_type_id</text>
<polygon fill="white" stroke="none" points="45,-188.5 45,-207.5 163,-207.5 163,-188.5 45,-188.5"/>
<text text-anchor="start" x="89" y="-194.3" font-family="Times,serif" font-size="14.00">value</text>
<polygon fill="black" stroke="black" points="43,-250.5 43,-250.5 165,-250.5 165,-250.5 43,-250.5"/>
</g>
<!-- rnaproduct_type -->
<g id="node6" class="node">
<title>rnaproduct_type</title>
<path fill="#808000" stroke="black" d="M171.5,-164C171.5,-164 36.5,-164 36.5,-164 30.5,-164 24.5,-158 24.5,-152 24.5,-152 24.5,-58 24.5,-58 24.5,-52 30.5,-46 36.5,-46 36.5,-46 171.5,-46 171.5,-46 177.5,-46 183.5,-52 183.5,-58 183.5,-58 183.5,-152 183.5,-152 183.5,-158 177.5,-164 171.5,-164"/>
<text text-anchor="start" x="50.5" y="-143.2" font-family="Times,serif" font-size="16.00">rnaproduct_type</text>
<polygon fill="white" stroke="none" points="34.5,-115 34.5,-134 173.5,-134 173.5,-115 34.5,-115"/>
<text text-anchor="start" x="36.5" y="-121.8" font-family="Times,serif" font-weight="bold" font-size="14.00">PK</text>
<text text-anchor="start" x="56.5" y="-121.8" font-family="Times,serif" font-size="14.00">  rnaproduct_type_id</text>
<polygon fill="white" stroke="none" points="34.5,-94 34.5,-113 173.5,-113 173.5,-94 34.5,-94"/>
<text text-anchor="start" x="91" y="-99.8" font-family="Times,serif" font-size="14.00">code</text>
<polygon fill="white" stroke="none" points="34.5,-73 34.5,-92 173.5,-92 173.5,-73 34.5,-73"/>
<text text-anchor="start" x="88.5" y="-78.8" font-family="Times,serif" font-size="14.00">name</text>
<polygon fill="white" stroke="none" points="34.5,-52 34.5,-71 173.5,-71 173.5,-52 34.5,-52"/>
<text text-anchor="start" x="73.5" y="-57.8" font-family="Times,serif" font-size="14.00">description</text>
<polygon fill="black" stroke="black" points="32.5,-135 32.5,-135 175.5,-135 175.5,-135 32.5,-135"/>
</g>
</g>
</svg>
