<?xml version="1.0" encoding="UTF-8" standalone="no"?>
<!DOCTYPE svg PUBLIC "-//W3C//DTD SVG 1.1//EN"
 "http://www.w3.org/Graphics/SVG/1.1/DTD/svg11.dtd">
<!-- Generated by graphviz version 8.0.5 (20230430.1635)
 -->
<!-- Title: test Pages: 1 -->
<svg width="738pt" height="2807pt"
 viewBox="0.00 0.00 738.00 2806.50" xmlns="http://www.w3.org/2000/svg" xmlns:xlink="http://www.w3.org/1999/xlink">
<g id="graph0" class="graph" transform="scale(1 1) rotate(0) translate(4 2802.5)">
<title>test</title>
<polygon fill="white" stroke="none" points="-4,4 -4,-2802.5 734,-2802.5 734,4 -4,4"/>
<text text-anchor="middle" x="365" y="-7.5" font-family="Times,serif" font-size="20.00">Core schema diagram: Features tables</text>
<g id="clust3" class="cluster">
<title>cluster_fundamental_tables</title>
<polygon fill="white" stroke="white" points="544.5,-172.5 544.5,-396.5 719.25,-396.5 719.25,-172.5 544.5,-172.5"/>
<text text-anchor="middle" x="631.88" y="-373.5" font-family="Times,serif" font-size="20.00">Fundamental Tables</text>
</g>
<g id="clust1" class="cluster">
<title>cluster_assembly_tables</title>
<polygon fill="white" stroke="white" points="557.12,-38.5 557.12,-164.5 706.62,-164.5 706.62,-38.5 557.12,-38.5"/>
<text text-anchor="middle" x="631.88" y="-141.5" font-family="Times,serif" font-size="20.00">Assembly Tables</text>
</g>
<g id="clust2" class="cluster">
<title>cluster_features</title>
<path fill="#d8efe2" stroke="#d8efe2" d="M20,-404.5C20,-404.5 710,-404.5 710,-404.5 716,-404.5 722,-410.5 722,-416.5 722,-416.5 722,-2778.5 722,-2778.5 722,-2784.5 716,-2790.5 710,-2790.5 710,-2790.5 20,-2790.5 20,-2790.5 14,-2790.5 8,-2784.5 8,-2778.5 8,-2778.5 8,-416.5 8,-416.5 8,-410.5 14,-404.5 20,-404.5"/>
<text text-anchor="middle" x="365" y="-2767.5" font-family="Times,serif" font-size="20.00">Features</text>
</g>
<!-- density_feature -->
<g id="node1" class="node">
<title>density_feature</title>
<path fill="#3cb371" stroke="black" d="M216.62,-2136.38C216.62,-2136.38 89.12,-2136.38 89.12,-2136.38 83.12,-2136.38 77.12,-2130.38 77.12,-2124.38 77.12,-2124.38 77.12,-1978.62 77.12,-1978.62 77.12,-1972.62 83.12,-1966.62 89.12,-1966.62 89.12,-1966.62 216.62,-1966.62 216.62,-1966.62 222.62,-1966.62 228.62,-1972.62 228.62,-1978.62 228.62,-1978.62 228.62,-2124.38 228.62,-2124.38 228.62,-2130.38 222.62,-2136.38 216.62,-2136.38"/>
<text text-anchor="start" x="103.75" y="-2113.18" font-family="Times,serif" font-size="16.00">density_feature</text>
<polygon fill="white" stroke="none" points="87.12,-2085.12 87.12,-2105.62 218.62,-2105.62 218.62,-2085.12 87.12,-2085.12"/>
<text text-anchor="start" x="89.12" y="-2091.32" font-family="Times,serif" font-weight="bold" font-size="14.00">PK</text>
<text text-anchor="start" x="108.62" y="-2091.32" font-family="Times,serif" font-size="14.00">  density_feature_id</text>
<polygon fill="white" stroke="none" points="87.12,-2062.62 87.12,-2083.12 218.62,-2083.12 218.62,-2062.62 87.12,-2062.62"/>
<text text-anchor="start" x="109.75" y="-2067.82" font-family="Times,serif" font-size="14.00">density_type_id</text>
<polygon fill="white" stroke="none" points="87.12,-2040.12 87.12,-2060.62 218.62,-2060.62 218.62,-2040.12 87.12,-2040.12"/>
<text text-anchor="start" x="114.62" y="-2045.33" font-family="Times,serif" font-size="14.00">seq_region_id</text>
<polygon fill="white" stroke="none" points="87.12,-2017.62 87.12,-2038.12 218.62,-2038.12 218.62,-2017.62 87.12,-2017.62"/>
<text text-anchor="start" x="108.25" y="-2022.83" font-family="Times,serif" font-size="14.00">seq_region_start</text>
<polygon fill="white" stroke="none" points="87.12,-1995.12 87.12,-2015.62 218.62,-2015.62 218.62,-1995.12 87.12,-1995.12"/>
<text text-anchor="start" x="110.12" y="-2000.33" font-family="Times,serif" font-size="14.00">seq_region_end</text>
<polygon fill="white" stroke="none" points="87.12,-1972.62 87.12,-1993.12 218.62,-1993.12 218.62,-1972.62 87.12,-1972.62"/>
<text text-anchor="start" x="115.38" y="-1977.83" font-family="Times,serif" font-size="14.00">density_value</text>
<polygon fill="black" stroke="black" points="85.12,-2106.62 85.12,-2106.62 220.62,-2106.62 220.62,-2106.62 85.12,-2106.62"/>
</g>
<!-- density_type -->
<g id="node2" class="node">
<title>density_type</title>
<path fill="#3cb371" stroke="black" d="M473.88,-2061.12C473.88,-2061.12 360.62,-2061.12 360.62,-2061.12 354.62,-2061.12 348.62,-2055.12 348.62,-2049.12 348.62,-2049.12 348.62,-1925.88 348.62,-1925.88 348.62,-1919.88 354.62,-1913.88 360.62,-1913.88 360.62,-1913.88 473.88,-1913.88 473.88,-1913.88 479.88,-1913.88 485.88,-1919.88 485.88,-1925.88 485.88,-1925.88 485.88,-2049.12 485.88,-2049.12 485.88,-2055.12 479.88,-2061.12 473.88,-2061.12"/>
<text text-anchor="start" x="376" y="-2037.92" font-family="Times,serif" font-size="16.00">density_type</text>
<polygon fill="white" stroke="none" points="358.62,-2009.88 358.62,-2030.38 475.88,-2030.38 475.88,-2009.88 358.62,-2009.88"/>
<text text-anchor="start" x="360.62" y="-2016.08" font-family="Times,serif" font-weight="bold" font-size="14.00">PK</text>
<text text-anchor="start" x="380.12" y="-2016.08" font-family="Times,serif" font-size="14.00">  density_type_id</text>
<polygon fill="white" stroke="none" points="358.62,-1987.38 358.62,-2007.88 475.88,-2007.88 475.88,-1987.38 358.62,-1987.38"/>
<text text-anchor="start" x="386.88" y="-1992.58" font-family="Times,serif" font-size="14.00">analysis_id</text>
<polygon fill="white" stroke="none" points="358.62,-1964.88 358.62,-1985.38 475.88,-1985.38 475.88,-1964.88 358.62,-1964.88"/>
<text text-anchor="start" x="388.38" y="-1970.08" font-family="Times,serif" font-size="14.00">block_size</text>
<polygon fill="white" stroke="none" points="358.62,-1942.38 358.62,-1962.88 475.88,-1962.88 475.88,-1942.38 358.62,-1942.38"/>
<text text-anchor="start" x="375.25" y="-1947.58" font-family="Times,serif" font-size="14.00">region_features</text>
<polygon fill="white" stroke="none" points="358.62,-1919.88 358.62,-1940.38 475.88,-1940.38 475.88,-1919.88 358.62,-1919.88"/>
<text text-anchor="start" x="387.62" y="-1925.08" font-family="Times,serif" font-size="14.00">value_type</text>
<polygon fill="black" stroke="black" points="356.62,-2031.38 356.62,-2031.38 477.88,-2031.38 477.88,-2031.38 356.62,-2031.38"/>
</g>
<!-- density_feature&#45;&gt;density_type -->
<g id="edge1" class="edge">
<title>density_feature:e&#45;&gt;density_type:w</title>
<path fill="none" stroke="black" stroke-dasharray="5,2" d="M219.88,-2072.5C281.33,-2072.5 290.97,-2026.42 346.35,-2021.01"/>
<polygon fill="black" stroke="black" points="346.43,-2024.47 356.25,-2020.5 346.1,-2017.48 346.43,-2024.47"/>
</g>
<!-- seq_region -->
<g id="node23" class="node">
<title>seq_region</title>
<path fill="#c70c09" stroke="black" d="M683.62,-126.38C683.62,-126.38 580.12,-126.38 580.12,-126.38 574.12,-126.38 568.12,-120.38 568.12,-114.38 568.12,-114.38 568.12,-58.62 568.12,-58.62 568.12,-52.62 574.12,-46.62 580.12,-46.62 580.12,-46.62 683.62,-46.62 683.62,-46.62 689.62,-46.62 695.62,-52.62 695.62,-58.62 695.62,-58.62 695.62,-114.38 695.62,-114.38 695.62,-120.38 689.62,-126.38 683.62,-126.38"/>
<text text-anchor="start" x="596.62" y="-103.17" font-family="Times,serif" font-size="16.00">seq_region</text>
<polygon fill="white" stroke="none" points="578.12,-75.12 578.12,-95.62 685.62,-95.62 685.62,-75.12 578.12,-75.12"/>
<text text-anchor="start" x="580.12" y="-81.33" font-family="Times,serif" font-weight="bold" font-size="14.00">PK</text>
<text text-anchor="start" x="599.62" y="-81.33" font-family="Times,serif" font-size="14.00">  seq_region_id</text>
<polygon fill="white" stroke="none" points="578.12,-52.62 578.12,-73.12 685.62,-73.12 685.62,-52.62 578.12,-52.62"/>
<text text-anchor="start" x="626.25" y="-58.83" font-family="Times,serif" font-style="italic" font-size="14.00">...</text>
<polygon fill="black" stroke="black" points="576.12,-96.62 576.12,-96.62 687.62,-96.62 687.62,-96.62 576.12,-96.62"/>
</g>
<!-- density_feature&#45;&gt;seq_region -->
<g id="edge2" class="edge">
<title>density_feature:e&#45;&gt;seq_region:w</title>
<path fill="none" stroke="black" stroke-dasharray="5,2" d="M219.88,-2050.5C271.58,-2050.5 272.13,-2006.11 289.75,-1957.5 316.4,-1883.97 276.49,-1315.25 325.75,-1254.5 351.96,-1222.18 403.6,-1270.14 416.25,-1230.5"/>
</g>
<!-- analysis -->
<g id="node21" class="node">
<title>analysis</title>
<path fill="#808000" stroke="black" d="M675.75,-260.38C675.75,-260.38 588,-260.38 588,-260.38 582,-260.38 576,-254.38 576,-248.38 576,-248.38 576,-192.62 576,-192.62 576,-186.62 582,-180.62 588,-180.62 588,-180.62 675.75,-180.62 675.75,-180.62 681.75,-180.62 687.75,-186.62 687.75,-192.62 687.75,-192.62 687.75,-248.38 687.75,-248.38 687.75,-254.38 681.75,-260.38 675.75,-260.38"/>
<text text-anchor="start" x="606.38" y="-237.18" font-family="Times,serif" font-size="16.00">analysis</text>
<polygon fill="white" stroke="none" points="586,-209.12 586,-229.62 677.75,-229.62 677.75,-209.12 586,-209.12"/>
<text text-anchor="start" x="588" y="-215.32" font-family="Times,serif" font-weight="bold" font-size="14.00">PK</text>
<text text-anchor="start" x="607.5" y="-215.32" font-family="Times,serif" font-size="14.00">  analysis_id</text>
<polygon fill="white" stroke="none" points="586,-186.62 586,-207.12 677.75,-207.12 677.75,-186.62 586,-186.62"/>
<text text-anchor="start" x="626.25" y="-192.82" font-family="Times,serif" font-style="italic" font-size="14.00">...</text>
<polygon fill="black" stroke="black" points="584,-230.62 584,-230.62 679.75,-230.62 679.75,-230.62 584,-230.62"/>
</g>
<!-- density_type&#45;&gt;analysis -->
<g id="edge3" class="edge">
<title>density_type:e&#45;&gt;analysis:w</title>
<path fill="none" stroke="black" stroke-dasharray="5,2" d="M477.25,-1997.5C520.89,-1997.5 501.19,-1947.48 508.75,-1904.5 540.25,-1725.54 482.09,-440.16 544.5,-269.5 552.89,-246.55 555.57,-226.28 574.05,-220.89"/>
<polygon fill="black" stroke="black" points="574.4,-224.25 583.88,-219.5 573.51,-217.31 574.4,-224.25"/>
</g>
<!-- ditag -->
<g id="node3" class="node">
<title>ditag</title>
<path fill="#3cb371" stroke="black" d="M452.88,-1520.12C452.88,-1520.12 381.62,-1520.12 381.62,-1520.12 375.62,-1520.12 369.62,-1514.12 369.62,-1508.12 369.62,-1508.12 369.62,-1384.88 369.62,-1384.88 369.62,-1378.88 375.62,-1372.88 381.62,-1372.88 381.62,-1372.88 452.88,-1372.88 452.88,-1372.88 458.88,-1372.88 464.88,-1378.88 464.88,-1384.88 464.88,-1384.88 464.88,-1508.12 464.88,-1508.12 464.88,-1514.12 458.88,-1520.12 452.88,-1520.12"/>
<text text-anchor="start" x="401.12" y="-1496.92" font-family="Times,serif" font-size="16.00">ditag</text>
<polygon fill="white" stroke="none" points="379.62,-1468.88 379.62,-1489.38 454.88,-1489.38 454.88,-1468.88 379.62,-1468.88"/>
<text text-anchor="start" x="381.62" y="-1475.08" font-family="Times,serif" font-weight="bold" font-size="14.00">PK</text>
<text text-anchor="start" x="401.12" y="-1475.08" font-family="Times,serif" font-size="14.00">  ditag_id</text>
<polygon fill="white" stroke="none" points="379.62,-1446.38 379.62,-1466.88 454.88,-1466.88 454.88,-1446.38 379.62,-1446.38"/>
<text text-anchor="start" x="402.25" y="-1451.58" font-family="Times,serif" font-size="14.00">name</text>
<polygon fill="white" stroke="none" points="379.62,-1423.88 379.62,-1444.38 454.88,-1444.38 454.88,-1423.88 379.62,-1423.88"/>
<text text-anchor="start" x="405.62" y="-1429.08" font-family="Times,serif" font-size="14.00">type</text>
<polygon fill="white" stroke="none" points="379.62,-1401.38 379.62,-1421.88 454.88,-1421.88 454.88,-1401.38 379.62,-1401.38"/>
<text text-anchor="start" x="390.62" y="-1406.58" font-family="Times,serif" font-size="14.00">tag_count</text>
<polygon fill="white" stroke="none" points="379.62,-1378.88 379.62,-1399.38 454.88,-1399.38 454.88,-1378.88 379.62,-1378.88"/>
<text text-anchor="start" x="392.5" y="-1384.08" font-family="Times,serif" font-size="14.00">sequence</text>
<polygon fill="black" stroke="black" points="377.62,-1490.38 377.62,-1490.38 456.88,-1490.38 456.88,-1490.38 377.62,-1490.38"/>
</g>
<!-- ditag_feature -->
<g id="node4" class="node">
<title>ditag_feature</title>
<path fill="#3cb371" stroke="black" d="M210.62,-1392.12C210.62,-1392.12 95.12,-1392.12 95.12,-1392.12 89.12,-1392.12 83.12,-1386.12 83.12,-1380.12 83.12,-1380.12 83.12,-1076.88 83.12,-1076.88 83.12,-1070.88 89.12,-1064.88 95.12,-1064.88 95.12,-1064.88 210.62,-1064.88 210.62,-1064.88 216.62,-1064.88 222.62,-1070.88 222.62,-1076.88 222.62,-1076.88 222.62,-1380.12 222.62,-1380.12 222.62,-1386.12 216.62,-1392.12 210.62,-1392.12"/>
<text text-anchor="start" x="110.88" y="-1368.92" font-family="Times,serif" font-size="16.00">ditag_feature</text>
<polygon fill="white" stroke="none" points="93.12,-1340.88 93.12,-1361.38 212.62,-1361.38 212.62,-1340.88 93.12,-1340.88"/>
<text text-anchor="start" x="95.12" y="-1347.08" font-family="Times,serif" font-weight="bold" font-size="14.00">PK</text>
<text text-anchor="start" x="114.62" y="-1347.08" font-family="Times,serif" font-size="14.00">  ditag_feature_id</text>
<polygon fill="white" stroke="none" points="93.12,-1318.38 93.12,-1338.88 212.62,-1338.88 212.62,-1318.38 93.12,-1318.38"/>
<text text-anchor="start" x="130.75" y="-1323.58" font-family="Times,serif" font-size="14.00">ditag_id</text>
<polygon fill="white" stroke="none" points="93.12,-1295.88 93.12,-1316.38 212.62,-1316.38 212.62,-1295.88 93.12,-1295.88"/>
<text text-anchor="start" x="116.88" y="-1301.08" font-family="Times,serif" font-size="14.00">ditag_pair_id</text>
<polygon fill="white" stroke="none" points="93.12,-1273.38 93.12,-1293.88 212.62,-1293.88 212.62,-1273.38 93.12,-1273.38"/>
<text text-anchor="start" x="114.62" y="-1278.58" font-family="Times,serif" font-size="14.00">seq_region_id</text>
<polygon fill="white" stroke="none" points="93.12,-1250.88 93.12,-1271.38 212.62,-1271.38 212.62,-1250.88 93.12,-1250.88"/>
<text text-anchor="start" x="108.25" y="-1256.08" font-family="Times,serif" font-size="14.00">seq_region_start</text>
<polygon fill="white" stroke="none" points="93.12,-1228.38 93.12,-1248.88 212.62,-1248.88 212.62,-1228.38 93.12,-1228.38"/>
<text text-anchor="start" x="110.12" y="-1233.58" font-family="Times,serif" font-size="14.00">seq_region_end</text>
<polygon fill="white" stroke="none" points="93.12,-1205.88 93.12,-1226.38 212.62,-1226.38 212.62,-1205.88 93.12,-1205.88"/>
<text text-anchor="start" x="103.38" y="-1211.08" font-family="Times,serif" font-size="14.00">seq_region_strand</text>
<polygon fill="white" stroke="none" points="93.12,-1183.38 93.12,-1203.88 212.62,-1203.88 212.62,-1183.38 93.12,-1183.38"/>
<text text-anchor="start" x="122.5" y="-1188.58" font-family="Times,serif" font-size="14.00">analysis_id</text>
<polygon fill="white" stroke="none" points="93.12,-1160.88 93.12,-1181.38 212.62,-1181.38 212.62,-1160.88 93.12,-1160.88"/>
<text text-anchor="start" x="130.75" y="-1166.08" font-family="Times,serif" font-size="14.00">hit_start</text>
<polygon fill="white" stroke="none" points="93.12,-1138.38 93.12,-1158.88 212.62,-1158.88 212.62,-1138.38 93.12,-1138.38"/>
<text text-anchor="start" x="132.62" y="-1143.58" font-family="Times,serif" font-size="14.00">hit_end</text>
<polygon fill="white" stroke="none" points="93.12,-1115.88 93.12,-1136.38 212.62,-1136.38 212.62,-1115.88 93.12,-1115.88"/>
<text text-anchor="start" x="125.88" y="-1121.08" font-family="Times,serif" font-size="14.00">hit_strand</text>
<polygon fill="white" stroke="none" points="93.12,-1093.38 93.12,-1113.88 212.62,-1113.88 212.62,-1093.38 93.12,-1093.38"/>
<text text-anchor="start" x="125.88" y="-1098.58" font-family="Times,serif" font-size="14.00">cigar_line</text>
<polygon fill="white" stroke="none" points="93.12,-1070.88 93.12,-1091.38 212.62,-1091.38 212.62,-1070.88 93.12,-1070.88"/>
<text text-anchor="start" x="125.12" y="-1076.08" font-family="Times,serif" font-size="14.00">ditag_side</text>
<polygon fill="black" stroke="black" points="91.12,-1362.38 91.12,-1362.38 214.62,-1362.38 214.62,-1362.38 91.12,-1362.38"/>
</g>
<!-- ditag_feature&#45;&gt;ditag -->
<g id="edge5" class="edge">
<title>ditag_feature:e&#45;&gt;ditag:w</title>
<path fill="none" stroke="black" stroke-dasharray="5,2" d="M213.88,-1328.5C309.3,-1328.5 281.45,-1468.22 367.48,-1478.86"/>
<polygon fill="black" stroke="black" points="367.06,-1482.4 377.25,-1479.5 367.48,-1475.41 367.06,-1482.4"/>
</g>
<!-- ditag_feature&#45;&gt;analysis -->
<g id="edge4" class="edge">
<title>ditag_feature:e&#45;&gt;analysis:w</title>
<path fill="none" stroke="black" stroke-dasharray="5,2" d="M213.88,-1193.5C340.77,-1193.5 469.76,-825.26 508.75,-704.5 541.09,-604.33 480.33,-245.96 574.01,-220.88"/>
<polygon fill="black" stroke="black" points="574.4,-224.24 583.88,-219.5 573.51,-217.29 574.4,-224.24"/>
</g>
<!-- ditag_feature&#45;&gt;seq_region -->
<g id="edge6" class="edge">
<title>ditag_feature:e&#45;&gt;seq_region:w</title>
<path fill="none" stroke="black" stroke-dasharray="5,2" d="M213.88,-1283.5C286.07,-1283.5 489.57,-774.1 508.75,-704.5 526.19,-641.18 509.56,-140.34 567,-89.64"/>
<polygon fill="black" stroke="black" points="568,-92.59 575.88,-85.5 565.3,-86.14 568,-92.59"/>
</g>
<!-- intron_supporting_evidence -->
<g id="node5" class="node">
<title>intron_supporting_evidence</title>
<path fill="#3cb371" stroke="black" d="M250.75,-814.38C250.75,-814.38 55,-814.38 55,-814.38 49,-814.38 43,-808.38 43,-802.38 43,-802.38 43,-566.62 43,-566.62 43,-560.62 49,-554.62 55,-554.62 55,-554.62 250.75,-554.62 250.75,-554.62 256.75,-554.62 262.75,-560.62 262.75,-566.62 262.75,-566.62 262.75,-802.38 262.75,-802.38 262.75,-808.38 256.75,-814.38 250.75,-814.38"/>
<text text-anchor="start" x="62.12" y="-791.17" font-family="Times,serif" font-size="16.00">intron_supporting_evidence</text>
<polygon fill="white" stroke="none" points="53,-763.12 53,-783.62 252.75,-783.62 252.75,-763.12 53,-763.12"/>
<text text-anchor="start" x="55" y="-769.33" font-family="Times,serif" font-weight="bold" font-size="14.00">PK</text>
<text text-anchor="start" x="74.5" y="-769.33" font-family="Times,serif" font-size="14.00">  intron_supporting_evidence_id</text>
<polygon fill="white" stroke="none" points="53,-740.62 53,-761.12 252.75,-761.12 252.75,-740.62 53,-740.62"/>
<text text-anchor="start" x="122.5" y="-745.83" font-family="Times,serif" font-size="14.00">analysis_id</text>
<polygon fill="white" stroke="none" points="53,-718.12 53,-738.62 252.75,-738.62 252.75,-718.12 53,-718.12"/>
<text text-anchor="start" x="114.62" y="-723.33" font-family="Times,serif" font-size="14.00">seq_region_id</text>
<polygon fill="white" stroke="none" points="53,-695.62 53,-716.12 252.75,-716.12 252.75,-695.62 53,-695.62"/>
<text text-anchor="start" x="108.25" y="-700.83" font-family="Times,serif" font-size="14.00">seq_region_start</text>
<polygon fill="white" stroke="none" points="53,-673.12 53,-693.62 252.75,-693.62 252.75,-673.12 53,-673.12"/>
<text text-anchor="start" x="110.12" y="-678.33" font-family="Times,serif" font-size="14.00">seq_region_end</text>
<polygon fill="white" stroke="none" points="53,-650.62 53,-671.12 252.75,-671.12 252.75,-650.62 53,-650.62"/>
<text text-anchor="start" x="103.38" y="-655.83" font-family="Times,serif" font-size="14.00">seq_region_strand</text>
<polygon fill="white" stroke="none" points="53,-628.12 53,-648.62 252.75,-648.62 252.75,-628.12 53,-628.12"/>
<text text-anchor="start" x="127.38" y="-633.33" font-family="Times,serif" font-size="14.00">hit_name</text>
<polygon fill="white" stroke="none" points="53,-605.62 53,-626.12 252.75,-626.12 252.75,-605.62 53,-605.62"/>
<text text-anchor="start" x="138.62" y="-610.83" font-family="Times,serif" font-size="14.00">score</text>
<polygon fill="white" stroke="none" points="53,-583.12 53,-603.62 252.75,-603.62 252.75,-583.12 53,-583.12"/>
<text text-anchor="start" x="123.62" y="-588.33" font-family="Times,serif" font-size="14.00">score_type</text>
<polygon fill="white" stroke="none" points="53,-560.62 53,-581.12 252.75,-581.12 252.75,-560.62 53,-560.62"/>
<text text-anchor="start" x="100" y="-565.83" font-family="Times,serif" font-size="14.00">is_splice_canonical</text>
<polygon fill="black" stroke="black" points="51,-784.62 51,-784.62 254.75,-784.62 254.75,-784.62 51,-784.62"/>
</g>
<!-- intron_supporting_evidence&#45;&gt;analysis -->
<g id="edge7" class="edge">
<title>intron_supporting_evidence:e&#45;&gt;analysis:w</title>
<path fill="none" stroke="black" stroke-dasharray="5,2" d="M418.25,-810.5C519.17,-739.4 490.33,-380.43 544.5,-269.5 555.27,-247.44 556.25,-226.37 574.44,-220.88"/>
<polygon fill="black" stroke="black" points="574.42,-224.28 583.88,-219.5 573.5,-217.34 574.42,-224.28"/>
<path fill="none" stroke="black" stroke-dasharray="5,2" d="M253.88,-750.5C330.81,-750.5 353.36,-854.81 416.25,-810.5"/>
</g>
<!-- intron_supporting_evidence&#45;&gt;seq_region -->
<g id="edge8" class="edge">
<title>intron_supporting_evidence:e&#45;&gt;seq_region:w</title>
<path fill="none" stroke="black" stroke-dasharray="5,2" d="M253.88,-728.5C569.94,-728.5 264.4,-100.48 565.89,-85.76"/>
<polygon fill="black" stroke="black" points="565.96,-89.24 575.88,-85.5 565.79,-82.24 565.96,-89.24"/>
</g>
<!-- map -->
<g id="node6" class="node">
<title>map</title>
<path fill="#3cb371" stroke="black" d="M451.38,-2742.38C451.38,-2742.38 383.12,-2742.38 383.12,-2742.38 377.12,-2742.38 371.12,-2736.38 371.12,-2730.38 371.12,-2730.38 371.12,-2674.62 371.12,-2674.62 371.12,-2668.62 377.12,-2662.62 383.12,-2662.62 383.12,-2662.62 451.38,-2662.62 451.38,-2662.62 457.38,-2662.62 463.38,-2668.62 463.38,-2674.62 463.38,-2674.62 463.38,-2730.38 463.38,-2730.38 463.38,-2736.38 457.38,-2742.38 451.38,-2742.38"/>
<text text-anchor="start" x="403.38" y="-2719.18" font-family="Times,serif" font-size="16.00">map</text>
<polygon fill="white" stroke="none" points="381.12,-2691.12 381.12,-2711.62 453.38,-2711.62 453.38,-2691.12 381.12,-2691.12"/>
<text text-anchor="start" x="383.12" y="-2697.32" font-family="Times,serif" font-weight="bold" font-size="14.00">PK</text>
<text text-anchor="start" x="402.62" y="-2697.32" font-family="Times,serif" font-size="14.00">  map_id</text>
<polygon fill="white" stroke="none" points="381.12,-2668.62 381.12,-2689.12 453.38,-2689.12 453.38,-2668.62 381.12,-2668.62"/>
<text text-anchor="start" x="386.88" y="-2673.82" font-family="Times,serif" font-size="14.00">map_name</text>
<polygon fill="black" stroke="black" points="379.12,-2712.62 379.12,-2712.62 455.38,-2712.62 455.38,-2712.62 379.12,-2712.62"/>
</g>
<!-- marker -->
<g id="node7" class="node">
<title>marker</title>
<path fill="#3cb371" stroke="black" d="M496.75,-2458.88C496.75,-2458.88 337.75,-2458.88 337.75,-2458.88 331.75,-2458.88 325.75,-2452.88 325.75,-2446.88 325.75,-2446.88 325.75,-2256.12 325.75,-2256.12 325.75,-2250.12 331.75,-2244.12 337.75,-2244.12 337.75,-2244.12 496.75,-2244.12 496.75,-2244.12 502.75,-2244.12 508.75,-2250.12 508.75,-2256.12 508.75,-2256.12 508.75,-2446.88 508.75,-2446.88 508.75,-2452.88 502.75,-2458.88 496.75,-2458.88"/>
<text text-anchor="start" x="394.75" y="-2435.68" font-family="Times,serif" font-size="16.00">marker</text>
<polygon fill="white" stroke="none" points="335.75,-2407.62 335.75,-2428.12 498.75,-2428.12 498.75,-2407.62 335.75,-2407.62"/>
<text text-anchor="start" x="375.62" y="-2413.82" font-family="Times,serif" font-weight="bold" font-size="14.00">PK</text>
<text text-anchor="start" x="395.12" y="-2413.82" font-family="Times,serif" font-size="14.00">  marker_id</text>
<polygon fill="white" stroke="none" points="335.75,-2385.12 335.75,-2405.62 498.75,-2405.62 498.75,-2385.12 335.75,-2385.12"/>
<text text-anchor="start" x="337.75" y="-2390.32" font-family="Times,serif" font-size="14.00">display_marker_synonym_id</text>
<polygon fill="white" stroke="none" points="335.75,-2362.62 335.75,-2383.12 498.75,-2383.12 498.75,-2362.62 335.75,-2362.62"/>
<text text-anchor="start" x="386.5" y="-2367.82" font-family="Times,serif" font-size="14.00">left_primer</text>
<polygon fill="white" stroke="none" points="335.75,-2340.12 335.75,-2360.62 498.75,-2360.62 498.75,-2340.12 335.75,-2340.12"/>
<text text-anchor="start" x="382.75" y="-2345.32" font-family="Times,serif" font-size="14.00">right_primer</text>
<polygon fill="white" stroke="none" points="335.75,-2317.62 335.75,-2338.12 498.75,-2338.12 498.75,-2317.62 335.75,-2317.62"/>
<text text-anchor="start" x="371.5" y="-2322.82" font-family="Times,serif" font-size="14.00">min_primer_dist</text>
<polygon fill="white" stroke="none" points="335.75,-2295.12 335.75,-2315.62 498.75,-2315.62 498.75,-2295.12 335.75,-2295.12"/>
<text text-anchor="start" x="370.38" y="-2300.32" font-family="Times,serif" font-size="14.00">max_primer_dist</text>
<polygon fill="white" stroke="none" points="335.75,-2272.62 335.75,-2293.12 498.75,-2293.12 498.75,-2272.62 335.75,-2272.62"/>
<text text-anchor="start" x="397" y="-2277.82" font-family="Times,serif" font-size="14.00">priority</text>
<polygon fill="white" stroke="none" points="335.75,-2250.12 335.75,-2270.62 498.75,-2270.62 498.75,-2250.12 335.75,-2250.12"/>
<text text-anchor="start" x="405.62" y="-2255.32" font-family="Times,serif" font-size="14.00">type</text>
<polygon fill="black" stroke="black" points="333.75,-2429.12 333.75,-2429.12 500.75,-2429.12 500.75,-2429.12 333.75,-2429.12"/>
</g>
<!-- marker_synonym -->
<g id="node10" class="node">
<title>marker_synonym</title>
<path fill="#3cb371" stroke="black" d="M702,-2480.88C702,-2480.88 561.75,-2480.88 561.75,-2480.88 555.75,-2480.88 549.75,-2474.88 549.75,-2468.88 549.75,-2468.88 549.75,-2368.12 549.75,-2368.12 549.75,-2362.12 555.75,-2356.12 561.75,-2356.12 561.75,-2356.12 702,-2356.12 702,-2356.12 708,-2356.12 714,-2362.12 714,-2368.12 714,-2368.12 714,-2468.88 714,-2468.88 714,-2474.88 708,-2480.88 702,-2480.88"/>
<text text-anchor="start" x="575.25" y="-2457.68" font-family="Times,serif" font-size="16.00">marker_synonym</text>
<polygon fill="white" stroke="none" points="559.75,-2429.62 559.75,-2450.12 704,-2450.12 704,-2429.62 559.75,-2429.62"/>
<text text-anchor="start" x="561.75" y="-2435.82" font-family="Times,serif" font-weight="bold" font-size="14.00">PK</text>
<text text-anchor="start" x="581.25" y="-2435.82" font-family="Times,serif" font-size="14.00">  marker_synonym_id</text>
<polygon fill="white" stroke="none" points="559.75,-2407.12 559.75,-2427.62 704,-2427.62 704,-2407.12 559.75,-2407.12"/>
<text text-anchor="start" x="603.75" y="-2412.32" font-family="Times,serif" font-size="14.00">marker_id</text>
<polygon fill="white" stroke="none" points="559.75,-2384.62 559.75,-2405.12 704,-2405.12 704,-2384.62 559.75,-2384.62"/>
<text text-anchor="start" x="614.25" y="-2389.82" font-family="Times,serif" font-size="14.00">source</text>
<polygon fill="white" stroke="none" points="559.75,-2362.12 559.75,-2382.62 704,-2382.62 704,-2362.12 559.75,-2362.12"/>
<text text-anchor="start" x="616.88" y="-2367.32" font-family="Times,serif" font-size="14.00">name</text>
<polygon fill="black" stroke="black" points="557.75,-2451.12 557.75,-2451.12 706,-2451.12 706,-2451.12 557.75,-2451.12"/>
</g>
<!-- marker&#45;&gt;marker_synonym -->
<g id="edge9" class="edge">
<title>marker:e&#45;&gt;marker_synonym:w</title>
<path fill="none" stroke="black" stroke-dasharray="5,2" d="M500.25,-2395.5C528.76,-2395.5 527.32,-2429.19 548.34,-2437.61"/>
<polygon fill="black" stroke="black" points="547.41,-2441.18 557.88,-2439.5 548.65,-2434.29 547.41,-2441.18"/>
</g>
<!-- marker_feature -->
<g id="node8" class="node">
<title>marker_feature</title>
<path fill="#3cb371" stroke="black" d="M216.62,-2346.62C216.62,-2346.62 89.12,-2346.62 89.12,-2346.62 83.12,-2346.62 77.12,-2340.62 77.12,-2334.62 77.12,-2334.62 77.12,-2166.38 77.12,-2166.38 77.12,-2160.38 83.12,-2154.38 89.12,-2154.38 89.12,-2154.38 216.62,-2154.38 216.62,-2154.38 222.62,-2154.38 228.62,-2160.38 228.62,-2166.38 228.62,-2166.38 228.62,-2334.62 228.62,-2334.62 228.62,-2340.62 222.62,-2346.62 216.62,-2346.62"/>
<text text-anchor="start" x="104.5" y="-2323.43" font-family="Times,serif" font-size="16.00">marker_feature</text>
<polygon fill="white" stroke="none" points="87.12,-2295.38 87.12,-2315.88 218.62,-2315.88 218.62,-2295.38 87.12,-2295.38"/>
<text text-anchor="start" x="89.12" y="-2301.57" font-family="Times,serif" font-weight="bold" font-size="14.00">PK</text>
<text text-anchor="start" x="108.62" y="-2301.57" font-family="Times,serif" font-size="14.00">  marker_feature_id</text>
<polygon fill="white" stroke="none" points="87.12,-2272.88 87.12,-2293.38 218.62,-2293.38 218.62,-2272.88 87.12,-2272.88"/>
<text text-anchor="start" x="124.75" y="-2278.07" font-family="Times,serif" font-size="14.00">marker_id</text>
<polygon fill="white" stroke="none" points="87.12,-2250.38 87.12,-2270.88 218.62,-2270.88 218.62,-2250.38 87.12,-2250.38"/>
<text text-anchor="start" x="114.62" y="-2255.57" font-family="Times,serif" font-size="14.00">seq_region_id</text>
<polygon fill="white" stroke="none" points="87.12,-2227.88 87.12,-2248.38 218.62,-2248.38 218.62,-2227.88 87.12,-2227.88"/>
<text text-anchor="start" x="108.25" y="-2233.07" font-family="Times,serif" font-size="14.00">seq_region_start</text>
<polygon fill="white" stroke="none" points="87.12,-2205.38 87.12,-2225.88 218.62,-2225.88 218.62,-2205.38 87.12,-2205.38"/>
<text text-anchor="start" x="110.12" y="-2210.57" font-family="Times,serif" font-size="14.00">seq_region_end</text>
<polygon fill="white" stroke="none" points="87.12,-2182.88 87.12,-2203.38 218.62,-2203.38 218.62,-2182.88 87.12,-2182.88"/>
<text text-anchor="start" x="122.5" y="-2188.07" font-family="Times,serif" font-size="14.00">analysis_id</text>
<polygon fill="white" stroke="none" points="87.12,-2160.38 87.12,-2180.88 218.62,-2180.88 218.62,-2160.38 87.12,-2160.38"/>
<text text-anchor="start" x="119.12" y="-2165.57" font-family="Times,serif" font-size="14.00">map_weight</text>
<polygon fill="black" stroke="black" points="85.12,-2316.88 85.12,-2316.88 220.62,-2316.88 220.62,-2316.88 85.12,-2316.88"/>
</g>
<!-- marker_feature&#45;&gt;marker -->
<g id="edge11" class="edge">
<title>marker_feature:e&#45;&gt;marker:w</title>
<path fill="none" stroke="black" stroke-dasharray="5,2" d="M219.88,-2283.5C264.47,-2283.5 261.14,-2321.29 289.75,-2355.5 308.79,-2378.27 302.61,-2408.66 323.49,-2415.9"/>
<polygon fill="black" stroke="black" points="322.84,-2419.49 333.25,-2417.5 323.87,-2412.57 322.84,-2419.49"/>
</g>
<!-- marker_feature&#45;&gt;analysis -->
<g id="edge10" class="edge">
<title>marker_feature:e&#45;&gt;analysis:w</title>
<path fill="none" stroke="black" stroke-dasharray="5,2" d="M219.88,-2193.5C257.55,-2193.5 271.47,-2178.45 289.75,-2145.5 377.7,-1986.97 225.22,-1481.36 325.75,-1330.5 375.58,-1255.72 459.2,-1319.47 508.75,-1244.5 568.53,-1154.06 506.52,-371.03 544.5,-269.5 553.06,-246.61 555.62,-226.29 574.06,-220.9"/>
<polygon fill="black" stroke="black" points="574.41,-224.25 583.88,-219.5 573.51,-217.31 574.41,-224.25"/>
</g>
<!-- marker_feature&#45;&gt;seq_region -->
<g id="edge12" class="edge">
<title>marker_feature:e&#45;&gt;seq_region:w</title>
<path fill="none" stroke="black" stroke-dasharray="5,2" d="M219.88,-2260.5C279.68,-2260.5 272.37,-2202.73 289.75,-2145.5 316.41,-2057.7 273.16,-1395.69 325.75,-1320.5 376.23,-1248.33 458.65,-1316.93 508.75,-1244.5 579.99,-1141.52 455.56,-146.38 566.2,-88.16"/>
<polygon fill="black" stroke="black" points="567.02,-91.32 575.88,-85.5 565.33,-84.52 567.02,-91.32"/>
</g>
<!-- marker_map_location -->
<g id="node9" class="node">
<title>marker_map_location</title>
<path fill="#3cb371" stroke="black" d="M223.38,-2752.38C223.38,-2752.38 82.38,-2752.38 82.38,-2752.38 76.38,-2752.38 70.38,-2746.38 70.38,-2740.38 70.38,-2740.38 70.38,-2594.62 70.38,-2594.62 70.38,-2588.62 76.38,-2582.62 82.38,-2582.62 82.38,-2582.62 223.38,-2582.62 223.38,-2582.62 229.38,-2582.62 235.38,-2588.62 235.38,-2594.62 235.38,-2594.62 235.38,-2740.38 235.38,-2740.38 235.38,-2746.38 229.38,-2752.38 223.38,-2752.38"/>
<text text-anchor="start" x="82.38" y="-2729.18" font-family="Times,serif" font-size="16.00">marker_map_location</text>
<polygon fill="white" stroke="none" points="80.38,-2701.12 80.38,-2721.62 225.38,-2721.62 225.38,-2701.12 80.38,-2701.12"/>
<text text-anchor="start" x="111.25" y="-2707.32" font-family="Times,serif" font-weight="bold" font-size="14.00">PK</text>
<text text-anchor="start" x="130.75" y="-2707.32" font-family="Times,serif" font-size="14.00">  marker_id</text>
<polygon fill="white" stroke="none" points="80.38,-2678.62 80.38,-2699.12 225.38,-2699.12 225.38,-2678.62 80.38,-2678.62"/>
<text text-anchor="start" x="118.75" y="-2684.82" font-family="Times,serif" font-weight="bold" font-size="14.00">PK</text>
<text text-anchor="start" x="138.25" y="-2684.82" font-family="Times,serif" font-size="14.00">  map_id</text>
<polygon fill="white" stroke="none" points="80.38,-2656.12 80.38,-2676.62 225.38,-2676.62 225.38,-2656.12 80.38,-2656.12"/>
<text text-anchor="start" x="98.88" y="-2661.32" font-family="Times,serif" font-size="14.00">chromosome_name</text>
<polygon fill="white" stroke="none" points="80.38,-2633.62 80.38,-2654.12 225.38,-2654.12 225.38,-2633.62 80.38,-2633.62"/>
<text text-anchor="start" x="96.25" y="-2638.82" font-family="Times,serif" font-size="14.00">marker_synonym_id</text>
<polygon fill="white" stroke="none" points="80.38,-2611.12 80.38,-2631.62 225.38,-2631.62 225.38,-2611.12 80.38,-2611.12"/>
<text text-anchor="start" x="131.12" y="-2616.32" font-family="Times,serif" font-size="14.00">position</text>
<polygon fill="white" stroke="none" points="80.38,-2588.62 80.38,-2609.12 225.38,-2609.12 225.38,-2588.62 80.38,-2588.62"/>
<text text-anchor="start" x="126.62" y="-2593.82" font-family="Times,serif" font-size="14.00">lod_score</text>
<polygon fill="black" stroke="black" points="78.38,-2722.62 78.38,-2722.62 227.38,-2722.62 227.38,-2722.62 78.38,-2722.62"/>
</g>
<!-- marker_map_location&#45;&gt;map -->
<g id="edge13" class="edge">
<title>marker_map_location:e&#45;&gt;map:w</title>
<path fill="none" stroke="black" stroke-dasharray="5,2" d="M226.88,-2688.5C291.54,-2688.5 309.87,-2700.12 369.47,-2701.39"/>
<polygon fill="black" stroke="black" points="369.21,-2704.9 379.25,-2701.5 369.29,-2697.9 369.21,-2704.9"/>
</g>
<!-- marker_map_location&#45;&gt;marker -->
<g id="edge14" class="edge">
<title>marker_map_location:e&#45;&gt;marker:w</title>
<path fill="none" stroke="black" stroke-dasharray="5,2" d="M226.88,-2711.5C294.27,-2711.5 266.47,-2636.75 289.75,-2573.5 313.29,-2509.54 267.66,-2427.1 323.51,-2418.27"/>
<polygon fill="black" stroke="black" points="323.53,-2421.71 333.25,-2417.5 323.02,-2414.73 323.53,-2421.71"/>
</g>
<!-- marker_map_location&#45;&gt;marker_synonym -->
<g id="edge15" class="edge">
<title>marker_map_location:e&#45;&gt;marker_synonym:w</title>
<path fill="none" stroke="black" stroke-dasharray="5,2" d="M226.88,-2643.5C258.21,-2643.5 484.32,-2653.13 508.75,-2633.5 575.06,-2580.24 479.2,-2451.75 548.03,-2440.32"/>
<polygon fill="black" stroke="black" points="548.17,-2443.74 557.88,-2439.5 547.64,-2436.76 548.17,-2443.74"/>
</g>
<!-- marker_synonym&#45;&gt;marker -->
<g id="edge16" class="edge">
<title>marker_synonym:e&#45;&gt;marker:w</title>
<path fill="none" stroke="black" stroke-dasharray="5,2" d="M704.88,-2417.5C732.16,-2417.5 723.32,-2375.26 703.88,-2356.12 655.05,-2308.08 606.46,-2317.7 549.75,-2356.12 509.05,-2383.71 549.45,-2431.29 508.75,-2458.88 492.79,-2469.69 349.05,-2472.34 335.25,-2458.88 325.48,-2449.34 319.53,-2431.17 324.63,-2422.43"/>
<polygon fill="black" stroke="black" points="325.95,-2425.18 333.25,-2417.5 322.75,-2418.95 325.95,-2425.18"/>
</g>
<!-- misc_attrib -->
<g id="node11" class="node">
<title>misc_attrib</title>
<path fill="#3cb371" stroke="black" d="M196.75,-2466.62C196.75,-2466.62 109,-2466.62 109,-2466.62 103,-2466.62 97,-2460.62 97,-2454.62 97,-2454.62 97,-2376.38 97,-2376.38 97,-2370.38 103,-2364.38 109,-2364.38 109,-2364.38 196.75,-2364.38 196.75,-2364.38 202.75,-2364.38 208.75,-2370.38 208.75,-2376.38 208.75,-2376.38 208.75,-2454.62 208.75,-2454.62 208.75,-2460.62 202.75,-2466.62 196.75,-2466.62"/>
<text text-anchor="start" x="116.88" y="-2443.43" font-family="Times,serif" font-size="16.00">misc_attrib</text>
<polygon fill="white" stroke="none" points="107,-2415.38 107,-2435.88 198.75,-2435.88 198.75,-2415.38 107,-2415.38"/>
<text text-anchor="start" x="109" y="-2420.57" font-family="Times,serif" font-size="14.00">misc_feature_id</text>
<polygon fill="white" stroke="none" points="107,-2392.88 107,-2413.38 198.75,-2413.38 198.75,-2392.88 107,-2392.88"/>
<text text-anchor="start" x="115" y="-2398.07" font-family="Times,serif" font-size="14.00">attrib_type_id</text>
<polygon fill="white" stroke="none" points="107,-2370.38 107,-2390.88 198.75,-2390.88 198.75,-2370.38 107,-2370.38"/>
<text text-anchor="start" x="138.25" y="-2375.57" font-family="Times,serif" font-size="14.00">value</text>
<polygon fill="black" stroke="black" points="105,-2436.88 105,-2436.88 200.75,-2436.88 200.75,-2436.88 105,-2436.88"/>
</g>
<!-- misc_feature -->
<g id="node12" class="node">
<title>misc_feature</title>
<path fill="#3cb371" stroke="black" d="M474.62,-2226.12C474.62,-2226.12 359.88,-2226.12 359.88,-2226.12 353.88,-2226.12 347.88,-2220.12 347.88,-2214.12 347.88,-2214.12 347.88,-2090.88 347.88,-2090.88 347.88,-2084.88 353.88,-2078.88 359.88,-2078.88 359.88,-2078.88 474.62,-2078.88 474.62,-2078.88 480.62,-2078.88 486.62,-2084.88 486.62,-2090.88 486.62,-2090.88 486.62,-2214.12 486.62,-2214.12 486.62,-2220.12 480.62,-2226.12 474.62,-2226.12"/>
<text text-anchor="start" x="376.38" y="-2202.93" font-family="Times,serif" font-size="16.00">misc_feature</text>
<polygon fill="white" stroke="none" points="357.88,-2174.88 357.88,-2195.38 476.62,-2195.38 476.62,-2174.88 357.88,-2174.88"/>
<text text-anchor="start" x="359.88" y="-2181.07" font-family="Times,serif" font-weight="bold" font-size="14.00">PK</text>
<text text-anchor="start" x="379.38" y="-2181.07" font-family="Times,serif" font-size="14.00">  misc_feature_id</text>
<polygon fill="white" stroke="none" points="357.88,-2152.38 357.88,-2172.88 476.62,-2172.88 476.62,-2152.38 357.88,-2152.38"/>
<text text-anchor="start" x="379" y="-2157.57" font-family="Times,serif" font-size="14.00">seq_region_id</text>
<polygon fill="white" stroke="none" points="357.88,-2129.88 357.88,-2150.38 476.62,-2150.38 476.62,-2129.88 357.88,-2129.88"/>
<text text-anchor="start" x="372.62" y="-2135.07" font-family="Times,serif" font-size="14.00">seq_region_start</text>
<polygon fill="white" stroke="none" points="357.88,-2107.38 357.88,-2127.88 476.62,-2127.88 476.62,-2107.38 357.88,-2107.38"/>
<text text-anchor="start" x="374.5" y="-2112.57" font-family="Times,serif" font-size="14.00">seq_region_end</text>
<polygon fill="white" stroke="none" points="357.88,-2084.88 357.88,-2105.38 476.62,-2105.38 476.62,-2084.88 357.88,-2084.88"/>
<text text-anchor="start" x="367.75" y="-2090.07" font-family="Times,serif" font-size="14.00">seq_region_strand</text>
<polygon fill="black" stroke="black" points="355.88,-2196.38 355.88,-2196.38 478.62,-2196.38 478.62,-2196.38 355.88,-2196.38"/>
</g>
<!-- misc_attrib&#45;&gt;misc_feature -->
<g id="edge18" class="edge">
<title>misc_attrib:e&#45;&gt;misc_feature:w</title>
<path fill="none" stroke="black" stroke-dasharray="5,2" d="M199.88,-2425.5C250.51,-2425.5 261.15,-2397.28 289.75,-2355.5 333.43,-2291.69 281.54,-2195.47 346.32,-2186.22"/>
<polygon fill="black" stroke="black" points="346.5,-2189.65 356.25,-2185.5 346.04,-2182.67 346.5,-2189.65"/>
</g>
<!-- attrib_type -->
<g id="node22" class="node">
<title>attrib_type</title>
<path fill="#808000" stroke="black" d="M683.25,-358.38C683.25,-358.38 580.5,-358.38 580.5,-358.38 574.5,-358.38 568.5,-352.38 568.5,-346.38 568.5,-346.38 568.5,-290.62 568.5,-290.62 568.5,-284.62 574.5,-278.62 580.5,-278.62 580.5,-278.62 683.25,-278.62 683.25,-278.62 689.25,-278.62 695.25,-284.62 695.25,-290.62 695.25,-290.62 695.25,-346.38 695.25,-346.38 695.25,-352.38 689.25,-358.38 683.25,-358.38"/>
<text text-anchor="start" x="597" y="-335.18" font-family="Times,serif" font-size="16.00">attrib_type</text>
<polygon fill="white" stroke="none" points="578.5,-307.12 578.5,-327.62 685.25,-327.62 685.25,-307.12 578.5,-307.12"/>
<text text-anchor="start" x="580.5" y="-313.32" font-family="Times,serif" font-weight="bold" font-size="14.00">PK</text>
<text text-anchor="start" x="600" y="-313.32" font-family="Times,serif" font-size="14.00">  attrib_type_id</text>
<polygon fill="white" stroke="none" points="578.5,-284.62 578.5,-305.12 685.25,-305.12 685.25,-284.62 578.5,-284.62"/>
<text text-anchor="start" x="626.25" y="-290.82" font-family="Times,serif" font-style="italic" font-size="14.00">...</text>
<polygon fill="black" stroke="black" points="576.5,-328.62 576.5,-328.62 687.25,-328.62 687.25,-328.62 576.5,-328.62"/>
</g>
<!-- misc_attrib&#45;&gt;attrib_type -->
<g id="edge17" class="edge">
<title>misc_attrib:e&#45;&gt;attrib_type:w</title>
<path fill="none" stroke="black" stroke-dasharray="5,2" d="M199.88,-2403.5C245.16,-2403.5 265.76,-2393.91 289.75,-2355.5 348.18,-2261.95 255.7,-1448.69 325.75,-1363.5 378.81,-1298.96 455.61,-1384.97 508.75,-1320.5 577.45,-1237.17 473.51,-377.47 567.48,-320.47"/>
<polygon fill="black" stroke="black" points="568.22,-323.61 576.88,-317.5 566.3,-316.88 568.22,-323.61"/>
</g>
<!-- misc_feature&#45;&gt;seq_region -->
<g id="edge19" class="edge">
<title>misc_feature:e&#45;&gt;seq_region:w</title>
<path fill="none" stroke="black" stroke-dasharray="5,2" d="M477.25,-2162.5C520.47,-2162.5 501.25,-2113.06 508.75,-2070.5 582.08,-1654.17 462.44,-583.2 544.5,-168.5 551.38,-133.75 540.17,-94.76 566.07,-86.92"/>
<polygon fill="black" stroke="black" points="566.41,-90.27 575.88,-85.5 565.5,-83.33 566.41,-90.27"/>
</g>
<!-- misc_feature_misc_set -->
<g id="node13" class="node">
<title>misc_feature_misc_set</title>
<path fill="#3cb371" stroke="black" d="M225.62,-2564.38C225.62,-2564.38 80.12,-2564.38 80.12,-2564.38 74.12,-2564.38 68.12,-2558.38 68.12,-2552.38 68.12,-2552.38 68.12,-2496.62 68.12,-2496.62 68.12,-2490.62 74.12,-2484.62 80.12,-2484.62 80.12,-2484.62 225.62,-2484.62 225.62,-2484.62 231.62,-2484.62 237.62,-2490.62 237.62,-2496.62 237.62,-2496.62 237.62,-2552.38 237.62,-2552.38 237.62,-2558.38 231.62,-2564.38 225.62,-2564.38"/>
<text text-anchor="start" x="80.12" y="-2541.18" font-family="Times,serif" font-size="16.00">misc_feature_misc_set</text>
<polygon fill="white" stroke="none" points="78.12,-2513.12 78.12,-2533.62 227.62,-2533.62 227.62,-2513.12 78.12,-2513.12"/>
<text text-anchor="start" x="95.5" y="-2519.32" font-family="Times,serif" font-weight="bold" font-size="14.00">PK</text>
<text text-anchor="start" x="115" y="-2519.32" font-family="Times,serif" font-size="14.00">  misc_feature_id</text>
<polygon fill="white" stroke="none" points="78.12,-2490.62 78.12,-2511.12 227.62,-2511.12 227.62,-2490.62 78.12,-2490.62"/>
<text text-anchor="start" x="106.75" y="-2496.82" font-family="Times,serif" font-weight="bold" font-size="14.00">PK</text>
<text text-anchor="start" x="126.25" y="-2496.82" font-family="Times,serif" font-size="14.00">  misc_set_id</text>
<polygon fill="black" stroke="black" points="76.12,-2534.62 76.12,-2534.62 229.62,-2534.62 229.62,-2534.62 76.12,-2534.62"/>
</g>
<!-- misc_feature_misc_set&#45;&gt;misc_feature -->
<g id="edge20" class="edge">
<title>misc_feature_misc_set:e&#45;&gt;misc_feature:w</title>
<path fill="none" stroke="black" stroke-dasharray="5,2" d="M228.88,-2523.5C263.33,-2523.5 272.45,-2505.3 289.75,-2475.5 354.25,-2364.41 232.44,-2195.73 346.29,-2185.95"/>
<polygon fill="black" stroke="black" points="346.4,-2189.4 356.25,-2185.5 346.12,-2182.41 346.4,-2189.4"/>
</g>
<!-- misc_set -->
<g id="node14" class="node">
<title>misc_set</title>
<path fill="#3cb371" stroke="black" d="M463.38,-2624.12C463.38,-2624.12 371.12,-2624.12 371.12,-2624.12 365.12,-2624.12 359.12,-2618.12 359.12,-2612.12 359.12,-2612.12 359.12,-2488.88 359.12,-2488.88 359.12,-2482.88 365.12,-2476.88 371.12,-2476.88 371.12,-2476.88 463.38,-2476.88 463.38,-2476.88 469.38,-2476.88 475.38,-2482.88 475.38,-2488.88 475.38,-2488.88 475.38,-2612.12 475.38,-2612.12 475.38,-2618.12 469.38,-2624.12 463.38,-2624.12"/>
<text text-anchor="start" x="389.5" y="-2600.93" font-family="Times,serif" font-size="16.00">misc_set</text>
<polygon fill="white" stroke="none" points="369.12,-2572.88 369.12,-2593.38 465.38,-2593.38 465.38,-2572.88 369.12,-2572.88"/>
<text text-anchor="start" x="371.12" y="-2579.07" font-family="Times,serif" font-weight="bold" font-size="14.00">PK</text>
<text text-anchor="start" x="390.62" y="-2579.07" font-family="Times,serif" font-size="14.00">  misc_set_id</text>
<polygon fill="white" stroke="none" points="369.12,-2550.38 369.12,-2570.88 465.38,-2570.88 465.38,-2550.38 369.12,-2550.38"/>
<text text-anchor="start" x="404.5" y="-2555.57" font-family="Times,serif" font-size="14.00">code</text>
<polygon fill="white" stroke="none" points="369.12,-2527.88 369.12,-2548.38 465.38,-2548.38 465.38,-2527.88 369.12,-2527.88"/>
<text text-anchor="start" x="402.25" y="-2533.07" font-family="Times,serif" font-size="14.00">name</text>
<polygon fill="white" stroke="none" points="369.12,-2505.38 369.12,-2525.88 465.38,-2525.88 465.38,-2505.38 369.12,-2505.38"/>
<text text-anchor="start" x="387.25" y="-2510.57" font-family="Times,serif" font-size="14.00">description</text>
<polygon fill="white" stroke="none" points="369.12,-2482.88 369.12,-2503.38 465.38,-2503.38 465.38,-2482.88 369.12,-2482.88"/>
<text text-anchor="start" x="385" y="-2488.07" font-family="Times,serif" font-size="14.00">max_length</text>
<polygon fill="black" stroke="black" points="367.12,-2594.38 367.12,-2594.38 467.38,-2594.38 467.38,-2594.38 367.12,-2594.38"/>
</g>
<!-- misc_feature_misc_set&#45;&gt;misc_set -->
<g id="edge21" class="edge">
<title>misc_feature_misc_set:e&#45;&gt;misc_set:w</title>
<path fill="none" stroke="black" stroke-dasharray="5,2" d="M228.88,-2500.5C297.17,-2500.5 296.45,-2574.98 357.46,-2582.83"/>
<polygon fill="black" stroke="black" points="357.05,-2586.38 367.25,-2583.5 357.49,-2579.39 357.05,-2586.38"/>
</g>
<!-- prediction_exon -->
<g id="node15" class="node">
<title>prediction_exon</title>
<path fill="#3cb371" stroke="black" d="M218.88,-1948.38C218.88,-1948.38 86.88,-1948.38 86.88,-1948.38 80.88,-1948.38 74.88,-1942.38 74.88,-1936.38 74.88,-1936.38 74.88,-1700.62 74.88,-1700.62 74.88,-1694.62 80.88,-1688.62 86.88,-1688.62 86.88,-1688.62 218.88,-1688.62 218.88,-1688.62 224.88,-1688.62 230.88,-1694.62 230.88,-1700.62 230.88,-1700.62 230.88,-1936.38 230.88,-1936.38 230.88,-1942.38 224.88,-1948.38 218.88,-1948.38"/>
<text text-anchor="start" x="100.38" y="-1925.17" font-family="Times,serif" font-size="16.00">prediction_exon</text>
<polygon fill="white" stroke="none" points="84.88,-1897.12 84.88,-1917.62 220.88,-1917.62 220.88,-1897.12 84.88,-1897.12"/>
<text text-anchor="start" x="86.88" y="-1903.33" font-family="Times,serif" font-weight="bold" font-size="14.00">PK</text>
<text text-anchor="start" x="106.38" y="-1903.33" font-family="Times,serif" font-size="14.00">  prediction_exon_id</text>
<polygon fill="white" stroke="none" points="84.88,-1874.62 84.88,-1895.12 220.88,-1895.12 220.88,-1874.62 84.88,-1874.62"/>
<text text-anchor="start" x="88" y="-1879.83" font-family="Times,serif" font-size="14.00">prediction_transcript_id</text>
<polygon fill="white" stroke="none" points="84.88,-1852.12 84.88,-1872.62 220.88,-1872.62 220.88,-1852.12 84.88,-1852.12"/>
<text text-anchor="start" x="124.38" y="-1857.33" font-family="Times,serif" font-size="14.00">exon_rank</text>
<polygon fill="white" stroke="none" points="84.88,-1829.62 84.88,-1850.12 220.88,-1850.12 220.88,-1829.62 84.88,-1829.62"/>
<text text-anchor="start" x="114.62" y="-1834.83" font-family="Times,serif" font-size="14.00">seq_region_id</text>
<polygon fill="white" stroke="none" points="84.88,-1807.12 84.88,-1827.62 220.88,-1827.62 220.88,-1807.12 84.88,-1807.12"/>
<text text-anchor="start" x="108.25" y="-1812.33" font-family="Times,serif" font-size="14.00">seq_region_start</text>
<polygon fill="white" stroke="none" points="84.88,-1784.62 84.88,-1805.12 220.88,-1805.12 220.88,-1784.62 84.88,-1784.62"/>
<text text-anchor="start" x="110.12" y="-1789.83" font-family="Times,serif" font-size="14.00">seq_region_end</text>
<polygon fill="white" stroke="none" points="84.88,-1762.12 84.88,-1782.62 220.88,-1782.62 220.88,-1762.12 84.88,-1762.12"/>
<text text-anchor="start" x="103.38" y="-1767.33" font-family="Times,serif" font-size="14.00">seq_region_strand</text>
<polygon fill="white" stroke="none" points="84.88,-1739.62 84.88,-1760.12 220.88,-1760.12 220.88,-1739.62 84.88,-1739.62"/>
<text text-anchor="start" x="122.5" y="-1744.83" font-family="Times,serif" font-size="14.00">start_phase</text>
<polygon fill="white" stroke="none" points="84.88,-1717.12 84.88,-1737.62 220.88,-1737.62 220.88,-1717.12 84.88,-1717.12"/>
<text text-anchor="start" x="138.62" y="-1722.33" font-family="Times,serif" font-size="14.00">score</text>
<polygon fill="white" stroke="none" points="84.88,-1694.62 84.88,-1715.12 220.88,-1715.12 220.88,-1694.62 84.88,-1694.62"/>
<text text-anchor="start" x="131.5" y="-1699.83" font-family="Times,serif" font-size="14.00">p_value</text>
<polygon fill="black" stroke="black" points="82.88,-1918.62 82.88,-1918.62 222.88,-1918.62 222.88,-1918.62 82.88,-1918.62"/>
</g>
<!-- prediction_transcript -->
<g id="node16" class="node">
<title>prediction_transcript</title>
<path fill="#3cb371" stroke="black" d="M495.62,-1895.62C495.62,-1895.62 338.88,-1895.62 338.88,-1895.62 332.88,-1895.62 326.88,-1889.62 326.88,-1883.62 326.88,-1883.62 326.88,-1715.38 326.88,-1715.38 326.88,-1709.38 332.88,-1703.38 338.88,-1703.38 338.88,-1703.38 495.62,-1703.38 495.62,-1703.38 501.62,-1703.38 507.62,-1709.38 507.62,-1715.38 507.62,-1715.38 507.62,-1883.62 507.62,-1883.62 507.62,-1889.62 501.62,-1895.62 495.62,-1895.62"/>
<text text-anchor="start" x="350.5" y="-1872.42" font-family="Times,serif" font-size="16.00">prediction_transcript</text>
<polygon fill="white" stroke="none" points="336.88,-1844.38 336.88,-1864.88 497.62,-1864.88 497.62,-1844.38 336.88,-1844.38"/>
<text text-anchor="start" x="338.88" y="-1850.58" font-family="Times,serif" font-weight="bold" font-size="14.00">PK</text>
<text text-anchor="start" x="358.38" y="-1850.58" font-family="Times,serif" font-size="14.00">  prediction_transcript_id</text>
<polygon fill="white" stroke="none" points="336.88,-1821.88 336.88,-1842.38 497.62,-1842.38 497.62,-1821.88 336.88,-1821.88"/>
<text text-anchor="start" x="379" y="-1827.08" font-family="Times,serif" font-size="14.00">seq_region_id</text>
<polygon fill="white" stroke="none" points="336.88,-1799.38 336.88,-1819.88 497.62,-1819.88 497.62,-1799.38 336.88,-1799.38"/>
<text text-anchor="start" x="372.62" y="-1804.58" font-family="Times,serif" font-size="14.00">seq_region_start</text>
<polygon fill="white" stroke="none" points="336.88,-1776.88 336.88,-1797.38 497.62,-1797.38 497.62,-1776.88 336.88,-1776.88"/>
<text text-anchor="start" x="374.5" y="-1782.08" font-family="Times,serif" font-size="14.00">seq_region_end</text>
<polygon fill="white" stroke="none" points="336.88,-1754.38 336.88,-1774.88 497.62,-1774.88 497.62,-1754.38 336.88,-1754.38"/>
<text text-anchor="start" x="367.75" y="-1759.58" font-family="Times,serif" font-size="14.00">seq_region_strand</text>
<polygon fill="white" stroke="none" points="336.88,-1731.88 336.88,-1752.38 497.62,-1752.38 497.62,-1731.88 336.88,-1731.88"/>
<text text-anchor="start" x="386.88" y="-1737.08" font-family="Times,serif" font-size="14.00">analysis_id</text>
<polygon fill="white" stroke="none" points="336.88,-1709.38 336.88,-1729.88 497.62,-1729.88 497.62,-1709.38 336.88,-1709.38"/>
<text text-anchor="start" x="381.25" y="-1714.58" font-family="Times,serif" font-size="14.00">display_label</text>
<polygon fill="black" stroke="black" points="334.88,-1865.88 334.88,-1865.88 499.62,-1865.88 499.62,-1865.88 334.88,-1865.88"/>
</g>
<!-- prediction_exon&#45;&gt;prediction_transcript -->
<g id="edge22" class="edge">
<title>prediction_exon:e&#45;&gt;prediction_transcript:w</title>
<path fill="none" stroke="black" stroke-dasharray="5,2" d="M221.88,-1884.5C270.63,-1884.5 282.13,-1858.68 325.5,-1854.95"/>
<polygon fill="black" stroke="black" points="325.4,-1858.41 335.25,-1854.5 325.11,-1851.42 325.4,-1858.41"/>
</g>
<!-- prediction_exon&#45;&gt;seq_region -->
<g id="edge23" class="edge">
<title>prediction_exon:e&#45;&gt;seq_region:w</title>
<path fill="none" stroke="black" stroke-dasharray="5,2" d="M221.88,-1839.5C299.12,-1839.5 271.17,-1754.48 289.75,-1679.5 312.54,-1587.5 264.83,-1327.11 325.75,-1254.5 352.5,-1222.62 403.6,-1270.14 416.25,-1230.5"/>
</g>
<!-- prediction_transcript&#45;&gt;analysis -->
<g id="edge24" class="edge">
<title>prediction_transcript:e&#45;&gt;analysis:w</title>
<path fill="none" stroke="black" stroke-dasharray="5,2" d="M498.25,-1742.5C580.12,-1742.5 516.26,-346.35 544.5,-269.5 552.93,-246.57 555.58,-226.28 574.05,-220.89"/>
<polygon fill="black" stroke="black" points="574.4,-224.25 583.88,-219.5 573.51,-217.31 574.4,-224.25"/>
</g>
<!-- prediction_transcript&#45;&gt;seq_region -->
<g id="edge25" class="edge">
<title>prediction_transcript:e&#45;&gt;seq_region:w</title>
<path fill="none" stroke="black" stroke-dasharray="5,2" d="M498.25,-1832.5C559.76,-1832.5 505.7,-1755.93 508.75,-1694.5 517.17,-1525.11 511.19,-334.8 544.5,-168.5 551.46,-133.77 540.19,-94.76 566.08,-86.92"/>
<polygon fill="black" stroke="black" points="566.42,-90.27 575.88,-85.5 565.5,-83.33 566.42,-90.27"/>
</g>
<!-- repeat_consensus -->
<g id="node17" class="node">
<title>repeat_consensus</title>
<path fill="#3cb371" stroke="black" d="M486.62,-1685.12C486.62,-1685.12 347.88,-1685.12 347.88,-1685.12 341.88,-1685.12 335.88,-1679.12 335.88,-1673.12 335.88,-1673.12 335.88,-1549.88 335.88,-1549.88 335.88,-1543.88 341.88,-1537.88 347.88,-1537.88 347.88,-1537.88 486.62,-1537.88 486.62,-1537.88 492.62,-1537.88 498.62,-1543.88 498.62,-1549.88 498.62,-1549.88 498.62,-1673.12 498.62,-1673.12 498.62,-1679.12 492.62,-1685.12 486.62,-1685.12"/>
<text text-anchor="start" x="361.75" y="-1661.92" font-family="Times,serif" font-size="16.00">repeat_consensus</text>
<polygon fill="white" stroke="none" points="345.88,-1633.88 345.88,-1654.38 488.62,-1654.38 488.62,-1633.88 345.88,-1633.88"/>
<text text-anchor="start" x="347.88" y="-1640.08" font-family="Times,serif" font-weight="bold" font-size="14.00">PK</text>
<text text-anchor="start" x="367.38" y="-1640.08" font-family="Times,serif" font-size="14.00">  repeat_consensus_id</text>
<polygon fill="white" stroke="none" points="345.88,-1611.38 345.88,-1631.88 488.62,-1631.88 488.62,-1611.38 345.88,-1611.38"/>
<text text-anchor="start" x="382.38" y="-1616.58" font-family="Times,serif" font-size="14.00">repeat_name</text>
<polygon fill="white" stroke="none" points="345.88,-1588.88 345.88,-1609.38 488.62,-1609.38 488.62,-1588.88 345.88,-1588.88"/>
<text text-anchor="start" x="384.25" y="-1594.08" font-family="Times,serif" font-size="14.00">repeat_class</text>
<polygon fill="white" stroke="none" points="345.88,-1566.38 345.88,-1586.88 488.62,-1586.88 488.62,-1566.38 345.88,-1566.38"/>
<text text-anchor="start" x="385.75" y="-1571.58" font-family="Times,serif" font-size="14.00">repeat_type</text>
<polygon fill="white" stroke="none" points="345.88,-1543.88 345.88,-1564.38 488.62,-1564.38 488.62,-1543.88 345.88,-1543.88"/>
<text text-anchor="start" x="370" y="-1549.08" font-family="Times,serif" font-size="14.00">repeat_consensus</text>
<polygon fill="black" stroke="black" points="343.88,-1655.38 343.88,-1655.38 490.62,-1655.38 490.62,-1655.38 343.88,-1655.38"/>
</g>
<!-- repeat_feature -->
<g id="node18" class="node">
<title>repeat_feature</title>
<path fill="#3cb371" stroke="black" d="M213.62,-1670.38C213.62,-1670.38 92.12,-1670.38 92.12,-1670.38 86.12,-1670.38 80.12,-1664.38 80.12,-1658.38 80.12,-1658.38 80.12,-1422.62 80.12,-1422.62 80.12,-1416.62 86.12,-1410.62 92.12,-1410.62 92.12,-1410.62 213.62,-1410.62 213.62,-1410.62 219.62,-1410.62 225.62,-1416.62 225.62,-1422.62 225.62,-1422.62 225.62,-1658.38 225.62,-1658.38 225.62,-1664.38 219.62,-1670.38 213.62,-1670.38"/>
<text text-anchor="start" x="107.88" y="-1647.17" font-family="Times,serif" font-size="16.00">repeat_feature</text>
<polygon fill="white" stroke="none" points="90.12,-1619.12 90.12,-1639.62 215.62,-1639.62 215.62,-1619.12 90.12,-1619.12"/>
<text text-anchor="start" x="92.12" y="-1625.33" font-family="Times,serif" font-weight="bold" font-size="14.00">PK</text>
<text text-anchor="start" x="111.62" y="-1625.33" font-family="Times,serif" font-size="14.00">  repeat_feature_id</text>
<polygon fill="white" stroke="none" points="90.12,-1596.62 90.12,-1617.12 215.62,-1617.12 215.62,-1596.62 90.12,-1596.62"/>
<text text-anchor="start" x="114.62" y="-1601.83" font-family="Times,serif" font-size="14.00">seq_region_id</text>
<polygon fill="white" stroke="none" points="90.12,-1574.12 90.12,-1594.62 215.62,-1594.62 215.62,-1574.12 90.12,-1574.12"/>
<text text-anchor="start" x="108.25" y="-1579.33" font-family="Times,serif" font-size="14.00">seq_region_start</text>
<polygon fill="white" stroke="none" points="90.12,-1551.62 90.12,-1572.12 215.62,-1572.12 215.62,-1551.62 90.12,-1551.62"/>
<text text-anchor="start" x="110.12" y="-1556.83" font-family="Times,serif" font-size="14.00">seq_region_end</text>
<polygon fill="white" stroke="none" points="90.12,-1529.12 90.12,-1549.62 215.62,-1549.62 215.62,-1529.12 90.12,-1529.12"/>
<text text-anchor="start" x="103.38" y="-1534.33" font-family="Times,serif" font-size="14.00">seq_region_strand</text>
<polygon fill="white" stroke="none" points="90.12,-1506.62 90.12,-1527.12 215.62,-1527.12 215.62,-1506.62 90.12,-1506.62"/>
<text text-anchor="start" x="121.38" y="-1511.83" font-family="Times,serif" font-size="14.00">repeat_start</text>
<polygon fill="white" stroke="none" points="90.12,-1484.12 90.12,-1504.62 215.62,-1504.62 215.62,-1484.12 90.12,-1484.12"/>
<text text-anchor="start" x="123.25" y="-1489.33" font-family="Times,serif" font-size="14.00">repeat_end</text>
<polygon fill="white" stroke="none" points="90.12,-1461.62 90.12,-1482.12 215.62,-1482.12 215.62,-1461.62 90.12,-1461.62"/>
<text text-anchor="start" x="97" y="-1466.83" font-family="Times,serif" font-size="14.00">repeat_consensus_id</text>
<polygon fill="white" stroke="none" points="90.12,-1439.12 90.12,-1459.62 215.62,-1459.62 215.62,-1439.12 90.12,-1439.12"/>
<text text-anchor="start" x="122.5" y="-1444.33" font-family="Times,serif" font-size="14.00">analysis_id</text>
<polygon fill="white" stroke="none" points="90.12,-1416.62 90.12,-1437.12 215.62,-1437.12 215.62,-1416.62 90.12,-1416.62"/>
<text text-anchor="start" x="138.62" y="-1421.83" font-family="Times,serif" font-size="14.00">score</text>
<polygon fill="black" stroke="black" points="88.12,-1640.62 88.12,-1640.62 217.62,-1640.62 217.62,-1640.62 88.12,-1640.62"/>
</g>
<!-- repeat_feature&#45;&gt;repeat_consensus -->
<g id="edge27" class="edge">
<title>repeat_feature:e&#45;&gt;repeat_consensus:w</title>
<path fill="none" stroke="black" stroke-dasharray="5,2" d="M216.88,-1471.5C308.88,-1471.5 254.19,-1631.25 334.74,-1643.73"/>
<polygon fill="black" stroke="black" points="334.02,-1647.26 344.25,-1644.5 334.53,-1640.28 334.02,-1647.26"/>
</g>
<!-- repeat_feature&#45;&gt;analysis -->
<g id="edge26" class="edge">
<title>repeat_feature:e&#45;&gt;analysis:w</title>
<path fill="none" stroke="black" stroke-dasharray="5,2" d="M216.88,-1449.5C255.66,-1449.5 267.4,-1433.19 289.75,-1401.5 328.52,-1346.53 300.98,-1317.04 325.75,-1254.5 386.66,-1100.74 462.4,-1089.25 508.75,-930.5 549.98,-789.29 491.76,-406.83 544.5,-269.5 553.26,-246.69 555.68,-226.32 574.07,-220.9"/>
<polygon fill="black" stroke="black" points="574.41,-224.26 583.88,-219.5 573.51,-217.32 574.41,-224.26"/>
</g>
<!-- repeat_feature&#45;&gt;seq_region -->
<g id="edge28" class="edge">
<title>repeat_feature:e&#45;&gt;seq_region:w</title>
<path fill="none" stroke="black" stroke-dasharray="5,2" d="M418.25,-1230.5C460.58,-1097.82 485.2,-1067.76 508.75,-930.5 524.06,-841.29 485.87,-143.26 566.45,-88.86"/>
<polygon fill="black" stroke="black" points="567.43,-91.9 575.88,-85.5 565.28,-85.24 567.43,-91.9"/>
<path fill="none" stroke="black" stroke-dasharray="5,2" d="M216.88,-1606.5C313.57,-1606.5 262.02,-1494.14 289.75,-1401.5 309.04,-1337.06 278.64,-1302.51 325.75,-1254.5 354.89,-1224.8 403.6,-1270.14 416.25,-1230.5"/>
</g>
<!-- simple_feature -->
<g id="node19" class="node">
<title>simple_feature</title>
<path fill="#3cb371" stroke="black" d="M215.5,-1046.88C215.5,-1046.88 90.25,-1046.88 90.25,-1046.88 84.25,-1046.88 78.25,-1040.88 78.25,-1034.88 78.25,-1034.88 78.25,-844.12 78.25,-844.12 78.25,-838.12 84.25,-832.12 90.25,-832.12 90.25,-832.12 215.5,-832.12 215.5,-832.12 221.5,-832.12 227.5,-838.12 227.5,-844.12 227.5,-844.12 227.5,-1034.88 227.5,-1034.88 227.5,-1040.88 221.5,-1046.88 215.5,-1046.88"/>
<text text-anchor="start" x="105.62" y="-1023.67" font-family="Times,serif" font-size="16.00">simple_feature</text>
<polygon fill="white" stroke="none" points="88.25,-995.62 88.25,-1016.12 217.5,-1016.12 217.5,-995.62 88.25,-995.62"/>
<text text-anchor="start" x="90.25" y="-1001.83" font-family="Times,serif" font-weight="bold" font-size="14.00">PK</text>
<text text-anchor="start" x="109.75" y="-1001.83" font-family="Times,serif" font-size="14.00">  simple_feature_id</text>
<polygon fill="white" stroke="none" points="88.25,-973.12 88.25,-993.62 217.5,-993.62 217.5,-973.12 88.25,-973.12"/>
<text text-anchor="start" x="114.62" y="-978.33" font-family="Times,serif" font-size="14.00">seq_region_id</text>
<polygon fill="white" stroke="none" points="88.25,-950.62 88.25,-971.12 217.5,-971.12 217.5,-950.62 88.25,-950.62"/>
<text text-anchor="start" x="108.25" y="-955.83" font-family="Times,serif" font-size="14.00">seq_region_start</text>
<polygon fill="white" stroke="none" points="88.25,-928.12 88.25,-948.62 217.5,-948.62 217.5,-928.12 88.25,-928.12"/>
<text text-anchor="start" x="110.12" y="-933.33" font-family="Times,serif" font-size="14.00">seq_region_end</text>
<polygon fill="white" stroke="none" points="88.25,-905.62 88.25,-926.12 217.5,-926.12 217.5,-905.62 88.25,-905.62"/>
<text text-anchor="start" x="103.38" y="-910.83" font-family="Times,serif" font-size="14.00">seq_region_strand</text>
<polygon fill="white" stroke="none" points="88.25,-883.12 88.25,-903.62 217.5,-903.62 217.5,-883.12 88.25,-883.12"/>
<text text-anchor="start" x="116.88" y="-888.33" font-family="Times,serif" font-size="14.00">display_label</text>
<polygon fill="white" stroke="none" points="88.25,-860.62 88.25,-881.12 217.5,-881.12 217.5,-860.62 88.25,-860.62"/>
<text text-anchor="start" x="122.5" y="-865.83" font-family="Times,serif" font-size="14.00">analysis_id</text>
<polygon fill="white" stroke="none" points="88.25,-838.12 88.25,-858.62 217.5,-858.62 217.5,-838.12 88.25,-838.12"/>
<text text-anchor="start" x="138.62" y="-843.33" font-family="Times,serif" font-size="14.00">score</text>
<polygon fill="black" stroke="black" points="86.25,-1017.12 86.25,-1017.12 219.5,-1017.12 219.5,-1017.12 86.25,-1017.12"/>
</g>
<!-- simple_feature&#45;&gt;analysis -->
<g id="edge29" class="edge">
<title>simple_feature:e&#45;&gt;analysis:w</title>
<path fill="none" stroke="black" stroke-dasharray="5,2" d="M218.88,-870.5C310.56,-870.5 341.3,-863.31 416.25,-810.5"/>
</g>
<!-- simple_feature&#45;&gt;seq_region -->
<g id="edge30" class="edge">
<title>simple_feature:e&#45;&gt;seq_region:w</title>
<path fill="none" stroke="black" stroke-dasharray="5,2" d="M218.88,-983.5C500.32,-983.5 423.38,-688.68 508.75,-420.5 530.62,-351.79 503.9,-111.68 566.11,-87.47"/>
<polygon fill="black" stroke="black" points="566.67,-90.74 575.88,-85.5 565.41,-83.86 566.67,-90.74"/>
</g>
<!-- transcript_intron_supporting_evidence -->
<g id="node20" class="node">
<title>transcript_intron_supporting_evidence</title>
<path fill="#3cb371" stroke="black" d="M277.75,-536.88C277.75,-536.88 28,-536.88 28,-536.88 22,-536.88 16,-530.88 16,-524.88 16,-524.88 16,-424.12 16,-424.12 16,-418.12 22,-412.12 28,-412.12 28,-412.12 277.75,-412.12 277.75,-412.12 283.75,-412.12 289.75,-418.12 289.75,-424.12 289.75,-424.12 289.75,-524.88 289.75,-524.88 289.75,-530.88 283.75,-536.88 277.75,-536.88"/>
<text text-anchor="start" x="28" y="-513.67" font-family="Times,serif" font-size="16.00">transcript_intron_supporting_evidence</text>
<polygon fill="white" stroke="none" points="26,-485.62 26,-506.12 279.75,-506.12 279.75,-485.62 26,-485.62"/>
<text text-anchor="start" x="55" y="-491.82" font-family="Times,serif" font-weight="bold" font-size="14.00">PK</text>
<text text-anchor="start" x="74.5" y="-491.82" font-family="Times,serif" font-size="14.00">  intron_supporting_evidence_id</text>
<polygon fill="white" stroke="none" points="26,-463.12 26,-483.62 279.75,-483.62 279.75,-463.12 26,-463.12"/>
<text text-anchor="start" x="105.25" y="-469.32" font-family="Times,serif" font-weight="bold" font-size="14.00">PK</text>
<text text-anchor="start" x="124.75" y="-469.32" font-family="Times,serif" font-size="14.00">  transcript_id</text>
<polygon fill="white" stroke="none" points="26,-440.62 26,-461.12 279.75,-461.12 279.75,-440.62 26,-440.62"/>
<text text-anchor="start" x="104.5" y="-445.82" font-family="Times,serif" font-size="14.00">previous_exon_id</text>
<polygon fill="white" stroke="none" points="26,-418.12 26,-438.62 279.75,-438.62 279.75,-418.12 26,-418.12"/>
<text text-anchor="start" x="116.12" y="-423.32" font-family="Times,serif" font-size="14.00">next_exon_id</text>
<polygon fill="black" stroke="black" points="24,-507.12 24,-507.12 281.75,-507.12 281.75,-507.12 24,-507.12"/>
</g>
</g>
</svg>
