<?xml version="1.0" encoding="UTF-8" standalone="no"?>
<!DOCTYPE svg PUBLIC "-//W3C//DTD SVG 1.1//EN"
 "http://www.w3.org/Graphics/SVG/1.1/DTD/svg11.dtd">
<!-- Generated by graphviz version 2.43.0 (0)
 -->
<!-- Title: test Pages: 1 -->
<svg width="928pt" height="711pt"
 viewBox="0.00 0.00 927.50 711.00" xmlns="http://www.w3.org/2000/svg" xmlns:xlink="http://www.w3.org/1999/xlink">
<g id="graph0" class="graph" transform="scale(1 1) rotate(0) translate(4 707)">
<title>test</title>
<polygon fill="white" stroke="transparent" points="-4,4 -4,-707 923.5,-707 923.5,4 -4,4"/>
<text text-anchor="middle" x="459.75" y="-10" font-family="Times,serif" font-size="20.00">Core schema diagram: Misc tables</text>
<g id="clust1" class="cluster">
<title>cluster_assembly_tables</title>
<polygon fill="white" stroke="white" points="715,-524 715,-646 900,-646 900,-524 715,-524"/>
<text text-anchor="middle" x="807.5" y="-626" font-family="Times,serif" font-size="20.00">Assembly Tables</text>
</g>
<g id="clust3" class="cluster">
<title>cluster_misc</title>
<path fill="#ffe6cc" stroke="#ffe6cc" d="M20,-38C20,-38 664,-38 664,-38 670,-38 676,-44 676,-50 676,-50 676,-683 676,-683 676,-689 670,-695 664,-695 664,-695 20,-695 20,-695 14,-695 8,-689 8,-683 8,-683 8,-50 8,-50 8,-44 14,-38 20,-38"/>
<text text-anchor="middle" x="342" y="-675" font-family="Times,serif" font-size="20.00">Misc</text>
</g>
<g id="clust2" class="cluster">
<title>cluster_fundamental_tables</title>
<polygon fill="white" stroke="white" points="695.5,-226 695.5,-442 919.5,-442 919.5,-226 695.5,-226"/>
<text text-anchor="middle" x="807.5" y="-422" font-family="Times,serif" font-size="20.00">Fundamental Tables</text>
</g>
<!-- operon -->
<g id="node1" class="node">
<title>operon</title>
<path fill="#ff8500" stroke="black" d="M656,-601.5C656,-601.5 525,-601.5 525,-601.5 519,-601.5 513,-595.5 513,-589.5 513,-589.5 513,-348.5 513,-348.5 513,-342.5 519,-336.5 525,-336.5 525,-336.5 656,-336.5 656,-336.5 662,-336.5 668,-342.5 668,-348.5 668,-348.5 668,-589.5 668,-589.5 668,-595.5 662,-601.5 656,-601.5"/>
<text text-anchor="start" x="562" y="-580.2" font-family="Times,serif" font-size="16.00">operon</text>
<polygon fill="white" stroke="transparent" points="523.5,-552 523.5,-571 658.5,-571 658.5,-552 523.5,-552"/>
<text text-anchor="start" x="540" y="-558.8" font-family="Times,serif" font-weight="bold" font-size="14.00">PK</text>
<text text-anchor="start" x="563" y="-558.8" font-family="Times,serif" font-size="14.00">  operon_id</text>
<polygon fill="white" stroke="transparent" points="523.5,-531 523.5,-550 658.5,-550 658.5,-531 523.5,-531"/>
<text text-anchor="start" x="551.5" y="-536.8" font-family="Times,serif" font-size="14.00">analysis_id</text>
<polygon fill="white" stroke="transparent" points="523.5,-510 523.5,-529 658.5,-529 658.5,-510 523.5,-510"/>
<text text-anchor="start" x="542" y="-515.8" font-family="Times,serif" font-size="14.00">seq_region_id</text>
<polygon fill="white" stroke="transparent" points="523.5,-489 523.5,-508 658.5,-508 658.5,-489 523.5,-489"/>
<text text-anchor="start" x="531.5" y="-494.8" font-family="Times,serif" font-size="14.00">seq_region_start</text>
<polygon fill="white" stroke="transparent" points="523.5,-468 523.5,-487 658.5,-487 658.5,-468 523.5,-468"/>
<text text-anchor="start" x="535.5" y="-473.8" font-family="Times,serif" font-size="14.00">seq_region_end</text>
<polygon fill="white" stroke="transparent" points="523.5,-447 523.5,-466 658.5,-466 658.5,-447 523.5,-447"/>
<text text-anchor="start" x="525.5" y="-452.8" font-family="Times,serif" font-size="14.00">seq_region_strand</text>
<polygon fill="white" stroke="transparent" points="523.5,-426 523.5,-445 658.5,-445 658.5,-426 523.5,-426"/>
<text text-anchor="start" x="544.5" y="-431.8" font-family="Times,serif" font-size="14.00">display_label</text>
<polygon fill="white" stroke="transparent" points="523.5,-405 523.5,-424 658.5,-424 658.5,-405 523.5,-405"/>
<text text-anchor="start" x="559" y="-410.8" font-family="Times,serif" font-size="14.00">stable_id</text>
<polygon fill="white" stroke="transparent" points="523.5,-384 523.5,-403 658.5,-403 658.5,-384 523.5,-384"/>
<text text-anchor="start" x="564.5" y="-389.8" font-family="Times,serif" font-size="14.00">version</text>
<polygon fill="white" stroke="transparent" points="523.5,-363 523.5,-382 658.5,-382 658.5,-363 523.5,-363"/>
<text text-anchor="start" x="544.5" y="-368.8" font-family="Times,serif" font-size="14.00">created_date</text>
<polygon fill="white" stroke="transparent" points="523.5,-342 523.5,-361 658.5,-361 658.5,-342 523.5,-342"/>
<text text-anchor="start" x="541" y="-347.8" font-family="Times,serif" font-size="14.00">modified_date</text>
<polygon fill="black" stroke="black" points="521.5,-572 521.5,-572 660.5,-572 660.5,-572 521.5,-572"/>
</g>
<!-- analysis -->
<g id="node7" class="node">
<title>analysis</title>
<path fill="#808000" stroke="black" d="M862.5,-404C862.5,-404 751.5,-404 751.5,-404 745.5,-404 739.5,-398 739.5,-392 739.5,-392 739.5,-340 739.5,-340 739.5,-334 745.5,-328 751.5,-328 751.5,-328 862.5,-328 862.5,-328 868.5,-328 874.5,-334 874.5,-340 874.5,-340 874.5,-392 874.5,-392 874.5,-398 868.5,-404 862.5,-404"/>
<text text-anchor="start" x="774" y="-383.2" font-family="Times,serif" font-size="16.00">analysis</text>
<polygon fill="white" stroke="transparent" points="750,-355 750,-374 865,-374 865,-355 750,-355"/>
<text text-anchor="start" x="752" y="-361.8" font-family="Times,serif" font-weight="bold" font-size="14.00">PK</text>
<text text-anchor="start" x="775" y="-361.8" font-family="Times,serif" font-size="14.00">  analysis_id</text>
<polygon fill="white" stroke="transparent" points="750,-334 750,-353 865,-353 865,-334 750,-334"/>
<text text-anchor="start" x="800.5" y="-340.8" font-family="Times,serif" font-style="italic" font-size="14.00">...</text>
<polygon fill="black" stroke="black" points="748,-375 748,-375 867,-375 867,-375 748,-375"/>
</g>
<!-- operon&#45;&gt;analysis -->
<g id="edge1" class="edge">
<title>operon:e&#45;&gt;analysis:w</title>
<path fill="none" stroke="black" stroke-dasharray="5,2" d="M659.5,-541C700.13,-541 704.45,-390.58 739.41,-367.07"/>
<polygon fill="black" stroke="black" points="740.54,-370.38 749,-364 738.41,-363.72 740.54,-370.38"/>
</g>
<!-- seq_region -->
<g id="node9" class="node">
<title>seq_region</title>
<path fill="#c70c09" stroke="black" d="M872,-608C872,-608 742,-608 742,-608 736,-608 730,-602 730,-596 730,-596 730,-544 730,-544 730,-538 736,-532 742,-532 742,-532 872,-532 872,-532 878,-532 884,-538 884,-544 884,-544 884,-596 884,-596 884,-602 878,-608 872,-608"/>
<text text-anchor="start" x="761.5" y="-587.2" font-family="Times,serif" font-size="16.00">seq_region</text>
<polygon fill="white" stroke="transparent" points="740,-559 740,-578 874,-578 874,-559 740,-559"/>
<text text-anchor="start" x="742" y="-565.8" font-family="Times,serif" font-weight="bold" font-size="14.00">PK</text>
<text text-anchor="start" x="765" y="-565.8" font-family="Times,serif" font-size="14.00">  seq_region_id</text>
<polygon fill="white" stroke="transparent" points="740,-538 740,-557 874,-557 874,-538 740,-538"/>
<text text-anchor="start" x="800" y="-544.8" font-family="Times,serif" font-style="italic" font-size="14.00">...</text>
<polygon fill="black" stroke="black" points="738,-579 738,-579 876,-579 876,-579 738,-579"/>
</g>
<!-- operon&#45;&gt;seq_region -->
<g id="edge2" class="edge">
<title>operon:e&#45;&gt;seq_region:w</title>
<path fill="none" stroke="black" stroke-dasharray="5,2" d="M659.5,-520C697.07,-520 697.92,-559.76 728.88,-566.91"/>
<polygon fill="black" stroke="black" points="728.68,-570.41 739,-568 729.43,-563.45 728.68,-570.41"/>
</g>
<!-- operon_transcript -->
<g id="node2" class="node">
<title>operon_transcript</title>
<path fill="#ff8500" stroke="black" d="M465,-656C465,-656 285,-656 285,-656 279,-656 273,-650 273,-644 273,-644 273,-382 273,-382 273,-376 279,-370 285,-370 285,-370 465,-370 465,-370 471,-370 477,-376 477,-382 477,-382 477,-644 477,-644 477,-650 471,-656 465,-656"/>
<text text-anchor="start" x="301" y="-635.2" font-family="Times,serif" font-size="16.00">operon_transcript</text>
<polygon fill="white" stroke="transparent" points="283,-607 283,-626 467,-626 467,-607 283,-607"/>
<text text-anchor="start" x="285" y="-613.8" font-family="Times,serif" font-weight="bold" font-size="14.00">PK</text>
<text text-anchor="start" x="308" y="-613.8" font-family="Times,serif" font-size="14.00">  operon_transcript_id</text>
<polygon fill="white" stroke="transparent" points="283,-586 283,-605 467,-605 467,-586 283,-586"/>
<text text-anchor="start" x="335.5" y="-591.8" font-family="Times,serif" font-size="14.00">analysis_id</text>
<polygon fill="white" stroke="transparent" points="283,-565 283,-584 467,-584 467,-565 283,-565"/>
<text text-anchor="start" x="326" y="-570.8" font-family="Times,serif" font-size="14.00">seq_region_id</text>
<polygon fill="white" stroke="transparent" points="283,-544 283,-563 467,-563 467,-544 283,-544"/>
<text text-anchor="start" x="315.5" y="-549.8" font-family="Times,serif" font-size="14.00">seq_region_start</text>
<polygon fill="white" stroke="transparent" points="283,-523 283,-542 467,-542 467,-523 283,-523"/>
<text text-anchor="start" x="319.5" y="-528.8" font-family="Times,serif" font-size="14.00">seq_region_end</text>
<polygon fill="white" stroke="transparent" points="283,-502 283,-521 467,-521 467,-502 283,-502"/>
<text text-anchor="start" x="309.5" y="-507.8" font-family="Times,serif" font-size="14.00">seq_region_strand</text>
<polygon fill="white" stroke="transparent" points="283,-481 283,-500 467,-500 467,-481 283,-481"/>
<text text-anchor="start" x="340" y="-486.8" font-family="Times,serif" font-size="14.00">operon_id</text>
<polygon fill="white" stroke="transparent" points="283,-460 283,-479 467,-479 467,-460 283,-460"/>
<text text-anchor="start" x="328.5" y="-465.8" font-family="Times,serif" font-size="14.00">display_label</text>
<polygon fill="white" stroke="transparent" points="283,-439 283,-458 467,-458 467,-439 283,-439"/>
<text text-anchor="start" x="343" y="-444.8" font-family="Times,serif" font-size="14.00">stable_id</text>
<polygon fill="white" stroke="transparent" points="283,-418 283,-437 467,-437 467,-418 283,-418"/>
<text text-anchor="start" x="348.5" y="-423.8" font-family="Times,serif" font-size="14.00">version</text>
<polygon fill="white" stroke="transparent" points="283,-397 283,-416 467,-416 467,-397 283,-397"/>
<text text-anchor="start" x="328.5" y="-402.8" font-family="Times,serif" font-size="14.00">created_date</text>
<polygon fill="white" stroke="transparent" points="283,-376 283,-395 467,-395 467,-376 283,-376"/>
<text text-anchor="start" x="325" y="-381.8" font-family="Times,serif" font-size="14.00">modified_date</text>
<polygon fill="black" stroke="black" points="281,-627 281,-627 469,-627 469,-627 281,-627"/>
</g>
<!-- operon_transcript&#45;&gt;operon -->
<g id="edge4" class="edge">
<title>operon_transcript:e&#45;&gt;operon:w</title>
<path fill="none" stroke="black" stroke-dasharray="5,2" d="M468,-490C504.21,-490 486.77,-548.62 512.5,-560.07"/>
<polygon fill="black" stroke="black" points="512.02,-563.54 522.5,-562 513.34,-556.67 512.02,-563.54"/>
</g>
<!-- operon_transcript&#45;&gt;analysis -->
<g id="edge3" class="edge">
<title>operon_transcript:e&#45;&gt;analysis:w</title>
<path fill="none" stroke="black" stroke-dasharray="5,2" d="M468,-596C528.39,-596 466.9,-367.01 513,-328 568.3,-281.21 605.45,-311.55 676,-328 707.65,-335.38 712.15,-358.56 738.98,-363.19"/>
<polygon fill="black" stroke="black" points="738.75,-366.68 749,-364 739.31,-359.71 738.75,-366.68"/>
</g>
<!-- operon_transcript&#45;&gt;seq_region -->
<g id="edge5" class="edge">
<title>operon_transcript:e&#45;&gt;seq_region:w</title>
<path fill="none" stroke="black" stroke-dasharray="5,2" d="M468,-575C493.61,-575 488.83,-602.52 513,-611 581.36,-634.98 606.78,-632.37 676,-611 704.72,-602.13 705.39,-575.18 728.81,-569.19"/>
<polygon fill="black" stroke="black" points="729.47,-572.63 739,-568 728.66,-565.68 729.47,-572.63"/>
</g>
<!-- operon_transcript_gene -->
<g id="node3" class="node">
<title>operon_transcript_gene</title>
<path fill="#ff8500" stroke="black" d="M225,-657C225,-657 28,-657 28,-657 22,-657 16,-651 16,-645 16,-645 16,-593 16,-593 16,-587 22,-581 28,-581 28,-581 225,-581 225,-581 231,-581 237,-587 237,-593 237,-593 237,-645 237,-645 237,-651 231,-657 225,-657"/>
<text text-anchor="start" x="28.5" y="-636.2" font-family="Times,serif" font-size="16.00">operon_transcript_gene</text>
<polygon fill="white" stroke="transparent" points="26.5,-608 26.5,-627 227.5,-627 227.5,-608 26.5,-608"/>
<text text-anchor="start" x="53" y="-613.8" font-family="Times,serif" font-size="14.00">operon_transcript_id</text>
<polygon fill="white" stroke="transparent" points="26.5,-587 26.5,-606 227.5,-606 227.5,-587 26.5,-587"/>
<text text-anchor="start" x="99.5" y="-592.8" font-family="Times,serif" font-size="14.00">gene_id</text>
<polygon fill="black" stroke="black" points="24.5,-628 24.5,-628 229.5,-628 229.5,-628 24.5,-628"/>
</g>
<!-- operon_transcript_gene&#45;&gt;operon_transcript -->
<g id="edge7" class="edge">
<title>operon_transcript_gene:e&#45;&gt;operon_transcript:w</title>
<path fill="none" stroke="black" stroke-dasharray="5,2" d="M228.5,-617C248.38,-617 255.79,-617 271.58,-617"/>
<polygon fill="black" stroke="black" points="272,-620.5 282,-617 272,-613.5 272,-620.5"/>
</g>
<!-- gene -->
<g id="node8" class="node">
<title>gene</title>
<path fill="#808000" stroke="black" d="M850.5,-310C850.5,-310 763.5,-310 763.5,-310 757.5,-310 751.5,-304 751.5,-298 751.5,-298 751.5,-246 751.5,-246 751.5,-240 757.5,-234 763.5,-234 763.5,-234 850.5,-234 850.5,-234 856.5,-234 862.5,-240 862.5,-246 862.5,-246 862.5,-298 862.5,-298 862.5,-304 856.5,-310 850.5,-310"/>
<text text-anchor="start" x="787" y="-289.2" font-family="Times,serif" font-size="16.00">gene</text>
<polygon fill="white" stroke="transparent" points="762,-261 762,-280 853,-280 853,-261 762,-261"/>
<text text-anchor="start" x="764" y="-267.8" font-family="Times,serif" font-weight="bold" font-size="14.00">PK</text>
<text text-anchor="start" x="787" y="-267.8" font-family="Times,serif" font-size="14.00">  gene_id</text>
<polygon fill="white" stroke="transparent" points="762,-240 762,-259 853,-259 853,-240 762,-240"/>
<text text-anchor="start" x="800.5" y="-246.8" font-family="Times,serif" font-style="italic" font-size="14.00">...</text>
<polygon fill="black" stroke="black" points="760,-281 760,-281 855,-281 855,-281 760,-281"/>
</g>
<!-- operon_transcript_gene&#45;&gt;gene -->
<g id="edge6" class="edge">
<title>operon_transcript_gene:e&#45;&gt;gene:w</title>
<path fill="none" stroke="black" stroke-dasharray="5,2" d="M228.5,-596C334.8,-596 201.05,-439.25 273,-361 420,-201.13 536.68,-267.83 750.73,-269.95"/>
<polygon fill="black" stroke="black" points="750.98,-273.45 761,-270 751.02,-266.45 750.98,-273.45"/>
</g>
<!-- rnaproduct -->
<g id="node4" class="node">
<title>rnaproduct</title>
<path fill="#808000" stroke="black" d="M196,-562.5C196,-562.5 57,-562.5 57,-562.5 51,-562.5 45,-556.5 45,-550.5 45,-550.5 45,-309.5 45,-309.5 45,-303.5 51,-297.5 57,-297.5 57,-297.5 196,-297.5 196,-297.5 202,-297.5 208,-303.5 208,-309.5 208,-309.5 208,-550.5 208,-550.5 208,-556.5 202,-562.5 196,-562.5"/>
<text text-anchor="start" x="80.5" y="-541.2" font-family="Times,serif" font-size="16.00">rnaproduct</text>
<polygon fill="white" stroke="transparent" points="55.5,-513 55.5,-532 198.5,-532 198.5,-513 55.5,-513"/>
<text text-anchor="start" x="61" y="-519.8" font-family="Times,serif" font-weight="bold" font-size="14.00">PK</text>
<text text-anchor="start" x="84" y="-519.8" font-family="Times,serif" font-size="14.00">  rnaproduct_id</text>
<polygon fill="white" stroke="transparent" points="55.5,-492 55.5,-511 198.5,-511 198.5,-492 55.5,-492"/>
<text text-anchor="start" x="57.5" y="-497.8" font-family="Times,serif" font-size="14.00">rnaproduct_type_id</text>
<polygon fill="white" stroke="transparent" points="55.5,-471 55.5,-490 198.5,-490 198.5,-471 55.5,-471"/>
<text text-anchor="start" x="81" y="-476.8" font-family="Times,serif" font-size="14.00">transcript_id</text>
<polygon fill="white" stroke="transparent" points="55.5,-450 55.5,-469 198.5,-469 198.5,-450 55.5,-450"/>
<text text-anchor="start" x="93.5" y="-455.8" font-family="Times,serif" font-size="14.00">seq_start</text>
<polygon fill="white" stroke="transparent" points="55.5,-429 55.5,-448 198.5,-448 198.5,-429 55.5,-429"/>
<text text-anchor="start" x="79" y="-434.8" font-family="Times,serif" font-size="14.00">start_exon_id</text>
<polygon fill="white" stroke="transparent" points="55.5,-408 55.5,-427 198.5,-427 198.5,-408 55.5,-408"/>
<text text-anchor="start" x="98" y="-413.8" font-family="Times,serif" font-size="14.00">seq_end</text>
<polygon fill="white" stroke="transparent" points="55.5,-387 55.5,-406 198.5,-406 198.5,-387 55.5,-387"/>
<text text-anchor="start" x="83" y="-392.8" font-family="Times,serif" font-size="14.00">end_exon_id</text>
<polygon fill="white" stroke="transparent" points="55.5,-366 55.5,-385 198.5,-385 198.5,-366 55.5,-366"/>
<text text-anchor="start" x="95" y="-371.8" font-family="Times,serif" font-size="14.00">stable_id</text>
<polygon fill="white" stroke="transparent" points="55.5,-345 55.5,-364 198.5,-364 198.5,-345 55.5,-345"/>
<text text-anchor="start" x="100.5" y="-350.8" font-family="Times,serif" font-size="14.00">version</text>
<polygon fill="white" stroke="transparent" points="55.5,-324 55.5,-343 198.5,-343 198.5,-324 55.5,-324"/>
<text text-anchor="start" x="80.5" y="-329.8" font-family="Times,serif" font-size="14.00">created_date</text>
<polygon fill="white" stroke="transparent" points="55.5,-303 55.5,-322 198.5,-322 198.5,-303 55.5,-303"/>
<text text-anchor="start" x="77" y="-308.8" font-family="Times,serif" font-size="14.00">modified_date</text>
<polygon fill="black" stroke="black" points="53.5,-533 53.5,-533 200.5,-533 200.5,-533 53.5,-533"/>
</g>
<!-- rnaproduct_attrib -->
<g id="node5" class="node">
<title>rnaproduct_attrib</title>
<path fill="#808000" stroke="black" d="M200.5,-279.5C200.5,-279.5 52.5,-279.5 52.5,-279.5 46.5,-279.5 40.5,-273.5 40.5,-267.5 40.5,-267.5 40.5,-194.5 40.5,-194.5 40.5,-188.5 46.5,-182.5 52.5,-182.5 52.5,-182.5 200.5,-182.5 200.5,-182.5 206.5,-182.5 212.5,-188.5 212.5,-194.5 212.5,-194.5 212.5,-267.5 212.5,-267.5 212.5,-273.5 206.5,-279.5 200.5,-279.5"/>
<text text-anchor="start" x="52.5" y="-258.2" font-family="Times,serif" font-size="16.00">rnaproduct_attrib</text>
<polygon fill="white" stroke="transparent" points="50.5,-230 50.5,-249 202.5,-249 202.5,-230 50.5,-230"/>
<text text-anchor="start" x="76.5" y="-235.8" font-family="Times,serif" font-size="14.00">rnaproduct_id</text>
<polygon fill="white" stroke="transparent" points="50.5,-209 50.5,-228 202.5,-228 202.5,-209 50.5,-209"/>
<text text-anchor="start" x="76.5" y="-214.8" font-family="Times,serif" font-size="14.00">attrib_type_id</text>
<polygon fill="white" stroke="transparent" points="50.5,-188 50.5,-207 202.5,-207 202.5,-188 50.5,-188"/>
<text text-anchor="start" x="107" y="-193.8" font-family="Times,serif" font-size="14.00">value</text>
<polygon fill="black" stroke="black" points="48.5,-250 48.5,-250 204.5,-250 204.5,-250 48.5,-250"/>
</g>
<!-- rnaproduct_type -->
<g id="node6" class="node">
<title>rnaproduct_type</title>
<path fill="#808000" stroke="black" d="M212,-164C212,-164 41,-164 41,-164 35,-164 29,-158 29,-152 29,-152 29,-58 29,-58 29,-52 35,-46 41,-46 41,-46 212,-46 212,-46 218,-46 224,-52 224,-58 224,-58 224,-152 224,-152 224,-158 218,-164 212,-164"/>
<text text-anchor="start" x="58.5" y="-143.2" font-family="Times,serif" font-size="16.00">rnaproduct_type</text>
<polygon fill="white" stroke="transparent" points="39.5,-115 39.5,-134 214.5,-134 214.5,-115 39.5,-115"/>
<text text-anchor="start" x="41.5" y="-121.8" font-family="Times,serif" font-weight="bold" font-size="14.00">PK</text>
<text text-anchor="start" x="64.5" y="-121.8" font-family="Times,serif" font-size="14.00">  rnaproduct_type_id</text>
<polygon fill="white" stroke="transparent" points="39.5,-94 39.5,-113 214.5,-113 214.5,-94 39.5,-94"/>
<text text-anchor="start" x="110" y="-99.8" font-family="Times,serif" font-size="14.00">code</text>
<polygon fill="white" stroke="transparent" points="39.5,-73 39.5,-92 214.5,-92 214.5,-73 39.5,-73"/>
<text text-anchor="start" x="107" y="-78.8" font-family="Times,serif" font-size="14.00">name</text>
<polygon fill="white" stroke="transparent" points="39.5,-52 39.5,-71 214.5,-71 214.5,-52 39.5,-52"/>
<text text-anchor="start" x="86.5" y="-57.8" font-family="Times,serif" font-size="14.00">description</text>
<polygon fill="black" stroke="black" points="37.5,-135 37.5,-135 216.5,-135 216.5,-135 37.5,-135"/>
</g>
</g>
</svg>
