<?xml version="1.0" encoding="UTF-8" standalone="no"?>
<!DOCTYPE svg PUBLIC "-//W3C//DTD SVG 1.1//EN"
 "http://www.w3.org/Graphics/SVG/1.1/DTD/svg11.dtd">
<!-- Generated by graphviz version 2.47.0 (20210316.0004)
 -->
<!-- Title: test Pages: 1 -->
<svg width="406pt" height="777pt"
 viewBox="0.00 0.00 406.00 777.00" xmlns="http://www.w3.org/2000/svg" xmlns:xlink="http://www.w3.org/1999/xlink">
<g id="graph0" class="graph" transform="scale(1 1) rotate(0) translate(4 773)">
<title>test</title>
<polygon fill="white" stroke="transparent" points="-4,4 -4,-773 402,-773 402,4 -4,4"/>
<text text-anchor="middle" x="199" y="-10" font-family="Times,serif" font-size="20.00">Core schema diagram: ID Mapping tables</text>
<g id="clust1" class="cluster">
<title>cluster_assembly_tables</title>
<polygon fill="white" stroke="white" points="219.5,-40 219.5,-167 373.5,-167 373.5,-40 219.5,-40"/>
<text text-anchor="middle" x="296.5" y="-145" font-family="Times,serif" font-size="20.00">Assembly Tables</text>
</g>
<g id="clust2" class="cluster">
<title>cluster_id_mapping</title>
<path fill="#ffe0e0" stroke="#ffe0e0" d="M20,-175C20,-175 378,-175 378,-175 384,-175 390,-181 390,-187 390,-187 390,-749 390,-749 390,-755 384,-761 378,-761 378,-761 20,-761 20,-761 14,-761 8,-755 8,-749 8,-749 8,-187 8,-187 8,-181 14,-175 20,-175"/>
<text text-anchor="middle" x="199" y="-739" font-family="Times,serif" font-size="20.00">ID Mapping</text>
</g>
<!-- gene_archive -->
<g id="node1" class="node">
<title>gene_archive</title>
<path fill="#ff6666" stroke="black" d="M153,-720.5C153,-720.5 37,-720.5 37,-720.5 31,-720.5 25,-714.5 25,-708.5 25,-708.5 25,-521.5 25,-521.5 25,-515.5 31,-509.5 37,-509.5 37,-509.5 153,-509.5 153,-509.5 159,-509.5 165,-515.5 165,-521.5 165,-521.5 165,-708.5 165,-708.5 165,-714.5 159,-720.5 153,-720.5"/>
<text text-anchor="start" x="52.36" y="-697.6" font-family="Times,serif" font-size="16.00">gene_archive</text>
<polygon fill="white" stroke="transparent" points="35,-669 35,-689 155,-689 155,-669 35,-669"/>
<text text-anchor="start" x="53.01" y="-674.4" font-family="Times,serif" font-size="14.00">gene_stable_id</text>
<polygon fill="white" stroke="transparent" points="35,-647 35,-667 155,-667 155,-647 35,-647"/>
<text text-anchor="start" x="57.68" y="-652.4" font-family="Times,serif" font-size="14.00">gene_version</text>
<polygon fill="white" stroke="transparent" points="35,-625 35,-645 155,-645 155,-625 35,-625"/>
<text text-anchor="start" x="39.79" y="-630.4" font-family="Times,serif" font-size="14.00">transcript_stable_id</text>
<polygon fill="white" stroke="transparent" points="35,-603 35,-623 155,-623 155,-603 35,-603"/>
<text text-anchor="start" x="44.46" y="-608.4" font-family="Times,serif" font-size="14.00">transcript_version</text>
<polygon fill="white" stroke="transparent" points="35,-581 35,-601 155,-601 155,-581 35,-581"/>
<text text-anchor="start" x="36.68" y="-586.4" font-family="Times,serif" font-size="14.00">translation_stable_id</text>
<polygon fill="white" stroke="transparent" points="35,-559 35,-579 155,-579 155,-559 35,-559"/>
<text text-anchor="start" x="41.35" y="-564.4" font-family="Times,serif" font-size="14.00">translation_version</text>
<polygon fill="white" stroke="transparent" points="35,-537 35,-557 155,-557 155,-537 35,-537"/>
<text text-anchor="start" x="41.35" y="-542.4" font-family="Times,serif" font-size="14.00">peptide_archive_id</text>
<polygon fill="white" stroke="transparent" points="35,-515 35,-535 155,-535 155,-515 35,-515"/>
<text text-anchor="start" x="37.84" y="-520.4" font-family="Times,serif" font-size="14.00">mapping_session_id</text>
<polygon fill="black" stroke="black" points="33,-690 33,-690 157,-690 157,-690 33,-690"/>
</g>
<!-- mapping_session -->
<g id="node2" class="node">
<title>mapping_session</title>
<path fill="#ff6666" stroke="black" d="M370,-513.5C370,-513.5 222,-513.5 222,-513.5 216,-513.5 210,-507.5 210,-501.5 210,-501.5 210,-314.5 210,-314.5 210,-308.5 216,-302.5 222,-302.5 222,-302.5 370,-302.5 370,-302.5 376,-302.5 382,-308.5 382,-314.5 382,-314.5 382,-501.5 382,-501.5 382,-507.5 376,-513.5 370,-513.5"/>
<text text-anchor="start" x="240.89" y="-490.6" font-family="Times,serif" font-size="16.00">mapping_session</text>
<polygon fill="white" stroke="transparent" points="220,-462 220,-482 372,-482 372,-462 220,-462"/>
<text text-anchor="start" x="221.73" y="-468.4" font-family="Times,serif" font-weight="bold" font-size="14.00">PK</text>
<text text-anchor="start" x="239.62" y="-468.4" font-family="Times,serif" font-size="14.00">  mapping_session_id</text>
<polygon fill="white" stroke="transparent" points="220,-440 220,-460 372,-460 372,-440 220,-440"/>
<text text-anchor="start" x="257.89" y="-445.4" font-family="Times,serif" font-size="14.00">old_db_name</text>
<polygon fill="white" stroke="transparent" points="220,-418 220,-438 372,-438 372,-418 220,-418"/>
<text text-anchor="start" x="255.18" y="-423.4" font-family="Times,serif" font-size="14.00">new_db_name</text>
<polygon fill="white" stroke="transparent" points="220,-396 220,-416 372,-416 372,-396 220,-396"/>
<text text-anchor="start" x="264.13" y="-401.4" font-family="Times,serif" font-size="14.00">old_release</text>
<polygon fill="white" stroke="transparent" points="220,-374 220,-394 372,-394 372,-374 220,-374"/>
<text text-anchor="start" x="261.41" y="-379.4" font-family="Times,serif" font-size="14.00">new_release</text>
<polygon fill="white" stroke="transparent" points="220,-352 220,-372 372,-372 372,-352 220,-352"/>
<text text-anchor="start" x="257.5" y="-357.4" font-family="Times,serif" font-size="14.00">old_assembly</text>
<polygon fill="white" stroke="transparent" points="220,-330 220,-350 372,-350 372,-330 220,-330"/>
<text text-anchor="start" x="254.79" y="-335.4" font-family="Times,serif" font-size="14.00">new_assembly</text>
<polygon fill="white" stroke="transparent" points="220,-308 220,-328 372,-328 372,-308 220,-308"/>
<text text-anchor="start" x="275.8" y="-313.4" font-family="Times,serif" font-size="14.00">created</text>
<polygon fill="black" stroke="black" points="218,-483 218,-483 374,-483 374,-483 218,-483"/>
</g>
<!-- gene_archive&#45;&gt;mapping_session -->
<g id="edge1" class="edge">
<title>gene_archive:e&#45;&gt;mapping_session:w</title>
<path fill="none" stroke="black" stroke-dasharray="5,2" d="M156,-525C188.73,-525 184.04,-482.59 208.87,-473.64"/>
<polygon fill="black" stroke="black" points="209.69,-477.06 219,-472 208.57,-470.15 209.69,-477.06"/>
</g>
<!-- peptide_archive -->
<g id="node4" class="node">
<title>peptide_archive</title>
<path fill="#ff6666" stroke="black" d="M366.5,-632.5C366.5,-632.5 225.5,-632.5 225.5,-632.5 219.5,-632.5 213.5,-626.5 213.5,-620.5 213.5,-620.5 213.5,-543.5 213.5,-543.5 213.5,-537.5 219.5,-531.5 225.5,-531.5 225.5,-531.5 366.5,-531.5 366.5,-531.5 372.5,-531.5 378.5,-537.5 378.5,-543.5 378.5,-543.5 378.5,-620.5 378.5,-620.5 378.5,-626.5 372.5,-632.5 366.5,-632.5"/>
<text text-anchor="start" x="245.41" y="-609.6" font-family="Times,serif" font-size="16.00">peptide_archive</text>
<polygon fill="white" stroke="transparent" points="224,-581 224,-601 369,-601 369,-581 224,-581"/>
<text text-anchor="start" x="225.75" y="-587.4" font-family="Times,serif" font-weight="bold" font-size="14.00">PK</text>
<text text-anchor="start" x="243.64" y="-587.4" font-family="Times,serif" font-size="14.00">  peptide_archive_id</text>
<polygon fill="white" stroke="transparent" points="224,-559 224,-579 369,-579 369,-559 224,-559"/>
<text text-anchor="start" x="252.57" y="-564.4" font-family="Times,serif" font-size="14.00">md5_checksum</text>
<polygon fill="white" stroke="transparent" points="224,-537 224,-557 369,-557 369,-537 224,-537"/>
<text text-anchor="start" x="263.07" y="-542.4" font-family="Times,serif" font-size="14.00">peptide_seq</text>
<polygon fill="black" stroke="black" points="222,-602 222,-602 371,-602 371,-602 222,-602"/>
</g>
<!-- gene_archive&#45;&gt;peptide_archive -->
<g id="edge2" class="edge">
<title>gene_archive:e&#45;&gt;peptide_archive:w</title>
<path fill="none" stroke="black" stroke-dasharray="5,2" d="M156,-547C187.87,-547 187.83,-582.21 212.97,-589.63"/>
<polygon fill="black" stroke="black" points="212.62,-593.12 223,-591 213.56,-586.18 212.62,-593.12"/>
</g>
<!-- mapping_set -->
<g id="node3" class="node">
<title>mapping_set</title>
<path fill="#ff6666" stroke="black" d="M360.5,-284.5C360.5,-284.5 231.5,-284.5 231.5,-284.5 225.5,-284.5 219.5,-278.5 219.5,-272.5 219.5,-272.5 219.5,-195.5 219.5,-195.5 219.5,-189.5 225.5,-183.5 231.5,-183.5 231.5,-183.5 360.5,-183.5 360.5,-183.5 366.5,-183.5 372.5,-189.5 372.5,-195.5 372.5,-195.5 372.5,-272.5 372.5,-272.5 372.5,-278.5 366.5,-284.5 360.5,-284.5"/>
<text text-anchor="start" x="255.62" y="-261.6" font-family="Times,serif" font-size="16.00">mapping_set</text>
<polygon fill="white" stroke="transparent" points="230,-233 230,-253 363,-253 363,-233 230,-233"/>
<text text-anchor="start" x="234.68" y="-239.4" font-family="Times,serif" font-weight="bold" font-size="14.00">PK</text>
<text text-anchor="start" x="252.57" y="-239.4" font-family="Times,serif" font-size="14.00">  mapping_set_id</text>
<polygon fill="white" stroke="transparent" points="230,-211 230,-231 363,-231 363,-211 230,-211"/>
<text text-anchor="start" x="232.74" y="-216.4" font-family="Times,serif" font-size="14.00">internal_schema_build</text>
<polygon fill="white" stroke="transparent" points="230,-189 230,-209 363,-209 363,-189 230,-189"/>
<text text-anchor="start" x="231.58" y="-194.4" font-family="Times,serif" font-size="14.00">external_schema_build</text>
<polygon fill="black" stroke="black" points="228,-254 228,-254 365,-254 365,-254 228,-254"/>
</g>
<!-- seq_region_mapping -->
<g id="node5" class="node">
<title>seq_region_mapping</title>
<path fill="#ff6666" stroke="black" d="M162,-284.5C162,-284.5 28,-284.5 28,-284.5 22,-284.5 16,-278.5 16,-272.5 16,-272.5 16,-195.5 16,-195.5 16,-189.5 22,-183.5 28,-183.5 28,-183.5 162,-183.5 162,-183.5 168,-183.5 174,-189.5 174,-195.5 174,-195.5 174,-272.5 174,-272.5 174,-278.5 168,-284.5 162,-284.5"/>
<text text-anchor="start" x="27.9" y="-261.6" font-family="Times,serif" font-size="16.00">seq_region_mapping</text>
<polygon fill="white" stroke="transparent" points="26,-233 26,-253 164,-253 164,-233 26,-233"/>
<text text-anchor="start" x="29.3" y="-238.4" font-family="Times,serif" font-size="14.00">external_seq_region_id</text>
<polygon fill="white" stroke="transparent" points="26,-211 26,-231 164,-231 164,-211 26,-211"/>
<text text-anchor="start" x="30.46" y="-216.4" font-family="Times,serif" font-size="14.00">internal_seq_region_id</text>
<polygon fill="white" stroke="transparent" points="26,-189 26,-209 164,-209 164,-189 26,-189"/>
<text text-anchor="start" x="50.28" y="-194.4" font-family="Times,serif" font-size="14.00">mapping_set_id</text>
<polygon fill="black" stroke="black" points="24,-254 24,-254 166,-254 166,-254 24,-254"/>
</g>
<!-- seq_region_mapping&#45;&gt;mapping_set -->
<g id="edge3" class="edge">
<title>seq_region_mapping:e&#45;&gt;mapping_set:w</title>
<path fill="none" stroke="black" stroke-dasharray="5,2" d="M165,-199C195.74,-199 195.11,-233.9 218.99,-241.54"/>
<polygon fill="black" stroke="black" points="218.6,-245.02 229,-243 219.61,-238.09 218.6,-245.02"/>
</g>
<!-- seq_region -->
<g id="node7" class="node">
<title>seq_region</title>
<path fill="#c70c09" stroke="black" d="M352.5,-126.5C352.5,-126.5 239.5,-126.5 239.5,-126.5 233.5,-126.5 227.5,-120.5 227.5,-114.5 227.5,-114.5 227.5,-59.5 227.5,-59.5 227.5,-53.5 233.5,-47.5 239.5,-47.5 239.5,-47.5 352.5,-47.5 352.5,-47.5 358.5,-47.5 364.5,-53.5 364.5,-59.5 364.5,-59.5 364.5,-114.5 364.5,-114.5 364.5,-120.5 358.5,-126.5 352.5,-126.5"/>
<text text-anchor="start" x="261.4" y="-103.6" font-family="Times,serif" font-size="16.00">seq_region</text>
<polygon fill="white" stroke="transparent" points="238,-75 238,-95 355,-95 355,-75 238,-75"/>
<text text-anchor="start" x="239.74" y="-81.4" font-family="Times,serif" font-weight="bold" font-size="14.00">PK</text>
<text text-anchor="start" x="257.63" y="-81.4" font-family="Times,serif" font-size="14.00">  seq_region_id</text>
<polygon fill="white" stroke="transparent" points="238,-53 238,-73 355,-73 355,-53 238,-53"/>
<text text-anchor="start" x="291.25" y="-59.4" font-family="Times,serif" font-style="italic" font-size="14.00">...</text>
<polygon fill="black" stroke="black" points="236,-96 236,-96 357,-96 357,-96 236,-96"/>
</g>
<!-- seq_region_mapping&#45;&gt;seq_region -->
<g id="edge4" class="edge">
<title>seq_region_mapping:e&#45;&gt;seq_region:w</title>
<path fill="none" stroke="black" stroke-dasharray="5,2" d="M165,-221C229.65,-221 175.3,-99.47 226.93,-86.18"/>
<polygon fill="black" stroke="black" points="227.47,-89.64 237,-85 226.66,-82.68 227.47,-89.64"/>
</g>
<!-- stable_id_event -->
<g id="node6" class="node">
<title>stable_id_event</title>
<path fill="#ff6666" stroke="black" d="M152,-491.5C152,-491.5 38,-491.5 38,-491.5 32,-491.5 26,-485.5 26,-479.5 26,-479.5 26,-314.5 26,-314.5 26,-308.5 32,-302.5 38,-302.5 38,-302.5 152,-302.5 152,-302.5 158,-302.5 164,-308.5 164,-314.5 164,-314.5 164,-479.5 164,-479.5 164,-485.5 158,-491.5 152,-491.5"/>
<text text-anchor="start" x="44.79" y="-468.6" font-family="Times,serif" font-size="16.00">stable_id_event</text>
<polygon fill="white" stroke="transparent" points="36,-440 36,-460 154,-460 154,-440 36,-440"/>
<text text-anchor="start" x="57.28" y="-445.4" font-family="Times,serif" font-size="14.00">old_stable_id</text>
<polygon fill="white" stroke="transparent" points="36,-418 36,-438 154,-438 154,-418 36,-418"/>
<text text-anchor="start" x="61.95" y="-423.4" font-family="Times,serif" font-size="14.00">old_version</text>
<polygon fill="white" stroke="transparent" points="36,-396 36,-416 154,-416 154,-396 36,-396"/>
<text text-anchor="start" x="54.57" y="-401.4" font-family="Times,serif" font-size="14.00">new_stable_id</text>
<polygon fill="white" stroke="transparent" points="36,-374 36,-394 154,-394 154,-374 36,-374"/>
<text text-anchor="start" x="59.23" y="-379.4" font-family="Times,serif" font-size="14.00">new_version</text>
<polygon fill="white" stroke="transparent" points="36,-352 36,-372 154,-372 154,-352 36,-352"/>
<text text-anchor="start" x="37.84" y="-357.4" font-family="Times,serif" font-size="14.00">mapping_session_id</text>
<polygon fill="white" stroke="transparent" points="36,-330 36,-350 154,-350 154,-330 36,-330"/>
<text text-anchor="start" x="82.95" y="-335.4" font-family="Times,serif" font-size="14.00">type</text>
<polygon fill="white" stroke="transparent" points="36,-308 36,-328 154,-328 154,-308 36,-308"/>
<text text-anchor="start" x="80.23" y="-313.4" font-family="Times,serif" font-size="14.00">score</text>
<polygon fill="black" stroke="black" points="34,-461 34,-461 156,-461 156,-461 34,-461"/>
</g>
<!-- stable_id_event&#45;&gt;mapping_session -->
<g id="edge5" class="edge">
<title>stable_id_event:e&#45;&gt;mapping_session:w</title>
<path fill="none" stroke="black" stroke-dasharray="5,2" d="M155,-362C207.81,-362 168.5,-457.88 209.07,-470.61"/>
<polygon fill="black" stroke="black" points="208.61,-474.08 219,-472 209.58,-467.15 208.61,-474.08"/>
</g>
</g>
</svg>
