<?xml version="1.0" encoding="UTF-8" standalone="no"?>
<!DOCTYPE svg PUBLIC "-//W3C//DTD SVG 1.1//EN"
 "http://www.w3.org/Graphics/SVG/1.1/DTD/svg11.dtd">
<!-- Generated by graphviz version 8.0.5 (20230430.1635)
 -->
<!-- Title: test Pages: 1 -->
<svg width="795pt" height="1781pt"
 viewBox="0.00 0.00 794.50 1780.50" xmlns="http://www.w3.org/2000/svg" xmlns:xlink="http://www.w3.org/1999/xlink">
<g id="graph0" class="graph" transform="scale(1 1) rotate(0) translate(4 1776.5)">
<title>test</title>
<polygon fill="white" stroke="none" points="-4,4 -4,-1776.5 790.5,-1776.5 790.5,4 -4,4"/>
<text text-anchor="middle" x="393.25" y="-7.5" font-family="Times,serif" font-size="20.00">Core schema diagram: External References tables</text>
<g id="clust1" class="cluster">
<title>cluster_external_references</title>
<path fill="#d2e8ff" stroke="#d2e8ff" d="M20,-653.5C20,-653.5 766.5,-653.5 766.5,-653.5 772.5,-653.5 778.5,-659.5 778.5,-665.5 778.5,-665.5 778.5,-1752.5 778.5,-1752.5 778.5,-1758.5 772.5,-1764.5 766.5,-1764.5 766.5,-1764.5 20,-1764.5 20,-1764.5 14,-1764.5 8,-1758.5 8,-1752.5 8,-1752.5 8,-665.5 8,-665.5 8,-659.5 14,-653.5 20,-653.5"/>
<text text-anchor="middle" x="393.25" y="-1741.5" font-family="Times,serif" font-size="20.00">External References</text>
</g>
<g id="clust2" class="cluster">
<title>cluster_fundamental_tables</title>
<polygon fill="white" stroke="white" points="395.75,-38.5 395.75,-645.5 573.75,-645.5 573.75,-38.5 395.75,-38.5"/>
<text text-anchor="middle" x="484.75" y="-622.5" font-family="Times,serif" font-size="20.00">Fundamental Tables</text>
</g>
<!-- associated_group -->
<g id="node1" class="node">
<title>associated_group</title>
<path fill="#1e90ff" stroke="black" d="M354.25,-1613.38C354.25,-1613.38 216.25,-1613.38 216.25,-1613.38 210.25,-1613.38 204.25,-1607.38 204.25,-1601.38 204.25,-1601.38 204.25,-1545.62 204.25,-1545.62 204.25,-1539.62 210.25,-1533.62 216.25,-1533.62 216.25,-1533.62 354.25,-1533.62 354.25,-1533.62 360.25,-1533.62 366.25,-1539.62 366.25,-1545.62 366.25,-1545.62 366.25,-1601.38 366.25,-1601.38 366.25,-1607.38 360.25,-1613.38 354.25,-1613.38"/>
<text text-anchor="start" x="229.75" y="-1590.17" font-family="Times,serif" font-size="16.00">associated_group</text>
<polygon fill="white" stroke="none" points="214.25,-1562.12 214.25,-1582.62 356.25,-1582.62 356.25,-1562.12 214.25,-1562.12"/>
<text text-anchor="start" x="216.25" y="-1568.33" font-family="Times,serif" font-weight="bold" font-size="14.00">PK</text>
<text text-anchor="start" x="235.75" y="-1568.33" font-family="Times,serif" font-size="14.00">  associated_group_id</text>
<polygon fill="white" stroke="none" points="214.25,-1539.62 214.25,-1560.12 356.25,-1560.12 356.25,-1539.62 214.25,-1539.62"/>
<text text-anchor="start" x="255.25" y="-1544.83" font-family="Times,serif" font-size="14.00">description</text>
<polygon fill="black" stroke="black" points="212.25,-1583.62 212.25,-1583.62 358.25,-1583.62 358.25,-1583.62 212.25,-1583.62"/>
</g>
<!-- associated_xref -->
<g id="node2" class="node">
<title>associated_xref</title>
<path fill="#1e90ff" stroke="black" d="M156.25,-1725.62C156.25,-1725.62 28,-1725.62 28,-1725.62 22,-1725.62 16,-1719.62 16,-1713.62 16,-1713.62 16,-1545.38 16,-1545.38 16,-1539.38 22,-1533.38 28,-1533.38 28,-1533.38 156.25,-1533.38 156.25,-1533.38 162.25,-1533.38 168.25,-1539.38 168.25,-1545.38 168.25,-1545.38 168.25,-1713.62 168.25,-1713.62 168.25,-1719.62 162.25,-1725.62 156.25,-1725.62"/>
<text text-anchor="start" x="43" y="-1702.42" font-family="Times,serif" font-size="16.00">associated_xref</text>
<polygon fill="white" stroke="none" points="26,-1674.38 26,-1694.88 158.25,-1694.88 158.25,-1674.38 26,-1674.38"/>
<text text-anchor="start" x="28" y="-1680.58" font-family="Times,serif" font-weight="bold" font-size="14.00">PK</text>
<text text-anchor="start" x="47.5" y="-1680.58" font-family="Times,serif" font-size="14.00">  associated_xref_id</text>
<polygon fill="white" stroke="none" points="26,-1651.88 26,-1672.38 158.25,-1672.38 158.25,-1651.88 26,-1651.88"/>
<text text-anchor="start" x="52.75" y="-1657.08" font-family="Times,serif" font-size="14.00">object_xref_id</text>
<polygon fill="white" stroke="none" points="26,-1629.38 26,-1649.88 158.25,-1649.88 158.25,-1629.38 26,-1629.38"/>
<text text-anchor="start" x="72.62" y="-1634.58" font-family="Times,serif" font-size="14.00">xref_id</text>
<polygon fill="white" stroke="none" points="26,-1606.88 26,-1627.38 158.25,-1627.38 158.25,-1606.88 26,-1606.88"/>
<text text-anchor="start" x="51.62" y="-1612.08" font-family="Times,serif" font-size="14.00">source_xref_id</text>
<polygon fill="white" stroke="none" points="26,-1584.38 26,-1604.88 158.25,-1604.88 158.25,-1584.38 26,-1584.38"/>
<text text-anchor="start" x="51.62" y="-1589.58" font-family="Times,serif" font-size="14.00">condition_type</text>
<polygon fill="white" stroke="none" points="26,-1561.88 26,-1582.38 158.25,-1582.38 158.25,-1561.88 26,-1561.88"/>
<text text-anchor="start" x="36.62" y="-1567.08" font-family="Times,serif" font-size="14.00">associated_group_id</text>
<polygon fill="white" stroke="none" points="26,-1539.38 26,-1559.88 158.25,-1559.88 158.25,-1539.38 26,-1539.38"/>
<text text-anchor="start" x="80.12" y="-1544.58" font-family="Times,serif" font-size="14.00">rank</text>
<polygon fill="black" stroke="black" points="24,-1695.88 24,-1695.88 160.25,-1695.88 160.25,-1695.88 24,-1695.88"/>
</g>
<!-- associated_xref&#45;&gt;associated_group -->
<g id="edge1" class="edge">
<title>associated_xref:e&#45;&gt;associated_group:w</title>
<path fill="none" stroke="black" stroke-dasharray="5,2" d="M159.12,-1572.5C179.05,-1572.5 186.59,-1572.5 202.26,-1572.5"/>
<polygon fill="black" stroke="black" points="202.25,-1576 212.25,-1572.5 202.25,-1569 202.25,-1576"/>
</g>
<!-- object_xref -->
<g id="node9" class="node">
<title>object_xref</title>
<path fill="#1e90ff" stroke="black" d="M343,-943.38C343,-943.38 227.5,-943.38 227.5,-943.38 221.5,-943.38 215.5,-937.38 215.5,-931.38 215.5,-931.38 215.5,-785.62 215.5,-785.62 215.5,-779.62 221.5,-773.62 227.5,-773.62 227.5,-773.62 343,-773.62 343,-773.62 349,-773.62 355,-779.62 355,-785.62 355,-785.62 355,-931.38 355,-931.38 355,-937.38 349,-943.38 343,-943.38"/>
<text text-anchor="start" x="248.88" y="-920.17" font-family="Times,serif" font-size="16.00">object_xref</text>
<polygon fill="white" stroke="none" points="225.5,-892.12 225.5,-912.62 345,-912.62 345,-892.12 225.5,-892.12"/>
<text text-anchor="start" x="232.38" y="-898.33" font-family="Times,serif" font-weight="bold" font-size="14.00">PK</text>
<text text-anchor="start" x="251.88" y="-898.33" font-family="Times,serif" font-size="14.00">  object_xref_id</text>
<polygon fill="white" stroke="none" points="225.5,-869.62 225.5,-890.12 345,-890.12 345,-869.62 225.5,-869.62"/>
<text text-anchor="start" x="253.75" y="-874.83" font-family="Times,serif" font-size="14.00">ensembl_id</text>
<polygon fill="white" stroke="none" points="225.5,-847.12 225.5,-867.62 345,-867.62 345,-847.12 225.5,-847.12"/>
<text text-anchor="start" x="227.5" y="-852.33" font-family="Times,serif" font-size="14.00">ensembl_object_type</text>
<polygon fill="white" stroke="none" points="225.5,-824.62 225.5,-845.12 345,-845.12 345,-824.62 225.5,-824.62"/>
<text text-anchor="start" x="265.75" y="-829.83" font-family="Times,serif" font-size="14.00">xref_id</text>
<polygon fill="white" stroke="none" points="225.5,-802.12 225.5,-822.62 345,-822.62 345,-802.12 225.5,-802.12"/>
<text text-anchor="start" x="233.5" y="-807.33" font-family="Times,serif" font-size="14.00">linkage_annotation</text>
<polygon fill="white" stroke="none" points="225.5,-779.62 225.5,-800.12 345,-800.12 345,-779.62 225.5,-779.62"/>
<text text-anchor="start" x="254.88" y="-784.83" font-family="Times,serif" font-size="14.00">analysis_id</text>
<polygon fill="black" stroke="black" points="223.5,-913.62 223.5,-913.62 347,-913.62 347,-913.62 223.5,-913.62"/>
</g>
<!-- associated_xref&#45;&gt;object_xref -->
<g id="edge2" class="edge">
<title>associated_xref:e&#45;&gt;object_xref:w</title>
<path fill="none" stroke="black" stroke-dasharray="5,2" d="M159.12,-1662.5C240.24,-1662.5 148.12,-966.41 214.34,-906.59"/>
<polygon fill="black" stroke="black" points="215.34,-909.55 223.25,-902.5 212.67,-903.08 215.34,-909.55"/>
</g>
<!-- xref -->
<g id="node13" class="node">
<title>xref</title>
<path fill="#1e90ff" stroke="black" d="M525.62,-875.88C525.62,-875.88 443.88,-875.88 443.88,-875.88 437.88,-875.88 431.88,-869.88 431.88,-863.88 431.88,-863.88 431.88,-673.12 431.88,-673.12 431.88,-667.12 437.88,-661.12 443.88,-661.12 443.88,-661.12 525.62,-661.12 525.62,-661.12 531.62,-661.12 537.62,-667.12 537.62,-673.12 537.62,-673.12 537.62,-863.88 537.62,-863.88 537.62,-869.88 531.62,-875.88 525.62,-875.88"/>
<text text-anchor="start" x="472" y="-852.67" font-family="Times,serif" font-size="16.00">xref</text>
<polygon fill="white" stroke="none" points="441.88,-824.62 441.88,-845.12 527.62,-845.12 527.62,-824.62 441.88,-824.62"/>
<text text-anchor="start" x="451.75" y="-830.83" font-family="Times,serif" font-weight="bold" font-size="14.00">PK</text>
<text text-anchor="start" x="471.25" y="-830.83" font-family="Times,serif" font-size="14.00">  xref_id</text>
<polygon fill="white" stroke="none" points="441.88,-802.12 441.88,-822.62 527.62,-822.62 527.62,-802.12 441.88,-802.12"/>
<text text-anchor="start" x="444.25" y="-807.33" font-family="Times,serif" font-size="14.00">external_db_id</text>
<polygon fill="white" stroke="none" points="441.88,-779.62 441.88,-800.12 527.62,-800.12 527.62,-779.62 441.88,-779.62"/>
<text text-anchor="start" x="443.88" y="-784.83" font-family="Times,serif" font-size="14.00">dbprimary_acc</text>
<polygon fill="white" stroke="none" points="441.88,-757.12 441.88,-777.62 527.62,-777.62 527.62,-757.12 441.88,-757.12"/>
<text text-anchor="start" x="448.75" y="-762.33" font-family="Times,serif" font-size="14.00">display_label</text>
<polygon fill="white" stroke="none" points="441.88,-734.62 441.88,-755.12 527.62,-755.12 527.62,-734.62 441.88,-734.62"/>
<text text-anchor="start" x="464.88" y="-739.83" font-family="Times,serif" font-size="14.00">version</text>
<polygon fill="white" stroke="none" points="441.88,-712.12 441.88,-732.62 527.62,-732.62 527.62,-712.12 441.88,-712.12"/>
<text text-anchor="start" x="454.75" y="-717.33" font-family="Times,serif" font-size="14.00">description</text>
<polygon fill="white" stroke="none" points="441.88,-689.62 441.88,-710.12 527.62,-710.12 527.62,-689.62 441.88,-689.62"/>
<text text-anchor="start" x="458.88" y="-694.83" font-family="Times,serif" font-size="14.00">info_type</text>
<polygon fill="white" stroke="none" points="441.88,-667.12 441.88,-687.62 527.62,-687.62 527.62,-667.12 441.88,-667.12"/>
<text text-anchor="start" x="460.38" y="-672.33" font-family="Times,serif" font-size="14.00">info_text</text>
<polygon fill="black" stroke="black" points="439.88,-846.12 439.88,-846.12 529.62,-846.12 529.62,-846.12 439.88,-846.12"/>
</g>
<!-- associated_xref&#45;&gt;xref -->
<g id="edge3" class="edge">
<title>associated_xref:e&#45;&gt;xref:w</title>
<path fill="none" stroke="black" stroke-dasharray="5,2" d="M159.12,-1639.5C251.49,-1639.5 302.32,-1689.17 366.25,-1622.5 422.97,-1563.35 365.24,-961.56 395.75,-885.5 405.51,-861.17 409.45,-840.68 430.04,-835.67"/>
<polygon fill="black" stroke="black" points="430.19,-839.07 439.75,-834.5 429.43,-832.11 430.19,-839.07"/>
</g>
<!-- biotype -->
<g id="node3" class="node">
<title>biotype</title>
<path fill="#1e90ff" stroke="black" d="M134.5,-1515.12C134.5,-1515.12 49.75,-1515.12 49.75,-1515.12 43.75,-1515.12 37.75,-1509.12 37.75,-1503.12 37.75,-1503.12 37.75,-1289.88 37.75,-1289.88 37.75,-1283.88 43.75,-1277.88 49.75,-1277.88 49.75,-1277.88 134.5,-1277.88 134.5,-1277.88 140.5,-1277.88 146.5,-1283.88 146.5,-1289.88 146.5,-1289.88 146.5,-1503.12 146.5,-1503.12 146.5,-1509.12 140.5,-1515.12 134.5,-1515.12"/>
<text text-anchor="start" x="67.75" y="-1491.92" font-family="Times,serif" font-size="16.00">biotype</text>
<polygon fill="white" stroke="none" points="47.75,-1463.88 47.75,-1484.38 136.5,-1484.38 136.5,-1463.88 47.75,-1463.88"/>
<text text-anchor="start" x="49.75" y="-1470.08" font-family="Times,serif" font-weight="bold" font-size="14.00">PK</text>
<text text-anchor="start" x="69.25" y="-1470.08" font-family="Times,serif" font-size="14.00">  biotype_id</text>
<polygon fill="white" stroke="none" points="47.75,-1441.38 47.75,-1461.88 136.5,-1461.88 136.5,-1441.38 47.75,-1441.38"/>
<text text-anchor="start" x="77.12" y="-1446.58" font-family="Times,serif" font-size="14.00">name</text>
<polygon fill="white" stroke="none" points="47.75,-1418.88 47.75,-1439.38 136.5,-1439.38 136.5,-1418.88 47.75,-1418.88"/>
<text text-anchor="start" x="60.62" y="-1424.08" font-family="Times,serif" font-size="14.00">object_type</text>
<polygon fill="white" stroke="none" points="47.75,-1396.38 47.75,-1416.88 136.5,-1416.88 136.5,-1396.38 47.75,-1396.38"/>
<text text-anchor="start" x="70.38" y="-1401.58" font-family="Times,serif" font-size="14.00">db_type</text>
<polygon fill="white" stroke="none" points="47.75,-1373.88 47.75,-1394.38 136.5,-1394.38 136.5,-1373.88 47.75,-1373.88"/>
<text text-anchor="start" x="54.25" y="-1379.08" font-family="Times,serif" font-size="14.00">attrib_type_id</text>
<polygon fill="white" stroke="none" points="47.75,-1351.38 47.75,-1371.88 136.5,-1371.88 136.5,-1351.38 47.75,-1351.38"/>
<text text-anchor="start" x="62.12" y="-1356.58" font-family="Times,serif" font-size="14.00">description</text>
<polygon fill="white" stroke="none" points="47.75,-1328.88 47.75,-1349.38 136.5,-1349.38 136.5,-1328.88 47.75,-1328.88"/>
<text text-anchor="start" x="52.75" y="-1334.08" font-family="Times,serif" font-size="14.00">biotype_group</text>
<polygon fill="white" stroke="none" points="47.75,-1306.38 47.75,-1326.88 136.5,-1326.88 136.5,-1306.38 47.75,-1306.38"/>
<text text-anchor="start" x="73.75" y="-1311.58" font-family="Times,serif" font-size="14.00">so_acc</text>
<polygon fill="white" stroke="none" points="47.75,-1283.88 47.75,-1304.38 136.5,-1304.38 136.5,-1283.88 47.75,-1283.88"/>
<text text-anchor="start" x="70" y="-1289.08" font-family="Times,serif" font-size="14.00">so_term</text>
<polygon fill="black" stroke="black" points="45.75,-1485.38 45.75,-1485.38 138.5,-1485.38 138.5,-1485.38 45.75,-1485.38"/>
</g>
<!-- dependent_xref -->
<g id="node4" class="node">
<title>dependent_xref</title>
<path fill="#1e90ff" stroke="black" d="M145,-1259.62C145,-1259.62 39.25,-1259.62 39.25,-1259.62 33.25,-1259.62 27.25,-1253.62 27.25,-1247.62 27.25,-1247.62 27.25,-1169.38 27.25,-1169.38 27.25,-1163.38 33.25,-1157.38 39.25,-1157.38 39.25,-1157.38 145,-1157.38 145,-1157.38 151,-1157.38 157,-1163.38 157,-1169.38 157,-1169.38 157,-1247.62 157,-1247.62 157,-1253.62 151,-1259.62 145,-1259.62"/>
<text text-anchor="start" x="42.25" y="-1236.42" font-family="Times,serif" font-size="16.00">dependent_xref</text>
<polygon fill="white" stroke="none" points="37.25,-1208.38 37.25,-1228.88 147,-1228.88 147,-1208.38 37.25,-1208.38"/>
<text text-anchor="start" x="39.25" y="-1214.58" font-family="Times,serif" font-weight="bold" font-size="14.00">PK</text>
<text text-anchor="start" x="58.75" y="-1214.58" font-family="Times,serif" font-size="14.00">  object_xref_id</text>
<polygon fill="white" stroke="none" points="37.25,-1185.88 37.25,-1206.38 147,-1206.38 147,-1185.88 37.25,-1185.88"/>
<text text-anchor="start" x="50.88" y="-1191.08" font-family="Times,serif" font-size="14.00">master_xref_id</text>
<polygon fill="white" stroke="none" points="37.25,-1163.38 37.25,-1183.88 147,-1183.88 147,-1163.38 37.25,-1163.38"/>
<text text-anchor="start" x="41.5" y="-1168.58" font-family="Times,serif" font-size="14.00">dependent_xref_id</text>
<polygon fill="black" stroke="black" points="35.25,-1229.88 35.25,-1229.88 149,-1229.88 149,-1229.88 35.25,-1229.88"/>
</g>
<!-- dependent_xref&#45;&gt;object_xref -->
<g id="edge4" class="edge">
<title>dependent_xref:e&#45;&gt;object_xref:w</title>
<path fill="none" stroke="black" stroke-dasharray="5,2" d="M148.12,-1218.5C288.78,-1218.5 90.76,-918.94 213.55,-903.15"/>
<polygon fill="black" stroke="black" points="213.48,-906.6 223.25,-902.5 213.06,-899.61 213.48,-906.6"/>
</g>
<!-- dependent_xref&#45;&gt;xref -->
<g id="edge5" class="edge">
<title>dependent_xref:e&#45;&gt;xref:w</title>
<path fill="none" stroke="black" stroke-dasharray="5,2" d="M148.12,-1196.5C264.78,-1196.5 302.42,-1148.15 366.25,-1050.5 419.69,-968.74 345.29,-844.41 429.93,-835.06"/>
<polygon fill="black" stroke="black" points="429.94,-838.51 439.75,-834.5 429.58,-831.52 429.94,-838.51"/>
</g>
<!-- external_db -->
<g id="node5" class="node">
<title>external_db</title>
<path fill="#1e90ff" stroke="black" d="M742.75,-921.38C742.75,-921.38 631,-921.38 631,-921.38 625,-921.38 619,-915.38 619,-909.38 619,-909.38 619,-673.62 619,-673.62 619,-667.62 625,-661.62 631,-661.62 631,-661.62 742.75,-661.62 742.75,-661.62 748.75,-661.62 754.75,-667.62 754.75,-673.62 754.75,-673.62 754.75,-909.38 754.75,-909.38 754.75,-915.38 748.75,-921.38 742.75,-921.38"/>
<text text-anchor="start" x="649" y="-898.17" font-family="Times,serif" font-size="16.00">external_db</text>
<polygon fill="white" stroke="none" points="629,-870.12 629,-890.62 744.75,-890.62 744.75,-870.12 629,-870.12"/>
<text text-anchor="start" x="632.88" y="-876.33" font-family="Times,serif" font-weight="bold" font-size="14.00">PK</text>
<text text-anchor="start" x="652.38" y="-876.33" font-family="Times,serif" font-size="14.00">  external_db_id</text>
<polygon fill="white" stroke="none" points="629,-847.62 629,-868.12 744.75,-868.12 744.75,-847.62 629,-847.62"/>
<text text-anchor="start" x="661.75" y="-852.83" font-family="Times,serif" font-size="14.00">db_name</text>
<polygon fill="white" stroke="none" points="629,-825.12 629,-845.62 744.75,-845.62 744.75,-825.12 629,-825.12"/>
<text text-anchor="start" x="658" y="-830.33" font-family="Times,serif" font-size="14.00">db_release</text>
<polygon fill="white" stroke="none" points="629,-802.62 629,-823.12 744.75,-823.12 744.75,-802.62 629,-802.62"/>
<text text-anchor="start" x="671.5" y="-807.83" font-family="Times,serif" font-size="14.00">status</text>
<polygon fill="white" stroke="none" points="629,-780.12 629,-800.62 744.75,-800.62 744.75,-780.12 629,-780.12"/>
<text text-anchor="start" x="666.62" y="-785.33" font-family="Times,serif" font-size="14.00">priority</text>
<polygon fill="white" stroke="none" points="629,-757.62 629,-778.12 744.75,-778.12 744.75,-757.62 629,-757.62"/>
<text text-anchor="start" x="638.88" y="-762.83" font-family="Times,serif" font-size="14.00">db_display_name</text>
<polygon fill="white" stroke="none" points="629,-735.12 629,-755.62 744.75,-755.62 744.75,-735.12 629,-735.12"/>
<text text-anchor="start" x="675.25" y="-740.33" font-family="Times,serif" font-size="14.00">type</text>
<polygon fill="white" stroke="none" points="629,-712.62 629,-733.12 744.75,-733.12 744.75,-712.62 629,-712.62"/>
<text text-anchor="start" x="631" y="-717.83" font-family="Times,serif" font-size="14.00">secondary_db_name</text>
<polygon fill="white" stroke="none" points="629,-690.12 629,-710.62 744.75,-710.62 744.75,-690.12 629,-690.12"/>
<text text-anchor="start" x="632.88" y="-695.33" font-family="Times,serif" font-size="14.00">secondary_db_table</text>
<polygon fill="white" stroke="none" points="629,-667.62 629,-688.12 744.75,-688.12 744.75,-667.62 629,-667.62"/>
<text text-anchor="start" x="656.88" y="-672.83" font-family="Times,serif" font-size="14.00">description</text>
<polygon fill="black" stroke="black" points="627,-891.62 627,-891.62 746.75,-891.62 746.75,-891.62 627,-891.62"/>
</g>
<!-- external_synonym -->
<g id="node6" class="node">
<title>external_synonym</title>
<path fill="#1e90ff" stroke="black" d="M344.88,-1041.38C344.88,-1041.38 225.62,-1041.38 225.62,-1041.38 219.62,-1041.38 213.62,-1035.38 213.62,-1029.38 213.62,-1029.38 213.62,-973.62 213.62,-973.62 213.62,-967.62 219.62,-961.62 225.62,-961.62 225.62,-961.62 344.88,-961.62 344.88,-961.62 350.88,-961.62 356.88,-967.62 356.88,-973.62 356.88,-973.62 356.88,-1029.38 356.88,-1029.38 356.88,-1035.38 350.88,-1041.38 344.88,-1041.38"/>
<text text-anchor="start" x="225.62" y="-1018.17" font-family="Times,serif" font-size="16.00">external_synonym</text>
<polygon fill="white" stroke="none" points="223.62,-990.12 223.62,-1010.62 346.88,-1010.62 346.88,-990.12 223.62,-990.12"/>
<text text-anchor="start" x="252.25" y="-996.33" font-family="Times,serif" font-weight="bold" font-size="14.00">PK</text>
<text text-anchor="start" x="271.75" y="-996.33" font-family="Times,serif" font-size="14.00">  xref_id</text>
<polygon fill="white" stroke="none" points="223.62,-967.62 223.62,-988.12 346.88,-988.12 346.88,-967.62 223.62,-967.62"/>
<text text-anchor="start" x="246.62" y="-973.83" font-family="Times,serif" font-weight="bold" font-size="14.00">PK</text>
<text text-anchor="start" x="266.12" y="-973.83" font-family="Times,serif" font-size="14.00">  synonym</text>
<polygon fill="black" stroke="black" points="221.62,-1011.62 221.62,-1011.62 348.88,-1011.62 348.88,-1011.62 221.62,-1011.62"/>
</g>
<!-- external_synonym&#45;&gt;xref -->
<g id="edge7" class="edge">
<title>external_synonym:e&#45;&gt;xref:w</title>
<path fill="none" stroke="black" stroke-dasharray="5,2" d="M348.25,-1000.5C403.55,-1000.5 366.5,-932.43 395.75,-885.5 409.55,-863.35 410.53,-841.44 429.99,-835.86"/>
<polygon fill="black" stroke="black" points="430.27,-839.22 439.75,-834.5 429.39,-832.28 430.27,-839.22"/>
</g>
<!-- identity_xref -->
<g id="node7" class="node">
<title>identity_xref</title>
<path fill="#1e90ff" stroke="black" d="M145,-1139.38C145,-1139.38 39.25,-1139.38 39.25,-1139.38 33.25,-1139.38 27.25,-1133.38 27.25,-1127.38 27.25,-1127.38 27.25,-891.62 27.25,-891.62 27.25,-885.62 33.25,-879.62 39.25,-879.62 39.25,-879.62 145,-879.62 145,-879.62 151,-879.62 157,-885.62 157,-891.62 157,-891.62 157,-1127.38 157,-1127.38 157,-1133.38 151,-1139.38 145,-1139.38"/>
<text text-anchor="start" x="50.5" y="-1116.17" font-family="Times,serif" font-size="16.00">identity_xref</text>
<polygon fill="white" stroke="none" points="37.25,-1088.12 37.25,-1108.62 147,-1108.62 147,-1088.12 37.25,-1088.12"/>
<text text-anchor="start" x="39.25" y="-1094.33" font-family="Times,serif" font-weight="bold" font-size="14.00">PK</text>
<text text-anchor="start" x="58.75" y="-1094.33" font-family="Times,serif" font-size="14.00">  object_xref_id</text>
<polygon fill="white" stroke="none" points="37.25,-1065.62 37.25,-1086.12 147,-1086.12 147,-1065.62 37.25,-1065.62"/>
<text text-anchor="start" x="57.25" y="-1070.83" font-family="Times,serif" font-size="14.00">xref_identity</text>
<polygon fill="white" stroke="none" points="37.25,-1043.12 37.25,-1063.62 147,-1063.62 147,-1043.12 37.25,-1043.12"/>
<text text-anchor="start" x="45.25" y="-1048.33" font-family="Times,serif" font-size="14.00">ensembl_identity</text>
<polygon fill="white" stroke="none" points="37.25,-1020.62 37.25,-1041.12 147,-1041.12 147,-1020.62 37.25,-1020.62"/>
<text text-anchor="start" x="66.25" y="-1025.83" font-family="Times,serif" font-size="14.00">xref_start</text>
<polygon fill="white" stroke="none" points="37.25,-998.12 37.25,-1018.62 147,-1018.62 147,-998.12 37.25,-998.12"/>
<text text-anchor="start" x="68.12" y="-1003.33" font-family="Times,serif" font-size="14.00">xref_end</text>
<polygon fill="white" stroke="none" points="37.25,-975.62 37.25,-996.12 147,-996.12 147,-975.62 37.25,-975.62"/>
<text text-anchor="start" x="54.25" y="-980.83" font-family="Times,serif" font-size="14.00">ensembl_start</text>
<polygon fill="white" stroke="none" points="37.25,-953.12 37.25,-973.62 147,-973.62 147,-953.12 37.25,-953.12"/>
<text text-anchor="start" x="56.12" y="-958.33" font-family="Times,serif" font-size="14.00">ensembl_end</text>
<polygon fill="white" stroke="none" points="37.25,-930.62 37.25,-951.12 147,-951.12 147,-930.62 37.25,-930.62"/>
<text text-anchor="start" x="65.12" y="-935.83" font-family="Times,serif" font-size="14.00">cigar_line</text>
<polygon fill="white" stroke="none" points="37.25,-908.12 37.25,-928.62 147,-928.62 147,-908.12 37.25,-908.12"/>
<text text-anchor="start" x="77.88" y="-913.33" font-family="Times,serif" font-size="14.00">score</text>
<polygon fill="white" stroke="none" points="37.25,-885.62 37.25,-906.12 147,-906.12 147,-885.62 37.25,-885.62"/>
<text text-anchor="start" x="74.5" y="-890.83" font-family="Times,serif" font-size="14.00">evalue</text>
<polygon fill="black" stroke="black" points="35.25,-1109.62 35.25,-1109.62 149,-1109.62 149,-1109.62 35.25,-1109.62"/>
</g>
<!-- identity_xref&#45;&gt;object_xref -->
<g id="edge9" class="edge">
<title>identity_xref:e&#45;&gt;object_xref:w</title>
<path fill="none" stroke="black" stroke-dasharray="5,2" d="M148.12,-1098.5C237.56,-1098.5 139.94,-918.98 213.3,-903.55"/>
<polygon fill="black" stroke="black" points="213.63,-906.94 223.25,-902.5 212.96,-899.98 213.63,-906.94"/>
</g>
<!-- interpro -->
<g id="node8" class="node">
<title>interpro</title>
<path fill="#1e90ff" stroke="black" d="M122.88,-861.38C122.88,-861.38 61.38,-861.38 61.38,-861.38 55.38,-861.38 49.38,-855.38 49.38,-849.38 49.38,-849.38 49.38,-793.62 49.38,-793.62 49.38,-787.62 55.38,-781.62 61.38,-781.62 61.38,-781.62 122.88,-781.62 122.88,-781.62 128.88,-781.62 134.88,-787.62 134.88,-793.62 134.88,-793.62 134.88,-849.38 134.88,-849.38 134.88,-855.38 128.88,-861.38 122.88,-861.38"/>
<text text-anchor="start" x="66.62" y="-838.17" font-family="Times,serif" font-size="16.00">interpro</text>
<polygon fill="white" stroke="none" points="59.38,-810.12 59.38,-830.62 124.88,-830.62 124.88,-810.12 59.38,-810.12"/>
<text text-anchor="start" x="61.38" y="-815.33" font-family="Times,serif" font-size="14.00">interpro_ac</text>
<polygon fill="white" stroke="none" points="59.38,-787.62 59.38,-808.12 124.88,-808.12 124.88,-787.62 59.38,-787.62"/>
<text text-anchor="start" x="86.88" y="-792.83" font-family="Times,serif" font-size="14.00">id</text>
<polygon fill="black" stroke="black" points="57.38,-831.62 57.38,-831.62 126.88,-831.62 126.88,-831.62 57.38,-831.62"/>
</g>
<!-- object_xref&#45;&gt;xref -->
<g id="edge11" class="edge">
<title>object_xref:e&#45;&gt;xref:w</title>
<path fill="none" stroke="black" stroke-dasharray="5,2" d="M346.25,-834.5C384.48,-834.5 396.61,-834.5 430.15,-834.5"/>
<polygon fill="black" stroke="black" points="429.75,-838 439.75,-834.5 429.75,-831 429.75,-838"/>
</g>
<!-- analysis -->
<g id="node14" class="node">
<title>analysis</title>
<path fill="#808000" stroke="black" d="M528.62,-126.38C528.62,-126.38 440.88,-126.38 440.88,-126.38 434.88,-126.38 428.88,-120.38 428.88,-114.38 428.88,-114.38 428.88,-58.62 428.88,-58.62 428.88,-52.62 434.88,-46.62 440.88,-46.62 440.88,-46.62 528.62,-46.62 528.62,-46.62 534.62,-46.62 540.62,-52.62 540.62,-58.62 540.62,-58.62 540.62,-114.38 540.62,-114.38 540.62,-120.38 534.62,-126.38 528.62,-126.38"/>
<text text-anchor="start" x="459.25" y="-103.17" font-family="Times,serif" font-size="16.00">analysis</text>
<polygon fill="white" stroke="none" points="438.88,-75.12 438.88,-95.62 530.62,-95.62 530.62,-75.12 438.88,-75.12"/>
<text text-anchor="start" x="440.88" y="-81.33" font-family="Times,serif" font-weight="bold" font-size="14.00">PK</text>
<text text-anchor="start" x="460.38" y="-81.33" font-family="Times,serif" font-size="14.00">  analysis_id</text>
<polygon fill="white" stroke="none" points="438.88,-52.62 438.88,-73.12 530.62,-73.12 530.62,-52.62 438.88,-52.62"/>
<text text-anchor="start" x="479.12" y="-58.83" font-family="Times,serif" font-style="italic" font-size="14.00">...</text>
<polygon fill="black" stroke="black" points="436.88,-96.62 436.88,-96.62 532.62,-96.62 532.62,-96.62 436.88,-96.62"/>
</g>
<!-- object_xref&#45;&gt;analysis -->
<g id="edge10" class="edge">
<title>object_xref:e&#45;&gt;analysis:w</title>
<path fill="none" stroke="black" stroke-dasharray="5,2" d="M346.25,-789.5C419.12,-789.5 368.24,-202.98 395.75,-135.5 405.17,-112.4 407.98,-92.08 427.01,-86.82"/>
<polygon fill="black" stroke="black" points="427.25,-90.19 436.75,-85.5 426.4,-83.24 427.25,-90.19"/>
</g>
<!-- ontology_xref -->
<g id="node10" class="node">
<title>ontology_xref</title>
<path fill="#1e90ff" stroke="black" d="M138.25,-763.62C138.25,-763.62 46,-763.62 46,-763.62 40,-763.62 34,-757.62 34,-751.62 34,-751.62 34,-673.38 34,-673.38 34,-667.38 40,-661.38 46,-661.38 46,-661.38 138.25,-661.38 138.25,-661.38 144.25,-661.38 150.25,-667.38 150.25,-673.38 150.25,-673.38 150.25,-751.62 150.25,-751.62 150.25,-757.62 144.25,-763.62 138.25,-763.62"/>
<text text-anchor="start" x="46" y="-740.42" font-family="Times,serif" font-size="16.00">ontology_xref</text>
<polygon fill="white" stroke="none" points="44,-712.38 44,-732.88 140.25,-732.88 140.25,-712.38 44,-712.38"/>
<text text-anchor="start" x="52.75" y="-717.58" font-family="Times,serif" font-size="14.00">object_xref_id</text>
<polygon fill="white" stroke="none" points="44,-689.88 44,-710.38 140.25,-710.38 140.25,-689.88 44,-689.88"/>
<text text-anchor="start" x="51.62" y="-695.08" font-family="Times,serif" font-size="14.00">source_xref_id</text>
<polygon fill="white" stroke="none" points="44,-667.38 44,-687.88 140.25,-687.88 140.25,-667.38 44,-667.38"/>
<text text-anchor="start" x="57.25" y="-672.58" font-family="Times,serif" font-size="14.00">linkage_type</text>
<polygon fill="black" stroke="black" points="42,-733.88 42,-733.88 142.25,-733.88 142.25,-733.88 42,-733.88"/>
</g>
<!-- ontology_xref&#45;&gt;object_xref -->
<g id="edge12" class="edge">
<title>ontology_xref:e&#45;&gt;object_xref:w</title>
<path fill="none" stroke="black" stroke-dasharray="5,2" d="M141.12,-722.5C225.29,-722.5 144.13,-886.69 213.44,-901.44"/>
<polygon fill="black" stroke="black" points="212.96,-905.01 223.25,-902.5 213.64,-898.04 212.96,-905.01"/>
</g>
<!-- ontology_xref&#45;&gt;xref -->
<g id="edge13" class="edge">
<title>ontology_xref:e&#45;&gt;xref:w</title>
<path fill="none" stroke="black" stroke-dasharray="5,2" d="M141.12,-700.5C245.15,-700.5 275.75,-713.21 366.25,-764.5 402.38,-784.98 396.74,-826.51 430.21,-833.49"/>
<polygon fill="black" stroke="black" points="429.46,-837.03 439.75,-834.5 430.13,-830.06 429.46,-837.03"/>
</g>
<!-- unmapped_object -->
<g id="node11" class="node">
<title>unmapped_object</title>
<path fill="#1e90ff" stroke="black" d="M555.25,-1176.62C555.25,-1176.62 414.25,-1176.62 414.25,-1176.62 408.25,-1176.62 402.25,-1170.62 402.25,-1164.62 402.25,-1164.62 402.25,-906.38 402.25,-906.38 402.25,-900.38 408.25,-894.38 414.25,-894.38 414.25,-894.38 555.25,-894.38 555.25,-894.38 561.25,-894.38 567.25,-900.38 567.25,-906.38 567.25,-906.38 567.25,-1164.62 567.25,-1164.62 567.25,-1170.62 561.25,-1176.62 555.25,-1176.62"/>
<text text-anchor="start" x="427.38" y="-1153.42" font-family="Times,serif" font-size="16.00">unmapped_object</text>
<polygon fill="white" stroke="none" points="412.25,-1125.38 412.25,-1145.88 557.25,-1145.88 557.25,-1125.38 412.25,-1125.38"/>
<text text-anchor="start" x="414.25" y="-1131.58" font-family="Times,serif" font-weight="bold" font-size="14.00">PK</text>
<text text-anchor="start" x="433.75" y="-1131.58" font-family="Times,serif" font-size="14.00">  unmapped_object_id</text>
<polygon fill="white" stroke="none" points="412.25,-1102.88 412.25,-1123.38 557.25,-1123.38 557.25,-1102.88 412.25,-1102.88"/>
<text text-anchor="start" x="473.12" y="-1108.08" font-family="Times,serif" font-size="14.00">type</text>
<polygon fill="white" stroke="none" points="412.25,-1080.38 412.25,-1100.88 557.25,-1100.88 557.25,-1080.38 412.25,-1080.38"/>
<text text-anchor="start" x="454.38" y="-1085.58" font-family="Times,serif" font-size="14.00">analysis_id</text>
<polygon fill="white" stroke="none" points="412.25,-1057.88 412.25,-1078.38 557.25,-1078.38 557.25,-1057.88 412.25,-1057.88"/>
<text text-anchor="start" x="444.25" y="-1063.08" font-family="Times,serif" font-size="14.00">external_db_id</text>
<polygon fill="white" stroke="none" points="412.25,-1035.38 412.25,-1055.88 557.25,-1055.88 557.25,-1035.38 412.25,-1035.38"/>
<text text-anchor="start" x="460" y="-1040.58" font-family="Times,serif" font-size="14.00">identifier</text>
<polygon fill="white" stroke="none" points="412.25,-1012.88 412.25,-1033.38 557.25,-1033.38 557.25,-1012.88 412.25,-1012.88"/>
<text text-anchor="start" x="426.62" y="-1018.08" font-family="Times,serif" font-size="14.00">unmapped_reason_id</text>
<polygon fill="white" stroke="none" points="412.25,-990.38 412.25,-1010.88 557.25,-1010.88 557.25,-990.38 412.25,-990.38"/>
<text text-anchor="start" x="451.75" y="-995.58" font-family="Times,serif" font-size="14.00">query_score</text>
<polygon fill="white" stroke="none" points="412.25,-967.88 412.25,-988.38 557.25,-988.38 557.25,-967.88 412.25,-967.88"/>
<text text-anchor="start" x="451.75" y="-973.08" font-family="Times,serif" font-size="14.00">target_score</text>
<polygon fill="white" stroke="none" points="412.25,-945.38 412.25,-965.88 557.25,-965.88 557.25,-945.38 412.25,-945.38"/>
<text text-anchor="start" x="453.25" y="-950.58" font-family="Times,serif" font-size="14.00">ensembl_id</text>
<polygon fill="white" stroke="none" points="412.25,-922.88 412.25,-943.38 557.25,-943.38 557.25,-922.88 412.25,-922.88"/>
<text text-anchor="start" x="427" y="-928.08" font-family="Times,serif" font-size="14.00">ensembl_object_type</text>
<polygon fill="white" stroke="none" points="412.25,-900.38 412.25,-920.88 557.25,-920.88 557.25,-900.38 412.25,-900.38"/>
<text text-anchor="start" x="467.88" y="-905.58" font-family="Times,serif" font-size="14.00">parent</text>
<polygon fill="black" stroke="black" points="410.25,-1146.88 410.25,-1146.88 559.25,-1146.88 559.25,-1146.88 410.25,-1146.88"/>
</g>
<!-- unmapped_object&#45;&gt;external_db -->
<g id="edge17" class="edge">
<title>unmapped_object:e&#45;&gt;external_db:w</title>
<path fill="none" stroke="black" stroke-dasharray="5,2" d="M558.75,-1068.5C643.78,-1068.5 548.24,-897.01 617.04,-881.6"/>
<polygon fill="black" stroke="black" points="617.28,-885 626.88,-880.5 616.57,-878.03 617.28,-885"/>
</g>
<!-- unmapped_reason -->
<g id="node12" class="node">
<title>unmapped_reason</title>
<path fill="#1e90ff" stroke="black" d="M758.5,-1064.62C758.5,-1064.62 615.25,-1064.62 615.25,-1064.62 609.25,-1064.62 603.25,-1058.62 603.25,-1052.62 603.25,-1052.62 603.25,-974.38 603.25,-974.38 603.25,-968.38 609.25,-962.38 615.25,-962.38 615.25,-962.38 758.5,-962.38 758.5,-962.38 764.5,-962.38 770.5,-968.38 770.5,-974.38 770.5,-974.38 770.5,-1052.62 770.5,-1052.62 770.5,-1058.62 764.5,-1064.62 758.5,-1064.62"/>
<text text-anchor="start" x="628.38" y="-1041.42" font-family="Times,serif" font-size="16.00">unmapped_reason</text>
<polygon fill="white" stroke="none" points="613.25,-1013.38 613.25,-1033.88 760.5,-1033.88 760.5,-1013.38 613.25,-1013.38"/>
<text text-anchor="start" x="615.25" y="-1019.58" font-family="Times,serif" font-weight="bold" font-size="14.00">PK</text>
<text text-anchor="start" x="634.75" y="-1019.58" font-family="Times,serif" font-size="14.00">  unmapped_reason_id</text>
<polygon fill="white" stroke="none" points="613.25,-990.88 613.25,-1011.38 760.5,-1011.38 760.5,-990.88 613.25,-990.88"/>
<text text-anchor="start" x="627.62" y="-996.08" font-family="Times,serif" font-size="14.00">summary_description</text>
<polygon fill="white" stroke="none" points="613.25,-968.38 613.25,-988.88 760.5,-988.88 760.5,-968.38 613.25,-968.38"/>
<text text-anchor="start" x="644.12" y="-973.58" font-family="Times,serif" font-size="14.00">full_description</text>
<polygon fill="black" stroke="black" points="611.25,-1034.88 611.25,-1034.88 762.5,-1034.88 762.5,-1034.88 611.25,-1034.88"/>
</g>
<!-- unmapped_object&#45;&gt;unmapped_reason -->
<g id="edge18" class="edge">
<title>unmapped_object:e&#45;&gt;unmapped_reason:w</title>
<path fill="none" stroke="black" stroke-dasharray="5,2" d="M558.75,-1023.5C578.3,-1023.5 585.71,-1023.5 601.09,-1023.5"/>
<polygon fill="black" stroke="black" points="600.88,-1027 610.88,-1023.5 600.87,-1020 600.88,-1027"/>
</g>
<!-- unmapped_object&#45;&gt;analysis -->
<g id="edge16" class="edge">
<title>unmapped_object:e&#45;&gt;analysis:w</title>
<path fill="none" stroke="black" stroke-dasharray="5,2" d="M567.25,-1090.5C589.26,-1090.5 582.45,-908.29 567.25,-892.38 554.07,-878.58 413.99,-890.08 395.75,-884.5 388.41,-882.25 384.76,-882.2 381,-875.5 361.12,-840.09 365.82,-182.17 381,-144.5 393.11,-114.44 399.8,-91.13 426.83,-86.38"/>
<polygon fill="black" stroke="black" points="427.07,-89.8 436.75,-85.5 426.5,-82.82 427.07,-89.8"/>
</g>
<!-- xref&#45;&gt;external_db -->
<g id="edge19" class="edge">
<title>xref:e&#45;&gt;external_db:w</title>
<path fill="none" stroke="black" stroke-dasharray="5,2" d="M528.75,-812.5C578.21,-812.5 575.26,-870.78 616.94,-879.43"/>
<polygon fill="black" stroke="black" points="616.58,-883.01 626.88,-880.5 617.26,-876.04 616.58,-883.01"/>
</g>
<!-- dna_align_feature -->
<g id="node15" class="node">
<title>dna_align_feature</title>
<path fill="#808000" stroke="black" d="M542.5,-486.62C542.5,-486.62 427,-486.62 427,-486.62 421,-486.62 415,-480.62 415,-474.62 415,-474.62 415,-396.38 415,-396.38 415,-390.38 421,-384.38 427,-384.38 427,-384.38 542.5,-384.38 542.5,-384.38 548.5,-384.38 554.5,-390.38 554.5,-396.38 554.5,-396.38 554.5,-474.62 554.5,-474.62 554.5,-480.62 548.5,-486.62 542.5,-486.62"/>
<text text-anchor="start" x="427" y="-463.43" font-family="Times,serif" font-size="16.00">dna_align_feature</text>
<polygon fill="white" stroke="none" points="425,-435.38 425,-455.88 544.5,-455.88 544.5,-435.38 425,-435.38"/>
<text text-anchor="start" x="479.12" y="-441.57" font-family="Times,serif" font-style="italic" font-size="14.00">...</text>
<polygon fill="white" stroke="none" points="425,-412.88 425,-433.38 544.5,-433.38 544.5,-412.88 425,-412.88"/>
<text text-anchor="start" x="444.25" y="-418.07" font-family="Times,serif" font-size="14.00">external_db_id</text>
<polygon fill="white" stroke="none" points="425,-390.38 425,-410.88 544.5,-410.88 544.5,-390.38 425,-390.38"/>
<text text-anchor="start" x="479.12" y="-396.57" font-family="Times,serif" font-style="italic" font-size="14.00">...</text>
<polygon fill="black" stroke="black" points="423,-456.88 423,-456.88 546.5,-456.88 546.5,-456.88 423,-456.88"/>
</g>
<!-- dna_align_feature&#45;&gt;external_db -->
<g id="edge6" class="edge">
<title>dna_align_feature:e&#45;&gt;external_db:w</title>
<path fill="none" stroke="black" stroke-dasharray="5,2" d="M545.75,-423.5C645,-423.5 533.83,-846.35 617.05,-878.56"/>
<polygon fill="black" stroke="black" points="616.41,-882.18 626.88,-880.5 617.65,-875.29 616.41,-882.18"/>
</g>
<!-- gene -->
<g id="node16" class="node">
<title>gene</title>
<path fill="#808000" stroke="black" d="M527.12,-246.62C527.12,-246.62 442.38,-246.62 442.38,-246.62 436.38,-246.62 430.38,-240.62 430.38,-234.62 430.38,-234.62 430.38,-156.38 430.38,-156.38 430.38,-150.38 436.38,-144.38 442.38,-144.38 442.38,-144.38 527.12,-144.38 527.12,-144.38 533.12,-144.38 539.12,-150.38 539.12,-156.38 539.12,-156.38 539.12,-234.62 539.12,-234.62 539.12,-240.62 533.12,-246.62 527.12,-246.62"/>
<text text-anchor="start" x="469.75" y="-223.43" font-family="Times,serif" font-size="16.00">gene</text>
<polygon fill="white" stroke="none" points="440.38,-195.38 440.38,-215.88 529.12,-215.88 529.12,-195.38 440.38,-195.38"/>
<text text-anchor="start" x="479.12" y="-201.57" font-family="Times,serif" font-style="italic" font-size="14.00">...</text>
<polygon fill="white" stroke="none" points="440.38,-172.88 440.38,-193.38 529.12,-193.38 529.12,-172.88 440.38,-172.88"/>
<text text-anchor="start" x="442.38" y="-178.07" font-family="Times,serif" font-size="14.00">display_xref_id</text>
<polygon fill="white" stroke="none" points="440.38,-150.38 440.38,-170.88 529.12,-170.88 529.12,-150.38 440.38,-150.38"/>
<text text-anchor="start" x="479.12" y="-156.57" font-family="Times,serif" font-style="italic" font-size="14.00">...</text>
<polygon fill="black" stroke="black" points="438.38,-216.88 438.38,-216.88 531.12,-216.88 531.12,-216.88 438.38,-216.88"/>
</g>
<!-- gene&#45;&gt;xref -->
<g id="edge8" class="edge">
<title>gene:e&#45;&gt;xref:w</title>
<path fill="none" stroke="black" stroke-dasharray="5,2" d="M539.12,-183.5C567.18,-183.5 558.34,-226.18 539.12,-246.62 514.9,-272.39 398.31,-233.66 381,-264.5 360.55,-300.93 374.78,-599.19 381,-640.5 393.85,-725.88 354.2,-825.52 429.85,-833.93"/>
<polygon fill="black" stroke="black" points="429.58,-837.47 439.75,-834.5 429.95,-830.48 429.58,-837.47"/>
</g>
<!-- protein_align_feature -->
<g id="node17" class="node">
<title>protein_align_feature</title>
<path fill="#808000" stroke="black" d="M553.75,-606.62C553.75,-606.62 415.75,-606.62 415.75,-606.62 409.75,-606.62 403.75,-600.62 403.75,-594.62 403.75,-594.62 403.75,-516.38 403.75,-516.38 403.75,-510.38 409.75,-504.38 415.75,-504.38 415.75,-504.38 553.75,-504.38 553.75,-504.38 559.75,-504.38 565.75,-510.38 565.75,-516.38 565.75,-516.38 565.75,-594.62 565.75,-594.62 565.75,-600.62 559.75,-606.62 553.75,-606.62"/>
<text text-anchor="start" x="415.75" y="-583.42" font-family="Times,serif" font-size="16.00">protein_align_feature</text>
<polygon fill="white" stroke="none" points="413.75,-555.38 413.75,-575.88 555.75,-575.88 555.75,-555.38 413.75,-555.38"/>
<text text-anchor="start" x="479.12" y="-561.58" font-family="Times,serif" font-style="italic" font-size="14.00">...</text>
<polygon fill="white" stroke="none" points="413.75,-532.88 413.75,-553.38 555.75,-553.38 555.75,-532.88 413.75,-532.88"/>
<text text-anchor="start" x="444.25" y="-538.08" font-family="Times,serif" font-size="14.00">external_db_id</text>
<polygon fill="white" stroke="none" points="413.75,-510.38 413.75,-530.88 555.75,-530.88 555.75,-510.38 413.75,-510.38"/>
<text text-anchor="start" x="479.12" y="-516.58" font-family="Times,serif" font-style="italic" font-size="14.00">...</text>
<polygon fill="black" stroke="black" points="411.75,-576.88 411.75,-576.88 557.75,-576.88 557.75,-576.88 411.75,-576.88"/>
</g>
<!-- protein_align_feature&#45;&gt;external_db -->
<g id="edge14" class="edge">
<title>protein_align_feature:e&#45;&gt;external_db:w</title>
<path fill="none" stroke="black" stroke-dasharray="5,2" d="M556.75,-543.5C629.4,-543.5 559.25,-847.14 617.4,-877.98"/>
<polygon fill="black" stroke="black" points="616.33,-881.57 626.88,-880.5 617.97,-874.76 616.33,-881.57"/>
</g>
<!-- transcript -->
<g id="node18" class="node">
<title>transcript</title>
<path fill="#808000" stroke="black" d="M527.12,-366.62C527.12,-366.62 442.38,-366.62 442.38,-366.62 436.38,-366.62 430.38,-360.62 430.38,-354.62 430.38,-354.62 430.38,-276.38 430.38,-276.38 430.38,-270.38 436.38,-264.38 442.38,-264.38 442.38,-264.38 527.12,-264.38 527.12,-264.38 533.12,-264.38 539.12,-270.38 539.12,-276.38 539.12,-276.38 539.12,-354.62 539.12,-354.62 539.12,-360.62 533.12,-366.62 527.12,-366.62"/>
<text text-anchor="start" x="454.75" y="-343.43" font-family="Times,serif" font-size="16.00">transcript</text>
<polygon fill="white" stroke="none" points="440.38,-315.38 440.38,-335.88 529.12,-335.88 529.12,-315.38 440.38,-315.38"/>
<text text-anchor="start" x="479.12" y="-321.57" font-family="Times,serif" font-style="italic" font-size="14.00">...</text>
<polygon fill="white" stroke="none" points="440.38,-292.88 440.38,-313.38 529.12,-313.38 529.12,-292.88 440.38,-292.88"/>
<text text-anchor="start" x="442.38" y="-298.07" font-family="Times,serif" font-size="14.00">display_xref_id</text>
<polygon fill="white" stroke="none" points="440.38,-270.38 440.38,-290.88 529.12,-290.88 529.12,-270.38 440.38,-270.38"/>
<text text-anchor="start" x="479.12" y="-276.57" font-family="Times,serif" font-style="italic" font-size="14.00">...</text>
<polygon fill="black" stroke="black" points="438.38,-336.88 438.38,-336.88 531.12,-336.88 531.12,-336.88 438.38,-336.88"/>
</g>
<!-- transcript&#45;&gt;xref -->
<g id="edge15" class="edge">
<title>transcript:e&#45;&gt;xref:w</title>
<path fill="none" stroke="black" stroke-dasharray="5,2" d="M539.12,-303.5C567.18,-303.5 558.34,-346.18 539.12,-366.62 514.9,-392.39 398.31,-353.66 381,-384.5 353.16,-434.11 372.53,-584.24 381,-640.5 393.85,-725.88 354.2,-825.52 429.85,-833.93"/>
<polygon fill="black" stroke="black" points="429.58,-837.47 439.75,-834.5 429.95,-830.48 429.58,-837.47"/>
</g>
</g>
</svg>
