<?xml version="1.0" encoding="UTF-8" standalone="no"?>
<!DOCTYPE svg PUBLIC "-//W3C//DTD SVG 1.1//EN"
 "http://www.w3.org/Graphics/SVG/1.1/DTD/svg11.dtd">
<!-- Generated by graphviz version 2.47.0 (20210316.0004)
 -->
<!-- Title: test Pages: 1 -->
<svg width="766pt" height="711pt"
 viewBox="0.00 0.00 766.00 711.00" xmlns="http://www.w3.org/2000/svg" xmlns:xlink="http://www.w3.org/1999/xlink">
<g id="graph0" class="graph" transform="scale(1 1) rotate(0) translate(4 707)">
<title>test</title>
<polygon fill="white" stroke="transparent" points="-4,4 -4,-707 762,-707 762,4 -4,4"/>
<text text-anchor="middle" x="379" y="-10" font-family="Times,serif" font-size="20.00">Core schema diagram: Misc tables</text>
<g id="clust1" class="cluster">
<title>cluster_assembly_tables</title>
<polygon fill="white" stroke="white" points="594,-524 594,-646 746,-646 746,-524 594,-524"/>
<text text-anchor="middle" x="670" y="-626" font-family="Times,serif" font-size="20.00">Assembly Tables</text>
</g>
<g id="clust3" class="cluster">
<title>cluster_misc</title>
<path fill="#ffe6cc" stroke="#ffe6cc" d="M20,-38C20,-38 549,-38 549,-38 555,-38 561,-44 561,-50 561,-50 561,-683 561,-683 561,-689 555,-695 549,-695 549,-695 20,-695 20,-695 14,-695 8,-689 8,-683 8,-683 8,-50 8,-50 8,-44 14,-38 20,-38"/>
<text text-anchor="middle" x="284.5" y="-675" font-family="Times,serif" font-size="20.00">Misc</text>
</g>
<g id="clust2" class="cluster">
<title>cluster_fundamental_tables</title>
<polygon fill="white" stroke="white" points="581,-226 581,-442 758,-442 758,-226 581,-226"/>
<text text-anchor="middle" x="669.5" y="-422" font-family="Times,serif" font-size="20.00">Fundamental Tables</text>
</g>
<!-- operon -->
<g id="node1" class="node">
<title>operon</title>
<path fill="#ff8500" stroke="black" d="M541,-601.5C541,-601.5 441,-601.5 441,-601.5 435,-601.5 429,-595.5 429,-589.5 429,-589.5 429,-348.5 429,-348.5 429,-342.5 435,-336.5 441,-336.5 441,-336.5 541,-336.5 541,-336.5 547,-336.5 553,-342.5 553,-348.5 553,-348.5 553,-589.5 553,-589.5 553,-595.5 547,-601.5 541,-601.5"/>
<text text-anchor="start" x="468" y="-580.2" font-family="Times,serif" font-size="16.00">operon</text>
<polygon fill="white" stroke="transparent" points="439,-552 439,-571 543,-571 543,-552 439,-552"/>
<text text-anchor="start" x="449.5" y="-558.8" font-family="Times,serif" font-weight="bold" font-size="14.00">PK</text>
<text text-anchor="start" x="469.5" y="-558.8" font-family="Times,serif" font-size="14.00">  operon_id</text>
<polygon fill="white" stroke="transparent" points="439,-531 439,-550 543,-550 543,-531 439,-531"/>
<text text-anchor="start" x="460.5" y="-536.8" font-family="Times,serif" font-size="14.00">analysis_id</text>
<polygon fill="white" stroke="transparent" points="439,-510 439,-529 543,-529 543,-510 439,-510"/>
<text text-anchor="start" x="452.5" y="-515.8" font-family="Times,serif" font-size="14.00">seq_region_id</text>
<polygon fill="white" stroke="transparent" points="439,-489 439,-508 543,-508 543,-489 439,-489"/>
<text text-anchor="start" x="445.5" y="-494.8" font-family="Times,serif" font-size="14.00">seq_region_start</text>
<polygon fill="white" stroke="transparent" points="439,-468 439,-487 543,-487 543,-468 439,-468"/>
<text text-anchor="start" x="448" y="-473.8" font-family="Times,serif" font-size="14.00">seq_region_end</text>
<polygon fill="white" stroke="transparent" points="439,-447 439,-466 543,-466 543,-447 439,-447"/>
<text text-anchor="start" x="441" y="-452.8" font-family="Times,serif" font-size="14.00">seq_region_strand</text>
<polygon fill="white" stroke="transparent" points="439,-426 439,-445 543,-445 543,-426 439,-426"/>
<text text-anchor="start" x="454.5" y="-431.8" font-family="Times,serif" font-size="14.00">display_label</text>
<polygon fill="white" stroke="transparent" points="439,-405 439,-424 543,-424 543,-405 439,-405"/>
<text text-anchor="start" x="466.5" y="-410.8" font-family="Times,serif" font-size="14.00">stable_id</text>
<polygon fill="white" stroke="transparent" points="439,-384 439,-403 543,-403 543,-384 439,-384"/>
<text text-anchor="start" x="471" y="-389.8" font-family="Times,serif" font-size="14.00">version</text>
<polygon fill="white" stroke="transparent" points="439,-363 439,-382 543,-382 543,-363 439,-363"/>
<text text-anchor="start" x="456.5" y="-368.8" font-family="Times,serif" font-size="14.00">created_date</text>
<polygon fill="white" stroke="transparent" points="439,-342 439,-361 543,-361 543,-342 439,-342"/>
<text text-anchor="start" x="451.5" y="-347.8" font-family="Times,serif" font-size="14.00">modified_date</text>
<polygon fill="black" stroke="black" points="437,-572 437,-572 545,-572 545,-572 437,-572"/>
</g>
<!-- analysis -->
<g id="node7" class="node">
<title>analysis</title>
<path fill="#808000" stroke="black" d="M714,-404C714,-404 625,-404 625,-404 619,-404 613,-398 613,-392 613,-392 613,-340 613,-340 613,-334 619,-328 625,-328 625,-328 714,-328 714,-328 720,-328 726,-334 726,-340 726,-340 726,-392 726,-392 726,-398 720,-404 714,-404"/>
<text text-anchor="start" x="645" y="-383.2" font-family="Times,serif" font-size="16.00">analysis</text>
<polygon fill="white" stroke="transparent" points="623.5,-355 623.5,-374 716.5,-374 716.5,-355 623.5,-355"/>
<text text-anchor="start" x="625.5" y="-361.8" font-family="Times,serif" font-weight="bold" font-size="14.00">PK</text>
<text text-anchor="start" x="645.5" y="-361.8" font-family="Times,serif" font-size="14.00">  analysis_id</text>
<polygon fill="white" stroke="transparent" points="623.5,-334 623.5,-353 716.5,-353 716.5,-334 623.5,-334"/>
<text text-anchor="start" x="664" y="-340.8" font-family="Times,serif" font-style="italic" font-size="14.00">...</text>
<polygon fill="black" stroke="black" points="621.5,-375 621.5,-375 718.5,-375 718.5,-375 621.5,-375"/>
</g>
<!-- operon&#45;&gt;analysis -->
<g id="edge1" class="edge">
<title>operon:e&#45;&gt;analysis:w</title>
<path fill="none" stroke="black" stroke-dasharray="5,2" d="M544,-541C626.36,-541 544.16,-378.88 612.37,-364.95"/>
<polygon fill="black" stroke="black" points="612.87,-368.42 622.5,-364 612.22,-361.45 612.87,-368.42"/>
</g>
<!-- seq_region -->
<g id="node9" class="node">
<title>seq_region</title>
<path fill="#c70c09" stroke="black" d="M722,-608C722,-608 617,-608 617,-608 611,-608 605,-602 605,-596 605,-596 605,-544 605,-544 605,-538 611,-532 617,-532 617,-532 722,-532 722,-532 728,-532 734,-538 734,-544 734,-544 734,-596 734,-596 734,-602 728,-608 722,-608"/>
<text text-anchor="start" x="634.5" y="-587.2" font-family="Times,serif" font-size="16.00">seq_region</text>
<polygon fill="white" stroke="transparent" points="615.5,-559 615.5,-578 724.5,-578 724.5,-559 615.5,-559"/>
<text text-anchor="start" x="617.5" y="-565.8" font-family="Times,serif" font-weight="bold" font-size="14.00">PK</text>
<text text-anchor="start" x="637.5" y="-565.8" font-family="Times,serif" font-size="14.00">  seq_region_id</text>
<polygon fill="white" stroke="transparent" points="615.5,-538 615.5,-557 724.5,-557 724.5,-538 615.5,-538"/>
<text text-anchor="start" x="664" y="-544.8" font-family="Times,serif" font-style="italic" font-size="14.00">...</text>
<polygon fill="black" stroke="black" points="613.5,-579 613.5,-579 726.5,-579 726.5,-579 613.5,-579"/>
</g>
<!-- operon&#45;&gt;seq_region -->
<g id="edge2" class="edge">
<title>operon:e&#45;&gt;seq_region:w</title>
<path fill="none" stroke="black" stroke-dasharray="5,2" d="M544,-520C578.2,-520 577.22,-559.08 604.55,-566.72"/>
<polygon fill="black" stroke="black" points="604.13,-570.19 614.5,-568 605.03,-563.25 604.13,-570.19"/>
</g>
<!-- operon_transcript -->
<g id="node2" class="node">
<title>operon_transcript</title>
<path fill="#ff8500" stroke="black" d="M381,-656C381,-656 240,-656 240,-656 234,-656 228,-650 228,-644 228,-644 228,-382 228,-382 228,-376 234,-370 240,-370 240,-370 381,-370 381,-370 387,-370 393,-376 393,-382 393,-382 393,-644 393,-644 393,-650 387,-656 381,-656"/>
<text text-anchor="start" x="253.5" y="-635.2" font-family="Times,serif" font-size="16.00">operon_transcript</text>
<polygon fill="white" stroke="transparent" points="238.5,-607 238.5,-626 383.5,-626 383.5,-607 238.5,-607"/>
<text text-anchor="start" x="240.5" y="-613.8" font-family="Times,serif" font-weight="bold" font-size="14.00">PK</text>
<text text-anchor="start" x="260.5" y="-613.8" font-family="Times,serif" font-size="14.00">  operon_transcript_id</text>
<polygon fill="white" stroke="transparent" points="238.5,-586 238.5,-605 383.5,-605 383.5,-586 238.5,-586"/>
<text text-anchor="start" x="280.5" y="-591.8" font-family="Times,serif" font-size="14.00">analysis_id</text>
<polygon fill="white" stroke="transparent" points="238.5,-565 238.5,-584 383.5,-584 383.5,-565 238.5,-565"/>
<text text-anchor="start" x="272.5" y="-570.8" font-family="Times,serif" font-size="14.00">seq_region_id</text>
<polygon fill="white" stroke="transparent" points="238.5,-544 238.5,-563 383.5,-563 383.5,-544 238.5,-544"/>
<text text-anchor="start" x="265.5" y="-549.8" font-family="Times,serif" font-size="14.00">seq_region_start</text>
<polygon fill="white" stroke="transparent" points="238.5,-523 238.5,-542 383.5,-542 383.5,-523 238.5,-523"/>
<text text-anchor="start" x="268" y="-528.8" font-family="Times,serif" font-size="14.00">seq_region_end</text>
<polygon fill="white" stroke="transparent" points="238.5,-502 238.5,-521 383.5,-521 383.5,-502 238.5,-502"/>
<text text-anchor="start" x="261" y="-507.8" font-family="Times,serif" font-size="14.00">seq_region_strand</text>
<polygon fill="white" stroke="transparent" points="238.5,-481 238.5,-500 383.5,-500 383.5,-481 238.5,-481"/>
<text text-anchor="start" x="283.5" y="-486.8" font-family="Times,serif" font-size="14.00">operon_id</text>
<polygon fill="white" stroke="transparent" points="238.5,-460 238.5,-479 383.5,-479 383.5,-460 238.5,-460"/>
<text text-anchor="start" x="274.5" y="-465.8" font-family="Times,serif" font-size="14.00">display_label</text>
<polygon fill="white" stroke="transparent" points="238.5,-439 238.5,-458 383.5,-458 383.5,-439 238.5,-439"/>
<text text-anchor="start" x="286.5" y="-444.8" font-family="Times,serif" font-size="14.00">stable_id</text>
<polygon fill="white" stroke="transparent" points="238.5,-418 238.5,-437 383.5,-437 383.5,-418 238.5,-418"/>
<text text-anchor="start" x="291" y="-423.8" font-family="Times,serif" font-size="14.00">version</text>
<polygon fill="white" stroke="transparent" points="238.5,-397 238.5,-416 383.5,-416 383.5,-397 238.5,-397"/>
<text text-anchor="start" x="276.5" y="-402.8" font-family="Times,serif" font-size="14.00">created_date</text>
<polygon fill="white" stroke="transparent" points="238.5,-376 238.5,-395 383.5,-395 383.5,-376 238.5,-376"/>
<text text-anchor="start" x="271.5" y="-381.8" font-family="Times,serif" font-size="14.00">modified_date</text>
<polygon fill="black" stroke="black" points="236.5,-627 236.5,-627 385.5,-627 385.5,-627 236.5,-627"/>
</g>
<!-- operon_transcript&#45;&gt;operon -->
<g id="edge4" class="edge">
<title>operon_transcript:e&#45;&gt;operon:w</title>
<path fill="none" stroke="black" stroke-dasharray="5,2" d="M384.5,-490C420.47,-490 402.63,-548.62 428.09,-560.07"/>
<polygon fill="black" stroke="black" points="427.52,-563.53 438,-562 428.85,-556.66 427.52,-563.53"/>
</g>
<!-- operon_transcript&#45;&gt;analysis -->
<g id="edge3" class="edge">
<title>operon_transcript:e&#45;&gt;analysis:w</title>
<path fill="none" stroke="black" stroke-dasharray="5,2" d="M384.5,-596C444.87,-596 382.95,-367.04 429,-328 473.75,-290.07 504.38,-312.65 561,-328 587.87,-335.29 590.55,-357.57 612.31,-362.86"/>
<polygon fill="black" stroke="black" points="612.17,-366.37 622.5,-364 612.95,-359.41 612.17,-366.37"/>
</g>
<!-- operon_transcript&#45;&gt;seq_region -->
<g id="edge5" class="edge">
<title>operon_transcript:e&#45;&gt;seq_region:w</title>
<path fill="none" stroke="black" stroke-dasharray="5,2" d="M384.5,-575C409.94,-575 405.02,-602.51 429,-611 484.31,-630.57 505.66,-630.48 561,-611 586.07,-602.18 584.91,-576.1 604.36,-569.52"/>
<polygon fill="black" stroke="black" points="605.13,-572.94 614.5,-568 604.09,-566.02 605.13,-572.94"/>
</g>
<!-- operon_transcript_gene -->
<g id="node3" class="node">
<title>operon_transcript_gene</title>
<path fill="#ff8500" stroke="black" d="M180,-657C180,-657 28,-657 28,-657 22,-657 16,-651 16,-645 16,-645 16,-593 16,-593 16,-587 22,-581 28,-581 28,-581 180,-581 180,-581 186,-581 192,-587 192,-593 192,-593 192,-645 192,-645 192,-651 186,-657 180,-657"/>
<text text-anchor="start" x="28" y="-636.2" font-family="Times,serif" font-size="16.00">operon_transcript_gene</text>
<polygon fill="white" stroke="transparent" points="26,-608 26,-627 182,-627 182,-608 26,-608"/>
<text text-anchor="start" x="47" y="-613.8" font-family="Times,serif" font-size="14.00">operon_transcript_id</text>
<polygon fill="white" stroke="transparent" points="26,-587 26,-606 182,-606 182,-587 26,-587"/>
<text text-anchor="start" x="82.5" y="-592.8" font-family="Times,serif" font-size="14.00">gene_id</text>
<polygon fill="black" stroke="black" points="24,-628 24,-628 184,-628 184,-628 24,-628"/>
</g>
<!-- operon_transcript_gene&#45;&gt;operon_transcript -->
<g id="edge7" class="edge">
<title>operon_transcript_gene:e&#45;&gt;operon_transcript:w</title>
<path fill="none" stroke="black" stroke-dasharray="5,2" d="M183,-617C203.44,-617 210.94,-617 227.34,-617"/>
<polygon fill="black" stroke="black" points="227.5,-620.5 237.5,-617 227.5,-613.5 227.5,-620.5"/>
</g>
<!-- gene -->
<g id="node8" class="node">
<title>gene</title>
<path fill="#808000" stroke="black" d="M705,-310C705,-310 634,-310 634,-310 628,-310 622,-304 622,-298 622,-298 622,-246 622,-246 622,-240 628,-234 634,-234 634,-234 705,-234 705,-234 711,-234 717,-240 717,-246 717,-246 717,-298 717,-298 717,-304 711,-310 705,-310"/>
<text text-anchor="start" x="655" y="-289.2" font-family="Times,serif" font-size="16.00">gene</text>
<polygon fill="white" stroke="transparent" points="632.5,-261 632.5,-280 707.5,-280 707.5,-261 632.5,-261"/>
<text text-anchor="start" x="634.5" y="-267.8" font-family="Times,serif" font-weight="bold" font-size="14.00">PK</text>
<text text-anchor="start" x="654.5" y="-267.8" font-family="Times,serif" font-size="14.00">  gene_id</text>
<polygon fill="white" stroke="transparent" points="632.5,-240 632.5,-259 707.5,-259 707.5,-240 632.5,-240"/>
<text text-anchor="start" x="664" y="-246.8" font-family="Times,serif" font-style="italic" font-size="14.00">...</text>
<polygon fill="black" stroke="black" points="630.5,-281 630.5,-281 709.5,-281 709.5,-281 630.5,-281"/>
</g>
<!-- operon_transcript_gene&#45;&gt;gene -->
<g id="edge6" class="edge">
<title>operon_transcript_gene:e&#45;&gt;gene:w</title>
<path fill="none" stroke="black" stroke-dasharray="5,2" d="M183,-596C289.34,-596 157.13,-440.28 228,-361 348.24,-226.48 444.05,-268.35 621.36,-269.95"/>
<polygon fill="black" stroke="black" points="621.48,-273.45 631.5,-270 621.52,-266.45 621.48,-273.45"/>
</g>
<!-- rnaproduct -->
<g id="node4" class="node">
<title>rnaproduct</title>
<path fill="#808000" stroke="black" d="M157.5,-562.5C157.5,-562.5 50.5,-562.5 50.5,-562.5 44.5,-562.5 38.5,-556.5 38.5,-550.5 38.5,-550.5 38.5,-309.5 38.5,-309.5 38.5,-303.5 44.5,-297.5 50.5,-297.5 50.5,-297.5 157.5,-297.5 157.5,-297.5 163.5,-297.5 169.5,-303.5 169.5,-309.5 169.5,-309.5 169.5,-550.5 169.5,-550.5 169.5,-556.5 163.5,-562.5 157.5,-562.5"/>
<text text-anchor="start" x="69" y="-541.2" font-family="Times,serif" font-size="16.00">rnaproduct</text>
<polygon fill="white" stroke="transparent" points="49,-513 49,-532 160,-532 160,-513 49,-513"/>
<text text-anchor="start" x="52" y="-519.8" font-family="Times,serif" font-weight="bold" font-size="14.00">PK</text>
<text text-anchor="start" x="72" y="-519.8" font-family="Times,serif" font-size="14.00">  rnaproduct_id</text>
<polygon fill="white" stroke="transparent" points="49,-492 49,-511 160,-511 160,-492 49,-492"/>
<text text-anchor="start" x="51" y="-497.8" font-family="Times,serif" font-size="14.00">rnaproduct_type_id</text>
<polygon fill="white" stroke="transparent" points="49,-471 49,-490 160,-490 160,-471 49,-471"/>
<text text-anchor="start" x="69.5" y="-476.8" font-family="Times,serif" font-size="14.00">transcript_id</text>
<polygon fill="white" stroke="transparent" points="49,-450 49,-469 160,-469 160,-450 49,-450"/>
<text text-anchor="start" x="80" y="-455.8" font-family="Times,serif" font-size="14.00">seq_start</text>
<polygon fill="white" stroke="transparent" points="49,-429 49,-448 160,-448 160,-429 49,-429"/>
<text text-anchor="start" x="67.5" y="-434.8" font-family="Times,serif" font-size="14.00">start_exon_id</text>
<polygon fill="white" stroke="transparent" points="49,-408 49,-427 160,-427 160,-408 49,-408"/>
<text text-anchor="start" x="82" y="-413.8" font-family="Times,serif" font-size="14.00">seq_end</text>
<polygon fill="white" stroke="transparent" points="49,-387 49,-406 160,-406 160,-387 49,-387"/>
<text text-anchor="start" x="69.5" y="-392.8" font-family="Times,serif" font-size="14.00">end_exon_id</text>
<polygon fill="white" stroke="transparent" points="49,-366 49,-385 160,-385 160,-366 49,-366"/>
<text text-anchor="start" x="80" y="-371.8" font-family="Times,serif" font-size="14.00">stable_id</text>
<polygon fill="white" stroke="transparent" points="49,-345 49,-364 160,-364 160,-345 49,-345"/>
<text text-anchor="start" x="84.5" y="-350.8" font-family="Times,serif" font-size="14.00">version</text>
<polygon fill="white" stroke="transparent" points="49,-324 49,-343 160,-343 160,-324 49,-324"/>
<text text-anchor="start" x="70" y="-329.8" font-family="Times,serif" font-size="14.00">created_date</text>
<polygon fill="white" stroke="transparent" points="49,-303 49,-322 160,-322 160,-303 49,-303"/>
<text text-anchor="start" x="65" y="-308.8" font-family="Times,serif" font-size="14.00">modified_date</text>
<polygon fill="black" stroke="black" points="47,-533 47,-533 162,-533 162,-533 47,-533"/>
</g>
<!-- rnaproduct_attrib -->
<g id="node5" class="node">
<title>rnaproduct_attrib</title>
<path fill="#808000" stroke="black" d="M161,-279.5C161,-279.5 47,-279.5 47,-279.5 41,-279.5 35,-273.5 35,-267.5 35,-267.5 35,-194.5 35,-194.5 35,-188.5 41,-182.5 47,-182.5 47,-182.5 161,-182.5 161,-182.5 167,-182.5 173,-188.5 173,-194.5 173,-194.5 173,-267.5 173,-267.5 173,-273.5 167,-279.5 161,-279.5"/>
<text text-anchor="start" x="47" y="-258.2" font-family="Times,serif" font-size="16.00">rnaproduct_attrib</text>
<polygon fill="white" stroke="transparent" points="45,-230 45,-249 163,-249 163,-230 45,-230"/>
<text text-anchor="start" x="65.5" y="-235.8" font-family="Times,serif" font-size="14.00">rnaproduct_id</text>
<polygon fill="white" stroke="transparent" points="45,-209 45,-228 163,-228 163,-209 45,-209"/>
<text text-anchor="start" x="65.5" y="-214.8" font-family="Times,serif" font-size="14.00">attrib_type_id</text>
<polygon fill="white" stroke="transparent" points="45,-188 45,-207 163,-207 163,-188 45,-188"/>
<text text-anchor="start" x="89" y="-193.8" font-family="Times,serif" font-size="14.00">value</text>
<polygon fill="black" stroke="black" points="43,-250 43,-250 165,-250 165,-250 43,-250"/>
</g>
<!-- rnaproduct_type -->
<g id="node6" class="node">
<title>rnaproduct_type</title>
<path fill="#808000" stroke="black" d="M171.5,-164C171.5,-164 36.5,-164 36.5,-164 30.5,-164 24.5,-158 24.5,-152 24.5,-152 24.5,-58 24.5,-58 24.5,-52 30.5,-46 36.5,-46 36.5,-46 171.5,-46 171.5,-46 177.5,-46 183.5,-52 183.5,-58 183.5,-58 183.5,-152 183.5,-152 183.5,-158 177.5,-164 171.5,-164"/>
<text text-anchor="start" x="51" y="-143.2" font-family="Times,serif" font-size="16.00">rnaproduct_type</text>
<polygon fill="white" stroke="transparent" points="35,-115 35,-134 174,-134 174,-115 35,-115"/>
<text text-anchor="start" x="37" y="-121.8" font-family="Times,serif" font-weight="bold" font-size="14.00">PK</text>
<text text-anchor="start" x="57" y="-121.8" font-family="Times,serif" font-size="14.00">  rnaproduct_type_id</text>
<polygon fill="white" stroke="transparent" points="35,-94 35,-113 174,-113 174,-94 35,-94"/>
<text text-anchor="start" x="91.5" y="-99.8" font-family="Times,serif" font-size="14.00">code</text>
<polygon fill="white" stroke="transparent" points="35,-73 35,-92 174,-92 174,-73 35,-73"/>
<text text-anchor="start" x="89" y="-78.8" font-family="Times,serif" font-size="14.00">name</text>
<polygon fill="white" stroke="transparent" points="35,-52 35,-71 174,-71 174,-52 35,-52"/>
<text text-anchor="start" x="74" y="-57.8" font-family="Times,serif" font-size="14.00">description</text>
<polygon fill="black" stroke="black" points="33,-135 33,-135 176,-135 176,-135 33,-135"/>
</g>
</g>
</svg>
