<?xml version="1.0" encoding="UTF-8" standalone="no"?>
<!DOCTYPE svg PUBLIC "-//W3C//DTD SVG 1.1//EN"
 "http://www.w3.org/Graphics/SVG/1.1/DTD/svg11.dtd">
<!-- Generated by graphviz version 2.30.1 (20140821.0912)
 -->
<!-- Title: test Pages: 1 -->
<svg width="780pt" height="465pt"
 viewBox="0.00 0.00 780.00 465.00" xmlns="http://www.w3.org/2000/svg" xmlns:xlink="http://www.w3.org/1999/xlink">
<g id="graph0" class="graph" transform="scale(1 1) rotate(0) translate(4 461)">
<title>test</title>
<polygon fill="white" stroke="white" points="-4,5 -4,-461 777,-461 777,5 -4,5"/>
<text text-anchor="middle" x="386" y="-10" font-family="Times,serif" font-size="20.00">Core schema diagram: Misc tables</text>
<g id="clust1" class="cluster"><title>cluster_assembly_tables</title>
<polygon fill="white" stroke="white" points="599,-299 599,-419 752,-419 752,-299 599,-299"/>
<text text-anchor="middle" x="675.5" y="-399" font-family="Times,serif" font-size="20.00">Assembly Tables</text>
</g>
<g id="clust3" class="cluster"><title>cluster_misc</title>
<path fill="#ffe6cc" stroke="#ffe6cc" d="M20,-129C20,-129 554,-129 554,-129 560,-129 566,-135 566,-141 566,-141 566,-437 566,-437 566,-443 560,-449 554,-449 554,-449 20,-449 20,-449 14,-449 8,-443 8,-437 8,-437 8,-141 8,-141 8,-135 14,-129 20,-129"/>
<text text-anchor="middle" x="287" y="-429" font-family="Times,serif" font-size="20.00">Misc</text>
</g>
<g id="clust2" class="cluster"><title>cluster_fundamental_tables</title>
<polygon fill="white" stroke="white" points="586,-38 586,-249 764,-249 764,-38 586,-38"/>
<text text-anchor="middle" x="675" y="-229" font-family="Times,serif" font-size="20.00">Fundamental Tables</text>
</g>
<!-- operon -->
<g id="node1" class="node"><title>operon</title>
<path fill="#ff8500" stroke="black" d="M545.5,-400.5C545.5,-400.5 444.5,-400.5 444.5,-400.5 438.5,-400.5 432.5,-394.5 432.5,-388.5 432.5,-388.5 432.5,-159.5 432.5,-159.5 432.5,-153.5 438.5,-147.5 444.5,-147.5 444.5,-147.5 545.5,-147.5 545.5,-147.5 551.5,-147.5 557.5,-153.5 557.5,-159.5 557.5,-159.5 557.5,-388.5 557.5,-388.5 557.5,-394.5 551.5,-400.5 545.5,-400.5"/>
<text text-anchor="start" x="472.5" y="-379.7" font-family="Times,serif" font-size="16.00">operon</text>
<polygon fill="white" stroke="none" points="443,-353 443,-371 548,-371 548,-353 443,-353"/>
<text text-anchor="start" x="454" y="-358.8" font-family="Times,serif" font-weight="bold" font-size="14.00">PK</text>
<text text-anchor="start" x="474" y="-358.8" font-family="Times,serif" font-size="14.00">  operon_id</text>
<polygon fill="white" stroke="none" points="443,-333 443,-351 548,-351 548,-333 443,-333"/>
<text text-anchor="start" x="465" y="-338.8" font-family="Times,serif" font-size="14.00">analysis_id</text>
<polygon fill="white" stroke="none" points="443,-313 443,-331 548,-331 548,-313 443,-313"/>
<text text-anchor="start" x="457" y="-318.8" font-family="Times,serif" font-size="14.00">seq_region_id</text>
<polygon fill="white" stroke="none" points="443,-293 443,-311 548,-311 548,-293 443,-293"/>
<text text-anchor="start" x="450.5" y="-298.8" font-family="Times,serif" font-size="14.00">seq_region_start</text>
<polygon fill="white" stroke="none" points="443,-273 443,-291 548,-291 548,-273 443,-273"/>
<text text-anchor="start" x="452.5" y="-278.8" font-family="Times,serif" font-size="14.00">seq_region_end</text>
<polygon fill="white" stroke="none" points="443,-253 443,-271 548,-271 548,-253 443,-253"/>
<text text-anchor="start" x="445.5" y="-258.8" font-family="Times,serif" font-size="14.00">seq_region_strand</text>
<polygon fill="white" stroke="none" points="443,-233 443,-251 548,-251 548,-233 443,-233"/>
<text text-anchor="start" x="459" y="-238.8" font-family="Times,serif" font-size="14.00">display_label</text>
<polygon fill="white" stroke="none" points="443,-213 443,-231 548,-231 548,-213 443,-213"/>
<text text-anchor="start" x="471" y="-218.8" font-family="Times,serif" font-size="14.00">stable_id</text>
<polygon fill="white" stroke="none" points="443,-193 443,-211 548,-211 548,-193 443,-193"/>
<text text-anchor="start" x="475.5" y="-198.8" font-family="Times,serif" font-size="14.00">version</text>
<polygon fill="white" stroke="none" points="443,-173 443,-191 548,-191 548,-173 443,-173"/>
<text text-anchor="start" x="461" y="-178.8" font-family="Times,serif" font-size="14.00">created_date</text>
<polygon fill="white" stroke="none" points="443,-153 443,-171 548,-171 548,-153 443,-153"/>
<text text-anchor="start" x="456" y="-158.8" font-family="Times,serif" font-size="14.00">modified_date</text>
<polygon fill="black" stroke="black" points="441,-372 441,-372 550,-372 550,-372 441,-372"/>
</g>
<!-- analysis -->
<g id="node4" class="node"><title>analysis</title>
<path fill="#808000" stroke="black" d="M720,-210.5C720,-210.5 630,-210.5 630,-210.5 624,-210.5 618,-204.5 618,-198.5 618,-198.5 618,-149.5 618,-149.5 618,-143.5 624,-137.5 630,-137.5 630,-137.5 720,-137.5 720,-137.5 726,-137.5 732,-143.5 732,-149.5 732,-149.5 732,-198.5 732,-198.5 732,-204.5 726,-210.5 720,-210.5"/>
<text text-anchor="start" x="649" y="-189.7" font-family="Times,serif" font-size="16.00">analysis</text>
<polygon fill="white" stroke="none" points="628,-163 628,-181 722,-181 722,-163 628,-163"/>
<text text-anchor="start" x="630.5" y="-168.8" font-family="Times,serif" font-weight="bold" font-size="14.00">PK</text>
<text text-anchor="start" x="650.5" y="-168.8" font-family="Times,serif" font-size="14.00">  analysis_id</text>
<polygon fill="white" stroke="none" points="628,-143 628,-161 722,-161 722,-143 628,-143"/>
<text text-anchor="start" x="669" y="-148.8" font-family="Times,serif" font-style="italic" font-size="14.00">...</text>
<polygon fill="black" stroke="black" points="626,-182 626,-182 724,-182 724,-182 626,-182"/>
</g>
<!-- operon&#45;&gt;analysis -->
<g id="edge1" class="edge"><title>operon:portanalysis_id:e&#45;&gt;analysis:portanalysis_id:w</title>
<path fill="none" stroke="black" stroke-dasharray="5,2" d="M549,-342C586.993,-342 585.972,-199.963 617.259,-175.551"/>
<polygon fill="black" stroke="black" points="618.803,-178.713 627,-172 616.406,-172.137 618.803,-178.713"/>
</g>
<!-- seq_region -->
<g id="node6" class="node"><title>seq_region</title>
<path fill="#c70c09" stroke="black" d="M728,-380.5C728,-380.5 622,-380.5 622,-380.5 616,-380.5 610,-374.5 610,-368.5 610,-368.5 610,-319.5 610,-319.5 610,-313.5 616,-307.5 622,-307.5 622,-307.5 728,-307.5 728,-307.5 734,-307.5 740,-313.5 740,-319.5 740,-319.5 740,-368.5 740,-368.5 740,-374.5 734,-380.5 728,-380.5"/>
<text text-anchor="start" x="639.5" y="-359.7" font-family="Times,serif" font-size="16.00">seq_region</text>
<polygon fill="white" stroke="none" points="620,-333 620,-351 730,-351 730,-333 620,-333"/>
<text text-anchor="start" x="622.5" y="-338.8" font-family="Times,serif" font-weight="bold" font-size="14.00">PK</text>
<text text-anchor="start" x="642.5" y="-338.8" font-family="Times,serif" font-size="14.00">  seq_region_id</text>
<polygon fill="white" stroke="none" points="620,-313 620,-331 730,-331 730,-313 620,-313"/>
<text text-anchor="start" x="669" y="-318.8" font-family="Times,serif" font-style="italic" font-size="14.00">...</text>
<polygon fill="black" stroke="black" points="618,-352 618,-352 732,-352 732,-352 618,-352"/>
</g>
<!-- operon&#45;&gt;seq_region -->
<g id="edge2" class="edge"><title>operon:portseq_region_id:e&#45;&gt;seq_region:portseq_region_id:w</title>
<path fill="none" stroke="black" stroke-dasharray="5,2" d="M549,-322C577.691,-322 585.099,-337.725 608.967,-341.288"/>
<polygon fill="black" stroke="black" points="608.777,-344.783 619,-342 609.273,-337.801 608.777,-344.783"/>
</g>
<!-- operon_transcript -->
<g id="node2" class="node"><title>operon_transcript</title>
<path fill="#ff8500" stroke="black" d="M384,-410.5C384,-410.5 242,-410.5 242,-410.5 236,-410.5 230,-404.5 230,-398.5 230,-398.5 230,-149.5 230,-149.5 230,-143.5 236,-137.5 242,-137.5 242,-137.5 384,-137.5 384,-137.5 390,-137.5 396,-143.5 396,-149.5 396,-149.5 396,-398.5 396,-398.5 396,-404.5 390,-410.5 384,-410.5"/>
<text text-anchor="start" x="256" y="-389.7" font-family="Times,serif" font-size="16.00">operon_transcript</text>
<polygon fill="white" stroke="none" points="240,-363 240,-381 386,-381 386,-363 240,-363"/>
<text text-anchor="start" x="242.5" y="-368.8" font-family="Times,serif" font-weight="bold" font-size="14.00">PK</text>
<text text-anchor="start" x="262.5" y="-368.8" font-family="Times,serif" font-size="14.00">  operon_transcript_id</text>
<polygon fill="white" stroke="none" points="240,-343 240,-361 386,-361 386,-343 240,-343"/>
<text text-anchor="start" x="282.5" y="-348.8" font-family="Times,serif" font-size="14.00">analysis_id</text>
<polygon fill="white" stroke="none" points="240,-323 240,-341 386,-341 386,-323 240,-323"/>
<text text-anchor="start" x="274.5" y="-328.8" font-family="Times,serif" font-size="14.00">seq_region_id</text>
<polygon fill="white" stroke="none" points="240,-303 240,-321 386,-321 386,-303 240,-303"/>
<text text-anchor="start" x="268" y="-308.8" font-family="Times,serif" font-size="14.00">seq_region_start</text>
<polygon fill="white" stroke="none" points="240,-283 240,-301 386,-301 386,-283 240,-283"/>
<text text-anchor="start" x="270" y="-288.8" font-family="Times,serif" font-size="14.00">seq_region_end</text>
<polygon fill="white" stroke="none" points="240,-263 240,-281 386,-281 386,-263 240,-263"/>
<text text-anchor="start" x="263" y="-268.8" font-family="Times,serif" font-size="14.00">seq_region_strand</text>
<polygon fill="white" stroke="none" points="240,-243 240,-261 386,-261 386,-243 240,-243"/>
<text text-anchor="start" x="285.5" y="-248.8" font-family="Times,serif" font-size="14.00">operon_id</text>
<polygon fill="white" stroke="none" points="240,-223 240,-241 386,-241 386,-223 240,-223"/>
<text text-anchor="start" x="276.5" y="-228.8" font-family="Times,serif" font-size="14.00">display_label</text>
<polygon fill="white" stroke="none" points="240,-203 240,-221 386,-221 386,-203 240,-203"/>
<text text-anchor="start" x="288.5" y="-208.8" font-family="Times,serif" font-size="14.00">stable_id</text>
<polygon fill="white" stroke="none" points="240,-183 240,-201 386,-201 386,-183 240,-183"/>
<text text-anchor="start" x="293" y="-188.8" font-family="Times,serif" font-size="14.00">version</text>
<polygon fill="white" stroke="none" points="240,-163 240,-181 386,-181 386,-163 240,-163"/>
<text text-anchor="start" x="278.5" y="-168.8" font-family="Times,serif" font-size="14.00">created_date</text>
<polygon fill="white" stroke="none" points="240,-143 240,-161 386,-161 386,-143 240,-143"/>
<text text-anchor="start" x="273.5" y="-148.8" font-family="Times,serif" font-size="14.00">modified_date</text>
<polygon fill="black" stroke="black" points="238,-382 238,-382 388,-382 388,-382 238,-382"/>
</g>
<!-- operon_transcript&#45;&gt;analysis -->
<g id="edge3" class="edge"><title>operon_transcript:portanalysis_id:e&#45;&gt;analysis:portanalysis_id:w</title>
<path fill="none" stroke="black" stroke-dasharray="5,2" d="M387,-352C484.191,-352 356.535,-199.247 432,-138 478.243,-100.47 508.359,-123.021 566,-138 592.403,-144.861 595.539,-165.926 616.985,-170.927"/>
<polygon fill="black" stroke="black" points="616.684,-174.415 627,-172 617.43,-167.454 616.684,-174.415"/>
</g>
<!-- operon_transcript&#45;&gt;operon -->
<g id="edge4" class="edge"><title>operon_transcript:portoperon_id:e&#45;&gt;operon:portoperon_id:w</title>
<path fill="none" stroke="black" stroke-dasharray="5,2" d="M387,-252C437.816,-252 394.44,-347.075 432.011,-360.445"/>
<polygon fill="black" stroke="black" points="431.581,-363.92 442,-362 432.657,-357.003 431.581,-363.92"/>
</g>
<!-- operon_transcript&#45;&gt;seq_region -->
<g id="edge5" class="edge"><title>operon_transcript:portseq_region_id:e&#45;&gt;seq_region:portseq_region_id:w</title>
<path fill="none" stroke="black" stroke-dasharray="5,2" d="M387,-332C426.638,-332 397.62,-389.272 432,-409 483.655,-438.641 512.393,-434.946 566,-409 596.705,-394.139 584.37,-351.9 609.083,-343.473"/>
<polygon fill="black" stroke="black" points="609.623,-346.931 619,-342 608.594,-340.007 609.623,-346.931"/>
</g>
<!-- operon_transcript_gene -->
<g id="node3" class="node"><title>operon_transcript_gene</title>
<path fill="#ff8500" stroke="black" d="M181.5,-310.5C181.5,-310.5 28.5,-310.5 28.5,-310.5 22.5,-310.5 16.5,-304.5 16.5,-298.5 16.5,-298.5 16.5,-249.5 16.5,-249.5 16.5,-243.5 22.5,-237.5 28.5,-237.5 28.5,-237.5 181.5,-237.5 181.5,-237.5 187.5,-237.5 193.5,-243.5 193.5,-249.5 193.5,-249.5 193.5,-298.5 193.5,-298.5 193.5,-304.5 187.5,-310.5 181.5,-310.5"/>
<text text-anchor="start" x="29.5" y="-289.7" font-family="Times,serif" font-size="16.00">operon_transcript_gene</text>
<polygon fill="white" stroke="none" points="27,-263 27,-281 184,-281 184,-263 27,-263"/>
<text text-anchor="start" x="49" y="-268.8" font-family="Times,serif" font-size="14.00">operon_transcript_id</text>
<polygon fill="white" stroke="none" points="27,-243 27,-261 184,-261 184,-243 27,-243"/>
<text text-anchor="start" x="84" y="-248.8" font-family="Times,serif" font-size="14.00">gene_id</text>
<polygon fill="black" stroke="black" points="25,-282 25,-282 186,-282 186,-282 25,-282"/>
</g>
<!-- gene -->
<g id="node5" class="node"><title>gene</title>
<path fill="#808000" stroke="black" d="M711,-119.5C711,-119.5 639,-119.5 639,-119.5 633,-119.5 627,-113.5 627,-107.5 627,-107.5 627,-58.5 627,-58.5 627,-52.5 633,-46.5 639,-46.5 639,-46.5 711,-46.5 711,-46.5 717,-46.5 723,-52.5 723,-58.5 723,-58.5 723,-107.5 723,-107.5 723,-113.5 717,-119.5 711,-119.5"/>
<text text-anchor="start" x="659.5" y="-98.7" font-family="Times,serif" font-size="16.00">gene</text>
<polygon fill="white" stroke="none" points="637,-72 637,-90 713,-90 713,-72 637,-72"/>
<text text-anchor="start" x="639.5" y="-77.8" font-family="Times,serif" font-weight="bold" font-size="14.00">PK</text>
<text text-anchor="start" x="659.5" y="-77.8" font-family="Times,serif" font-size="14.00">  gene_id</text>
<polygon fill="white" stroke="none" points="637,-52 637,-70 713,-70 713,-52 637,-52"/>
<text text-anchor="start" x="669" y="-57.8" font-family="Times,serif" font-style="italic" font-size="14.00">...</text>
<polygon fill="black" stroke="black" points="635,-91 635,-91 715,-91 715,-91 635,-91"/>
</g>
<!-- operon_transcript_gene&#45;&gt;gene -->
<g id="edge6" class="edge"><title>operon_transcript_gene:portgene_id:e&#45;&gt;gene:portgene_id:w</title>
<path fill="none" stroke="black" stroke-dasharray="5,2" d="M185,-252C243.628,-252 184.008,-164.359 230,-128 369.854,-17.4363 451.292,-78.625 625.991,-80.9337"/>
<polygon fill="black" stroke="black" points="625.977,-84.4336 636,-81 626.023,-77.4338 625.977,-84.4336"/>
</g>
<!-- operon_transcript_gene&#45;&gt;operon_transcript -->
<g id="edge7" class="edge"><title>operon_transcript_gene:portoperon_transcript_id:e&#45;&gt;operon_transcript:portoperon_transcript_id:w</title>
<path fill="none" stroke="black" stroke-dasharray="5,2" d="M185,-272C231.564,-272 195.241,-356.985 228.854,-370.264"/>
<polygon fill="black" stroke="black" points="228.553,-373.764 239,-372 229.733,-366.864 228.553,-373.764"/>
</g>
</g>
</svg>
