<?xml version="1.0" encoding="UTF-8" standalone="no"?>
<!DOCTYPE svg PUBLIC "-//W3C//DTD SVG 1.1//EN"
 "http://www.w3.org/Graphics/SVG/1.1/DTD/svg11.dtd">
<!-- Generated by graphviz version 2.30.1 (20140821.0912)
 -->
<!-- Title: test Pages: 1 -->
<svg width="617pt" height="3397pt"
 viewBox="0.00 0.00 617.27 3397.00" xmlns="http://www.w3.org/2000/svg" xmlns:xlink="http://www.w3.org/1999/xlink">
<g id="graph0" class="graph" transform="scale(1 1) rotate(0) translate(4 3393)">
<title>test</title>
<polygon fill="white" stroke="white" points="-4,5 -4,-3393 614.266,-3393 614.266,5 -4,5"/>
<text text-anchor="middle" x="304.633" y="-10" font-family="Times,serif" font-size="20.00">Core schema diagram: Assembly Tables tables</text>
<g id="clust1" class="cluster"><title>cluster_assembly_tables</title>
<path fill="#f3cecd" stroke="#f3cecd" d="M51.2663,-2255C51.2663,-2255 589.266,-2255 589.266,-2255 595.266,-2255 601.266,-2261 601.266,-2267 601.266,-2267 601.266,-3369 601.266,-3369 601.266,-3375 595.266,-3381 589.266,-3381 589.266,-3381 51.2663,-3381 51.2663,-3381 45.2663,-3381 39.2663,-3375 39.2663,-3369 39.2663,-3369 39.2663,-2267 39.2663,-2267 39.2663,-2261 45.2663,-2255 51.2663,-2255"/>
<text text-anchor="middle" x="320.266" y="-3361" font-family="Times,serif" font-size="20.00">Assembly Tables</text>
</g>
<g id="clust2" class="cluster"><title>cluster_features</title>
<polygon fill="white" stroke="white" points="29.2663,-445 29.2663,-1473 253.266,-1473 253.266,-445 29.2663,-445"/>
<text text-anchor="middle" x="141.266" y="-1453" font-family="Times,serif" font-size="20.00">Features</text>
</g>
<g id="clust3" class="cluster"><title>cluster_fundamental_tables</title>
<polygon fill="white" stroke="white" points="51.2663,-1481 51.2663,-2247 231.266,-2247 231.266,-1481 51.2663,-1481"/>
<text text-anchor="middle" x="141.266" y="-2227" font-family="Times,serif" font-size="20.00">Fundamental Tables</text>
</g>
<g id="clust4" class="cluster"><title>cluster_id_mapping</title>
<polygon fill="white" stroke="white" points="52.2663,-38 52.2663,-178 230.266,-178 230.266,-38 52.2663,-38"/>
<text text-anchor="middle" x="141.266" y="-158" font-family="Times,serif" font-size="20.00">ID Mapping</text>
</g>
<g id="clust5" class="cluster"><title>cluster_misc</title>
<polygon fill="white" stroke="white" points="63.2663,-186 63.2663,-437 219.266,-437 219.266,-186 63.2663,-186"/>
<text text-anchor="middle" x="141.266" y="-417" font-family="Times,serif" font-size="20.00">Misc</text>
</g>
<!-- assembly -->
<g id="node1" class="node"><title>assembly</title>
<path fill="#c70c09" stroke="black" d="M195.766,-3100.5C195.766,-3100.5 86.7663,-3100.5 86.7663,-3100.5 80.7663,-3100.5 74.7663,-3094.5 74.7663,-3088.5 74.7663,-3088.5 74.7663,-2939.5 74.7663,-2939.5 74.7663,-2933.5 80.7663,-2927.5 86.7663,-2927.5 86.7663,-2927.5 195.766,-2927.5 195.766,-2927.5 201.766,-2927.5 207.766,-2933.5 207.766,-2939.5 207.766,-2939.5 207.766,-3088.5 207.766,-3088.5 207.766,-3094.5 201.766,-3100.5 195.766,-3100.5"/>
<text text-anchor="start" x="111.766" y="-3079.7" font-family="Times,serif" font-size="16.00">assembly</text>
<polygon fill="white" stroke="none" points="85.2663,-3053 85.2663,-3071 198.266,-3071 198.266,-3053 85.2663,-3053"/>
<text text-anchor="start" x="88.7663" y="-3058.8" font-family="Times,serif" font-size="14.00">asm_seq_region_id</text>
<polygon fill="white" stroke="none" points="85.2663,-3033 85.2663,-3051 198.266,-3051 198.266,-3033 85.2663,-3033"/>
<text text-anchor="start" x="87.7663" y="-3038.8" font-family="Times,serif" font-size="14.00">cmp_seq_region_id</text>
<polygon fill="white" stroke="none" points="85.2663,-3013 85.2663,-3031 198.266,-3031 198.266,-3013 85.2663,-3013"/>
<text text-anchor="start" x="115.266" y="-3018.8" font-family="Times,serif" font-size="14.00">asm_start</text>
<polygon fill="white" stroke="none" points="85.2663,-2993 85.2663,-3011 198.266,-3011 198.266,-2993 85.2663,-2993"/>
<text text-anchor="start" x="117.266" y="-2998.8" font-family="Times,serif" font-size="14.00">asm_end</text>
<polygon fill="white" stroke="none" points="85.2663,-2973 85.2663,-2991 198.266,-2991 198.266,-2973 85.2663,-2973"/>
<text text-anchor="start" x="114.266" y="-2978.8" font-family="Times,serif" font-size="14.00">cmp_start</text>
<polygon fill="white" stroke="none" points="85.2663,-2953 85.2663,-2971 198.266,-2971 198.266,-2953 85.2663,-2953"/>
<text text-anchor="start" x="116.266" y="-2958.8" font-family="Times,serif" font-size="14.00">cmp_end</text>
<polygon fill="white" stroke="none" points="85.2663,-2933 85.2663,-2951 198.266,-2951 198.266,-2933 85.2663,-2933"/>
<text text-anchor="start" x="133.766" y="-2938.8" font-family="Times,serif" font-size="14.00">ori</text>
<polygon fill="black" stroke="black" points="83.2663,-3072 83.2663,-3072 200.266,-3072 200.266,-3072 83.2663,-3072"/>
</g>
<!-- seq_region -->
<g id="node10" class="node"><title>seq_region</title>
<path fill="#c70c09" stroke="black" d="M399.266,-2507.5C399.266,-2507.5 293.266,-2507.5 293.266,-2507.5 287.266,-2507.5 281.266,-2501.5 281.266,-2495.5 281.266,-2495.5 281.266,-2406.5 281.266,-2406.5 281.266,-2400.5 287.266,-2394.5 293.266,-2394.5 293.266,-2394.5 399.266,-2394.5 399.266,-2394.5 405.266,-2394.5 411.266,-2400.5 411.266,-2406.5 411.266,-2406.5 411.266,-2495.5 411.266,-2495.5 411.266,-2501.5 405.266,-2507.5 399.266,-2507.5"/>
<text text-anchor="start" x="310.766" y="-2486.7" font-family="Times,serif" font-size="16.00">seq_region</text>
<polygon fill="white" stroke="none" points="291.266,-2460 291.266,-2478 401.266,-2478 401.266,-2460 291.266,-2460"/>
<text text-anchor="start" x="293.766" y="-2465.8" font-family="Times,serif" font-weight="bold" font-size="14.00">PK</text>
<text text-anchor="start" x="313.766" y="-2465.8" font-family="Times,serif" font-size="14.00">  seq_region_id</text>
<polygon fill="white" stroke="none" points="291.266,-2440 291.266,-2458 401.266,-2458 401.266,-2440 291.266,-2440"/>
<text text-anchor="start" x="330.766" y="-2445.8" font-family="Times,serif" font-size="14.00">name</text>
<polygon fill="white" stroke="none" points="291.266,-2420 291.266,-2438 401.266,-2438 401.266,-2420 291.266,-2420"/>
<text text-anchor="start" x="299.266" y="-2425.8" font-family="Times,serif" font-size="14.00">coord_system_id</text>
<polygon fill="white" stroke="none" points="291.266,-2400 291.266,-2418 401.266,-2418 401.266,-2400 291.266,-2400"/>
<text text-anchor="start" x="329.266" y="-2405.8" font-family="Times,serif" font-size="14.00">length</text>
<polygon fill="black" stroke="black" points="289.266,-2479 289.266,-2479 403.266,-2479 403.266,-2479 289.266,-2479"/>
</g>
<!-- assembly&#45;&gt;seq_region -->
<g id="edge1" class="edge"><title>assembly:portasm_seq_region_id:e&#45;&gt;seq_region:portseq_region_id:w</title>
<path fill="none" stroke="black" stroke-dasharray="5,2" d="M199.266,-3062C267.618,-3062 238.734,-2984.79 253.266,-2918 263.223,-2872.24 243.121,-2519.11 281.477,-2473.78"/>
<polygon fill="black" stroke="black" points="283.157,-2476.86 290.266,-2469 279.81,-2470.71 283.157,-2476.86"/>
</g>
<!-- assembly_exception -->
<g id="node2" class="node"><title>assembly_exception</title>
<path fill="#c70c09" stroke="black" d="M219.766,-2567.5C219.766,-2567.5 62.7663,-2567.5 62.7663,-2567.5 56.7663,-2567.5 50.7663,-2561.5 50.7663,-2555.5 50.7663,-2555.5 50.7663,-2366.5 50.7663,-2366.5 50.7663,-2360.5 56.7663,-2354.5 62.7663,-2354.5 62.7663,-2354.5 219.766,-2354.5 219.766,-2354.5 225.766,-2354.5 231.766,-2360.5 231.766,-2366.5 231.766,-2366.5 231.766,-2555.5 231.766,-2555.5 231.766,-2561.5 225.766,-2567.5 219.766,-2567.5"/>
<text text-anchor="start" x="76.7663" y="-2546.7" font-family="Times,serif" font-size="16.00">assembly_exception</text>
<polygon fill="white" stroke="none" points="61.2663,-2520 61.2663,-2538 222.266,-2538 222.266,-2520 61.2663,-2520"/>
<text text-anchor="start" x="63.7663" y="-2525.8" font-family="Times,serif" font-weight="bold" font-size="14.00">PK</text>
<text text-anchor="start" x="83.7663" y="-2525.8" font-family="Times,serif" font-size="14.00">  assembly_exception_id</text>
<polygon fill="white" stroke="none" points="61.2663,-2500 61.2663,-2518 222.266,-2518 222.266,-2500 61.2663,-2500"/>
<text text-anchor="start" x="103.266" y="-2505.8" font-family="Times,serif" font-size="14.00">seq_region_id</text>
<polygon fill="white" stroke="none" points="61.2663,-2480 61.2663,-2498 222.266,-2498 222.266,-2480 61.2663,-2480"/>
<text text-anchor="start" x="96.7663" y="-2485.8" font-family="Times,serif" font-size="14.00">seq_region_start</text>
<polygon fill="white" stroke="none" points="61.2663,-2460 61.2663,-2478 222.266,-2478 222.266,-2460 61.2663,-2460"/>
<text text-anchor="start" x="98.7663" y="-2465.8" font-family="Times,serif" font-size="14.00">seq_region_end</text>
<polygon fill="white" stroke="none" points="61.2663,-2440 61.2663,-2458 222.266,-2458 222.266,-2440 61.2663,-2440"/>
<text text-anchor="start" x="117.266" y="-2445.8" font-family="Times,serif" font-size="14.00">exc_type</text>
<polygon fill="white" stroke="none" points="61.2663,-2420 61.2663,-2438 222.266,-2438 222.266,-2420 61.2663,-2420"/>
<text text-anchor="start" x="90.2663" y="-2425.8" font-family="Times,serif" font-size="14.00">exc_seq_region_id</text>
<polygon fill="white" stroke="none" points="61.2663,-2400 61.2663,-2418 222.266,-2418 222.266,-2400 61.2663,-2400"/>
<text text-anchor="start" x="84.2663" y="-2405.8" font-family="Times,serif" font-size="14.00">exc_seq_region_start</text>
<polygon fill="white" stroke="none" points="61.2663,-2380 61.2663,-2398 222.266,-2398 222.266,-2380 61.2663,-2380"/>
<text text-anchor="start" x="85.7663" y="-2385.8" font-family="Times,serif" font-size="14.00">exc_seq_region_end</text>
<polygon fill="white" stroke="none" points="61.2663,-2360 61.2663,-2378 222.266,-2378 222.266,-2360 61.2663,-2360"/>
<text text-anchor="start" x="133.766" y="-2365.8" font-family="Times,serif" font-size="14.00">ori</text>
<polygon fill="black" stroke="black" points="59.2663,-2539 59.2663,-2539 224.266,-2539 224.266,-2539 59.2663,-2539"/>
</g>
<!-- assembly_exception&#45;&gt;seq_region -->
<g id="edge2" class="edge"><title>assembly_exception:portexc_seq_region_id:e&#45;&gt;seq_region:portseq_region_id:w</title>
<path fill="none" stroke="black" stroke-dasharray="5,2" d="M223.266,-2429C254.154,-2429 255.659,-2460.73 280.119,-2467.67"/>
<polygon fill="black" stroke="black" points="279.896,-2471.17 290.266,-2469 280.806,-2464.23 279.896,-2471.17"/>
</g>
<!-- coord_system -->
<g id="node3" class="node"><title>coord_system</title>
<path fill="#c70c09" stroke="black" d="M581.266,-2532.5C581.266,-2532.5 459.266,-2532.5 459.266,-2532.5 453.266,-2532.5 447.266,-2526.5 447.266,-2520.5 447.266,-2520.5 447.266,-2391.5 447.266,-2391.5 447.266,-2385.5 453.266,-2379.5 459.266,-2379.5 459.266,-2379.5 581.266,-2379.5 581.266,-2379.5 587.266,-2379.5 593.266,-2385.5 593.266,-2391.5 593.266,-2391.5 593.266,-2520.5 593.266,-2520.5 593.266,-2526.5 587.266,-2532.5 581.266,-2532.5"/>
<text text-anchor="start" x="475.266" y="-2511.7" font-family="Times,serif" font-size="16.00">coord_system</text>
<polygon fill="white" stroke="none" points="457.266,-2485 457.266,-2503 583.266,-2503 583.266,-2485 457.266,-2485"/>
<text text-anchor="start" x="459.766" y="-2490.8" font-family="Times,serif" font-weight="bold" font-size="14.00">PK</text>
<text text-anchor="start" x="479.766" y="-2490.8" font-family="Times,serif" font-size="14.00">  coord_system_id</text>
<polygon fill="white" stroke="none" points="457.266,-2465 457.266,-2483 583.266,-2483 583.266,-2465 457.266,-2465"/>
<text text-anchor="start" x="491.766" y="-2470.8" font-family="Times,serif" font-size="14.00">species_id</text>
<polygon fill="white" stroke="none" points="457.266,-2445 457.266,-2463 583.266,-2463 583.266,-2445 457.266,-2445"/>
<text text-anchor="start" x="504.766" y="-2450.8" font-family="Times,serif" font-size="14.00">name</text>
<polygon fill="white" stroke="none" points="457.266,-2425 457.266,-2443 583.266,-2443 583.266,-2425 457.266,-2425"/>
<text text-anchor="start" x="500.266" y="-2430.8" font-family="Times,serif" font-size="14.00">version</text>
<polygon fill="white" stroke="none" points="457.266,-2405 457.266,-2423 583.266,-2423 583.266,-2405 457.266,-2405"/>
<text text-anchor="start" x="507.766" y="-2410.8" font-family="Times,serif" font-size="14.00">rank</text>
<polygon fill="white" stroke="none" points="457.266,-2385 457.266,-2403 583.266,-2403 583.266,-2385 457.266,-2385"/>
<text text-anchor="start" x="505.766" y="-2390.8" font-family="Times,serif" font-size="14.00">attrib</text>
<polygon fill="black" stroke="black" points="455.266,-2504 455.266,-2504 585.266,-2504 585.266,-2504 455.266,-2504"/>
</g>
<!-- data_file -->
<g id="node4" class="node"><title>data_file</title>
<path fill="#c70c09" stroke="black" d="M393.766,-2829.5C393.766,-2829.5 298.766,-2829.5 298.766,-2829.5 292.766,-2829.5 286.766,-2823.5 286.766,-2817.5 286.766,-2817.5 286.766,-2648.5 286.766,-2648.5 286.766,-2642.5 292.766,-2636.5 298.766,-2636.5 298.766,-2636.5 393.766,-2636.5 393.766,-2636.5 399.766,-2636.5 405.766,-2642.5 405.766,-2648.5 405.766,-2648.5 405.766,-2817.5 405.766,-2817.5 405.766,-2823.5 399.766,-2829.5 393.766,-2829.5"/>
<text text-anchor="start" x="318.766" y="-2808.7" font-family="Times,serif" font-size="16.00">data_file</text>
<polygon fill="white" stroke="none" points="297.266,-2782 297.266,-2800 396.266,-2800 396.266,-2782 297.266,-2782"/>
<text text-anchor="start" x="300.266" y="-2787.8" font-family="Times,serif" font-weight="bold" font-size="14.00">PK</text>
<text text-anchor="start" x="320.266" y="-2787.8" font-family="Times,serif" font-size="14.00">  data_file_id</text>
<polygon fill="white" stroke="none" points="297.266,-2762 297.266,-2780 396.266,-2780 396.266,-2762 297.266,-2762"/>
<text text-anchor="start" x="299.766" y="-2767.8" font-family="Times,serif" font-size="14.00">coord_system_id</text>
<polygon fill="white" stroke="none" points="297.266,-2742 297.266,-2760 396.266,-2760 396.266,-2742 297.266,-2742"/>
<text text-anchor="start" x="316.266" y="-2747.8" font-family="Times,serif" font-size="14.00">analysis_id</text>
<polygon fill="white" stroke="none" points="297.266,-2722 297.266,-2740 396.266,-2740 396.266,-2722 297.266,-2722"/>
<text text-anchor="start" x="331.266" y="-2727.8" font-family="Times,serif" font-size="14.00">name</text>
<polygon fill="white" stroke="none" points="297.266,-2702 297.266,-2720 396.266,-2720 396.266,-2702 297.266,-2702"/>
<text text-anchor="start" x="311.766" y="-2707.8" font-family="Times,serif" font-size="14.00">version_lock</text>
<polygon fill="white" stroke="none" points="297.266,-2682 297.266,-2700 396.266,-2700 396.266,-2682 297.266,-2682"/>
<text text-anchor="start" x="323.766" y="-2687.8" font-family="Times,serif" font-size="14.00">absolute</text>
<polygon fill="white" stroke="none" points="297.266,-2662 297.266,-2680 396.266,-2680 396.266,-2662 297.266,-2662"/>
<text text-anchor="start" x="338.766" y="-2667.8" font-family="Times,serif" font-size="14.00">url</text>
<polygon fill="white" stroke="none" points="297.266,-2642 297.266,-2660 396.266,-2660 396.266,-2642 297.266,-2642"/>
<text text-anchor="start" x="322.266" y="-2647.8" font-family="Times,serif" font-size="14.00">file_type</text>
<polygon fill="black" stroke="black" points="295.266,-2801 295.266,-2801 398.266,-2801 398.266,-2801 295.266,-2801"/>
</g>
<!-- analysis -->
<g id="node13" class="node"><title>analysis</title>
<path fill="#808000" stroke="black" d="M186.266,-2208.5C186.266,-2208.5 96.2663,-2208.5 96.2663,-2208.5 90.2663,-2208.5 84.2663,-2202.5 84.2663,-2196.5 84.2663,-2196.5 84.2663,-2147.5 84.2663,-2147.5 84.2663,-2141.5 90.2663,-2135.5 96.2663,-2135.5 96.2663,-2135.5 186.266,-2135.5 186.266,-2135.5 192.266,-2135.5 198.266,-2141.5 198.266,-2147.5 198.266,-2147.5 198.266,-2196.5 198.266,-2196.5 198.266,-2202.5 192.266,-2208.5 186.266,-2208.5"/>
<text text-anchor="start" x="115.266" y="-2187.7" font-family="Times,serif" font-size="16.00">analysis</text>
<polygon fill="white" stroke="none" points="94.2663,-2161 94.2663,-2179 188.266,-2179 188.266,-2161 94.2663,-2161"/>
<text text-anchor="start" x="96.7663" y="-2166.8" font-family="Times,serif" font-weight="bold" font-size="14.00">PK</text>
<text text-anchor="start" x="116.766" y="-2166.8" font-family="Times,serif" font-size="14.00">  analysis_id</text>
<polygon fill="white" stroke="none" points="94.2663,-2141 94.2663,-2159 188.266,-2159 188.266,-2141 94.2663,-2141"/>
<text text-anchor="start" x="135.266" y="-2146.8" font-family="Times,serif" font-style="italic" font-size="14.00">...</text>
<polygon fill="black" stroke="black" points="92.2663,-2180 92.2663,-2180 190.266,-2180 190.266,-2180 92.2663,-2180"/>
</g>
<!-- data_file&#45;&gt;analysis -->
<g id="edge3" class="edge"><title>data_file:portanalysis_id:e&#45;&gt;analysis:portanalysis_id:w</title>
<path fill="none" stroke="black" stroke-dasharray="5,2" d="M397.266,-2751C431.936,-2751 420.938,-2804.64 396.266,-2829 361.476,-2863.35 321.808,-2862.57 286.266,-2829 239.502,-2784.83 269.226,-2313.32 253.266,-2251 239.16,-2195.92 246.342,-2165.85 198.266,-2135.5 188.495,-2129.33 102.555,-2127.45 94.2663,-2135.5 86.5299,-2143.02 81.5947,-2157.02 84.6785,-2164.67"/>
<polygon fill="black" stroke="black" points="82.9239,-2167.7 93.2663,-2170 86.615,-2161.75 82.9239,-2167.7"/>
</g>
<!-- data_file&#45;&gt;coord_system -->
<g id="edge4" class="edge"><title>data_file:portcoord_system_id:e&#45;&gt;coord_system:portcoord_system_id:w</title>
<path fill="none" stroke="black" stroke-dasharray="5,2" d="M397.266,-2771C519.451,-2771 341.414,-2509.99 446.008,-2494.7"/>
<polygon fill="black" stroke="black" points="446.528,-2498.17 456.266,-2494 446.051,-2491.19 446.528,-2498.17"/>
</g>
<!-- dna -->
<g id="node5" class="node"><title>dna</title>
<path fill="#c70c09" stroke="black" d="M194.266,-2336.5C194.266,-2336.5 88.2663,-2336.5 88.2663,-2336.5 82.2663,-2336.5 76.2663,-2330.5 76.2663,-2324.5 76.2663,-2324.5 76.2663,-2275.5 76.2663,-2275.5 76.2663,-2269.5 82.2663,-2263.5 88.2663,-2263.5 88.2663,-2263.5 194.266,-2263.5 194.266,-2263.5 200.266,-2263.5 206.266,-2269.5 206.266,-2275.5 206.266,-2275.5 206.266,-2324.5 206.266,-2324.5 206.266,-2330.5 200.266,-2336.5 194.266,-2336.5"/>
<text text-anchor="start" x="129.266" y="-2315.7" font-family="Times,serif" font-size="16.00">dna</text>
<polygon fill="white" stroke="none" points="86.2663,-2289 86.2663,-2307 196.266,-2307 196.266,-2289 86.2663,-2289"/>
<text text-anchor="start" x="88.7663" y="-2294.8" font-family="Times,serif" font-weight="bold" font-size="14.00">PK</text>
<text text-anchor="start" x="108.766" y="-2294.8" font-family="Times,serif" font-size="14.00">  seq_region_id</text>
<polygon fill="white" stroke="none" points="86.2663,-2269 86.2663,-2287 196.266,-2287 196.266,-2269 86.2663,-2269"/>
<text text-anchor="start" x="116.266" y="-2274.8" font-family="Times,serif" font-size="14.00">sequence</text>
<polygon fill="black" stroke="black" points="84.2663,-2308 84.2663,-2308 198.266,-2308 198.266,-2308 84.2663,-2308"/>
</g>
<!-- dna&#45;&gt;seq_region -->
<g id="edge7" class="edge"><title>dna:portseq_region_id:e&#45;&gt;seq_region:portseq_region_id:w</title>
<path fill="none" stroke="black" stroke-dasharray="5,2" d="M197.266,-2298C229.759,-2298 235.425,-2317.84 253.266,-2345 282.748,-2389.87 239.303,-2459.04 280.202,-2468.03"/>
<polygon fill="black" stroke="black" points="279.976,-2471.52 290.266,-2469 280.65,-2464.55 279.976,-2471.52"/>
</g>
<!-- genome_statistics -->
<g id="node6" class="node"><title>genome_statistics</title>
<path fill="#c70c09" stroke="black" d="M212.766,-2909.5C212.766,-2909.5 69.7663,-2909.5 69.7663,-2909.5 63.7663,-2909.5 57.7663,-2903.5 57.7663,-2897.5 57.7663,-2897.5 57.7663,-2768.5 57.7663,-2768.5 57.7663,-2762.5 63.7663,-2756.5 69.7663,-2756.5 69.7663,-2756.5 212.766,-2756.5 212.766,-2756.5 218.766,-2756.5 224.766,-2762.5 224.766,-2768.5 224.766,-2768.5 224.766,-2897.5 224.766,-2897.5 224.766,-2903.5 218.766,-2909.5 212.766,-2909.5"/>
<text text-anchor="start" x="84.7663" y="-2888.7" font-family="Times,serif" font-size="16.00">genome_statistics</text>
<polygon fill="white" stroke="none" points="68.2663,-2862 68.2663,-2880 215.266,-2880 215.266,-2862 68.2663,-2862"/>
<text text-anchor="start" x="70.7663" y="-2867.8" font-family="Times,serif" font-weight="bold" font-size="14.00">PK</text>
<text text-anchor="start" x="90.7663" y="-2867.8" font-family="Times,serif" font-size="14.00">  genome_statistics_id</text>
<polygon fill="white" stroke="none" points="68.2663,-2842 68.2663,-2860 215.266,-2860 215.266,-2842 68.2663,-2842"/>
<text text-anchor="start" x="120.766" y="-2847.8" font-family="Times,serif" font-size="14.00">statistic</text>
<polygon fill="white" stroke="none" points="68.2663,-2822 68.2663,-2840 215.266,-2840 215.266,-2822 68.2663,-2822"/>
<text text-anchor="start" x="126.766" y="-2827.8" font-family="Times,serif" font-size="14.00">value</text>
<polygon fill="white" stroke="none" points="68.2663,-2802 68.2663,-2820 215.266,-2820 215.266,-2802 68.2663,-2802"/>
<text text-anchor="start" x="113.266" y="-2807.8" font-family="Times,serif" font-size="14.00">species_id</text>
<polygon fill="white" stroke="none" points="68.2663,-2782 68.2663,-2800 215.266,-2800 215.266,-2782 68.2663,-2782"/>
<text text-anchor="start" x="103.766" y="-2787.8" font-family="Times,serif" font-size="14.00">attrib_type_id</text>
<polygon fill="white" stroke="none" points="68.2663,-2762 68.2663,-2780 215.266,-2780 215.266,-2762 68.2663,-2762"/>
<text text-anchor="start" x="112.766" y="-2767.8" font-family="Times,serif" font-size="14.00">timestamp</text>
<polygon fill="black" stroke="black" points="66.2663,-2881 66.2663,-2881 217.266,-2881 217.266,-2881 66.2663,-2881"/>
</g>
<!-- karyotype -->
<g id="node7" class="node"><title>karyotype</title>
<path fill="#c70c09" stroke="black" d="M191.266,-2738.5C191.266,-2738.5 91.2663,-2738.5 91.2663,-2738.5 85.2663,-2738.5 79.2663,-2732.5 79.2663,-2726.5 79.2663,-2726.5 79.2663,-2597.5 79.2663,-2597.5 79.2663,-2591.5 85.2663,-2585.5 91.2663,-2585.5 91.2663,-2585.5 191.266,-2585.5 191.266,-2585.5 197.266,-2585.5 203.266,-2591.5 203.266,-2597.5 203.266,-2597.5 203.266,-2726.5 203.266,-2726.5 203.266,-2732.5 197.266,-2738.5 191.266,-2738.5"/>
<text text-anchor="start" x="108.766" y="-2717.7" font-family="Times,serif" font-size="16.00">karyotype</text>
<polygon fill="white" stroke="none" points="89.2663,-2691 89.2663,-2709 193.266,-2709 193.266,-2691 89.2663,-2691"/>
<text text-anchor="start" x="91.7663" y="-2696.8" font-family="Times,serif" font-weight="bold" font-size="14.00">PK</text>
<text text-anchor="start" x="111.766" y="-2696.8" font-family="Times,serif" font-size="14.00">  karyotype_id</text>
<polygon fill="white" stroke="none" points="89.2663,-2671 89.2663,-2689 193.266,-2689 193.266,-2671 89.2663,-2671"/>
<text text-anchor="start" x="102.766" y="-2676.8" font-family="Times,serif" font-size="14.00">seq_region_id</text>
<polygon fill="white" stroke="none" points="89.2663,-2651 89.2663,-2669 193.266,-2669 193.266,-2651 89.2663,-2651"/>
<text text-anchor="start" x="96.2663" y="-2656.8" font-family="Times,serif" font-size="14.00">seq_region_start</text>
<polygon fill="white" stroke="none" points="89.2663,-2631 89.2663,-2649 193.266,-2649 193.266,-2631 89.2663,-2631"/>
<text text-anchor="start" x="98.2663" y="-2636.8" font-family="Times,serif" font-size="14.00">seq_region_end</text>
<polygon fill="white" stroke="none" points="89.2663,-2611 89.2663,-2629 193.266,-2629 193.266,-2611 89.2663,-2611"/>
<text text-anchor="start" x="127.766" y="-2616.8" font-family="Times,serif" font-size="14.00">band</text>
<polygon fill="white" stroke="none" points="89.2663,-2591 89.2663,-2609 193.266,-2609 193.266,-2591 89.2663,-2591"/>
<text text-anchor="start" x="128.266" y="-2596.8" font-family="Times,serif" font-size="14.00">stain</text>
<polygon fill="black" stroke="black" points="87.2663,-2710 87.2663,-2710 195.266,-2710 195.266,-2710 87.2663,-2710"/>
</g>
<!-- karyotype&#45;&gt;seq_region -->
<g id="edge12" class="edge"><title>karyotype:portseq_region_id:e&#45;&gt;seq_region:portseq_region_id:w</title>
<path fill="none" stroke="black" stroke-dasharray="5,2" d="M194.266,-2680C247.409,-2680 231.38,-2624.43 253.266,-2576 272.371,-2533.73 244.933,-2478.46 279.951,-2470.08"/>
<polygon fill="black" stroke="black" points="280.687,-2473.53 290.266,-2469 279.955,-2466.56 280.687,-2473.53"/>
</g>
<!-- meta -->
<g id="node8" class="node"><title>meta</title>
<path fill="#c70c09" stroke="black" d="M382.766,-2376.5C382.766,-2376.5 309.766,-2376.5 309.766,-2376.5 303.766,-2376.5 297.766,-2370.5 297.766,-2364.5 297.766,-2364.5 297.766,-2275.5 297.766,-2275.5 297.766,-2269.5 303.766,-2263.5 309.766,-2263.5 309.766,-2263.5 382.766,-2263.5 382.766,-2263.5 388.766,-2263.5 394.766,-2269.5 394.766,-2275.5 394.766,-2275.5 394.766,-2364.5 394.766,-2364.5 394.766,-2370.5 388.766,-2376.5 382.766,-2376.5"/>
<text text-anchor="start" x="331.266" y="-2355.7" font-family="Times,serif" font-size="16.00">meta</text>
<polygon fill="white" stroke="none" points="308.266,-2329 308.266,-2347 385.266,-2347 385.266,-2329 308.266,-2329"/>
<text text-anchor="start" x="310.766" y="-2334.8" font-family="Times,serif" font-weight="bold" font-size="14.00">PK</text>
<text text-anchor="start" x="330.766" y="-2334.8" font-family="Times,serif" font-size="14.00">  meta_id</text>
<polygon fill="white" stroke="none" points="308.266,-2309 308.266,-2327 385.266,-2327 385.266,-2309 308.266,-2309"/>
<text text-anchor="start" x="318.266" y="-2314.8" font-family="Times,serif" font-size="14.00">species_id</text>
<polygon fill="white" stroke="none" points="308.266,-2289 308.266,-2307 385.266,-2307 385.266,-2289 308.266,-2289"/>
<text text-anchor="start" x="319.766" y="-2294.8" font-family="Times,serif" font-size="14.00">meta_key</text>
<polygon fill="white" stroke="none" points="308.266,-2269 308.266,-2287 385.266,-2287 385.266,-2269 308.266,-2269"/>
<text text-anchor="start" x="314.766" y="-2274.8" font-family="Times,serif" font-size="14.00">meta_value</text>
<polygon fill="black" stroke="black" points="306.266,-2348 306.266,-2348 387.266,-2348 387.266,-2348 306.266,-2348"/>
</g>
<!-- meta&#45;&gt;coord_system -->
<g id="edge14" class="edge"><title>meta:portspecies_id:e&#45;&gt;coord_system:portspecies_id:w</title>
<path fill="none" stroke="black" stroke-dasharray="5,2" d="M386.266,-2318C458.549,-2318 387.903,-2459.14 446.228,-2472.92"/>
<polygon fill="black" stroke="black" points="445.949,-2476.41 456.266,-2474 446.698,-2469.45 445.949,-2476.41"/>
</g>
<!-- meta_coord -->
<g id="node9" class="node"><title>meta_coord</title>
<path fill="#c70c09" stroke="black" d="M393.766,-2618.5C393.766,-2618.5 298.766,-2618.5 298.766,-2618.5 292.766,-2618.5 286.766,-2612.5 286.766,-2606.5 286.766,-2606.5 286.766,-2537.5 286.766,-2537.5 286.766,-2531.5 292.766,-2525.5 298.766,-2525.5 298.766,-2525.5 393.766,-2525.5 393.766,-2525.5 399.766,-2525.5 405.766,-2531.5 405.766,-2537.5 405.766,-2537.5 405.766,-2606.5 405.766,-2606.5 405.766,-2612.5 399.766,-2618.5 393.766,-2618.5"/>
<text text-anchor="start" x="308.766" y="-2597.7" font-family="Times,serif" font-size="16.00">meta_coord</text>
<polygon fill="white" stroke="none" points="297.266,-2571 297.266,-2589 396.266,-2589 396.266,-2571 297.266,-2571"/>
<text text-anchor="start" x="314.766" y="-2576.8" font-family="Times,serif" font-size="14.00">table_name</text>
<polygon fill="white" stroke="none" points="297.266,-2551 297.266,-2569 396.266,-2569 396.266,-2551 297.266,-2551"/>
<text text-anchor="start" x="299.766" y="-2556.8" font-family="Times,serif" font-size="14.00">coord_system_id</text>
<polygon fill="white" stroke="none" points="297.266,-2531 297.266,-2549 396.266,-2549 396.266,-2531 297.266,-2531"/>
<text text-anchor="start" x="314.266" y="-2536.8" font-family="Times,serif" font-size="14.00">max_length</text>
<polygon fill="black" stroke="black" points="295.266,-2590 295.266,-2590 398.266,-2590 398.266,-2590 295.266,-2590"/>
</g>
<!-- meta_coord&#45;&gt;coord_system -->
<g id="edge15" class="edge"><title>meta_coord:portcoord_system_id:e&#45;&gt;coord_system:portcoord_system_id:w</title>
<path fill="none" stroke="black" stroke-dasharray="5,2" d="M397.266,-2560C432.769,-2560 420.204,-2506.26 446.318,-2495.77"/>
<polygon fill="black" stroke="black" points="447.032,-2499.19 456.266,-2494 445.809,-2492.3 447.032,-2499.19"/>
</g>
<!-- seq_region&#45;&gt;coord_system -->
<g id="edge23" class="edge"><title>seq_region:portcoord_system_id:e&#45;&gt;coord_system:portcoord_system_id:w</title>
<path fill="none" stroke="black" stroke-dasharray="5,2" d="M402.266,-2429C435.863,-2429 422.51,-2481.01 446.203,-2491.98"/>
<polygon fill="black" stroke="black" points="445.773,-2495.47 456.266,-2494 447.149,-2488.6 445.773,-2495.47"/>
</g>
<!-- seq_region_attrib -->
<g id="node11" class="node"><title>seq_region_attrib</title>
<path fill="#c70c09" stroke="black" d="M198.266,-3342.5C198.266,-3342.5 84.2663,-3342.5 84.2663,-3342.5 78.2663,-3342.5 72.2663,-3336.5 72.2663,-3330.5 72.2663,-3330.5 72.2663,-3261.5 72.2663,-3261.5 72.2663,-3255.5 78.2663,-3249.5 84.2663,-3249.5 84.2663,-3249.5 198.266,-3249.5 198.266,-3249.5 204.266,-3249.5 210.266,-3255.5 210.266,-3261.5 210.266,-3261.5 210.266,-3330.5 210.266,-3330.5 210.266,-3336.5 204.266,-3342.5 198.266,-3342.5"/>
<text text-anchor="start" x="84.7663" y="-3321.7" font-family="Times,serif" font-size="16.00">seq_region_attrib</text>
<polygon fill="white" stroke="none" points="82.2663,-3295 82.2663,-3313 200.266,-3313 200.266,-3295 82.2663,-3295"/>
<text text-anchor="start" x="102.766" y="-3300.8" font-family="Times,serif" font-size="14.00">seq_region_id</text>
<polygon fill="white" stroke="none" points="82.2663,-3275 82.2663,-3293 200.266,-3293 200.266,-3275 82.2663,-3275"/>
<text text-anchor="start" x="103.266" y="-3280.8" font-family="Times,serif" font-size="14.00">attrib_type_id</text>
<polygon fill="white" stroke="none" points="82.2663,-3255 82.2663,-3273 200.266,-3273 200.266,-3255 82.2663,-3255"/>
<text text-anchor="start" x="126.266" y="-3260.8" font-family="Times,serif" font-size="14.00">value</text>
<polygon fill="black" stroke="black" points="80.2663,-3314 80.2663,-3314 202.266,-3314 202.266,-3314 80.2663,-3314"/>
</g>
<!-- attrib_type -->
<g id="node14" class="node"><title>attrib_type</title>
<path fill="#808000" stroke="black" d="M193.766,-2117.5C193.766,-2117.5 88.7663,-2117.5 88.7663,-2117.5 82.7663,-2117.5 76.7663,-2111.5 76.7663,-2105.5 76.7663,-2105.5 76.7663,-2056.5 76.7663,-2056.5 76.7663,-2050.5 82.7663,-2044.5 88.7663,-2044.5 88.7663,-2044.5 193.766,-2044.5 193.766,-2044.5 199.766,-2044.5 205.766,-2050.5 205.766,-2056.5 205.766,-2056.5 205.766,-2105.5 205.766,-2105.5 205.766,-2111.5 199.766,-2117.5 193.766,-2117.5"/>
<text text-anchor="start" x="106.766" y="-2096.7" font-family="Times,serif" font-size="16.00">attrib_type</text>
<polygon fill="white" stroke="none" points="87.2663,-2070 87.2663,-2088 196.266,-2088 196.266,-2070 87.2663,-2070"/>
<text text-anchor="start" x="89.7663" y="-2075.8" font-family="Times,serif" font-weight="bold" font-size="14.00">PK</text>
<text text-anchor="start" x="109.766" y="-2075.8" font-family="Times,serif" font-size="14.00">  attrib_type_id</text>
<polygon fill="white" stroke="none" points="87.2663,-2050 87.2663,-2068 196.266,-2068 196.266,-2050 87.2663,-2050"/>
<text text-anchor="start" x="135.766" y="-2055.8" font-family="Times,serif" font-style="italic" font-size="14.00">...</text>
<polygon fill="black" stroke="black" points="85.2663,-2089 85.2663,-2089 198.266,-2089 198.266,-2089 85.2663,-2089"/>
</g>
<!-- seq_region_attrib&#45;&gt;attrib_type -->
<g id="edge24" class="edge"><title>seq_region_attrib:portattrib_type_id:e&#45;&gt;attrib_type:portattrib_type_id:w</title>
<path fill="none" stroke="black" stroke-dasharray="5,2" d="M210.266,-3284C226.488,-3284 221.497,-3259.21 210.266,-3247.5 196.331,-3232.98 48.7562,-3245.03 29.2663,-3240 20.6057,-3237.77 15.9686,-3238.61 11.2663,-3231 -4.73932,-3205.1 -2.37798,-2162.22 11.2663,-2135 28.3079,-2101.01 42.1013,-2082.37 76.1165,-2079.42"/>
<polygon fill="black" stroke="black" points="76.4182,-2082.91 86.2663,-2079 76.1311,-2075.91 76.4182,-2082.91"/>
</g>
<!-- seq_region_attrib&#45;&gt;seq_region -->
<g id="edge25" class="edge"><title>seq_region_attrib:portseq_region_id:e&#45;&gt;seq_region:portseq_region_id:w</title>
<path fill="none" stroke="black" stroke-dasharray="5,2" d="M201.266,-3304C237.916,-3304 240.338,-3274.29 253.266,-3240 267.507,-3202.23 249.722,-2552.28 283.366,-2476.24"/>
<polygon fill="black" stroke="black" points="285.902,-2478.65 290.266,-2469 280.834,-2473.83 285.902,-2478.65"/>
</g>
<!-- seq_region_synonym -->
<g id="node12" class="node"><title>seq_region_synonym</title>
<path fill="#c70c09" stroke="black" d="M222.766,-3231.5C222.766,-3231.5 59.7663,-3231.5 59.7663,-3231.5 53.7663,-3231.5 47.7663,-3225.5 47.7663,-3219.5 47.7663,-3219.5 47.7663,-3130.5 47.7663,-3130.5 47.7663,-3124.5 53.7663,-3118.5 59.7663,-3118.5 59.7663,-3118.5 222.766,-3118.5 222.766,-3118.5 228.766,-3118.5 234.766,-3124.5 234.766,-3130.5 234.766,-3130.5 234.766,-3219.5 234.766,-3219.5 234.766,-3225.5 228.766,-3231.5 222.766,-3231.5"/>
<text text-anchor="start" x="72.2663" y="-3210.7" font-family="Times,serif" font-size="16.00">seq_region_synonym</text>
<polygon fill="white" stroke="none" points="58.2663,-3184 58.2663,-3202 225.266,-3202 225.266,-3184 58.2663,-3184"/>
<text text-anchor="start" x="60.7663" y="-3189.8" font-family="Times,serif" font-weight="bold" font-size="14.00">PK</text>
<text text-anchor="start" x="80.7663" y="-3189.8" font-family="Times,serif" font-size="14.00">  seq_region_synonym_id</text>
<polygon fill="white" stroke="none" points="58.2663,-3164 58.2663,-3182 225.266,-3182 225.266,-3164 58.2663,-3164"/>
<text text-anchor="start" x="103.266" y="-3169.8" font-family="Times,serif" font-size="14.00">seq_region_id</text>
<polygon fill="white" stroke="none" points="58.2663,-3144 58.2663,-3162 225.266,-3162 225.266,-3144 58.2663,-3144"/>
<text text-anchor="start" x="116.266" y="-3149.8" font-family="Times,serif" font-size="14.00">synonym</text>
<polygon fill="white" stroke="none" points="58.2663,-3124 58.2663,-3142 225.266,-3142 225.266,-3124 58.2663,-3124"/>
<text text-anchor="start" x="100.766" y="-3129.8" font-family="Times,serif" font-size="14.00">external_db_id</text>
<polygon fill="black" stroke="black" points="56.2663,-3203 56.2663,-3203 227.266,-3203 227.266,-3203 56.2663,-3203"/>
</g>
<!-- seq_region_synonym&#45;&gt;seq_region -->
<g id="edge27" class="edge"><title>seq_region_synonym:portseq_region_id:e&#45;&gt;seq_region:portseq_region_id:w</title>
<path fill="none" stroke="black" stroke-dasharray="5,2" d="M226.266,-3173C301.283,-3173 219.739,-2530.83 280.689,-2473.13"/>
<polygon fill="black" stroke="black" points="282.472,-2476.18 290.266,-2469 279.698,-2469.75 282.472,-2476.18"/>
</g>
<!-- density_feature -->
<g id="node15" class="node"><title>density_feature</title>
<path fill="#3cb371" stroke="black" d="M191.266,-657.5C191.266,-657.5 91.2663,-657.5 91.2663,-657.5 85.2663,-657.5 79.2663,-651.5 79.2663,-645.5 79.2663,-645.5 79.2663,-576.5 79.2663,-576.5 79.2663,-570.5 85.2663,-564.5 91.2663,-564.5 91.2663,-564.5 191.266,-564.5 191.266,-564.5 197.266,-564.5 203.266,-570.5 203.266,-576.5 203.266,-576.5 203.266,-645.5 203.266,-645.5 203.266,-651.5 197.266,-657.5 191.266,-657.5"/>
<text text-anchor="start" x="91.7663" y="-636.7" font-family="Times,serif" font-size="16.00">density_feature</text>
<polygon fill="white" stroke="none" points="89.2663,-610 89.2663,-628 193.266,-628 193.266,-610 89.2663,-610"/>
<text text-anchor="start" x="135.266" y="-615.8" font-family="Times,serif" font-style="italic" font-size="14.00">...</text>
<polygon fill="white" stroke="none" points="89.2663,-590 89.2663,-608 193.266,-608 193.266,-590 89.2663,-590"/>
<text text-anchor="start" x="102.766" y="-595.8" font-family="Times,serif" font-size="14.00">seq_region_id</text>
<polygon fill="white" stroke="none" points="89.2663,-570 89.2663,-588 193.266,-588 193.266,-570 89.2663,-570"/>
<text text-anchor="start" x="135.266" y="-575.8" font-family="Times,serif" font-style="italic" font-size="14.00">...</text>
<polygon fill="black" stroke="black" points="87.2663,-629 87.2663,-629 195.266,-629 195.266,-629 87.2663,-629"/>
</g>
<!-- density_feature&#45;&gt;seq_region -->
<g id="edge5" class="edge"><title>density_feature:portseq_region_id:e&#45;&gt;seq_region:portseq_region_id:w</title>
<path fill="none" stroke="black" stroke-dasharray="5,2" d="M194.266,-599C233.944,-599 238.95,-628.995 253.266,-666 287.728,-755.079 275.395,-2289.67 281.266,-2385 283.322,-2418.38 259.072,-2458.93 280.268,-2467.4"/>
<polygon fill="black" stroke="black" points="279.839,-2470.88 290.266,-2469 280.944,-2463.97 279.839,-2470.88"/>
</g>
<!-- ditag_feature -->
<g id="node16" class="node"><title>ditag_feature</title>
<path fill="#3cb371" stroke="black" d="M184.266,-546.5C184.266,-546.5 98.2663,-546.5 98.2663,-546.5 92.2663,-546.5 86.2663,-540.5 86.2663,-534.5 86.2663,-534.5 86.2663,-465.5 86.2663,-465.5 86.2663,-459.5 92.2663,-453.5 98.2663,-453.5 98.2663,-453.5 184.266,-453.5 184.266,-453.5 190.266,-453.5 196.266,-459.5 196.266,-465.5 196.266,-465.5 196.266,-534.5 196.266,-534.5 196.266,-540.5 190.266,-546.5 184.266,-546.5"/>
<text text-anchor="start" x="98.7663" y="-525.7" font-family="Times,serif" font-size="16.00">ditag_feature</text>
<polygon fill="white" stroke="none" points="96.2663,-499 96.2663,-517 186.266,-517 186.266,-499 96.2663,-499"/>
<text text-anchor="start" x="135.266" y="-504.8" font-family="Times,serif" font-style="italic" font-size="14.00">...</text>
<polygon fill="white" stroke="none" points="96.2663,-479 96.2663,-497 186.266,-497 186.266,-479 96.2663,-479"/>
<text text-anchor="start" x="102.766" y="-484.8" font-family="Times,serif" font-size="14.00">seq_region_id</text>
<polygon fill="white" stroke="none" points="96.2663,-459 96.2663,-477 186.266,-477 186.266,-459 96.2663,-459"/>
<text text-anchor="start" x="135.266" y="-464.8" font-family="Times,serif" font-style="italic" font-size="14.00">...</text>
<polygon fill="black" stroke="black" points="94.2663,-518 94.2663,-518 188.266,-518 188.266,-518 94.2663,-518"/>
</g>
<!-- ditag_feature&#45;&gt;seq_region -->
<g id="edge6" class="edge"><title>ditag_feature:portseq_region_id:e&#45;&gt;seq_region:portseq_region_id:w</title>
<path fill="none" stroke="black" stroke-dasharray="5,2" d="M187.266,-488C229.065,-488 237.12,-516.445 253.266,-555 292.542,-648.787 275.066,-2283.51 281.266,-2385 283.305,-2418.38 259.068,-2458.93 280.268,-2467.4"/>
<polygon fill="black" stroke="black" points="279.839,-2470.88 290.266,-2469 280.943,-2463.97 279.839,-2470.88"/>
</g>
<!-- dna_align_feature -->
<g id="node17" class="node"><title>dna_align_feature</title>
<path fill="#808000" stroke="black" d="M199.766,-2026.5C199.766,-2026.5 82.7663,-2026.5 82.7663,-2026.5 76.7663,-2026.5 70.7663,-2020.5 70.7663,-2014.5 70.7663,-2014.5 70.7663,-1945.5 70.7663,-1945.5 70.7663,-1939.5 76.7663,-1933.5 82.7663,-1933.5 82.7663,-1933.5 199.766,-1933.5 199.766,-1933.5 205.766,-1933.5 211.766,-1939.5 211.766,-1945.5 211.766,-1945.5 211.766,-2014.5 211.766,-2014.5 211.766,-2020.5 205.766,-2026.5 199.766,-2026.5"/>
<text text-anchor="start" x="83.7663" y="-2005.7" font-family="Times,serif" font-size="16.00">dna_align_feature</text>
<polygon fill="white" stroke="none" points="81.2663,-1979 81.2663,-1997 202.266,-1997 202.266,-1979 81.2663,-1979"/>
<text text-anchor="start" x="135.766" y="-1984.8" font-family="Times,serif" font-style="italic" font-size="14.00">...</text>
<polygon fill="white" stroke="none" points="81.2663,-1959 81.2663,-1977 202.266,-1977 202.266,-1959 81.2663,-1959"/>
<text text-anchor="start" x="103.266" y="-1964.8" font-family="Times,serif" font-size="14.00">seq_region_id</text>
<polygon fill="white" stroke="none" points="81.2663,-1939 81.2663,-1957 202.266,-1957 202.266,-1939 81.2663,-1939"/>
<text text-anchor="start" x="135.766" y="-1944.8" font-family="Times,serif" font-style="italic" font-size="14.00">...</text>
<polygon fill="black" stroke="black" points="79.2663,-1998 79.2663,-1998 204.266,-1998 204.266,-1998 79.2663,-1998"/>
</g>
<!-- dna_align_feature&#45;&gt;seq_region -->
<g id="edge8" class="edge"><title>dna_align_feature:portseq_region_id:e&#45;&gt;seq_region:portseq_region_id:w</title>
<path fill="none" stroke="black" stroke-dasharray="5,2" d="M203.266,-1968C240.422,-1968 240.161,-2000.23 253.266,-2035 280.787,-2108.01 273.998,-2307.31 281.266,-2385 284.381,-2418.29 259.304,-2458.91 280.306,-2467.4"/>
<polygon fill="black" stroke="black" points="279.838,-2470.87 290.266,-2469 280.948,-2463.96 279.838,-2470.87"/>
</g>
<!-- exon -->
<g id="node18" class="node"><title>exon</title>
<path fill="#808000" stroke="black" d="M180.266,-1915.5C180.266,-1915.5 102.266,-1915.5 102.266,-1915.5 96.2663,-1915.5 90.2663,-1909.5 90.2663,-1903.5 90.2663,-1903.5 90.2663,-1834.5 90.2663,-1834.5 90.2663,-1828.5 96.2663,-1822.5 102.266,-1822.5 102.266,-1822.5 180.266,-1822.5 180.266,-1822.5 186.266,-1822.5 192.266,-1828.5 192.266,-1834.5 192.266,-1834.5 192.266,-1903.5 192.266,-1903.5 192.266,-1909.5 186.266,-1915.5 180.266,-1915.5"/>
<text text-anchor="start" x="125.266" y="-1894.7" font-family="Times,serif" font-size="16.00">exon</text>
<polygon fill="white" stroke="none" points="100.266,-1868 100.266,-1886 182.266,-1886 182.266,-1868 100.266,-1868"/>
<text text-anchor="start" x="135.266" y="-1873.8" font-family="Times,serif" font-style="italic" font-size="14.00">...</text>
<polygon fill="white" stroke="none" points="100.266,-1848 100.266,-1866 182.266,-1866 182.266,-1848 100.266,-1848"/>
<text text-anchor="start" x="102.766" y="-1853.8" font-family="Times,serif" font-size="14.00">seq_region_id</text>
<polygon fill="white" stroke="none" points="100.266,-1828 100.266,-1846 182.266,-1846 182.266,-1828 100.266,-1828"/>
<text text-anchor="start" x="135.266" y="-1833.8" font-family="Times,serif" font-style="italic" font-size="14.00">...</text>
<polygon fill="black" stroke="black" points="98.2663,-1887 98.2663,-1887 184.266,-1887 184.266,-1887 98.2663,-1887"/>
</g>
<!-- exon&#45;&gt;seq_region -->
<g id="edge9" class="edge"><title>exon:portseq_region_id:e&#45;&gt;seq_region:portseq_region_id:w</title>
<path fill="none" stroke="black" stroke-dasharray="5,2" d="M183.266,-1857C226.332,-1857 235.158,-1884.93 253.266,-1924 296.422,-2017.12 272.686,-2282.73 281.266,-2385 284.062,-2418.32 259.234,-2458.92 280.295,-2467.4"/>
<polygon fill="black" stroke="black" points="279.838,-2470.87 290.266,-2469 280.947,-2463.96 279.838,-2470.87"/>
</g>
<!-- gene -->
<g id="node19" class="node"><title>gene</title>
<path fill="#808000" stroke="black" d="M180.266,-1804.5C180.266,-1804.5 102.266,-1804.5 102.266,-1804.5 96.2663,-1804.5 90.2663,-1798.5 90.2663,-1792.5 90.2663,-1792.5 90.2663,-1723.5 90.2663,-1723.5 90.2663,-1717.5 96.2663,-1711.5 102.266,-1711.5 102.266,-1711.5 180.266,-1711.5 180.266,-1711.5 186.266,-1711.5 192.266,-1717.5 192.266,-1723.5 192.266,-1723.5 192.266,-1792.5 192.266,-1792.5 192.266,-1798.5 186.266,-1804.5 180.266,-1804.5"/>
<text text-anchor="start" x="125.766" y="-1783.7" font-family="Times,serif" font-size="16.00">gene</text>
<polygon fill="white" stroke="none" points="100.266,-1757 100.266,-1775 182.266,-1775 182.266,-1757 100.266,-1757"/>
<text text-anchor="start" x="135.266" y="-1762.8" font-family="Times,serif" font-style="italic" font-size="14.00">...</text>
<polygon fill="white" stroke="none" points="100.266,-1737 100.266,-1755 182.266,-1755 182.266,-1737 100.266,-1737"/>
<text text-anchor="start" x="102.766" y="-1742.8" font-family="Times,serif" font-size="14.00">seq_region_id</text>
<polygon fill="white" stroke="none" points="100.266,-1717 100.266,-1735 182.266,-1735 182.266,-1717 100.266,-1717"/>
<text text-anchor="start" x="135.266" y="-1722.8" font-family="Times,serif" font-style="italic" font-size="14.00">...</text>
<polygon fill="black" stroke="black" points="98.2663,-1776 98.2663,-1776 184.266,-1776 184.266,-1776 98.2663,-1776"/>
</g>
<!-- gene&#45;&gt;seq_region -->
<g id="edge10" class="edge"><title>gene:portseq_region_id:e&#45;&gt;seq_region:portseq_region_id:w</title>
<path fill="none" stroke="black" stroke-dasharray="5,2" d="M183.266,-1746C313.504,-1746 251.537,-2003.76 281.266,-2385 283.866,-2418.34 259.191,-2458.92 280.288,-2467.4"/>
<polygon fill="black" stroke="black" points="279.839,-2470.87 290.266,-2469 280.946,-2463.96 279.839,-2470.87"/>
</g>
<!-- intron_supporting_evidence -->
<g id="node20" class="node"><title>intron_supporting_evidence</title>
<path fill="#3cb371" stroke="black" d="M232.766,-1434.5C232.766,-1434.5 49.7663,-1434.5 49.7663,-1434.5 43.7663,-1434.5 37.7663,-1428.5 37.7663,-1422.5 37.7663,-1422.5 37.7663,-1353.5 37.7663,-1353.5 37.7663,-1347.5 43.7663,-1341.5 49.7663,-1341.5 49.7663,-1341.5 232.766,-1341.5 232.766,-1341.5 238.766,-1341.5 244.766,-1347.5 244.766,-1353.5 244.766,-1353.5 244.766,-1422.5 244.766,-1422.5 244.766,-1428.5 238.766,-1434.5 232.766,-1434.5"/>
<text text-anchor="start" x="50.7663" y="-1413.7" font-family="Times,serif" font-size="16.00">intron_supporting_evidence</text>
<polygon fill="white" stroke="none" points="48.2663,-1387 48.2663,-1405 235.266,-1405 235.266,-1387 48.2663,-1387"/>
<text text-anchor="start" x="135.766" y="-1392.8" font-family="Times,serif" font-style="italic" font-size="14.00">...</text>
<polygon fill="white" stroke="none" points="48.2663,-1367 48.2663,-1385 235.266,-1385 235.266,-1367 48.2663,-1367"/>
<text text-anchor="start" x="103.266" y="-1372.8" font-family="Times,serif" font-size="14.00">seq_region_id</text>
<polygon fill="white" stroke="none" points="48.2663,-1347 48.2663,-1365 235.266,-1365 235.266,-1347 48.2663,-1347"/>
<text text-anchor="start" x="135.766" y="-1352.8" font-family="Times,serif" font-style="italic" font-size="14.00">...</text>
<polygon fill="black" stroke="black" points="46.2663,-1406 46.2663,-1406 237.266,-1406 237.266,-1406 46.2663,-1406"/>
</g>
<!-- intron_supporting_evidence&#45;&gt;seq_region -->
<g id="edge11" class="edge"><title>intron_supporting_evidence:portseq_region_id:e&#45;&gt;seq_region:portseq_region_id:w</title>
<path fill="none" stroke="black" stroke-dasharray="5,2" d="M236.266,-1376C294.272,-1376 235.404,-2370.97 282.682,-2462.3"/>
<polygon fill="black" stroke="black" points="280.453,-2465.01 290.266,-2469 285.086,-2459.76 280.453,-2465.01"/>
</g>
<!-- marker_feature -->
<g id="node21" class="node"><title>marker_feature</title>
<path fill="#3cb371" stroke="black" d="M190.266,-1323.5C190.266,-1323.5 92.2663,-1323.5 92.2663,-1323.5 86.2663,-1323.5 80.2663,-1317.5 80.2663,-1311.5 80.2663,-1311.5 80.2663,-1242.5 80.2663,-1242.5 80.2663,-1236.5 86.2663,-1230.5 92.2663,-1230.5 92.2663,-1230.5 190.266,-1230.5 190.266,-1230.5 196.266,-1230.5 202.266,-1236.5 202.266,-1242.5 202.266,-1242.5 202.266,-1311.5 202.266,-1311.5 202.266,-1317.5 196.266,-1323.5 190.266,-1323.5"/>
<text text-anchor="start" x="92.7663" y="-1302.7" font-family="Times,serif" font-size="16.00">marker_feature</text>
<polygon fill="white" stroke="none" points="90.2663,-1276 90.2663,-1294 192.266,-1294 192.266,-1276 90.2663,-1276"/>
<text text-anchor="start" x="135.266" y="-1281.8" font-family="Times,serif" font-style="italic" font-size="14.00">...</text>
<polygon fill="white" stroke="none" points="90.2663,-1256 90.2663,-1274 192.266,-1274 192.266,-1256 90.2663,-1256"/>
<text text-anchor="start" x="102.766" y="-1261.8" font-family="Times,serif" font-size="14.00">seq_region_id</text>
<polygon fill="white" stroke="none" points="90.2663,-1236 90.2663,-1254 192.266,-1254 192.266,-1236 90.2663,-1236"/>
<text text-anchor="start" x="135.266" y="-1241.8" font-family="Times,serif" font-style="italic" font-size="14.00">...</text>
<polygon fill="black" stroke="black" points="88.2663,-1295 88.2663,-1295 194.266,-1295 194.266,-1295 88.2663,-1295"/>
</g>
<!-- marker_feature&#45;&gt;seq_region -->
<g id="edge13" class="edge"><title>marker_feature:portseq_region_id:e&#45;&gt;seq_region:portseq_region_id:w</title>
<path fill="none" stroke="black" stroke-dasharray="5,2" d="M193.266,-1265C233.239,-1265 238.497,-1294.86 253.266,-1332 296.512,-1440.76 273.47,-2268.22 281.266,-2385 283.494,-2418.37 259.11,-2458.93 280.274,-2467.4"/>
<polygon fill="black" stroke="black" points="279.839,-2470.88 290.266,-2469 280.944,-2463.97 279.839,-2470.88"/>
</g>
<!-- misc_feature -->
<g id="node22" class="node"><title>misc_feature</title>
<path fill="#3cb371" stroke="black" d="M182.766,-1212.5C182.766,-1212.5 99.7663,-1212.5 99.7663,-1212.5 93.7663,-1212.5 87.7663,-1206.5 87.7663,-1200.5 87.7663,-1200.5 87.7663,-1131.5 87.7663,-1131.5 87.7663,-1125.5 93.7663,-1119.5 99.7663,-1119.5 99.7663,-1119.5 182.766,-1119.5 182.766,-1119.5 188.766,-1119.5 194.766,-1125.5 194.766,-1131.5 194.766,-1131.5 194.766,-1200.5 194.766,-1200.5 194.766,-1206.5 188.766,-1212.5 182.766,-1212.5"/>
<text text-anchor="start" x="100.766" y="-1191.7" font-family="Times,serif" font-size="16.00">misc_feature</text>
<polygon fill="white" stroke="none" points="98.2663,-1165 98.2663,-1183 185.266,-1183 185.266,-1165 98.2663,-1165"/>
<text text-anchor="start" x="135.766" y="-1170.8" font-family="Times,serif" font-style="italic" font-size="14.00">...</text>
<polygon fill="white" stroke="none" points="98.2663,-1145 98.2663,-1163 185.266,-1163 185.266,-1145 98.2663,-1145"/>
<text text-anchor="start" x="103.266" y="-1150.8" font-family="Times,serif" font-size="14.00">seq_region_id</text>
<polygon fill="white" stroke="none" points="98.2663,-1125 98.2663,-1143 185.266,-1143 185.266,-1125 98.2663,-1125"/>
<text text-anchor="start" x="135.766" y="-1130.8" font-family="Times,serif" font-style="italic" font-size="14.00">...</text>
<polygon fill="black" stroke="black" points="96.2663,-1184 96.2663,-1184 187.266,-1184 187.266,-1184 96.2663,-1184"/>
</g>
<!-- misc_feature&#45;&gt;seq_region -->
<g id="edge16" class="edge"><title>misc_feature:portseq_region_id:e&#45;&gt;seq_region:portseq_region_id:w</title>
<path fill="none" stroke="black" stroke-dasharray="5,2" d="M186.266,-1154C228.378,-1154 236.684,-1182.29 253.266,-1221 278.737,-1280.46 277.039,-2320.45 281.266,-2385 283.451,-2418.37 259.1,-2458.93 280.273,-2467.4"/>
<polygon fill="black" stroke="black" points="279.839,-2470.88 290.266,-2469 280.944,-2463.97 279.839,-2470.88"/>
</g>
<!-- operon -->
<g id="node23" class="node"><title>operon</title>
<path fill="#ff8500" stroke="black" d="M180.266,-398.5C180.266,-398.5 102.266,-398.5 102.266,-398.5 96.2663,-398.5 90.2663,-392.5 90.2663,-386.5 90.2663,-386.5 90.2663,-317.5 90.2663,-317.5 90.2663,-311.5 96.2663,-305.5 102.266,-305.5 102.266,-305.5 180.266,-305.5 180.266,-305.5 186.266,-305.5 192.266,-311.5 192.266,-317.5 192.266,-317.5 192.266,-386.5 192.266,-386.5 192.266,-392.5 186.266,-398.5 180.266,-398.5"/>
<text text-anchor="start" x="118.266" y="-377.7" font-family="Times,serif" font-size="16.00">operon</text>
<polygon fill="white" stroke="none" points="100.266,-351 100.266,-369 182.266,-369 182.266,-351 100.266,-351"/>
<text text-anchor="start" x="135.266" y="-356.8" font-family="Times,serif" font-style="italic" font-size="14.00">...</text>
<polygon fill="white" stroke="none" points="100.266,-331 100.266,-349 182.266,-349 182.266,-331 100.266,-331"/>
<text text-anchor="start" x="102.766" y="-336.8" font-family="Times,serif" font-size="14.00">seq_region_id</text>
<polygon fill="white" stroke="none" points="100.266,-311 100.266,-329 182.266,-329 182.266,-311 100.266,-311"/>
<text text-anchor="start" x="135.266" y="-316.8" font-family="Times,serif" font-style="italic" font-size="14.00">...</text>
<polygon fill="black" stroke="black" points="98.2663,-370 98.2663,-370 184.266,-370 184.266,-370 98.2663,-370"/>
</g>
<!-- operon&#45;&gt;seq_region -->
<g id="edge17" class="edge"><title>operon:portseq_region_id:e&#45;&gt;seq_region:portseq_region_id:w</title>
<path fill="none" stroke="black" stroke-dasharray="5,2" d="M183.266,-340C237.882,-340 236.593,-388.991 253.266,-441 269.811,-492.61 236.629,-2321.4 284.225,-2460.62"/>
<polygon fill="black" stroke="black" points="281.578,-2462.94 290.266,-2469 287.255,-2458.84 281.578,-2462.94"/>
</g>
<!-- operon_transcript -->
<g id="node24" class="node"><title>operon_transcript</title>
<path fill="#ff8500" stroke="black" d="M198.766,-287.5C198.766,-287.5 83.7663,-287.5 83.7663,-287.5 77.7663,-287.5 71.7663,-281.5 71.7663,-275.5 71.7663,-275.5 71.7663,-206.5 71.7663,-206.5 71.7663,-200.5 77.7663,-194.5 83.7663,-194.5 83.7663,-194.5 198.766,-194.5 198.766,-194.5 204.766,-194.5 210.766,-200.5 210.766,-206.5 210.766,-206.5 210.766,-275.5 210.766,-275.5 210.766,-281.5 204.766,-287.5 198.766,-287.5"/>
<text text-anchor="start" x="84.7663" y="-266.7" font-family="Times,serif" font-size="16.00">operon_transcript</text>
<polygon fill="white" stroke="none" points="82.2663,-240 82.2663,-258 201.266,-258 201.266,-240 82.2663,-240"/>
<text text-anchor="start" x="135.766" y="-245.8" font-family="Times,serif" font-style="italic" font-size="14.00">...</text>
<polygon fill="white" stroke="none" points="82.2663,-220 82.2663,-238 201.266,-238 201.266,-220 82.2663,-220"/>
<text text-anchor="start" x="103.266" y="-225.8" font-family="Times,serif" font-size="14.00">seq_region_id</text>
<polygon fill="white" stroke="none" points="82.2663,-200 82.2663,-218 201.266,-218 201.266,-200 82.2663,-200"/>
<text text-anchor="start" x="135.766" y="-205.8" font-family="Times,serif" font-style="italic" font-size="14.00">...</text>
<polygon fill="black" stroke="black" points="80.2663,-259 80.2663,-259 203.266,-259 203.266,-259 80.2663,-259"/>
</g>
<!-- operon_transcript&#45;&gt;seq_region -->
<g id="edge18" class="edge"><title>operon_transcript:portseq_region_id:e&#45;&gt;seq_region:portseq_region_id:w</title>
<path fill="none" stroke="black" stroke-dasharray="5,2" d="M202.266,-229C239.689,-229 241.068,-260.621 253.266,-296 291.098,-405.727 274.298,-2269.14 281.266,-2385 283.274,-2418.38 259.062,-2458.93 280.266,-2467.4"/>
<polygon fill="black" stroke="black" points="279.839,-2470.88 290.266,-2469 280.943,-2463.97 279.839,-2470.88"/>
</g>
<!-- prediction_exon -->
<g id="node25" class="node"><title>prediction_exon</title>
<path fill="#3cb371" stroke="black" d="M194.766,-1101.5C194.766,-1101.5 87.7663,-1101.5 87.7663,-1101.5 81.7663,-1101.5 75.7663,-1095.5 75.7663,-1089.5 75.7663,-1089.5 75.7663,-1020.5 75.7663,-1020.5 75.7663,-1014.5 81.7663,-1008.5 87.7663,-1008.5 87.7663,-1008.5 194.766,-1008.5 194.766,-1008.5 200.766,-1008.5 206.766,-1014.5 206.766,-1020.5 206.766,-1020.5 206.766,-1089.5 206.766,-1089.5 206.766,-1095.5 200.766,-1101.5 194.766,-1101.5"/>
<text text-anchor="start" x="88.7663" y="-1080.7" font-family="Times,serif" font-size="16.00">prediction_exon</text>
<polygon fill="white" stroke="none" points="86.2663,-1054 86.2663,-1072 197.266,-1072 197.266,-1054 86.2663,-1054"/>
<text text-anchor="start" x="135.766" y="-1059.8" font-family="Times,serif" font-style="italic" font-size="14.00">...</text>
<polygon fill="white" stroke="none" points="86.2663,-1034 86.2663,-1052 197.266,-1052 197.266,-1034 86.2663,-1034"/>
<text text-anchor="start" x="103.266" y="-1039.8" font-family="Times,serif" font-size="14.00">seq_region_id</text>
<polygon fill="white" stroke="none" points="86.2663,-1014 86.2663,-1032 197.266,-1032 197.266,-1014 86.2663,-1014"/>
<text text-anchor="start" x="135.766" y="-1019.8" font-family="Times,serif" font-style="italic" font-size="14.00">...</text>
<polygon fill="black" stroke="black" points="84.2663,-1073 84.2663,-1073 199.266,-1073 199.266,-1073 84.2663,-1073"/>
</g>
<!-- prediction_exon&#45;&gt;seq_region -->
<g id="edge19" class="edge"><title>prediction_exon:portseq_region_id:e&#45;&gt;seq_region:portseq_region_id:w</title>
<path fill="none" stroke="black" stroke-dasharray="5,2" d="M198.266,-1043C236.792,-1043 239.887,-1073.87 253.266,-1110 277.87,-1176.44 276.71,-2314.3 281.266,-2385 283.417,-2418.37 259.093,-2458.93 280.272,-2467.4"/>
<polygon fill="black" stroke="black" points="279.839,-2470.88 290.266,-2469 280.944,-2463.97 279.839,-2470.88"/>
</g>
<!-- prediction_transcript -->
<g id="node26" class="node"><title>prediction_transcript</title>
<path fill="#3cb371" stroke="black" d="M208.766,-990.5C208.766,-990.5 73.7663,-990.5 73.7663,-990.5 67.7663,-990.5 61.7663,-984.5 61.7663,-978.5 61.7663,-978.5 61.7663,-909.5 61.7663,-909.5 61.7663,-903.5 67.7663,-897.5 73.7663,-897.5 73.7663,-897.5 208.766,-897.5 208.766,-897.5 214.766,-897.5 220.766,-903.5 220.766,-909.5 220.766,-909.5 220.766,-978.5 220.766,-978.5 220.766,-984.5 214.766,-990.5 208.766,-990.5"/>
<text text-anchor="start" x="74.7663" y="-969.7" font-family="Times,serif" font-size="16.00">prediction_transcript</text>
<polygon fill="white" stroke="none" points="72.2663,-943 72.2663,-961 211.266,-961 211.266,-943 72.2663,-943"/>
<text text-anchor="start" x="135.766" y="-948.8" font-family="Times,serif" font-style="italic" font-size="14.00">...</text>
<polygon fill="white" stroke="none" points="72.2663,-923 72.2663,-941 211.266,-941 211.266,-923 72.2663,-923"/>
<text text-anchor="start" x="103.266" y="-928.8" font-family="Times,serif" font-size="14.00">seq_region_id</text>
<polygon fill="white" stroke="none" points="72.2663,-903 72.2663,-921 211.266,-921 211.266,-903 72.2663,-903"/>
<text text-anchor="start" x="135.766" y="-908.8" font-family="Times,serif" font-style="italic" font-size="14.00">...</text>
<polygon fill="black" stroke="black" points="70.2663,-962 70.2663,-962 213.266,-962 213.266,-962 70.2663,-962"/>
</g>
<!-- prediction_transcript&#45;&gt;seq_region -->
<g id="edge20" class="edge"><title>prediction_transcript:portseq_region_id:e&#45;&gt;seq_region:portseq_region_id:w</title>
<path fill="none" stroke="black" stroke-dasharray="5,2" d="M212.266,-932C247.177,-932 243.462,-965.494 253.266,-999 296.525,-1146.83 271.497,-2231.28 281.266,-2385 283.387,-2418.37 259.086,-2458.93 280.27,-2467.4"/>
<polygon fill="black" stroke="black" points="279.839,-2470.88 290.266,-2469 280.944,-2463.97 279.839,-2470.88"/>
</g>
<!-- protein_align_feature -->
<g id="node27" class="node"><title>protein_align_feature</title>
<path fill="#808000" stroke="black" d="M211.266,-1693.5C211.266,-1693.5 71.2663,-1693.5 71.2663,-1693.5 65.2663,-1693.5 59.2663,-1687.5 59.2663,-1681.5 59.2663,-1681.5 59.2663,-1612.5 59.2663,-1612.5 59.2663,-1606.5 65.2663,-1600.5 71.2663,-1600.5 71.2663,-1600.5 211.266,-1600.5 211.266,-1600.5 217.266,-1600.5 223.266,-1606.5 223.266,-1612.5 223.266,-1612.5 223.266,-1681.5 223.266,-1681.5 223.266,-1687.5 217.266,-1693.5 211.266,-1693.5"/>
<text text-anchor="start" x="71.7663" y="-1672.7" font-family="Times,serif" font-size="16.00">protein_align_feature</text>
<polygon fill="white" stroke="none" points="69.2663,-1646 69.2663,-1664 213.266,-1664 213.266,-1646 69.2663,-1646"/>
<text text-anchor="start" x="135.266" y="-1651.8" font-family="Times,serif" font-style="italic" font-size="14.00">...</text>
<polygon fill="white" stroke="none" points="69.2663,-1626 69.2663,-1644 213.266,-1644 213.266,-1626 69.2663,-1626"/>
<text text-anchor="start" x="102.766" y="-1631.8" font-family="Times,serif" font-size="14.00">seq_region_id</text>
<polygon fill="white" stroke="none" points="69.2663,-1606 69.2663,-1624 213.266,-1624 213.266,-1606 69.2663,-1606"/>
<text text-anchor="start" x="135.266" y="-1611.8" font-family="Times,serif" font-style="italic" font-size="14.00">...</text>
<polygon fill="black" stroke="black" points="67.2663,-1665 67.2663,-1665 215.266,-1665 215.266,-1665 67.2663,-1665"/>
</g>
<!-- protein_align_feature&#45;&gt;seq_region -->
<g id="edge21" class="edge"><title>protein_align_feature:portseq_region_id:e&#45;&gt;seq_region:portseq_region_id:w</title>
<path fill="none" stroke="black" stroke-dasharray="5,2" d="M214.266,-1635C248.721,-1635 243.61,-1668.93 253.266,-1702 295.838,-1847.82 270.058,-2233.51 281.266,-2385 283.734,-2418.35 259.162,-2458.93 280.283,-2467.4"/>
<polygon fill="black" stroke="black" points="279.839,-2470.88 290.266,-2469 280.945,-2463.96 279.839,-2470.88"/>
</g>
<!-- repeat_feature -->
<g id="node28" class="node"><title>repeat_feature</title>
<path fill="#3cb371" stroke="black" d="M187.266,-879.5C187.266,-879.5 95.2663,-879.5 95.2663,-879.5 89.2663,-879.5 83.2663,-873.5 83.2663,-867.5 83.2663,-867.5 83.2663,-798.5 83.2663,-798.5 83.2663,-792.5 89.2663,-786.5 95.2663,-786.5 95.2663,-786.5 187.266,-786.5 187.266,-786.5 193.266,-786.5 199.266,-792.5 199.266,-798.5 199.266,-798.5 199.266,-867.5 199.266,-867.5 199.266,-873.5 193.266,-879.5 187.266,-879.5"/>
<text text-anchor="start" x="95.7663" y="-858.7" font-family="Times,serif" font-size="16.00">repeat_feature</text>
<polygon fill="white" stroke="none" points="93.2663,-832 93.2663,-850 189.266,-850 189.266,-832 93.2663,-832"/>
<text text-anchor="start" x="135.266" y="-837.8" font-family="Times,serif" font-style="italic" font-size="14.00">...</text>
<polygon fill="white" stroke="none" points="93.2663,-812 93.2663,-830 189.266,-830 189.266,-812 93.2663,-812"/>
<text text-anchor="start" x="102.766" y="-817.8" font-family="Times,serif" font-size="14.00">seq_region_id</text>
<polygon fill="white" stroke="none" points="93.2663,-792 93.2663,-810 189.266,-810 189.266,-792 93.2663,-792"/>
<text text-anchor="start" x="135.266" y="-797.8" font-family="Times,serif" font-style="italic" font-size="14.00">...</text>
<polygon fill="black" stroke="black" points="91.2663,-851 91.2663,-851 191.266,-851 191.266,-851 91.2663,-851"/>
</g>
<!-- repeat_feature&#45;&gt;seq_region -->
<g id="edge22" class="edge"><title>repeat_feature:portseq_region_id:e&#45;&gt;seq_region:portseq_region_id:w</title>
<path fill="none" stroke="black" stroke-dasharray="5,2" d="M190.266,-821C231.141,-821 237.852,-850.143 253.266,-888 284.634,-965.04 276.053,-2301.98 281.266,-2385 283.362,-2418.37 259.081,-2458.93 280.27,-2467.4"/>
<polygon fill="black" stroke="black" points="279.839,-2470.88 290.266,-2469 280.944,-2463.97 279.839,-2470.88"/>
</g>
<!-- seq_region_mapping -->
<g id="node29" class="node"><title>seq_region_mapping</title>
<path fill="#ff6666" stroke="black" d="M209.766,-139.5C209.766,-139.5 72.7663,-139.5 72.7663,-139.5 66.7663,-139.5 60.7663,-133.5 60.7663,-127.5 60.7663,-127.5 60.7663,-58.5 60.7663,-58.5 60.7663,-52.5 66.7663,-46.5 72.7663,-46.5 72.7663,-46.5 209.766,-46.5 209.766,-46.5 215.766,-46.5 221.766,-52.5 221.766,-58.5 221.766,-58.5 221.766,-127.5 221.766,-127.5 221.766,-133.5 215.766,-139.5 209.766,-139.5"/>
<text text-anchor="start" x="73.7663" y="-118.7" font-family="Times,serif" font-size="16.00">seq_region_mapping</text>
<polygon fill="white" stroke="none" points="71.2663,-92 71.2663,-110 212.266,-110 212.266,-92 71.2663,-92"/>
<text text-anchor="start" x="135.766" y="-97.8" font-family="Times,serif" font-style="italic" font-size="14.00">...</text>
<polygon fill="white" stroke="none" points="71.2663,-72 71.2663,-90 212.266,-90 212.266,-72 71.2663,-72"/>
<text text-anchor="start" x="79.2663" y="-77.8" font-family="Times,serif" font-size="14.00">internal_seq_region_id</text>
<polygon fill="white" stroke="none" points="71.2663,-52 71.2663,-70 212.266,-70 212.266,-52 71.2663,-52"/>
<text text-anchor="start" x="135.766" y="-57.8" font-family="Times,serif" font-style="italic" font-size="14.00">...</text>
<polygon fill="black" stroke="black" points="69.2663,-111 69.2663,-111 214.266,-111 214.266,-111 69.2663,-111"/>
</g>
<!-- seq_region_mapping&#45;&gt;seq_region -->
<g id="edge26" class="edge"><title>seq_region_mapping:portinternal_seq_region_id:e&#45;&gt;seq_region:portseq_region_id:w</title>
<path fill="none" stroke="black" stroke-dasharray="5,2" d="M213.266,-81C261.547,-81 243.916,-134.633 253.266,-182 259.184,-211.98 258.558,-2300.4 286.777,-2459.43"/>
<polygon fill="black" stroke="black" points="283.552,-2460.8 290.266,-2469 290.128,-2458.41 283.552,-2460.8"/>
</g>
<!-- simple_feature -->
<g id="node30" class="node"><title>simple_feature</title>
<path fill="#3cb371" stroke="black" d="M189.266,-768.5C189.266,-768.5 93.2663,-768.5 93.2663,-768.5 87.2663,-768.5 81.2663,-762.5 81.2663,-756.5 81.2663,-756.5 81.2663,-687.5 81.2663,-687.5 81.2663,-681.5 87.2663,-675.5 93.2663,-675.5 93.2663,-675.5 189.266,-675.5 189.266,-675.5 195.266,-675.5 201.266,-681.5 201.266,-687.5 201.266,-687.5 201.266,-756.5 201.266,-756.5 201.266,-762.5 195.266,-768.5 189.266,-768.5"/>
<text text-anchor="start" x="93.7663" y="-747.7" font-family="Times,serif" font-size="16.00">simple_feature</text>
<polygon fill="white" stroke="none" points="91.2663,-721 91.2663,-739 191.266,-739 191.266,-721 91.2663,-721"/>
<text text-anchor="start" x="135.266" y="-726.8" font-family="Times,serif" font-style="italic" font-size="14.00">...</text>
<polygon fill="white" stroke="none" points="91.2663,-701 91.2663,-719 191.266,-719 191.266,-701 91.2663,-701"/>
<text text-anchor="start" x="102.766" y="-706.8" font-family="Times,serif" font-size="14.00">seq_region_id</text>
<polygon fill="white" stroke="none" points="91.2663,-681 91.2663,-699 191.266,-699 191.266,-681 91.2663,-681"/>
<text text-anchor="start" x="135.266" y="-686.8" font-family="Times,serif" font-style="italic" font-size="14.00">...</text>
<polygon fill="black" stroke="black" points="89.2663,-740 89.2663,-740 193.266,-740 193.266,-740 89.2663,-740"/>
</g>
<!-- simple_feature&#45;&gt;seq_region -->
<g id="edge28" class="edge"><title>simple_feature:portseq_region_id:e&#45;&gt;seq_region:portseq_region_id:w</title>
<path fill="none" stroke="black" stroke-dasharray="5,2" d="M192.266,-710C232.537,-710 238.404,-739.572 253.266,-777 286.24,-860.04 275.724,-2295.83 281.266,-2385 283.341,-2418.38 259.076,-2458.93 280.269,-2467.4"/>
<polygon fill="black" stroke="black" points="279.839,-2470.88 290.266,-2469 280.944,-2463.97 279.839,-2470.88"/>
</g>
<!-- transcript -->
<g id="node31" class="node"><title>transcript</title>
<path fill="#808000" stroke="black" d="M180.266,-1582.5C180.266,-1582.5 102.266,-1582.5 102.266,-1582.5 96.2663,-1582.5 90.2663,-1576.5 90.2663,-1570.5 90.2663,-1570.5 90.2663,-1501.5 90.2663,-1501.5 90.2663,-1495.5 96.2663,-1489.5 102.266,-1489.5 102.266,-1489.5 180.266,-1489.5 180.266,-1489.5 186.266,-1489.5 192.266,-1495.5 192.266,-1501.5 192.266,-1501.5 192.266,-1570.5 192.266,-1570.5 192.266,-1576.5 186.266,-1582.5 180.266,-1582.5"/>
<text text-anchor="start" x="110.766" y="-1561.7" font-family="Times,serif" font-size="16.00">transcript</text>
<polygon fill="white" stroke="none" points="100.266,-1535 100.266,-1553 182.266,-1553 182.266,-1535 100.266,-1535"/>
<text text-anchor="start" x="135.266" y="-1540.8" font-family="Times,serif" font-style="italic" font-size="14.00">...</text>
<polygon fill="white" stroke="none" points="100.266,-1515 100.266,-1533 182.266,-1533 182.266,-1515 100.266,-1515"/>
<text text-anchor="start" x="102.766" y="-1520.8" font-family="Times,serif" font-size="14.00">seq_region_id</text>
<polygon fill="white" stroke="none" points="100.266,-1495 100.266,-1513 182.266,-1513 182.266,-1495 100.266,-1495"/>
<text text-anchor="start" x="135.266" y="-1500.8" font-family="Times,serif" font-style="italic" font-size="14.00">...</text>
<polygon fill="black" stroke="black" points="98.2663,-1554 98.2663,-1554 184.266,-1554 184.266,-1554 98.2663,-1554"/>
</g>
<!-- transcript&#45;&gt;seq_region -->
<g id="edge29" class="edge"><title>transcript:portseq_region_id:e&#45;&gt;seq_region:portseq_region_id:w</title>
<path fill="none" stroke="black" stroke-dasharray="5,2" d="M183.266,-1524C348.029,-1524 223.213,-1568.64 281.266,-2385 283.638,-2418.36 259.141,-2458.93 280.279,-2467.4"/>
<polygon fill="black" stroke="black" points="279.839,-2470.88 290.266,-2469 280.945,-2463.96 279.839,-2470.88"/>
</g>
</g>
</svg>
