<?xml version="1.0" encoding="UTF-8" standalone="no"?>
<!DOCTYPE svg PUBLIC "-//W3C//DTD SVG 1.1//EN"
 "http://www.w3.org/Graphics/SVG/1.1/DTD/svg11.dtd">
<!-- Generated by graphviz version 2.47.0 (20210316.0004)
 -->
<!-- Title: test Pages: 1 -->
<svg width="399pt" height="746pt"
 viewBox="0.00 0.00 399.00 746.00" xmlns="http://www.w3.org/2000/svg" xmlns:xlink="http://www.w3.org/1999/xlink">
<g id="graph0" class="graph" transform="scale(1 1) rotate(0) translate(4 742)">
<title>test</title>
<polygon fill="white" stroke="transparent" points="-4,4 -4,-742 395,-742 395,4 -4,4"/>
<text text-anchor="middle" x="195.5" y="-10" font-family="Times,serif" font-size="20.00">Core schema diagram: ID Mapping tables</text>
<g id="clust1" class="cluster">
<title>cluster_assembly_tables</title>
<polygon fill="white" stroke="white" points="218,-38 218,-160 370,-160 370,-38 218,-38"/>
<text text-anchor="middle" x="294" y="-140" font-family="Times,serif" font-size="20.00">Assembly Tables</text>
</g>
<g id="clust2" class="cluster">
<title>cluster_id_mapping</title>
<path fill="#ffe0e0" stroke="#ffe0e0" d="M20,-168C20,-168 371,-168 371,-168 377,-168 383,-174 383,-180 383,-180 383,-718 383,-718 383,-724 377,-730 371,-730 371,-730 20,-730 20,-730 14,-730 8,-724 8,-718 8,-718 8,-180 8,-180 8,-174 14,-168 20,-168"/>
<text text-anchor="middle" x="195.5" y="-710" font-family="Times,serif" font-size="20.00">ID Mapping</text>
</g>
<!-- gene_archive -->
<g id="node1" class="node">
<title>gene_archive</title>
<path fill="#ff6666" stroke="black" d="M152.5,-692C152.5,-692 39.5,-692 39.5,-692 33.5,-692 27.5,-686 27.5,-680 27.5,-680 27.5,-502 27.5,-502 27.5,-496 33.5,-490 39.5,-490 39.5,-490 152.5,-490 152.5,-490 158.5,-490 164.5,-496 164.5,-502 164.5,-502 164.5,-680 164.5,-680 164.5,-686 158.5,-692 152.5,-692"/>
<text text-anchor="start" x="55" y="-671.2" font-family="Times,serif" font-size="16.00">gene_archive</text>
<polygon fill="white" stroke="transparent" points="38,-643 38,-662 155,-662 155,-643 38,-643"/>
<text text-anchor="start" x="55.5" y="-648.8" font-family="Times,serif" font-size="14.00">gene_stable_id</text>
<polygon fill="white" stroke="transparent" points="38,-622 38,-641 155,-641 155,-622 38,-622"/>
<text text-anchor="start" x="60" y="-627.8" font-family="Times,serif" font-size="14.00">gene_version</text>
<polygon fill="white" stroke="transparent" points="38,-601 38,-620 155,-620 155,-601 38,-601"/>
<text text-anchor="start" x="42.5" y="-606.8" font-family="Times,serif" font-size="14.00">transcript_stable_id</text>
<polygon fill="white" stroke="transparent" points="38,-580 38,-599 155,-599 155,-580 38,-580"/>
<text text-anchor="start" x="47" y="-585.8" font-family="Times,serif" font-size="14.00">transcript_version</text>
<polygon fill="white" stroke="transparent" points="38,-559 38,-578 155,-578 155,-559 38,-559"/>
<text text-anchor="start" x="40" y="-564.8" font-family="Times,serif" font-size="14.00">translation_stable_id</text>
<polygon fill="white" stroke="transparent" points="38,-538 38,-557 155,-557 155,-538 38,-538"/>
<text text-anchor="start" x="44.5" y="-543.8" font-family="Times,serif" font-size="14.00">translation_version</text>
<polygon fill="white" stroke="transparent" points="38,-517 38,-536 155,-536 155,-517 38,-517"/>
<text text-anchor="start" x="44.5" y="-522.8" font-family="Times,serif" font-size="14.00">peptide_archive_id</text>
<polygon fill="white" stroke="transparent" points="38,-496 38,-515 155,-515 155,-496 38,-496"/>
<text text-anchor="start" x="40.5" y="-501.8" font-family="Times,serif" font-size="14.00">mapping_session_id</text>
<polygon fill="black" stroke="black" points="36,-663 36,-663 157,-663 157,-663 36,-663"/>
</g>
<!-- mapping_session -->
<g id="node2" class="node">
<title>mapping_session</title>
<path fill="#ff6666" stroke="black" d="M363,-493C363,-493 224,-493 224,-493 218,-493 212,-487 212,-481 212,-481 212,-303 212,-303 212,-297 218,-291 224,-291 224,-291 363,-291 363,-291 369,-291 375,-297 375,-303 375,-303 375,-481 375,-481 375,-487 369,-493 363,-493"/>
<text text-anchor="start" x="238.5" y="-472.2" font-family="Times,serif" font-size="16.00">mapping_session</text>
<polygon fill="white" stroke="transparent" points="222.5,-444 222.5,-463 365.5,-463 365.5,-444 222.5,-444"/>
<text text-anchor="start" x="224.5" y="-450.8" font-family="Times,serif" font-weight="bold" font-size="14.00">PK</text>
<text text-anchor="start" x="244.5" y="-450.8" font-family="Times,serif" font-size="14.00">  mapping_session_id</text>
<polygon fill="white" stroke="transparent" points="222.5,-423 222.5,-442 365.5,-442 365.5,-423 222.5,-423"/>
<text text-anchor="start" x="256.5" y="-428.8" font-family="Times,serif" font-size="14.00">old_db_name</text>
<polygon fill="white" stroke="transparent" points="222.5,-402 222.5,-421 365.5,-421 365.5,-402 222.5,-402"/>
<text text-anchor="start" x="254" y="-407.8" font-family="Times,serif" font-size="14.00">new_db_name</text>
<polygon fill="white" stroke="transparent" points="222.5,-381 222.5,-400 365.5,-400 365.5,-381 222.5,-381"/>
<text text-anchor="start" x="263" y="-386.8" font-family="Times,serif" font-size="14.00">old_release</text>
<polygon fill="white" stroke="transparent" points="222.5,-360 222.5,-379 365.5,-379 365.5,-360 222.5,-360"/>
<text text-anchor="start" x="260.5" y="-365.8" font-family="Times,serif" font-size="14.00">new_release</text>
<polygon fill="white" stroke="transparent" points="222.5,-339 222.5,-358 365.5,-358 365.5,-339 222.5,-339"/>
<text text-anchor="start" x="256" y="-344.8" font-family="Times,serif" font-size="14.00">old_assembly</text>
<polygon fill="white" stroke="transparent" points="222.5,-318 222.5,-337 365.5,-337 365.5,-318 222.5,-318"/>
<text text-anchor="start" x="253.5" y="-323.8" font-family="Times,serif" font-size="14.00">new_assembly</text>
<polygon fill="white" stroke="transparent" points="222.5,-297 222.5,-316 365.5,-316 365.5,-297 222.5,-297"/>
<text text-anchor="start" x="274" y="-302.8" font-family="Times,serif" font-size="14.00">created</text>
<polygon fill="black" stroke="black" points="220.5,-464 220.5,-464 367.5,-464 367.5,-464 220.5,-464"/>
</g>
<!-- gene_archive&#45;&gt;mapping_session -->
<g id="edge1" class="edge">
<title>gene_archive:e&#45;&gt;mapping_session:w</title>
<path fill="none" stroke="black" stroke-dasharray="5,2" d="M156,-505C189.15,-505 185.82,-463.83 211.56,-455.47"/>
<polygon fill="black" stroke="black" points="212.12,-458.93 221.5,-454 211.1,-452 212.12,-458.93"/>
</g>
<!-- peptide_archive -->
<g id="node4" class="node">
<title>peptide_archive</title>
<path fill="#ff6666" stroke="black" d="M359.5,-608.5C359.5,-608.5 227.5,-608.5 227.5,-608.5 221.5,-608.5 215.5,-602.5 215.5,-596.5 215.5,-596.5 215.5,-523.5 215.5,-523.5 215.5,-517.5 221.5,-511.5 227.5,-511.5 227.5,-511.5 359.5,-511.5 359.5,-511.5 365.5,-511.5 371.5,-517.5 371.5,-523.5 371.5,-523.5 371.5,-596.5 371.5,-596.5 371.5,-602.5 365.5,-608.5 359.5,-608.5"/>
<text text-anchor="start" x="243" y="-587.2" font-family="Times,serif" font-size="16.00">peptide_archive</text>
<polygon fill="white" stroke="transparent" points="225.5,-559 225.5,-578 361.5,-578 361.5,-559 225.5,-559"/>
<text text-anchor="start" x="227.5" y="-565.8" font-family="Times,serif" font-weight="bold" font-size="14.00">PK</text>
<text text-anchor="start" x="247.5" y="-565.8" font-family="Times,serif" font-size="14.00">  peptide_archive_id</text>
<polygon fill="white" stroke="transparent" points="225.5,-538 225.5,-557 361.5,-557 361.5,-538 225.5,-538"/>
<text text-anchor="start" x="250" y="-543.8" font-family="Times,serif" font-size="14.00">md5_checksum</text>
<polygon fill="white" stroke="transparent" points="225.5,-517 225.5,-536 361.5,-536 361.5,-517 225.5,-517"/>
<text text-anchor="start" x="261" y="-522.8" font-family="Times,serif" font-size="14.00">peptide_seq</text>
<polygon fill="black" stroke="black" points="223.5,-579 223.5,-579 363.5,-579 363.5,-579 223.5,-579"/>
</g>
<!-- gene_archive&#45;&gt;peptide_archive -->
<g id="edge2" class="edge">
<title>gene_archive:e&#45;&gt;peptide_archive:w</title>
<path fill="none" stroke="black" stroke-dasharray="5,2" d="M156,-526C188.15,-526 188.83,-560.41 214.35,-567.67"/>
<polygon fill="black" stroke="black" points="214.13,-571.17 224.5,-569 215.04,-564.23 214.13,-571.17"/>
</g>
<!-- mapping_set -->
<g id="node3" class="node">
<title>mapping_set</title>
<path fill="#ff6666" stroke="black" d="M357,-272.5C357,-272.5 230,-272.5 230,-272.5 224,-272.5 218,-266.5 218,-260.5 218,-260.5 218,-187.5 218,-187.5 218,-181.5 224,-175.5 230,-175.5 230,-175.5 357,-175.5 357,-175.5 363,-175.5 369,-181.5 369,-187.5 369,-187.5 369,-260.5 369,-260.5 369,-266.5 363,-272.5 357,-272.5"/>
<text text-anchor="start" x="253" y="-251.2" font-family="Times,serif" font-size="16.00">mapping_set</text>
<polygon fill="white" stroke="transparent" points="228.5,-223 228.5,-242 359.5,-242 359.5,-223 228.5,-223"/>
<text text-anchor="start" x="236.5" y="-229.8" font-family="Times,serif" font-weight="bold" font-size="14.00">PK</text>
<text text-anchor="start" x="256.5" y="-229.8" font-family="Times,serif" font-size="14.00">  mapping_set_id</text>
<polygon fill="white" stroke="transparent" points="228.5,-202 228.5,-221 359.5,-221 359.5,-202 228.5,-202"/>
<text text-anchor="start" x="231.5" y="-207.8" font-family="Times,serif" font-size="14.00">internal_schema_build</text>
<polygon fill="white" stroke="transparent" points="228.5,-181 228.5,-200 359.5,-200 359.5,-181 228.5,-181"/>
<text text-anchor="start" x="230.5" y="-186.8" font-family="Times,serif" font-size="14.00">external_schema_build</text>
<polygon fill="black" stroke="black" points="226.5,-243 226.5,-243 361.5,-243 361.5,-243 226.5,-243"/>
</g>
<!-- seq_region_mapping -->
<g id="node5" class="node">
<title>seq_region_mapping</title>
<path fill="#ff6666" stroke="black" d="M164,-272.5C164,-272.5 28,-272.5 28,-272.5 22,-272.5 16,-266.5 16,-260.5 16,-260.5 16,-187.5 16,-187.5 16,-181.5 22,-175.5 28,-175.5 28,-175.5 164,-175.5 164,-175.5 170,-175.5 176,-181.5 176,-187.5 176,-187.5 176,-260.5 176,-260.5 176,-266.5 170,-272.5 164,-272.5"/>
<text text-anchor="start" x="28" y="-251.2" font-family="Times,serif" font-size="16.00">seq_region_mapping</text>
<polygon fill="white" stroke="transparent" points="26,-223 26,-242 166,-242 166,-223 26,-223"/>
<text text-anchor="start" x="32" y="-228.8" font-family="Times,serif" font-size="14.00">external_seq_region_id</text>
<polygon fill="white" stroke="transparent" points="26,-202 26,-221 166,-221 166,-202 26,-202"/>
<text text-anchor="start" x="33" y="-207.8" font-family="Times,serif" font-size="14.00">internal_seq_region_id</text>
<polygon fill="white" stroke="transparent" points="26,-181 26,-200 166,-200 166,-181 26,-181"/>
<text text-anchor="start" x="52" y="-186.8" font-family="Times,serif" font-size="14.00">mapping_set_id</text>
<polygon fill="black" stroke="black" points="24,-243 24,-243 168,-243 168,-243 24,-243"/>
</g>
<!-- seq_region_mapping&#45;&gt;mapping_set -->
<g id="edge3" class="edge">
<title>seq_region_mapping:e&#45;&gt;mapping_set:w</title>
<path fill="none" stroke="black" stroke-dasharray="5,2" d="M167,-190C196.12,-190 195.27,-223.51 217.36,-231.37"/>
<polygon fill="black" stroke="black" points="217.07,-234.86 227.5,-233 218.18,-227.95 217.07,-234.86"/>
</g>
<!-- seq_region -->
<g id="node7" class="node">
<title>seq_region</title>
<path fill="#c70c09" stroke="black" d="M346,-122C346,-122 241,-122 241,-122 235,-122 229,-116 229,-110 229,-110 229,-58 229,-58 229,-52 235,-46 241,-46 241,-46 346,-46 346,-46 352,-46 358,-52 358,-58 358,-58 358,-110 358,-110 358,-116 352,-122 346,-122"/>
<text text-anchor="start" x="258.5" y="-101.2" font-family="Times,serif" font-size="16.00">seq_region</text>
<polygon fill="white" stroke="transparent" points="239.5,-73 239.5,-92 348.5,-92 348.5,-73 239.5,-73"/>
<text text-anchor="start" x="241.5" y="-79.8" font-family="Times,serif" font-weight="bold" font-size="14.00">PK</text>
<text text-anchor="start" x="261.5" y="-79.8" font-family="Times,serif" font-size="14.00">  seq_region_id</text>
<polygon fill="white" stroke="transparent" points="239.5,-52 239.5,-71 348.5,-71 348.5,-52 239.5,-52"/>
<text text-anchor="start" x="288" y="-58.8" font-family="Times,serif" font-style="italic" font-size="14.00">...</text>
<polygon fill="black" stroke="black" points="237.5,-93 237.5,-93 350.5,-93 350.5,-93 237.5,-93"/>
</g>
<!-- seq_region_mapping&#45;&gt;seq_region -->
<g id="edge4" class="edge">
<title>seq_region_mapping:e&#45;&gt;seq_region:w</title>
<path fill="none" stroke="black" stroke-dasharray="5,2" d="M167,-211C228.84,-211 179.3,-96.2 228.52,-83.19"/>
<polygon fill="black" stroke="black" points="228.99,-86.66 238.5,-82 228.15,-79.71 228.99,-86.66"/>
</g>
<!-- stable_id_event -->
<g id="node6" class="node">
<title>stable_id_event</title>
<path fill="#ff6666" stroke="black" d="M152,-471.5C152,-471.5 40,-471.5 40,-471.5 34,-471.5 28,-465.5 28,-459.5 28,-459.5 28,-302.5 28,-302.5 28,-296.5 34,-290.5 40,-290.5 40,-290.5 152,-290.5 152,-290.5 158,-290.5 164,-296.5 164,-302.5 164,-302.5 164,-459.5 164,-459.5 164,-465.5 158,-471.5 152,-471.5"/>
<text text-anchor="start" x="46" y="-450.2" font-family="Times,serif" font-size="16.00">stable_id_event</text>
<polygon fill="white" stroke="transparent" points="38,-422 38,-441 154,-441 154,-422 38,-422"/>
<text text-anchor="start" x="59.5" y="-427.8" font-family="Times,serif" font-size="14.00">old_stable_id</text>
<polygon fill="white" stroke="transparent" points="38,-401 38,-420 154,-420 154,-401 38,-401"/>
<text text-anchor="start" x="64" y="-406.8" font-family="Times,serif" font-size="14.00">old_version</text>
<polygon fill="white" stroke="transparent" points="38,-380 38,-399 154,-399 154,-380 38,-380"/>
<text text-anchor="start" x="56.5" y="-385.8" font-family="Times,serif" font-size="14.00">new_stable_id</text>
<polygon fill="white" stroke="transparent" points="38,-359 38,-378 154,-378 154,-359 38,-359"/>
<text text-anchor="start" x="61" y="-364.8" font-family="Times,serif" font-size="14.00">new_version</text>
<polygon fill="white" stroke="transparent" points="38,-338 38,-357 154,-357 154,-338 38,-338"/>
<text text-anchor="start" x="40" y="-343.8" font-family="Times,serif" font-size="14.00">mapping_session_id</text>
<polygon fill="white" stroke="transparent" points="38,-317 38,-336 154,-336 154,-317 38,-317"/>
<text text-anchor="start" x="84" y="-322.8" font-family="Times,serif" font-size="14.00">type</text>
<polygon fill="white" stroke="transparent" points="38,-296 38,-315 154,-315 154,-296 38,-296"/>
<text text-anchor="start" x="81.5" y="-301.8" font-family="Times,serif" font-size="14.00">score</text>
<polygon fill="black" stroke="black" points="36,-442 36,-442 156,-442 156,-442 36,-442"/>
</g>
<!-- stable_id_event&#45;&gt;mapping_session -->
<g id="edge5" class="edge">
<title>stable_id_event:e&#45;&gt;mapping_session:w</title>
<path fill="none" stroke="black" stroke-dasharray="5,2" d="M155,-347C207.16,-347 171.25,-439.87 211.38,-452.57"/>
<polygon fill="black" stroke="black" points="211.11,-456.07 221.5,-454 212.09,-449.13 211.11,-456.07"/>
</g>
</g>
</svg>
