<?xml version="1.0" encoding="UTF-8" standalone="no"?>
<!DOCTYPE svg PUBLIC "-//W3C//DTD SVG 1.1//EN"
 "http://www.w3.org/Graphics/SVG/1.1/DTD/svg11.dtd">
<!-- Generated by graphviz version 2.40.1 (20161225.0304)
 -->
<!-- Title: test Pages: 1 -->
<svg width="614pt" height="3513pt"
 viewBox="0.00 0.00 613.64 3513.00" xmlns="http://www.w3.org/2000/svg" xmlns:xlink="http://www.w3.org/1999/xlink">
<g id="graph0" class="graph" transform="scale(1 1) rotate(0) translate(4 3509)">
<title>test</title>
<polygon fill="#ffffff" stroke="transparent" points="-4,4 -4,-3509 609.6436,-3509 609.6436,4 -4,4"/>
<text text-anchor="middle" x="302.8218" y="-10" font-family="Times,serif" font-size="20.00" fill="#000000">Core schema diagram: Assembly Tables tables</text>
<g id="clust1" class="cluster">
<title>cluster_assembly_tables</title>
<path fill="#f3cecd" stroke="#f3cecd" d="M51.6436,-2325C51.6436,-2325 585.6436,-2325 585.6436,-2325 591.6436,-2325 597.6436,-2331 597.6436,-2337 597.6436,-2337 597.6436,-3485 597.6436,-3485 597.6436,-3491 591.6436,-3497 585.6436,-3497 585.6436,-3497 51.6436,-3497 51.6436,-3497 45.6436,-3497 39.6436,-3491 39.6436,-3485 39.6436,-3485 39.6436,-2337 39.6436,-2337 39.6436,-2331 45.6436,-2325 51.6436,-2325"/>
<text text-anchor="middle" x="318.6436" y="-3477" font-family="Times,serif" font-size="20.00" fill="#000000">Assembly Tables</text>
</g>
<g id="clust2" class="cluster">
<title>cluster_features</title>
<polygon fill="#ffffff" stroke="#ffffff" points="29.6436,-455 29.6436,-1518 251.6436,-1518 251.6436,-455 29.6436,-455"/>
<text text-anchor="middle" x="140.6436" y="-1498" font-family="Times,serif" font-size="20.00" fill="#000000">Features</text>
</g>
<g id="clust3" class="cluster">
<title>cluster_fundamental_tables</title>
<polygon fill="#ffffff" stroke="#ffffff" points="51.1436,-1526 51.1436,-2317 230.1436,-2317 230.1436,-1526 51.1436,-1526"/>
<text text-anchor="middle" x="140.6436" y="-2297" font-family="Times,serif" font-size="20.00" fill="#000000">Fundamental Tables</text>
</g>
<g id="clust4" class="cluster">
<title>cluster_id_mapping</title>
<polygon fill="#ffffff" stroke="#ffffff" points="52.6436,-38 52.6436,-181 228.6436,-181 228.6436,-38 52.6436,-38"/>
<text text-anchor="middle" x="140.6436" y="-161" font-family="Times,serif" font-size="20.00" fill="#000000">ID Mapping</text>
</g>
<g id="clust5" class="cluster">
<title>cluster_misc</title>
<polygon fill="#ffffff" stroke="#ffffff" points="63.6436,-189 63.6436,-447 217.6436,-447 217.6436,-189 63.6436,-189"/>
<text text-anchor="middle" x="140.6436" y="-427" font-family="Times,serif" font-size="20.00" fill="#000000">Misc</text>
</g>
<!-- assembly -->
<g id="node1" class="node">
<title>assembly</title>
<path fill="#c70c09" stroke="#000000" d="M194.6436,-3206.5C194.6436,-3206.5 86.6436,-3206.5 86.6436,-3206.5 80.6436,-3206.5 74.6436,-3200.5 74.6436,-3194.5 74.6436,-3194.5 74.6436,-3037.5 74.6436,-3037.5 74.6436,-3031.5 80.6436,-3025.5 86.6436,-3025.5 86.6436,-3025.5 194.6436,-3025.5 194.6436,-3025.5 200.6436,-3025.5 206.6436,-3031.5 206.6436,-3037.5 206.6436,-3037.5 206.6436,-3194.5 206.6436,-3194.5 206.6436,-3200.5 200.6436,-3206.5 194.6436,-3206.5"/>
<text text-anchor="start" x="110.6436" y="-3185.2" font-family="Times,serif" font-size="16.00" fill="#000000">assembly</text>
<polygon fill="#ffffff" stroke="transparent" points="84.6436,-3157 84.6436,-3176 196.6436,-3176 196.6436,-3157 84.6436,-3157"/>
<text text-anchor="start" x="87.6436" y="-3162.8" font-family="Times,serif" font-size="14.00" fill="#000000">asm_seq_region_id</text>
<polygon fill="#ffffff" stroke="transparent" points="84.6436,-3136 84.6436,-3155 196.6436,-3155 196.6436,-3136 84.6436,-3136"/>
<text text-anchor="start" x="86.6436" y="-3141.8" font-family="Times,serif" font-size="14.00" fill="#000000">cmp_seq_region_id</text>
<polygon fill="#ffffff" stroke="transparent" points="84.6436,-3115 84.6436,-3134 196.6436,-3134 196.6436,-3115 84.6436,-3115"/>
<text text-anchor="start" x="114.1436" y="-3120.8" font-family="Times,serif" font-size="14.00" fill="#000000">asm_start</text>
<polygon fill="#ffffff" stroke="transparent" points="84.6436,-3094 84.6436,-3113 196.6436,-3113 196.6436,-3094 84.6436,-3094"/>
<text text-anchor="start" x="116.1436" y="-3099.8" font-family="Times,serif" font-size="14.00" fill="#000000">asm_end</text>
<polygon fill="#ffffff" stroke="transparent" points="84.6436,-3073 84.6436,-3092 196.6436,-3092 196.6436,-3073 84.6436,-3073"/>
<text text-anchor="start" x="113.1436" y="-3078.8" font-family="Times,serif" font-size="14.00" fill="#000000">cmp_start</text>
<polygon fill="#ffffff" stroke="transparent" points="84.6436,-3052 84.6436,-3071 196.6436,-3071 196.6436,-3052 84.6436,-3052"/>
<text text-anchor="start" x="115.1436" y="-3057.8" font-family="Times,serif" font-size="14.00" fill="#000000">cmp_end</text>
<polygon fill="#ffffff" stroke="transparent" points="84.6436,-3031 84.6436,-3050 196.6436,-3050 196.6436,-3031 84.6436,-3031"/>
<text text-anchor="start" x="132.6436" y="-3036.8" font-family="Times,serif" font-size="14.00" fill="#000000">ori</text>
<polygon fill="#000000" stroke="#000000" points="82.6436,-3177 82.6436,-3177 198.6436,-3177 198.6436,-3177 82.6436,-3177"/>
</g>
<!-- seq_region -->
<g id="node10" class="node">
<title>seq_region</title>
<path fill="#c70c09" stroke="#000000" d="M396.6436,-2587C396.6436,-2587 291.6436,-2587 291.6436,-2587 285.6436,-2587 279.6436,-2581 279.6436,-2575 279.6436,-2575 279.6436,-2481 279.6436,-2481 279.6436,-2475 285.6436,-2469 291.6436,-2469 291.6436,-2469 396.6436,-2469 396.6436,-2469 402.6436,-2469 408.6436,-2475 408.6436,-2481 408.6436,-2481 408.6436,-2575 408.6436,-2575 408.6436,-2581 402.6436,-2587 396.6436,-2587"/>
<text text-anchor="start" x="309.1436" y="-2566.2" font-family="Times,serif" font-size="16.00" fill="#000000">seq_region</text>
<polygon fill="#ffffff" stroke="transparent" points="290.1436,-2538 290.1436,-2557 399.1436,-2557 399.1436,-2538 290.1436,-2538"/>
<text text-anchor="start" x="292.1436" y="-2544.8" font-family="Times,serif" font-weight="bold" font-size="14.00" fill="#000000">PK</text>
<text text-anchor="start" x="312.1436" y="-2544.8" font-family="Times,serif" font-size="14.00" fill="#000000">  seq_region_id</text>
<polygon fill="#ffffff" stroke="transparent" points="290.1436,-2517 290.1436,-2536 399.1436,-2536 399.1436,-2517 290.1436,-2517"/>
<text text-anchor="start" x="329.1436" y="-2522.8" font-family="Times,serif" font-size="14.00" fill="#000000">name</text>
<polygon fill="#ffffff" stroke="transparent" points="290.1436,-2496 290.1436,-2515 399.1436,-2515 399.1436,-2496 290.1436,-2496"/>
<text text-anchor="start" x="297.6436" y="-2501.8" font-family="Times,serif" font-size="14.00" fill="#000000">coord_system_id</text>
<polygon fill="#ffffff" stroke="transparent" points="290.1436,-2475 290.1436,-2494 399.1436,-2494 399.1436,-2475 290.1436,-2475"/>
<text text-anchor="start" x="327.6436" y="-2480.8" font-family="Times,serif" font-size="14.00" fill="#000000">length</text>
<polygon fill="#000000" stroke="#000000" points="288.1436,-2558 288.1436,-2558 401.1436,-2558 401.1436,-2558 288.1436,-2558"/>
</g>
<!-- assembly&#45;&gt;seq_region -->
<g id="edge1" class="edge">
<title>assembly:e&#45;&gt;seq_region:w</title>
<path fill="none" stroke="#000000" stroke-dasharray="5,2" d="M196.6436,-3167C268.068,-3167 236.8933,-3085.8846 251.6436,-3016 261.7454,-2968.1398 240.8867,-2598.6893 281.2314,-2552.695"/>
<polygon fill="#000000" stroke="#000000" points="282.9275,-2555.7575 290.1436,-2548 279.6649,-2549.5643 282.9275,-2555.7575"/>
</g>
<!-- assembly_exception -->
<g id="node2" class="node">
<title>assembly_exception</title>
<path fill="#c70c09" stroke="#000000" d="M218.6436,-2650.5C218.6436,-2650.5 62.6436,-2650.5 62.6436,-2650.5 56.6436,-2650.5 50.6436,-2644.5 50.6436,-2638.5 50.6436,-2638.5 50.6436,-2439.5 50.6436,-2439.5 50.6436,-2433.5 56.6436,-2427.5 62.6436,-2427.5 62.6436,-2427.5 218.6436,-2427.5 218.6436,-2427.5 224.6436,-2427.5 230.6436,-2433.5 230.6436,-2439.5 230.6436,-2439.5 230.6436,-2638.5 230.6436,-2638.5 230.6436,-2644.5 224.6436,-2650.5 218.6436,-2650.5"/>
<text text-anchor="start" x="75.6436" y="-2629.2" font-family="Times,serif" font-size="16.00" fill="#000000">assembly_exception</text>
<polygon fill="#ffffff" stroke="transparent" points="60.6436,-2601 60.6436,-2620 220.6436,-2620 220.6436,-2601 60.6436,-2601"/>
<text text-anchor="start" x="62.6436" y="-2607.8" font-family="Times,serif" font-weight="bold" font-size="14.00" fill="#000000">PK</text>
<text text-anchor="start" x="82.6436" y="-2607.8" font-family="Times,serif" font-size="14.00" fill="#000000">  assembly_exception_id</text>
<polygon fill="#ffffff" stroke="transparent" points="60.6436,-2580 60.6436,-2599 220.6436,-2599 220.6436,-2580 60.6436,-2580"/>
<text text-anchor="start" x="102.1436" y="-2585.8" font-family="Times,serif" font-size="14.00" fill="#000000">seq_region_id</text>
<polygon fill="#ffffff" stroke="transparent" points="60.6436,-2559 60.6436,-2578 220.6436,-2578 220.6436,-2559 60.6436,-2559"/>
<text text-anchor="start" x="95.6436" y="-2564.8" font-family="Times,serif" font-size="14.00" fill="#000000">seq_region_start</text>
<polygon fill="#ffffff" stroke="transparent" points="60.6436,-2538 60.6436,-2557 220.6436,-2557 220.6436,-2538 60.6436,-2538"/>
<text text-anchor="start" x="97.6436" y="-2543.8" font-family="Times,serif" font-size="14.00" fill="#000000">seq_region_end</text>
<polygon fill="#ffffff" stroke="transparent" points="60.6436,-2517 60.6436,-2536 220.6436,-2536 220.6436,-2517 60.6436,-2517"/>
<text text-anchor="start" x="116.1436" y="-2522.8" font-family="Times,serif" font-size="14.00" fill="#000000">exc_type</text>
<polygon fill="#ffffff" stroke="transparent" points="60.6436,-2496 60.6436,-2515 220.6436,-2515 220.6436,-2496 60.6436,-2496"/>
<text text-anchor="start" x="89.1436" y="-2501.8" font-family="Times,serif" font-size="14.00" fill="#000000">exc_seq_region_id</text>
<polygon fill="#ffffff" stroke="transparent" points="60.6436,-2475 60.6436,-2494 220.6436,-2494 220.6436,-2475 60.6436,-2475"/>
<text text-anchor="start" x="83.1436" y="-2480.8" font-family="Times,serif" font-size="14.00" fill="#000000">exc_seq_region_start</text>
<polygon fill="#ffffff" stroke="transparent" points="60.6436,-2454 60.6436,-2473 220.6436,-2473 220.6436,-2454 60.6436,-2454"/>
<text text-anchor="start" x="84.6436" y="-2459.8" font-family="Times,serif" font-size="14.00" fill="#000000">exc_seq_region_end</text>
<polygon fill="#ffffff" stroke="transparent" points="60.6436,-2433 60.6436,-2452 220.6436,-2452 220.6436,-2433 60.6436,-2433"/>
<text text-anchor="start" x="132.6436" y="-2438.8" font-family="Times,serif" font-size="14.00" fill="#000000">ori</text>
<polygon fill="#000000" stroke="#000000" points="58.6436,-2621 58.6436,-2621 222.6436,-2621 222.6436,-2621 58.6436,-2621"/>
</g>
<!-- assembly_exception&#45;&gt;seq_region -->
<g id="edge2" class="edge">
<title>assembly_exception:e&#45;&gt;seq_region:w</title>
<path fill="none" stroke="#000000" stroke-dasharray="5,2" d="M220.6436,-2505C253.2776,-2505 254.0526,-2539.7092 280.2152,-2546.7595"/>
<polygon fill="#000000" stroke="#000000" points="279.7868,-2550.2331 290.1436,-2548 280.6548,-2543.2871 279.7868,-2550.2331"/>
</g>
<!-- coord_system -->
<g id="node3" class="node">
<title>coord_system</title>
<path fill="#c70c09" stroke="#000000" d="M577.6436,-2612C577.6436,-2612 456.6436,-2612 456.6436,-2612 450.6436,-2612 444.6436,-2606 444.6436,-2600 444.6436,-2600 444.6436,-2464 444.6436,-2464 444.6436,-2458 450.6436,-2452 456.6436,-2452 456.6436,-2452 577.6436,-2452 577.6436,-2452 583.6436,-2452 589.6436,-2458 589.6436,-2464 589.6436,-2464 589.6436,-2600 589.6436,-2600 589.6436,-2606 583.6436,-2612 577.6436,-2612"/>
<text text-anchor="start" x="472.6436" y="-2591.2" font-family="Times,serif" font-size="16.00" fill="#000000">coord_system</text>
<polygon fill="#ffffff" stroke="transparent" points="455.1436,-2563 455.1436,-2582 580.1436,-2582 580.1436,-2563 455.1436,-2563"/>
<text text-anchor="start" x="457.1436" y="-2569.8" font-family="Times,serif" font-weight="bold" font-size="14.00" fill="#000000">PK</text>
<text text-anchor="start" x="477.1436" y="-2569.8" font-family="Times,serif" font-size="14.00" fill="#000000">  coord_system_id</text>
<polygon fill="#ffffff" stroke="transparent" points="455.1436,-2542 455.1436,-2561 580.1436,-2561 580.1436,-2542 455.1436,-2542"/>
<text text-anchor="start" x="489.1436" y="-2547.8" font-family="Times,serif" font-size="14.00" fill="#000000">species_id</text>
<polygon fill="#ffffff" stroke="transparent" points="455.1436,-2521 455.1436,-2540 580.1436,-2540 580.1436,-2521 455.1436,-2521"/>
<text text-anchor="start" x="502.1436" y="-2526.8" font-family="Times,serif" font-size="14.00" fill="#000000">name</text>
<polygon fill="#ffffff" stroke="transparent" points="455.1436,-2500 455.1436,-2519 580.1436,-2519 580.1436,-2500 455.1436,-2500"/>
<text text-anchor="start" x="497.6436" y="-2505.8" font-family="Times,serif" font-size="14.00" fill="#000000">version</text>
<polygon fill="#ffffff" stroke="transparent" points="455.1436,-2479 455.1436,-2498 580.1436,-2498 580.1436,-2479 455.1436,-2479"/>
<text text-anchor="start" x="505.1436" y="-2484.8" font-family="Times,serif" font-size="14.00" fill="#000000">rank</text>
<polygon fill="#ffffff" stroke="transparent" points="455.1436,-2458 455.1436,-2477 580.1436,-2477 580.1436,-2458 455.1436,-2458"/>
<text text-anchor="start" x="503.1436" y="-2463.8" font-family="Times,serif" font-size="14.00" fill="#000000">attrib</text>
<polygon fill="#000000" stroke="#000000" points="453.1436,-2583 453.1436,-2583 582.1436,-2583 582.1436,-2583 453.1436,-2583"/>
</g>
<!-- data_file -->
<g id="node4" class="node">
<title>data_file</title>
<path fill="#c70c09" stroke="#000000" d="M391.1436,-2923C391.1436,-2923 297.1436,-2923 297.1436,-2923 291.1436,-2923 285.1436,-2917 285.1436,-2911 285.1436,-2911 285.1436,-2733 285.1436,-2733 285.1436,-2727 291.1436,-2721 297.1436,-2721 297.1436,-2721 391.1436,-2721 391.1436,-2721 397.1436,-2721 403.1436,-2727 403.1436,-2733 403.1436,-2733 403.1436,-2911 403.1436,-2911 403.1436,-2917 397.1436,-2923 391.1436,-2923"/>
<text text-anchor="start" x="316.1436" y="-2902.2" font-family="Times,serif" font-size="16.00" fill="#000000">data_file</text>
<polygon fill="#ffffff" stroke="transparent" points="295.1436,-2874 295.1436,-2893 393.1436,-2893 393.1436,-2874 295.1436,-2874"/>
<text text-anchor="start" x="297.6436" y="-2880.8" font-family="Times,serif" font-weight="bold" font-size="14.00" fill="#000000">PK</text>
<text text-anchor="start" x="317.6436" y="-2880.8" font-family="Times,serif" font-size="14.00" fill="#000000">  data_file_id</text>
<polygon fill="#ffffff" stroke="transparent" points="295.1436,-2853 295.1436,-2872 393.1436,-2872 393.1436,-2853 295.1436,-2853"/>
<text text-anchor="start" x="297.1436" y="-2858.8" font-family="Times,serif" font-size="14.00" fill="#000000">coord_system_id</text>
<polygon fill="#ffffff" stroke="transparent" points="295.1436,-2832 295.1436,-2851 393.1436,-2851 393.1436,-2832 295.1436,-2832"/>
<text text-anchor="start" x="313.6436" y="-2837.8" font-family="Times,serif" font-size="14.00" fill="#000000">analysis_id</text>
<polygon fill="#ffffff" stroke="transparent" points="295.1436,-2811 295.1436,-2830 393.1436,-2830 393.1436,-2811 295.1436,-2811"/>
<text text-anchor="start" x="328.6436" y="-2816.8" font-family="Times,serif" font-size="14.00" fill="#000000">name</text>
<polygon fill="#ffffff" stroke="transparent" points="295.1436,-2790 295.1436,-2809 393.1436,-2809 393.1436,-2790 295.1436,-2790"/>
<text text-anchor="start" x="309.1436" y="-2795.8" font-family="Times,serif" font-size="14.00" fill="#000000">version_lock</text>
<polygon fill="#ffffff" stroke="transparent" points="295.1436,-2769 295.1436,-2788 393.1436,-2788 393.1436,-2769 295.1436,-2769"/>
<text text-anchor="start" x="321.1436" y="-2774.8" font-family="Times,serif" font-size="14.00" fill="#000000">absolute</text>
<polygon fill="#ffffff" stroke="transparent" points="295.1436,-2748 295.1436,-2767 393.1436,-2767 393.1436,-2748 295.1436,-2748"/>
<text text-anchor="start" x="336.1436" y="-2753.8" font-family="Times,serif" font-size="14.00" fill="#000000">url</text>
<polygon fill="#ffffff" stroke="transparent" points="295.1436,-2727 295.1436,-2746 393.1436,-2746 393.1436,-2727 295.1436,-2727"/>
<text text-anchor="start" x="319.6436" y="-2732.8" font-family="Times,serif" font-size="14.00" fill="#000000">file_type</text>
<polygon fill="#000000" stroke="#000000" points="293.1436,-2894 293.1436,-2894 395.1436,-2894 395.1436,-2894 293.1436,-2894"/>
</g>
<!-- data_file&#45;&gt;coord_system -->
<g id="edge4" class="edge">
<title>data_file:e&#45;&gt;coord_system:w</title>
<path fill="none" stroke="#000000" stroke-dasharray="5,2" d="M393.1436,-2863C455.3118,-2863 396.7147,-2604.9212 445.2024,-2575.6857"/>
<polygon fill="#000000" stroke="#000000" points="446.4026,-2578.987 455.1436,-2573 444.5769,-2572.2293 446.4026,-2578.987"/>
</g>
<!-- analysis -->
<g id="node13" class="node">
<title>analysis</title>
<path fill="#808000" stroke="#000000" d="M185.1436,-2279C185.1436,-2279 96.1436,-2279 96.1436,-2279 90.1436,-2279 84.1436,-2273 84.1436,-2267 84.1436,-2267 84.1436,-2215 84.1436,-2215 84.1436,-2209 90.1436,-2203 96.1436,-2203 96.1436,-2203 185.1436,-2203 185.1436,-2203 191.1436,-2203 197.1436,-2209 197.1436,-2215 197.1436,-2215 197.1436,-2267 197.1436,-2267 197.1436,-2273 191.1436,-2279 185.1436,-2279"/>
<text text-anchor="start" x="115.1436" y="-2258.2" font-family="Times,serif" font-size="16.00" fill="#000000">analysis</text>
<polygon fill="#ffffff" stroke="transparent" points="94.6436,-2230 94.6436,-2249 187.6436,-2249 187.6436,-2230 94.6436,-2230"/>
<text text-anchor="start" x="96.6436" y="-2236.8" font-family="Times,serif" font-weight="bold" font-size="14.00" fill="#000000">PK</text>
<text text-anchor="start" x="116.6436" y="-2236.8" font-family="Times,serif" font-size="14.00" fill="#000000">  analysis_id</text>
<polygon fill="#ffffff" stroke="transparent" points="94.6436,-2209 94.6436,-2228 187.6436,-2228 187.6436,-2209 94.6436,-2209"/>
<text text-anchor="start" x="135.1436" y="-2215.8" font-family="Times,serif" font-style="italic" font-size="14.00" fill="#000000">...</text>
<polygon fill="#000000" stroke="#000000" points="92.6436,-2250 92.6436,-2250 189.6436,-2250 189.6436,-2250 92.6436,-2250"/>
</g>
<!-- data_file&#45;&gt;analysis -->
<g id="edge3" class="edge">
<title>data_file:e&#45;&gt;analysis:w</title>
<path fill="none" stroke="#000000" stroke-dasharray="5,2" d="M393.1436,-2842C393.1436,-2842 285.1436,-2923 285.1436,-2923 236.4747,-2876.964 267.8367,-2386.0059 251.6436,-2321 237.6802,-2264.945 245.8078,-2234.1277 197.1436,-2203 197.1436,-2203 129.4776,-2226.7656 104.1029,-2235.6777"/>
<polygon fill="#000000" stroke="#000000" points="102.9188,-2232.3839 94.6436,-2239 105.2385,-2238.9884 102.9188,-2232.3839"/>
</g>
<!-- dna -->
<g id="node5" class="node">
<title>dna</title>
<path fill="#c70c09" stroke="#000000" d="M193.1436,-2409C193.1436,-2409 88.1436,-2409 88.1436,-2409 82.1436,-2409 76.1436,-2403 76.1436,-2397 76.1436,-2397 76.1436,-2345 76.1436,-2345 76.1436,-2339 82.1436,-2333 88.1436,-2333 88.1436,-2333 193.1436,-2333 193.1436,-2333 199.1436,-2333 205.1436,-2339 205.1436,-2345 205.1436,-2345 205.1436,-2397 205.1436,-2397 205.1436,-2403 199.1436,-2409 193.1436,-2409"/>
<text text-anchor="start" x="129.1436" y="-2388.2" font-family="Times,serif" font-size="16.00" fill="#000000">dna</text>
<polygon fill="#ffffff" stroke="transparent" points="86.6436,-2360 86.6436,-2379 195.6436,-2379 195.6436,-2360 86.6436,-2360"/>
<text text-anchor="start" x="88.6436" y="-2366.8" font-family="Times,serif" font-weight="bold" font-size="14.00" fill="#000000">PK</text>
<text text-anchor="start" x="108.6436" y="-2366.8" font-family="Times,serif" font-size="14.00" fill="#000000">  seq_region_id</text>
<polygon fill="#ffffff" stroke="transparent" points="86.6436,-2339 86.6436,-2358 195.6436,-2358 195.6436,-2339 86.6436,-2339"/>
<text text-anchor="start" x="116.1436" y="-2344.8" font-family="Times,serif" font-size="14.00" fill="#000000">sequence</text>
<polygon fill="#000000" stroke="#000000" points="84.6436,-2380 84.6436,-2380 197.6436,-2380 197.6436,-2380 84.6436,-2380"/>
</g>
<!-- dna&#45;&gt;seq_region -->
<g id="edge7" class="edge">
<title>dna:e&#45;&gt;seq_region:w</title>
<path fill="none" stroke="#000000" stroke-dasharray="5,2" d="M195.6436,-2369C229.0096,-2369 233.7512,-2390.8372 251.6436,-2419 281.6607,-2466.247 236.842,-2537.9974 279.9327,-2547.0502"/>
<polygon fill="#000000" stroke="#000000" points="279.8624,-2550.5587 290.1436,-2548 280.5108,-2543.5888 279.8624,-2550.5587"/>
</g>
<!-- genome_statistics -->
<g id="node6" class="node">
<title>genome_statistics</title>
<path fill="#c70c09" stroke="#000000" d="M211.6436,-3007C211.6436,-3007 69.6436,-3007 69.6436,-3007 63.6436,-3007 57.6436,-3001 57.6436,-2995 57.6436,-2995 57.6436,-2859 57.6436,-2859 57.6436,-2853 63.6436,-2847 69.6436,-2847 69.6436,-2847 211.6436,-2847 211.6436,-2847 217.6436,-2847 223.6436,-2853 223.6436,-2859 223.6436,-2859 223.6436,-2995 223.6436,-2995 223.6436,-3001 217.6436,-3007 211.6436,-3007"/>
<text text-anchor="start" x="83.6436" y="-2986.2" font-family="Times,serif" font-size="16.00" fill="#000000">genome_statistics</text>
<polygon fill="#ffffff" stroke="transparent" points="67.6436,-2958 67.6436,-2977 213.6436,-2977 213.6436,-2958 67.6436,-2958"/>
<text text-anchor="start" x="69.6436" y="-2964.8" font-family="Times,serif" font-weight="bold" font-size="14.00" fill="#000000">PK</text>
<text text-anchor="start" x="89.6436" y="-2964.8" font-family="Times,serif" font-size="14.00" fill="#000000">  genome_statistics_id</text>
<polygon fill="#ffffff" stroke="transparent" points="67.6436,-2937 67.6436,-2956 213.6436,-2956 213.6436,-2937 67.6436,-2937"/>
<text text-anchor="start" x="119.6436" y="-2942.8" font-family="Times,serif" font-size="14.00" fill="#000000">statistic</text>
<polygon fill="#ffffff" stroke="transparent" points="67.6436,-2916 67.6436,-2935 213.6436,-2935 213.6436,-2916 67.6436,-2916"/>
<text text-anchor="start" x="125.6436" y="-2921.8" font-family="Times,serif" font-size="14.00" fill="#000000">value</text>
<polygon fill="#ffffff" stroke="transparent" points="67.6436,-2895 67.6436,-2914 213.6436,-2914 213.6436,-2895 67.6436,-2895"/>
<text text-anchor="start" x="112.1436" y="-2900.8" font-family="Times,serif" font-size="14.00" fill="#000000">species_id</text>
<polygon fill="#ffffff" stroke="transparent" points="67.6436,-2874 67.6436,-2893 213.6436,-2893 213.6436,-2874 67.6436,-2874"/>
<text text-anchor="start" x="102.6436" y="-2879.8" font-family="Times,serif" font-size="14.00" fill="#000000">attrib_type_id</text>
<polygon fill="#ffffff" stroke="transparent" points="67.6436,-2853 67.6436,-2872 213.6436,-2872 213.6436,-2853 67.6436,-2853"/>
<text text-anchor="start" x="111.6436" y="-2858.8" font-family="Times,serif" font-size="14.00" fill="#000000">timestamp</text>
<polygon fill="#000000" stroke="#000000" points="65.6436,-2978 65.6436,-2978 215.6436,-2978 215.6436,-2978 65.6436,-2978"/>
</g>
<!-- karyotype -->
<g id="node7" class="node">
<title>karyotype</title>
<path fill="#c70c09" stroke="#000000" d="M190.1436,-2829C190.1436,-2829 91.1436,-2829 91.1436,-2829 85.1436,-2829 79.1436,-2823 79.1436,-2817 79.1436,-2817 79.1436,-2681 79.1436,-2681 79.1436,-2675 85.1436,-2669 91.1436,-2669 91.1436,-2669 190.1436,-2669 190.1436,-2669 196.1436,-2669 202.1436,-2675 202.1436,-2681 202.1436,-2681 202.1436,-2817 202.1436,-2817 202.1436,-2823 196.1436,-2829 190.1436,-2829"/>
<text text-anchor="start" x="108.6436" y="-2808.2" font-family="Times,serif" font-size="16.00" fill="#000000">karyotype</text>
<polygon fill="#ffffff" stroke="transparent" points="89.6436,-2780 89.6436,-2799 192.6436,-2799 192.6436,-2780 89.6436,-2780"/>
<text text-anchor="start" x="91.6436" y="-2786.8" font-family="Times,serif" font-weight="bold" font-size="14.00" fill="#000000">PK</text>
<text text-anchor="start" x="111.6436" y="-2786.8" font-family="Times,serif" font-size="14.00" fill="#000000">  karyotype_id</text>
<polygon fill="#ffffff" stroke="transparent" points="89.6436,-2759 89.6436,-2778 192.6436,-2778 192.6436,-2759 89.6436,-2759"/>
<text text-anchor="start" x="102.6436" y="-2764.8" font-family="Times,serif" font-size="14.00" fill="#000000">seq_region_id</text>
<polygon fill="#ffffff" stroke="transparent" points="89.6436,-2738 89.6436,-2757 192.6436,-2757 192.6436,-2738 89.6436,-2738"/>
<text text-anchor="start" x="96.1436" y="-2743.8" font-family="Times,serif" font-size="14.00" fill="#000000">seq_region_start</text>
<polygon fill="#ffffff" stroke="transparent" points="89.6436,-2717 89.6436,-2736 192.6436,-2736 192.6436,-2717 89.6436,-2717"/>
<text text-anchor="start" x="98.1436" y="-2722.8" font-family="Times,serif" font-size="14.00" fill="#000000">seq_region_end</text>
<polygon fill="#ffffff" stroke="transparent" points="89.6436,-2696 89.6436,-2715 192.6436,-2715 192.6436,-2696 89.6436,-2696"/>
<text text-anchor="start" x="127.6436" y="-2701.8" font-family="Times,serif" font-size="14.00" fill="#000000">band</text>
<polygon fill="#ffffff" stroke="transparent" points="89.6436,-2675 89.6436,-2694 192.6436,-2694 192.6436,-2675 89.6436,-2675"/>
<text text-anchor="start" x="128.1436" y="-2680.8" font-family="Times,serif" font-size="14.00" fill="#000000">stain</text>
<polygon fill="#000000" stroke="#000000" points="87.6436,-2800 87.6436,-2800 194.6436,-2800 194.6436,-2800 87.6436,-2800"/>
</g>
<!-- karyotype&#45;&gt;seq_region -->
<g id="edge12" class="edge">
<title>karyotype:e&#45;&gt;seq_region:w</title>
<path fill="none" stroke="#000000" stroke-dasharray="5,2" d="M192.6436,-2769C247.7297,-2769 229.5035,-2710.4409 251.6436,-2660 271.2292,-2615.3791 242.4348,-2557.3846 279.8178,-2549.0219"/>
<polygon fill="#000000" stroke="#000000" points="280.537,-2552.4679 290.1436,-2548 279.8475,-2545.5019 280.537,-2552.4679"/>
</g>
<!-- meta -->
<g id="node8" class="node">
<title>meta</title>
<path fill="#c70c09" stroke="#000000" d="M380.1436,-2451C380.1436,-2451 308.1436,-2451 308.1436,-2451 302.1436,-2451 296.1436,-2445 296.1436,-2439 296.1436,-2439 296.1436,-2345 296.1436,-2345 296.1436,-2339 302.1436,-2333 308.1436,-2333 308.1436,-2333 380.1436,-2333 380.1436,-2333 386.1436,-2333 392.1436,-2339 392.1436,-2345 392.1436,-2345 392.1436,-2439 392.1436,-2439 392.1436,-2445 386.1436,-2451 380.1436,-2451"/>
<text text-anchor="start" x="328.6436" y="-2430.2" font-family="Times,serif" font-size="16.00" fill="#000000">meta</text>
<polygon fill="#ffffff" stroke="transparent" points="306.1436,-2402 306.1436,-2421 382.1436,-2421 382.1436,-2402 306.1436,-2402"/>
<text text-anchor="start" x="308.1436" y="-2408.8" font-family="Times,serif" font-weight="bold" font-size="14.00" fill="#000000">PK</text>
<text text-anchor="start" x="328.1436" y="-2408.8" font-family="Times,serif" font-size="14.00" fill="#000000">  meta_id</text>
<polygon fill="#ffffff" stroke="transparent" points="306.1436,-2381 306.1436,-2400 382.1436,-2400 382.1436,-2381 306.1436,-2381"/>
<text text-anchor="start" x="315.6436" y="-2386.8" font-family="Times,serif" font-size="14.00" fill="#000000">species_id</text>
<polygon fill="#ffffff" stroke="transparent" points="306.1436,-2360 306.1436,-2379 382.1436,-2379 382.1436,-2360 306.1436,-2360"/>
<text text-anchor="start" x="317.1436" y="-2365.8" font-family="Times,serif" font-size="14.00" fill="#000000">meta_key</text>
<polygon fill="#ffffff" stroke="transparent" points="306.1436,-2339 306.1436,-2358 382.1436,-2358 382.1436,-2339 306.1436,-2339"/>
<text text-anchor="start" x="312.1436" y="-2344.8" font-family="Times,serif" font-size="14.00" fill="#000000">meta_value</text>
<polygon fill="#000000" stroke="#000000" points="304.1436,-2422 304.1436,-2422 384.1436,-2422 384.1436,-2422 304.1436,-2422"/>
</g>
<!-- meta&#45;&gt;coord_system -->
<g id="edge14" class="edge">
<title>meta:e&#45;&gt;coord_system:w</title>
<path fill="none" stroke="#000000" stroke-dasharray="5,2" d="M382.1436,-2390C457.4142,-2390 383.7746,-2537.1685 445.0849,-2550.9655"/>
<polygon fill="#000000" stroke="#000000" points="444.838,-2554.4585 455.1436,-2552 445.5542,-2547.4952 444.838,-2554.4585"/>
</g>
<!-- meta_coord -->
<g id="node9" class="node">
<title>meta_coord</title>
<path fill="#c70c09" stroke="#000000" d="M391.1436,-2702.5C391.1436,-2702.5 297.1436,-2702.5 297.1436,-2702.5 291.1436,-2702.5 285.1436,-2696.5 285.1436,-2690.5 285.1436,-2690.5 285.1436,-2617.5 285.1436,-2617.5 285.1436,-2611.5 291.1436,-2605.5 297.1436,-2605.5 297.1436,-2605.5 391.1436,-2605.5 391.1436,-2605.5 397.1436,-2605.5 403.1436,-2611.5 403.1436,-2617.5 403.1436,-2617.5 403.1436,-2690.5 403.1436,-2690.5 403.1436,-2696.5 397.1436,-2702.5 391.1436,-2702.5"/>
<text text-anchor="start" x="306.1436" y="-2681.2" font-family="Times,serif" font-size="16.00" fill="#000000">meta_coord</text>
<polygon fill="#ffffff" stroke="transparent" points="295.1436,-2653 295.1436,-2672 393.1436,-2672 393.1436,-2653 295.1436,-2653"/>
<text text-anchor="start" x="312.1436" y="-2658.8" font-family="Times,serif" font-size="14.00" fill="#000000">table_name</text>
<polygon fill="#ffffff" stroke="transparent" points="295.1436,-2632 295.1436,-2651 393.1436,-2651 393.1436,-2632 295.1436,-2632"/>
<text text-anchor="start" x="297.1436" y="-2637.8" font-family="Times,serif" font-size="14.00" fill="#000000">coord_system_id</text>
<polygon fill="#ffffff" stroke="transparent" points="295.1436,-2611 295.1436,-2630 393.1436,-2630 393.1436,-2611 295.1436,-2611"/>
<text text-anchor="start" x="311.6436" y="-2616.8" font-family="Times,serif" font-size="14.00" fill="#000000">max_length</text>
<polygon fill="#000000" stroke="#000000" points="293.1436,-2673 293.1436,-2673 395.1436,-2673 395.1436,-2673 293.1436,-2673"/>
</g>
<!-- meta_coord&#45;&gt;coord_system -->
<g id="edge15" class="edge">
<title>meta_coord:e&#45;&gt;coord_system:w</title>
<path fill="none" stroke="#000000" stroke-dasharray="5,2" d="M393.1436,-2641C430.208,-2641 417.4236,-2585.1523 445.1413,-2574.6809"/>
<polygon fill="#000000" stroke="#000000" points="445.862,-2578.109 455.1436,-2573 444.7019,-2571.2058 445.862,-2578.109"/>
</g>
<!-- seq_region&#45;&gt;coord_system -->
<g id="edge23" class="edge">
<title>seq_region:e&#45;&gt;coord_system:w</title>
<path fill="none" stroke="#000000" stroke-dasharray="5,2" d="M399.1436,-2505C434.3188,-2505 419.8885,-2559.8889 444.9876,-2571.0382"/>
<polygon fill="#000000" stroke="#000000" points="444.6613,-2574.5398 455.1436,-2573 445.989,-2567.6669 444.6613,-2574.5398"/>
</g>
<!-- seq_region_attrib -->
<g id="node11" class="node">
<title>seq_region_attrib</title>
<path fill="#c70c09" stroke="#000000" d="M197.1436,-3458.5C197.1436,-3458.5 84.1436,-3458.5 84.1436,-3458.5 78.1436,-3458.5 72.1436,-3452.5 72.1436,-3446.5 72.1436,-3446.5 72.1436,-3373.5 72.1436,-3373.5 72.1436,-3367.5 78.1436,-3361.5 84.1436,-3361.5 84.1436,-3361.5 197.1436,-3361.5 197.1436,-3361.5 203.1436,-3361.5 209.1436,-3367.5 209.1436,-3373.5 209.1436,-3373.5 209.1436,-3446.5 209.1436,-3446.5 209.1436,-3452.5 203.1436,-3458.5 197.1436,-3458.5"/>
<text text-anchor="start" x="84.6436" y="-3437.2" font-family="Times,serif" font-size="16.00" fill="#000000">seq_region_attrib</text>
<polygon fill="#ffffff" stroke="transparent" points="82.6436,-3409 82.6436,-3428 199.6436,-3428 199.6436,-3409 82.6436,-3409"/>
<text text-anchor="start" x="102.6436" y="-3414.8" font-family="Times,serif" font-size="14.00" fill="#000000">seq_region_id</text>
<polygon fill="#ffffff" stroke="transparent" points="82.6436,-3388 82.6436,-3407 199.6436,-3407 199.6436,-3388 82.6436,-3388"/>
<text text-anchor="start" x="103.1436" y="-3393.8" font-family="Times,serif" font-size="14.00" fill="#000000">attrib_type_id</text>
<polygon fill="#ffffff" stroke="transparent" points="82.6436,-3367 82.6436,-3386 199.6436,-3386 199.6436,-3367 82.6436,-3367"/>
<text text-anchor="start" x="126.1436" y="-3372.8" font-family="Times,serif" font-size="14.00" fill="#000000">value</text>
<polygon fill="#000000" stroke="#000000" points="80.6436,-3429 80.6436,-3429 201.6436,-3429 201.6436,-3429 80.6436,-3429"/>
</g>
<!-- seq_region_attrib&#45;&gt;seq_region -->
<g id="edge25" class="edge">
<title>seq_region_attrib:e&#45;&gt;seq_region:w</title>
<path fill="none" stroke="#000000" stroke-dasharray="5,2" d="M199.6436,-3419C237.3377,-3419 238.7702,-3387.4276 251.6436,-3352 266.0211,-3312.4336 247.818,-2634.8217 282.9443,-2555.5499"/>
<polygon fill="#000000" stroke="#000000" points="285.7756,-2557.6525 290.1436,-2548 280.7096,-2552.8218 285.7756,-2557.6525"/>
</g>
<!-- attrib_type -->
<g id="node14" class="node">
<title>attrib_type</title>
<path fill="#808000" stroke="#000000" d="M192.6436,-2185C192.6436,-2185 88.6436,-2185 88.6436,-2185 82.6436,-2185 76.6436,-2179 76.6436,-2173 76.6436,-2173 76.6436,-2121 76.6436,-2121 76.6436,-2115 82.6436,-2109 88.6436,-2109 88.6436,-2109 192.6436,-2109 192.6436,-2109 198.6436,-2109 204.6436,-2115 204.6436,-2121 204.6436,-2121 204.6436,-2173 204.6436,-2173 204.6436,-2179 198.6436,-2185 192.6436,-2185"/>
<text text-anchor="start" x="105.6436" y="-2164.2" font-family="Times,serif" font-size="16.00" fill="#000000">attrib_type</text>
<polygon fill="#ffffff" stroke="transparent" points="86.6436,-2136 86.6436,-2155 194.6436,-2155 194.6436,-2136 86.6436,-2136"/>
<text text-anchor="start" x="88.6436" y="-2142.8" font-family="Times,serif" font-weight="bold" font-size="14.00" fill="#000000">PK</text>
<text text-anchor="start" x="108.6436" y="-2142.8" font-family="Times,serif" font-size="14.00" fill="#000000">  attrib_type_id</text>
<polygon fill="#ffffff" stroke="transparent" points="86.6436,-2115 86.6436,-2134 194.6436,-2134 194.6436,-2115 86.6436,-2115"/>
<text text-anchor="start" x="134.6436" y="-2121.8" font-family="Times,serif" font-style="italic" font-size="14.00" fill="#000000">...</text>
<polygon fill="#000000" stroke="#000000" points="84.6436,-2156 84.6436,-2156 196.6436,-2156 196.6436,-2156 84.6436,-2156"/>
</g>
<!-- seq_region_attrib&#45;&gt;attrib_type -->
<g id="edge24" class="edge">
<title>seq_region_attrib:e&#45;&gt;attrib_type:w</title>
<path fill="none" stroke="#000000" stroke-dasharray="5,2" d="M209.1436,-3397C225.8103,-3397 220.6801,-3371.5286 209.1436,-3359.5 195.3263,-3345.0932 48.9715,-3356.9909 29.6436,-3352 20.9834,-3349.7637 16.3459,-3350.6085 11.6436,-3343 -5.0045,-3316.0627 -2.3086,-2231.4273 11.6436,-2203 28.614,-2168.4234 42.017,-2148.5975 76.3764,-2145.4453"/>
<polygon fill="#000000" stroke="#000000" points="76.8047,-2148.9301 86.6436,-2145 76.5013,-2141.9367 76.8047,-2148.9301"/>
</g>
<!-- seq_region_synonym -->
<g id="node12" class="node">
<title>seq_region_synonym</title>
<path fill="#c70c09" stroke="#000000" d="M221.6436,-3343C221.6436,-3343 59.6436,-3343 59.6436,-3343 53.6436,-3343 47.6436,-3337 47.6436,-3331 47.6436,-3331 47.6436,-3237 47.6436,-3237 47.6436,-3231 53.6436,-3225 59.6436,-3225 59.6436,-3225 221.6436,-3225 221.6436,-3225 227.6436,-3225 233.6436,-3231 233.6436,-3237 233.6436,-3237 233.6436,-3331 233.6436,-3331 233.6436,-3337 227.6436,-3343 221.6436,-3343"/>
<text text-anchor="start" x="71.1436" y="-3322.2" font-family="Times,serif" font-size="16.00" fill="#000000">seq_region_synonym</text>
<polygon fill="#ffffff" stroke="transparent" points="57.6436,-3294 57.6436,-3313 223.6436,-3313 223.6436,-3294 57.6436,-3294"/>
<text text-anchor="start" x="59.6436" y="-3300.8" font-family="Times,serif" font-weight="bold" font-size="14.00" fill="#000000">PK</text>
<text text-anchor="start" x="79.6436" y="-3300.8" font-family="Times,serif" font-size="14.00" fill="#000000">  seq_region_synonym_id</text>
<polygon fill="#ffffff" stroke="transparent" points="57.6436,-3273 57.6436,-3292 223.6436,-3292 223.6436,-3273 57.6436,-3273"/>
<text text-anchor="start" x="102.1436" y="-3278.8" font-family="Times,serif" font-size="14.00" fill="#000000">seq_region_id</text>
<polygon fill="#ffffff" stroke="transparent" points="57.6436,-3252 57.6436,-3271 223.6436,-3271 223.6436,-3252 57.6436,-3252"/>
<text text-anchor="start" x="115.1436" y="-3257.8" font-family="Times,serif" font-size="14.00" fill="#000000">synonym</text>
<polygon fill="#ffffff" stroke="transparent" points="57.6436,-3231 57.6436,-3250 223.6436,-3250 223.6436,-3231 57.6436,-3231"/>
<text text-anchor="start" x="99.6436" y="-3236.8" font-family="Times,serif" font-size="14.00" fill="#000000">external_db_id</text>
<polygon fill="#000000" stroke="#000000" points="55.6436,-3314 55.6436,-3314 225.6436,-3314 225.6436,-3314 55.6436,-3314"/>
</g>
<!-- seq_region_synonym&#45;&gt;seq_region -->
<g id="edge27" class="edge">
<title>seq_region_synonym:e&#45;&gt;seq_region:w</title>
<path fill="none" stroke="#000000" stroke-dasharray="5,2" d="M223.6436,-3282C302.0145,-3282 216.2832,-2609.7229 280.5515,-2551.9491"/>
<polygon fill="#000000" stroke="#000000" points="282.2291,-2555.0435 290.1436,-2548 279.5642,-2548.5706 282.2291,-2555.0435"/>
</g>
<!-- density_feature -->
<g id="node15" class="node">
<title>density_feature</title>
<path fill="#3cb371" stroke="#000000" d="M190.1436,-674.5C190.1436,-674.5 91.1436,-674.5 91.1436,-674.5 85.1436,-674.5 79.1436,-668.5 79.1436,-662.5 79.1436,-662.5 79.1436,-589.5 79.1436,-589.5 79.1436,-583.5 85.1436,-577.5 91.1436,-577.5 91.1436,-577.5 190.1436,-577.5 190.1436,-577.5 196.1436,-577.5 202.1436,-583.5 202.1436,-589.5 202.1436,-589.5 202.1436,-662.5 202.1436,-662.5 202.1436,-668.5 196.1436,-674.5 190.1436,-674.5"/>
<text text-anchor="start" x="91.6436" y="-653.2" font-family="Times,serif" font-size="16.00" fill="#000000">density_feature</text>
<polygon fill="#ffffff" stroke="transparent" points="89.6436,-625 89.6436,-644 192.6436,-644 192.6436,-625 89.6436,-625"/>
<text text-anchor="start" x="135.1436" y="-631.8" font-family="Times,serif" font-style="italic" font-size="14.00" fill="#000000">...</text>
<polygon fill="#ffffff" stroke="transparent" points="89.6436,-604 89.6436,-623 192.6436,-623 192.6436,-604 89.6436,-604"/>
<text text-anchor="start" x="102.6436" y="-609.8" font-family="Times,serif" font-size="14.00" fill="#000000">seq_region_id</text>
<polygon fill="#ffffff" stroke="transparent" points="89.6436,-583 89.6436,-602 192.6436,-602 192.6436,-583 89.6436,-583"/>
<text text-anchor="start" x="135.1436" y="-589.8" font-family="Times,serif" font-style="italic" font-size="14.00" fill="#000000">...</text>
<polygon fill="#000000" stroke="#000000" points="87.6436,-645 87.6436,-645 194.6436,-645 194.6436,-645 87.6436,-645"/>
</g>
<!-- density_feature&#45;&gt;seq_region -->
<g id="edge5" class="edge">
<title>density_feature:e&#45;&gt;seq_region:w</title>
<path fill="none" stroke="#000000" stroke-dasharray="5,2" d="M192.6436,-613C233.3316,-613 237.3849,-644.8924 251.6436,-683 286.2445,-775.4731 273.0081,-2361.4887 279.6436,-2460 282.0219,-2495.3081 256.8082,-2538.2047 280.2271,-2546.5538"/>
<polygon fill="#000000" stroke="#000000" points="279.7432,-2550.0202 290.1436,-2548 280.7534,-2543.0935 279.7432,-2550.0202"/>
</g>
<!-- ditag_feature -->
<g id="node16" class="node">
<title>ditag_feature</title>
<path fill="#3cb371" stroke="#000000" d="M183.1436,-559.5C183.1436,-559.5 98.1436,-559.5 98.1436,-559.5 92.1436,-559.5 86.1436,-553.5 86.1436,-547.5 86.1436,-547.5 86.1436,-474.5 86.1436,-474.5 86.1436,-468.5 92.1436,-462.5 98.1436,-462.5 98.1436,-462.5 183.1436,-462.5 183.1436,-462.5 189.1436,-462.5 195.1436,-468.5 195.1436,-474.5 195.1436,-474.5 195.1436,-547.5 195.1436,-547.5 195.1436,-553.5 189.1436,-559.5 183.1436,-559.5"/>
<text text-anchor="start" x="98.6436" y="-538.2" font-family="Times,serif" font-size="16.00" fill="#000000">ditag_feature</text>
<polygon fill="#ffffff" stroke="transparent" points="96.6436,-510 96.6436,-529 185.6436,-529 185.6436,-510 96.6436,-510"/>
<text text-anchor="start" x="135.1436" y="-516.8" font-family="Times,serif" font-style="italic" font-size="14.00" fill="#000000">...</text>
<polygon fill="#ffffff" stroke="transparent" points="96.6436,-489 96.6436,-508 185.6436,-508 185.6436,-489 96.6436,-489"/>
<text text-anchor="start" x="102.6436" y="-494.8" font-family="Times,serif" font-size="14.00" fill="#000000">seq_region_id</text>
<polygon fill="#ffffff" stroke="transparent" points="96.6436,-468 96.6436,-487 185.6436,-487 185.6436,-468 96.6436,-468"/>
<text text-anchor="start" x="135.1436" y="-474.8" font-family="Times,serif" font-style="italic" font-size="14.00" fill="#000000">...</text>
<polygon fill="#000000" stroke="#000000" points="94.6436,-530 94.6436,-530 187.6436,-530 187.6436,-530 94.6436,-530"/>
</g>
<!-- ditag_feature&#45;&gt;seq_region -->
<g id="edge6" class="edge">
<title>ditag_feature:e&#45;&gt;seq_region:w</title>
<path fill="none" stroke="#000000" stroke-dasharray="5,2" d="M185.6436,-498C228.4028,-498 235.5693,-528.3772 251.6436,-568 291.162,-665.4118 272.629,-2355.1117 279.6436,-2460 282.005,-2495.3093 256.8048,-2538.2049 280.2266,-2546.5539"/>
<polygon fill="#000000" stroke="#000000" points="279.7432,-2550.0203 290.1436,-2548 280.7534,-2543.0936 279.7432,-2550.0203"/>
</g>
<!-- dna_align_feature -->
<g id="node17" class="node">
<title>dna_align_feature</title>
<path fill="#808000" stroke="#000000" d="M198.6436,-2090.5C198.6436,-2090.5 82.6436,-2090.5 82.6436,-2090.5 76.6436,-2090.5 70.6436,-2084.5 70.6436,-2078.5 70.6436,-2078.5 70.6436,-2005.5 70.6436,-2005.5 70.6436,-1999.5 76.6436,-1993.5 82.6436,-1993.5 82.6436,-1993.5 198.6436,-1993.5 198.6436,-1993.5 204.6436,-1993.5 210.6436,-1999.5 210.6436,-2005.5 210.6436,-2005.5 210.6436,-2078.5 210.6436,-2078.5 210.6436,-2084.5 204.6436,-2090.5 198.6436,-2090.5"/>
<text text-anchor="start" x="82.6436" y="-2069.2" font-family="Times,serif" font-size="16.00" fill="#000000">dna_align_feature</text>
<polygon fill="#ffffff" stroke="transparent" points="80.6436,-2041 80.6436,-2060 200.6436,-2060 200.6436,-2041 80.6436,-2041"/>
<text text-anchor="start" x="134.6436" y="-2047.8" font-family="Times,serif" font-style="italic" font-size="14.00" fill="#000000">...</text>
<polygon fill="#ffffff" stroke="transparent" points="80.6436,-2020 80.6436,-2039 200.6436,-2039 200.6436,-2020 80.6436,-2020"/>
<text text-anchor="start" x="102.1436" y="-2025.8" font-family="Times,serif" font-size="14.00" fill="#000000">seq_region_id</text>
<polygon fill="#ffffff" stroke="transparent" points="80.6436,-1999 80.6436,-2018 200.6436,-2018 200.6436,-1999 80.6436,-1999"/>
<text text-anchor="start" x="134.6436" y="-2005.8" font-family="Times,serif" font-style="italic" font-size="14.00" fill="#000000">...</text>
<polygon fill="#000000" stroke="#000000" points="78.6436,-2061 78.6436,-2061 202.6436,-2061 202.6436,-2061 78.6436,-2061"/>
</g>
<!-- dna_align_feature&#45;&gt;seq_region -->
<g id="edge8" class="edge">
<title>dna_align_feature:e&#45;&gt;seq_region:w</title>
<path fill="none" stroke="#000000" stroke-dasharray="5,2" d="M200.6436,-2029C342.7081,-2029 239.1897,-2049.3244 279.6436,-2460 283.0977,-2495.0646 257.256,-2537.8128 279.9606,-2546.44"/>
<polygon fill="#000000" stroke="#000000" points="279.7289,-2549.9452 290.1436,-2548 280.789,-2543.026 279.7289,-2549.9452"/>
</g>
<!-- exon -->
<g id="node18" class="node">
<title>exon</title>
<path fill="#808000" stroke="#000000" d="M179.1436,-1975.5C179.1436,-1975.5 102.1436,-1975.5 102.1436,-1975.5 96.1436,-1975.5 90.1436,-1969.5 90.1436,-1963.5 90.1436,-1963.5 90.1436,-1890.5 90.1436,-1890.5 90.1436,-1884.5 96.1436,-1878.5 102.1436,-1878.5 102.1436,-1878.5 179.1436,-1878.5 179.1436,-1878.5 185.1436,-1878.5 191.1436,-1884.5 191.1436,-1890.5 191.1436,-1890.5 191.1436,-1963.5 191.1436,-1963.5 191.1436,-1969.5 185.1436,-1975.5 179.1436,-1975.5"/>
<text text-anchor="start" x="125.1436" y="-1954.2" font-family="Times,serif" font-size="16.00" fill="#000000">exon</text>
<polygon fill="#ffffff" stroke="transparent" points="100.6436,-1926 100.6436,-1945 181.6436,-1945 181.6436,-1926 100.6436,-1926"/>
<text text-anchor="start" x="135.1436" y="-1932.8" font-family="Times,serif" font-style="italic" font-size="14.00" fill="#000000">...</text>
<polygon fill="#ffffff" stroke="transparent" points="100.6436,-1905 100.6436,-1924 181.6436,-1924 181.6436,-1905 100.6436,-1905"/>
<text text-anchor="start" x="102.6436" y="-1910.8" font-family="Times,serif" font-size="14.00" fill="#000000">seq_region_id</text>
<polygon fill="#ffffff" stroke="transparent" points="100.6436,-1884 100.6436,-1903 181.6436,-1903 181.6436,-1884 100.6436,-1884"/>
<text text-anchor="start" x="135.1436" y="-1890.8" font-family="Times,serif" font-style="italic" font-size="14.00" fill="#000000">...</text>
<polygon fill="#000000" stroke="#000000" points="98.6436,-1946 98.6436,-1946 183.6436,-1946 183.6436,-1946 98.6436,-1946"/>
</g>
<!-- exon&#45;&gt;seq_region -->
<g id="edge9" class="edge">
<title>exon:e&#45;&gt;seq_region:w</title>
<path fill="none" stroke="#000000" stroke-dasharray="5,2" d="M181.6436,-1914C225.6414,-1914 233.6197,-1943.8635 251.6436,-1984 295.0511,-2080.6615 270.2513,-2354.4565 279.6436,-2460 282.7668,-2495.0956 257.1862,-2537.8194 279.9496,-2546.441"/>
<polygon fill="#000000" stroke="#000000" points="279.7294,-2549.948 290.1436,-2548 280.7877,-2543.0284 279.7294,-2549.948"/>
</g>
<!-- gene -->
<g id="node19" class="node">
<title>gene</title>
<path fill="#808000" stroke="#000000" d="M179.1436,-1860.5C179.1436,-1860.5 102.1436,-1860.5 102.1436,-1860.5 96.1436,-1860.5 90.1436,-1854.5 90.1436,-1848.5 90.1436,-1848.5 90.1436,-1775.5 90.1436,-1775.5 90.1436,-1769.5 96.1436,-1763.5 102.1436,-1763.5 102.1436,-1763.5 179.1436,-1763.5 179.1436,-1763.5 185.1436,-1763.5 191.1436,-1769.5 191.1436,-1775.5 191.1436,-1775.5 191.1436,-1848.5 191.1436,-1848.5 191.1436,-1854.5 185.1436,-1860.5 179.1436,-1860.5"/>
<text text-anchor="start" x="125.6436" y="-1839.2" font-family="Times,serif" font-size="16.00" fill="#000000">gene</text>
<polygon fill="#ffffff" stroke="transparent" points="100.6436,-1811 100.6436,-1830 181.6436,-1830 181.6436,-1811 100.6436,-1811"/>
<text text-anchor="start" x="135.1436" y="-1817.8" font-family="Times,serif" font-style="italic" font-size="14.00" fill="#000000">...</text>
<polygon fill="#ffffff" stroke="transparent" points="100.6436,-1790 100.6436,-1809 181.6436,-1809 181.6436,-1790 100.6436,-1790"/>
<text text-anchor="start" x="102.6436" y="-1795.8" font-family="Times,serif" font-size="14.00" fill="#000000">seq_region_id</text>
<polygon fill="#ffffff" stroke="transparent" points="100.6436,-1769 100.6436,-1788 181.6436,-1788 181.6436,-1769 100.6436,-1769"/>
<text text-anchor="start" x="135.1436" y="-1775.8" font-family="Times,serif" font-style="italic" font-size="14.00" fill="#000000">...</text>
<polygon fill="#000000" stroke="#000000" points="98.6436,-1831 98.6436,-1831 183.6436,-1831 183.6436,-1831 98.6436,-1831"/>
</g>
<!-- gene&#45;&gt;seq_region -->
<g id="edge10" class="edge">
<title>gene:e&#45;&gt;seq_region:w</title>
<path fill="none" stroke="#000000" stroke-dasharray="5,2" d="M181.6436,-1799C312.1537,-1799 244.7993,-2041.4029 279.6436,-2460 282.5792,-2495.2662 256.9214,-2538.1962 280.2443,-2546.5525"/>
<polygon fill="#000000" stroke="#000000" points="279.7425,-2550.0163 290.1436,-2548 280.7553,-2543.0899 279.7425,-2550.0163"/>
</g>
<!-- intron_supporting_evidence -->
<g id="node20" class="node">
<title>intron_supporting_evidence</title>
<path fill="#3cb371" stroke="#000000" d="M231.6436,-1479.5C231.6436,-1479.5 49.6436,-1479.5 49.6436,-1479.5 43.6436,-1479.5 37.6436,-1473.5 37.6436,-1467.5 37.6436,-1467.5 37.6436,-1394.5 37.6436,-1394.5 37.6436,-1388.5 43.6436,-1382.5 49.6436,-1382.5 49.6436,-1382.5 231.6436,-1382.5 231.6436,-1382.5 237.6436,-1382.5 243.6436,-1388.5 243.6436,-1394.5 243.6436,-1394.5 243.6436,-1467.5 243.6436,-1467.5 243.6436,-1473.5 237.6436,-1479.5 231.6436,-1479.5"/>
<text text-anchor="start" x="49.6436" y="-1458.2" font-family="Times,serif" font-size="16.00" fill="#000000">intron_supporting_evidence</text>
<polygon fill="#ffffff" stroke="transparent" points="47.6436,-1430 47.6436,-1449 233.6436,-1449 233.6436,-1430 47.6436,-1430"/>
<text text-anchor="start" x="134.6436" y="-1436.8" font-family="Times,serif" font-style="italic" font-size="14.00" fill="#000000">...</text>
<polygon fill="#ffffff" stroke="transparent" points="47.6436,-1409 47.6436,-1428 233.6436,-1428 233.6436,-1409 47.6436,-1409"/>
<text text-anchor="start" x="102.1436" y="-1414.8" font-family="Times,serif" font-size="14.00" fill="#000000">seq_region_id</text>
<polygon fill="#ffffff" stroke="transparent" points="47.6436,-1388 47.6436,-1407 233.6436,-1407 233.6436,-1388 47.6436,-1388"/>
<text text-anchor="start" x="134.6436" y="-1394.8" font-family="Times,serif" font-style="italic" font-size="14.00" fill="#000000">...</text>
<polygon fill="#000000" stroke="#000000" points="45.6436,-1450 45.6436,-1450 235.6436,-1450 235.6436,-1450 45.6436,-1450"/>
</g>
<!-- intron_supporting_evidence&#45;&gt;seq_region -->
<g id="edge11" class="edge">
<title>intron_supporting_evidence:e&#45;&gt;seq_region:w</title>
<path fill="none" stroke="#000000" stroke-dasharray="5,2" d="M233.6436,-1418C293.6762,-1418 233.2392,-2448.7569 282.4484,-2541.3639"/>
<polygon fill="#000000" stroke="#000000" points="280.2849,-2544.1199 290.1436,-2548 284.8563,-2538.8188 280.2849,-2544.1199"/>
</g>
<!-- marker_feature -->
<g id="node21" class="node">
<title>marker_feature</title>
<path fill="#3cb371" stroke="#000000" d="M189.1436,-1364.5C189.1436,-1364.5 92.1436,-1364.5 92.1436,-1364.5 86.1436,-1364.5 80.1436,-1358.5 80.1436,-1352.5 80.1436,-1352.5 80.1436,-1279.5 80.1436,-1279.5 80.1436,-1273.5 86.1436,-1267.5 92.1436,-1267.5 92.1436,-1267.5 189.1436,-1267.5 189.1436,-1267.5 195.1436,-1267.5 201.1436,-1273.5 201.1436,-1279.5 201.1436,-1279.5 201.1436,-1352.5 201.1436,-1352.5 201.1436,-1358.5 195.1436,-1364.5 189.1436,-1364.5"/>
<text text-anchor="start" x="92.6436" y="-1343.2" font-family="Times,serif" font-size="16.00" fill="#000000">marker_feature</text>
<polygon fill="#ffffff" stroke="transparent" points="90.6436,-1315 90.6436,-1334 191.6436,-1334 191.6436,-1315 90.6436,-1315"/>
<text text-anchor="start" x="135.1436" y="-1321.8" font-family="Times,serif" font-style="italic" font-size="14.00" fill="#000000">...</text>
<polygon fill="#ffffff" stroke="transparent" points="90.6436,-1294 90.6436,-1313 191.6436,-1313 191.6436,-1294 90.6436,-1294"/>
<text text-anchor="start" x="102.6436" y="-1299.8" font-family="Times,serif" font-size="14.00" fill="#000000">seq_region_id</text>
<polygon fill="#ffffff" stroke="transparent" points="90.6436,-1273 90.6436,-1292 191.6436,-1292 191.6436,-1273 90.6436,-1273"/>
<text text-anchor="start" x="135.1436" y="-1279.8" font-family="Times,serif" font-style="italic" font-size="14.00" fill="#000000">...</text>
<polygon fill="#000000" stroke="#000000" points="88.6436,-1335 88.6436,-1335 193.6436,-1335 193.6436,-1335 88.6436,-1335"/>
</g>
<!-- marker_feature&#45;&gt;seq_region -->
<g id="edge13" class="edge">
<title>marker_feature:e&#45;&gt;seq_region:w</title>
<path fill="none" stroke="#000000" stroke-dasharray="5,2" d="M191.6436,-1303C232.6194,-1303 236.9336,-1334.7557 251.6436,-1373 295.0165,-1485.7641 270.9215,-2339.4974 279.6436,-2460 282.1984,-2495.2958 256.844,-2538.2022 280.2325,-2546.5535"/>
<polygon fill="#000000" stroke="#000000" points="279.743,-2550.019 290.1436,-2548 280.754,-2543.0924 279.743,-2550.019"/>
</g>
<!-- misc_feature -->
<g id="node22" class="node">
<title>misc_feature</title>
<path fill="#3cb371" stroke="#000000" d="M181.6436,-1249.5C181.6436,-1249.5 99.6436,-1249.5 99.6436,-1249.5 93.6436,-1249.5 87.6436,-1243.5 87.6436,-1237.5 87.6436,-1237.5 87.6436,-1164.5 87.6436,-1164.5 87.6436,-1158.5 93.6436,-1152.5 99.6436,-1152.5 99.6436,-1152.5 181.6436,-1152.5 181.6436,-1152.5 187.6436,-1152.5 193.6436,-1158.5 193.6436,-1164.5 193.6436,-1164.5 193.6436,-1237.5 193.6436,-1237.5 193.6436,-1243.5 187.6436,-1249.5 181.6436,-1249.5"/>
<text text-anchor="start" x="99.6436" y="-1228.2" font-family="Times,serif" font-size="16.00" fill="#000000">misc_feature</text>
<polygon fill="#ffffff" stroke="transparent" points="97.6436,-1200 97.6436,-1219 183.6436,-1219 183.6436,-1200 97.6436,-1200"/>
<text text-anchor="start" x="134.6436" y="-1206.8" font-family="Times,serif" font-style="italic" font-size="14.00" fill="#000000">...</text>
<polygon fill="#ffffff" stroke="transparent" points="97.6436,-1179 97.6436,-1198 183.6436,-1198 183.6436,-1179 97.6436,-1179"/>
<text text-anchor="start" x="102.1436" y="-1184.8" font-family="Times,serif" font-size="14.00" fill="#000000">seq_region_id</text>
<polygon fill="#ffffff" stroke="transparent" points="97.6436,-1158 97.6436,-1177 183.6436,-1177 183.6436,-1158 97.6436,-1158"/>
<text text-anchor="start" x="134.6436" y="-1164.8" font-family="Times,serif" font-style="italic" font-size="14.00" fill="#000000">...</text>
<polygon fill="#000000" stroke="#000000" points="95.6436,-1220 95.6436,-1220 185.6436,-1220 185.6436,-1220 95.6436,-1220"/>
</g>
<!-- misc_feature&#45;&gt;seq_region -->
<g id="edge16" class="edge">
<title>misc_feature:e&#45;&gt;seq_region:w</title>
<path fill="none" stroke="#000000" stroke-dasharray="5,2" d="M183.6436,-1188C227.0174,-1188 234.8691,-1218.0013 251.6436,-1258 277.4766,-1319.5983 274.9036,-2393.3725 279.6436,-2460 282.1549,-2495.2989 256.8352,-2538.2028 280.2312,-2546.5536"/>
<polygon fill="#000000" stroke="#000000" points="279.743,-2550.0193 290.1436,-2548 280.7538,-2543.0927 279.743,-2550.0193"/>
</g>
<!-- operon -->
<g id="node23" class="node">
<title>operon</title>
<path fill="#ff8500" stroke="#000000" d="M179.1436,-408.5C179.1436,-408.5 102.1436,-408.5 102.1436,-408.5 96.1436,-408.5 90.1436,-402.5 90.1436,-396.5 90.1436,-396.5 90.1436,-323.5 90.1436,-323.5 90.1436,-317.5 96.1436,-311.5 102.1436,-311.5 102.1436,-311.5 179.1436,-311.5 179.1436,-311.5 185.1436,-311.5 191.1436,-317.5 191.1436,-323.5 191.1436,-323.5 191.1436,-396.5 191.1436,-396.5 191.1436,-402.5 185.1436,-408.5 179.1436,-408.5"/>
<text text-anchor="start" x="118.1436" y="-387.2" font-family="Times,serif" font-size="16.00" fill="#000000">operon</text>
<polygon fill="#ffffff" stroke="transparent" points="100.6436,-359 100.6436,-378 181.6436,-378 181.6436,-359 100.6436,-359"/>
<text text-anchor="start" x="135.1436" y="-365.8" font-family="Times,serif" font-style="italic" font-size="14.00" fill="#000000">...</text>
<polygon fill="#ffffff" stroke="transparent" points="100.6436,-338 100.6436,-357 181.6436,-357 181.6436,-338 100.6436,-338"/>
<text text-anchor="start" x="102.6436" y="-343.8" font-family="Times,serif" font-size="14.00" fill="#000000">seq_region_id</text>
<polygon fill="#ffffff" stroke="transparent" points="100.6436,-317 100.6436,-336 181.6436,-336 181.6436,-317 100.6436,-317"/>
<text text-anchor="start" x="135.1436" y="-323.8" font-family="Times,serif" font-style="italic" font-size="14.00" fill="#000000">...</text>
<polygon fill="#000000" stroke="#000000" points="98.6436,-379 98.6436,-379 183.6436,-379 183.6436,-379 98.6436,-379"/>
</g>
<!-- operon&#45;&gt;seq_region -->
<g id="edge17" class="edge">
<title>operon:e&#45;&gt;seq_region:w</title>
<path fill="none" stroke="#000000" stroke-dasharray="5,2" d="M181.6436,-347C237.3607,-347 235.0088,-397.8241 251.6436,-451 268.3921,-504.5393 234.5662,-2399.2247 284.0442,-2539.7721"/>
<polygon fill="#000000" stroke="#000000" points="281.3767,-2542.051 290.1436,-2548 287,-2537.8823 281.3767,-2542.051"/>
</g>
<!-- operon_transcript -->
<g id="node24" class="node">
<title>operon_transcript</title>
<path fill="#ff8500" stroke="#000000" d="M197.6436,-293.5C197.6436,-293.5 83.6436,-293.5 83.6436,-293.5 77.6436,-293.5 71.6436,-287.5 71.6436,-281.5 71.6436,-281.5 71.6436,-208.5 71.6436,-208.5 71.6436,-202.5 77.6436,-196.5 83.6436,-196.5 83.6436,-196.5 197.6436,-196.5 197.6436,-196.5 203.6436,-196.5 209.6436,-202.5 209.6436,-208.5 209.6436,-208.5 209.6436,-281.5 209.6436,-281.5 209.6436,-287.5 203.6436,-293.5 197.6436,-293.5"/>
<text text-anchor="start" x="83.6436" y="-272.2" font-family="Times,serif" font-size="16.00" fill="#000000">operon_transcript</text>
<polygon fill="#ffffff" stroke="transparent" points="81.6436,-244 81.6436,-263 199.6436,-263 199.6436,-244 81.6436,-244"/>
<text text-anchor="start" x="134.6436" y="-250.8" font-family="Times,serif" font-style="italic" font-size="14.00" fill="#000000">...</text>
<polygon fill="#ffffff" stroke="transparent" points="81.6436,-223 81.6436,-242 199.6436,-242 199.6436,-223 81.6436,-223"/>
<text text-anchor="start" x="102.1436" y="-228.8" font-family="Times,serif" font-size="14.00" fill="#000000">seq_region_id</text>
<polygon fill="#ffffff" stroke="transparent" points="81.6436,-202 81.6436,-221 199.6436,-221 199.6436,-202 81.6436,-202"/>
<text text-anchor="start" x="134.6436" y="-208.8" font-family="Times,serif" font-style="italic" font-size="14.00" fill="#000000">...</text>
<polygon fill="#000000" stroke="#000000" points="79.6436,-264 79.6436,-264 201.6436,-264 201.6436,-264 79.6436,-264"/>
</g>
<!-- operon_transcript&#45;&gt;seq_region -->
<g id="edge18" class="edge">
<title>operon_transcript:e&#45;&gt;seq_region:w</title>
<path fill="none" stroke="#000000" stroke-dasharray="5,2" d="M199.6436,-232C238.3996,-232 239.2339,-265.2846 251.6436,-302 290.0357,-415.5862 271.7521,-2340.361 279.6436,-2460 281.9728,-2495.3114 256.7982,-2538.2053 280.2256,-2546.5539"/>
<polygon fill="#000000" stroke="#000000" points="279.7433,-2550.0205 290.1436,-2548 280.7533,-2543.0938 279.7433,-2550.0205"/>
</g>
<!-- prediction_exon -->
<g id="node25" class="node">
<title>prediction_exon</title>
<path fill="#3cb371" stroke="#000000" d="M193.6436,-1134.5C193.6436,-1134.5 87.6436,-1134.5 87.6436,-1134.5 81.6436,-1134.5 75.6436,-1128.5 75.6436,-1122.5 75.6436,-1122.5 75.6436,-1049.5 75.6436,-1049.5 75.6436,-1043.5 81.6436,-1037.5 87.6436,-1037.5 87.6436,-1037.5 193.6436,-1037.5 193.6436,-1037.5 199.6436,-1037.5 205.6436,-1043.5 205.6436,-1049.5 205.6436,-1049.5 205.6436,-1122.5 205.6436,-1122.5 205.6436,-1128.5 199.6436,-1134.5 193.6436,-1134.5"/>
<text text-anchor="start" x="87.6436" y="-1113.2" font-family="Times,serif" font-size="16.00" fill="#000000">prediction_exon</text>
<polygon fill="#ffffff" stroke="transparent" points="85.6436,-1085 85.6436,-1104 195.6436,-1104 195.6436,-1085 85.6436,-1085"/>
<text text-anchor="start" x="134.6436" y="-1091.8" font-family="Times,serif" font-style="italic" font-size="14.00" fill="#000000">...</text>
<polygon fill="#ffffff" stroke="transparent" points="85.6436,-1064 85.6436,-1083 195.6436,-1083 195.6436,-1064 85.6436,-1064"/>
<text text-anchor="start" x="102.1436" y="-1069.8" font-family="Times,serif" font-size="14.00" fill="#000000">seq_region_id</text>
<polygon fill="#ffffff" stroke="transparent" points="85.6436,-1043 85.6436,-1062 195.6436,-1062 195.6436,-1043 85.6436,-1043"/>
<text text-anchor="start" x="134.6436" y="-1049.8" font-family="Times,serif" font-style="italic" font-size="14.00" fill="#000000">...</text>
<polygon fill="#000000" stroke="#000000" points="83.6436,-1105 83.6436,-1105 197.6436,-1105 197.6436,-1105 83.6436,-1105"/>
</g>
<!-- prediction_exon&#45;&gt;seq_region -->
<g id="edge19" class="edge">
<title>prediction_exon:e&#45;&gt;seq_region:w</title>
<path fill="none" stroke="#000000" stroke-dasharray="5,2" d="M195.6436,-1073C235.4853,-1073 238.0569,-1105.5466 251.6436,-1143 276.6004,-1211.7964 274.5245,-2386.9961 279.6436,-2460 282.119,-2495.3015 256.8279,-2538.2033 280.2301,-2546.5536"/>
<polygon fill="#000000" stroke="#000000" points="279.7431,-2550.0196 290.1436,-2548 280.7537,-2543.0929 279.7431,-2550.0196"/>
</g>
<!-- prediction_transcript -->
<g id="node26" class="node">
<title>prediction_transcript</title>
<path fill="#3cb371" stroke="#000000" d="M207.6436,-1019.5C207.6436,-1019.5 73.6436,-1019.5 73.6436,-1019.5 67.6436,-1019.5 61.6436,-1013.5 61.6436,-1007.5 61.6436,-1007.5 61.6436,-934.5 61.6436,-934.5 61.6436,-928.5 67.6436,-922.5 73.6436,-922.5 73.6436,-922.5 207.6436,-922.5 207.6436,-922.5 213.6436,-922.5 219.6436,-928.5 219.6436,-934.5 219.6436,-934.5 219.6436,-1007.5 219.6436,-1007.5 219.6436,-1013.5 213.6436,-1019.5 207.6436,-1019.5"/>
<text text-anchor="start" x="73.6436" y="-998.2" font-family="Times,serif" font-size="16.00" fill="#000000">prediction_transcript</text>
<polygon fill="#ffffff" stroke="transparent" points="71.6436,-970 71.6436,-989 209.6436,-989 209.6436,-970 71.6436,-970"/>
<text text-anchor="start" x="134.6436" y="-976.8" font-family="Times,serif" font-style="italic" font-size="14.00" fill="#000000">...</text>
<polygon fill="#ffffff" stroke="transparent" points="71.6436,-949 71.6436,-968 209.6436,-968 209.6436,-949 71.6436,-949"/>
<text text-anchor="start" x="102.1436" y="-954.8" font-family="Times,serif" font-size="14.00" fill="#000000">seq_region_id</text>
<polygon fill="#ffffff" stroke="transparent" points="71.6436,-928 71.6436,-947 209.6436,-947 209.6436,-928 71.6436,-928"/>
<text text-anchor="start" x="134.6436" y="-934.8" font-family="Times,serif" font-style="italic" font-size="14.00" fill="#000000">...</text>
<polygon fill="#000000" stroke="#000000" points="69.6436,-990 69.6436,-990 211.6436,-990 211.6436,-990 69.6436,-990"/>
</g>
<!-- prediction_transcript&#45;&gt;seq_region -->
<g id="edge20" class="edge">
<title>prediction_transcript:e&#45;&gt;seq_region:w</title>
<path fill="none" stroke="#000000" stroke-dasharray="5,2" d="M209.6436,-958C245.9251,-958 241.6176,-993.1313 251.6436,-1028 295.621,-1180.9445 268.6472,-2301.2388 279.6436,-2460 282.0889,-2495.3036 256.8218,-2538.2037 280.2292,-2546.5537"/>
<polygon fill="#000000" stroke="#000000" points="279.7431,-2550.0198 290.1436,-2548 280.7536,-2543.0931 279.7431,-2550.0198"/>
</g>
<!-- protein_align_feature -->
<g id="node27" class="node">
<title>protein_align_feature</title>
<path fill="#808000" stroke="#000000" d="M210.1436,-1745.5C210.1436,-1745.5 71.1436,-1745.5 71.1436,-1745.5 65.1436,-1745.5 59.1436,-1739.5 59.1436,-1733.5 59.1436,-1733.5 59.1436,-1660.5 59.1436,-1660.5 59.1436,-1654.5 65.1436,-1648.5 71.1436,-1648.5 71.1436,-1648.5 210.1436,-1648.5 210.1436,-1648.5 216.1436,-1648.5 222.1436,-1654.5 222.1436,-1660.5 222.1436,-1660.5 222.1436,-1733.5 222.1436,-1733.5 222.1436,-1739.5 216.1436,-1745.5 210.1436,-1745.5"/>
<text text-anchor="start" x="71.6436" y="-1724.2" font-family="Times,serif" font-size="16.00" fill="#000000">protein_align_feature</text>
<polygon fill="#ffffff" stroke="transparent" points="69.6436,-1696 69.6436,-1715 212.6436,-1715 212.6436,-1696 69.6436,-1696"/>
<text text-anchor="start" x="135.1436" y="-1702.8" font-family="Times,serif" font-style="italic" font-size="14.00" fill="#000000">...</text>
<polygon fill="#ffffff" stroke="transparent" points="69.6436,-1675 69.6436,-1694 212.6436,-1694 212.6436,-1675 69.6436,-1675"/>
<text text-anchor="start" x="102.6436" y="-1680.8" font-family="Times,serif" font-size="14.00" fill="#000000">seq_region_id</text>
<polygon fill="#ffffff" stroke="transparent" points="69.6436,-1654 69.6436,-1673 212.6436,-1673 212.6436,-1654 69.6436,-1654"/>
<text text-anchor="start" x="135.1436" y="-1660.8" font-family="Times,serif" font-style="italic" font-size="14.00" fill="#000000">...</text>
<polygon fill="#000000" stroke="#000000" points="67.6436,-1716 67.6436,-1716 214.6436,-1716 214.6436,-1716 67.6436,-1716"/>
</g>
<!-- protein_align_feature&#45;&gt;seq_region -->
<g id="edge21" class="edge">
<title>protein_align_feature:e&#45;&gt;seq_region:w</title>
<path fill="none" stroke="#000000" stroke-dasharray="5,2" d="M212.6436,-1684C248.2575,-1684 242.008,-1719.7144 251.6436,-1754 294.1249,-1905.1561 267.2216,-2303.4799 279.6436,-2460 282.4434,-2495.2772 256.8938,-2538.1984 280.2401,-2546.5529"/>
<polygon fill="#000000" stroke="#000000" points="279.7426,-2550.0173 290.1436,-2548 280.7548,-2543.0908 279.7426,-2550.0173"/>
</g>
<!-- repeat_feature -->
<g id="node28" class="node">
<title>repeat_feature</title>
<path fill="#3cb371" stroke="#000000" d="M186.1436,-904.5C186.1436,-904.5 95.1436,-904.5 95.1436,-904.5 89.1436,-904.5 83.1436,-898.5 83.1436,-892.5 83.1436,-892.5 83.1436,-819.5 83.1436,-819.5 83.1436,-813.5 89.1436,-807.5 95.1436,-807.5 95.1436,-807.5 186.1436,-807.5 186.1436,-807.5 192.1436,-807.5 198.1436,-813.5 198.1436,-819.5 198.1436,-819.5 198.1436,-892.5 198.1436,-892.5 198.1436,-898.5 192.1436,-904.5 186.1436,-904.5"/>
<text text-anchor="start" x="95.6436" y="-883.2" font-family="Times,serif" font-size="16.00" fill="#000000">repeat_feature</text>
<polygon fill="#ffffff" stroke="transparent" points="93.6436,-855 93.6436,-874 188.6436,-874 188.6436,-855 93.6436,-855"/>
<text text-anchor="start" x="135.1436" y="-861.8" font-family="Times,serif" font-style="italic" font-size="14.00" fill="#000000">...</text>
<polygon fill="#ffffff" stroke="transparent" points="93.6436,-834 93.6436,-853 188.6436,-853 188.6436,-834 93.6436,-834"/>
<text text-anchor="start" x="102.6436" y="-839.8" font-family="Times,serif" font-size="14.00" fill="#000000">seq_region_id</text>
<polygon fill="#ffffff" stroke="transparent" points="93.6436,-813 93.6436,-832 188.6436,-832 188.6436,-813 93.6436,-813"/>
<text text-anchor="start" x="135.1436" y="-819.8" font-family="Times,serif" font-style="italic" font-size="14.00" fill="#000000">...</text>
<polygon fill="#000000" stroke="#000000" points="91.6436,-875 91.6436,-875 190.6436,-875 190.6436,-875 91.6436,-875"/>
</g>
<!-- repeat_feature&#45;&gt;seq_region -->
<g id="edge22" class="edge">
<title>repeat_feature:e&#45;&gt;seq_region:w</title>
<path fill="none" stroke="#000000" stroke-dasharray="5,2" d="M188.6436,-843C230.4994,-843 236.2953,-874.0599 251.6436,-913 283.1644,-992.9707 273.7663,-2374.2426 279.6436,-2460 282.0633,-2495.3053 256.8166,-2538.2041 280.2284,-2546.5538"/>
<polygon fill="#000000" stroke="#000000" points="279.7432,-2550.0199 290.1436,-2548 280.7535,-2543.0932 279.7432,-2550.0199"/>
</g>
<!-- seq_region_mapping -->
<g id="node29" class="node">
<title>seq_region_mapping</title>
<path fill="#ff6666" stroke="#000000" d="M208.6436,-142.5C208.6436,-142.5 72.6436,-142.5 72.6436,-142.5 66.6436,-142.5 60.6436,-136.5 60.6436,-130.5 60.6436,-130.5 60.6436,-57.5 60.6436,-57.5 60.6436,-51.5 66.6436,-45.5 72.6436,-45.5 72.6436,-45.5 208.6436,-45.5 208.6436,-45.5 214.6436,-45.5 220.6436,-51.5 220.6436,-57.5 220.6436,-57.5 220.6436,-130.5 220.6436,-130.5 220.6436,-136.5 214.6436,-142.5 208.6436,-142.5"/>
<text text-anchor="start" x="72.6436" y="-121.2" font-family="Times,serif" font-size="16.00" fill="#000000">seq_region_mapping</text>
<polygon fill="#ffffff" stroke="transparent" points="70.6436,-93 70.6436,-112 210.6436,-112 210.6436,-93 70.6436,-93"/>
<text text-anchor="start" x="134.6436" y="-99.8" font-family="Times,serif" font-style="italic" font-size="14.00" fill="#000000">...</text>
<polygon fill="#ffffff" stroke="transparent" points="70.6436,-72 70.6436,-91 210.6436,-91 210.6436,-72 70.6436,-72"/>
<text text-anchor="start" x="78.1436" y="-77.8" font-family="Times,serif" font-size="14.00" fill="#000000">internal_seq_region_id</text>
<polygon fill="#ffffff" stroke="transparent" points="70.6436,-51 70.6436,-70 210.6436,-70 210.6436,-51 70.6436,-51"/>
<text text-anchor="start" x="134.6436" y="-57.8" font-family="Times,serif" font-style="italic" font-size="14.00" fill="#000000">...</text>
<polygon fill="#000000" stroke="#000000" points="68.6436,-113 68.6436,-113 212.6436,-113 212.6436,-113 68.6436,-113"/>
</g>
<!-- seq_region_mapping&#45;&gt;seq_region -->
<g id="edge26" class="edge">
<title>seq_region_mapping:e&#45;&gt;seq_region:w</title>
<path fill="none" stroke="#000000" stroke-dasharray="5,2" d="M210.6436,-81C260.3281,-81 242.0694,-136.2468 251.6436,-185 300.3581,-433.0588 263.0892,-2207.7457 279.6436,-2460 281.961,-2495.3122 256.7958,-2538.2055 280.2252,-2546.554"/>
<polygon fill="#000000" stroke="#000000" points="279.7433,-2550.0206 290.1436,-2548 280.7532,-2543.0939 279.7433,-2550.0206"/>
</g>
<!-- simple_feature -->
<g id="node30" class="node">
<title>simple_feature</title>
<path fill="#3cb371" stroke="#000000" d="M188.1436,-789.5C188.1436,-789.5 93.1436,-789.5 93.1436,-789.5 87.1436,-789.5 81.1436,-783.5 81.1436,-777.5 81.1436,-777.5 81.1436,-704.5 81.1436,-704.5 81.1436,-698.5 87.1436,-692.5 93.1436,-692.5 93.1436,-692.5 188.1436,-692.5 188.1436,-692.5 194.1436,-692.5 200.1436,-698.5 200.1436,-704.5 200.1436,-704.5 200.1436,-777.5 200.1436,-777.5 200.1436,-783.5 194.1436,-789.5 188.1436,-789.5"/>
<text text-anchor="start" x="93.6436" y="-768.2" font-family="Times,serif" font-size="16.00" fill="#000000">simple_feature</text>
<polygon fill="#ffffff" stroke="transparent" points="91.6436,-740 91.6436,-759 190.6436,-759 190.6436,-740 91.6436,-740"/>
<text text-anchor="start" x="135.1436" y="-746.8" font-family="Times,serif" font-style="italic" font-size="14.00" fill="#000000">...</text>
<polygon fill="#ffffff" stroke="transparent" points="91.6436,-719 91.6436,-738 190.6436,-738 190.6436,-719 91.6436,-719"/>
<text text-anchor="start" x="102.6436" y="-724.8" font-family="Times,serif" font-size="14.00" fill="#000000">seq_region_id</text>
<polygon fill="#ffffff" stroke="transparent" points="91.6436,-698 91.6436,-717 190.6436,-717 190.6436,-698 91.6436,-698"/>
<text text-anchor="start" x="135.1436" y="-704.8" font-family="Times,serif" font-style="italic" font-size="14.00" fill="#000000">...</text>
<polygon fill="#000000" stroke="#000000" points="89.6436,-760 89.6436,-760 192.6436,-760 192.6436,-760 89.6436,-760"/>
</g>
<!-- simple_feature&#45;&gt;seq_region -->
<g id="edge28" class="edge">
<title>simple_feature:e&#45;&gt;seq_region:w</title>
<path fill="none" stroke="#000000" stroke-dasharray="5,2" d="M190.6436,-728C231.91,-728 236.8433,-759.479 251.6436,-798 284.764,-884.2027 273.3872,-2367.8657 279.6436,-2460 282.0412,-2495.3068 256.8121,-2538.2044 280.2277,-2546.5538"/>
<polygon fill="#000000" stroke="#000000" points="279.7432,-2550.0201 290.1436,-2548 280.7535,-2543.0934 279.7432,-2550.0201"/>
</g>
<!-- transcript -->
<g id="node31" class="node">
<title>transcript</title>
<path fill="#808000" stroke="#000000" d="M179.1436,-1630.5C179.1436,-1630.5 102.1436,-1630.5 102.1436,-1630.5 96.1436,-1630.5 90.1436,-1624.5 90.1436,-1618.5 90.1436,-1618.5 90.1436,-1545.5 90.1436,-1545.5 90.1436,-1539.5 96.1436,-1533.5 102.1436,-1533.5 102.1436,-1533.5 179.1436,-1533.5 179.1436,-1533.5 185.1436,-1533.5 191.1436,-1539.5 191.1436,-1545.5 191.1436,-1545.5 191.1436,-1618.5 191.1436,-1618.5 191.1436,-1624.5 185.1436,-1630.5 179.1436,-1630.5"/>
<text text-anchor="start" x="110.6436" y="-1609.2" font-family="Times,serif" font-size="16.00" fill="#000000">transcript</text>
<polygon fill="#ffffff" stroke="transparent" points="100.6436,-1581 100.6436,-1600 181.6436,-1600 181.6436,-1581 100.6436,-1581"/>
<text text-anchor="start" x="135.1436" y="-1587.8" font-family="Times,serif" font-style="italic" font-size="14.00" fill="#000000">...</text>
<polygon fill="#ffffff" stroke="transparent" points="100.6436,-1560 100.6436,-1579 181.6436,-1579 181.6436,-1560 100.6436,-1560"/>
<text text-anchor="start" x="102.6436" y="-1565.8" font-family="Times,serif" font-size="14.00" fill="#000000">seq_region_id</text>
<polygon fill="#ffffff" stroke="transparent" points="100.6436,-1539 100.6436,-1558 181.6436,-1558 181.6436,-1539 100.6436,-1539"/>
<text text-anchor="start" x="135.1436" y="-1545.8" font-family="Times,serif" font-style="italic" font-size="14.00" fill="#000000">...</text>
<polygon fill="#000000" stroke="#000000" points="98.6436,-1601 98.6436,-1601 183.6436,-1601 183.6436,-1601 98.6436,-1601"/>
</g>
<!-- transcript&#45;&gt;seq_region -->
<g id="edge29" class="edge">
<title>transcript:e&#45;&gt;seq_region:w</title>
<path fill="none" stroke="#000000" stroke-dasharray="5,2" d="M181.6436,-1569C346.849,-1569 211.5639,-1570.9205 279.6436,-2460 282.3455,-2495.2848 256.8739,-2538.1999 280.2371,-2546.5531"/>
<polygon fill="#000000" stroke="#000000" points="279.7428,-2550.018 290.1436,-2548 280.7545,-2543.0915 279.7428,-2550.018"/>
</g>
</g>
</svg>
