<?xml version="1.0" encoding="UTF-8" standalone="no"?>
<!DOCTYPE svg PUBLIC "-//W3C//DTD SVG 1.1//EN"
 "http://www.w3.org/Graphics/SVG/1.1/DTD/svg11.dtd">
<!-- Generated by graphviz version 2.43.0 (0)
 -->
<!-- Title: test Pages: 1 -->
<svg width="717pt" height="3513pt"
 viewBox="0.00 0.00 716.89 3513.00" xmlns="http://www.w3.org/2000/svg" xmlns:xlink="http://www.w3.org/1999/xlink">
<g id="graph0" class="graph" transform="scale(1 1) rotate(0) translate(4 3509)">
<title>test</title>
<polygon fill="white" stroke="transparent" points="-4,4 -4,-3509 712.89,-3509 712.89,4 -4,4"/>
<text text-anchor="middle" x="354.45" y="-10" font-family="Times,serif" font-size="20.00">Core schema diagram: Assembly Tables tables</text>
<g id="clust1" class="cluster">
<title>cluster_assembly_tables</title>
<path fill="#f3cecd" stroke="#f3cecd" d="M56.89,-2325C56.89,-2325 688.89,-2325 688.89,-2325 694.89,-2325 700.89,-2331 700.89,-2337 700.89,-2337 700.89,-3485 700.89,-3485 700.89,-3491 694.89,-3497 688.89,-3497 688.89,-3497 56.89,-3497 56.89,-3497 50.89,-3497 44.89,-3491 44.89,-3485 44.89,-3485 44.89,-2337 44.89,-2337 44.89,-2331 50.89,-2325 56.89,-2325"/>
<text text-anchor="middle" x="372.89" y="-3477" font-family="Times,serif" font-size="20.00">Assembly Tables</text>
</g>
<g id="clust2" class="cluster">
<title>cluster_features</title>
<polygon fill="white" stroke="white" points="29.89,-455 29.89,-1518 300.89,-1518 300.89,-455 29.89,-455"/>
<text text-anchor="middle" x="165.39" y="-1498" font-family="Times,serif" font-size="20.00">Features</text>
</g>
<g id="clust3" class="cluster">
<title>cluster_fundamental_tables</title>
<polygon fill="white" stroke="white" points="53.39,-1526 53.39,-2317 277.39,-2317 277.39,-1526 53.39,-1526"/>
<text text-anchor="middle" x="165.39" y="-2297" font-family="Times,serif" font-size="20.00">Fundamental Tables</text>
</g>
<g id="clust4" class="cluster">
<title>cluster_id_mapping</title>
<polygon fill="white" stroke="white" points="59.89,-38 59.89,-181 270.89,-181 270.89,-38 59.89,-38"/>
<text text-anchor="middle" x="165.39" y="-161" font-family="Times,serif" font-size="20.00">ID Mapping</text>
</g>
<g id="clust5" class="cluster">
<title>cluster_misc</title>
<polygon fill="white" stroke="white" points="71.39,-189 71.39,-447 259.39,-447 259.39,-189 71.39,-189"/>
<text text-anchor="middle" x="165.39" y="-427" font-family="Times,serif" font-size="20.00">Misc</text>
</g>
<!-- assembly -->
<g id="node1" class="node">
<title>assembly</title>
<path fill="#c70c09" stroke="black" d="M232.89,-3206.5C232.89,-3206.5 97.89,-3206.5 97.89,-3206.5 91.89,-3206.5 85.89,-3200.5 85.89,-3194.5 85.89,-3194.5 85.89,-3037.5 85.89,-3037.5 85.89,-3031.5 91.89,-3025.5 97.89,-3025.5 97.89,-3025.5 232.89,-3025.5 232.89,-3025.5 238.89,-3025.5 244.89,-3031.5 244.89,-3037.5 244.89,-3037.5 244.89,-3194.5 244.89,-3194.5 244.89,-3200.5 238.89,-3206.5 232.89,-3206.5"/>
<text text-anchor="start" x="127.89" y="-3185.2" font-family="Times,serif" font-size="16.00">assembly</text>
<polygon fill="white" stroke="transparent" points="96.39,-3157 96.39,-3176 235.39,-3176 235.39,-3157 96.39,-3157"/>
<text text-anchor="start" x="98.89" y="-3162.8" font-family="Times,serif" font-size="14.00">asm_seq_region_id</text>
<polygon fill="white" stroke="transparent" points="96.39,-3136 96.39,-3155 235.39,-3155 235.39,-3136 96.39,-3136"/>
<text text-anchor="start" x="98.39" y="-3141.8" font-family="Times,serif" font-size="14.00">cmp_seq_region_id</text>
<polygon fill="white" stroke="transparent" points="96.39,-3115 96.39,-3134 235.39,-3134 235.39,-3115 96.39,-3115"/>
<text text-anchor="start" x="130.39" y="-3120.8" font-family="Times,serif" font-size="14.00">asm_start</text>
<polygon fill="white" stroke="transparent" points="96.39,-3094 96.39,-3113 235.39,-3113 235.39,-3094 96.39,-3094"/>
<text text-anchor="start" x="134.39" y="-3099.8" font-family="Times,serif" font-size="14.00">asm_end</text>
<polygon fill="white" stroke="transparent" points="96.39,-3073 96.39,-3092 235.39,-3092 235.39,-3073 96.39,-3073"/>
<text text-anchor="start" x="129.89" y="-3078.8" font-family="Times,serif" font-size="14.00">cmp_start</text>
<polygon fill="white" stroke="transparent" points="96.39,-3052 96.39,-3071 235.39,-3071 235.39,-3052 96.39,-3052"/>
<text text-anchor="start" x="133.89" y="-3057.8" font-family="Times,serif" font-size="14.00">cmp_end</text>
<polygon fill="white" stroke="transparent" points="96.39,-3031 96.39,-3050 235.39,-3050 235.39,-3031 96.39,-3031"/>
<text text-anchor="start" x="155.89" y="-3036.8" font-family="Times,serif" font-size="14.00">ori</text>
<polygon fill="black" stroke="black" points="94.39,-3177 94.39,-3177 237.39,-3177 237.39,-3177 94.39,-3177"/>
</g>
<!-- seq_region -->
<g id="node10" class="node">
<title>seq_region</title>
<path fill="#c70c09" stroke="black" d="M470.89,-2587C470.89,-2587 340.89,-2587 340.89,-2587 334.89,-2587 328.89,-2581 328.89,-2575 328.89,-2575 328.89,-2481 328.89,-2481 328.89,-2475 334.89,-2469 340.89,-2469 340.89,-2469 470.89,-2469 470.89,-2469 476.89,-2469 482.89,-2475 482.89,-2481 482.89,-2481 482.89,-2575 482.89,-2575 482.89,-2581 476.89,-2587 470.89,-2587"/>
<text text-anchor="start" x="360.39" y="-2566.2" font-family="Times,serif" font-size="16.00">seq_region</text>
<polygon fill="white" stroke="transparent" points="338.89,-2538 338.89,-2557 472.89,-2557 472.89,-2538 338.89,-2538"/>
<text text-anchor="start" x="340.89" y="-2544.8" font-family="Times,serif" font-weight="bold" font-size="14.00">PK</text>
<text text-anchor="start" x="363.89" y="-2544.8" font-family="Times,serif" font-size="14.00">  seq_region_id</text>
<polygon fill="white" stroke="transparent" points="338.89,-2517 338.89,-2536 472.89,-2536 472.89,-2517 338.89,-2517"/>
<text text-anchor="start" x="385.89" y="-2522.8" font-family="Times,serif" font-size="14.00">name</text>
<polygon fill="white" stroke="transparent" points="338.89,-2496 338.89,-2515 472.89,-2515 472.89,-2496 338.89,-2496"/>
<text text-anchor="start" x="346.89" y="-2501.8" font-family="Times,serif" font-size="14.00">coord_system_id</text>
<polygon fill="white" stroke="transparent" points="338.89,-2475 338.89,-2494 472.89,-2494 472.89,-2475 338.89,-2475"/>
<text text-anchor="start" x="382.89" y="-2480.8" font-family="Times,serif" font-size="14.00">length</text>
<polygon fill="black" stroke="black" points="336.89,-2558 336.89,-2558 474.89,-2558 474.89,-2558 336.89,-2558"/>
</g>
<!-- assembly&#45;&gt;seq_region -->
<g id="edge1" class="edge">
<title>assembly:e&#45;&gt;seq_region:w</title>
<path fill="none" stroke="black" stroke-dasharray="5,2" d="M236.39,-3167C309.37,-3167 283.89,-3086.97 300.89,-3016 312.29,-2968.44 288.99,-2598.73 329.02,-2552.7"/>
<polygon fill="black" stroke="black" points="330.69,-2555.77 337.89,-2548 327.42,-2549.58 330.69,-2555.77"/>
</g>
<!-- assembly_exception -->
<g id="node2" class="node">
<title>assembly_exception</title>
<path fill="#c70c09" stroke="black" d="M262.89,-2650.5C262.89,-2650.5 67.89,-2650.5 67.89,-2650.5 61.89,-2650.5 55.89,-2644.5 55.89,-2638.5 55.89,-2638.5 55.89,-2439.5 55.89,-2439.5 55.89,-2433.5 61.89,-2427.5 67.89,-2427.5 67.89,-2427.5 262.89,-2427.5 262.89,-2427.5 268.89,-2427.5 274.89,-2433.5 274.89,-2439.5 274.89,-2439.5 274.89,-2638.5 274.89,-2638.5 274.89,-2644.5 268.89,-2650.5 262.89,-2650.5"/>
<text text-anchor="start" x="83.39" y="-2629.2" font-family="Times,serif" font-size="16.00">assembly_exception</text>
<polygon fill="white" stroke="transparent" points="66.39,-2601 66.39,-2620 265.39,-2620 265.39,-2601 66.39,-2601"/>
<text text-anchor="start" x="68.39" y="-2607.8" font-family="Times,serif" font-weight="bold" font-size="14.00">PK</text>
<text text-anchor="start" x="91.39" y="-2607.8" font-family="Times,serif" font-size="14.00">  assembly_exception_id</text>
<polygon fill="white" stroke="transparent" points="66.39,-2580 66.39,-2599 265.39,-2599 265.39,-2580 66.39,-2580"/>
<text text-anchor="start" x="116.89" y="-2585.8" font-family="Times,serif" font-size="14.00">seq_region_id</text>
<polygon fill="white" stroke="transparent" points="66.39,-2559 66.39,-2578 265.39,-2578 265.39,-2559 66.39,-2559"/>
<text text-anchor="start" x="106.39" y="-2564.8" font-family="Times,serif" font-size="14.00">seq_region_start</text>
<polygon fill="white" stroke="transparent" points="66.39,-2538 66.39,-2557 265.39,-2557 265.39,-2538 66.39,-2538"/>
<text text-anchor="start" x="110.39" y="-2543.8" font-family="Times,serif" font-size="14.00">seq_region_end</text>
<polygon fill="white" stroke="transparent" points="66.39,-2517 66.39,-2536 265.39,-2536 265.39,-2517 66.39,-2517"/>
<text text-anchor="start" x="134.39" y="-2522.8" font-family="Times,serif" font-size="14.00">exc_type</text>
<polygon fill="white" stroke="transparent" points="66.39,-2496 66.39,-2515 265.39,-2515 265.39,-2496 66.39,-2496"/>
<text text-anchor="start" x="101.39" y="-2501.8" font-family="Times,serif" font-size="14.00">exc_seq_region_id</text>
<polygon fill="white" stroke="transparent" points="66.39,-2475 66.39,-2494 265.39,-2494 265.39,-2475 66.39,-2475"/>
<text text-anchor="start" x="90.89" y="-2480.8" font-family="Times,serif" font-size="14.00">exc_seq_region_start</text>
<polygon fill="white" stroke="transparent" points="66.39,-2454 66.39,-2473 265.39,-2473 265.39,-2454 66.39,-2454"/>
<text text-anchor="start" x="94.89" y="-2459.8" font-family="Times,serif" font-size="14.00">exc_seq_region_end</text>
<polygon fill="white" stroke="transparent" points="66.39,-2433 66.39,-2452 265.39,-2452 265.39,-2433 66.39,-2433"/>
<text text-anchor="start" x="155.89" y="-2438.8" font-family="Times,serif" font-size="14.00">ori</text>
<polygon fill="black" stroke="black" points="64.39,-2621 64.39,-2621 267.39,-2621 267.39,-2621 64.39,-2621"/>
</g>
<!-- assembly_exception&#45;&gt;seq_region -->
<g id="edge2" class="edge">
<title>assembly_exception:e&#45;&gt;seq_region:w</title>
<path fill="none" stroke="black" stroke-dasharray="5,2" d="M266.39,-2505C299.71,-2505 300.94,-2539.71 327.74,-2546.76"/>
<polygon fill="black" stroke="black" points="327.54,-2550.26 337.89,-2548 328.39,-2543.31 327.54,-2550.26"/>
</g>
<!-- coord_system -->
<g id="node3" class="node">
<title>coord_system</title>
<path fill="#c70c09" stroke="black" d="M680.89,-2612C680.89,-2612 530.89,-2612 530.89,-2612 524.89,-2612 518.89,-2606 518.89,-2600 518.89,-2600 518.89,-2464 518.89,-2464 518.89,-2458 524.89,-2452 530.89,-2452 530.89,-2452 680.89,-2452 680.89,-2452 686.89,-2452 692.89,-2458 692.89,-2464 692.89,-2464 692.89,-2600 692.89,-2600 692.89,-2606 686.89,-2612 680.89,-2612"/>
<text text-anchor="start" x="549.89" y="-2591.2" font-family="Times,serif" font-size="16.00">coord_system</text>
<polygon fill="white" stroke="transparent" points="528.89,-2563 528.89,-2582 682.89,-2582 682.89,-2563 528.89,-2563"/>
<text text-anchor="start" x="530.89" y="-2569.8" font-family="Times,serif" font-weight="bold" font-size="14.00">PK</text>
<text text-anchor="start" x="553.89" y="-2569.8" font-family="Times,serif" font-size="14.00">  coord_system_id</text>
<polygon fill="white" stroke="transparent" points="528.89,-2542 528.89,-2561 682.89,-2561 682.89,-2542 528.89,-2542"/>
<text text-anchor="start" x="569.39" y="-2547.8" font-family="Times,serif" font-size="14.00">species_id</text>
<polygon fill="white" stroke="transparent" points="528.89,-2521 528.89,-2540 682.89,-2540 682.89,-2521 528.89,-2521"/>
<text text-anchor="start" x="585.89" y="-2526.8" font-family="Times,serif" font-size="14.00">name</text>
<polygon fill="white" stroke="transparent" points="528.89,-2500 528.89,-2519 682.89,-2519 682.89,-2500 528.89,-2500"/>
<text text-anchor="start" x="579.39" y="-2505.8" font-family="Times,serif" font-size="14.00">version</text>
<polygon fill="white" stroke="transparent" points="528.89,-2479 528.89,-2498 682.89,-2498 682.89,-2479 528.89,-2479"/>
<text text-anchor="start" x="589.39" y="-2484.8" font-family="Times,serif" font-size="14.00">rank</text>
<polygon fill="white" stroke="transparent" points="528.89,-2458 528.89,-2477 682.89,-2477 682.89,-2458 528.89,-2458"/>
<text text-anchor="start" x="585.39" y="-2463.8" font-family="Times,serif" font-size="14.00">attrib</text>
<polygon fill="black" stroke="black" points="526.89,-2583 526.89,-2583 684.89,-2583 684.89,-2583 526.89,-2583"/>
</g>
<!-- data_file -->
<g id="node4" class="node">
<title>data_file</title>
<path fill="#c70c09" stroke="black" d="M464.89,-2923C464.89,-2923 346.89,-2923 346.89,-2923 340.89,-2923 334.89,-2917 334.89,-2911 334.89,-2911 334.89,-2733 334.89,-2733 334.89,-2727 340.89,-2721 346.89,-2721 346.89,-2721 464.89,-2721 464.89,-2721 470.89,-2721 476.89,-2727 476.89,-2733 476.89,-2733 476.89,-2911 476.89,-2911 476.89,-2917 470.89,-2923 464.89,-2923"/>
<text text-anchor="start" x="370.39" y="-2902.2" font-family="Times,serif" font-size="16.00">data_file</text>
<polygon fill="white" stroke="transparent" points="344.89,-2874 344.89,-2893 466.89,-2893 466.89,-2874 344.89,-2874"/>
<text text-anchor="start" x="349.39" y="-2880.8" font-family="Times,serif" font-weight="bold" font-size="14.00">PK</text>
<text text-anchor="start" x="372.39" y="-2880.8" font-family="Times,serif" font-size="14.00">  data_file_id</text>
<polygon fill="white" stroke="transparent" points="344.89,-2853 344.89,-2872 466.89,-2872 466.89,-2853 344.89,-2853"/>
<text text-anchor="start" x="346.89" y="-2858.8" font-family="Times,serif" font-size="14.00">coord_system_id</text>
<polygon fill="white" stroke="transparent" points="344.89,-2832 344.89,-2851 466.89,-2851 466.89,-2832 344.89,-2832"/>
<text text-anchor="start" x="366.39" y="-2837.8" font-family="Times,serif" font-size="14.00">analysis_id</text>
<polygon fill="white" stroke="transparent" points="344.89,-2811 344.89,-2830 466.89,-2830 466.89,-2811 344.89,-2811"/>
<text text-anchor="start" x="385.89" y="-2816.8" font-family="Times,serif" font-size="14.00">name</text>
<polygon fill="white" stroke="transparent" points="344.89,-2790 344.89,-2809 466.89,-2809 466.89,-2790 344.89,-2790"/>
<text text-anchor="start" x="361.89" y="-2795.8" font-family="Times,serif" font-size="14.00">version_lock</text>
<polygon fill="white" stroke="transparent" points="344.89,-2769 344.89,-2788 466.89,-2788 466.89,-2769 344.89,-2769"/>
<text text-anchor="start" x="375.39" y="-2774.8" font-family="Times,serif" font-size="14.00">absolute</text>
<polygon fill="white" stroke="transparent" points="344.89,-2748 344.89,-2767 466.89,-2767 466.89,-2748 344.89,-2748"/>
<text text-anchor="start" x="395.39" y="-2753.8" font-family="Times,serif" font-size="14.00">url</text>
<polygon fill="white" stroke="transparent" points="344.89,-2727 344.89,-2746 466.89,-2746 466.89,-2727 344.89,-2727"/>
<text text-anchor="start" x="375.39" y="-2732.8" font-family="Times,serif" font-size="14.00">file_type</text>
<polygon fill="black" stroke="black" points="342.89,-2894 342.89,-2894 468.89,-2894 468.89,-2894 342.89,-2894"/>
</g>
<!-- data_file&#45;&gt;coord_system -->
<g id="edge4" class="edge">
<title>data_file:e&#45;&gt;coord_system:w</title>
<path fill="none" stroke="black" stroke-dasharray="5,2" d="M467.89,-2863C529.98,-2863 469.76,-2604.92 517.98,-2575.69"/>
<polygon fill="black" stroke="black" points="519.16,-2578.99 527.89,-2573 517.33,-2572.24 519.16,-2578.99"/>
</g>
<!-- analysis -->
<g id="node13" class="node">
<title>analysis</title>
<path fill="#808000" stroke="black" d="M220.89,-2279C220.89,-2279 109.89,-2279 109.89,-2279 103.89,-2279 97.89,-2273 97.89,-2267 97.89,-2267 97.89,-2215 97.89,-2215 97.89,-2209 103.89,-2203 109.89,-2203 109.89,-2203 220.89,-2203 220.89,-2203 226.89,-2203 232.89,-2209 232.89,-2215 232.89,-2215 232.89,-2267 232.89,-2267 232.89,-2273 226.89,-2279 220.89,-2279"/>
<text text-anchor="start" x="132.39" y="-2258.2" font-family="Times,serif" font-size="16.00">analysis</text>
<polygon fill="white" stroke="transparent" points="108.39,-2230 108.39,-2249 223.39,-2249 223.39,-2230 108.39,-2230"/>
<text text-anchor="start" x="110.39" y="-2236.8" font-family="Times,serif" font-weight="bold" font-size="14.00">PK</text>
<text text-anchor="start" x="133.39" y="-2236.8" font-family="Times,serif" font-size="14.00">  analysis_id</text>
<polygon fill="white" stroke="transparent" points="108.39,-2209 108.39,-2228 223.39,-2228 223.39,-2209 108.39,-2209"/>
<text text-anchor="start" x="158.89" y="-2215.8" font-family="Times,serif" font-style="italic" font-size="14.00">...</text>
<polygon fill="black" stroke="black" points="106.39,-2250 106.39,-2250 225.39,-2250 225.39,-2250 106.39,-2250"/>
</g>
<!-- data_file&#45;&gt;analysis -->
<g id="edge3" class="edge">
<title>data_file:e&#45;&gt;analysis:w</title>
<path fill="none" stroke="black" stroke-dasharray="5,2" d="M467.89,-2842C492.04,-2842 478.57,-3058.79 334.89,-2923 286.2,-2876.98 320.03,-2385.21 300.89,-2321 283.61,-2262.99 285.3,-2233.29 232.89,-2203 220.92,-2196.08 118.31,-2193.36 108.39,-2203 100.15,-2211.02 94.97,-2226.11 98.65,-2233.96"/>
<polygon fill="black" stroke="black" points="96.98,-2237.04 107.39,-2239 100.48,-2230.97 96.98,-2237.04"/>
</g>
<!-- dna -->
<g id="node5" class="node">
<title>dna</title>
<path fill="#c70c09" stroke="black" d="M230.39,-2409C230.39,-2409 100.39,-2409 100.39,-2409 94.39,-2409 88.39,-2403 88.39,-2397 88.39,-2397 88.39,-2345 88.39,-2345 88.39,-2339 94.39,-2333 100.39,-2333 100.39,-2333 230.39,-2333 230.39,-2333 236.39,-2333 242.39,-2339 242.39,-2345 242.39,-2345 242.39,-2397 242.39,-2397 242.39,-2403 236.39,-2409 230.39,-2409"/>
<text text-anchor="start" x="149.89" y="-2388.2" font-family="Times,serif" font-size="16.00">dna</text>
<polygon fill="white" stroke="transparent" points="98.39,-2360 98.39,-2379 232.39,-2379 232.39,-2360 98.39,-2360"/>
<text text-anchor="start" x="100.39" y="-2366.8" font-family="Times,serif" font-weight="bold" font-size="14.00">PK</text>
<text text-anchor="start" x="123.39" y="-2366.8" font-family="Times,serif" font-size="14.00">  seq_region_id</text>
<polygon fill="white" stroke="transparent" points="98.39,-2339 98.39,-2358 232.39,-2358 232.39,-2339 98.39,-2339"/>
<text text-anchor="start" x="131.89" y="-2344.8" font-family="Times,serif" font-size="14.00">sequence</text>
<polygon fill="black" stroke="black" points="96.39,-2380 96.39,-2380 234.39,-2380 234.39,-2380 96.39,-2380"/>
</g>
<!-- dna&#45;&gt;seq_region -->
<g id="edge7" class="edge">
<title>dna:e&#45;&gt;seq_region:w</title>
<path fill="none" stroke="black" stroke-dasharray="5,2" d="M233.39,-2369C270.73,-2369 279.62,-2388.32 300.89,-2419 332.69,-2464.86 285.17,-2537.82 327.75,-2547.03"/>
<polygon fill="black" stroke="black" points="327.61,-2550.53 337.89,-2548 328.27,-2543.57 327.61,-2550.53"/>
</g>
<!-- genome_statistics -->
<g id="node6" class="node">
<title>genome_statistics</title>
<path fill="#c70c09" stroke="black" d="M255.89,-3007C255.89,-3007 74.89,-3007 74.89,-3007 68.89,-3007 62.89,-3001 62.89,-2995 62.89,-2995 62.89,-2859 62.89,-2859 62.89,-2853 68.89,-2847 74.89,-2847 74.89,-2847 255.89,-2847 255.89,-2847 261.89,-2847 267.89,-2853 267.89,-2859 267.89,-2859 267.89,-2995 267.89,-2995 267.89,-3001 261.89,-3007 255.89,-3007"/>
<text text-anchor="start" x="91.89" y="-2986.2" font-family="Times,serif" font-size="16.00">genome_statistics</text>
<polygon fill="white" stroke="transparent" points="73.39,-2958 73.39,-2977 258.39,-2977 258.39,-2958 73.39,-2958"/>
<text text-anchor="start" x="75.39" y="-2964.8" font-family="Times,serif" font-weight="bold" font-size="14.00">PK</text>
<text text-anchor="start" x="98.39" y="-2964.8" font-family="Times,serif" font-size="14.00">  genome_statistics_id</text>
<polygon fill="white" stroke="transparent" points="73.39,-2937 73.39,-2956 258.39,-2956 258.39,-2937 73.39,-2937"/>
<text text-anchor="start" x="136.89" y="-2942.8" font-family="Times,serif" font-size="14.00">statistic</text>
<polygon fill="white" stroke="transparent" points="73.39,-2916 73.39,-2935 258.39,-2935 258.39,-2916 73.39,-2916"/>
<text text-anchor="start" x="146.39" y="-2921.8" font-family="Times,serif" font-size="14.00">value</text>
<polygon fill="white" stroke="transparent" points="73.39,-2895 73.39,-2914 258.39,-2914 258.39,-2895 73.39,-2895"/>
<text text-anchor="start" x="129.39" y="-2900.8" font-family="Times,serif" font-size="14.00">species_id</text>
<polygon fill="white" stroke="transparent" points="73.39,-2874 73.39,-2893 258.39,-2893 258.39,-2874 73.39,-2874"/>
<text text-anchor="start" x="115.89" y="-2879.8" font-family="Times,serif" font-size="14.00">attrib_type_id</text>
<polygon fill="white" stroke="transparent" points="73.39,-2853 73.39,-2872 258.39,-2872 258.39,-2853 73.39,-2853"/>
<text text-anchor="start" x="127.39" y="-2858.8" font-family="Times,serif" font-size="14.00">timestamp</text>
<polygon fill="black" stroke="black" points="71.39,-2978 71.39,-2978 260.39,-2978 260.39,-2978 71.39,-2978"/>
</g>
<!-- karyotype -->
<g id="node7" class="node">
<title>karyotype</title>
<path fill="#c70c09" stroke="black" d="M227.39,-2829C227.39,-2829 103.39,-2829 103.39,-2829 97.39,-2829 91.39,-2823 91.39,-2817 91.39,-2817 91.39,-2681 91.39,-2681 91.39,-2675 97.39,-2669 103.39,-2669 103.39,-2669 227.39,-2669 227.39,-2669 233.39,-2669 239.39,-2675 239.39,-2681 239.39,-2681 239.39,-2817 239.39,-2817 239.39,-2823 233.39,-2829 227.39,-2829"/>
<text text-anchor="start" x="124.39" y="-2808.2" font-family="Times,serif" font-size="16.00">karyotype</text>
<polygon fill="white" stroke="transparent" points="101.39,-2780 101.39,-2799 229.39,-2799 229.39,-2780 101.39,-2780"/>
<text text-anchor="start" x="103.39" y="-2786.8" font-family="Times,serif" font-weight="bold" font-size="14.00">PK</text>
<text text-anchor="start" x="126.39" y="-2786.8" font-family="Times,serif" font-size="14.00">  karyotype_id</text>
<polygon fill="white" stroke="transparent" points="101.39,-2759 101.39,-2778 229.39,-2778 229.39,-2759 101.39,-2759"/>
<text text-anchor="start" x="116.39" y="-2764.8" font-family="Times,serif" font-size="14.00">seq_region_id</text>
<polygon fill="white" stroke="transparent" points="101.39,-2738 101.39,-2757 229.39,-2757 229.39,-2738 101.39,-2738"/>
<text text-anchor="start" x="105.89" y="-2743.8" font-family="Times,serif" font-size="14.00">seq_region_start</text>
<polygon fill="white" stroke="transparent" points="101.39,-2717 101.39,-2736 229.39,-2736 229.39,-2717 101.39,-2717"/>
<text text-anchor="start" x="109.89" y="-2722.8" font-family="Times,serif" font-size="14.00">seq_region_end</text>
<polygon fill="white" stroke="transparent" points="101.39,-2696 101.39,-2715 229.39,-2715 229.39,-2696 101.39,-2696"/>
<text text-anchor="start" x="147.39" y="-2701.8" font-family="Times,serif" font-size="14.00">band</text>
<polygon fill="white" stroke="transparent" points="101.39,-2675 101.39,-2694 229.39,-2694 229.39,-2675 101.39,-2675"/>
<text text-anchor="start" x="147.39" y="-2680.8" font-family="Times,serif" font-size="14.00">stain</text>
<polygon fill="black" stroke="black" points="99.39,-2800 99.39,-2800 231.39,-2800 231.39,-2800 99.39,-2800"/>
</g>
<!-- karyotype&#45;&gt;seq_region -->
<g id="edge12" class="edge">
<title>karyotype:e&#45;&gt;seq_region:w</title>
<path fill="none" stroke="black" stroke-dasharray="5,2" d="M230.39,-2769C288.09,-2769 275.98,-2712.04 300.89,-2660 321.85,-2616.23 290.79,-2557.51 327.65,-2549.04"/>
<polygon fill="black" stroke="black" points="328.3,-2552.49 337.89,-2548 327.59,-2545.52 328.3,-2552.49"/>
</g>
<!-- meta -->
<g id="node8" class="node">
<title>meta</title>
<path fill="#c70c09" stroke="black" d="M450.39,-2451C450.39,-2451 361.39,-2451 361.39,-2451 355.39,-2451 349.39,-2445 349.39,-2439 349.39,-2439 349.39,-2345 349.39,-2345 349.39,-2339 355.39,-2333 361.39,-2333 361.39,-2333 450.39,-2333 450.39,-2333 456.39,-2333 462.39,-2339 462.39,-2345 462.39,-2345 462.39,-2439 462.39,-2439 462.39,-2445 456.39,-2451 450.39,-2451"/>
<text text-anchor="start" x="385.39" y="-2430.2" font-family="Times,serif" font-size="16.00">meta</text>
<polygon fill="white" stroke="transparent" points="359.89,-2402 359.89,-2421 452.89,-2421 452.89,-2402 359.89,-2402"/>
<text text-anchor="start" x="361.89" y="-2408.8" font-family="Times,serif" font-weight="bold" font-size="14.00">PK</text>
<text text-anchor="start" x="384.89" y="-2408.8" font-family="Times,serif" font-size="14.00">  meta_id</text>
<polygon fill="white" stroke="transparent" points="359.89,-2381 359.89,-2400 452.89,-2400 452.89,-2381 359.89,-2381"/>
<text text-anchor="start" x="369.89" y="-2386.8" font-family="Times,serif" font-size="14.00">species_id</text>
<polygon fill="white" stroke="transparent" points="359.89,-2360 359.89,-2379 452.89,-2379 452.89,-2360 359.89,-2360"/>
<text text-anchor="start" x="372.39" y="-2365.8" font-family="Times,serif" font-size="14.00">meta_key</text>
<polygon fill="white" stroke="transparent" points="359.89,-2339 359.89,-2358 452.89,-2358 452.89,-2339 359.89,-2339"/>
<text text-anchor="start" x="365.39" y="-2344.8" font-family="Times,serif" font-size="14.00">meta_value</text>
<polygon fill="black" stroke="black" points="357.89,-2422 357.89,-2422 454.89,-2422 454.89,-2422 357.89,-2422"/>
</g>
<!-- meta&#45;&gt;coord_system -->
<g id="edge14" class="edge">
<title>meta:e&#45;&gt;coord_system:w</title>
<path fill="none" stroke="black" stroke-dasharray="5,2" d="M453.89,-2390C529.34,-2390 456.28,-2537.17 517.81,-2550.97"/>
<polygon fill="black" stroke="black" points="517.59,-2554.46 527.89,-2552 518.3,-2547.5 517.59,-2554.46"/>
</g>
<!-- meta_coord -->
<g id="node9" class="node">
<title>meta_coord</title>
<path fill="#c70c09" stroke="black" d="M464.89,-2702.5C464.89,-2702.5 346.89,-2702.5 346.89,-2702.5 340.89,-2702.5 334.89,-2696.5 334.89,-2690.5 334.89,-2690.5 334.89,-2617.5 334.89,-2617.5 334.89,-2611.5 340.89,-2605.5 346.89,-2605.5 346.89,-2605.5 464.89,-2605.5 464.89,-2605.5 470.89,-2605.5 476.89,-2611.5 476.89,-2617.5 476.89,-2617.5 476.89,-2690.5 476.89,-2690.5 476.89,-2696.5 470.89,-2702.5 464.89,-2702.5"/>
<text text-anchor="start" x="357.39" y="-2681.2" font-family="Times,serif" font-size="16.00">meta_coord</text>
<polygon fill="white" stroke="transparent" points="344.89,-2653 344.89,-2672 466.89,-2672 466.89,-2653 344.89,-2653"/>
<text text-anchor="start" x="364.89" y="-2658.8" font-family="Times,serif" font-size="14.00">table_name</text>
<polygon fill="white" stroke="transparent" points="344.89,-2632 344.89,-2651 466.89,-2651 466.89,-2632 344.89,-2632"/>
<text text-anchor="start" x="346.89" y="-2637.8" font-family="Times,serif" font-size="14.00">coord_system_id</text>
<polygon fill="white" stroke="transparent" points="344.89,-2611 344.89,-2630 466.89,-2630 466.89,-2611 344.89,-2611"/>
<text text-anchor="start" x="364.39" y="-2616.8" font-family="Times,serif" font-size="14.00">max_length</text>
<polygon fill="black" stroke="black" points="342.89,-2673 342.89,-2673 468.89,-2673 468.89,-2673 342.89,-2673"/>
</g>
<!-- meta_coord&#45;&gt;coord_system -->
<g id="edge15" class="edge">
<title>meta_coord:e&#45;&gt;coord_system:w</title>
<path fill="none" stroke="black" stroke-dasharray="5,2" d="M467.89,-2641C504.26,-2641 491.03,-2585.63 517.72,-2574.82"/>
<polygon fill="black" stroke="black" points="518.67,-2578.2 527.89,-2573 517.43,-2571.31 518.67,-2578.2"/>
</g>
<!-- seq_region&#45;&gt;coord_system -->
<g id="edge23" class="edge">
<title>seq_region:e&#45;&gt;coord_system:w</title>
<path fill="none" stroke="black" stroke-dasharray="5,2" d="M473.89,-2505C508.57,-2505 493.37,-2559.89 517.92,-2571.04"/>
<polygon fill="black" stroke="black" points="517.41,-2574.5 527.89,-2573 518.76,-2567.64 517.41,-2574.5"/>
</g>
<!-- seq_region_attrib -->
<g id="node11" class="node">
<title>seq_region_attrib</title>
<path fill="#c70c09" stroke="black" d="M237.89,-3458.5C237.89,-3458.5 92.89,-3458.5 92.89,-3458.5 86.89,-3458.5 80.89,-3452.5 80.89,-3446.5 80.89,-3446.5 80.89,-3373.5 80.89,-3373.5 80.89,-3367.5 86.89,-3361.5 92.89,-3361.5 92.89,-3361.5 237.89,-3361.5 237.89,-3361.5 243.89,-3361.5 249.89,-3367.5 249.89,-3373.5 249.89,-3373.5 249.89,-3446.5 249.89,-3446.5 249.89,-3452.5 243.89,-3458.5 237.89,-3458.5"/>
<text text-anchor="start" x="93.39" y="-3437.2" font-family="Times,serif" font-size="16.00">seq_region_attrib</text>
<polygon fill="white" stroke="transparent" points="91.39,-3409 91.39,-3428 240.39,-3428 240.39,-3409 91.39,-3409"/>
<text text-anchor="start" x="116.89" y="-3414.8" font-family="Times,serif" font-size="14.00">seq_region_id</text>
<polygon fill="white" stroke="transparent" points="91.39,-3388 91.39,-3407 240.39,-3407 240.39,-3388 91.39,-3388"/>
<text text-anchor="start" x="115.89" y="-3393.8" font-family="Times,serif" font-size="14.00">attrib_type_id</text>
<polygon fill="white" stroke="transparent" points="91.39,-3367 91.39,-3386 240.39,-3386 240.39,-3367 91.39,-3367"/>
<text text-anchor="start" x="146.39" y="-3372.8" font-family="Times,serif" font-size="14.00">value</text>
<polygon fill="black" stroke="black" points="89.39,-3429 89.39,-3429 242.39,-3429 242.39,-3429 89.39,-3429"/>
</g>
<!-- seq_region_attrib&#45;&gt;seq_region -->
<g id="edge25" class="edge">
<title>seq_region_attrib:e&#45;&gt;seq_region:w</title>
<path fill="none" stroke="black" stroke-dasharray="5,2" d="M241.39,-3419C281.22,-3419 286.06,-3388.96 300.89,-3352 316.57,-3312.93 295.89,-2634.88 330.72,-2555.56"/>
<polygon fill="black" stroke="black" points="333.55,-2557.66 337.89,-2548 328.47,-2552.84 333.55,-2557.66"/>
</g>
<!-- attrib_type -->
<g id="node14" class="node">
<title>attrib_type</title>
<path fill="#808000" stroke="black" d="M231.39,-2185C231.39,-2185 99.39,-2185 99.39,-2185 93.39,-2185 87.39,-2179 87.39,-2173 87.39,-2173 87.39,-2121 87.39,-2121 87.39,-2115 93.39,-2109 99.39,-2109 99.39,-2109 231.39,-2109 231.39,-2109 237.39,-2109 243.39,-2115 243.39,-2121 243.39,-2121 243.39,-2173 243.39,-2173 243.39,-2179 237.39,-2185 231.39,-2185"/>
<text text-anchor="start" x="119.89" y="-2164.2" font-family="Times,serif" font-size="16.00">attrib_type</text>
<polygon fill="white" stroke="transparent" points="97.39,-2136 97.39,-2155 233.39,-2155 233.39,-2136 97.39,-2136"/>
<text text-anchor="start" x="99.39" y="-2142.8" font-family="Times,serif" font-weight="bold" font-size="14.00">PK</text>
<text text-anchor="start" x="122.39" y="-2142.8" font-family="Times,serif" font-size="14.00">  attrib_type_id</text>
<polygon fill="white" stroke="transparent" points="97.39,-2115 97.39,-2134 233.39,-2134 233.39,-2115 97.39,-2115"/>
<text text-anchor="start" x="158.39" y="-2121.8" font-family="Times,serif" font-style="italic" font-size="14.00">...</text>
<polygon fill="black" stroke="black" points="95.39,-2156 95.39,-2156 235.39,-2156 235.39,-2156 95.39,-2156"/>
</g>
<!-- seq_region_attrib&#45;&gt;attrib_type -->
<g id="edge24" class="edge">
<title>seq_region_attrib:e&#45;&gt;attrib_type:w</title>
<path fill="none" stroke="black" stroke-dasharray="5,2" d="M249.89,-3397C266.56,-3397 261.48,-3371.48 249.89,-3359.5 241.4,-3350.71 41.75,-3355.01 29.89,-3352 21.23,-3349.8 16.6,-3350.61 11.89,-3343 -4.75,-3316.06 -2.86,-2231.02 11.89,-2203 31.46,-2165.84 48.05,-2147.9 86.21,-2145.33"/>
<polygon fill="black" stroke="black" points="86.51,-2148.82 96.39,-2145 86.29,-2141.82 86.51,-2148.82"/>
</g>
<!-- seq_region_synonym -->
<g id="node12" class="node">
<title>seq_region_synonym</title>
<path fill="#c70c09" stroke="black" d="M265.89,-3343C265.89,-3343 64.89,-3343 64.89,-3343 58.89,-3343 52.89,-3337 52.89,-3331 52.89,-3331 52.89,-3237 52.89,-3237 52.89,-3231 58.89,-3225 64.89,-3225 64.89,-3225 265.89,-3225 265.89,-3225 271.89,-3225 277.89,-3231 277.89,-3237 277.89,-3237 277.89,-3331 277.89,-3331 277.89,-3337 271.89,-3343 265.89,-3343"/>
<text text-anchor="start" x="80.39" y="-3322.2" font-family="Times,serif" font-size="16.00">seq_region_synonym</text>
<polygon fill="white" stroke="transparent" points="63.39,-3294 63.39,-3313 268.39,-3313 268.39,-3294 63.39,-3294"/>
<text text-anchor="start" x="65.39" y="-3300.8" font-family="Times,serif" font-weight="bold" font-size="14.00">PK</text>
<text text-anchor="start" x="88.39" y="-3300.8" font-family="Times,serif" font-size="14.00">  seq_region_synonym_id</text>
<polygon fill="white" stroke="transparent" points="63.39,-3273 63.39,-3292 268.39,-3292 268.39,-3273 63.39,-3273"/>
<text text-anchor="start" x="116.89" y="-3278.8" font-family="Times,serif" font-size="14.00">seq_region_id</text>
<polygon fill="white" stroke="transparent" points="63.39,-3252 63.39,-3271 268.39,-3271 268.39,-3252 63.39,-3252"/>
<text text-anchor="start" x="133.89" y="-3257.8" font-family="Times,serif" font-size="14.00">synonym</text>
<polygon fill="white" stroke="transparent" points="63.39,-3231 63.39,-3250 268.39,-3250 268.39,-3231 63.39,-3231"/>
<text text-anchor="start" x="113.39" y="-3236.8" font-family="Times,serif" font-size="14.00">external_db_id</text>
<polygon fill="black" stroke="black" points="61.39,-3314 61.39,-3314 270.39,-3314 270.39,-3314 61.39,-3314"/>
</g>
<!-- seq_region_synonym&#45;&gt;seq_region -->
<g id="edge27" class="edge">
<title>seq_region_synonym:e&#45;&gt;seq_region:w</title>
<path fill="none" stroke="black" stroke-dasharray="5,2" d="M269.39,-3282C301.9,-3282 293,-3247.53 300.89,-3216 309.34,-3182.27 301.84,-2626.99 331.27,-2555.55"/>
<polygon fill="black" stroke="black" points="333.93,-2557.82 337.89,-2548 328.67,-2553.21 333.93,-2557.82"/>
</g>
<!-- density_feature -->
<g id="node15" class="node">
<title>density_feature</title>
<path fill="#3cb371" stroke="black" d="M229.89,-674.5C229.89,-674.5 100.89,-674.5 100.89,-674.5 94.89,-674.5 88.89,-668.5 88.89,-662.5 88.89,-662.5 88.89,-589.5 88.89,-589.5 88.89,-583.5 94.89,-577.5 100.89,-577.5 100.89,-577.5 229.89,-577.5 229.89,-577.5 235.89,-577.5 241.89,-583.5 241.89,-589.5 241.89,-589.5 241.89,-662.5 241.89,-662.5 241.89,-668.5 235.89,-674.5 229.89,-674.5"/>
<text text-anchor="start" x="101.39" y="-653.2" font-family="Times,serif" font-size="16.00">density_feature</text>
<polygon fill="white" stroke="transparent" points="99.39,-625 99.39,-644 232.39,-644 232.39,-625 99.39,-625"/>
<text text-anchor="start" x="158.89" y="-631.8" font-family="Times,serif" font-style="italic" font-size="14.00">...</text>
<polygon fill="white" stroke="transparent" points="99.39,-604 99.39,-623 232.39,-623 232.39,-604 99.39,-604"/>
<text text-anchor="start" x="116.89" y="-609.8" font-family="Times,serif" font-size="14.00">seq_region_id</text>
<polygon fill="white" stroke="transparent" points="99.39,-583 99.39,-602 232.39,-602 232.39,-583 99.39,-583"/>
<text text-anchor="start" x="158.89" y="-589.8" font-family="Times,serif" font-style="italic" font-size="14.00">...</text>
<polygon fill="black" stroke="black" points="97.39,-645 97.39,-645 234.39,-645 234.39,-645 97.39,-645"/>
</g>
<!-- density_feature&#45;&gt;seq_region -->
<g id="edge5" class="edge">
<title>density_feature:e&#45;&gt;seq_region:w</title>
<path fill="none" stroke="black" stroke-dasharray="5,2" d="M233.39,-613C276.61,-613 284.4,-643.05 300.89,-683 338.57,-774.26 323.09,-2361.44 328.89,-2460 330.96,-2495.11 305.07,-2537.82 327.73,-2546.44"/>
<polygon fill="black" stroke="black" points="327.48,-2549.94 337.89,-2548 328.54,-2543.02 327.48,-2549.94"/>
</g>
<!-- ditag_feature -->
<g id="node16" class="node">
<title>ditag_feature</title>
<path fill="#3cb371" stroke="black" d="M221.39,-559.5C221.39,-559.5 109.39,-559.5 109.39,-559.5 103.39,-559.5 97.39,-553.5 97.39,-547.5 97.39,-547.5 97.39,-474.5 97.39,-474.5 97.39,-468.5 103.39,-462.5 109.39,-462.5 109.39,-462.5 221.39,-462.5 221.39,-462.5 227.39,-462.5 233.39,-468.5 233.39,-474.5 233.39,-474.5 233.39,-547.5 233.39,-547.5 233.39,-553.5 227.39,-559.5 221.39,-559.5"/>
<text text-anchor="start" x="109.39" y="-538.2" font-family="Times,serif" font-size="16.00">ditag_feature</text>
<polygon fill="white" stroke="transparent" points="107.39,-510 107.39,-529 223.39,-529 223.39,-510 107.39,-510"/>
<text text-anchor="start" x="158.39" y="-516.8" font-family="Times,serif" font-style="italic" font-size="14.00">...</text>
<polygon fill="white" stroke="transparent" points="107.39,-489 107.39,-508 223.39,-508 223.39,-489 107.39,-489"/>
<text text-anchor="start" x="116.39" y="-494.8" font-family="Times,serif" font-size="14.00">seq_region_id</text>
<polygon fill="white" stroke="transparent" points="107.39,-468 107.39,-487 223.39,-487 223.39,-468 107.39,-468"/>
<text text-anchor="start" x="158.39" y="-474.8" font-family="Times,serif" font-style="italic" font-size="14.00">...</text>
<polygon fill="black" stroke="black" points="105.39,-530 105.39,-530 225.39,-530 225.39,-530 105.39,-530"/>
</g>
<!-- ditag_feature&#45;&gt;seq_region -->
<g id="edge6" class="edge">
<title>ditag_feature:e&#45;&gt;seq_region:w</title>
<path fill="none" stroke="black" stroke-dasharray="5,2" d="M224.39,-498C270.48,-498 282.01,-525.96 300.89,-568 343.98,-663.89 322.76,-2355.06 328.89,-2460 330.95,-2495.11 305.07,-2537.82 327.73,-2546.44"/>
<polygon fill="black" stroke="black" points="327.48,-2549.94 337.89,-2548 328.54,-2543.02 327.48,-2549.94"/>
</g>
<!-- dna_align_feature -->
<g id="node17" class="node">
<title>dna_align_feature</title>
<path fill="#808000" stroke="black" d="M239.89,-2090.5C239.89,-2090.5 90.89,-2090.5 90.89,-2090.5 84.89,-2090.5 78.89,-2084.5 78.89,-2078.5 78.89,-2078.5 78.89,-2005.5 78.89,-2005.5 78.89,-1999.5 84.89,-1993.5 90.89,-1993.5 90.89,-1993.5 239.89,-1993.5 239.89,-1993.5 245.89,-1993.5 251.89,-1999.5 251.89,-2005.5 251.89,-2005.5 251.89,-2078.5 251.89,-2078.5 251.89,-2084.5 245.89,-2090.5 239.89,-2090.5"/>
<text text-anchor="start" x="91.39" y="-2069.2" font-family="Times,serif" font-size="16.00">dna_align_feature</text>
<polygon fill="white" stroke="transparent" points="89.39,-2041 89.39,-2060 242.39,-2060 242.39,-2041 89.39,-2041"/>
<text text-anchor="start" x="158.89" y="-2047.8" font-family="Times,serif" font-style="italic" font-size="14.00">...</text>
<polygon fill="white" stroke="transparent" points="89.39,-2020 89.39,-2039 242.39,-2039 242.39,-2020 89.39,-2020"/>
<text text-anchor="start" x="116.89" y="-2025.8" font-family="Times,serif" font-size="14.00">seq_region_id</text>
<polygon fill="white" stroke="transparent" points="89.39,-1999 89.39,-2018 242.39,-2018 242.39,-1999 89.39,-1999"/>
<text text-anchor="start" x="158.89" y="-2005.8" font-family="Times,serif" font-style="italic" font-size="14.00">...</text>
<polygon fill="black" stroke="black" points="87.39,-2061 87.39,-2061 244.39,-2061 244.39,-2061 87.39,-2061"/>
</g>
<!-- dna_align_feature&#45;&gt;seq_region -->
<g id="edge8" class="edge">
<title>dna_align_feature:e&#45;&gt;seq_region:w</title>
<path fill="none" stroke="black" stroke-dasharray="5,2" d="M243.39,-2029C284,-2029 285.86,-2062.28 300.89,-2100 330.6,-2174.54 321.7,-2380.08 328.89,-2460 332.05,-2495.03 305.3,-2537.8 327.77,-2546.44"/>
<polygon fill="black" stroke="black" points="327.48,-2549.94 337.89,-2548 328.54,-2543.02 327.48,-2549.94"/>
</g>
<!-- exon -->
<g id="node18" class="node">
<title>exon</title>
<path fill="#808000" stroke="black" d="M214.39,-1975.5C214.39,-1975.5 116.39,-1975.5 116.39,-1975.5 110.39,-1975.5 104.39,-1969.5 104.39,-1963.5 104.39,-1963.5 104.39,-1890.5 104.39,-1890.5 104.39,-1884.5 110.39,-1878.5 116.39,-1878.5 116.39,-1878.5 214.39,-1878.5 214.39,-1878.5 220.39,-1878.5 226.39,-1884.5 226.39,-1890.5 226.39,-1890.5 226.39,-1963.5 226.39,-1963.5 226.39,-1969.5 220.39,-1975.5 214.39,-1975.5"/>
<text text-anchor="start" x="145.39" y="-1954.2" font-family="Times,serif" font-size="16.00">exon</text>
<polygon fill="white" stroke="transparent" points="114.39,-1926 114.39,-1945 216.39,-1945 216.39,-1926 114.39,-1926"/>
<text text-anchor="start" x="158.39" y="-1932.8" font-family="Times,serif" font-style="italic" font-size="14.00">...</text>
<polygon fill="white" stroke="transparent" points="114.39,-1905 114.39,-1924 216.39,-1924 216.39,-1905 114.39,-1905"/>
<text text-anchor="start" x="116.39" y="-1910.8" font-family="Times,serif" font-size="14.00">seq_region_id</text>
<polygon fill="white" stroke="transparent" points="114.39,-1884 114.39,-1903 216.39,-1903 216.39,-1884 114.39,-1884"/>
<text text-anchor="start" x="158.39" y="-1890.8" font-family="Times,serif" font-style="italic" font-size="14.00">...</text>
<polygon fill="black" stroke="black" points="112.39,-1946 112.39,-1946 218.39,-1946 218.39,-1946 112.39,-1946"/>
</g>
<!-- exon&#45;&gt;seq_region -->
<g id="edge9" class="edge">
<title>exon:e&#45;&gt;seq_region:w</title>
<path fill="none" stroke="black" stroke-dasharray="5,2" d="M217.39,-1914C265.82,-1914 279.14,-1940.74 300.89,-1984 327.57,-2037.04 280.75,-2493.8 328.61,-2543.6"/>
<polygon fill="black" stroke="black" points="327.36,-2546.88 337.89,-2548 330.36,-2540.56 327.36,-2546.88"/>
</g>
<!-- gene -->
<g id="node19" class="node">
<title>gene</title>
<path fill="#808000" stroke="black" d="M214.39,-1860.5C214.39,-1860.5 116.39,-1860.5 116.39,-1860.5 110.39,-1860.5 104.39,-1854.5 104.39,-1848.5 104.39,-1848.5 104.39,-1775.5 104.39,-1775.5 104.39,-1769.5 110.39,-1763.5 116.39,-1763.5 116.39,-1763.5 214.39,-1763.5 214.39,-1763.5 220.39,-1763.5 226.39,-1769.5 226.39,-1775.5 226.39,-1775.5 226.39,-1848.5 226.39,-1848.5 226.39,-1854.5 220.39,-1860.5 214.39,-1860.5"/>
<text text-anchor="start" x="144.89" y="-1839.2" font-family="Times,serif" font-size="16.00">gene</text>
<polygon fill="white" stroke="transparent" points="114.39,-1811 114.39,-1830 216.39,-1830 216.39,-1811 114.39,-1811"/>
<text text-anchor="start" x="158.39" y="-1817.8" font-family="Times,serif" font-style="italic" font-size="14.00">...</text>
<polygon fill="white" stroke="transparent" points="114.39,-1790 114.39,-1809 216.39,-1809 216.39,-1790 114.39,-1790"/>
<text text-anchor="start" x="116.39" y="-1795.8" font-family="Times,serif" font-size="14.00">seq_region_id</text>
<polygon fill="white" stroke="transparent" points="114.39,-1769 114.39,-1788 216.39,-1788 216.39,-1769 114.39,-1769"/>
<text text-anchor="start" x="158.39" y="-1775.8" font-family="Times,serif" font-style="italic" font-size="14.00">...</text>
<polygon fill="black" stroke="black" points="112.39,-1831 112.39,-1831 218.39,-1831 218.39,-1831 112.39,-1831"/>
</g>
<!-- gene&#45;&gt;seq_region -->
<g id="edge10" class="edge">
<title>gene:e&#45;&gt;seq_region:w</title>
<path fill="none" stroke="black" stroke-dasharray="5,2" d="M217.39,-1799C265.82,-1799 279.38,-1825.61 300.89,-1869 330.09,-1927.9 323.99,-2394.44 328.89,-2460 331.52,-2495.07 305.19,-2537.81 327.75,-2546.44"/>
<polygon fill="black" stroke="black" points="327.48,-2549.94 337.89,-2548 328.54,-2543.02 327.48,-2549.94"/>
</g>
<!-- intron_supporting_evidence -->
<g id="node20" class="node">
<title>intron_supporting_evidence</title>
<path fill="#3cb371" stroke="black" d="M280.89,-1479.5C280.89,-1479.5 49.89,-1479.5 49.89,-1479.5 43.89,-1479.5 37.89,-1473.5 37.89,-1467.5 37.89,-1467.5 37.89,-1394.5 37.89,-1394.5 37.89,-1388.5 43.89,-1382.5 49.89,-1382.5 49.89,-1382.5 280.89,-1382.5 280.89,-1382.5 286.89,-1382.5 292.89,-1388.5 292.89,-1394.5 292.89,-1394.5 292.89,-1467.5 292.89,-1467.5 292.89,-1473.5 286.89,-1479.5 280.89,-1479.5"/>
<text text-anchor="start" x="50.39" y="-1458.2" font-family="Times,serif" font-size="16.00">intron_supporting_evidence</text>
<polygon fill="white" stroke="transparent" points="48.39,-1430 48.39,-1449 283.39,-1449 283.39,-1430 48.39,-1430"/>
<text text-anchor="start" x="158.89" y="-1436.8" font-family="Times,serif" font-style="italic" font-size="14.00">...</text>
<polygon fill="white" stroke="transparent" points="48.39,-1409 48.39,-1428 283.39,-1428 283.39,-1409 48.39,-1409"/>
<text text-anchor="start" x="116.89" y="-1414.8" font-family="Times,serif" font-size="14.00">seq_region_id</text>
<polygon fill="white" stroke="transparent" points="48.39,-1388 48.39,-1407 283.39,-1407 283.39,-1388 48.39,-1388"/>
<text text-anchor="start" x="158.89" y="-1394.8" font-family="Times,serif" font-style="italic" font-size="14.00">...</text>
<polygon fill="black" stroke="black" points="46.39,-1450 46.39,-1450 285.39,-1450 285.39,-1450 46.39,-1450"/>
</g>
<!-- intron_supporting_evidence&#45;&gt;seq_region -->
<g id="edge11" class="edge">
<title>intron_supporting_evidence:e&#45;&gt;seq_region:w</title>
<path fill="none" stroke="black" stroke-dasharray="5,2" d="M284.39,-1418C344.42,-1418 281.26,-2448.76 330.22,-2541.36"/>
<polygon fill="black" stroke="black" points="328.04,-2544.11 337.89,-2548 332.62,-2538.81 328.04,-2544.11"/>
</g>
<!-- marker_feature -->
<g id="node21" class="node">
<title>marker_feature</title>
<path fill="#3cb371" stroke="black" d="M229.39,-1364.5C229.39,-1364.5 101.39,-1364.5 101.39,-1364.5 95.39,-1364.5 89.39,-1358.5 89.39,-1352.5 89.39,-1352.5 89.39,-1279.5 89.39,-1279.5 89.39,-1273.5 95.39,-1267.5 101.39,-1267.5 101.39,-1267.5 229.39,-1267.5 229.39,-1267.5 235.39,-1267.5 241.39,-1273.5 241.39,-1279.5 241.39,-1279.5 241.39,-1352.5 241.39,-1352.5 241.39,-1358.5 235.39,-1364.5 229.39,-1364.5"/>
<text text-anchor="start" x="101.39" y="-1343.2" font-family="Times,serif" font-size="16.00">marker_feature</text>
<polygon fill="white" stroke="transparent" points="99.39,-1315 99.39,-1334 231.39,-1334 231.39,-1315 99.39,-1315"/>
<text text-anchor="start" x="158.39" y="-1321.8" font-family="Times,serif" font-style="italic" font-size="14.00">...</text>
<polygon fill="white" stroke="transparent" points="99.39,-1294 99.39,-1313 231.39,-1313 231.39,-1294 99.39,-1294"/>
<text text-anchor="start" x="116.39" y="-1299.8" font-family="Times,serif" font-size="14.00">seq_region_id</text>
<polygon fill="white" stroke="transparent" points="99.39,-1273 99.39,-1292 231.39,-1292 231.39,-1273 99.39,-1273"/>
<text text-anchor="start" x="158.39" y="-1279.8" font-family="Times,serif" font-style="italic" font-size="14.00">...</text>
<polygon fill="black" stroke="black" points="97.39,-1335 97.39,-1335 233.39,-1335 233.39,-1335 97.39,-1335"/>
</g>
<!-- marker_feature&#45;&gt;seq_region -->
<g id="edge13" class="edge">
<title>marker_feature:e&#45;&gt;seq_region:w</title>
<path fill="none" stroke="black" stroke-dasharray="5,2" d="M232.39,-1303C275.92,-1303 283.94,-1332.91 300.89,-1373 324.43,-1428.64 325.04,-2399.71 328.89,-2460 331.14,-2495.1 305.11,-2537.82 327.74,-2546.44"/>
<polygon fill="black" stroke="black" points="327.48,-2549.94 337.89,-2548 328.54,-2543.02 327.48,-2549.94"/>
</g>
<!-- misc_feature -->
<g id="node22" class="node">
<title>misc_feature</title>
<path fill="#3cb371" stroke="black" d="M218.39,-1249.5C218.39,-1249.5 112.39,-1249.5 112.39,-1249.5 106.39,-1249.5 100.39,-1243.5 100.39,-1237.5 100.39,-1237.5 100.39,-1164.5 100.39,-1164.5 100.39,-1158.5 106.39,-1152.5 112.39,-1152.5 112.39,-1152.5 218.39,-1152.5 218.39,-1152.5 224.39,-1152.5 230.39,-1158.5 230.39,-1164.5 230.39,-1164.5 230.39,-1237.5 230.39,-1237.5 230.39,-1243.5 224.39,-1249.5 218.39,-1249.5"/>
<text text-anchor="start" x="112.39" y="-1228.2" font-family="Times,serif" font-size="16.00">misc_feature</text>
<polygon fill="white" stroke="transparent" points="110.39,-1200 110.39,-1219 220.39,-1219 220.39,-1200 110.39,-1200"/>
<text text-anchor="start" x="158.39" y="-1206.8" font-family="Times,serif" font-style="italic" font-size="14.00">...</text>
<polygon fill="white" stroke="transparent" points="110.39,-1179 110.39,-1198 220.39,-1198 220.39,-1179 110.39,-1179"/>
<text text-anchor="start" x="116.39" y="-1184.8" font-family="Times,serif" font-size="14.00">seq_region_id</text>
<polygon fill="white" stroke="transparent" points="110.39,-1158 110.39,-1177 220.39,-1177 220.39,-1158 110.39,-1158"/>
<text text-anchor="start" x="158.39" y="-1164.8" font-family="Times,serif" font-style="italic" font-size="14.00">...</text>
<polygon fill="black" stroke="black" points="108.39,-1220 108.39,-1220 222.39,-1220 222.39,-1220 108.39,-1220"/>
</g>
<!-- misc_feature&#45;&gt;seq_region -->
<g id="edge16" class="edge">
<title>misc_feature:e&#45;&gt;seq_region:w</title>
<path fill="none" stroke="black" stroke-dasharray="5,2" d="M221.39,-1188C268.47,-1188 281.01,-1215.33 300.89,-1258 329.11,-1318.54 324.71,-2393.33 328.89,-2460 331.09,-2495.1 305.1,-2537.82 327.73,-2546.44"/>
<polygon fill="black" stroke="black" points="327.48,-2549.94 337.89,-2548 328.54,-2543.02 327.48,-2549.94"/>
</g>
<!-- operon -->
<g id="node23" class="node">
<title>operon</title>
<path fill="#ff8500" stroke="black" d="M214.39,-408.5C214.39,-408.5 116.39,-408.5 116.39,-408.5 110.39,-408.5 104.39,-402.5 104.39,-396.5 104.39,-396.5 104.39,-323.5 104.39,-323.5 104.39,-317.5 110.39,-311.5 116.39,-311.5 116.39,-311.5 214.39,-311.5 214.39,-311.5 220.39,-311.5 226.39,-317.5 226.39,-323.5 226.39,-323.5 226.39,-396.5 226.39,-396.5 226.39,-402.5 220.39,-408.5 214.39,-408.5"/>
<text text-anchor="start" x="136.39" y="-387.2" font-family="Times,serif" font-size="16.00">operon</text>
<polygon fill="white" stroke="transparent" points="114.39,-359 114.39,-378 216.39,-378 216.39,-359 114.39,-359"/>
<text text-anchor="start" x="158.39" y="-365.8" font-family="Times,serif" font-style="italic" font-size="14.00">...</text>
<polygon fill="white" stroke="transparent" points="114.39,-338 114.39,-357 216.39,-357 216.39,-338 114.39,-338"/>
<text text-anchor="start" x="116.39" y="-343.8" font-family="Times,serif" font-size="14.00">seq_region_id</text>
<polygon fill="white" stroke="transparent" points="114.39,-317 114.39,-336 216.39,-336 216.39,-317 114.39,-317"/>
<text text-anchor="start" x="158.39" y="-323.8" font-family="Times,serif" font-style="italic" font-size="14.00">...</text>
<polygon fill="black" stroke="black" points="112.39,-379 112.39,-379 218.39,-379 218.39,-379 112.39,-379"/>
</g>
<!-- operon&#45;&gt;seq_region -->
<g id="edge17" class="edge">
<title>operon:e&#45;&gt;seq_region:w</title>
<path fill="none" stroke="black" stroke-dasharray="5,2" d="M217.39,-347C276.67,-347 280.83,-395.22 300.89,-451 319.88,-503.79 282.59,-2399.17 331.81,-2539.77"/>
<polygon fill="black" stroke="black" points="329.14,-2542.04 337.89,-2548 334.76,-2537.88 329.14,-2542.04"/>
</g>
<!-- operon_transcript -->
<g id="node24" class="node">
<title>operon_transcript</title>
<path fill="#ff8500" stroke="black" d="M239.39,-293.5C239.39,-293.5 91.39,-293.5 91.39,-293.5 85.39,-293.5 79.39,-287.5 79.39,-281.5 79.39,-281.5 79.39,-208.5 79.39,-208.5 79.39,-202.5 85.39,-196.5 91.39,-196.5 91.39,-196.5 239.39,-196.5 239.39,-196.5 245.39,-196.5 251.39,-202.5 251.39,-208.5 251.39,-208.5 251.39,-281.5 251.39,-281.5 251.39,-287.5 245.39,-293.5 239.39,-293.5"/>
<text text-anchor="start" x="91.39" y="-272.2" font-family="Times,serif" font-size="16.00">operon_transcript</text>
<polygon fill="white" stroke="transparent" points="89.39,-244 89.39,-263 241.39,-263 241.39,-244 89.39,-244"/>
<text text-anchor="start" x="158.39" y="-250.8" font-family="Times,serif" font-style="italic" font-size="14.00">...</text>
<polygon fill="white" stroke="transparent" points="89.39,-223 89.39,-242 241.39,-242 241.39,-223 89.39,-223"/>
<text text-anchor="start" x="116.39" y="-228.8" font-family="Times,serif" font-size="14.00">seq_region_id</text>
<polygon fill="white" stroke="transparent" points="89.39,-202 89.39,-221 241.39,-221 241.39,-202 89.39,-202"/>
<text text-anchor="start" x="158.39" y="-208.8" font-family="Times,serif" font-style="italic" font-size="14.00">...</text>
<polygon fill="black" stroke="black" points="87.39,-264 87.39,-264 243.39,-264 243.39,-264 87.39,-264"/>
</g>
<!-- operon_transcript&#45;&gt;seq_region -->
<g id="edge18" class="edge">
<title>operon_transcript:e&#45;&gt;seq_region:w</title>
<path fill="none" stroke="black" stroke-dasharray="5,2" d="M242.39,-232C282.94,-232 286.82,-263.98 300.89,-302 342.52,-414.44 322.01,-2340.3 328.89,-2460 330.91,-2495.11 305.06,-2537.82 327.73,-2546.44"/>
<polygon fill="black" stroke="black" points="327.48,-2549.94 337.89,-2548 328.54,-2543.02 327.48,-2549.94"/>
</g>
<!-- prediction_exon -->
<g id="node25" class="node">
<title>prediction_exon</title>
<path fill="#3cb371" stroke="black" d="M231.89,-1134.5C231.89,-1134.5 98.89,-1134.5 98.89,-1134.5 92.89,-1134.5 86.89,-1128.5 86.89,-1122.5 86.89,-1122.5 86.89,-1049.5 86.89,-1049.5 86.89,-1043.5 92.89,-1037.5 98.89,-1037.5 98.89,-1037.5 231.89,-1037.5 231.89,-1037.5 237.89,-1037.5 243.89,-1043.5 243.89,-1049.5 243.89,-1049.5 243.89,-1122.5 243.89,-1122.5 243.89,-1128.5 237.89,-1134.5 231.89,-1134.5"/>
<text text-anchor="start" x="99.39" y="-1113.2" font-family="Times,serif" font-size="16.00">prediction_exon</text>
<polygon fill="white" stroke="transparent" points="97.39,-1085 97.39,-1104 234.39,-1104 234.39,-1085 97.39,-1085"/>
<text text-anchor="start" x="158.89" y="-1091.8" font-family="Times,serif" font-style="italic" font-size="14.00">...</text>
<polygon fill="white" stroke="transparent" points="97.39,-1064 97.39,-1083 234.39,-1083 234.39,-1064 97.39,-1064"/>
<text text-anchor="start" x="116.89" y="-1069.8" font-family="Times,serif" font-size="14.00">seq_region_id</text>
<polygon fill="white" stroke="transparent" points="97.39,-1043 97.39,-1062 234.39,-1062 234.39,-1043 97.39,-1043"/>
<text text-anchor="start" x="158.89" y="-1049.8" font-family="Times,serif" font-style="italic" font-size="14.00">...</text>
<polygon fill="black" stroke="black" points="95.39,-1105 95.39,-1105 236.39,-1105 236.39,-1105 95.39,-1105"/>
</g>
<!-- prediction_exon&#45;&gt;seq_region -->
<g id="edge19" class="edge">
<title>prediction_exon:e&#45;&gt;seq_region:w</title>
<path fill="none" stroke="black" stroke-dasharray="5,2" d="M235.39,-1073C278,-1073 284.82,-1103.54 300.89,-1143 328.5,-1210.78 324.39,-2386.96 328.89,-2460 331.06,-2495.1 305.09,-2537.82 327.73,-2546.44"/>
<polygon fill="black" stroke="black" points="327.48,-2549.94 337.89,-2548 328.54,-2543.02 327.48,-2549.94"/>
</g>
<!-- prediction_transcript -->
<g id="node26" class="node">
<title>prediction_transcript</title>
<path fill="#3cb371" stroke="black" d="M252.89,-1019.5C252.89,-1019.5 77.89,-1019.5 77.89,-1019.5 71.89,-1019.5 65.89,-1013.5 65.89,-1007.5 65.89,-1007.5 65.89,-934.5 65.89,-934.5 65.89,-928.5 71.89,-922.5 77.89,-922.5 77.89,-922.5 252.89,-922.5 252.89,-922.5 258.89,-922.5 264.89,-928.5 264.89,-934.5 264.89,-934.5 264.89,-1007.5 264.89,-1007.5 264.89,-1013.5 258.89,-1019.5 252.89,-1019.5"/>
<text text-anchor="start" x="78.39" y="-998.2" font-family="Times,serif" font-size="16.00">prediction_transcript</text>
<polygon fill="white" stroke="transparent" points="76.39,-970 76.39,-989 255.39,-989 255.39,-970 76.39,-970"/>
<text text-anchor="start" x="158.89" y="-976.8" font-family="Times,serif" font-style="italic" font-size="14.00">...</text>
<polygon fill="white" stroke="transparent" points="76.39,-949 76.39,-968 255.39,-968 255.39,-949 76.39,-949"/>
<text text-anchor="start" x="116.89" y="-954.8" font-family="Times,serif" font-size="14.00">seq_region_id</text>
<polygon fill="white" stroke="transparent" points="76.39,-928 76.39,-947 255.39,-947 255.39,-928 76.39,-928"/>
<text text-anchor="start" x="158.89" y="-934.8" font-family="Times,serif" font-style="italic" font-size="14.00">...</text>
<polygon fill="black" stroke="black" points="74.39,-990 74.39,-990 257.39,-990 257.39,-990 74.39,-990"/>
</g>
<!-- prediction_transcript&#45;&gt;seq_region -->
<g id="edge20" class="edge">
<title>prediction_transcript:e&#45;&gt;seq_region:w</title>
<path fill="none" stroke="black" stroke-dasharray="5,2" d="M256.39,-958C293.26,-958 290.25,-992.7 300.89,-1028 346.84,-1180.36 319.23,-2301.15 328.89,-2460 331.03,-2495.1 305.09,-2537.82 327.73,-2546.44"/>
<polygon fill="black" stroke="black" points="327.48,-2549.94 337.89,-2548 328.54,-2543.02 327.48,-2549.94"/>
</g>
<!-- protein_align_feature -->
<g id="node27" class="node">
<title>protein_align_feature</title>
<path fill="#808000" stroke="black" d="M254.39,-1745.5C254.39,-1745.5 76.39,-1745.5 76.39,-1745.5 70.39,-1745.5 64.39,-1739.5 64.39,-1733.5 64.39,-1733.5 64.39,-1660.5 64.39,-1660.5 64.39,-1654.5 70.39,-1648.5 76.39,-1648.5 76.39,-1648.5 254.39,-1648.5 254.39,-1648.5 260.39,-1648.5 266.39,-1654.5 266.39,-1660.5 266.39,-1660.5 266.39,-1733.5 266.39,-1733.5 266.39,-1739.5 260.39,-1745.5 254.39,-1745.5"/>
<text text-anchor="start" x="76.39" y="-1724.2" font-family="Times,serif" font-size="16.00">protein_align_feature</text>
<polygon fill="white" stroke="transparent" points="74.39,-1696 74.39,-1715 256.39,-1715 256.39,-1696 74.39,-1696"/>
<text text-anchor="start" x="158.39" y="-1702.8" font-family="Times,serif" font-style="italic" font-size="14.00">...</text>
<polygon fill="white" stroke="transparent" points="74.39,-1675 74.39,-1694 256.39,-1694 256.39,-1675 74.39,-1675"/>
<text text-anchor="start" x="116.39" y="-1680.8" font-family="Times,serif" font-size="14.00">seq_region_id</text>
<polygon fill="white" stroke="transparent" points="74.39,-1654 74.39,-1673 256.39,-1673 256.39,-1654 74.39,-1654"/>
<text text-anchor="start" x="158.39" y="-1660.8" font-family="Times,serif" font-style="italic" font-size="14.00">...</text>
<polygon fill="black" stroke="black" points="72.39,-1716 72.39,-1716 258.39,-1716 258.39,-1716 72.39,-1716"/>
</g>
<!-- protein_align_feature&#45;&gt;seq_region -->
<g id="edge21" class="edge">
<title>protein_align_feature:e&#45;&gt;seq_region:w</title>
<path fill="none" stroke="black" stroke-dasharray="5,2" d="M257.39,-1684C294.02,-1684 290.15,-1718.98 300.89,-1754 346.97,-1904.1 317.79,-2303.38 328.89,-2460 331.38,-2495.08 305.16,-2537.82 327.74,-2546.44"/>
<polygon fill="black" stroke="black" points="327.48,-2549.94 337.89,-2548 328.54,-2543.02 327.48,-2549.94"/>
</g>
<!-- repeat_feature -->
<g id="node28" class="node">
<title>repeat_feature</title>
<path fill="#3cb371" stroke="black" d="M226.89,-904.5C226.89,-904.5 103.89,-904.5 103.89,-904.5 97.89,-904.5 91.89,-898.5 91.89,-892.5 91.89,-892.5 91.89,-819.5 91.89,-819.5 91.89,-813.5 97.89,-807.5 103.89,-807.5 103.89,-807.5 226.89,-807.5 226.89,-807.5 232.89,-807.5 238.89,-813.5 238.89,-819.5 238.89,-819.5 238.89,-892.5 238.89,-892.5 238.89,-898.5 232.89,-904.5 226.89,-904.5"/>
<text text-anchor="start" x="104.39" y="-883.2" font-family="Times,serif" font-size="16.00">repeat_feature</text>
<polygon fill="white" stroke="transparent" points="102.39,-855 102.39,-874 229.39,-874 229.39,-855 102.39,-855"/>
<text text-anchor="start" x="158.89" y="-861.8" font-family="Times,serif" font-style="italic" font-size="14.00">...</text>
<polygon fill="white" stroke="transparent" points="102.39,-834 102.39,-853 229.39,-853 229.39,-834 102.39,-834"/>
<text text-anchor="start" x="116.89" y="-839.8" font-family="Times,serif" font-size="14.00">seq_region_id</text>
<polygon fill="white" stroke="transparent" points="102.39,-813 102.39,-832 229.39,-832 229.39,-813 102.39,-813"/>
<text text-anchor="start" x="158.89" y="-819.8" font-family="Times,serif" font-style="italic" font-size="14.00">...</text>
<polygon fill="black" stroke="black" points="100.39,-875 100.39,-875 231.39,-875 231.39,-875 100.39,-875"/>
</g>
<!-- repeat_feature&#45;&gt;seq_region -->
<g id="edge22" class="edge">
<title>repeat_feature:e&#45;&gt;seq_region:w</title>
<path fill="none" stroke="black" stroke-dasharray="5,2" d="M230.39,-843C274.55,-843 283.56,-872.39 300.89,-913 334.65,-992.05 323.74,-2374.2 328.89,-2460 331,-2495.11 305.08,-2537.82 327.73,-2546.44"/>
<polygon fill="black" stroke="black" points="327.48,-2549.94 337.89,-2548 328.54,-2543.02 327.48,-2549.94"/>
</g>
<!-- seq_region_mapping -->
<g id="node29" class="node">
<title>seq_region_mapping</title>
<path fill="#ff6666" stroke="black" d="M250.89,-142.5C250.89,-142.5 79.89,-142.5 79.89,-142.5 73.89,-142.5 67.89,-136.5 67.89,-130.5 67.89,-130.5 67.89,-57.5 67.89,-57.5 67.89,-51.5 73.89,-45.5 79.89,-45.5 79.89,-45.5 250.89,-45.5 250.89,-45.5 256.89,-45.5 262.89,-51.5 262.89,-57.5 262.89,-57.5 262.89,-130.5 262.89,-130.5 262.89,-136.5 256.89,-142.5 250.89,-142.5"/>
<text text-anchor="start" x="80.39" y="-121.2" font-family="Times,serif" font-size="16.00">seq_region_mapping</text>
<polygon fill="white" stroke="transparent" points="78.39,-93 78.39,-112 253.39,-112 253.39,-93 78.39,-93"/>
<text text-anchor="start" x="158.89" y="-99.8" font-family="Times,serif" font-style="italic" font-size="14.00">...</text>
<polygon fill="white" stroke="transparent" points="78.39,-72 78.39,-91 253.39,-91 253.39,-72 78.39,-72"/>
<text text-anchor="start" x="85.39" y="-77.8" font-family="Times,serif" font-size="14.00">internal_seq_region_id</text>
<polygon fill="white" stroke="transparent" points="78.39,-51 78.39,-70 253.39,-70 253.39,-51 78.39,-51"/>
<text text-anchor="start" x="158.89" y="-57.8" font-family="Times,serif" font-style="italic" font-size="14.00">...</text>
<polygon fill="black" stroke="black" points="76.39,-113 76.39,-113 255.39,-113 255.39,-113 76.39,-113"/>
</g>
<!-- seq_region_mapping&#45;&gt;seq_region -->
<g id="edge26" class="edge">
<title>seq_region_mapping:e&#45;&gt;seq_region:w</title>
<path fill="none" stroke="black" stroke-dasharray="5,2" d="M254.39,-81C305.03,-81 290.02,-135.55 300.89,-185 307.68,-215.87 305.27,-2378.17 334.38,-2538.61"/>
<polygon fill="black" stroke="black" points="331.12,-2539.86 337.89,-2548 337.67,-2537.41 331.12,-2539.86"/>
</g>
<!-- simple_feature -->
<g id="node30" class="node">
<title>simple_feature</title>
<path fill="#3cb371" stroke="black" d="M226.89,-789.5C226.89,-789.5 103.89,-789.5 103.89,-789.5 97.89,-789.5 91.89,-783.5 91.89,-777.5 91.89,-777.5 91.89,-704.5 91.89,-704.5 91.89,-698.5 97.89,-692.5 103.89,-692.5 103.89,-692.5 226.89,-692.5 226.89,-692.5 232.89,-692.5 238.89,-698.5 238.89,-704.5 238.89,-704.5 238.89,-777.5 238.89,-777.5 238.89,-783.5 232.89,-789.5 226.89,-789.5"/>
<text text-anchor="start" x="104.39" y="-768.2" font-family="Times,serif" font-size="16.00">simple_feature</text>
<polygon fill="white" stroke="transparent" points="102.39,-740 102.39,-759 229.39,-759 229.39,-740 102.39,-740"/>
<text text-anchor="start" x="158.89" y="-746.8" font-family="Times,serif" font-style="italic" font-size="14.00">...</text>
<polygon fill="white" stroke="transparent" points="102.39,-719 102.39,-738 229.39,-738 229.39,-719 102.39,-719"/>
<text text-anchor="start" x="116.89" y="-724.8" font-family="Times,serif" font-size="14.00">seq_region_id</text>
<polygon fill="white" stroke="transparent" points="102.39,-698 102.39,-717 229.39,-717 229.39,-698 102.39,-698"/>
<text text-anchor="start" x="158.89" y="-704.8" font-family="Times,serif" font-style="italic" font-size="14.00">...</text>
<polygon fill="black" stroke="black" points="100.39,-760 100.39,-760 231.39,-760 231.39,-760 100.39,-760"/>
</g>
<!-- simple_feature&#45;&gt;seq_region -->
<g id="edge28" class="edge">
<title>simple_feature:e&#45;&gt;seq_region:w</title>
<path fill="none" stroke="black" stroke-dasharray="5,2" d="M230.39,-728C274.55,-728 283.58,-757.38 300.89,-798 337.1,-882.95 323.41,-2367.82 328.89,-2460 330.98,-2495.11 305.08,-2537.82 327.73,-2546.44"/>
<polygon fill="black" stroke="black" points="327.48,-2549.94 337.89,-2548 328.54,-2543.02 327.48,-2549.94"/>
</g>
<!-- transcript -->
<g id="node31" class="node">
<title>transcript</title>
<path fill="#808000" stroke="black" d="M214.39,-1630.5C214.39,-1630.5 116.39,-1630.5 116.39,-1630.5 110.39,-1630.5 104.39,-1624.5 104.39,-1618.5 104.39,-1618.5 104.39,-1545.5 104.39,-1545.5 104.39,-1539.5 110.39,-1533.5 116.39,-1533.5 116.39,-1533.5 214.39,-1533.5 214.39,-1533.5 220.39,-1533.5 226.39,-1539.5 226.39,-1545.5 226.39,-1545.5 226.39,-1618.5 226.39,-1618.5 226.39,-1624.5 220.39,-1630.5 214.39,-1630.5"/>
<text text-anchor="start" x="124.39" y="-1609.2" font-family="Times,serif" font-size="16.00">transcript</text>
<polygon fill="white" stroke="transparent" points="114.39,-1581 114.39,-1600 216.39,-1600 216.39,-1581 114.39,-1581"/>
<text text-anchor="start" x="158.39" y="-1587.8" font-family="Times,serif" font-style="italic" font-size="14.00">...</text>
<polygon fill="white" stroke="transparent" points="114.39,-1560 114.39,-1579 216.39,-1579 216.39,-1560 114.39,-1560"/>
<text text-anchor="start" x="116.39" y="-1565.8" font-family="Times,serif" font-size="14.00">seq_region_id</text>
<polygon fill="white" stroke="transparent" points="114.39,-1539 114.39,-1558 216.39,-1558 216.39,-1539 114.39,-1539"/>
<text text-anchor="start" x="158.39" y="-1545.8" font-family="Times,serif" font-style="italic" font-size="14.00">...</text>
<polygon fill="black" stroke="black" points="112.39,-1601 112.39,-1601 218.39,-1601 218.39,-1601 112.39,-1601"/>
</g>
<!-- transcript&#45;&gt;seq_region -->
<g id="edge29" class="edge">
<title>transcript:e&#45;&gt;seq_region:w</title>
<path fill="none" stroke="black" stroke-dasharray="5,2" d="M217.39,-1569C404.37,-1569 283.64,-1795.51 328.89,-2460 331.28,-2495.09 305.14,-2537.82 327.74,-2546.44"/>
<polygon fill="black" stroke="black" points="327.48,-2549.94 337.89,-2548 328.54,-2543.02 327.48,-2549.94"/>
</g>
</g>
</svg>
