<?xml version="1.0" encoding="UTF-8" standalone="no"?>
<!DOCTYPE svg PUBLIC "-//W3C//DTD SVG 1.1//EN"
 "http://www.w3.org/Graphics/SVG/1.1/DTD/svg11.dtd">
<!-- Generated by graphviz version 8.0.1 (0)
 -->
<!-- Title: test Pages: 1 -->
<svg width="1267pt" height="3881pt"
 viewBox="0.00 0.00 1267.00 3881.00" xmlns="http://www.w3.org/2000/svg" xmlns:xlink="http://www.w3.org/1999/xlink">
<g id="graph0" class="graph" transform="scale(1 1) rotate(0) translate(4 3877)">
<title>test</title>
<polygon fill="white" stroke="none" points="-4,4 -4,-3877 1263,-3877 1263,4 -4,4"/>
<text text-anchor="middle" x="629.5" y="-10" font-family="Times,serif" font-size="20.00">Core schema diagram: Fundamental Tables tables</text>
<g id="clust1" class="cluster">
<title>cluster_assembly_tables</title>
<polygon fill="white" stroke="white" points="922.5,-472 922.5,-825 1076.5,-825 1076.5,-472 922.5,-472"/>
<text text-anchor="middle" x="999.5" y="-805" font-family="Times,serif" font-size="20.00">Assembly Tables</text>
</g>
<g id="clust3" class="cluster">
<title>cluster_features</title>
<polygon fill="white" stroke="white" points="441,-2799 441,-3748 663,-3748 663,-2799 441,-2799"/>
<text text-anchor="middle" x="552" y="-3728" font-family="Times,serif" font-size="20.00">Features</text>
</g>
<g id="clust2" class="cluster">
<title>cluster_external_references</title>
<polygon fill="white" stroke="white" points="912,-38 912,-464 1088,-464 1088,-38 912,-38"/>
<text text-anchor="middle" x="1000" y="-444" font-family="Times,serif" font-size="20.00">External References</text>
</g>
<g id="clust4" class="cluster">
<title>cluster_fundamental_tables</title>
<path fill="#e5e5cc" stroke="#e5e5cc" d="M20,-833C20,-833 1239,-833 1239,-833 1245,-833 1251,-839 1251,-845 1251,-845 1251,-2779 1251,-2779 1251,-2785 1245,-2791 1239,-2791 1239,-2791 20,-2791 20,-2791 14,-2791 8,-2785 8,-2779 8,-2779 8,-845 8,-845 8,-839 14,-833 20,-833"/>
<text text-anchor="middle" x="629.5" y="-2771" font-family="Times,serif" font-size="20.00">Fundamental Tables</text>
</g>
<g id="clust5" class="cluster">
<title>cluster_misc</title>
<polygon fill="white" stroke="white" points="225,-3512 225,-3865 417,-3865 417,-3512 225,-3512"/>
<text text-anchor="middle" x="321" y="-3845" font-family="Times,serif" font-size="20.00">Misc</text>
</g>
<!-- alt_allele -->
<g id="node1" class="node">
<title>alt_allele</title>
<path fill="#808000" stroke="black" d="M374,-1840.5C374,-1840.5 268,-1840.5 268,-1840.5 262,-1840.5 256,-1834.5 256,-1828.5 256,-1828.5 256,-1755.5 256,-1755.5 256,-1749.5 262,-1743.5 268,-1743.5 268,-1743.5 374,-1743.5 374,-1743.5 380,-1743.5 386,-1749.5 386,-1755.5 386,-1755.5 386,-1828.5 386,-1828.5 386,-1834.5 380,-1840.5 374,-1840.5"/>
<text text-anchor="start" x="292" y="-1819.7" font-family="Times,serif" font-size="16.00">alt_allele</text>
<polygon fill="white" stroke="none" points="266,-1791.5 266,-1810.5 376,-1810.5 376,-1791.5 266,-1791.5"/>
<text text-anchor="start" x="273.5" y="-1798.3" font-family="Times,serif" font-weight="bold" font-size="14.00">PK</text>
<text text-anchor="start" x="293.5" y="-1798.3" font-family="Times,serif" font-size="14.00">  alt_allele_id</text>
<polygon fill="white" stroke="none" points="266,-1770.5 266,-1789.5 376,-1789.5 376,-1770.5 266,-1770.5"/>
<text text-anchor="start" x="299.5" y="-1776.3" font-family="Times,serif" font-size="14.00">gene_id</text>
<polygon fill="white" stroke="none" points="266,-1749.5 266,-1768.5 376,-1768.5 376,-1749.5 266,-1749.5"/>
<text text-anchor="start" x="268" y="-1755.3" font-family="Times,serif" font-size="14.00">alt_allele_group_id</text>
<polygon fill="black" stroke="black" points="264,-1811.5 264,-1811.5 378,-1811.5 378,-1811.5 264,-1811.5"/>
</g>
<!-- alt_allele_group -->
<g id="node3" class="node">
<title>alt_allele_group</title>
<path fill="#808000" stroke="black" d="M619,-1508.5C619,-1508.5 485,-1508.5 485,-1508.5 479,-1508.5 473,-1502.5 473,-1496.5 473,-1496.5 473,-1465.5 473,-1465.5 473,-1459.5 479,-1453.5 485,-1453.5 485,-1453.5 619,-1453.5 619,-1453.5 625,-1453.5 631,-1459.5 631,-1465.5 631,-1465.5 631,-1496.5 631,-1496.5 631,-1502.5 625,-1508.5 619,-1508.5"/>
<text text-anchor="start" x="499.5" y="-1487.7" font-family="Times,serif" font-size="16.00">alt_allele_group</text>
<polygon fill="white" stroke="none" points="483,-1459.5 483,-1478.5 621,-1478.5 621,-1459.5 483,-1459.5"/>
<text text-anchor="start" x="485" y="-1466.3" font-family="Times,serif" font-weight="bold" font-size="14.00">PK</text>
<text text-anchor="start" x="505" y="-1466.3" font-family="Times,serif" font-size="14.00">  alt_allele_group_id</text>
<polygon fill="black" stroke="black" points="481,-1479.5 481,-1479.5 623,-1479.5 623,-1479.5 481,-1479.5"/>
</g>
<!-- alt_allele&#45;&gt;alt_allele_group -->
<g id="edge1" class="edge">
<title>alt_allele:e&#45;&gt;alt_allele_group:w</title>
<path fill="none" stroke="black" stroke-dasharray="5,2" d="M377,-1759C510.2,-1759 354.26,-1485.19 471.08,-1469.68"/>
<polygon fill="black" stroke="black" points="471.24,-1473.12 481,-1469 470.8,-1466.13 471.24,-1473.12"/>
</g>
<!-- gene -->
<g id="node11" class="node">
<title>gene</title>
<path fill="#808000" stroke="black" d="M616,-1897C616,-1897 488,-1897 488,-1897 482,-1897 476,-1891 476,-1885 476,-1885 476,-1539 476,-1539 476,-1533 482,-1527 488,-1527 488,-1527 616,-1527 616,-1527 622,-1527 628,-1533 628,-1539 628,-1539 628,-1885 628,-1885 628,-1891 622,-1897 616,-1897"/>
<text text-anchor="start" x="537" y="-1876.2" font-family="Times,serif" font-size="16.00">gene</text>
<polygon fill="white" stroke="none" points="486,-1848 486,-1867 618,-1867 618,-1848 486,-1848"/>
<text text-anchor="start" x="516.5" y="-1854.8" font-family="Times,serif" font-weight="bold" font-size="14.00">PK</text>
<text text-anchor="start" x="536.5" y="-1854.8" font-family="Times,serif" font-size="14.00">  gene_id</text>
<polygon fill="white" stroke="none" points="486,-1827 486,-1846 618,-1846 618,-1827 486,-1827"/>
<text text-anchor="start" x="531.5" y="-1832.8" font-family="Times,serif" font-size="14.00">biotype</text>
<polygon fill="white" stroke="none" points="486,-1806 486,-1825 618,-1825 618,-1806 486,-1806"/>
<text text-anchor="start" x="521.5" y="-1811.8" font-family="Times,serif" font-size="14.00">analysis_id</text>
<polygon fill="white" stroke="none" points="486,-1785 486,-1804 618,-1804 618,-1785 486,-1785"/>
<text text-anchor="start" x="513.5" y="-1790.8" font-family="Times,serif" font-size="14.00">seq_region_id</text>
<polygon fill="white" stroke="none" points="486,-1764 486,-1783 618,-1783 618,-1764 486,-1764"/>
<text text-anchor="start" x="506.5" y="-1769.8" font-family="Times,serif" font-size="14.00">seq_region_start</text>
<polygon fill="white" stroke="none" points="486,-1743 486,-1762 618,-1762 618,-1743 486,-1743"/>
<text text-anchor="start" x="509" y="-1748.8" font-family="Times,serif" font-size="14.00">seq_region_end</text>
<polygon fill="white" stroke="none" points="486,-1722 486,-1741 618,-1741 618,-1722 486,-1722"/>
<text text-anchor="start" x="502" y="-1727.8" font-family="Times,serif" font-size="14.00">seq_region_strand</text>
<polygon fill="white" stroke="none" points="486,-1701 486,-1720 618,-1720 618,-1701 486,-1701"/>
<text text-anchor="start" x="509.5" y="-1706.8" font-family="Times,serif" font-size="14.00">display_xref_id</text>
<polygon fill="white" stroke="none" points="486,-1680 486,-1699 618,-1699 618,-1680 486,-1680"/>
<text text-anchor="start" x="534" y="-1685.8" font-family="Times,serif" font-size="14.00">source</text>
<polygon fill="white" stroke="none" points="486,-1659 486,-1678 618,-1678 618,-1659 486,-1659"/>
<text text-anchor="start" x="521.5" y="-1664.8" font-family="Times,serif" font-size="14.00">description</text>
<polygon fill="white" stroke="none" points="486,-1638 486,-1657 618,-1657 618,-1638 486,-1638"/>
<text text-anchor="start" x="524.5" y="-1643.8" font-family="Times,serif" font-size="14.00">is_current</text>
<polygon fill="white" stroke="none" points="486,-1617 486,-1636 618,-1636 618,-1617 486,-1617"/>
<text text-anchor="start" x="488" y="-1622.8" font-family="Times,serif" font-size="14.00">canonical_transcript_id</text>
<polygon fill="white" stroke="none" points="486,-1596 486,-1615 618,-1615 618,-1596 486,-1596"/>
<text text-anchor="start" x="527.5" y="-1601.8" font-family="Times,serif" font-size="14.00">stable_id</text>
<polygon fill="white" stroke="none" points="486,-1575 486,-1594 618,-1594 618,-1575 486,-1575"/>
<text text-anchor="start" x="532" y="-1580.8" font-family="Times,serif" font-size="14.00">version</text>
<polygon fill="white" stroke="none" points="486,-1554 486,-1573 618,-1573 618,-1554 486,-1554"/>
<text text-anchor="start" x="517.5" y="-1559.8" font-family="Times,serif" font-size="14.00">created_date</text>
<polygon fill="white" stroke="none" points="486,-1533 486,-1552 618,-1552 618,-1533 486,-1533"/>
<text text-anchor="start" x="512.5" y="-1538.8" font-family="Times,serif" font-size="14.00">modified_date</text>
<polygon fill="black" stroke="black" points="484,-1868 484,-1868 620,-1868 620,-1868 484,-1868"/>
</g>
<!-- alt_allele&#45;&gt;gene -->
<g id="edge2" class="edge">
<title>alt_allele:e&#45;&gt;gene:w</title>
<path fill="none" stroke="black" stroke-dasharray="5,2" d="M377,-1780C432.28,-1780 426.87,-1847.98 474.08,-1857.01"/>
<polygon fill="black" stroke="black" points="473.73,-1860.59 484,-1858 474.36,-1853.61 473.73,-1860.59"/>
</g>
<!-- alt_allele_attrib -->
<g id="node2" class="node">
<title>alt_allele_attrib</title>
<path fill="#808000" stroke="black" d="M157,-1841C157,-1841 56,-1841 56,-1841 50,-1841 44,-1835 44,-1829 44,-1829 44,-1777 44,-1777 44,-1771 50,-1765 56,-1765 56,-1765 157,-1765 157,-1765 163,-1765 169,-1771 169,-1777 169,-1777 169,-1829 169,-1829 169,-1835 163,-1841 157,-1841"/>
<text text-anchor="start" x="56" y="-1820.2" font-family="Times,serif" font-size="16.00">alt_allele_attrib</text>
<polygon fill="white" stroke="none" points="54,-1792 54,-1811 159,-1811 159,-1792 54,-1792"/>
<text text-anchor="start" x="73" y="-1797.8" font-family="Times,serif" font-size="14.00">alt_allele_id</text>
<polygon fill="white" stroke="none" points="54,-1771 54,-1790 159,-1790 159,-1771 54,-1771"/>
<text text-anchor="start" x="91.5" y="-1776.8" font-family="Times,serif" font-size="14.00">attrib</text>
<polygon fill="black" stroke="black" points="52,-1812 52,-1812 161,-1812 161,-1812 52,-1812"/>
</g>
<!-- alt_allele_attrib&#45;&gt;alt_allele -->
<g id="edge3" class="edge">
<title>alt_allele_attrib:e&#45;&gt;alt_allele:w</title>
<path fill="none" stroke="black" stroke-dasharray="5,2" d="M160.5,-1801C203.13,-1801 216.42,-1801 254.24,-1801"/>
<polygon fill="black" stroke="black" points="254,-1804.5 264,-1801 254,-1797.5 254,-1804.5"/>
</g>
<!-- analysis -->
<g id="node4" class="node">
<title>analysis</title>
<path fill="#808000" stroke="black" d="M1046.5,-2533C1046.5,-2533 952.5,-2533 952.5,-2533 946.5,-2533 940.5,-2527 940.5,-2521 940.5,-2521 940.5,-2217 940.5,-2217 940.5,-2211 946.5,-2205 952.5,-2205 952.5,-2205 1046.5,-2205 1046.5,-2205 1052.5,-2205 1058.5,-2211 1058.5,-2217 1058.5,-2217 1058.5,-2521 1058.5,-2521 1058.5,-2527 1052.5,-2533 1046.5,-2533"/>
<text text-anchor="start" x="974.5" y="-2512.2" font-family="Times,serif" font-size="16.00">analysis</text>
<polygon fill="white" stroke="none" points="950.5,-2484 950.5,-2503 1048.5,-2503 1048.5,-2484 950.5,-2484"/>
<text text-anchor="start" x="955" y="-2490.8" font-family="Times,serif" font-weight="bold" font-size="14.00">PK</text>
<text text-anchor="start" x="975" y="-2490.8" font-family="Times,serif" font-size="14.00">  analysis_id</text>
<polygon fill="white" stroke="none" points="950.5,-2463 950.5,-2482 1048.5,-2482 1048.5,-2463 950.5,-2463"/>
<text text-anchor="start" x="979.5" y="-2468.8" font-family="Times,serif" font-size="14.00">created</text>
<polygon fill="white" stroke="none" points="950.5,-2442 950.5,-2461 1048.5,-2461 1048.5,-2442 950.5,-2442"/>
<text text-anchor="start" x="967.5" y="-2447.8" font-family="Times,serif" font-size="14.00">logic_name</text>
<polygon fill="white" stroke="none" points="950.5,-2421 950.5,-2440 1048.5,-2440 1048.5,-2421 950.5,-2421"/>
<text text-anchor="start" x="992.5" y="-2426.8" font-family="Times,serif" font-size="14.00">db</text>
<polygon fill="white" stroke="none" points="950.5,-2400 950.5,-2419 1048.5,-2419 1048.5,-2400 950.5,-2400"/>
<text text-anchor="start" x="969" y="-2405.8" font-family="Times,serif" font-size="14.00">db_version</text>
<polygon fill="white" stroke="none" points="950.5,-2379 950.5,-2398 1048.5,-2398 1048.5,-2379 950.5,-2379"/>
<text text-anchor="start" x="980.5" y="-2384.8" font-family="Times,serif" font-size="14.00">db_file</text>
<polygon fill="white" stroke="none" points="950.5,-2358 950.5,-2377 1048.5,-2377 1048.5,-2358 950.5,-2358"/>
<text text-anchor="start" x="975.5" y="-2363.8" font-family="Times,serif" font-size="14.00">program</text>
<polygon fill="white" stroke="none" points="950.5,-2337 950.5,-2356 1048.5,-2356 1048.5,-2337 950.5,-2337"/>
<text text-anchor="start" x="952.5" y="-2342.8" font-family="Times,serif" font-size="14.00">program_version</text>
<polygon fill="white" stroke="none" points="950.5,-2316 950.5,-2335 1048.5,-2335 1048.5,-2316 950.5,-2316"/>
<text text-anchor="start" x="963.5" y="-2321.8" font-family="Times,serif" font-size="14.00">program_file</text>
<polygon fill="white" stroke="none" points="950.5,-2295 950.5,-2314 1048.5,-2314 1048.5,-2295 950.5,-2295"/>
<text text-anchor="start" x="969" y="-2300.8" font-family="Times,serif" font-size="14.00">parameters</text>
<polygon fill="white" stroke="none" points="950.5,-2274 950.5,-2293 1048.5,-2293 1048.5,-2274 950.5,-2274"/>
<text text-anchor="start" x="978.5" y="-2279.8" font-family="Times,serif" font-size="14.00">module</text>
<polygon fill="white" stroke="none" points="950.5,-2253 950.5,-2272 1048.5,-2272 1048.5,-2253 950.5,-2253"/>
<text text-anchor="start" x="955.5" y="-2258.8" font-family="Times,serif" font-size="14.00">module_version</text>
<polygon fill="white" stroke="none" points="950.5,-2232 950.5,-2251 1048.5,-2251 1048.5,-2232 950.5,-2232"/>
<text text-anchor="start" x="970.5" y="-2237.8" font-family="Times,serif" font-size="14.00">gff_source</text>
<polygon fill="white" stroke="none" points="950.5,-2211 950.5,-2230 1048.5,-2230 1048.5,-2211 950.5,-2211"/>
<text text-anchor="start" x="969.5" y="-2216.8" font-family="Times,serif" font-size="14.00">gff_feature</text>
<polygon fill="black" stroke="black" points="948.5,-2504 948.5,-2504 1050.5,-2504 1050.5,-2504 948.5,-2504"/>
</g>
<!-- analysis_description -->
<g id="node5" class="node">
<title>analysis_description</title>
<path fill="#808000" stroke="black" d="M853,-2752.5C853,-2752.5 723,-2752.5 723,-2752.5 717,-2752.5 711,-2746.5 711,-2740.5 711,-2740.5 711,-2625.5 711,-2625.5 711,-2619.5 717,-2613.5 723,-2613.5 723,-2613.5 853,-2613.5 853,-2613.5 859,-2613.5 865,-2619.5 865,-2625.5 865,-2625.5 865,-2740.5 865,-2740.5 865,-2746.5 859,-2752.5 853,-2752.5"/>
<text text-anchor="start" x="723" y="-2731.7" font-family="Times,serif" font-size="16.00">analysis_description</text>
<polygon fill="white" stroke="none" points="721,-2703.5 721,-2722.5 855,-2722.5 855,-2703.5 721,-2703.5"/>
<text text-anchor="start" x="757.5" y="-2709.3" font-family="Times,serif" font-size="14.00">analysis_id</text>
<polygon fill="white" stroke="none" points="721,-2682.5 721,-2701.5 855,-2701.5 855,-2682.5 721,-2682.5"/>
<text text-anchor="start" x="757.5" y="-2688.3" font-family="Times,serif" font-size="14.00">description</text>
<polygon fill="white" stroke="none" points="721,-2661.5 721,-2680.5 855,-2680.5 855,-2661.5 721,-2661.5"/>
<text text-anchor="start" x="751.5" y="-2667.3" font-family="Times,serif" font-size="14.00">display_label</text>
<polygon fill="white" stroke="none" points="721,-2640.5 721,-2659.5 855,-2659.5 855,-2640.5 721,-2640.5"/>
<text text-anchor="start" x="757" y="-2646.3" font-family="Times,serif" font-size="14.00">displayable</text>
<polygon fill="white" stroke="none" points="721,-2619.5 721,-2638.5 855,-2638.5 855,-2619.5 721,-2619.5"/>
<text text-anchor="start" x="762" y="-2625.3" font-family="Times,serif" font-size="14.00">web_data</text>
<polygon fill="black" stroke="black" points="719,-2723.5 719,-2723.5 857,-2723.5 857,-2723.5 719,-2723.5"/>
</g>
<!-- analysis_description&#45;&gt;analysis -->
<g id="edge4" class="edge">
<title>analysis_description:e&#45;&gt;analysis:w</title>
<path fill="none" stroke="black" stroke-dasharray="5,2" d="M856,-2713C957.91,-2713 852.13,-2509.95 938.62,-2494.88"/>
<polygon fill="black" stroke="black" points="938.82,-2498.3 948.5,-2494 938.25,-2491.32 938.82,-2498.3"/>
</g>
<!-- attrib_type -->
<g id="node6" class="node">
<title>attrib_type</title>
<path fill="#808000" stroke="black" d="M840.5,-2167C840.5,-2167 735.5,-2167 735.5,-2167 729.5,-2167 723.5,-2161 723.5,-2155 723.5,-2155 723.5,-2061 723.5,-2061 723.5,-2055 729.5,-2049 735.5,-2049 735.5,-2049 840.5,-2049 840.5,-2049 846.5,-2049 852.5,-2055 852.5,-2061 852.5,-2061 852.5,-2155 852.5,-2155 852.5,-2161 846.5,-2167 840.5,-2167"/>
<text text-anchor="start" x="752.5" y="-2146.2" font-family="Times,serif" font-size="16.00">attrib_type</text>
<polygon fill="white" stroke="none" points="733.5,-2118 733.5,-2137 842.5,-2137 842.5,-2118 733.5,-2118"/>
<text text-anchor="start" x="735.5" y="-2124.8" font-family="Times,serif" font-weight="bold" font-size="14.00">PK</text>
<text text-anchor="start" x="755.5" y="-2124.8" font-family="Times,serif" font-size="14.00">  attrib_type_id</text>
<polygon fill="white" stroke="none" points="733.5,-2097 733.5,-2116 842.5,-2116 842.5,-2097 733.5,-2097"/>
<text text-anchor="start" x="775" y="-2102.8" font-family="Times,serif" font-size="14.00">code</text>
<polygon fill="white" stroke="none" points="733.5,-2076 733.5,-2095 842.5,-2095 842.5,-2076 733.5,-2076"/>
<text text-anchor="start" x="772.5" y="-2081.8" font-family="Times,serif" font-size="14.00">name</text>
<polygon fill="white" stroke="none" points="733.5,-2055 733.5,-2074 842.5,-2074 842.5,-2055 733.5,-2055"/>
<text text-anchor="start" x="757.5" y="-2060.8" font-family="Times,serif" font-size="14.00">description</text>
<polygon fill="black" stroke="black" points="731.5,-2138 731.5,-2138 844.5,-2138 844.5,-2138 731.5,-2138"/>
</g>
<!-- dna_align_feature -->
<g id="node7" class="node">
<title>dna_align_feature</title>
<path fill="#808000" stroke="black" d="M859.5,-1232.5C859.5,-1232.5 716.5,-1232.5 716.5,-1232.5 710.5,-1232.5 704.5,-1226.5 704.5,-1220.5 704.5,-1220.5 704.5,-853.5 704.5,-853.5 704.5,-847.5 710.5,-841.5 716.5,-841.5 716.5,-841.5 859.5,-841.5 859.5,-841.5 865.5,-841.5 871.5,-847.5 871.5,-853.5 871.5,-853.5 871.5,-1220.5 871.5,-1220.5 871.5,-1226.5 865.5,-1232.5 859.5,-1232.5"/>
<text text-anchor="start" x="730.5" y="-1211.7" font-family="Times,serif" font-size="16.00">dna_align_feature</text>
<polygon fill="white" stroke="none" points="714.5,-1183.5 714.5,-1202.5 861.5,-1202.5 861.5,-1183.5 714.5,-1183.5"/>
<text text-anchor="start" x="716.5" y="-1190.3" font-family="Times,serif" font-weight="bold" font-size="14.00">PK</text>
<text text-anchor="start" x="736.5" y="-1190.3" font-family="Times,serif" font-size="14.00">  dna_align_feature_id</text>
<polygon fill="white" stroke="none" points="714.5,-1162.5 714.5,-1181.5 861.5,-1181.5 861.5,-1162.5 714.5,-1162.5"/>
<text text-anchor="start" x="749.5" y="-1168.3" font-family="Times,serif" font-size="14.00">seq_region_id</text>
<polygon fill="white" stroke="none" points="714.5,-1141.5 714.5,-1160.5 861.5,-1160.5 861.5,-1141.5 714.5,-1141.5"/>
<text text-anchor="start" x="742.5" y="-1147.3" font-family="Times,serif" font-size="14.00">seq_region_start</text>
<polygon fill="white" stroke="none" points="714.5,-1120.5 714.5,-1139.5 861.5,-1139.5 861.5,-1120.5 714.5,-1120.5"/>
<text text-anchor="start" x="745" y="-1126.3" font-family="Times,serif" font-size="14.00">seq_region_end</text>
<polygon fill="white" stroke="none" points="714.5,-1099.5 714.5,-1118.5 861.5,-1118.5 861.5,-1099.5 714.5,-1099.5"/>
<text text-anchor="start" x="738" y="-1105.3" font-family="Times,serif" font-size="14.00">seq_region_strand</text>
<polygon fill="white" stroke="none" points="714.5,-1078.5 714.5,-1097.5 861.5,-1097.5 861.5,-1078.5 714.5,-1078.5"/>
<text text-anchor="start" x="765" y="-1084.3" font-family="Times,serif" font-size="14.00">hit_start</text>
<polygon fill="white" stroke="none" points="714.5,-1057.5 714.5,-1076.5 861.5,-1076.5 861.5,-1057.5 714.5,-1057.5"/>
<text text-anchor="start" x="767.5" y="-1063.3" font-family="Times,serif" font-size="14.00">hit_end</text>
<polygon fill="white" stroke="none" points="714.5,-1036.5 714.5,-1055.5 861.5,-1055.5 861.5,-1036.5 714.5,-1036.5"/>
<text text-anchor="start" x="760.5" y="-1042.3" font-family="Times,serif" font-size="14.00">hit_strand</text>
<polygon fill="white" stroke="none" points="714.5,-1015.5 714.5,-1034.5 861.5,-1034.5 861.5,-1015.5 714.5,-1015.5"/>
<text text-anchor="start" x="762" y="-1021.3" font-family="Times,serif" font-size="14.00">hit_name</text>
<polygon fill="white" stroke="none" points="714.5,-994.5 714.5,-1013.5 861.5,-1013.5 861.5,-994.5 714.5,-994.5"/>
<text text-anchor="start" x="757.5" y="-1000.3" font-family="Times,serif" font-size="14.00">analysis_id</text>
<polygon fill="white" stroke="none" points="714.5,-973.5 714.5,-992.5 861.5,-992.5 861.5,-973.5 714.5,-973.5"/>
<text text-anchor="start" x="773.5" y="-979.3" font-family="Times,serif" font-size="14.00">score</text>
<polygon fill="white" stroke="none" points="714.5,-952.5 714.5,-971.5 861.5,-971.5 861.5,-952.5 714.5,-952.5"/>
<text text-anchor="start" x="770" y="-958.3" font-family="Times,serif" font-size="14.00">evalue</text>
<polygon fill="white" stroke="none" points="714.5,-931.5 714.5,-950.5 861.5,-950.5 861.5,-931.5 714.5,-931.5"/>
<text text-anchor="start" x="759" y="-937.3" font-family="Times,serif" font-size="14.00">perc_ident</text>
<polygon fill="white" stroke="none" points="714.5,-910.5 714.5,-929.5 861.5,-929.5 861.5,-910.5 714.5,-910.5"/>
<text text-anchor="start" x="760.5" y="-916.3" font-family="Times,serif" font-size="14.00">cigar_line</text>
<polygon fill="white" stroke="none" points="714.5,-889.5 714.5,-908.5 861.5,-908.5 861.5,-889.5 714.5,-889.5"/>
<text text-anchor="start" x="747" y="-895.3" font-family="Times,serif" font-size="14.00">external_db_id</text>
<polygon fill="white" stroke="none" points="714.5,-868.5 714.5,-887.5 861.5,-887.5 861.5,-868.5 714.5,-868.5"/>
<text text-anchor="start" x="760" y="-874.3" font-family="Times,serif" font-size="14.00">hcoverage</text>
<polygon fill="white" stroke="none" points="714.5,-847.5 714.5,-866.5 861.5,-866.5 861.5,-847.5 714.5,-847.5"/>
<text text-anchor="start" x="759" y="-853.3" font-family="Times,serif" font-size="14.00">align_type</text>
<polygon fill="black" stroke="black" points="712.5,-1203.5 712.5,-1203.5 863.5,-1203.5 863.5,-1203.5 712.5,-1203.5"/>
</g>
<!-- dna_align_feature&#45;&gt;analysis -->
<g id="edge8" class="edge">
<title>dna_align_feature:e&#45;&gt;analysis:w</title>
<path fill="none" stroke="black" stroke-dasharray="5,2" d="M863,-1004C942.76,-1004 872.39,-2382.67 940.71,-2487.68"/>
<polygon fill="black" stroke="black" points="938.34,-2491 948.5,-2494 942.43,-2485.32 938.34,-2491"/>
</g>
<!-- external_db -->
<g id="node24" class="node">
<title>external_db</title>
<path fill="#1e90ff" stroke="black" d="M1054.5,-216C1054.5,-216 944.5,-216 944.5,-216 938.5,-216 932.5,-210 932.5,-204 932.5,-204 932.5,-152 932.5,-152 932.5,-146 938.5,-140 944.5,-140 944.5,-140 1054.5,-140 1054.5,-140 1060.5,-140 1066.5,-146 1066.5,-152 1066.5,-152 1066.5,-204 1066.5,-204 1066.5,-210 1060.5,-216 1054.5,-216"/>
<text text-anchor="start" x="961" y="-195.2" font-family="Times,serif" font-size="16.00">external_db</text>
<polygon fill="white" stroke="none" points="942.5,-167 942.5,-186 1056.5,-186 1056.5,-167 942.5,-167"/>
<text text-anchor="start" x="944.5" y="-173.8" font-family="Times,serif" font-weight="bold" font-size="14.00">PK</text>
<text text-anchor="start" x="964.5" y="-173.8" font-family="Times,serif" font-size="14.00">  external_db_id</text>
<polygon fill="white" stroke="none" points="942.5,-146 942.5,-165 1056.5,-165 1056.5,-146 942.5,-146"/>
<text text-anchor="start" x="993.5" y="-152.8" font-family="Times,serif" font-style="italic" font-size="14.00">...</text>
<polygon fill="black" stroke="black" points="940.5,-187 940.5,-187 1058.5,-187 1058.5,-187 940.5,-187"/>
</g>
<!-- dna_align_feature&#45;&gt;external_db -->
<g id="edge9" class="edge">
<title>dna_align_feature:e&#45;&gt;external_db:w</title>
<path fill="none" stroke="black" stroke-dasharray="5,2" d="M863,-899C937.98,-899 889.64,-297.56 912,-226 918.43,-205.41 916.7,-184.31 931.02,-177.93"/>
<polygon fill="black" stroke="black" points="931.3,-181.26 940.5,-176 930.03,-174.37 931.3,-181.26"/>
</g>
<!-- seq_region -->
<g id="node34" class="node">
<title>seq_region</title>
<path fill="#c70c09" stroke="black" d="M1052,-556C1052,-556 947,-556 947,-556 941,-556 935,-550 935,-544 935,-544 935,-492 935,-492 935,-486 941,-480 947,-480 947,-480 1052,-480 1052,-480 1058,-480 1064,-486 1064,-492 1064,-492 1064,-544 1064,-544 1064,-550 1058,-556 1052,-556"/>
<text text-anchor="start" x="964" y="-535.2" font-family="Times,serif" font-size="16.00">seq_region</text>
<polygon fill="white" stroke="none" points="945,-507 945,-526 1054,-526 1054,-507 945,-507"/>
<text text-anchor="start" x="947" y="-513.8" font-family="Times,serif" font-weight="bold" font-size="14.00">PK</text>
<text text-anchor="start" x="967" y="-513.8" font-family="Times,serif" font-size="14.00">  seq_region_id</text>
<polygon fill="white" stroke="none" points="945,-486 945,-505 1054,-505 1054,-486 945,-486"/>
<text text-anchor="start" x="993.5" y="-492.8" font-family="Times,serif" font-style="italic" font-size="14.00">...</text>
<polygon fill="black" stroke="black" points="943,-527 943,-527 1056,-527 1056,-527 943,-527"/>
</g>
<!-- dna_align_feature&#45;&gt;seq_region -->
<g id="edge10" class="edge">
<title>dna_align_feature:e&#45;&gt;seq_region:w</title>
<path fill="none" stroke="black" stroke-dasharray="5,2" d="M863,-1172C930.55,-1172 890.66,-630.09 912,-566 918.94,-545.17 917.93,-524.23 932.76,-517.91"/>
<polygon fill="black" stroke="black" points="933.27,-521.2 942.5,-516 932.04,-514.31 933.27,-521.2"/>
</g>
<!-- dna_align_feature_attrib -->
<g id="node8" class="node">
<title>dna_align_feature_attrib</title>
<path fill="#808000" stroke="black" d="M185,-1466.5C185,-1466.5 28,-1466.5 28,-1466.5 22,-1466.5 16,-1460.5 16,-1454.5 16,-1454.5 16,-1381.5 16,-1381.5 16,-1375.5 22,-1369.5 28,-1369.5 28,-1369.5 185,-1369.5 185,-1369.5 191,-1369.5 197,-1375.5 197,-1381.5 197,-1381.5 197,-1454.5 197,-1454.5 197,-1460.5 191,-1466.5 185,-1466.5"/>
<text text-anchor="start" x="28" y="-1445.7" font-family="Times,serif" font-size="16.00">dna_align_feature_attrib</text>
<polygon fill="white" stroke="none" points="26,-1417.5 26,-1436.5 187,-1436.5 187,-1417.5 26,-1417.5"/>
<text text-anchor="start" x="49" y="-1423.3" font-family="Times,serif" font-size="14.00">dna_align_feature_id</text>
<polygon fill="white" stroke="none" points="26,-1396.5 26,-1415.5 187,-1415.5 187,-1396.5 26,-1396.5"/>
<text text-anchor="start" x="68" y="-1402.3" font-family="Times,serif" font-size="14.00">attrib_type_id</text>
<polygon fill="white" stroke="none" points="26,-1375.5 26,-1394.5 187,-1394.5 187,-1375.5 26,-1375.5"/>
<text text-anchor="start" x="91.5" y="-1381.3" font-family="Times,serif" font-size="14.00">value</text>
<polygon fill="black" stroke="black" points="24,-1437.5 24,-1437.5 189,-1437.5 189,-1437.5 24,-1437.5"/>
</g>
<!-- exon -->
<g id="node9" class="node">
<title>exon</title>
<path fill="#808000" stroke="black" d="M1231,-2055.5C1231,-2055.5 1131,-2055.5 1131,-2055.5 1125,-2055.5 1119,-2049.5 1119,-2043.5 1119,-2043.5 1119,-1760.5 1119,-1760.5 1119,-1754.5 1125,-1748.5 1131,-1748.5 1131,-1748.5 1231,-1748.5 1231,-1748.5 1237,-1748.5 1243,-1754.5 1243,-1760.5 1243,-1760.5 1243,-2043.5 1243,-2043.5 1243,-2049.5 1237,-2055.5 1231,-2055.5"/>
<text text-anchor="start" x="1165.5" y="-2034.7" font-family="Times,serif" font-size="16.00">exon</text>
<polygon fill="white" stroke="none" points="1129,-2006.5 1129,-2025.5 1233,-2025.5 1233,-2006.5 1129,-2006.5"/>
<text text-anchor="start" x="1145.5" y="-2013.3" font-family="Times,serif" font-weight="bold" font-size="14.00">PK</text>
<text text-anchor="start" x="1165.5" y="-2013.3" font-family="Times,serif" font-size="14.00">  exon_id</text>
<polygon fill="white" stroke="none" points="1129,-1985.5 1129,-2004.5 1233,-2004.5 1233,-1985.5 1129,-1985.5"/>
<text text-anchor="start" x="1142.5" y="-1991.3" font-family="Times,serif" font-size="14.00">seq_region_id</text>
<polygon fill="white" stroke="none" points="1129,-1964.5 1129,-1983.5 1233,-1983.5 1233,-1964.5 1129,-1964.5"/>
<text text-anchor="start" x="1135.5" y="-1970.3" font-family="Times,serif" font-size="14.00">seq_region_start</text>
<polygon fill="white" stroke="none" points="1129,-1943.5 1129,-1962.5 1233,-1962.5 1233,-1943.5 1129,-1943.5"/>
<text text-anchor="start" x="1138" y="-1949.3" font-family="Times,serif" font-size="14.00">seq_region_end</text>
<polygon fill="white" stroke="none" points="1129,-1922.5 1129,-1941.5 1233,-1941.5 1233,-1922.5 1129,-1922.5"/>
<text text-anchor="start" x="1131" y="-1928.3" font-family="Times,serif" font-size="14.00">seq_region_strand</text>
<polygon fill="white" stroke="none" points="1129,-1901.5 1129,-1920.5 1233,-1920.5 1233,-1901.5 1129,-1901.5"/>
<text text-anchor="start" x="1165.5" y="-1907.3" font-family="Times,serif" font-size="14.00">phase</text>
<polygon fill="white" stroke="none" points="1129,-1880.5 1129,-1899.5 1233,-1899.5 1233,-1880.5 1129,-1880.5"/>
<text text-anchor="start" x="1152" y="-1886.3" font-family="Times,serif" font-size="14.00">end_phase</text>
<polygon fill="white" stroke="none" points="1129,-1859.5 1129,-1878.5 1233,-1878.5 1233,-1859.5 1129,-1859.5"/>
<text text-anchor="start" x="1153.5" y="-1865.3" font-family="Times,serif" font-size="14.00">is_current</text>
<polygon fill="white" stroke="none" points="1129,-1838.5 1129,-1857.5 1233,-1857.5 1233,-1838.5 1129,-1838.5"/>
<text text-anchor="start" x="1141.5" y="-1844.3" font-family="Times,serif" font-size="14.00">is_constitutive</text>
<polygon fill="white" stroke="none" points="1129,-1817.5 1129,-1836.5 1233,-1836.5 1233,-1817.5 1129,-1817.5"/>
<text text-anchor="start" x="1156.5" y="-1823.3" font-family="Times,serif" font-size="14.00">stable_id</text>
<polygon fill="white" stroke="none" points="1129,-1796.5 1129,-1815.5 1233,-1815.5 1233,-1796.5 1129,-1796.5"/>
<text text-anchor="start" x="1161" y="-1802.3" font-family="Times,serif" font-size="14.00">version</text>
<polygon fill="white" stroke="none" points="1129,-1775.5 1129,-1794.5 1233,-1794.5 1233,-1775.5 1129,-1775.5"/>
<text text-anchor="start" x="1146.5" y="-1781.3" font-family="Times,serif" font-size="14.00">created_date</text>
<polygon fill="white" stroke="none" points="1129,-1754.5 1129,-1773.5 1233,-1773.5 1233,-1754.5 1129,-1754.5"/>
<text text-anchor="start" x="1141.5" y="-1760.3" font-family="Times,serif" font-size="14.00">modified_date</text>
<polygon fill="black" stroke="black" points="1127,-2026.5 1127,-2026.5 1235,-2026.5 1235,-2026.5 1127,-2026.5"/>
</g>
<!-- exon&#45;&gt;seq_region -->
<g id="edge11" class="edge">
<title>exon:e&#45;&gt;seq_region:w</title>
<path fill="none" stroke="black" stroke-dasharray="5,2" d="M1234,-1995C1254.65,-1995 1245.31,-2179.21 1119,-2055.5 1089.43,-2026.54 1094.04,-606.94 1088,-566 1082.21,-526.74 1095.61,-503.99 1064,-480 1042.85,-463.94 963.54,-461.48 944.5,-480 936.52,-487.76 931.42,-502.13 934.43,-510.17"/>
<polygon fill="black" stroke="black" points="932.19,-513.54 942.5,-516 935.98,-507.65 932.19,-513.54"/>
</g>
<!-- exon_transcript -->
<g id="node10" class="node">
<title>exon_transcript</title>
<path fill="#808000" stroke="black" d="M602,-2357.5C602,-2357.5 502,-2357.5 502,-2357.5 496,-2357.5 490,-2351.5 490,-2345.5 490,-2345.5 490,-2272.5 490,-2272.5 490,-2266.5 496,-2260.5 502,-2260.5 502,-2260.5 602,-2260.5 602,-2260.5 608,-2260.5 614,-2266.5 614,-2272.5 614,-2272.5 614,-2345.5 614,-2345.5 614,-2351.5 608,-2357.5 602,-2357.5"/>
<text text-anchor="start" x="502" y="-2336.7" font-family="Times,serif" font-size="16.00">exon_transcript</text>
<polygon fill="white" stroke="none" points="500,-2308.5 500,-2327.5 604,-2327.5 604,-2308.5 500,-2308.5"/>
<text text-anchor="start" x="516.5" y="-2315.3" font-family="Times,serif" font-weight="bold" font-size="14.00">PK</text>
<text text-anchor="start" x="536.5" y="-2315.3" font-family="Times,serif" font-size="14.00">  exon_id</text>
<polygon fill="white" stroke="none" points="500,-2287.5 500,-2306.5 604,-2306.5 604,-2287.5 500,-2287.5"/>
<text text-anchor="start" x="503.5" y="-2294.3" font-family="Times,serif" font-weight="bold" font-size="14.00">PK</text>
<text text-anchor="start" x="523.5" y="-2294.3" font-family="Times,serif" font-size="14.00">  transcript_id</text>
<polygon fill="white" stroke="none" points="500,-2266.5 500,-2285.5 604,-2285.5 604,-2266.5 500,-2266.5"/>
<text text-anchor="start" x="526" y="-2273.3" font-family="Times,serif" font-weight="bold" font-size="14.00">PK</text>
<text text-anchor="start" x="546" y="-2273.3" font-family="Times,serif" font-size="14.00">  rank</text>
<polygon fill="black" stroke="black" points="498,-2328.5 498,-2328.5 606,-2328.5 606,-2328.5 498,-2328.5"/>
</g>
<!-- exon_transcript&#45;&gt;exon -->
<g id="edge12" class="edge">
<title>exon_transcript:e&#45;&gt;exon:w</title>
<path fill="none" stroke="black" stroke-dasharray="5,2" d="M605,-2318C635.06,-2318 668.24,-2230.71 695,-2217 704.77,-2212 1079.71,-2183.2 1088,-2176 1140.33,-2130.58 1063.97,-2028.05 1117.38,-2016.98"/>
<polygon fill="black" stroke="black" points="1117.36,-2020.4 1127,-2016 1116.72,-2013.43 1117.36,-2020.4"/>
</g>
<!-- transcript -->
<g id="node16" class="node">
<title>transcript</title>
<path fill="#808000" stroke="black" d="M854.5,-2030.5C854.5,-2030.5 721.5,-2030.5 721.5,-2030.5 715.5,-2030.5 709.5,-2024.5 709.5,-2018.5 709.5,-2018.5 709.5,-1651.5 709.5,-1651.5 709.5,-1645.5 715.5,-1639.5 721.5,-1639.5 721.5,-1639.5 854.5,-1639.5 854.5,-1639.5 860.5,-1639.5 866.5,-1645.5 866.5,-1651.5 866.5,-1651.5 866.5,-2018.5 866.5,-2018.5 866.5,-2024.5 860.5,-2030.5 854.5,-2030.5"/>
<text text-anchor="start" x="757.5" y="-2009.7" font-family="Times,serif" font-size="16.00">transcript</text>
<polygon fill="white" stroke="none" points="719.5,-1981.5 719.5,-2000.5 856.5,-2000.5 856.5,-1981.5 719.5,-1981.5"/>
<text text-anchor="start" x="739.5" y="-1988.3" font-family="Times,serif" font-weight="bold" font-size="14.00">PK</text>
<text text-anchor="start" x="759.5" y="-1988.3" font-family="Times,serif" font-size="14.00">  transcript_id</text>
<polygon fill="white" stroke="none" points="719.5,-1960.5 719.5,-1979.5 856.5,-1979.5 856.5,-1960.5 719.5,-1960.5"/>
<text text-anchor="start" x="766.5" y="-1966.3" font-family="Times,serif" font-size="14.00">gene_id</text>
<polygon fill="white" stroke="none" points="719.5,-1939.5 719.5,-1958.5 856.5,-1958.5 856.5,-1939.5 719.5,-1939.5"/>
<text text-anchor="start" x="757.5" y="-1945.3" font-family="Times,serif" font-size="14.00">analysis_id</text>
<polygon fill="white" stroke="none" points="719.5,-1918.5 719.5,-1937.5 856.5,-1937.5 856.5,-1918.5 719.5,-1918.5"/>
<text text-anchor="start" x="749.5" y="-1924.3" font-family="Times,serif" font-size="14.00">seq_region_id</text>
<polygon fill="white" stroke="none" points="719.5,-1897.5 719.5,-1916.5 856.5,-1916.5 856.5,-1897.5 719.5,-1897.5"/>
<text text-anchor="start" x="742.5" y="-1903.3" font-family="Times,serif" font-size="14.00">seq_region_start</text>
<polygon fill="white" stroke="none" points="719.5,-1876.5 719.5,-1895.5 856.5,-1895.5 856.5,-1876.5 719.5,-1876.5"/>
<text text-anchor="start" x="745" y="-1882.3" font-family="Times,serif" font-size="14.00">seq_region_end</text>
<polygon fill="white" stroke="none" points="719.5,-1855.5 719.5,-1874.5 856.5,-1874.5 856.5,-1855.5 719.5,-1855.5"/>
<text text-anchor="start" x="738" y="-1861.3" font-family="Times,serif" font-size="14.00">seq_region_strand</text>
<polygon fill="white" stroke="none" points="719.5,-1834.5 719.5,-1853.5 856.5,-1853.5 856.5,-1834.5 719.5,-1834.5"/>
<text text-anchor="start" x="745.5" y="-1840.3" font-family="Times,serif" font-size="14.00">display_xref_id</text>
<polygon fill="white" stroke="none" points="719.5,-1813.5 719.5,-1832.5 856.5,-1832.5 856.5,-1813.5 719.5,-1813.5"/>
<text text-anchor="start" x="770" y="-1819.3" font-family="Times,serif" font-size="14.00">source</text>
<polygon fill="white" stroke="none" points="719.5,-1792.5 719.5,-1811.5 856.5,-1811.5 856.5,-1792.5 719.5,-1792.5"/>
<text text-anchor="start" x="767.5" y="-1798.3" font-family="Times,serif" font-size="14.00">biotype</text>
<polygon fill="white" stroke="none" points="719.5,-1771.5 719.5,-1790.5 856.5,-1790.5 856.5,-1771.5 719.5,-1771.5"/>
<text text-anchor="start" x="757.5" y="-1777.3" font-family="Times,serif" font-size="14.00">description</text>
<polygon fill="white" stroke="none" points="719.5,-1750.5 719.5,-1769.5 856.5,-1769.5 856.5,-1750.5 719.5,-1750.5"/>
<text text-anchor="start" x="760.5" y="-1756.3" font-family="Times,serif" font-size="14.00">is_current</text>
<polygon fill="white" stroke="none" points="719.5,-1729.5 719.5,-1748.5 856.5,-1748.5 856.5,-1729.5 719.5,-1729.5"/>
<text text-anchor="start" x="721.5" y="-1735.3" font-family="Times,serif" font-size="14.00">canonical_translation_id</text>
<polygon fill="white" stroke="none" points="719.5,-1708.5 719.5,-1727.5 856.5,-1727.5 856.5,-1708.5 719.5,-1708.5"/>
<text text-anchor="start" x="763.5" y="-1714.3" font-family="Times,serif" font-size="14.00">stable_id</text>
<polygon fill="white" stroke="none" points="719.5,-1687.5 719.5,-1706.5 856.5,-1706.5 856.5,-1687.5 719.5,-1687.5"/>
<text text-anchor="start" x="768" y="-1693.3" font-family="Times,serif" font-size="14.00">version</text>
<polygon fill="white" stroke="none" points="719.5,-1666.5 719.5,-1685.5 856.5,-1685.5 856.5,-1666.5 719.5,-1666.5"/>
<text text-anchor="start" x="753.5" y="-1672.3" font-family="Times,serif" font-size="14.00">created_date</text>
<polygon fill="white" stroke="none" points="719.5,-1645.5 719.5,-1664.5 856.5,-1664.5 856.5,-1645.5 719.5,-1645.5"/>
<text text-anchor="start" x="748.5" y="-1651.3" font-family="Times,serif" font-size="14.00">modified_date</text>
<polygon fill="black" stroke="black" points="717.5,-2001.5 717.5,-2001.5 858.5,-2001.5 858.5,-2001.5 717.5,-2001.5"/>
</g>
<!-- exon_transcript&#45;&gt;transcript -->
<g id="edge13" class="edge">
<title>exon_transcript:e&#45;&gt;transcript:w</title>
<path fill="none" stroke="black" stroke-dasharray="5,2" d="M605,-2297C637.63,-2297 646.5,-2280.14 663,-2252 721.04,-2153.03 607.22,-2001.17 707.28,-1991.49"/>
<polygon fill="black" stroke="black" points="707.17,-1994.95 717,-1991 706.85,-1987.96 707.17,-1994.95"/>
</g>
<!-- gene&#45;&gt;analysis -->
<g id="edge14" class="edge">
<title>gene:e&#45;&gt;analysis:w</title>
<path fill="none" stroke="black" stroke-dasharray="5,2" d="M619,-1816C663.92,-1816 651.94,-1863.46 663,-1907 681.54,-1979.99 640.51,-2532.02 695,-2584 724.91,-2612.53 843.97,-2602.35 881,-2584 922.35,-2563.51 903.15,-2504.8 938.6,-2495.3"/>
<polygon fill="black" stroke="black" points="938.99,-2498.66 948.5,-2494 938.15,-2491.71 938.99,-2498.66"/>
</g>
<!-- gene&#45;&gt;transcript -->
<g id="edge16" class="edge">
<title>gene:e&#45;&gt;transcript:w</title>
<path fill="none" stroke="black" stroke-dasharray="5,2" d="M619,-1626C699.27,-1626 639.86,-1958.94 707.57,-1988.86"/>
<polygon fill="black" stroke="black" points="706.5,-1992.41 717,-1991 707.91,-1985.56 706.5,-1992.41"/>
</g>
<!-- gene&#45;&gt;seq_region -->
<g id="edge15" class="edge">
<title>gene:e&#45;&gt;seq_region:w</title>
<path fill="none" stroke="black" stroke-dasharray="5,2" d="M619,-1795C726.22,-1795 657.65,-933.51 695,-833 756.08,-668.63 764.17,-522.13 932.7,-516.19"/>
<polygon fill="black" stroke="black" points="932.56,-519.67 942.5,-516 932.44,-512.67 932.56,-519.67"/>
</g>
<!-- xref -->
<g id="node38" class="node">
<title>xref</title>
<path fill="#1e90ff" stroke="black" d="M1033,-122C1033,-122 966,-122 966,-122 960,-122 954,-116 954,-110 954,-110 954,-58 954,-58 954,-52 960,-46 966,-46 966,-46 1033,-46 1033,-46 1039,-46 1045,-52 1045,-58 1045,-58 1045,-110 1045,-110 1045,-116 1039,-122 1033,-122"/>
<text text-anchor="start" x="986.5" y="-101.2" font-family="Times,serif" font-size="16.00">xref</text>
<polygon fill="white" stroke="none" points="964,-73 964,-92 1035,-92 1035,-73 964,-73"/>
<text text-anchor="start" x="966" y="-79.8" font-family="Times,serif" font-weight="bold" font-size="14.00">PK</text>
<text text-anchor="start" x="986" y="-79.8" font-family="Times,serif" font-size="14.00">  xref_id</text>
<polygon fill="white" stroke="none" points="964,-52 964,-71 1035,-71 1035,-52 964,-52"/>
<text text-anchor="start" x="993.5" y="-58.8" font-family="Times,serif" font-style="italic" font-size="14.00">...</text>
<polygon fill="black" stroke="black" points="962,-93 962,-93 1037,-93 1037,-93 962,-93"/>
</g>
<!-- gene&#45;&gt;xref -->
<g id="edge17" class="edge">
<title>gene:e&#45;&gt;xref:w</title>
<path fill="none" stroke="black" stroke-dasharray="5,2" d="M619,-1710C706.55,-1710 651.77,-1604.82 663,-1518 691.47,-1297.94 635.72,-733.83 695,-520 754.96,-303.73 735.07,-89.03 951.67,-82.17"/>
<polygon fill="black" stroke="black" points="951.56,-85.66 961.5,-82 951.45,-78.66 951.56,-85.66"/>
</g>
<!-- gene_attrib -->
<g id="node12" class="node">
<title>gene_attrib</title>
<path fill="#808000" stroke="black" d="M359.5,-1571.5C359.5,-1571.5 282.5,-1571.5 282.5,-1571.5 276.5,-1571.5 270.5,-1565.5 270.5,-1559.5 270.5,-1559.5 270.5,-1486.5 270.5,-1486.5 270.5,-1480.5 276.5,-1474.5 282.5,-1474.5 282.5,-1474.5 359.5,-1474.5 359.5,-1474.5 365.5,-1474.5 371.5,-1480.5 371.5,-1486.5 371.5,-1486.5 371.5,-1559.5 371.5,-1559.5 371.5,-1565.5 365.5,-1571.5 359.5,-1571.5"/>
<text text-anchor="start" x="284.5" y="-1550.7" font-family="Times,serif" font-size="16.00">gene_attrib</text>
<polygon fill="white" stroke="none" points="280.5,-1522.5 280.5,-1541.5 361.5,-1541.5 361.5,-1522.5 280.5,-1522.5"/>
<text text-anchor="start" x="299.5" y="-1528.3" font-family="Times,serif" font-size="14.00">gene_id</text>
<polygon fill="white" stroke="none" points="280.5,-1501.5 280.5,-1520.5 361.5,-1520.5 361.5,-1501.5 280.5,-1501.5"/>
<text text-anchor="start" x="282.5" y="-1507.3" font-family="Times,serif" font-size="14.00">attrib_type_id</text>
<polygon fill="white" stroke="none" points="280.5,-1480.5 280.5,-1499.5 361.5,-1499.5 361.5,-1480.5 280.5,-1480.5"/>
<text text-anchor="start" x="306" y="-1486.3" font-family="Times,serif" font-size="14.00">value</text>
<polygon fill="black" stroke="black" points="278.5,-1542.5 278.5,-1542.5 363.5,-1542.5 363.5,-1542.5 278.5,-1542.5"/>
</g>
<!-- gene_attrib&#45;&gt;attrib_type -->
<g id="edge18" class="edge">
<title>gene_attrib:e&#45;&gt;attrib_type:w</title>
<path fill="none" stroke="black" stroke-dasharray="5,2" d="M363,-1511C408.41,-1511 398.36,-1460.62 441,-1445 533.65,-1411.06 591.38,-1377.13 663,-1445 711.06,-1490.54 680.17,-1975.48 695,-2040 703.57,-2077.31 692.26,-2118.94 721.13,-2126.71"/>
<polygon fill="black" stroke="black" points="720.66,-2130.3 731,-2128 721.48,-2123.35 720.66,-2130.3"/>
</g>
<!-- gene_attrib&#45;&gt;gene -->
<g id="edge19" class="edge">
<title>gene_attrib:e&#45;&gt;gene:w</title>
<path fill="none" stroke="black" stroke-dasharray="5,2" d="M363,-1532C513.93,-1532 339.24,-1842.28 474.27,-1857.43"/>
<polygon fill="black" stroke="black" points="473.83,-1860.96 484,-1858 474.2,-1853.97 473.83,-1860.96"/>
</g>
<!-- protein_align_feature -->
<g id="node13" class="node">
<title>protein_align_feature</title>
<path fill="#808000" stroke="black" d="M869,-1621C869,-1621 707,-1621 707,-1621 701,-1621 695,-1615 695,-1609 695,-1609 695,-1263 695,-1263 695,-1257 701,-1251 707,-1251 707,-1251 869,-1251 869,-1251 875,-1251 881,-1257 881,-1263 881,-1263 881,-1609 881,-1609 881,-1615 875,-1621 869,-1621"/>
<text text-anchor="start" x="720" y="-1600.2" font-family="Times,serif" font-size="16.00">protein_align_feature</text>
<polygon fill="white" stroke="none" points="705,-1572 705,-1591 871,-1591 871,-1572 705,-1572"/>
<text text-anchor="start" x="707" y="-1578.8" font-family="Times,serif" font-weight="bold" font-size="14.00">PK</text>
<text text-anchor="start" x="727" y="-1578.8" font-family="Times,serif" font-size="14.00">  protein_align_feature_id</text>
<polygon fill="white" stroke="none" points="705,-1551 705,-1570 871,-1570 871,-1551 705,-1551"/>
<text text-anchor="start" x="749.5" y="-1556.8" font-family="Times,serif" font-size="14.00">seq_region_id</text>
<polygon fill="white" stroke="none" points="705,-1530 705,-1549 871,-1549 871,-1530 705,-1530"/>
<text text-anchor="start" x="742.5" y="-1535.8" font-family="Times,serif" font-size="14.00">seq_region_start</text>
<polygon fill="white" stroke="none" points="705,-1509 705,-1528 871,-1528 871,-1509 705,-1509"/>
<text text-anchor="start" x="745" y="-1514.8" font-family="Times,serif" font-size="14.00">seq_region_end</text>
<polygon fill="white" stroke="none" points="705,-1488 705,-1507 871,-1507 871,-1488 705,-1488"/>
<text text-anchor="start" x="738" y="-1493.8" font-family="Times,serif" font-size="14.00">seq_region_strand</text>
<polygon fill="white" stroke="none" points="705,-1467 705,-1486 871,-1486 871,-1467 705,-1467"/>
<text text-anchor="start" x="765" y="-1472.8" font-family="Times,serif" font-size="14.00">hit_start</text>
<polygon fill="white" stroke="none" points="705,-1446 705,-1465 871,-1465 871,-1446 705,-1446"/>
<text text-anchor="start" x="767.5" y="-1451.8" font-family="Times,serif" font-size="14.00">hit_end</text>
<polygon fill="white" stroke="none" points="705,-1425 705,-1444 871,-1444 871,-1425 705,-1425"/>
<text text-anchor="start" x="762" y="-1430.8" font-family="Times,serif" font-size="14.00">hit_name</text>
<polygon fill="white" stroke="none" points="705,-1404 705,-1423 871,-1423 871,-1404 705,-1404"/>
<text text-anchor="start" x="757.5" y="-1409.8" font-family="Times,serif" font-size="14.00">analysis_id</text>
<polygon fill="white" stroke="none" points="705,-1383 705,-1402 871,-1402 871,-1383 705,-1383"/>
<text text-anchor="start" x="773.5" y="-1388.8" font-family="Times,serif" font-size="14.00">score</text>
<polygon fill="white" stroke="none" points="705,-1362 705,-1381 871,-1381 871,-1362 705,-1362"/>
<text text-anchor="start" x="770" y="-1367.8" font-family="Times,serif" font-size="14.00">evalue</text>
<polygon fill="white" stroke="none" points="705,-1341 705,-1360 871,-1360 871,-1341 705,-1341"/>
<text text-anchor="start" x="759" y="-1346.8" font-family="Times,serif" font-size="14.00">perc_ident</text>
<polygon fill="white" stroke="none" points="705,-1320 705,-1339 871,-1339 871,-1320 705,-1320"/>
<text text-anchor="start" x="760.5" y="-1325.8" font-family="Times,serif" font-size="14.00">cigar_line</text>
<polygon fill="white" stroke="none" points="705,-1299 705,-1318 871,-1318 871,-1299 705,-1299"/>
<text text-anchor="start" x="747" y="-1304.8" font-family="Times,serif" font-size="14.00">external_db_id</text>
<polygon fill="white" stroke="none" points="705,-1278 705,-1297 871,-1297 871,-1278 705,-1278"/>
<text text-anchor="start" x="760" y="-1283.8" font-family="Times,serif" font-size="14.00">hcoverage</text>
<polygon fill="white" stroke="none" points="705,-1257 705,-1276 871,-1276 871,-1257 705,-1257"/>
<text text-anchor="start" x="759" y="-1262.8" font-family="Times,serif" font-size="14.00">align_type</text>
<polygon fill="black" stroke="black" points="703,-1592 703,-1592 873,-1592 873,-1592 703,-1592"/>
</g>
<!-- protein_align_feature&#45;&gt;analysis -->
<g id="edge28" class="edge">
<title>protein_align_feature:e&#45;&gt;analysis:w</title>
<path fill="none" stroke="black" stroke-dasharray="5,2" d="M872,-1413C914.45,-1413 908.4,-2133.71 912,-2176 917.7,-2243.02 882.55,-2467.5 938.79,-2491.85"/>
<polygon fill="black" stroke="black" points="938.01,-2495.46 948.5,-2494 939.38,-2488.6 938.01,-2495.46"/>
</g>
<!-- protein_align_feature&#45;&gt;external_db -->
<g id="edge29" class="edge">
<title>protein_align_feature:e&#45;&gt;external_db:w</title>
<path fill="none" stroke="black" stroke-dasharray="5,2" d="M872,-1308C901.6,-1308 878.55,-1271.5 881,-1242 890.37,-1129.45 880.6,-334.49 912,-226 918,-205.28 916.55,-184.26 930.99,-177.92"/>
<polygon fill="black" stroke="black" points="931.29,-181.24 940.5,-176 930.03,-174.36 931.29,-181.24"/>
</g>
<!-- protein_align_feature&#45;&gt;seq_region -->
<g id="edge30" class="edge">
<title>protein_align_feature:e&#45;&gt;seq_region:w</title>
<path fill="none" stroke="black" stroke-dasharray="5,2" d="M872,-1561C927.32,-1561 895.59,-618.83 912,-566 918.51,-545.03 917.8,-524.18 932.73,-517.9"/>
<polygon fill="black" stroke="black" points="933.26,-521.19 942.5,-516 932.04,-514.29 933.26,-521.19"/>
</g>
<!-- protein_feature -->
<g id="node14" class="node">
<title>protein_feature</title>
<path fill="#808000" stroke="black" d="M852,-2574.5C852,-2574.5 724,-2574.5 724,-2574.5 718,-2574.5 712,-2568.5 712,-2562.5 712,-2562.5 712,-2237.5 712,-2237.5 712,-2231.5 718,-2225.5 724,-2225.5 724,-2225.5 852,-2225.5 852,-2225.5 858,-2225.5 864,-2231.5 864,-2237.5 864,-2237.5 864,-2562.5 864,-2562.5 864,-2568.5 858,-2574.5 852,-2574.5"/>
<text text-anchor="start" x="739.5" y="-2553.7" font-family="Times,serif" font-size="16.00">protein_feature</text>
<polygon fill="white" stroke="none" points="722,-2525.5 722,-2544.5 854,-2544.5 854,-2525.5 722,-2525.5"/>
<text text-anchor="start" x="724" y="-2532.3" font-family="Times,serif" font-weight="bold" font-size="14.00">PK</text>
<text text-anchor="start" x="744" y="-2532.3" font-family="Times,serif" font-size="14.00">  protein_feature_id</text>
<polygon fill="white" stroke="none" points="722,-2504.5 722,-2523.5 854,-2523.5 854,-2504.5 722,-2504.5"/>
<text text-anchor="start" x="750.5" y="-2510.3" font-family="Times,serif" font-size="14.00">translation_id</text>
<polygon fill="white" stroke="none" points="722,-2483.5 722,-2502.5 854,-2502.5 854,-2483.5 722,-2483.5"/>
<text text-anchor="start" x="763.5" y="-2489.3" font-family="Times,serif" font-size="14.00">seq_start</text>
<polygon fill="white" stroke="none" points="722,-2462.5 722,-2481.5 854,-2481.5 854,-2462.5 722,-2462.5"/>
<text text-anchor="start" x="765.5" y="-2468.3" font-family="Times,serif" font-size="14.00">seq_end</text>
<polygon fill="white" stroke="none" points="722,-2441.5 722,-2460.5 854,-2460.5 854,-2441.5 722,-2441.5"/>
<text text-anchor="start" x="765" y="-2447.3" font-family="Times,serif" font-size="14.00">hit_start</text>
<polygon fill="white" stroke="none" points="722,-2420.5 722,-2439.5 854,-2439.5 854,-2420.5 722,-2420.5"/>
<text text-anchor="start" x="767.5" y="-2426.3" font-family="Times,serif" font-size="14.00">hit_end</text>
<polygon fill="white" stroke="none" points="722,-2399.5 722,-2418.5 854,-2418.5 854,-2399.5 722,-2399.5"/>
<text text-anchor="start" x="762" y="-2405.3" font-family="Times,serif" font-size="14.00">hit_name</text>
<polygon fill="white" stroke="none" points="722,-2378.5 722,-2397.5 854,-2397.5 854,-2378.5 722,-2378.5"/>
<text text-anchor="start" x="757.5" y="-2384.3" font-family="Times,serif" font-size="14.00">analysis_id</text>
<polygon fill="white" stroke="none" points="722,-2357.5 722,-2376.5 854,-2376.5 854,-2357.5 722,-2357.5"/>
<text text-anchor="start" x="773.5" y="-2363.3" font-family="Times,serif" font-size="14.00">score</text>
<polygon fill="white" stroke="none" points="722,-2336.5 722,-2355.5 854,-2355.5 854,-2336.5 722,-2336.5"/>
<text text-anchor="start" x="770" y="-2342.3" font-family="Times,serif" font-size="14.00">evalue</text>
<polygon fill="white" stroke="none" points="722,-2315.5 722,-2334.5 854,-2334.5 854,-2315.5 722,-2315.5"/>
<text text-anchor="start" x="759" y="-2321.3" font-family="Times,serif" font-size="14.00">perc_ident</text>
<polygon fill="white" stroke="none" points="722,-2294.5 722,-2313.5 854,-2313.5 854,-2294.5 722,-2294.5"/>
<text text-anchor="start" x="751" y="-2300.3" font-family="Times,serif" font-size="14.00">external_data</text>
<polygon fill="white" stroke="none" points="722,-2273.5 722,-2292.5 854,-2292.5 854,-2273.5 722,-2273.5"/>
<text text-anchor="start" x="747" y="-2279.3" font-family="Times,serif" font-size="14.00">hit_description</text>
<polygon fill="white" stroke="none" points="722,-2252.5 722,-2271.5 854,-2271.5 854,-2252.5 722,-2252.5"/>
<text text-anchor="start" x="760.5" y="-2258.3" font-family="Times,serif" font-size="14.00">cigar_line</text>
<polygon fill="white" stroke="none" points="722,-2231.5 722,-2250.5 854,-2250.5 854,-2231.5 722,-2231.5"/>
<text text-anchor="start" x="759" y="-2237.3" font-family="Times,serif" font-size="14.00">align_type</text>
<polygon fill="black" stroke="black" points="720,-2545.5 720,-2545.5 856,-2545.5 856,-2545.5 720,-2545.5"/>
</g>
<!-- protein_feature&#45;&gt;analysis -->
<g id="edge31" class="edge">
<title>protein_feature:e&#45;&gt;analysis:w</title>
<path fill="none" stroke="black" stroke-dasharray="5,2" d="M855,-2388C914.17,-2388 889.98,-2481.16 938.73,-2492.81"/>
<polygon fill="black" stroke="black" points="938.18,-2496.38 948.5,-2494 938.95,-2489.42 938.18,-2496.38"/>
</g>
<!-- translation -->
<g id="node19" class="node">
<title>translation</title>
<path fill="#808000" stroke="black" d="M1050.5,-2051C1050.5,-2051 948.5,-2051 948.5,-2051 942.5,-2051 936.5,-2045 936.5,-2039 936.5,-2039 936.5,-1819 936.5,-1819 936.5,-1813 942.5,-1807 948.5,-1807 948.5,-1807 1050.5,-1807 1050.5,-1807 1056.5,-1807 1062.5,-1813 1062.5,-1819 1062.5,-1819 1062.5,-2039 1062.5,-2039 1062.5,-2045 1056.5,-2051 1050.5,-2051"/>
<text text-anchor="start" x="965.5" y="-2030.2" font-family="Times,serif" font-size="16.00">translation</text>
<polygon fill="white" stroke="none" points="946.5,-2002 946.5,-2021 1052.5,-2021 1052.5,-2002 946.5,-2002"/>
<text text-anchor="start" x="948.5" y="-2008.8" font-family="Times,serif" font-weight="bold" font-size="14.00">PK</text>
<text text-anchor="start" x="968.5" y="-2008.8" font-family="Times,serif" font-size="14.00">  translation_id</text>
<polygon fill="white" stroke="none" points="946.5,-1981 946.5,-2000 1052.5,-2000 1052.5,-1981 946.5,-1981"/>
<text text-anchor="start" x="964.5" y="-1986.8" font-family="Times,serif" font-size="14.00">transcript_id</text>
<polygon fill="white" stroke="none" points="946.5,-1960 946.5,-1979 1052.5,-1979 1052.5,-1960 946.5,-1960"/>
<text text-anchor="start" x="975" y="-1965.8" font-family="Times,serif" font-size="14.00">seq_start</text>
<polygon fill="white" stroke="none" points="946.5,-1939 946.5,-1958 1052.5,-1958 1052.5,-1939 946.5,-1939"/>
<text text-anchor="start" x="962.5" y="-1944.8" font-family="Times,serif" font-size="14.00">start_exon_id</text>
<polygon fill="white" stroke="none" points="946.5,-1918 946.5,-1937 1052.5,-1937 1052.5,-1918 946.5,-1918"/>
<text text-anchor="start" x="977" y="-1923.8" font-family="Times,serif" font-size="14.00">seq_end</text>
<polygon fill="white" stroke="none" points="946.5,-1897 946.5,-1916 1052.5,-1916 1052.5,-1897 946.5,-1897"/>
<text text-anchor="start" x="964.5" y="-1902.8" font-family="Times,serif" font-size="14.00">end_exon_id</text>
<polygon fill="white" stroke="none" points="946.5,-1876 946.5,-1895 1052.5,-1895 1052.5,-1876 946.5,-1876"/>
<text text-anchor="start" x="975" y="-1881.8" font-family="Times,serif" font-size="14.00">stable_id</text>
<polygon fill="white" stroke="none" points="946.5,-1855 946.5,-1874 1052.5,-1874 1052.5,-1855 946.5,-1855"/>
<text text-anchor="start" x="979.5" y="-1860.8" font-family="Times,serif" font-size="14.00">version</text>
<polygon fill="white" stroke="none" points="946.5,-1834 946.5,-1853 1052.5,-1853 1052.5,-1834 946.5,-1834"/>
<text text-anchor="start" x="965" y="-1839.8" font-family="Times,serif" font-size="14.00">created_date</text>
<polygon fill="white" stroke="none" points="946.5,-1813 946.5,-1832 1052.5,-1832 1052.5,-1813 946.5,-1813"/>
<text text-anchor="start" x="960" y="-1818.8" font-family="Times,serif" font-size="14.00">modified_date</text>
<polygon fill="black" stroke="black" points="944.5,-2022 944.5,-2022 1054.5,-2022 1054.5,-2022 944.5,-2022"/>
</g>
<!-- protein_feature&#45;&gt;translation -->
<g id="edge32" class="edge">
<title>protein_feature:e&#45;&gt;translation:w</title>
<path fill="none" stroke="black" stroke-dasharray="5,2" d="M855,-2514C964.48,-2514 841.17,-2045.73 934.73,-2013.72"/>
<polygon fill="black" stroke="black" points="935.18,-2017.03 944.5,-2012 934.07,-2010.12 935.18,-2017.03"/>
</g>
<!-- supporting_feature -->
<g id="node15" class="node">
<title>supporting_feature</title>
<path fill="#808000" stroke="black" d="M1060,-2166.5C1060,-2166.5 939,-2166.5 939,-2166.5 933,-2166.5 927,-2160.5 927,-2154.5 927,-2154.5 927,-2081.5 927,-2081.5 927,-2075.5 933,-2069.5 939,-2069.5 939,-2069.5 1060,-2069.5 1060,-2069.5 1066,-2069.5 1072,-2075.5 1072,-2081.5 1072,-2081.5 1072,-2154.5 1072,-2154.5 1072,-2160.5 1066,-2166.5 1060,-2166.5"/>
<text text-anchor="start" x="939" y="-2145.7" font-family="Times,serif" font-size="16.00">supporting_feature</text>
<polygon fill="white" stroke="none" points="937,-2117.5 937,-2136.5 1062,-2136.5 1062,-2117.5 937,-2117.5"/>
<text text-anchor="start" x="978" y="-2123.3" font-family="Times,serif" font-size="14.00">exon_id</text>
<polygon fill="white" stroke="none" points="937,-2096.5 937,-2115.5 1062,-2115.5 1062,-2096.5 937,-2096.5"/>
<text text-anchor="start" x="965.5" y="-2102.3" font-family="Times,serif" font-size="14.00">feature_type</text>
<polygon fill="white" stroke="none" points="937,-2075.5 937,-2094.5 1062,-2094.5 1062,-2075.5 937,-2075.5"/>
<text text-anchor="start" x="972" y="-2081.3" font-family="Times,serif" font-size="14.00">feature_id</text>
<polygon fill="black" stroke="black" points="935,-2137.5 935,-2137.5 1064,-2137.5 1064,-2137.5 935,-2137.5"/>
</g>
<!-- supporting_feature&#45;&gt;exon -->
<g id="edge36" class="edge">
<title>supporting_feature:e&#45;&gt;exon:w</title>
<path fill="none" stroke="black" stroke-dasharray="5,2" d="M1063.5,-2127C1116.43,-2127 1077.56,-2031.46 1117.22,-2017.66"/>
<polygon fill="black" stroke="black" points="1117.65,-2020.98 1127,-2016 1116.58,-2014.06 1117.65,-2020.98"/>
</g>
<!-- transcript&#45;&gt;analysis -->
<g id="edge37" class="edge">
<title>transcript:e&#45;&gt;analysis:w</title>
<path fill="none" stroke="black" stroke-dasharray="5,2" d="M858,-1949C976.97,-1949 836.06,-2460.47 938.78,-2492.44"/>
<polygon fill="black" stroke="black" points="938.1,-2496.02 948.5,-2494 939.11,-2489.09 938.1,-2496.02"/>
</g>
<!-- transcript&#45;&gt;gene -->
<g id="edge38" class="edge">
<title>transcript:e&#45;&gt;gene:w</title>
<path fill="none" stroke="black" stroke-dasharray="5,2" d="M858,-1970C884.89,-1970 876.17,-2011.64 857,-2030.5 845.32,-2041.99 722.98,-2039.83 709.5,-2030.5 661.27,-1997.12 710.27,-1941.72 663,-1907 631.25,-1883.68 513.42,-1925.28 486,-1897 477.32,-1888.05 471.65,-1871.82 475.58,-1863.4"/>
<polygon fill="black" stroke="black" points="477.06,-1866.01 484,-1858 473.58,-1859.93 477.06,-1866.01"/>
</g>
<!-- transcript&#45;&gt;translation -->
<g id="edge40" class="edge">
<title>transcript:e&#45;&gt;translation:w</title>
<path fill="none" stroke="black" stroke-dasharray="5,2" d="M858,-1739C981.56,-1739 827.95,-1995.72 934.72,-2011.26"/>
<polygon fill="black" stroke="black" points="934.28,-2014.81 944.5,-2012 934.76,-2007.83 934.28,-2014.81"/>
</g>
<!-- transcript&#45;&gt;seq_region -->
<g id="edge39" class="edge">
<title>transcript:e&#45;&gt;seq_region:w</title>
<path fill="none" stroke="black" stroke-dasharray="5,2" d="M858,-1928C924.42,-1928 877.48,-1696.33 881,-1630 887.27,-1511.89 877.54,-679.14 912,-566 918.4,-545 917.76,-524.17 932.72,-517.9"/>
<polygon fill="black" stroke="black" points="933.26,-521.18 942.5,-516 932.04,-514.29 933.26,-521.18"/>
</g>
<!-- transcript&#45;&gt;xref -->
<g id="edge41" class="edge">
<title>transcript:e&#45;&gt;xref:w</title>
<path fill="none" stroke="black" stroke-dasharray="5,2" d="M858,-1844C953.66,-1844 874.89,-1725.46 881,-1630 886.32,-1546.87 878.75,-207.37 912,-131 922.87,-106.02 929.39,-87.38 951.56,-82.99"/>
<polygon fill="black" stroke="black" points="951.86,-86.39 961.5,-82 951.23,-79.41 951.86,-86.39"/>
</g>
<!-- transcript_attrib -->
<g id="node17" class="node">
<title>transcript_attrib</title>
<path fill="#808000" stroke="black" d="M604,-2127.5C604,-2127.5 500,-2127.5 500,-2127.5 494,-2127.5 488,-2121.5 488,-2115.5 488,-2115.5 488,-2042.5 488,-2042.5 488,-2036.5 494,-2030.5 500,-2030.5 500,-2030.5 604,-2030.5 604,-2030.5 610,-2030.5 616,-2036.5 616,-2042.5 616,-2042.5 616,-2115.5 616,-2115.5 616,-2121.5 610,-2127.5 604,-2127.5"/>
<text text-anchor="start" x="500" y="-2106.7" font-family="Times,serif" font-size="16.00">transcript_attrib</text>
<polygon fill="white" stroke="none" points="498,-2078.5 498,-2097.5 606,-2097.5 606,-2078.5 498,-2078.5"/>
<text text-anchor="start" x="517" y="-2084.3" font-family="Times,serif" font-size="14.00">transcript_id</text>
<polygon fill="white" stroke="none" points="498,-2057.5 498,-2076.5 606,-2076.5 606,-2057.5 498,-2057.5"/>
<text text-anchor="start" x="513.5" y="-2063.3" font-family="Times,serif" font-size="14.00">attrib_type_id</text>
<polygon fill="white" stroke="none" points="498,-2036.5 498,-2055.5 606,-2055.5 606,-2036.5 498,-2036.5"/>
<text text-anchor="start" x="537" y="-2042.3" font-family="Times,serif" font-size="14.00">value</text>
<polygon fill="black" stroke="black" points="496,-2098.5 496,-2098.5 608,-2098.5 608,-2098.5 496,-2098.5"/>
</g>
<!-- transcript_attrib&#45;&gt;attrib_type -->
<g id="edge42" class="edge">
<title>transcript_attrib:e&#45;&gt;attrib_type:w</title>
<path fill="none" stroke="black" stroke-dasharray="5,2" d="M607,-2067C664.95,-2067 669.78,-2120.61 721.09,-2127.31"/>
<polygon fill="black" stroke="black" points="720.8,-2130.87 731,-2128 721.24,-2123.88 720.8,-2130.87"/>
</g>
<!-- transcript_attrib&#45;&gt;transcript -->
<g id="edge43" class="edge">
<title>transcript_attrib:e&#45;&gt;transcript:w</title>
<path fill="none" stroke="black" stroke-dasharray="5,2" d="M607,-2088C668.68,-2088 654.54,-2002.03 707.33,-1991.96"/>
<polygon fill="black" stroke="black" points="707.35,-1995.38 717,-1991 706.73,-1988.41 707.35,-1995.38"/>
</g>
<!-- transcript_supporting_feature -->
<g id="node18" class="node">
<title>transcript_supporting_feature</title>
<path fill="#808000" stroke="black" d="M647,-2012.5C647,-2012.5 457,-2012.5 457,-2012.5 451,-2012.5 445,-2006.5 445,-2000.5 445,-2000.5 445,-1927.5 445,-1927.5 445,-1921.5 451,-1915.5 457,-1915.5 457,-1915.5 647,-1915.5 647,-1915.5 653,-1915.5 659,-1921.5 659,-1927.5 659,-1927.5 659,-2000.5 659,-2000.5 659,-2006.5 653,-2012.5 647,-2012.5"/>
<text text-anchor="start" x="457" y="-1991.7" font-family="Times,serif" font-size="16.00">transcript_supporting_feature</text>
<polygon fill="white" stroke="none" points="455,-1963.5 455,-1982.5 649,-1982.5 649,-1963.5 455,-1963.5"/>
<text text-anchor="start" x="517" y="-1969.3" font-family="Times,serif" font-size="14.00">transcript_id</text>
<polygon fill="white" stroke="none" points="455,-1942.5 455,-1961.5 649,-1961.5 649,-1942.5 455,-1942.5"/>
<text text-anchor="start" x="518" y="-1948.3" font-family="Times,serif" font-size="14.00">feature_type</text>
<polygon fill="white" stroke="none" points="455,-1921.5 455,-1940.5 649,-1940.5 649,-1921.5 455,-1921.5"/>
<text text-anchor="start" x="524.5" y="-1927.3" font-family="Times,serif" font-size="14.00">feature_id</text>
<polygon fill="black" stroke="black" points="453,-1983.5 453,-1983.5 651,-1983.5 651,-1983.5 453,-1983.5"/>
</g>
<!-- transcript_supporting_feature&#45;&gt;transcript -->
<g id="edge44" class="edge">
<title>transcript_supporting_feature:e&#45;&gt;transcript:w</title>
<path fill="none" stroke="black" stroke-dasharray="5,2" d="M650,-1973C677.23,-1973 684.9,-1986.66 707.09,-1990.18"/>
<polygon fill="black" stroke="black" points="706.77,-1993.74 717,-1991 707.29,-1986.76 706.77,-1993.74"/>
</g>
<!-- translation&#45;&gt;exon -->
<g id="edge45" class="edge">
<title>translation:e&#45;&gt;exon:w</title>
<path fill="none" stroke="black" stroke-dasharray="5,2" d="M1053.5,-1906C1108.51,-1906 1074.43,-2001.47 1117.26,-2014.53"/>
<polygon fill="black" stroke="black" points="1116.62,-2018.11 1127,-2016 1117.57,-2011.17 1116.62,-2018.11"/>
</g>
<!-- translation&#45;&gt;transcript -->
<g id="edge46" class="edge">
<title>translation:e&#45;&gt;transcript:w</title>
<path fill="none" stroke="black" stroke-dasharray="5,2" d="M1053.5,-1991C1080.17,-1991 1071.52,-2032.3 1052.5,-2051 1034.12,-2069.08 962.15,-2053.52 936.5,-2051 911.47,-2048.54 905.94,-2043.19 881,-2040 863.11,-2037.71 731.54,-2043.46 719,-2030.5 710.22,-2021.43 704.48,-2004.99 708.46,-1996.46"/>
<polygon fill="black" stroke="black" points="710.06,-1999.01 717,-1991 706.58,-1992.93 710.06,-1999.01"/>
</g>
<!-- translation_attrib -->
<g id="node20" class="node">
<title>translation_attrib</title>
<path fill="#808000" stroke="black" d="M607.5,-2242.5C607.5,-2242.5 496.5,-2242.5 496.5,-2242.5 490.5,-2242.5 484.5,-2236.5 484.5,-2230.5 484.5,-2230.5 484.5,-2157.5 484.5,-2157.5 484.5,-2151.5 490.5,-2145.5 496.5,-2145.5 496.5,-2145.5 607.5,-2145.5 607.5,-2145.5 613.5,-2145.5 619.5,-2151.5 619.5,-2157.5 619.5,-2157.5 619.5,-2230.5 619.5,-2230.5 619.5,-2236.5 613.5,-2242.5 607.5,-2242.5"/>
<text text-anchor="start" x="496.5" y="-2221.7" font-family="Times,serif" font-size="16.00">translation_attrib</text>
<polygon fill="white" stroke="none" points="494.5,-2193.5 494.5,-2212.5 609.5,-2212.5 609.5,-2193.5 494.5,-2193.5"/>
<text text-anchor="start" x="514.5" y="-2199.3" font-family="Times,serif" font-size="14.00">translation_id</text>
<polygon fill="white" stroke="none" points="494.5,-2172.5 494.5,-2191.5 609.5,-2191.5 609.5,-2172.5 494.5,-2172.5"/>
<text text-anchor="start" x="513.5" y="-2178.3" font-family="Times,serif" font-size="14.00">attrib_type_id</text>
<polygon fill="white" stroke="none" points="494.5,-2151.5 494.5,-2170.5 609.5,-2170.5 609.5,-2151.5 494.5,-2151.5"/>
<text text-anchor="start" x="537" y="-2157.3" font-family="Times,serif" font-size="14.00">value</text>
<polygon fill="black" stroke="black" points="492.5,-2213.5 492.5,-2213.5 611.5,-2213.5 611.5,-2213.5 492.5,-2213.5"/>
</g>
<!-- translation_attrib&#45;&gt;attrib_type -->
<g id="edge47" class="edge">
<title>translation_attrib:e&#45;&gt;attrib_type:w</title>
<path fill="none" stroke="black" stroke-dasharray="5,2" d="M611,-2182C666.09,-2182 672.46,-2134.74 721.28,-2128.64"/>
<polygon fill="black" stroke="black" points="721.23,-2132.09 731,-2128 720.81,-2125.11 721.23,-2132.09"/>
</g>
<!-- translation_attrib&#45;&gt;translation -->
<g id="edge48" class="edge">
<title>translation_attrib:e&#45;&gt;translation:w</title>
<path fill="none" stroke="black" stroke-dasharray="5,2" d="M611,-2203C641.15,-2203 858.01,-2195.51 881,-2176 937.69,-2127.9 874.3,-2023.35 934.71,-2012.85"/>
<polygon fill="black" stroke="black" points="934.81,-2016.28 944.5,-2012 934.26,-2009.3 934.81,-2016.28"/>
</g>
<!-- data_file -->
<g id="node21" class="node">
<title>data_file</title>
<path fill="#c70c09" stroke="black" d="M1030,-786.5C1030,-786.5 969,-786.5 969,-786.5 963,-786.5 957,-780.5 957,-774.5 957,-774.5 957,-701.5 957,-701.5 957,-695.5 963,-689.5 969,-689.5 969,-689.5 1030,-689.5 1030,-689.5 1036,-689.5 1042,-695.5 1042,-701.5 1042,-701.5 1042,-774.5 1042,-774.5 1042,-780.5 1036,-786.5 1030,-786.5"/>
<text text-anchor="start" x="972" y="-765.7" font-family="Times,serif" font-size="16.00">data_file</text>
<polygon fill="white" stroke="none" points="967,-737.5 967,-756.5 1032,-756.5 1032,-737.5 967,-737.5"/>
<text text-anchor="start" x="993.5" y="-744.3" font-family="Times,serif" font-style="italic" font-size="14.00">...</text>
<polygon fill="white" stroke="none" points="967,-716.5 967,-735.5 1032,-735.5 1032,-716.5 967,-716.5"/>
<text text-anchor="start" x="969" y="-722.3" font-family="Times,serif" font-size="14.00">analysis_id</text>
<polygon fill="white" stroke="none" points="967,-695.5 967,-714.5 1032,-714.5 1032,-695.5 967,-695.5"/>
<text text-anchor="start" x="993.5" y="-702.3" font-family="Times,serif" font-style="italic" font-size="14.00">...</text>
<polygon fill="black" stroke="black" points="965,-757.5 965,-757.5 1034,-757.5 1034,-757.5 965,-757.5"/>
</g>
<!-- data_file&#45;&gt;analysis -->
<g id="edge5" class="edge">
<title>data_file:e&#45;&gt;analysis:w</title>
<path fill="none" stroke="black" stroke-dasharray="5,2" d="M1042,-726C1068.89,-726 1057.79,-764.73 1042,-786.5 1001.73,-842.03 930.73,-778.55 896.5,-838 877.87,-870.35 893.36,-2144.8 896.5,-2182 902.09,-2248.25 881.63,-2468.05 938.78,-2491.9"/>
<polygon fill="black" stroke="black" points="938.01,-2495.51 948.5,-2494 939.36,-2488.64 938.01,-2495.51"/>
</g>
<!-- density_type -->
<g id="node22" class="node">
<title>density_type</title>
<path fill="#3cb371" stroke="black" d="M593.5,-3594.5C593.5,-3594.5 510.5,-3594.5 510.5,-3594.5 504.5,-3594.5 498.5,-3588.5 498.5,-3582.5 498.5,-3582.5 498.5,-3509.5 498.5,-3509.5 498.5,-3503.5 504.5,-3497.5 510.5,-3497.5 510.5,-3497.5 593.5,-3497.5 593.5,-3497.5 599.5,-3497.5 605.5,-3503.5 605.5,-3509.5 605.5,-3509.5 605.5,-3582.5 605.5,-3582.5 605.5,-3588.5 599.5,-3594.5 593.5,-3594.5"/>
<text text-anchor="start" x="510.5" y="-3573.7" font-family="Times,serif" font-size="16.00">density_type</text>
<polygon fill="white" stroke="none" points="508.5,-3545.5 508.5,-3564.5 595.5,-3564.5 595.5,-3545.5 508.5,-3545.5"/>
<text text-anchor="start" x="546" y="-3552.3" font-family="Times,serif" font-style="italic" font-size="14.00">...</text>
<polygon fill="white" stroke="none" points="508.5,-3524.5 508.5,-3543.5 595.5,-3543.5 595.5,-3524.5 508.5,-3524.5"/>
<text text-anchor="start" x="521.5" y="-3530.3" font-family="Times,serif" font-size="14.00">analysis_id</text>
<polygon fill="white" stroke="none" points="508.5,-3503.5 508.5,-3522.5 595.5,-3522.5 595.5,-3503.5 508.5,-3503.5"/>
<text text-anchor="start" x="546" y="-3510.3" font-family="Times,serif" font-style="italic" font-size="14.00">...</text>
<polygon fill="black" stroke="black" points="506.5,-3565.5 506.5,-3565.5 597.5,-3565.5 597.5,-3565.5 506.5,-3565.5"/>
</g>
<!-- density_type&#45;&gt;analysis -->
<g id="edge6" class="edge">
<title>density_type:e&#45;&gt;analysis:w</title>
<path fill="none" stroke="black" stroke-dasharray="5,2" d="M597,-3534C695.71,-3534 704.88,-3473.77 787,-3419"/>
</g>
<!-- ditag_feature -->
<g id="node23" class="node">
<title>ditag_feature</title>
<path fill="#3cb371" stroke="black" d="M594,-3479.5C594,-3479.5 510,-3479.5 510,-3479.5 504,-3479.5 498,-3473.5 498,-3467.5 498,-3467.5 498,-3394.5 498,-3394.5 498,-3388.5 504,-3382.5 510,-3382.5 510,-3382.5 594,-3382.5 594,-3382.5 600,-3382.5 606,-3388.5 606,-3394.5 606,-3394.5 606,-3467.5 606,-3467.5 606,-3473.5 600,-3479.5 594,-3479.5"/>
<text text-anchor="start" x="510" y="-3458.7" font-family="Times,serif" font-size="16.00">ditag_feature</text>
<polygon fill="white" stroke="none" points="508,-3430.5 508,-3449.5 596,-3449.5 596,-3430.5 508,-3430.5"/>
<text text-anchor="start" x="546" y="-3437.3" font-family="Times,serif" font-style="italic" font-size="14.00">...</text>
<polygon fill="white" stroke="none" points="508,-3409.5 508,-3428.5 596,-3428.5 596,-3409.5 508,-3409.5"/>
<text text-anchor="start" x="521.5" y="-3415.3" font-family="Times,serif" font-size="14.00">analysis_id</text>
<polygon fill="white" stroke="none" points="508,-3388.5 508,-3407.5 596,-3407.5 596,-3388.5 508,-3388.5"/>
<text text-anchor="start" x="546" y="-3395.3" font-family="Times,serif" font-style="italic" font-size="14.00">...</text>
<polygon fill="black" stroke="black" points="506,-3450.5 506,-3450.5 598,-3450.5 598,-3450.5 506,-3450.5"/>
</g>
<!-- ditag_feature&#45;&gt;analysis -->
<g id="edge7" class="edge">
<title>ditag_feature:e&#45;&gt;analysis:w</title>
<path fill="none" stroke="black" stroke-dasharray="5,2" d="M597,-3419C681.44,-3419 716.75,-3465.86 787,-3419"/>
</g>
<!-- intron_supporting_evidence -->
<g id="node25" class="node">
<title>intron_supporting_evidence</title>
<path fill="#3cb371" stroke="black" d="M643,-3364.5C643,-3364.5 461,-3364.5 461,-3364.5 455,-3364.5 449,-3358.5 449,-3352.5 449,-3352.5 449,-3279.5 449,-3279.5 449,-3273.5 455,-3267.5 461,-3267.5 461,-3267.5 643,-3267.5 643,-3267.5 649,-3267.5 655,-3273.5 655,-3279.5 655,-3279.5 655,-3352.5 655,-3352.5 655,-3358.5 649,-3364.5 643,-3364.5"/>
<text text-anchor="start" x="461" y="-3343.7" font-family="Times,serif" font-size="16.00">intron_supporting_evidence</text>
<polygon fill="white" stroke="none" points="459,-3315.5 459,-3334.5 645,-3334.5 645,-3315.5 459,-3315.5"/>
<text text-anchor="start" x="546" y="-3322.3" font-family="Times,serif" font-style="italic" font-size="14.00">...</text>
<polygon fill="white" stroke="none" points="459,-3294.5 459,-3313.5 645,-3313.5 645,-3294.5 459,-3294.5"/>
<text text-anchor="start" x="521.5" y="-3300.3" font-family="Times,serif" font-size="14.00">analysis_id</text>
<polygon fill="white" stroke="none" points="459,-3273.5 459,-3292.5 645,-3292.5 645,-3273.5 459,-3273.5"/>
<text text-anchor="start" x="546" y="-3280.3" font-family="Times,serif" font-style="italic" font-size="14.00">...</text>
<polygon fill="black" stroke="black" points="457,-3335.5 457,-3335.5 647,-3335.5 647,-3335.5 457,-3335.5"/>
</g>
<!-- intron_supporting_evidence&#45;&gt;analysis -->
<g id="edge20" class="edge">
<title>intron_supporting_evidence:e&#45;&gt;analysis:w</title>
<path fill="none" stroke="black" stroke-dasharray="5,2" d="M646,-3304C726.87,-3304 719.73,-3463.87 787,-3419"/>
</g>
<!-- marker_feature -->
<g id="node26" class="node">
<title>marker_feature</title>
<path fill="#3cb371" stroke="black" d="M600,-3249.5C600,-3249.5 504,-3249.5 504,-3249.5 498,-3249.5 492,-3243.5 492,-3237.5 492,-3237.5 492,-3164.5 492,-3164.5 492,-3158.5 498,-3152.5 504,-3152.5 504,-3152.5 600,-3152.5 600,-3152.5 606,-3152.5 612,-3158.5 612,-3164.5 612,-3164.5 612,-3237.5 612,-3237.5 612,-3243.5 606,-3249.5 600,-3249.5"/>
<text text-anchor="start" x="504" y="-3228.7" font-family="Times,serif" font-size="16.00">marker_feature</text>
<polygon fill="white" stroke="none" points="502,-3200.5 502,-3219.5 602,-3219.5 602,-3200.5 502,-3200.5"/>
<text text-anchor="start" x="546" y="-3207.3" font-family="Times,serif" font-style="italic" font-size="14.00">...</text>
<polygon fill="white" stroke="none" points="502,-3179.5 502,-3198.5 602,-3198.5 602,-3179.5 502,-3179.5"/>
<text text-anchor="start" x="521.5" y="-3185.3" font-family="Times,serif" font-size="14.00">analysis_id</text>
<polygon fill="white" stroke="none" points="502,-3158.5 502,-3177.5 602,-3177.5 602,-3158.5 502,-3158.5"/>
<text text-anchor="start" x="546" y="-3165.3" font-family="Times,serif" font-style="italic" font-size="14.00">...</text>
<polygon fill="black" stroke="black" points="500,-3220.5 500,-3220.5 604,-3220.5 604,-3220.5 500,-3220.5"/>
</g>
<!-- marker_feature&#45;&gt;analysis -->
<g id="edge21" class="edge">
<title>marker_feature:e&#45;&gt;analysis:w</title>
<path fill="none" stroke="black" stroke-dasharray="5,2" d="M603,-3189C733.91,-3189 678.09,-3491.64 787,-3419"/>
</g>
<!-- misc_attrib -->
<g id="node27" class="node">
<title>misc_attrib</title>
<path fill="#3cb371" stroke="black" d="M590.5,-2904.5C590.5,-2904.5 513.5,-2904.5 513.5,-2904.5 507.5,-2904.5 501.5,-2898.5 501.5,-2892.5 501.5,-2892.5 501.5,-2819.5 501.5,-2819.5 501.5,-2813.5 507.5,-2807.5 513.5,-2807.5 513.5,-2807.5 590.5,-2807.5 590.5,-2807.5 596.5,-2807.5 602.5,-2813.5 602.5,-2819.5 602.5,-2819.5 602.5,-2892.5 602.5,-2892.5 602.5,-2898.5 596.5,-2904.5 590.5,-2904.5"/>
<text text-anchor="start" x="515.5" y="-2883.7" font-family="Times,serif" font-size="16.00">misc_attrib</text>
<polygon fill="white" stroke="none" points="511.5,-2855.5 511.5,-2874.5 592.5,-2874.5 592.5,-2855.5 511.5,-2855.5"/>
<text text-anchor="start" x="546" y="-2862.3" font-family="Times,serif" font-style="italic" font-size="14.00">...</text>
<polygon fill="white" stroke="none" points="511.5,-2834.5 511.5,-2853.5 592.5,-2853.5 592.5,-2834.5 511.5,-2834.5"/>
<text text-anchor="start" x="513.5" y="-2840.3" font-family="Times,serif" font-size="14.00">attrib_type_id</text>
<polygon fill="white" stroke="none" points="511.5,-2813.5 511.5,-2832.5 592.5,-2832.5 592.5,-2813.5 511.5,-2813.5"/>
<text text-anchor="start" x="546" y="-2820.3" font-family="Times,serif" font-style="italic" font-size="14.00">...</text>
<polygon fill="black" stroke="black" points="509.5,-2875.5 509.5,-2875.5 594.5,-2875.5 594.5,-2875.5 509.5,-2875.5"/>
</g>
<!-- misc_attrib&#45;&gt;attrib_type -->
<g id="edge22" class="edge">
<title>misc_attrib:e&#45;&gt;attrib_type:w</title>
<path fill="none" stroke="black" stroke-dasharray="5,2" d="M594,-2844C631.61,-2844 644.83,-2827.93 663,-2795 725.16,-2682.37 666.34,-2342.41 695,-2217 703.65,-2179.15 691.83,-2136.81 721.42,-2129.2"/>
<polygon fill="black" stroke="black" points="721.46,-2132.61 731,-2128 720.67,-2125.65 721.46,-2132.61"/>
</g>
<!-- object_xref -->
<g id="node28" class="node">
<title>object_xref</title>
<path fill="#1e90ff" stroke="black" d="M1036,-426C1036,-426 963,-426 963,-426 957,-426 951,-420 951,-414 951,-414 951,-362 951,-362 951,-356 957,-350 963,-350 963,-350 1036,-350 1036,-350 1042,-350 1048,-356 1048,-362 1048,-362 1048,-414 1048,-414 1048,-420 1042,-426 1036,-426"/>
<text text-anchor="start" x="963" y="-405.2" font-family="Times,serif" font-size="16.00">object_xref</text>
<polygon fill="white" stroke="none" points="961,-377 961,-396 1038,-396 1038,-377 961,-377"/>
<text text-anchor="start" x="993.5" y="-383.8" font-family="Times,serif" font-style="italic" font-size="14.00">...</text>
<polygon fill="white" stroke="none" points="961,-356 961,-375 1038,-375 1038,-356 961,-356"/>
<text text-anchor="start" x="969" y="-361.8" font-family="Times,serif" font-size="14.00">analysis_id</text>
<polygon fill="black" stroke="black" points="959,-397 959,-397 1040,-397 1040,-397 959,-397"/>
</g>
<!-- object_xref&#45;&gt;analysis -->
<g id="edge23" class="edge">
<title>object_xref:e&#45;&gt;analysis:w</title>
<path fill="none" stroke="black" stroke-dasharray="5,2" d="M1048,-365C1075.11,-365 1064.1,-404.18 1048,-426 1005.82,-483.17 931.95,-415.43 896.5,-477 872.87,-518.05 892.52,-2134.81 896.5,-2182 902.09,-2248.25 881.63,-2468.05 938.78,-2491.9"/>
<polygon fill="black" stroke="black" points="938.01,-2495.51 948.5,-2494 939.36,-2488.64 938.01,-2495.51"/>
</g>
<!-- operon -->
<g id="node29" class="node">
<title>operon</title>
<path fill="#ff8500" stroke="black" d="M351.5,-3826.5C351.5,-3826.5 290.5,-3826.5 290.5,-3826.5 284.5,-3826.5 278.5,-3820.5 278.5,-3814.5 278.5,-3814.5 278.5,-3741.5 278.5,-3741.5 278.5,-3735.5 284.5,-3729.5 290.5,-3729.5 290.5,-3729.5 351.5,-3729.5 351.5,-3729.5 357.5,-3729.5 363.5,-3735.5 363.5,-3741.5 363.5,-3741.5 363.5,-3814.5 363.5,-3814.5 363.5,-3820.5 357.5,-3826.5 351.5,-3826.5"/>
<text text-anchor="start" x="298" y="-3805.7" font-family="Times,serif" font-size="16.00">operon</text>
<polygon fill="white" stroke="none" points="288.5,-3777.5 288.5,-3796.5 353.5,-3796.5 353.5,-3777.5 288.5,-3777.5"/>
<text text-anchor="start" x="315" y="-3784.3" font-family="Times,serif" font-style="italic" font-size="14.00">...</text>
<polygon fill="white" stroke="none" points="288.5,-3756.5 288.5,-3775.5 353.5,-3775.5 353.5,-3756.5 288.5,-3756.5"/>
<text text-anchor="start" x="290.5" y="-3762.3" font-family="Times,serif" font-size="14.00">analysis_id</text>
<polygon fill="white" stroke="none" points="288.5,-3735.5 288.5,-3754.5 353.5,-3754.5 353.5,-3735.5 288.5,-3735.5"/>
<text text-anchor="start" x="315" y="-3742.3" font-family="Times,serif" font-style="italic" font-size="14.00">...</text>
<polygon fill="black" stroke="black" points="286.5,-3797.5 286.5,-3797.5 355.5,-3797.5 355.5,-3797.5 286.5,-3797.5"/>
</g>
<!-- operon&#45;&gt;analysis -->
<g id="edge24" class="edge">
<title>operon:e&#45;&gt;analysis:w</title>
<path fill="none" stroke="black" stroke-dasharray="5,2" d="M355,-3766C442.11,-3766 470.41,-3799.08 551,-3766"/>
</g>
<!-- operon_transcript -->
<g id="node30" class="node">
<title>operon_transcript</title>
<path fill="#ff8500" stroke="black" d="M378.5,-3711.5C378.5,-3711.5 263.5,-3711.5 263.5,-3711.5 257.5,-3711.5 251.5,-3705.5 251.5,-3699.5 251.5,-3699.5 251.5,-3626.5 251.5,-3626.5 251.5,-3620.5 257.5,-3614.5 263.5,-3614.5 263.5,-3614.5 378.5,-3614.5 378.5,-3614.5 384.5,-3614.5 390.5,-3620.5 390.5,-3626.5 390.5,-3626.5 390.5,-3699.5 390.5,-3699.5 390.5,-3705.5 384.5,-3711.5 378.5,-3711.5"/>
<text text-anchor="start" x="263.5" y="-3690.7" font-family="Times,serif" font-size="16.00">operon_transcript</text>
<polygon fill="white" stroke="none" points="261.5,-3662.5 261.5,-3681.5 380.5,-3681.5 380.5,-3662.5 261.5,-3662.5"/>
<text text-anchor="start" x="315" y="-3669.3" font-family="Times,serif" font-style="italic" font-size="14.00">...</text>
<polygon fill="white" stroke="none" points="261.5,-3641.5 261.5,-3660.5 380.5,-3660.5 380.5,-3641.5 261.5,-3641.5"/>
<text text-anchor="start" x="290.5" y="-3647.3" font-family="Times,serif" font-size="14.00">analysis_id</text>
<polygon fill="white" stroke="none" points="261.5,-3620.5 261.5,-3639.5 380.5,-3639.5 380.5,-3620.5 261.5,-3620.5"/>
<text text-anchor="start" x="315" y="-3627.3" font-family="Times,serif" font-style="italic" font-size="14.00">...</text>
<polygon fill="black" stroke="black" points="259.5,-3682.5 259.5,-3682.5 382.5,-3682.5 382.5,-3682.5 259.5,-3682.5"/>
</g>
<!-- operon_transcript&#45;&gt;analysis -->
<g id="edge25" class="edge">
<title>operon_transcript:e&#45;&gt;analysis:w</title>
<path fill="none" stroke="black" stroke-dasharray="5,2" d="M382,-3651C433.99,-3651 397.64,-3723.32 441,-3752 482.11,-3779.19 505.41,-3784.72 551,-3766"/>
<path fill="none" stroke="black" stroke-dasharray="5,2" d="M553,-3766C598.59,-3747.28 624.38,-3782.62 663,-3752 786.74,-3653.87 655.62,-3506.63 787,-3419"/>
</g>
<!-- operon_transcript_gene -->
<g id="node31" class="node">
<title>operon_transcript_gene</title>
<path fill="#ff8500" stroke="black" d="M397,-3596C397,-3596 245,-3596 245,-3596 239,-3596 233,-3590 233,-3584 233,-3584 233,-3532 233,-3532 233,-3526 239,-3520 245,-3520 245,-3520 397,-3520 397,-3520 403,-3520 409,-3526 409,-3532 409,-3532 409,-3584 409,-3584 409,-3590 403,-3596 397,-3596"/>
<text text-anchor="start" x="245" y="-3575.2" font-family="Times,serif" font-size="16.00">operon_transcript_gene</text>
<polygon fill="white" stroke="none" points="243,-3547 243,-3566 399,-3566 399,-3547 243,-3547"/>
<text text-anchor="start" x="315" y="-3553.8" font-family="Times,serif" font-style="italic" font-size="14.00">...</text>
<polygon fill="white" stroke="none" points="243,-3526 243,-3545 399,-3545 399,-3526 243,-3526"/>
<text text-anchor="start" x="299.5" y="-3531.8" font-family="Times,serif" font-size="14.00">gene_id</text>
<polygon fill="black" stroke="black" points="241,-3567 241,-3567 401,-3567 401,-3567 241,-3567"/>
</g>
<!-- operon_transcript_gene&#45;&gt;gene -->
<g id="edge26" class="edge">
<title>operon_transcript_gene:e&#45;&gt;gene:w</title>
<path fill="none" stroke="black" stroke-dasharray="5,2" d="M400,-3535C445.24,-3535 424.29,-1949.04 441,-1907 450.34,-1883.52 454.53,-1864.06 474.33,-1859.18"/>
<polygon fill="black" stroke="black" points="474.45,-1862.58 484,-1858 473.68,-1855.62 474.45,-1862.58"/>
</g>
<!-- prediction_transcript -->
<g id="node32" class="node">
<title>prediction_transcript</title>
<path fill="#3cb371" stroke="black" d="M619.5,-3134.5C619.5,-3134.5 484.5,-3134.5 484.5,-3134.5 478.5,-3134.5 472.5,-3128.5 472.5,-3122.5 472.5,-3122.5 472.5,-3049.5 472.5,-3049.5 472.5,-3043.5 478.5,-3037.5 484.5,-3037.5 484.5,-3037.5 619.5,-3037.5 619.5,-3037.5 625.5,-3037.5 631.5,-3043.5 631.5,-3049.5 631.5,-3049.5 631.5,-3122.5 631.5,-3122.5 631.5,-3128.5 625.5,-3134.5 619.5,-3134.5"/>
<text text-anchor="start" x="484.5" y="-3113.7" font-family="Times,serif" font-size="16.00">prediction_transcript</text>
<polygon fill="white" stroke="none" points="482.5,-3085.5 482.5,-3104.5 621.5,-3104.5 621.5,-3085.5 482.5,-3085.5"/>
<text text-anchor="start" x="546" y="-3092.3" font-family="Times,serif" font-style="italic" font-size="14.00">...</text>
<polygon fill="white" stroke="none" points="482.5,-3064.5 482.5,-3083.5 621.5,-3083.5 621.5,-3064.5 482.5,-3064.5"/>
<text text-anchor="start" x="521.5" y="-3070.3" font-family="Times,serif" font-size="14.00">analysis_id</text>
<polygon fill="white" stroke="none" points="482.5,-3043.5 482.5,-3062.5 621.5,-3062.5 621.5,-3043.5 482.5,-3043.5"/>
<text text-anchor="start" x="546" y="-3050.3" font-family="Times,serif" font-style="italic" font-size="14.00">...</text>
<polygon fill="black" stroke="black" points="480.5,-3105.5 480.5,-3105.5 623.5,-3105.5 623.5,-3105.5 480.5,-3105.5"/>
</g>
<!-- prediction_transcript&#45;&gt;analysis -->
<g id="edge27" class="edge">
<title>prediction_transcript:e&#45;&gt;analysis:w</title>
<path fill="none" stroke="black" stroke-dasharray="5,2" d="M623,-3074C792.78,-3074 645.76,-3513.21 787,-3419"/>
</g>
<!-- repeat_feature -->
<g id="node33" class="node">
<title>repeat_feature</title>
<path fill="#3cb371" stroke="black" d="M597,-3019.5C597,-3019.5 507,-3019.5 507,-3019.5 501,-3019.5 495,-3013.5 495,-3007.5 495,-3007.5 495,-2934.5 495,-2934.5 495,-2928.5 501,-2922.5 507,-2922.5 507,-2922.5 597,-2922.5 597,-2922.5 603,-2922.5 609,-2928.5 609,-2934.5 609,-2934.5 609,-3007.5 609,-3007.5 609,-3013.5 603,-3019.5 597,-3019.5"/>
<text text-anchor="start" x="507" y="-2998.7" font-family="Times,serif" font-size="16.00">repeat_feature</text>
<polygon fill="white" stroke="none" points="505,-2970.5 505,-2989.5 599,-2989.5 599,-2970.5 505,-2970.5"/>
<text text-anchor="start" x="546" y="-2977.3" font-family="Times,serif" font-style="italic" font-size="14.00">...</text>
<polygon fill="white" stroke="none" points="505,-2949.5 505,-2968.5 599,-2968.5 599,-2949.5 505,-2949.5"/>
<text text-anchor="start" x="521.5" y="-2955.3" font-family="Times,serif" font-size="14.00">analysis_id</text>
<polygon fill="white" stroke="none" points="505,-2928.5 505,-2947.5 599,-2947.5 599,-2928.5 505,-2928.5"/>
<text text-anchor="start" x="546" y="-2935.3" font-family="Times,serif" font-style="italic" font-size="14.00">...</text>
<polygon fill="black" stroke="black" points="503,-2990.5 503,-2990.5 601,-2990.5 601,-2990.5 503,-2990.5"/>
</g>
<!-- repeat_feature&#45;&gt;analysis -->
<g id="edge33" class="edge">
<title>repeat_feature:e&#45;&gt;analysis:w</title>
<path fill="none" stroke="black" stroke-dasharray="5,2" d="M789,-3419C830.14,-3391.56 890.68,-2584.43 941.3,-2500.96"/>
<polygon fill="black" stroke="black" points="943.14,-2503.14 948.5,-2494 938.61,-2497.8 943.14,-2503.14"/>
<path fill="none" stroke="black" stroke-dasharray="5,2" d="M600,-2959C820.69,-2959 603.4,-3541.46 787,-3419"/>
</g>
<!-- seq_region_attrib -->
<g id="node35" class="node">
<title>seq_region_attrib</title>
<path fill="#c70c09" stroke="black" d="M1056.5,-671.5C1056.5,-671.5 942.5,-671.5 942.5,-671.5 936.5,-671.5 930.5,-665.5 930.5,-659.5 930.5,-659.5 930.5,-586.5 930.5,-586.5 930.5,-580.5 936.5,-574.5 942.5,-574.5 942.5,-574.5 1056.5,-574.5 1056.5,-574.5 1062.5,-574.5 1068.5,-580.5 1068.5,-586.5 1068.5,-586.5 1068.5,-659.5 1068.5,-659.5 1068.5,-665.5 1062.5,-671.5 1056.5,-671.5"/>
<text text-anchor="start" x="942.5" y="-650.7" font-family="Times,serif" font-size="16.00">seq_region_attrib</text>
<polygon fill="white" stroke="none" points="940.5,-622.5 940.5,-641.5 1058.5,-641.5 1058.5,-622.5 940.5,-622.5"/>
<text text-anchor="start" x="993.5" y="-629.3" font-family="Times,serif" font-style="italic" font-size="14.00">...</text>
<polygon fill="white" stroke="none" points="940.5,-601.5 940.5,-620.5 1058.5,-620.5 1058.5,-601.5 940.5,-601.5"/>
<text text-anchor="start" x="961" y="-607.3" font-family="Times,serif" font-size="14.00">attrib_type_id</text>
<polygon fill="white" stroke="none" points="940.5,-580.5 940.5,-599.5 1058.5,-599.5 1058.5,-580.5 940.5,-580.5"/>
<text text-anchor="start" x="993.5" y="-587.3" font-family="Times,serif" font-style="italic" font-size="14.00">...</text>
<polygon fill="black" stroke="black" points="938.5,-642.5 938.5,-642.5 1060.5,-642.5 1060.5,-642.5 938.5,-642.5"/>
</g>
<!-- seq_region_attrib&#45;&gt;attrib_type -->
<g id="edge34" class="edge">
<title>seq_region_attrib:e&#45;&gt;attrib_type:w</title>
<path fill="none" stroke="black" stroke-dasharray="5,2" d="M1059.5,-611C1075.73,-611 1070.13,-585.82 1058.5,-574.5 1048.31,-564.58 941.38,-565.34 930.5,-574.5 893.74,-605.43 916.67,-633.19 912,-681 853.25,-1282.29 954.39,-1440.32 881,-2040 873.97,-2097.42 897.66,-2130.85 852.5,-2167 831.77,-2183.59 752.02,-2185.54 733,-2167 724.08,-2158.3 718.51,-2141.96 722.52,-2133.46"/>
<polygon fill="black" stroke="black" points="724.08,-2136.02 731,-2128 720.59,-2129.95 724.08,-2136.02"/>
</g>
<!-- simple_feature -->
<g id="node36" class="node">
<title>simple_feature</title>
<path fill="#3cb371" stroke="black" d="M599,-3709.5C599,-3709.5 505,-3709.5 505,-3709.5 499,-3709.5 493,-3703.5 493,-3697.5 493,-3697.5 493,-3624.5 493,-3624.5 493,-3618.5 499,-3612.5 505,-3612.5 505,-3612.5 599,-3612.5 599,-3612.5 605,-3612.5 611,-3618.5 611,-3624.5 611,-3624.5 611,-3697.5 611,-3697.5 611,-3703.5 605,-3709.5 599,-3709.5"/>
<text text-anchor="start" x="505" y="-3688.7" font-family="Times,serif" font-size="16.00">simple_feature</text>
<polygon fill="white" stroke="none" points="503,-3660.5 503,-3679.5 601,-3679.5 601,-3660.5 503,-3660.5"/>
<text text-anchor="start" x="546" y="-3667.3" font-family="Times,serif" font-style="italic" font-size="14.00">...</text>
<polygon fill="white" stroke="none" points="503,-3639.5 503,-3658.5 601,-3658.5 601,-3639.5 503,-3639.5"/>
<text text-anchor="start" x="521.5" y="-3645.3" font-family="Times,serif" font-size="14.00">analysis_id</text>
<polygon fill="white" stroke="none" points="503,-3618.5 503,-3637.5 601,-3637.5 601,-3618.5 503,-3618.5"/>
<text text-anchor="start" x="546" y="-3625.3" font-family="Times,serif" font-style="italic" font-size="14.00">...</text>
<polygon fill="black" stroke="black" points="501,-3680.5 501,-3680.5 603,-3680.5 603,-3680.5 501,-3680.5"/>
</g>
<!-- simple_feature&#45;&gt;analysis -->
<g id="edge35" class="edge">
<title>simple_feature:e&#45;&gt;analysis:w</title>
<path fill="none" stroke="black" stroke-dasharray="5,2" d="M602,-3649C635.69,-3649 639.72,-3628.35 663,-3604 731.4,-3532.45 704.65,-3473.93 787,-3419"/>
</g>
<!-- unmapped_object -->
<g id="node37" class="node">
<title>unmapped_object</title>
<path fill="#1e90ff" stroke="black" d="M1057,-331.5C1057,-331.5 942,-331.5 942,-331.5 936,-331.5 930,-325.5 930,-319.5 930,-319.5 930,-246.5 930,-246.5 930,-240.5 936,-234.5 942,-234.5 942,-234.5 1057,-234.5 1057,-234.5 1063,-234.5 1069,-240.5 1069,-246.5 1069,-246.5 1069,-319.5 1069,-319.5 1069,-325.5 1063,-331.5 1057,-331.5"/>
<text text-anchor="start" x="942" y="-310.7" font-family="Times,serif" font-size="16.00">unmapped_object</text>
<polygon fill="white" stroke="none" points="940,-282.5 940,-301.5 1059,-301.5 1059,-282.5 940,-282.5"/>
<text text-anchor="start" x="993.5" y="-289.3" font-family="Times,serif" font-style="italic" font-size="14.00">...</text>
<polygon fill="white" stroke="none" points="940,-261.5 940,-280.5 1059,-280.5 1059,-261.5 940,-261.5"/>
<text text-anchor="start" x="969" y="-267.3" font-family="Times,serif" font-size="14.00">analysis_id</text>
<polygon fill="white" stroke="none" points="940,-240.5 940,-259.5 1059,-259.5 1059,-240.5 940,-240.5"/>
<text text-anchor="start" x="993.5" y="-247.3" font-family="Times,serif" font-style="italic" font-size="14.00">...</text>
<polygon fill="black" stroke="black" points="938,-302.5 938,-302.5 1061,-302.5 1061,-302.5 938,-302.5"/>
</g>
<!-- unmapped_object&#45;&gt;analysis -->
<g id="edge49" class="edge">
<title>unmapped_object:e&#45;&gt;analysis:w</title>
<path fill="none" stroke="black" stroke-dasharray="5,2" d="M1069,-271C1095.89,-271 1087.43,-311.92 1069,-331.5 1042.57,-359.57 915.74,-316.59 896.5,-350 871.11,-394.1 892.22,-2131.29 896.5,-2182 902.09,-2248.25 881.63,-2468.05 938.78,-2491.9"/>
<polygon fill="black" stroke="black" points="938.01,-2495.51 948.5,-2494 939.36,-2488.64 938.01,-2495.51"/>
</g>
</g>
</svg>
