<?xml version="1.0" encoding="UTF-8" standalone="no"?>
<!DOCTYPE svg PUBLIC "-//W3C//DTD SVG 1.1//EN"
 "http://www.w3.org/Graphics/SVG/1.1/DTD/svg11.dtd">
<!-- Generated by graphviz version 8.0.1 (0)
 -->
<!-- Title: test Pages: 1 -->
<svg width="614pt" height="3517pt"
 viewBox="0.00 0.00 613.59 3517.00" xmlns="http://www.w3.org/2000/svg" xmlns:xlink="http://www.w3.org/1999/xlink">
<g id="graph0" class="graph" transform="scale(1 1) rotate(0) translate(4 3513)">
<title>test</title>
<polygon fill="white" stroke="none" points="-4,4 -4,-3513 609.59,-3513 609.59,4 -4,4"/>
<text text-anchor="middle" x="302.79" y="-10" font-family="Times,serif" font-size="20.00">Core schema diagram: Assembly Tables tables</text>
<g id="clust1" class="cluster">
<title>cluster_assembly_tables</title>
<path fill="#f3cecd" stroke="#f3cecd" d="M51.59,-2329C51.59,-2329 585.59,-2329 585.59,-2329 591.59,-2329 597.59,-2335 597.59,-2341 597.59,-2341 597.59,-3489 597.59,-3489 597.59,-3495 591.59,-3501 585.59,-3501 585.59,-3501 51.59,-3501 51.59,-3501 45.59,-3501 39.59,-3495 39.59,-3489 39.59,-3489 39.59,-2341 39.59,-2341 39.59,-2335 45.59,-2329 51.59,-2329"/>
<text text-anchor="middle" x="318.59" y="-3481" font-family="Times,serif" font-size="20.00">Assembly Tables</text>
</g>
<g id="clust2" class="cluster">
<title>cluster_features</title>
<polygon fill="white" stroke="white" points="29.59,-457 29.59,-1521 251.59,-1521 251.59,-457 29.59,-457"/>
<text text-anchor="middle" x="140.59" y="-1501" font-family="Times,serif" font-size="20.00">Features</text>
</g>
<g id="clust3" class="cluster">
<title>cluster_fundamental_tables</title>
<polygon fill="white" stroke="white" points="52.59,-1529 52.59,-2321 229.59,-2321 229.59,-1529 52.59,-1529"/>
<text text-anchor="middle" x="141.09" y="-2301" font-family="Times,serif" font-size="20.00">Fundamental Tables</text>
</g>
<g id="clust4" class="cluster">
<title>cluster_id_mapping</title>
<polygon fill="white" stroke="white" points="52.59,-38 52.59,-182 228.59,-182 228.59,-38 52.59,-38"/>
<text text-anchor="middle" x="140.59" y="-162" font-family="Times,serif" font-size="20.00">ID Mapping</text>
</g>
<g id="clust5" class="cluster">
<title>cluster_misc</title>
<polygon fill="white" stroke="white" points="63.09,-190 63.09,-449 218.09,-449 218.09,-190 63.09,-190"/>
<text text-anchor="middle" x="140.59" y="-429" font-family="Times,serif" font-size="20.00">Misc</text>
</g>
<!-- assembly -->
<g id="node1" class="node">
<title>assembly</title>
<path fill="#c70c09" stroke="black" d="M194.09,-3210.5C194.09,-3210.5 87.09,-3210.5 87.09,-3210.5 81.09,-3210.5 75.09,-3204.5 75.09,-3198.5 75.09,-3198.5 75.09,-3041.5 75.09,-3041.5 75.09,-3035.5 81.09,-3029.5 87.09,-3029.5 87.09,-3029.5 194.09,-3029.5 194.09,-3029.5 200.09,-3029.5 206.09,-3035.5 206.09,-3041.5 206.09,-3041.5 206.09,-3198.5 206.09,-3198.5 206.09,-3204.5 200.09,-3210.5 194.09,-3210.5"/>
<text text-anchor="start" x="111.09" y="-3189.7" font-family="Times,serif" font-size="16.00">assembly</text>
<polygon fill="white" stroke="none" points="85.09,-3161.5 85.09,-3180.5 196.09,-3180.5 196.09,-3161.5 85.09,-3161.5"/>
<text text-anchor="start" x="87.59" y="-3167.3" font-family="Times,serif" font-size="14.00">asm_seq_region_id</text>
<polygon fill="white" stroke="none" points="85.09,-3140.5 85.09,-3159.5 196.09,-3159.5 196.09,-3140.5 85.09,-3140.5"/>
<text text-anchor="start" x="87.09" y="-3146.3" font-family="Times,serif" font-size="14.00">cmp_seq_region_id</text>
<polygon fill="white" stroke="none" points="85.09,-3119.5 85.09,-3138.5 196.09,-3138.5 196.09,-3119.5 85.09,-3119.5"/>
<text text-anchor="start" x="113.59" y="-3125.3" font-family="Times,serif" font-size="14.00">asm_start</text>
<polygon fill="white" stroke="none" points="85.09,-3098.5 85.09,-3117.5 196.09,-3117.5 196.09,-3098.5 85.09,-3098.5"/>
<text text-anchor="start" x="116.09" y="-3104.3" font-family="Times,serif" font-size="14.00">asm_end</text>
<polygon fill="white" stroke="none" points="85.09,-3077.5 85.09,-3096.5 196.09,-3096.5 196.09,-3077.5 85.09,-3077.5"/>
<text text-anchor="start" x="113.09" y="-3083.3" font-family="Times,serif" font-size="14.00">cmp_start</text>
<polygon fill="white" stroke="none" points="85.09,-3056.5 85.09,-3075.5 196.09,-3075.5 196.09,-3056.5 85.09,-3056.5"/>
<text text-anchor="start" x="115.59" y="-3062.3" font-family="Times,serif" font-size="14.00">cmp_end</text>
<polygon fill="white" stroke="none" points="85.09,-3035.5 85.09,-3054.5 196.09,-3054.5 196.09,-3035.5 85.09,-3035.5"/>
<text text-anchor="start" x="132.59" y="-3041.3" font-family="Times,serif" font-size="14.00">ori</text>
<polygon fill="black" stroke="black" points="83.09,-3181.5 83.09,-3181.5 198.09,-3181.5 198.09,-3181.5 83.09,-3181.5"/>
</g>
<!-- seq_region -->
<g id="node10" class="node">
<title>seq_region</title>
<path fill="#c70c09" stroke="black" d="M396.59,-2591C396.59,-2591 291.59,-2591 291.59,-2591 285.59,-2591 279.59,-2585 279.59,-2579 279.59,-2579 279.59,-2485 279.59,-2485 279.59,-2479 285.59,-2473 291.59,-2473 291.59,-2473 396.59,-2473 396.59,-2473 402.59,-2473 408.59,-2479 408.59,-2485 408.59,-2485 408.59,-2579 408.59,-2579 408.59,-2585 402.59,-2591 396.59,-2591"/>
<text text-anchor="start" x="308.59" y="-2570.2" font-family="Times,serif" font-size="16.00">seq_region</text>
<polygon fill="white" stroke="none" points="289.59,-2542 289.59,-2561 398.59,-2561 398.59,-2542 289.59,-2542"/>
<text text-anchor="start" x="291.59" y="-2548.8" font-family="Times,serif" font-weight="bold" font-size="14.00">PK</text>
<text text-anchor="start" x="311.59" y="-2548.8" font-family="Times,serif" font-size="14.00">  seq_region_id</text>
<polygon fill="white" stroke="none" points="289.59,-2521 289.59,-2540 398.59,-2540 398.59,-2521 289.59,-2521"/>
<text text-anchor="start" x="328.59" y="-2526.8" font-family="Times,serif" font-size="14.00">name</text>
<polygon fill="white" stroke="none" points="289.59,-2500 289.59,-2519 398.59,-2519 398.59,-2500 289.59,-2500"/>
<text text-anchor="start" x="297.09" y="-2505.8" font-family="Times,serif" font-size="14.00">coord_system_id</text>
<polygon fill="white" stroke="none" points="289.59,-2479 289.59,-2498 398.59,-2498 398.59,-2479 289.59,-2479"/>
<text text-anchor="start" x="327.09" y="-2484.8" font-family="Times,serif" font-size="14.00">length</text>
<polygon fill="black" stroke="black" points="287.59,-2562 287.59,-2562 400.59,-2562 400.59,-2562 287.59,-2562"/>
</g>
<!-- assembly&#45;&gt;seq_region -->
<g id="edge1" class="edge">
<title>assembly:e&#45;&gt;seq_region:w</title>
<path fill="none" stroke="black" stroke-dasharray="5,2" d="M197.59,-3171C268.86,-3171 237.07,-3089.78 251.59,-3020 261.5,-2972.33 239.25,-2605.76 278.7,-2557.29"/>
<polygon fill="black" stroke="black" points="280.09,-2559.96 287.09,-2552 276.65,-2553.86 280.09,-2559.96"/>
</g>
<!-- assembly_exception -->
<g id="node2" class="node">
<title>assembly_exception</title>
<path fill="#c70c09" stroke="black" d="M218.59,-2654.5C218.59,-2654.5 62.59,-2654.5 62.59,-2654.5 56.59,-2654.5 50.59,-2648.5 50.59,-2642.5 50.59,-2642.5 50.59,-2443.5 50.59,-2443.5 50.59,-2437.5 56.59,-2431.5 62.59,-2431.5 62.59,-2431.5 218.59,-2431.5 218.59,-2431.5 224.59,-2431.5 230.59,-2437.5 230.59,-2443.5 230.59,-2443.5 230.59,-2642.5 230.59,-2642.5 230.59,-2648.5 224.59,-2654.5 218.59,-2654.5"/>
<text text-anchor="start" x="76.09" y="-2633.7" font-family="Times,serif" font-size="16.00">assembly_exception</text>
<polygon fill="white" stroke="none" points="60.59,-2605.5 60.59,-2624.5 220.59,-2624.5 220.59,-2605.5 60.59,-2605.5"/>
<text text-anchor="start" x="62.59" y="-2612.3" font-family="Times,serif" font-weight="bold" font-size="14.00">PK</text>
<text text-anchor="start" x="82.59" y="-2612.3" font-family="Times,serif" font-size="14.00">  assembly_exception_id</text>
<polygon fill="white" stroke="none" points="60.59,-2584.5 60.59,-2603.5 220.59,-2603.5 220.59,-2584.5 60.59,-2584.5"/>
<text text-anchor="start" x="102.09" y="-2590.3" font-family="Times,serif" font-size="14.00">seq_region_id</text>
<polygon fill="white" stroke="none" points="60.59,-2563.5 60.59,-2582.5 220.59,-2582.5 220.59,-2563.5 60.59,-2563.5"/>
<text text-anchor="start" x="95.09" y="-2569.3" font-family="Times,serif" font-size="14.00">seq_region_start</text>
<polygon fill="white" stroke="none" points="60.59,-2542.5 60.59,-2561.5 220.59,-2561.5 220.59,-2542.5 60.59,-2542.5"/>
<text text-anchor="start" x="97.59" y="-2548.3" font-family="Times,serif" font-size="14.00">seq_region_end</text>
<polygon fill="white" stroke="none" points="60.59,-2521.5 60.59,-2540.5 220.59,-2540.5 220.59,-2521.5 60.59,-2521.5"/>
<text text-anchor="start" x="116.09" y="-2527.3" font-family="Times,serif" font-size="14.00">exc_type</text>
<polygon fill="white" stroke="none" points="60.59,-2500.5 60.59,-2519.5 220.59,-2519.5 220.59,-2500.5 60.59,-2500.5"/>
<text text-anchor="start" x="89.09" y="-2506.3" font-family="Times,serif" font-size="14.00">exc_seq_region_id</text>
<polygon fill="white" stroke="none" points="60.59,-2479.5 60.59,-2498.5 220.59,-2498.5 220.59,-2479.5 60.59,-2479.5"/>
<text text-anchor="start" x="82.59" y="-2485.3" font-family="Times,serif" font-size="14.00">exc_seq_region_start</text>
<polygon fill="white" stroke="none" points="60.59,-2458.5 60.59,-2477.5 220.59,-2477.5 220.59,-2458.5 60.59,-2458.5"/>
<text text-anchor="start" x="84.59" y="-2464.3" font-family="Times,serif" font-size="14.00">exc_seq_region_end</text>
<polygon fill="white" stroke="none" points="60.59,-2437.5 60.59,-2456.5 220.59,-2456.5 220.59,-2437.5 60.59,-2437.5"/>
<text text-anchor="start" x="132.59" y="-2443.3" font-family="Times,serif" font-size="14.00">ori</text>
<polygon fill="black" stroke="black" points="58.59,-2625.5 58.59,-2625.5 222.59,-2625.5 222.59,-2625.5 58.59,-2625.5"/>
</g>
<!-- assembly_exception&#45;&gt;seq_region -->
<g id="edge2" class="edge">
<title>assembly_exception:e&#45;&gt;seq_region:w</title>
<path fill="none" stroke="black" stroke-dasharray="5,2" d="M221.59,-2510C252.45,-2510 253.4,-2542.73 277.25,-2550.4"/>
<polygon fill="black" stroke="black" points="276.68,-2554.01 287.09,-2552 277.7,-2547.08 276.68,-2554.01"/>
</g>
<!-- coord_system -->
<g id="node3" class="node">
<title>coord_system</title>
<path fill="#c70c09" stroke="black" d="M577.59,-2616C577.59,-2616 456.59,-2616 456.59,-2616 450.59,-2616 444.59,-2610 444.59,-2604 444.59,-2604 444.59,-2468 444.59,-2468 444.59,-2462 450.59,-2456 456.59,-2456 456.59,-2456 577.59,-2456 577.59,-2456 583.59,-2456 589.59,-2462 589.59,-2468 589.59,-2468 589.59,-2604 589.59,-2604 589.59,-2610 583.59,-2616 577.59,-2616"/>
<text text-anchor="start" x="472.59" y="-2595.2" font-family="Times,serif" font-size="16.00">coord_system</text>
<polygon fill="white" stroke="none" points="454.59,-2567 454.59,-2586 579.59,-2586 579.59,-2567 454.59,-2567"/>
<text text-anchor="start" x="456.59" y="-2573.8" font-family="Times,serif" font-weight="bold" font-size="14.00">PK</text>
<text text-anchor="start" x="476.59" y="-2573.8" font-family="Times,serif" font-size="14.00">  coord_system_id</text>
<polygon fill="white" stroke="none" points="454.59,-2546 454.59,-2565 579.59,-2565 579.59,-2546 454.59,-2546"/>
<text text-anchor="start" x="488.59" y="-2551.8" font-family="Times,serif" font-size="14.00">species_id</text>
<polygon fill="white" stroke="none" points="454.59,-2525 454.59,-2544 579.59,-2544 579.59,-2525 454.59,-2525"/>
<text text-anchor="start" x="501.59" y="-2530.8" font-family="Times,serif" font-size="14.00">name</text>
<polygon fill="white" stroke="none" points="454.59,-2504 454.59,-2523 579.59,-2523 579.59,-2504 454.59,-2504"/>
<text text-anchor="start" x="497.09" y="-2509.8" font-family="Times,serif" font-size="14.00">version</text>
<polygon fill="white" stroke="none" points="454.59,-2483 454.59,-2502 579.59,-2502 579.59,-2483 454.59,-2483"/>
<text text-anchor="start" x="504.59" y="-2488.8" font-family="Times,serif" font-size="14.00">rank</text>
<polygon fill="white" stroke="none" points="454.59,-2462 454.59,-2481 579.59,-2481 579.59,-2462 454.59,-2462"/>
<text text-anchor="start" x="502.09" y="-2467.8" font-family="Times,serif" font-size="14.00">attrib</text>
<polygon fill="black" stroke="black" points="452.59,-2587 452.59,-2587 581.59,-2587 581.59,-2587 452.59,-2587"/>
</g>
<!-- data_file -->
<g id="node4" class="node">
<title>data_file</title>
<path fill="#c70c09" stroke="black" d="M391.09,-2927C391.09,-2927 297.09,-2927 297.09,-2927 291.09,-2927 285.09,-2921 285.09,-2915 285.09,-2915 285.09,-2737 285.09,-2737 285.09,-2731 291.09,-2725 297.09,-2725 297.09,-2725 391.09,-2725 391.09,-2725 397.09,-2725 403.09,-2731 403.09,-2737 403.09,-2737 403.09,-2915 403.09,-2915 403.09,-2921 397.09,-2927 391.09,-2927"/>
<text text-anchor="start" x="316.59" y="-2906.2" font-family="Times,serif" font-size="16.00">data_file</text>
<polygon fill="white" stroke="none" points="295.09,-2878 295.09,-2897 393.09,-2897 393.09,-2878 295.09,-2878"/>
<text text-anchor="start" x="298.09" y="-2884.8" font-family="Times,serif" font-weight="bold" font-size="14.00">PK</text>
<text text-anchor="start" x="318.09" y="-2884.8" font-family="Times,serif" font-size="14.00">  data_file_id</text>
<polygon fill="white" stroke="none" points="295.09,-2857 295.09,-2876 393.09,-2876 393.09,-2857 295.09,-2857"/>
<text text-anchor="start" x="297.09" y="-2862.8" font-family="Times,serif" font-size="14.00">coord_system_id</text>
<polygon fill="white" stroke="none" points="295.09,-2836 295.09,-2855 393.09,-2855 393.09,-2836 295.09,-2836"/>
<text text-anchor="start" x="313.59" y="-2841.8" font-family="Times,serif" font-size="14.00">analysis_id</text>
<polygon fill="white" stroke="none" points="295.09,-2815 295.09,-2834 393.09,-2834 393.09,-2815 295.09,-2815"/>
<text text-anchor="start" x="328.59" y="-2820.8" font-family="Times,serif" font-size="14.00">name</text>
<polygon fill="white" stroke="none" points="295.09,-2794 295.09,-2813 393.09,-2813 393.09,-2794 295.09,-2794"/>
<text text-anchor="start" x="309.09" y="-2799.8" font-family="Times,serif" font-size="14.00">version_lock</text>
<polygon fill="white" stroke="none" points="295.09,-2773 295.09,-2792 393.09,-2792 393.09,-2773 295.09,-2773"/>
<text text-anchor="start" x="321.09" y="-2778.8" font-family="Times,serif" font-size="14.00">absolute</text>
<polygon fill="white" stroke="none" points="295.09,-2752 295.09,-2771 393.09,-2771 393.09,-2752 295.09,-2752"/>
<text text-anchor="start" x="336.09" y="-2757.8" font-family="Times,serif" font-size="14.00">url</text>
<polygon fill="white" stroke="none" points="295.09,-2731 295.09,-2750 393.09,-2750 393.09,-2731 295.09,-2731"/>
<text text-anchor="start" x="320.09" y="-2736.8" font-family="Times,serif" font-size="14.00">file_type</text>
<polygon fill="black" stroke="black" points="293.09,-2898 293.09,-2898 395.09,-2898 395.09,-2898 293.09,-2898"/>
</g>
<!-- data_file&#45;&gt;coord_system -->
<g id="edge4" class="edge">
<title>data_file:e&#45;&gt;coord_system:w</title>
<path fill="none" stroke="black" stroke-dasharray="5,2" d="M394.09,-2867C455.87,-2867 395.6,-2611.05 442.6,-2580.06"/>
<polygon fill="black" stroke="black" points="443.47,-2583.16 452.09,-2577 441.51,-2576.44 443.47,-2583.16"/>
</g>
<!-- analysis -->
<g id="node13" class="node">
<title>analysis</title>
<path fill="#808000" stroke="black" d="M185.09,-2283C185.09,-2283 96.09,-2283 96.09,-2283 90.09,-2283 84.09,-2277 84.09,-2271 84.09,-2271 84.09,-2219 84.09,-2219 84.09,-2213 90.09,-2207 96.09,-2207 96.09,-2207 185.09,-2207 185.09,-2207 191.09,-2207 197.09,-2213 197.09,-2219 197.09,-2219 197.09,-2271 197.09,-2271 197.09,-2277 191.09,-2283 185.09,-2283"/>
<text text-anchor="start" x="115.59" y="-2262.2" font-family="Times,serif" font-size="16.00">analysis</text>
<polygon fill="white" stroke="none" points="94.09,-2234 94.09,-2253 187.09,-2253 187.09,-2234 94.09,-2234"/>
<text text-anchor="start" x="96.09" y="-2240.8" font-family="Times,serif" font-weight="bold" font-size="14.00">PK</text>
<text text-anchor="start" x="116.09" y="-2240.8" font-family="Times,serif" font-size="14.00">  analysis_id</text>
<polygon fill="white" stroke="none" points="94.09,-2213 94.09,-2232 187.09,-2232 187.09,-2213 94.09,-2213"/>
<text text-anchor="start" x="134.59" y="-2219.8" font-family="Times,serif" font-style="italic" font-size="14.00">...</text>
<polygon fill="black" stroke="black" points="92.09,-2254 92.09,-2254 189.09,-2254 189.09,-2254 92.09,-2254"/>
</g>
<!-- data_file&#45;&gt;analysis -->
<g id="edge3" class="edge">
<title>data_file:e&#45;&gt;analysis:w</title>
<path fill="none" stroke="black" stroke-dasharray="5,2" d="M394.09,-2846C430.09,-2846 418.7,-2901.7 393.09,-2927 358.94,-2960.73 319.96,-2959.98 285.09,-2927 236.42,-2880.96 267.78,-2390.01 251.59,-2325 237.62,-2268.95 245.75,-2238.13 197.09,-2207 187.4,-2200.8 101.83,-2198.98 93.59,-2207 85.61,-2214.76 80.5,-2229.13 83.51,-2237.17"/>
<polygon fill="black" stroke="black" points="81.28,-2240.54 91.59,-2243 85.06,-2234.65 81.28,-2240.54"/>
</g>
<!-- dna -->
<g id="node5" class="node">
<title>dna</title>
<path fill="#c70c09" stroke="black" d="M193.09,-2413C193.09,-2413 88.09,-2413 88.09,-2413 82.09,-2413 76.09,-2407 76.09,-2401 76.09,-2401 76.09,-2349 76.09,-2349 76.09,-2343 82.09,-2337 88.09,-2337 88.09,-2337 193.09,-2337 193.09,-2337 199.09,-2337 205.09,-2343 205.09,-2349 205.09,-2349 205.09,-2401 205.09,-2401 205.09,-2407 199.09,-2413 193.09,-2413"/>
<text text-anchor="start" x="128.59" y="-2392.2" font-family="Times,serif" font-size="16.00">dna</text>
<polygon fill="white" stroke="none" points="86.09,-2364 86.09,-2383 195.09,-2383 195.09,-2364 86.09,-2364"/>
<text text-anchor="start" x="88.09" y="-2370.8" font-family="Times,serif" font-weight="bold" font-size="14.00">PK</text>
<text text-anchor="start" x="108.09" y="-2370.8" font-family="Times,serif" font-size="14.00">  seq_region_id</text>
<polygon fill="white" stroke="none" points="86.09,-2343 86.09,-2362 195.09,-2362 195.09,-2343 86.09,-2343"/>
<text text-anchor="start" x="115.59" y="-2348.8" font-family="Times,serif" font-size="14.00">sequence</text>
<polygon fill="black" stroke="black" points="84.09,-2384 84.09,-2384 197.09,-2384 197.09,-2384 84.09,-2384"/>
</g>
<!-- dna&#45;&gt;seq_region -->
<g id="edge7" class="edge">
<title>dna:e&#45;&gt;seq_region:w</title>
<path fill="none" stroke="black" stroke-dasharray="5,2" d="M196.59,-2373C229.32,-2373 234.24,-2394.23 251.59,-2422 281.21,-2469.42 235.23,-2541.32 277.33,-2550.93"/>
<polygon fill="black" stroke="black" points="276.79,-2554.49 287.09,-2552 277.48,-2547.52 276.79,-2554.49"/>
</g>
<!-- genome_statistics -->
<g id="node6" class="node">
<title>genome_statistics</title>
<path fill="#c70c09" stroke="black" d="M211.59,-3011C211.59,-3011 69.59,-3011 69.59,-3011 63.59,-3011 57.59,-3005 57.59,-2999 57.59,-2999 57.59,-2863 57.59,-2863 57.59,-2857 63.59,-2851 69.59,-2851 69.59,-2851 211.59,-2851 211.59,-2851 217.59,-2851 223.59,-2857 223.59,-2863 223.59,-2863 223.59,-2999 223.59,-2999 223.59,-3005 217.59,-3011 211.59,-3011"/>
<text text-anchor="start" x="84.09" y="-2990.2" font-family="Times,serif" font-size="16.00">genome_statistics</text>
<polygon fill="white" stroke="none" points="67.59,-2962 67.59,-2981 213.59,-2981 213.59,-2962 67.59,-2962"/>
<text text-anchor="start" x="69.59" y="-2968.8" font-family="Times,serif" font-weight="bold" font-size="14.00">PK</text>
<text text-anchor="start" x="89.59" y="-2968.8" font-family="Times,serif" font-size="14.00">  genome_statistics_id</text>
<polygon fill="white" stroke="none" points="67.59,-2941 67.59,-2960 213.59,-2960 213.59,-2941 67.59,-2941"/>
<text text-anchor="start" x="119.59" y="-2946.8" font-family="Times,serif" font-size="14.00">statistic</text>
<polygon fill="white" stroke="none" points="67.59,-2920 67.59,-2939 213.59,-2939 213.59,-2920 67.59,-2920"/>
<text text-anchor="start" x="125.59" y="-2925.8" font-family="Times,serif" font-size="14.00">value</text>
<polygon fill="white" stroke="none" points="67.59,-2899 67.59,-2918 213.59,-2918 213.59,-2899 67.59,-2899"/>
<text text-anchor="start" x="112.09" y="-2904.8" font-family="Times,serif" font-size="14.00">species_id</text>
<polygon fill="white" stroke="none" points="67.59,-2878 67.59,-2897 213.59,-2897 213.59,-2878 67.59,-2878"/>
<text text-anchor="start" x="102.09" y="-2883.8" font-family="Times,serif" font-size="14.00">attrib_type_id</text>
<polygon fill="white" stroke="none" points="67.59,-2857 67.59,-2876 213.59,-2876 213.59,-2857 67.59,-2857"/>
<text text-anchor="start" x="111.59" y="-2862.8" font-family="Times,serif" font-size="14.00">timestamp</text>
<polygon fill="black" stroke="black" points="65.59,-2982 65.59,-2982 215.59,-2982 215.59,-2982 65.59,-2982"/>
</g>
<!-- karyotype -->
<g id="node7" class="node">
<title>karyotype</title>
<path fill="#c70c09" stroke="black" d="M190.59,-2833C190.59,-2833 90.59,-2833 90.59,-2833 84.59,-2833 78.59,-2827 78.59,-2821 78.59,-2821 78.59,-2685 78.59,-2685 78.59,-2679 84.59,-2673 90.59,-2673 90.59,-2673 190.59,-2673 190.59,-2673 196.59,-2673 202.59,-2679 202.59,-2685 202.59,-2685 202.59,-2821 202.59,-2821 202.59,-2827 196.59,-2833 190.59,-2833"/>
<text text-anchor="start" x="108.59" y="-2812.2" font-family="Times,serif" font-size="16.00">karyotype</text>
<polygon fill="white" stroke="none" points="88.59,-2784 88.59,-2803 192.59,-2803 192.59,-2784 88.59,-2784"/>
<text text-anchor="start" x="90.59" y="-2790.8" font-family="Times,serif" font-weight="bold" font-size="14.00">PK</text>
<text text-anchor="start" x="110.59" y="-2790.8" font-family="Times,serif" font-size="14.00">  karyotype_id</text>
<polygon fill="white" stroke="none" points="88.59,-2763 88.59,-2782 192.59,-2782 192.59,-2763 88.59,-2763"/>
<text text-anchor="start" x="102.09" y="-2768.8" font-family="Times,serif" font-size="14.00">seq_region_id</text>
<polygon fill="white" stroke="none" points="88.59,-2742 88.59,-2761 192.59,-2761 192.59,-2742 88.59,-2742"/>
<text text-anchor="start" x="95.09" y="-2747.8" font-family="Times,serif" font-size="14.00">seq_region_start</text>
<polygon fill="white" stroke="none" points="88.59,-2721 88.59,-2740 192.59,-2740 192.59,-2721 88.59,-2721"/>
<text text-anchor="start" x="97.59" y="-2726.8" font-family="Times,serif" font-size="14.00">seq_region_end</text>
<polygon fill="white" stroke="none" points="88.59,-2700 88.59,-2719 192.59,-2719 192.59,-2700 88.59,-2700"/>
<text text-anchor="start" x="127.09" y="-2705.8" font-family="Times,serif" font-size="14.00">band</text>
<polygon fill="white" stroke="none" points="88.59,-2679 88.59,-2698 192.59,-2698 192.59,-2679 88.59,-2679"/>
<text text-anchor="start" x="127.59" y="-2684.8" font-family="Times,serif" font-size="14.00">stain</text>
<polygon fill="black" stroke="black" points="86.59,-2804 86.59,-2804 194.59,-2804 194.59,-2804 86.59,-2804"/>
</g>
<!-- karyotype&#45;&gt;seq_region -->
<g id="edge12" class="edge">
<title>karyotype:e&#45;&gt;seq_region:w</title>
<path fill="none" stroke="black" stroke-dasharray="5,2" d="M193.59,-2773C248.46,-2773 230.11,-2714.5 251.59,-2664 270.47,-2619.58 241.06,-2561.88 277.37,-2553.13"/>
<polygon fill="black" stroke="black" points="277.51,-2556.53 287.09,-2552 276.77,-2549.57 277.51,-2556.53"/>
</g>
<!-- meta -->
<g id="node8" class="node">
<title>meta</title>
<path fill="#c70c09" stroke="black" d="M380.09,-2455C380.09,-2455 308.09,-2455 308.09,-2455 302.09,-2455 296.09,-2449 296.09,-2443 296.09,-2443 296.09,-2349 296.09,-2349 296.09,-2343 302.09,-2337 308.09,-2337 308.09,-2337 380.09,-2337 380.09,-2337 386.09,-2337 392.09,-2343 392.09,-2349 392.09,-2349 392.09,-2443 392.09,-2443 392.09,-2449 386.09,-2455 380.09,-2455"/>
<text text-anchor="start" x="328.59" y="-2434.2" font-family="Times,serif" font-size="16.00">meta</text>
<polygon fill="white" stroke="none" points="306.09,-2406 306.09,-2425 382.09,-2425 382.09,-2406 306.09,-2406"/>
<text text-anchor="start" x="308.09" y="-2412.8" font-family="Times,serif" font-weight="bold" font-size="14.00">PK</text>
<text text-anchor="start" x="328.09" y="-2412.8" font-family="Times,serif" font-size="14.00">  meta_id</text>
<polygon fill="white" stroke="none" points="306.09,-2385 306.09,-2404 382.09,-2404 382.09,-2385 306.09,-2385"/>
<text text-anchor="start" x="315.59" y="-2390.8" font-family="Times,serif" font-size="14.00">species_id</text>
<polygon fill="white" stroke="none" points="306.09,-2364 306.09,-2383 382.09,-2383 382.09,-2364 306.09,-2364"/>
<text text-anchor="start" x="317.09" y="-2369.8" font-family="Times,serif" font-size="14.00">meta_key</text>
<polygon fill="white" stroke="none" points="306.09,-2343 306.09,-2362 382.09,-2362 382.09,-2343 306.09,-2343"/>
<text text-anchor="start" x="312.09" y="-2348.8" font-family="Times,serif" font-size="14.00">meta_value</text>
<polygon fill="black" stroke="black" points="304.09,-2426 304.09,-2426 384.09,-2426 384.09,-2426 304.09,-2426"/>
</g>
<!-- meta&#45;&gt;coord_system -->
<g id="edge14" class="edge">
<title>meta:e&#45;&gt;coord_system:w</title>
<path fill="none" stroke="black" stroke-dasharray="5,2" d="M383.09,-2394C457.54,-2394 383.05,-2539.96 442.37,-2554.79"/>
<polygon fill="black" stroke="black" points="441.76,-2558.35 452.09,-2556 442.54,-2551.4 441.76,-2558.35"/>
</g>
<!-- meta_coord -->
<g id="node9" class="node">
<title>meta_coord</title>
<path fill="#c70c09" stroke="black" d="M391.09,-2706.5C391.09,-2706.5 297.09,-2706.5 297.09,-2706.5 291.09,-2706.5 285.09,-2700.5 285.09,-2694.5 285.09,-2694.5 285.09,-2621.5 285.09,-2621.5 285.09,-2615.5 291.09,-2609.5 297.09,-2609.5 297.09,-2609.5 391.09,-2609.5 391.09,-2609.5 397.09,-2609.5 403.09,-2615.5 403.09,-2621.5 403.09,-2621.5 403.09,-2694.5 403.09,-2694.5 403.09,-2700.5 397.09,-2706.5 391.09,-2706.5"/>
<text text-anchor="start" x="306.09" y="-2685.7" font-family="Times,serif" font-size="16.00">meta_coord</text>
<polygon fill="white" stroke="none" points="295.09,-2657.5 295.09,-2676.5 393.09,-2676.5 393.09,-2657.5 295.09,-2657.5"/>
<text text-anchor="start" x="312.09" y="-2663.3" font-family="Times,serif" font-size="14.00">table_name</text>
<polygon fill="white" stroke="none" points="295.09,-2636.5 295.09,-2655.5 393.09,-2655.5 393.09,-2636.5 295.09,-2636.5"/>
<text text-anchor="start" x="297.09" y="-2642.3" font-family="Times,serif" font-size="14.00">coord_system_id</text>
<polygon fill="white" stroke="none" points="295.09,-2615.5 295.09,-2634.5 393.09,-2634.5 393.09,-2615.5 295.09,-2615.5"/>
<text text-anchor="start" x="311.09" y="-2621.3" font-family="Times,serif" font-size="14.00">max_length</text>
<polygon fill="black" stroke="black" points="293.09,-2677.5 293.09,-2677.5 395.09,-2677.5 395.09,-2677.5 293.09,-2677.5"/>
</g>
<!-- meta_coord&#45;&gt;coord_system -->
<g id="edge15" class="edge">
<title>meta_coord:e&#45;&gt;coord_system:w</title>
<path fill="none" stroke="black" stroke-dasharray="5,2" d="M394.09,-2646C430.34,-2646 416.5,-2590.3 442.58,-2578.99"/>
<polygon fill="black" stroke="black" points="442.91,-2582.3 452.09,-2577 441.61,-2575.42 442.91,-2582.3"/>
</g>
<!-- seq_region&#45;&gt;coord_system -->
<g id="edge23" class="edge">
<title>seq_region:e&#45;&gt;coord_system:w</title>
<path fill="none" stroke="black" stroke-dasharray="5,2" d="M400.09,-2509C434.21,-2509 419.2,-2562.94 442.57,-2574.74"/>
<polygon fill="black" stroke="black" points="441.57,-2578.32 452.09,-2577 443.05,-2571.47 441.57,-2578.32"/>
</g>
<!-- seq_region_attrib -->
<g id="node11" class="node">
<title>seq_region_attrib</title>
<path fill="#c70c09" stroke="black" d="M197.59,-3462.5C197.59,-3462.5 83.59,-3462.5 83.59,-3462.5 77.59,-3462.5 71.59,-3456.5 71.59,-3450.5 71.59,-3450.5 71.59,-3377.5 71.59,-3377.5 71.59,-3371.5 77.59,-3365.5 83.59,-3365.5 83.59,-3365.5 197.59,-3365.5 197.59,-3365.5 203.59,-3365.5 209.59,-3371.5 209.59,-3377.5 209.59,-3377.5 209.59,-3450.5 209.59,-3450.5 209.59,-3456.5 203.59,-3462.5 197.59,-3462.5"/>
<text text-anchor="start" x="83.59" y="-3441.7" font-family="Times,serif" font-size="16.00">seq_region_attrib</text>
<polygon fill="white" stroke="none" points="81.59,-3413.5 81.59,-3432.5 199.59,-3432.5 199.59,-3413.5 81.59,-3413.5"/>
<text text-anchor="start" x="102.09" y="-3419.3" font-family="Times,serif" font-size="14.00">seq_region_id</text>
<polygon fill="white" stroke="none" points="81.59,-3392.5 81.59,-3411.5 199.59,-3411.5 199.59,-3392.5 81.59,-3392.5"/>
<text text-anchor="start" x="102.09" y="-3398.3" font-family="Times,serif" font-size="14.00">attrib_type_id</text>
<polygon fill="white" stroke="none" points="81.59,-3371.5 81.59,-3390.5 199.59,-3390.5 199.59,-3371.5 81.59,-3371.5"/>
<text text-anchor="start" x="125.59" y="-3377.3" font-family="Times,serif" font-size="14.00">value</text>
<polygon fill="black" stroke="black" points="79.59,-3433.5 79.59,-3433.5 201.59,-3433.5 201.59,-3433.5 79.59,-3433.5"/>
</g>
<!-- seq_region_attrib&#45;&gt;seq_region -->
<g id="edge25" class="edge">
<title>seq_region_attrib:e&#45;&gt;seq_region:w</title>
<path fill="none" stroke="black" stroke-dasharray="5,2" d="M200.59,-3423C238.01,-3423 238.97,-3391.23 251.59,-3356 265.75,-3316.45 246.05,-2641.62 280.69,-2560.05"/>
<polygon fill="black" stroke="black" points="282.9,-2562.73 287.09,-2553 277.74,-2558 282.9,-2562.73"/>
</g>
<!-- attrib_type -->
<g id="node14" class="node">
<title>attrib_type</title>
<path fill="#808000" stroke="black" d="M193.09,-2189C193.09,-2189 88.09,-2189 88.09,-2189 82.09,-2189 76.09,-2183 76.09,-2177 76.09,-2177 76.09,-2125 76.09,-2125 76.09,-2119 82.09,-2113 88.09,-2113 88.09,-2113 193.09,-2113 193.09,-2113 199.09,-2113 205.09,-2119 205.09,-2125 205.09,-2125 205.09,-2177 205.09,-2177 205.09,-2183 199.09,-2189 193.09,-2189"/>
<text text-anchor="start" x="105.09" y="-2168.2" font-family="Times,serif" font-size="16.00">attrib_type</text>
<polygon fill="white" stroke="none" points="86.09,-2140 86.09,-2159 195.09,-2159 195.09,-2140 86.09,-2140"/>
<text text-anchor="start" x="88.09" y="-2146.8" font-family="Times,serif" font-weight="bold" font-size="14.00">PK</text>
<text text-anchor="start" x="108.09" y="-2146.8" font-family="Times,serif" font-size="14.00">  attrib_type_id</text>
<polygon fill="white" stroke="none" points="86.09,-2119 86.09,-2138 195.09,-2138 195.09,-2119 86.09,-2119"/>
<text text-anchor="start" x="134.59" y="-2125.8" font-family="Times,serif" font-style="italic" font-size="14.00">...</text>
<polygon fill="black" stroke="black" points="84.09,-2160 84.09,-2160 197.09,-2160 197.09,-2160 84.09,-2160"/>
</g>
<!-- seq_region_attrib&#45;&gt;attrib_type -->
<g id="edge24" class="edge">
<title>seq_region_attrib:e&#45;&gt;attrib_type:w</title>
<path fill="none" stroke="black" stroke-dasharray="5,2" d="M209.59,-3402C226.7,-3402 221.43,-3375.85 209.59,-3363.5 195.73,-3349.05 48.97,-3361 29.59,-3356 20.92,-3353.76 16.29,-3354.61 11.59,-3347 -5.06,-3320.06 -2.18,-2235.52 11.59,-2207 27.91,-2173.18 40.57,-2153.02 73.64,-2149.54"/>
<polygon fill="black" stroke="black" points="73.77,-2152.99 83.59,-2149 73.42,-2146 73.77,-2152.99"/>
</g>
<!-- seq_region_synonym -->
<g id="node12" class="node">
<title>seq_region_synonym</title>
<path fill="#c70c09" stroke="black" d="M221.59,-3347C221.59,-3347 59.59,-3347 59.59,-3347 53.59,-3347 47.59,-3341 47.59,-3335 47.59,-3335 47.59,-3241 47.59,-3241 47.59,-3235 53.59,-3229 59.59,-3229 59.59,-3229 221.59,-3229 221.59,-3229 227.59,-3229 233.59,-3235 233.59,-3241 233.59,-3241 233.59,-3335 233.59,-3335 233.59,-3341 227.59,-3347 221.59,-3347"/>
<text text-anchor="start" x="71.09" y="-3326.2" font-family="Times,serif" font-size="16.00">seq_region_synonym</text>
<polygon fill="white" stroke="none" points="57.59,-3298 57.59,-3317 223.59,-3317 223.59,-3298 57.59,-3298"/>
<text text-anchor="start" x="59.59" y="-3304.8" font-family="Times,serif" font-weight="bold" font-size="14.00">PK</text>
<text text-anchor="start" x="79.59" y="-3304.8" font-family="Times,serif" font-size="14.00">  seq_region_synonym_id</text>
<polygon fill="white" stroke="none" points="57.59,-3277 57.59,-3296 223.59,-3296 223.59,-3277 57.59,-3277"/>
<text text-anchor="start" x="102.09" y="-3282.8" font-family="Times,serif" font-size="14.00">seq_region_id</text>
<polygon fill="white" stroke="none" points="57.59,-3256 57.59,-3275 223.59,-3275 223.59,-3256 57.59,-3256"/>
<text text-anchor="start" x="115.09" y="-3261.8" font-family="Times,serif" font-size="14.00">synonym</text>
<polygon fill="white" stroke="none" points="57.59,-3235 57.59,-3254 223.59,-3254 223.59,-3235 57.59,-3235"/>
<text text-anchor="start" x="99.59" y="-3240.8" font-family="Times,serif" font-size="14.00">external_db_id</text>
<polygon fill="black" stroke="black" points="55.59,-3318 55.59,-3318 225.59,-3318 225.59,-3318 55.59,-3318"/>
</g>
<!-- seq_region_synonym&#45;&gt;seq_region -->
<g id="edge27" class="edge">
<title>seq_region_synonym:e&#45;&gt;seq_region:w</title>
<path fill="none" stroke="black" stroke-dasharray="5,2" d="M224.59,-3286C302.77,-3286 214.86,-2616.46 278.12,-2556.31"/>
<polygon fill="black" stroke="black" points="279.3,-2559.18 287.09,-2552 276.52,-2552.76 279.3,-2559.18"/>
</g>
<!-- density_feature -->
<g id="node15" class="node">
<title>density_feature</title>
<path fill="#3cb371" stroke="black" d="M189.59,-677.5C189.59,-677.5 91.59,-677.5 91.59,-677.5 85.59,-677.5 79.59,-671.5 79.59,-665.5 79.59,-665.5 79.59,-592.5 79.59,-592.5 79.59,-586.5 85.59,-580.5 91.59,-580.5 91.59,-580.5 189.59,-580.5 189.59,-580.5 195.59,-580.5 201.59,-586.5 201.59,-592.5 201.59,-592.5 201.59,-665.5 201.59,-665.5 201.59,-671.5 195.59,-677.5 189.59,-677.5"/>
<text text-anchor="start" x="91.59" y="-656.7" font-family="Times,serif" font-size="16.00">density_feature</text>
<polygon fill="white" stroke="none" points="89.59,-628.5 89.59,-647.5 191.59,-647.5 191.59,-628.5 89.59,-628.5"/>
<text text-anchor="start" x="134.59" y="-635.3" font-family="Times,serif" font-style="italic" font-size="14.00">...</text>
<polygon fill="white" stroke="none" points="89.59,-607.5 89.59,-626.5 191.59,-626.5 191.59,-607.5 89.59,-607.5"/>
<text text-anchor="start" x="102.09" y="-613.3" font-family="Times,serif" font-size="14.00">seq_region_id</text>
<polygon fill="white" stroke="none" points="89.59,-586.5 89.59,-605.5 191.59,-605.5 191.59,-586.5 89.59,-586.5"/>
<text text-anchor="start" x="134.59" y="-593.3" font-family="Times,serif" font-style="italic" font-size="14.00">...</text>
<polygon fill="black" stroke="black" points="87.59,-648.5 87.59,-648.5 193.59,-648.5 193.59,-648.5 87.59,-648.5"/>
</g>
<!-- density_feature&#45;&gt;seq_region -->
<g id="edge5" class="edge">
<title>density_feature:e&#45;&gt;seq_region:w</title>
<path fill="none" stroke="black" stroke-dasharray="5,2" d="M192.59,-617C232.93,-617 237.31,-648.26 251.59,-686 286.53,-778.4 274.05,-2365.36 279.59,-2464 281.54,-2498.79 255.82,-2541.07 277.36,-2550.21"/>
<polygon fill="black" stroke="black" points="276.65,-2553.8 287.09,-2552 277.8,-2546.9 276.65,-2553.8"/>
</g>
<!-- ditag_feature -->
<g id="node16" class="node">
<title>ditag_feature</title>
<path fill="#3cb371" stroke="black" d="M182.59,-562.5C182.59,-562.5 98.59,-562.5 98.59,-562.5 92.59,-562.5 86.59,-556.5 86.59,-550.5 86.59,-550.5 86.59,-477.5 86.59,-477.5 86.59,-471.5 92.59,-465.5 98.59,-465.5 98.59,-465.5 182.59,-465.5 182.59,-465.5 188.59,-465.5 194.59,-471.5 194.59,-477.5 194.59,-477.5 194.59,-550.5 194.59,-550.5 194.59,-556.5 188.59,-562.5 182.59,-562.5"/>
<text text-anchor="start" x="98.59" y="-541.7" font-family="Times,serif" font-size="16.00">ditag_feature</text>
<polygon fill="white" stroke="none" points="96.59,-513.5 96.59,-532.5 184.59,-532.5 184.59,-513.5 96.59,-513.5"/>
<text text-anchor="start" x="134.59" y="-520.3" font-family="Times,serif" font-style="italic" font-size="14.00">...</text>
<polygon fill="white" stroke="none" points="96.59,-492.5 96.59,-511.5 184.59,-511.5 184.59,-492.5 96.59,-492.5"/>
<text text-anchor="start" x="102.09" y="-498.3" font-family="Times,serif" font-size="14.00">seq_region_id</text>
<polygon fill="white" stroke="none" points="96.59,-471.5 96.59,-490.5 184.59,-490.5 184.59,-471.5 96.59,-471.5"/>
<text text-anchor="start" x="134.59" y="-478.3" font-family="Times,serif" font-style="italic" font-size="14.00">...</text>
<polygon fill="black" stroke="black" points="94.59,-533.5 94.59,-533.5 186.59,-533.5 186.59,-533.5 94.59,-533.5"/>
</g>
<!-- ditag_feature&#45;&gt;seq_region -->
<g id="edge6" class="edge">
<title>ditag_feature:e&#45;&gt;seq_region:w</title>
<path fill="none" stroke="black" stroke-dasharray="5,2" d="M185.59,-502C228.02,-502 235.49,-531.73 251.59,-571 291.47,-668.32 273.75,-2358.98 279.59,-2464 281.52,-2498.79 255.81,-2541.07 277.36,-2550.21"/>
<polygon fill="black" stroke="black" points="276.65,-2553.8 287.09,-2552 277.8,-2546.9 276.65,-2553.8"/>
</g>
<!-- dna_align_feature -->
<g id="node17" class="node">
<title>dna_align_feature</title>
<path fill="#808000" stroke="black" d="M198.09,-2094.5C198.09,-2094.5 83.09,-2094.5 83.09,-2094.5 77.09,-2094.5 71.09,-2088.5 71.09,-2082.5 71.09,-2082.5 71.09,-2009.5 71.09,-2009.5 71.09,-2003.5 77.09,-1997.5 83.09,-1997.5 83.09,-1997.5 198.09,-1997.5 198.09,-1997.5 204.09,-1997.5 210.09,-2003.5 210.09,-2009.5 210.09,-2009.5 210.09,-2082.5 210.09,-2082.5 210.09,-2088.5 204.09,-2094.5 198.09,-2094.5"/>
<text text-anchor="start" x="83.09" y="-2073.7" font-family="Times,serif" font-size="16.00">dna_align_feature</text>
<polygon fill="white" stroke="none" points="81.09,-2045.5 81.09,-2064.5 200.09,-2064.5 200.09,-2045.5 81.09,-2045.5"/>
<text text-anchor="start" x="134.59" y="-2052.3" font-family="Times,serif" font-style="italic" font-size="14.00">...</text>
<polygon fill="white" stroke="none" points="81.09,-2024.5 81.09,-2043.5 200.09,-2043.5 200.09,-2024.5 81.09,-2024.5"/>
<text text-anchor="start" x="102.09" y="-2030.3" font-family="Times,serif" font-size="14.00">seq_region_id</text>
<polygon fill="white" stroke="none" points="81.09,-2003.5 81.09,-2022.5 200.09,-2022.5 200.09,-2003.5 81.09,-2003.5"/>
<text text-anchor="start" x="134.59" y="-2010.3" font-family="Times,serif" font-style="italic" font-size="14.00">...</text>
<polygon fill="black" stroke="black" points="79.09,-2065.5 79.09,-2065.5 202.09,-2065.5 202.09,-2065.5 79.09,-2065.5"/>
</g>
<!-- dna_align_feature&#45;&gt;seq_region -->
<g id="edge8" class="edge">
<title>dna_align_feature:e&#45;&gt;seq_region:w</title>
<path fill="none" stroke="black" stroke-dasharray="5,2" d="M201.59,-2034C239.82,-2034 238.51,-2068.07 251.59,-2104 279.02,-2179.41 272.62,-2384.06 279.59,-2464 282.61,-2498.71 256.06,-2541.06 277.4,-2550.2"/>
<polygon fill="black" stroke="black" points="276.64,-2553.79 287.09,-2552 277.8,-2546.89 276.64,-2553.79"/>
</g>
<!-- exon -->
<g id="node18" class="node">
<title>exon</title>
<path fill="#808000" stroke="black" d="M179.09,-1979.5C179.09,-1979.5 102.09,-1979.5 102.09,-1979.5 96.09,-1979.5 90.09,-1973.5 90.09,-1967.5 90.09,-1967.5 90.09,-1894.5 90.09,-1894.5 90.09,-1888.5 96.09,-1882.5 102.09,-1882.5 102.09,-1882.5 179.09,-1882.5 179.09,-1882.5 185.09,-1882.5 191.09,-1888.5 191.09,-1894.5 191.09,-1894.5 191.09,-1967.5 191.09,-1967.5 191.09,-1973.5 185.09,-1979.5 179.09,-1979.5"/>
<text text-anchor="start" x="125.09" y="-1958.7" font-family="Times,serif" font-size="16.00">exon</text>
<polygon fill="white" stroke="none" points="100.09,-1930.5 100.09,-1949.5 181.09,-1949.5 181.09,-1930.5 100.09,-1930.5"/>
<text text-anchor="start" x="134.59" y="-1937.3" font-family="Times,serif" font-style="italic" font-size="14.00">...</text>
<polygon fill="white" stroke="none" points="100.09,-1909.5 100.09,-1928.5 181.09,-1928.5 181.09,-1909.5 100.09,-1909.5"/>
<text text-anchor="start" x="102.09" y="-1915.3" font-family="Times,serif" font-size="14.00">seq_region_id</text>
<polygon fill="white" stroke="none" points="100.09,-1888.5 100.09,-1907.5 181.09,-1907.5 181.09,-1888.5 100.09,-1888.5"/>
<text text-anchor="start" x="134.59" y="-1895.3" font-family="Times,serif" font-style="italic" font-size="14.00">...</text>
<polygon fill="black" stroke="black" points="98.09,-1950.5 98.09,-1950.5 183.09,-1950.5 183.09,-1950.5 98.09,-1950.5"/>
</g>
<!-- exon&#45;&gt;seq_region -->
<g id="edge9" class="edge">
<title>exon:e&#45;&gt;seq_region:w</title>
<path fill="none" stroke="black" stroke-dasharray="5,2" d="M182.59,-1919C225.95,-1919 233.82,-1948.44 251.59,-1988 294.99,-2084.66 271.38,-2358.36 279.59,-2464 282.28,-2498.74 255.98,-2541.06 277.39,-2550.21"/>
<polygon fill="black" stroke="black" points="276.64,-2553.8 287.09,-2552 277.8,-2546.89 276.64,-2553.8"/>
</g>
<!-- gene -->
<g id="node19" class="node">
<title>gene</title>
<path fill="#808000" stroke="black" d="M179.09,-1864.5C179.09,-1864.5 102.09,-1864.5 102.09,-1864.5 96.09,-1864.5 90.09,-1858.5 90.09,-1852.5 90.09,-1852.5 90.09,-1779.5 90.09,-1779.5 90.09,-1773.5 96.09,-1767.5 102.09,-1767.5 102.09,-1767.5 179.09,-1767.5 179.09,-1767.5 185.09,-1767.5 191.09,-1773.5 191.09,-1779.5 191.09,-1779.5 191.09,-1852.5 191.09,-1852.5 191.09,-1858.5 185.09,-1864.5 179.09,-1864.5"/>
<text text-anchor="start" x="125.59" y="-1843.7" font-family="Times,serif" font-size="16.00">gene</text>
<polygon fill="white" stroke="none" points="100.09,-1815.5 100.09,-1834.5 181.09,-1834.5 181.09,-1815.5 100.09,-1815.5"/>
<text text-anchor="start" x="134.59" y="-1822.3" font-family="Times,serif" font-style="italic" font-size="14.00">...</text>
<polygon fill="white" stroke="none" points="100.09,-1794.5 100.09,-1813.5 181.09,-1813.5 181.09,-1794.5 100.09,-1794.5"/>
<text text-anchor="start" x="102.09" y="-1800.3" font-family="Times,serif" font-size="14.00">seq_region_id</text>
<polygon fill="white" stroke="none" points="100.09,-1773.5 100.09,-1792.5 181.09,-1792.5 181.09,-1773.5 100.09,-1773.5"/>
<text text-anchor="start" x="134.59" y="-1780.3" font-family="Times,serif" font-style="italic" font-size="14.00">...</text>
<polygon fill="black" stroke="black" points="98.09,-1835.5 98.09,-1835.5 183.09,-1835.5 183.09,-1835.5 98.09,-1835.5"/>
</g>
<!-- gene&#45;&gt;seq_region -->
<g id="edge10" class="edge">
<title>gene:e&#45;&gt;seq_region:w</title>
<path fill="none" stroke="black" stroke-dasharray="5,2" d="M182.59,-1804C313.24,-1804 248.87,-2037.04 279.59,-2464 282.09,-2498.75 255.94,-2541.07 277.38,-2550.21"/>
<polygon fill="black" stroke="black" points="276.64,-2553.8 287.09,-2552 277.8,-2546.9 276.64,-2553.8"/>
</g>
<!-- intron_supporting_evidence -->
<g id="node20" class="node">
<title>intron_supporting_evidence</title>
<path fill="#3cb371" stroke="black" d="M231.59,-1482.5C231.59,-1482.5 49.59,-1482.5 49.59,-1482.5 43.59,-1482.5 37.59,-1476.5 37.59,-1470.5 37.59,-1470.5 37.59,-1397.5 37.59,-1397.5 37.59,-1391.5 43.59,-1385.5 49.59,-1385.5 49.59,-1385.5 231.59,-1385.5 231.59,-1385.5 237.59,-1385.5 243.59,-1391.5 243.59,-1397.5 243.59,-1397.5 243.59,-1470.5 243.59,-1470.5 243.59,-1476.5 237.59,-1482.5 231.59,-1482.5"/>
<text text-anchor="start" x="49.59" y="-1461.7" font-family="Times,serif" font-size="16.00">intron_supporting_evidence</text>
<polygon fill="white" stroke="none" points="47.59,-1433.5 47.59,-1452.5 233.59,-1452.5 233.59,-1433.5 47.59,-1433.5"/>
<text text-anchor="start" x="134.59" y="-1440.3" font-family="Times,serif" font-style="italic" font-size="14.00">...</text>
<polygon fill="white" stroke="none" points="47.59,-1412.5 47.59,-1431.5 233.59,-1431.5 233.59,-1412.5 47.59,-1412.5"/>
<text text-anchor="start" x="102.09" y="-1418.3" font-family="Times,serif" font-size="14.00">seq_region_id</text>
<polygon fill="white" stroke="none" points="47.59,-1391.5 47.59,-1410.5 233.59,-1410.5 233.59,-1391.5 47.59,-1391.5"/>
<text text-anchor="start" x="134.59" y="-1398.3" font-family="Times,serif" font-style="italic" font-size="14.00">...</text>
<polygon fill="black" stroke="black" points="45.59,-1453.5 45.59,-1453.5 235.59,-1453.5 235.59,-1453.5 45.59,-1453.5"/>
</g>
<!-- intron_supporting_evidence&#45;&gt;seq_region -->
<g id="edge11" class="edge">
<title>intron_supporting_evidence:e&#45;&gt;seq_region:w</title>
<path fill="none" stroke="black" stroke-dasharray="5,2" d="M234.59,-1422C294.49,-1422 231.71,-2448.55 280.11,-2544.78"/>
<polygon fill="black" stroke="black" points="277.32,-2546.89 287.09,-2551 282.02,-2541.7 277.32,-2546.89"/>
</g>
<!-- marker_feature -->
<g id="node21" class="node">
<title>marker_feature</title>
<path fill="#3cb371" stroke="black" d="M188.59,-1367.5C188.59,-1367.5 92.59,-1367.5 92.59,-1367.5 86.59,-1367.5 80.59,-1361.5 80.59,-1355.5 80.59,-1355.5 80.59,-1282.5 80.59,-1282.5 80.59,-1276.5 86.59,-1270.5 92.59,-1270.5 92.59,-1270.5 188.59,-1270.5 188.59,-1270.5 194.59,-1270.5 200.59,-1276.5 200.59,-1282.5 200.59,-1282.5 200.59,-1355.5 200.59,-1355.5 200.59,-1361.5 194.59,-1367.5 188.59,-1367.5"/>
<text text-anchor="start" x="92.59" y="-1346.7" font-family="Times,serif" font-size="16.00">marker_feature</text>
<polygon fill="white" stroke="none" points="90.59,-1318.5 90.59,-1337.5 190.59,-1337.5 190.59,-1318.5 90.59,-1318.5"/>
<text text-anchor="start" x="134.59" y="-1325.3" font-family="Times,serif" font-style="italic" font-size="14.00">...</text>
<polygon fill="white" stroke="none" points="90.59,-1297.5 90.59,-1316.5 190.59,-1316.5 190.59,-1297.5 90.59,-1297.5"/>
<text text-anchor="start" x="102.09" y="-1303.3" font-family="Times,serif" font-size="14.00">seq_region_id</text>
<polygon fill="white" stroke="none" points="90.59,-1276.5 90.59,-1295.5 190.59,-1295.5 190.59,-1276.5 90.59,-1276.5"/>
<text text-anchor="start" x="134.59" y="-1283.3" font-family="Times,serif" font-style="italic" font-size="14.00">...</text>
<polygon fill="black" stroke="black" points="88.59,-1338.5 88.59,-1338.5 192.59,-1338.5 192.59,-1338.5 88.59,-1338.5"/>
</g>
<!-- marker_feature&#45;&gt;seq_region -->
<g id="edge13" class="edge">
<title>marker_feature:e&#45;&gt;seq_region:w</title>
<path fill="none" stroke="black" stroke-dasharray="5,2" d="M191.59,-1307C232.22,-1307 236.86,-1338.12 251.59,-1376 295.4,-1488.71 272.21,-2343.3 279.59,-2464 281.71,-2498.78 255.85,-2541.07 277.37,-2550.21"/>
<polygon fill="black" stroke="black" points="276.64,-2553.8 287.09,-2552 277.8,-2546.9 276.64,-2553.8"/>
</g>
<!-- misc_feature -->
<g id="node22" class="node">
<title>misc_feature</title>
<path fill="#3cb371" stroke="black" d="M181.59,-1252.5C181.59,-1252.5 99.59,-1252.5 99.59,-1252.5 93.59,-1252.5 87.59,-1246.5 87.59,-1240.5 87.59,-1240.5 87.59,-1167.5 87.59,-1167.5 87.59,-1161.5 93.59,-1155.5 99.59,-1155.5 99.59,-1155.5 181.59,-1155.5 181.59,-1155.5 187.59,-1155.5 193.59,-1161.5 193.59,-1167.5 193.59,-1167.5 193.59,-1240.5 193.59,-1240.5 193.59,-1246.5 187.59,-1252.5 181.59,-1252.5"/>
<text text-anchor="start" x="99.59" y="-1231.7" font-family="Times,serif" font-size="16.00">misc_feature</text>
<polygon fill="white" stroke="none" points="97.59,-1203.5 97.59,-1222.5 183.59,-1222.5 183.59,-1203.5 97.59,-1203.5"/>
<text text-anchor="start" x="134.59" y="-1210.3" font-family="Times,serif" font-style="italic" font-size="14.00">...</text>
<polygon fill="white" stroke="none" points="97.59,-1182.5 97.59,-1201.5 183.59,-1201.5 183.59,-1182.5 97.59,-1182.5"/>
<text text-anchor="start" x="102.09" y="-1188.3" font-family="Times,serif" font-size="14.00">seq_region_id</text>
<polygon fill="white" stroke="none" points="97.59,-1161.5 97.59,-1180.5 183.59,-1180.5 183.59,-1161.5 97.59,-1161.5"/>
<text text-anchor="start" x="134.59" y="-1168.3" font-family="Times,serif" font-style="italic" font-size="14.00">...</text>
<polygon fill="black" stroke="black" points="95.59,-1223.5 95.59,-1223.5 185.59,-1223.5 185.59,-1223.5 95.59,-1223.5"/>
</g>
<!-- misc_feature&#45;&gt;seq_region -->
<g id="edge16" class="edge">
<title>misc_feature:e&#45;&gt;seq_region:w</title>
<path fill="none" stroke="black" stroke-dasharray="5,2" d="M184.59,-1192C227.33,-1192 235.06,-1221.58 251.59,-1261 277.43,-1322.65 275.59,-2397.27 279.59,-2464 281.67,-2498.78 255.85,-2541.07 277.36,-2550.21"/>
<polygon fill="black" stroke="black" points="276.64,-2553.8 287.09,-2552 277.8,-2546.9 276.64,-2553.8"/>
</g>
<!-- operon -->
<g id="node23" class="node">
<title>operon</title>
<path fill="#ff8500" stroke="black" d="M179.09,-410.5C179.09,-410.5 102.09,-410.5 102.09,-410.5 96.09,-410.5 90.09,-404.5 90.09,-398.5 90.09,-398.5 90.09,-325.5 90.09,-325.5 90.09,-319.5 96.09,-313.5 102.09,-313.5 102.09,-313.5 179.09,-313.5 179.09,-313.5 185.09,-313.5 191.09,-319.5 191.09,-325.5 191.09,-325.5 191.09,-398.5 191.09,-398.5 191.09,-404.5 185.09,-410.5 179.09,-410.5"/>
<text text-anchor="start" x="117.59" y="-389.7" font-family="Times,serif" font-size="16.00">operon</text>
<polygon fill="white" stroke="none" points="100.09,-361.5 100.09,-380.5 181.09,-380.5 181.09,-361.5 100.09,-361.5"/>
<text text-anchor="start" x="134.59" y="-368.3" font-family="Times,serif" font-style="italic" font-size="14.00">...</text>
<polygon fill="white" stroke="none" points="100.09,-340.5 100.09,-359.5 181.09,-359.5 181.09,-340.5 100.09,-340.5"/>
<text text-anchor="start" x="102.09" y="-346.3" font-family="Times,serif" font-size="14.00">seq_region_id</text>
<polygon fill="white" stroke="none" points="100.09,-319.5 100.09,-338.5 181.09,-338.5 181.09,-319.5 100.09,-319.5"/>
<text text-anchor="start" x="134.59" y="-326.3" font-family="Times,serif" font-style="italic" font-size="14.00">...</text>
<polygon fill="black" stroke="black" points="98.09,-381.5 98.09,-381.5 183.09,-381.5 183.09,-381.5 98.09,-381.5"/>
</g>
<!-- operon&#45;&gt;seq_region -->
<g id="edge17" class="edge">
<title>operon:e&#45;&gt;seq_region:w</title>
<path fill="none" stroke="black" stroke-dasharray="5,2" d="M182.59,-350C237.69,-350 235.19,-400.39 251.59,-453 268.27,-506.55 232.67,-2399.24 281.84,-2543.33"/>
<polygon fill="black" stroke="black" points="279.4,-2544.93 288.09,-2551 285.08,-2540.84 279.4,-2544.93"/>
</g>
<!-- operon_transcript -->
<g id="node24" class="node">
<title>operon_transcript</title>
<path fill="#ff8500" stroke="black" d="M198.09,-295.5C198.09,-295.5 83.09,-295.5 83.09,-295.5 77.09,-295.5 71.09,-289.5 71.09,-283.5 71.09,-283.5 71.09,-210.5 71.09,-210.5 71.09,-204.5 77.09,-198.5 83.09,-198.5 83.09,-198.5 198.09,-198.5 198.09,-198.5 204.09,-198.5 210.09,-204.5 210.09,-210.5 210.09,-210.5 210.09,-283.5 210.09,-283.5 210.09,-289.5 204.09,-295.5 198.09,-295.5"/>
<text text-anchor="start" x="83.09" y="-274.7" font-family="Times,serif" font-size="16.00">operon_transcript</text>
<polygon fill="white" stroke="none" points="81.09,-246.5 81.09,-265.5 200.09,-265.5 200.09,-246.5 81.09,-246.5"/>
<text text-anchor="start" x="134.59" y="-253.3" font-family="Times,serif" font-style="italic" font-size="14.00">...</text>
<polygon fill="white" stroke="none" points="81.09,-225.5 81.09,-244.5 200.09,-244.5 200.09,-225.5 81.09,-225.5"/>
<text text-anchor="start" x="102.09" y="-231.3" font-family="Times,serif" font-size="14.00">seq_region_id</text>
<polygon fill="white" stroke="none" points="81.09,-204.5 81.09,-223.5 200.09,-223.5 200.09,-204.5 81.09,-204.5"/>
<text text-anchor="start" x="134.59" y="-211.3" font-family="Times,serif" font-style="italic" font-size="14.00">...</text>
<polygon fill="black" stroke="black" points="79.09,-266.5 79.09,-266.5 202.09,-266.5 202.09,-266.5 79.09,-266.5"/>
</g>
<!-- operon_transcript&#45;&gt;seq_region -->
<g id="edge18" class="edge">
<title>operon_transcript:e&#45;&gt;seq_region:w</title>
<path fill="none" stroke="black" stroke-dasharray="5,2" d="M201.59,-235C239.46,-235 239.67,-268.05 251.59,-304 289.34,-417.92 273.03,-2344.17 279.59,-2464 281.49,-2498.79 255.8,-2541.07 277.36,-2550.21"/>
<polygon fill="black" stroke="black" points="276.65,-2553.8 287.09,-2552 277.8,-2546.9 276.65,-2553.8"/>
</g>
<!-- prediction_exon -->
<g id="node25" class="node">
<title>prediction_exon</title>
<path fill="#3cb371" stroke="black" d="M193.09,-1137.5C193.09,-1137.5 88.09,-1137.5 88.09,-1137.5 82.09,-1137.5 76.09,-1131.5 76.09,-1125.5 76.09,-1125.5 76.09,-1052.5 76.09,-1052.5 76.09,-1046.5 82.09,-1040.5 88.09,-1040.5 88.09,-1040.5 193.09,-1040.5 193.09,-1040.5 199.09,-1040.5 205.09,-1046.5 205.09,-1052.5 205.09,-1052.5 205.09,-1125.5 205.09,-1125.5 205.09,-1131.5 199.09,-1137.5 193.09,-1137.5"/>
<text text-anchor="start" x="88.09" y="-1116.7" font-family="Times,serif" font-size="16.00">prediction_exon</text>
<polygon fill="white" stroke="none" points="86.09,-1088.5 86.09,-1107.5 195.09,-1107.5 195.09,-1088.5 86.09,-1088.5"/>
<text text-anchor="start" x="134.59" y="-1095.3" font-family="Times,serif" font-style="italic" font-size="14.00">...</text>
<polygon fill="white" stroke="none" points="86.09,-1067.5 86.09,-1086.5 195.09,-1086.5 195.09,-1067.5 86.09,-1067.5"/>
<text text-anchor="start" x="102.09" y="-1073.3" font-family="Times,serif" font-size="14.00">seq_region_id</text>
<polygon fill="white" stroke="none" points="86.09,-1046.5 86.09,-1065.5 195.09,-1065.5 195.09,-1046.5 86.09,-1046.5"/>
<text text-anchor="start" x="134.59" y="-1053.3" font-family="Times,serif" font-style="italic" font-size="14.00">...</text>
<polygon fill="black" stroke="black" points="84.09,-1108.5 84.09,-1108.5 197.09,-1108.5 197.09,-1108.5 84.09,-1108.5"/>
</g>
<!-- prediction_exon&#45;&gt;seq_region -->
<g id="edge19" class="edge">
<title>prediction_exon:e&#45;&gt;seq_region:w</title>
<path fill="none" stroke="black" stroke-dasharray="5,2" d="M196.59,-1077C235.8,-1077 238.24,-1109.12 251.59,-1146 276.5,-1214.87 275.28,-2390.89 279.59,-2464 281.63,-2498.78 255.84,-2541.07 277.36,-2550.21"/>
<polygon fill="black" stroke="black" points="276.64,-2553.8 287.09,-2552 277.8,-2546.9 276.64,-2553.8"/>
</g>
<!-- prediction_transcript -->
<g id="node26" class="node">
<title>prediction_transcript</title>
<path fill="#3cb371" stroke="black" d="M208.09,-1022.5C208.09,-1022.5 73.09,-1022.5 73.09,-1022.5 67.09,-1022.5 61.09,-1016.5 61.09,-1010.5 61.09,-1010.5 61.09,-937.5 61.09,-937.5 61.09,-931.5 67.09,-925.5 73.09,-925.5 73.09,-925.5 208.09,-925.5 208.09,-925.5 214.09,-925.5 220.09,-931.5 220.09,-937.5 220.09,-937.5 220.09,-1010.5 220.09,-1010.5 220.09,-1016.5 214.09,-1022.5 208.09,-1022.5"/>
<text text-anchor="start" x="73.09" y="-1001.7" font-family="Times,serif" font-size="16.00">prediction_transcript</text>
<polygon fill="white" stroke="none" points="71.09,-973.5 71.09,-992.5 210.09,-992.5 210.09,-973.5 71.09,-973.5"/>
<text text-anchor="start" x="134.59" y="-980.3" font-family="Times,serif" font-style="italic" font-size="14.00">...</text>
<polygon fill="white" stroke="none" points="71.09,-952.5 71.09,-971.5 210.09,-971.5 210.09,-952.5 71.09,-952.5"/>
<text text-anchor="start" x="102.09" y="-958.3" font-family="Times,serif" font-size="14.00">seq_region_id</text>
<polygon fill="white" stroke="none" points="71.09,-931.5 71.09,-950.5 210.09,-950.5 210.09,-931.5 71.09,-931.5"/>
<text text-anchor="start" x="134.59" y="-938.3" font-family="Times,serif" font-style="italic" font-size="14.00">...</text>
<polygon fill="black" stroke="black" points="69.09,-993.5 69.09,-993.5 212.09,-993.5 212.09,-993.5 69.09,-993.5"/>
</g>
<!-- prediction_transcript&#45;&gt;seq_region -->
<g id="edge20" class="edge">
<title>prediction_transcript:e&#45;&gt;seq_region:w</title>
<path fill="none" stroke="black" stroke-dasharray="5,2" d="M211.59,-962C247.03,-962 242.05,-996.86 251.59,-1031 294.44,-1184.38 270.37,-2305.01 279.59,-2464 281.6,-2498.78 255.83,-2541.07 277.36,-2550.21"/>
<polygon fill="black" stroke="black" points="276.65,-2553.8 287.09,-2552 277.8,-2546.9 276.65,-2553.8"/>
</g>
<!-- protein_align_feature -->
<g id="node27" class="node">
<title>protein_align_feature</title>
<path fill="#808000" stroke="black" d="M208.59,-1749.5C208.59,-1749.5 72.59,-1749.5 72.59,-1749.5 66.59,-1749.5 60.59,-1743.5 60.59,-1737.5 60.59,-1737.5 60.59,-1664.5 60.59,-1664.5 60.59,-1658.5 66.59,-1652.5 72.59,-1652.5 72.59,-1652.5 208.59,-1652.5 208.59,-1652.5 214.59,-1652.5 220.59,-1658.5 220.59,-1664.5 220.59,-1664.5 220.59,-1737.5 220.59,-1737.5 220.59,-1743.5 214.59,-1749.5 208.59,-1749.5"/>
<text text-anchor="start" x="72.59" y="-1728.7" font-family="Times,serif" font-size="16.00">protein_align_feature</text>
<polygon fill="white" stroke="none" points="70.59,-1700.5 70.59,-1719.5 210.59,-1719.5 210.59,-1700.5 70.59,-1700.5"/>
<text text-anchor="start" x="134.59" y="-1707.3" font-family="Times,serif" font-style="italic" font-size="14.00">...</text>
<polygon fill="white" stroke="none" points="70.59,-1679.5 70.59,-1698.5 210.59,-1698.5 210.59,-1679.5 70.59,-1679.5"/>
<text text-anchor="start" x="102.09" y="-1685.3" font-family="Times,serif" font-size="14.00">seq_region_id</text>
<polygon fill="white" stroke="none" points="70.59,-1658.5 70.59,-1677.5 210.59,-1677.5 210.59,-1658.5 70.59,-1658.5"/>
<text text-anchor="start" x="134.59" y="-1665.3" font-family="Times,serif" font-style="italic" font-size="14.00">...</text>
<polygon fill="black" stroke="black" points="68.59,-1720.5 68.59,-1720.5 212.59,-1720.5 212.59,-1720.5 68.59,-1720.5"/>
</g>
<!-- protein_align_feature&#45;&gt;seq_region -->
<g id="edge21" class="edge">
<title>protein_align_feature:e&#45;&gt;seq_region:w</title>
<path fill="none" stroke="black" stroke-dasharray="5,2" d="M211.59,-1689C247.03,-1689 241.7,-1723.96 251.59,-1758 295.35,-1908.79 268.92,-2307.35 279.59,-2464 281.95,-2498.76 255.91,-2541.07 277.37,-2550.21"/>
<polygon fill="black" stroke="black" points="276.64,-2553.8 287.09,-2552 277.8,-2546.9 276.64,-2553.8"/>
</g>
<!-- repeat_feature -->
<g id="node28" class="node">
<title>repeat_feature</title>
<path fill="#3cb371" stroke="black" d="M185.59,-907.5C185.59,-907.5 95.59,-907.5 95.59,-907.5 89.59,-907.5 83.59,-901.5 83.59,-895.5 83.59,-895.5 83.59,-822.5 83.59,-822.5 83.59,-816.5 89.59,-810.5 95.59,-810.5 95.59,-810.5 185.59,-810.5 185.59,-810.5 191.59,-810.5 197.59,-816.5 197.59,-822.5 197.59,-822.5 197.59,-895.5 197.59,-895.5 197.59,-901.5 191.59,-907.5 185.59,-907.5"/>
<text text-anchor="start" x="95.59" y="-886.7" font-family="Times,serif" font-size="16.00">repeat_feature</text>
<polygon fill="white" stroke="none" points="93.59,-858.5 93.59,-877.5 187.59,-877.5 187.59,-858.5 93.59,-858.5"/>
<text text-anchor="start" x="134.59" y="-865.3" font-family="Times,serif" font-style="italic" font-size="14.00">...</text>
<polygon fill="white" stroke="none" points="93.59,-837.5 93.59,-856.5 187.59,-856.5 187.59,-837.5 93.59,-837.5"/>
<text text-anchor="start" x="102.09" y="-843.3" font-family="Times,serif" font-size="14.00">seq_region_id</text>
<polygon fill="white" stroke="none" points="93.59,-816.5 93.59,-835.5 187.59,-835.5 187.59,-816.5 93.59,-816.5"/>
<text text-anchor="start" x="134.59" y="-823.3" font-family="Times,serif" font-style="italic" font-size="14.00">...</text>
<polygon fill="black" stroke="black" points="91.59,-878.5 91.59,-878.5 189.59,-878.5 189.59,-878.5 91.59,-878.5"/>
</g>
<!-- repeat_feature&#45;&gt;seq_region -->
<g id="edge22" class="edge">
<title>repeat_feature:e&#45;&gt;seq_region:w</title>
<path fill="none" stroke="black" stroke-dasharray="5,2" d="M188.59,-847C230.11,-847 236.22,-877.42 251.59,-916 283.41,-995.91 274.67,-2378.13 279.59,-2464 281.58,-2498.79 255.82,-2541.07 277.36,-2550.21"/>
<polygon fill="black" stroke="black" points="276.65,-2553.8 287.09,-2552 277.8,-2546.9 276.65,-2553.8"/>
</g>
<!-- seq_region_mapping -->
<g id="node29" class="node">
<title>seq_region_mapping</title>
<path fill="#ff6666" stroke="black" d="M208.59,-143.5C208.59,-143.5 72.59,-143.5 72.59,-143.5 66.59,-143.5 60.59,-137.5 60.59,-131.5 60.59,-131.5 60.59,-58.5 60.59,-58.5 60.59,-52.5 66.59,-46.5 72.59,-46.5 72.59,-46.5 208.59,-46.5 208.59,-46.5 214.59,-46.5 220.59,-52.5 220.59,-58.5 220.59,-58.5 220.59,-131.5 220.59,-131.5 220.59,-137.5 214.59,-143.5 208.59,-143.5"/>
<text text-anchor="start" x="72.59" y="-122.7" font-family="Times,serif" font-size="16.00">seq_region_mapping</text>
<polygon fill="white" stroke="none" points="70.59,-94.5 70.59,-113.5 210.59,-113.5 210.59,-94.5 70.59,-94.5"/>
<text text-anchor="start" x="134.59" y="-101.3" font-family="Times,serif" font-style="italic" font-size="14.00">...</text>
<polygon fill="white" stroke="none" points="70.59,-73.5 70.59,-92.5 210.59,-92.5 210.59,-73.5 70.59,-73.5"/>
<text text-anchor="start" x="77.59" y="-79.3" font-family="Times,serif" font-size="14.00">internal_seq_region_id</text>
<polygon fill="white" stroke="none" points="70.59,-52.5 70.59,-71.5 210.59,-71.5 210.59,-52.5 70.59,-52.5"/>
<text text-anchor="start" x="134.59" y="-59.3" font-family="Times,serif" font-style="italic" font-size="14.00">...</text>
<polygon fill="black" stroke="black" points="68.59,-114.5 68.59,-114.5 212.59,-114.5 212.59,-114.5 68.59,-114.5"/>
</g>
<!-- seq_region_mapping&#45;&gt;seq_region -->
<g id="edge26" class="edge">
<title>seq_region_mapping:e&#45;&gt;seq_region:w</title>
<path fill="none" stroke="black" stroke-dasharray="5,2" d="M211.59,-83C260.69,-83 242.25,-137.79 251.59,-186 257.6,-217.04 255.41,-2377.57 284.48,-2542.1"/>
<polygon fill="black" stroke="black" points="281.38,-2542.8 288.09,-2551 287.95,-2540.41 281.38,-2542.8"/>
</g>
<!-- simple_feature -->
<g id="node30" class="node">
<title>simple_feature</title>
<path fill="#3cb371" stroke="black" d="M187.59,-792.5C187.59,-792.5 93.59,-792.5 93.59,-792.5 87.59,-792.5 81.59,-786.5 81.59,-780.5 81.59,-780.5 81.59,-707.5 81.59,-707.5 81.59,-701.5 87.59,-695.5 93.59,-695.5 93.59,-695.5 187.59,-695.5 187.59,-695.5 193.59,-695.5 199.59,-701.5 199.59,-707.5 199.59,-707.5 199.59,-780.5 199.59,-780.5 199.59,-786.5 193.59,-792.5 187.59,-792.5"/>
<text text-anchor="start" x="93.59" y="-771.7" font-family="Times,serif" font-size="16.00">simple_feature</text>
<polygon fill="white" stroke="none" points="91.59,-743.5 91.59,-762.5 189.59,-762.5 189.59,-743.5 91.59,-743.5"/>
<text text-anchor="start" x="134.59" y="-750.3" font-family="Times,serif" font-style="italic" font-size="14.00">...</text>
<polygon fill="white" stroke="none" points="91.59,-722.5 91.59,-741.5 189.59,-741.5 189.59,-722.5 91.59,-722.5"/>
<text text-anchor="start" x="102.09" y="-728.3" font-family="Times,serif" font-size="14.00">seq_region_id</text>
<polygon fill="white" stroke="none" points="91.59,-701.5 91.59,-720.5 189.59,-720.5 189.59,-701.5 91.59,-701.5"/>
<text text-anchor="start" x="134.59" y="-708.3" font-family="Times,serif" font-style="italic" font-size="14.00">...</text>
<polygon fill="black" stroke="black" points="89.59,-763.5 89.59,-763.5 191.59,-763.5 191.59,-763.5 89.59,-763.5"/>
</g>
<!-- simple_feature&#45;&gt;seq_region -->
<g id="edge28" class="edge">
<title>simple_feature:e&#45;&gt;seq_region:w</title>
<path fill="none" stroke="black" stroke-dasharray="5,2" d="M190.59,-732C231.52,-732 236.77,-762.84 251.59,-801 285.03,-887.14 274.36,-2371.75 279.59,-2464 281.56,-2498.79 255.82,-2541.07 277.36,-2550.21"/>
<polygon fill="black" stroke="black" points="276.65,-2553.8 287.09,-2552 277.8,-2546.9 276.65,-2553.8"/>
</g>
<!-- transcript -->
<g id="node31" class="node">
<title>transcript</title>
<path fill="#808000" stroke="black" d="M179.09,-1634.5C179.09,-1634.5 102.09,-1634.5 102.09,-1634.5 96.09,-1634.5 90.09,-1628.5 90.09,-1622.5 90.09,-1622.5 90.09,-1549.5 90.09,-1549.5 90.09,-1543.5 96.09,-1537.5 102.09,-1537.5 102.09,-1537.5 179.09,-1537.5 179.09,-1537.5 185.09,-1537.5 191.09,-1543.5 191.09,-1549.5 191.09,-1549.5 191.09,-1622.5 191.09,-1622.5 191.09,-1628.5 185.09,-1634.5 179.09,-1634.5"/>
<text text-anchor="start" x="110.09" y="-1613.7" font-family="Times,serif" font-size="16.00">transcript</text>
<polygon fill="white" stroke="none" points="100.09,-1585.5 100.09,-1604.5 181.09,-1604.5 181.09,-1585.5 100.09,-1585.5"/>
<text text-anchor="start" x="134.59" y="-1592.3" font-family="Times,serif" font-style="italic" font-size="14.00">...</text>
<polygon fill="white" stroke="none" points="100.09,-1564.5 100.09,-1583.5 181.09,-1583.5 181.09,-1564.5 100.09,-1564.5"/>
<text text-anchor="start" x="102.09" y="-1570.3" font-family="Times,serif" font-size="14.00">seq_region_id</text>
<polygon fill="white" stroke="none" points="100.09,-1543.5 100.09,-1562.5 181.09,-1562.5 181.09,-1543.5 100.09,-1543.5"/>
<text text-anchor="start" x="134.59" y="-1550.3" font-family="Times,serif" font-style="italic" font-size="14.00">...</text>
<polygon fill="black" stroke="black" points="98.09,-1605.5 98.09,-1605.5 183.09,-1605.5 183.09,-1605.5 98.09,-1605.5"/>
</g>
<!-- transcript&#45;&gt;seq_region -->
<g id="edge29" class="edge">
<title>transcript:e&#45;&gt;seq_region:w</title>
<path fill="none" stroke="black" stroke-dasharray="5,2" d="M182.59,-1574C348.35,-1574 220.51,-1559.08 279.59,-2464 281.86,-2498.77 255.89,-2541.07 277.37,-2550.21"/>
<polygon fill="black" stroke="black" points="276.64,-2553.8 287.09,-2552 277.8,-2546.9 276.64,-2553.8"/>
</g>
</g>
</svg>
